v 0.000369 -0.014216 0.048530
v 0.000372 -0.014213 0.048527
v 0.001114 -0.014173 0.048527
v 0.001109 -0.014176 0.048530
v 0.000369 -0.012963 0.049782
v -0.000369 -0.014216 0.048530
v -0.000369 -0.014213 0.048527
v 0.001857 -0.014095 0.048527
v 0.001849 -0.014098 0.048530
v 0.001109 -0.013703 0.049001
v -0.000369 -0.012963 0.049782
v 0.001109 -0.012963 0.049739
v 0.003332 -0.012220 0.050000
v -0.001109 -0.014176 0.048530
v -0.001109 -0.014173 0.048527
v 0.002592 -0.013980 0.048527
v 0.002592 -0.013980 0.048530
v 0.001849 -0.013703 0.048922
v -0.003332 -0.012220 0.050000
v -0.001109 -0.012963 0.049739
v -0.001109 -0.013703 0.049001
v 0.001849 -0.012963 0.049655
v 0.002592 -0.012963 0.049530
v 0.004072 -0.012220 0.049867
v 0.005555 -0.011479 0.049995
v 0.006296 -0.010738 0.050000
v -0.001852 -0.014098 0.048530
v -0.001852 -0.014098 0.048527
v 0.003332 -0.013821 0.048527
v 0.003332 -0.013824 0.048530
v 0.002592 -0.013703 0.048803
v -0.006295 -0.010738 0.050000
v -0.005555 -0.011479 0.049995
v -0.004072 -0.012220 0.049867
v -0.002592 -0.012963 0.049530
v -0.001852 -0.012963 0.049655
v -0.001852 -0.013703 0.048922
v 0.003332 -0.013703 0.048647
v 0.003332 -0.012963 0.049365
v 0.003698 -0.012963 0.049265
v 0.004072 -0.012853 0.049265
v 0.004813 -0.012595 0.049265
v 0.004813 -0.012220 0.049614
v 0.005555 -0.012287 0.049265
v 0.006296 -0.011922 0.049265
v 0.006296 -0.011479 0.049655
v 0.007036 -0.010738 0.049909
v 0.007776 -0.009998 0.050000
v -0.002592 -0.013980 0.048530
v -0.002592 -0.013980 0.048527
v 0.003755 -0.013703 0.048527
v 0.003763 -0.013703 0.048530
v -0.007776 -0.009998 0.050000
v -0.007035 -0.010738 0.049909
v -0.006295 -0.011479 0.049655
v -0.006295 -0.011922 0.049265
v -0.006295 -0.012220 0.049001
v -0.006295 -0.012748 0.048530
v -0.005555 -0.012287 0.049265
v -0.004812 -0.012220 0.049614
v -0.004812 -0.012595 0.049265
v -0.004812 -0.012963 0.048922
v -0.004812 -0.013379 0.048530
v -0.004072 -0.012963 0.049162
v -0.003332 -0.012963 0.049365
v -0.003332 -0.013703 0.048647
v -0.003332 -0.013824 0.048530
v -0.002592 -0.013703 0.048803
v 0.004072 -0.013615 0.048530
v 0.004072 -0.012963 0.049159
v 0.004813 -0.013330 0.048530
v 0.005555 -0.012963 0.048566
v 0.005626 -0.012963 0.048530
v 0.006296 -0.012611 0.048530
v 0.007036 -0.011503 0.049265
v 0.007776 -0.011012 0.049265
v 0.007776 -0.010738 0.049489
v 0.008516 -0.009998 0.049614
v 0.009259 -0.009257 0.049655
v 0.009259 -0.008517 0.050000
v -0.003332 -0.013821 0.048527
v 0.004072 -0.013612 0.048527
v -0.008518 -0.009257 0.050000
v -0.009259 -0.009257 0.049655
v -0.008518 -0.009998 0.049614
v -0.007035 -0.011503 0.049265
v -0.007776 -0.010738 0.049489
v -0.007776 -0.011479 0.048882
v -0.007776 -0.011903 0.048530
v -0.007035 -0.012356 0.048530
v -0.006295 -0.012748 0.048527
v -0.005837 -0.012963 0.048530
v -0.005555 -0.012963 0.048647
v -0.005555 -0.013089 0.048530
v -0.004812 -0.013379 0.048527
v -0.004072 -0.013623 0.048530
v -0.003782 -0.013703 0.048530
v -0.003777 -0.013703 0.048527
v 0.004813 -0.013328 0.048527
v 0.005555 -0.012998 0.048530
v 0.005620 -0.012963 0.048527
v 0.006296 -0.012609 0.048527
v 0.006946 -0.012220 0.048527
v 0.006949 -0.012220 0.048530
v 0.007036 -0.012166 0.048530
v 0.007776 -0.011656 0.048530
v 0.008147 -0.010738 0.049265
v 0.008516 -0.010451 0.049265
v 0.009042 -0.009998 0.049265
v 0.009259 -0.009799 0.049265
v 0.009801 -0.009257 0.049265
v 0.009999 -0.009043 0.049265
v 0.009999 -0.008517 0.049614
v 0.009999 -0.007776 0.050000
v -0.009999 -0.007776 0.050000
v -0.009999 -0.008517 0.049614
v -0.009999 -0.009043 0.049265
v -0.009801 -0.009257 0.049265
v -0.009999 -0.009998 0.048608
v -0.009999 -0.010108 0.048530
v -0.009259 -0.009998 0.049122
v -0.008518 -0.010451 0.049265
v -0.009259 -0.010792 0.048530
v -0.007263 -0.012220 0.048530
v -0.008518 -0.010738 0.049041
v -0.008518 -0.011385 0.048530
v -0.008386 -0.011479 0.048530
v -0.008386 -0.011479 0.048527
v -0.007778 -0.011900 0.048527
v -0.007260 -0.012220 0.048527
v -0.007035 -0.012354 0.048527
v -0.005834 -0.012963 0.048527
v -0.005555 -0.013089 0.048527
v -0.004072 -0.013623 0.048527
v 0.005555 -0.012995 0.048527
v 0.007049 -0.012155 0.048527
v 0.007776 -0.011651 0.048527
v 0.008001 -0.011479 0.048527
v 0.008006 -0.011479 0.048530
v 0.008516 -0.011068 0.048530
v 0.008890 -0.010738 0.048530
v 0.009259 -0.010392 0.048530
v 0.009644 -0.009998 0.048530
v 0.009999 -0.009606 0.048530
v 0.010449 -0.008517 0.049265
v 0.010739 -0.008147 0.049265
v 0.010739 -0.007776 0.049489
v 0.010739 -0.007036 0.049909
v 0.011479 -0.005555 0.049995
v 0.012219 -0.003333 0.050000
v -0.012222 -0.003333 0.050000
v -0.011479 -0.005555 0.049995
v -0.010739 -0.007036 0.049909
v -0.010739 -0.007776 0.049489
v -0.010452 -0.008517 0.049265
v -0.010790 -0.009257 0.048530
v -0.010739 -0.009257 0.048569
v -0.009999 -0.009257 0.049122
v -0.010107 -0.009998 0.048530
v -0.009999 -0.010108 0.048527
v -0.009318 -0.010738 0.048530
v -0.009318 -0.010738 0.048527
v -0.009259 -0.010789 0.048527
v -0.008518 -0.011385 0.048527
v 0.008516 -0.011066 0.048527
v 0.008887 -0.010738 0.048527
v 0.009256 -0.010390 0.048527
v 0.009641 -0.009995 0.048527
v 0.009996 -0.009606 0.048527
v 0.010295 -0.009257 0.048530
v 0.010739 -0.008681 0.048530
v 0.011013 -0.007776 0.049265
v 0.011479 -0.007071 0.049265
v 0.011479 -0.007036 0.049284
v 0.011479 -0.006295 0.049655
v 0.011921 -0.006295 0.049265
v 0.012287 -0.005555 0.049265
v 0.012219 -0.004814 0.049614
v 0.012219 -0.004074 0.049867
v 0.012962 -0.002593 0.049530
v 0.012962 -0.001849 0.049655
v 0.012962 -0.001109 0.049739
v 0.012962 -0.000371 0.049782
v 0.012219 0.003332 0.050000
v -0.012222 0.003332 0.050000
v -0.012962 -0.000371 0.049782
v -0.012962 -0.001109 0.049739
v -0.012962 -0.001849 0.049655
v -0.012962 -0.002593 0.049530
v -0.012222 -0.004074 0.049867
v -0.012222 -0.004814 0.049614
v -0.012222 -0.005555 0.049324
v -0.012748 -0.006295 0.048530
v -0.012222 -0.006295 0.049001
v -0.011924 -0.006295 0.049265
v -0.011479 -0.006295 0.049655
v -0.011479 -0.007036 0.049284
v -0.011902 -0.007776 0.048530
v -0.011479 -0.007776 0.048882
v -0.011013 -0.007776 0.049265
v -0.010739 -0.008517 0.049041
v -0.011479 -0.008385 0.048530
v -0.011384 -0.008517 0.048530
v -0.010790 -0.009257 0.048527
v -0.010739 -0.009316 0.048530
v -0.010107 -0.009998 0.048527
v 0.010292 -0.009257 0.048527
v 0.010731 -0.008689 0.048527
v 0.010739 -0.008678 0.048527
v 0.010858 -0.008517 0.048530
v 0.011349 -0.007776 0.048530
v 0.011501 -0.007036 0.049265
v 0.011775 -0.007036 0.048530
v 0.012144 -0.006295 0.048530
v 0.012219 -0.006115 0.048530
v 0.012455 -0.005555 0.048530
v 0.012594 -0.004814 0.049265
v 0.012854 -0.004074 0.049265
v 0.012962 -0.003333 0.049365
v 0.013065 -0.003333 0.049265
v 0.013233 -0.002593 0.049265
v 0.013355 -0.001849 0.049265
v 0.013437 -0.001109 0.049265
v 0.013480 -0.000371 0.049265
v 0.012962 0.000370 0.049782
v 0.012962 0.001110 0.049739
v 0.012962 0.001851 0.049655
v 0.012962 0.002591 0.049530
v 0.012219 0.004072 0.049867
v 0.011479 0.005553 0.049995
v 0.009999 0.007778 0.050000
v -0.011479 0.005553 0.049992
v -0.012222 0.004072 0.049812
v -0.013860 0.002591 0.048527
v -0.012962 0.001851 0.049605
v -0.012962 0.001110 0.049718
v -0.012962 0.000370 0.049776
v -0.009999 0.007778 0.050000
v -0.013480 -0.000371 0.049265
v -0.014177 -0.001109 0.048530
v -0.013439 -0.001109 0.049265
v -0.014098 -0.001849 0.048530
v -0.013702 -0.001849 0.048922
v -0.013982 -0.002593 0.048530
v -0.013233 -0.002593 0.049265
v -0.013702 -0.003333 0.048647
v -0.012962 -0.003333 0.049365
v -0.012962 -0.004074 0.049162
v -0.013380 -0.004814 0.048530
v -0.012962 -0.004814 0.048922
v -0.013090 -0.005555 0.048530
v -0.012962 -0.005555 0.048647
v -0.012962 -0.005836 0.048530
v -0.012748 -0.006295 0.048527
v -0.012355 -0.007036 0.048530
v -0.012222 -0.007036 0.048647
v -0.012222 -0.007261 0.048530
v -0.011902 -0.007776 0.048527
v -0.011482 -0.008383 0.048527
v -0.011384 -0.008517 0.048527
v -0.010739 -0.009316 0.048527
v 0.010858 -0.008514 0.048527
v 0.011349 -0.007776 0.048527
v 0.011479 -0.007556 0.048530
v 0.011775 -0.007033 0.048527
v 0.012141 -0.006293 0.048527
v 0.012219 -0.006113 0.048527
v 0.012455 -0.005549 0.048527
v 0.012721 -0.004814 0.048530
v 0.012938 -0.004074 0.048530
v 0.012962 -0.003698 0.049265
v 0.012962 -0.003969 0.048530
v 0.013109 -0.003333 0.048530
v 0.013239 -0.002593 0.048530
v 0.013326 -0.001849 0.048530
v 0.013369 -0.001109 0.048527
v 0.013374 -0.000371 0.048530
v 0.013480 0.000370 0.049265
v 0.013437 0.001110 0.049265
v 0.013355 0.001851 0.049265
v 0.013233 0.002591 0.049265
v 0.013065 0.003332 0.049265
v 0.012962 0.003332 0.049365
v 0.012962 0.003699 0.049265
v 0.012854 0.004072 0.049265
v 0.012594 0.004813 0.049265
v 0.012219 0.004813 0.049614
v 0.012287 0.005553 0.049265
v 0.011921 0.006294 0.049265
v 0.011479 0.006294 0.049655
v 0.010739 0.007034 0.049909
v 0.009999 0.008518 0.049614
v 0.009259 0.009259 0.049655
v 0.009259 0.008518 0.050000
v -0.010739 0.007034 0.049810
v -0.012222 0.006600 0.048527
v -0.012404 0.006294 0.048527
v -0.012794 0.005559 0.048527
v -0.012797 0.005553 0.048527
v -0.012965 0.005191 0.048527
v -0.013133 0.004813 0.048527
v -0.013420 0.004075 0.048527
v -0.013662 0.003332 0.048527
v -0.013705 0.003173 0.048527
v -0.014011 0.001853 0.048527
v -0.014011 0.001851 0.048530
v -0.014125 0.001113 0.048527
v -0.014198 0.000370 0.048530
v -0.014217 -0.000366 0.048527
v -0.008518 0.009259 0.050000
v -0.010134 0.009259 0.048530
v -0.010742 0.008620 0.048527
v -0.010831 0.008518 0.048527
v -0.011430 0.007778 0.048527
v -0.014215 -0.000371 0.048530
v -0.014177 -0.001109 0.048527
v -0.014101 -0.001847 0.048527
v -0.013982 -0.002593 0.048527
v -0.013824 -0.003333 0.048527
v -0.013702 -0.003781 0.048530
v -0.013624 -0.004074 0.048530
v -0.013380 -0.004814 0.048527
v -0.013090 -0.005555 0.048527
v -0.012962 -0.005836 0.048527
v -0.012355 -0.007036 0.048527
v -0.012222 -0.007261 0.048527
v 0.011479 -0.007554 0.048527
v 0.012718 -0.004811 0.048527
v 0.012935 -0.004071 0.048527
v 0.012962 -0.003958 0.048527
v 0.013109 -0.003325 0.048527
v 0.013236 -0.002593 0.048527
v 0.013323 -0.001849 0.048527
v 0.013372 -0.000371 0.048527
v 0.013372 -0.000368 0.048527
v 0.013337 0.000372 0.048527
v 0.013261 0.001110 0.048530
v 0.013139 0.001851 0.048527
v 0.012973 0.002591 0.048527
v 0.012962 0.002634 0.048527
v 0.012962 0.003332 0.049009
v 0.012764 0.003332 0.048530
v 0.012504 0.004072 0.048527
v 0.012219 0.004756 0.048527
v 0.012195 0.004813 0.048527
v 0.011832 0.005551 0.048527
v 0.011826 0.005561 0.048527
v 0.011501 0.007034 0.049265
v 0.011479 0.007034 0.049284
v 0.011479 0.007069 0.049265
v 0.011013 0.007778 0.049265
v 0.010739 0.007778 0.049489
v 0.009999 0.009041 0.049265
v 0.009801 0.009259 0.049265
v 0.010739 0.008148 0.049265
v 0.010449 0.008518 0.049265
v 0.009259 0.009801 0.049265
v 0.008516 0.009999 0.049614
v 0.007776 0.009999 0.050000
v -0.011479 0.007705 0.048530
v -0.011487 0.007697 0.048527
v -0.011951 0.007034 0.048527
v -0.014198 0.000375 0.048527
v -0.007776 0.009999 0.050000
v -0.009999 0.009393 0.048527
v -0.010137 0.009259 0.048527
v -0.009999 0.009390 0.048530
v -0.013702 -0.003787 0.048527
v -0.013624 -0.004074 0.048527
v 0.013258 0.001113 0.048527
v 0.012775 0.003286 0.048527
v 0.012762 0.003332 0.048527
v 0.011479 0.006168 0.048527
v 0.011403 0.006297 0.048527
v 0.010907 0.007037 0.048527
v 0.009999 0.008159 0.048527
v 0.010333 0.007778 0.048530
v 0.009660 0.008521 0.048527
v 0.010739 0.007262 0.048527
v 0.009259 0.008915 0.048527
v 0.009042 0.009999 0.049265
v 0.008516 0.010450 0.049265
v 0.007776 0.010740 0.049479
v 0.007036 0.010740 0.049903
v 0.005555 0.011480 0.049994
v 0.006296 0.010740 0.050000
v -0.007038 0.011569 0.048527
v -0.007193 0.011483 0.048527
v -0.007776 0.011137 0.048527
v -0.008372 0.010740 0.048527
v -0.008518 0.010638 0.048527
v -0.009259 0.010061 0.048527
v -0.009329 0.010002 0.048527
v -0.006295 0.010740 0.050000
v -0.006295 0.011942 0.048527
v 0.010330 0.007778 0.048527
v 0.008874 0.009261 0.048527
v 0.008516 0.009557 0.048527
v 0.008136 0.010740 0.049265
v 0.007776 0.010989 0.049265
v 0.007036 0.011429 0.049265
v 0.006296 0.011480 0.049603
v 0.006296 0.011805 0.049265
v 0.005555 0.012127 0.049265
v 0.004813 0.012221 0.049488
v 0.004072 0.012221 0.049811
v 0.003332 0.012221 0.050000
v -0.003332 0.012221 0.050000
v -0.005650 0.012224 0.048527
v 0.007036 0.010683 0.048527
v 0.006949 0.010748 0.048527
v 0.006296 0.011188 0.048527
v 0.005808 0.011480 0.048527
v 0.006935 0.011480 0.049265
v 0.005555 0.011625 0.048527
v 0.004818 0.011995 0.048527
v 0.004284 0.012224 0.048527
v 0.004072 0.012312 0.048527
v 0.005303 0.012221 0.049265
v 0.004813 0.012398 0.049265
v 0.004072 0.012621 0.049265
v 0.003332 0.012798 0.049265
v 0.002592 0.012929 0.049265
v 0.001849 0.012961 0.049367
v 0.001109 0.012961 0.049472
v 0.000369 0.012961 0.049507
v -0.000369 0.012961 0.049442
v -0.001109 0.012951 0.049265
v -0.001852 0.012827 0.049265
v -0.002592 0.013055 0.048527
v -0.003110 0.012964 0.048527
v -0.003332 0.012924 0.048527
v -0.004072 0.012749 0.048527
v -0.004804 0.012532 0.048527
v -0.004812 0.012529 0.048527
v -0.005550 0.012264 0.048527
v 0.003335 0.012572 0.048527
v 0.002592 0.012787 0.048527
v 0.001849 0.012953 0.048527
v 0.001792 0.012964 0.048527
v 0.001109 0.013077 0.048527
v 0.001849 0.013018 0.049265
v 0.001109 0.013063 0.049265
v 0.000369 0.013069 0.049265
v -0.000369 0.013031 0.049265
v -0.001852 0.013144 0.048527
v 0.000369 0.013157 0.048527
v -0.000369 0.013195 0.048527
v -0.001109 0.013189 0.048527
f 1 2 3
f 1 3 4
f 1 4 5
f 1 5 11
f 1 11 6
f 1 6 7
f 1 7 2
f 2 7 15
f 2 15 28
f 2 28 50
f 2 50 81
f 2 81 98
f 2 98 134
f 2 134 95
f 2 95 133
f 2 133 132
f 2 132 91
f 2 91 131
f 2 131 130
f 2 130 129
f 2 129 128
f 2 128 164
f 2 164 163
f 2 163 162
f 2 162 160
f 2 160 206
f 2 206 261
f 2 261 204
f 2 204 260
f 2 260 259
f 2 259 258
f 2 258 326
f 2 326 325
f 2 325 254
f 2 254 324
f 2 324 323
f 2 323 322
f 2 322 369
f 2 369 368
f 2 368 319
f 2 319 318
f 2 318 317
f 2 317 316
f 2 316 309
f 2 309 363
f 2 363 307
f 2 307 305
f 2 305 234
f 2 234 304
f 2 304 303
f 2 303 302
f 2 302 301
f 2 301 300
f 2 300 299
f 2 299 298
f 2 298 297
f 2 297 296
f 2 296 362
f 2 362 361
f 2 361 314
f 2 314 313
f 2 313 312
f 2 312 366
f 2 366 365
f 2 365 393
f 2 393 392
f 2 392 391
f 2 391 390
f 2 390 389
f 2 389 388
f 2 388 387
f 2 387 395
f 2 395 409
f 2 409 436
f 2 436 435
f 2 435 434
f 2 434 433
f 2 433 432
f 2 432 431
f 2 431 430
f 2 430 446
f 2 446 449
f 2 449 448
f 2 448 447
f 2 447 441
f 2 441 440
f 2 440 439
f 2 439 438
f 2 438 437
f 2 437 418
f 2 418 417
f 2 417 416
f 2 416 415
f 2 415 413
f 2 413 412
f 2 412 411
f 2 411 410
f 2 410 398
f 2 398 397
f 2 397 380
f 2 380 378
f 2 378 376
f 2 376 396
f 2 396 379
f 2 379 375
f 2 375 374
f 2 374 373
f 2 373 347
f 2 347 346
f 2 346 345
f 2 345 344
f 2 344 343
f 2 343 372
f 2 372 371
f 2 371 340
f 2 340 339
f 2 339 338
f 2 338 370
f 2 370 336
f 2 336 335
f 2 335 334
f 2 334 276
f 2 276 333
f 2 333 332
f 2 332 331
f 2 331 330
f 2 330 329
f 2 329 328
f 2 328 268
f 2 268 267
f 2 267 266
f 2 266 265
f 2 265 327
f 2 327 263
f 2 263 262
f 2 262 209
f 2 209 208
f 2 208 207
f 2 207 169
f 2 169 168
f 2 168 167
f 2 167 166
f 2 166 165
f 2 165 138
f 2 138 137
f 2 137 136
f 2 136 103
f 2 103 102
f 2 102 101
f 2 101 135
f 2 135 99
f 2 99 82
f 2 82 51
f 2 51 29
f 2 29 16
f 2 16 8
f 2 8 3
f 3 8 4
f 4 8 9
f 4 9 10
f 4 10 5
f 5 10 12
f 5 12 13
f 5 13 19
f 5 19 11
f 6 11 14
f 6 14 15
f 6 15 7
f 8 16 9
f 9 16 17
f 9 17 18
f 9 18 12
f 9 12 10
f 11 19 20
f 11 20 21
f 11 21 14
f 12 18 22
f 12 22 13
f 13 22 23
f 13 23 24
f 13 24 25
f 13 25 26
f 13 26 48
f 13 48 80
f 13 80 114
f 13 114 150
f 13 150 184
f 13 184 231
f 13 231 294
f 13 294 359
f 13 359 386
f 13 386 407
f 13 407 408
f 13 408 394
f 13 394 364
f 13 364 310
f 13 310 238
f 13 238 185
f 13 185 151
f 13 151 115
f 13 115 83
f 13 83 53
f 13 53 32
f 13 32 19
f 14 21 27
f 14 27 28
f 14 28 15
f 16 29 30
f 16 30 17
f 17 31 18
f 17 30 31
f 18 31 22
f 19 32 33
f 19 33 34
f 19 34 35
f 19 35 36
f 19 36 20
f 20 36 37
f 20 37 27
f 20 27 21
f 22 31 23
f 23 31 30
f 23 30 38
f 23 38 39
f 23 39 24
f 24 39 40
f 24 40 41
f 24 41 42
f 24 42 43
f 24 43 25
f 25 43 44
f 25 44 45
f 25 45 46
f 25 46 47
f 25 47 48
f 25 48 26
f 27 37 49
f 27 49 50
f 27 50 28
f 29 51 30
f 30 51 52
f 30 52 38
f 32 53 33
f 33 53 54
f 33 54 55
f 33 55 56
f 33 56 57
f 33 57 58
f 33 58 59
f 33 59 60
f 33 60 34
f 34 60 61
f 34 61 62
f 34 62 63
f 34 63 64
f 34 64 65
f 34 65 35
f 35 65 66
f 35 66 67
f 35 67 68
f 35 68 36
f 36 68 37
f 37 68 49
f 38 52 39
f 39 52 40
f 40 52 69
f 40 69 70
f 40 70 41
f 41 70 42
f 42 70 69
f 42 69 71
f 42 71 44
f 42 44 43
f 44 71 72
f 44 72 45
f 45 72 73
f 45 73 74
f 45 74 75
f 45 75 46
f 46 75 47
f 47 75 76
f 47 76 77
f 47 77 78
f 47 78 48
f 48 78 79
f 48 79 80
f 49 68 67
f 49 67 50
f 50 67 81
f 51 82 69
f 51 69 52
f 53 83 84
f 53 84 85
f 53 85 54
f 54 86 55
f 54 85 87
f 54 87 88
f 54 88 89
f 54 89 86
f 55 86 90
f 55 90 56
f 56 90 57
f 57 90 58
f 58 90 91
f 58 91 92
f 58 92 59
f 59 92 93
f 59 93 60
f 60 93 61
f 61 93 94
f 61 94 62
f 62 94 63
f 63 94 133
f 63 133 95
f 63 95 134
f 63 134 96
f 63 96 64
f 64 96 65
f 65 96 97
f 65 97 66
f 66 97 67
f 67 97 98
f 67 98 81
f 69 82 99
f 69 99 71
f 71 99 135
f 71 135 100
f 71 100 72
f 72 100 73
f 73 100 135
f 73 135 101
f 73 101 102
f 73 102 74
f 74 103 104
f 74 104 75
f 74 102 103
f 75 104 105
f 75 105 76
f 76 105 106
f 76 106 107
f 76 107 77
f 77 107 108
f 77 108 78
f 78 108 109
f 78 109 110
f 78 110 79
f 79 110 111
f 79 111 112
f 79 112 113
f 79 113 114
f 79 114 80
f 83 115 84
f 84 115 116
f 84 116 117
f 84 117 118
f 84 118 119
f 84 119 120
f 84 120 121
f 84 121 85
f 85 122 87
f 85 121 123
f 85 123 122
f 86 89 124
f 86 124 90
f 87 122 125
f 87 125 126
f 87 126 127
f 87 127 88
f 88 127 89
f 89 127 128
f 89 128 129
f 89 129 124
f 90 124 130
f 90 130 131
f 90 131 91
f 91 132 92
f 92 132 133
f 92 133 94
f 92 94 93
f 96 134 97
f 97 134 98
f 103 136 105
f 103 105 104
f 105 136 106
f 106 136 137
f 106 137 138
f 106 138 139
f 106 139 107
f 107 139 108
f 108 139 140
f 108 140 109
f 109 140 141
f 109 141 110
f 110 142 111
f 110 141 142
f 111 142 143
f 111 143 112
f 112 144 145
f 112 145 113
f 112 143 144
f 113 145 146
f 113 146 147
f 113 147 148
f 113 148 114
f 114 148 149
f 114 149 150
f 115 151 152
f 115 152 153
f 115 153 116
f 116 153 154
f 116 154 155
f 116 155 156
f 116 156 157
f 116 157 117
f 117 158 118
f 117 157 158
f 118 158 119
f 119 158 159
f 119 159 120
f 120 159 206
f 120 206 160
f 120 160 162
f 120 162 161
f 120 161 121
f 121 161 123
f 122 123 125
f 123 161 162
f 123 162 163
f 123 163 164
f 123 164 126
f 123 126 125
f 124 129 130
f 126 164 128
f 126 128 127
f 138 165 139
f 139 165 140
f 140 165 166
f 140 166 141
f 141 166 142
f 142 166 167
f 142 167 168
f 142 168 143
f 143 168 169
f 143 169 144
f 144 170 145
f 144 169 207
f 144 207 170
f 145 170 146
f 146 170 171
f 146 171 172
f 146 172 147
f 147 172 148
f 148 172 173
f 148 173 174
f 148 174 175
f 148 175 149
f 149 175 176
f 149 176 177
f 149 177 178
f 149 178 179
f 149 179 150
f 150 179 180
f 150 180 181
f 150 181 182
f 150 182 183
f 150 183 225
f 150 225 184
f 151 185 186
f 151 186 187
f 151 187 188
f 151 188 189
f 151 189 190
f 151 190 152
f 152 190 191
f 152 191 192
f 152 192 193
f 152 193 194
f 152 194 195
f 152 195 196
f 152 196 153
f 153 196 197
f 153 197 198
f 153 198 199
f 153 199 200
f 153 200 154
f 154 201 155
f 154 200 202
f 154 202 203
f 154 203 201
f 155 201 156
f 156 203 260
f 156 260 204
f 156 204 261
f 156 261 205
f 156 205 157
f 156 201 203
f 157 205 158
f 158 205 159
f 159 205 261
f 159 261 206
f 170 207 208
f 170 208 171
f 171 208 209
f 171 209 262
f 171 262 210
f 171 210 172
f 172 210 211
f 172 211 173
f 173 212 174
f 173 211 212
f 174 212 175
f 175 212 176
f 176 212 213
f 176 213 214
f 176 214 177
f 177 214 215
f 177 215 216
f 177 216 217
f 177 217 178
f 178 217 179
f 179 217 218
f 179 218 219
f 179 219 180
f 180 219 220
f 180 220 221
f 180 221 181
f 181 221 222
f 181 222 182
f 182 222 223
f 182 223 224
f 182 224 183
f 183 224 278
f 183 278 225
f 184 225 226
f 184 226 227
f 184 227 228
f 184 228 229
f 184 229 230
f 184 230 231
f 185 232 233
f 185 233 234
f 185 234 235
f 185 235 236
f 185 236 237
f 185 237 186
f 185 238 232
f 186 237 239
f 186 239 240
f 186 240 241
f 186 241 187
f 187 241 242
f 187 242 243
f 187 243 188
f 188 243 244
f 188 244 245
f 188 245 189
f 189 245 246
f 189 246 247
f 189 247 190
f 190 247 248
f 190 248 249
f 190 249 250
f 190 250 191
f 191 250 251
f 191 251 252
f 191 252 192
f 192 252 253
f 192 253 193
f 193 253 324
f 193 324 254
f 193 254 325
f 193 325 255
f 193 255 194
f 194 255 195
f 195 255 256
f 195 256 196
f 196 256 197
f 197 256 257
f 197 257 198
f 198 257 326
f 198 326 258
f 198 258 259
f 198 259 202
f 198 202 199
f 199 202 200
f 202 259 203
f 203 259 260
f 210 262 263
f 210 263 211
f 211 263 264
f 211 264 212
f 212 264 213
f 213 264 327
f 213 327 265
f 213 265 214
f 214 266 267
f 214 267 215
f 214 265 266
f 215 267 216
f 216 267 268
f 216 268 269
f 216 269 217
f 217 269 218
f 218 269 270
f 218 270 271
f 218 271 219
f 219 271 220
f 220 271 270
f 220 270 272
f 220 272 273
f 220 273 221
f 221 274 222
f 221 273 274
f 222 274 275
f 222 275 223
f 223 275 276
f 223 276 224
f 224 276 277
f 224 277 278
f 225 278 226
f 226 278 279
f 226 279 280
f 226 280 227
f 227 280 281
f 227 281 228
f 228 281 282
f 228 282 283
f 228 283 229
f 229 283 284
f 229 284 285
f 229 285 286
f 229 286 287
f 229 287 230
f 230 287 288
f 230 288 289
f 230 289 290
f 230 290 291
f 230 291 231
f 231 292 293
f 231 293 294
f 231 291 292
f 232 295 296
f 232 296 297
f 232 297 298
f 232 298 299
f 232 299 300
f 232 300 301
f 232 301 302
f 232 302 233
f 232 238 295
f 233 302 303
f 233 303 304
f 233 304 234
f 234 305 306
f 234 306 235
f 235 306 307
f 235 307 236
f 236 307 308
f 236 308 237
f 237 308 309
f 237 309 239
f 238 310 311
f 238 311 312
f 238 312 313
f 238 313 314
f 238 314 295
f 239 309 315
f 239 315 240
f 240 315 309
f 240 309 316
f 240 316 317
f 240 317 242
f 240 242 241
f 242 244 243
f 242 317 244
f 244 317 318
f 244 318 319
f 244 319 245
f 245 319 246
f 246 319 320
f 246 320 321
f 246 321 247
f 247 321 248
f 248 321 249
f 249 321 369
f 249 369 322
f 249 322 323
f 249 323 251
f 249 251 250
f 251 323 324
f 251 324 253
f 251 253 252
f 255 325 326
f 255 326 257
f 255 257 256
f 263 327 264
f 268 328 269
f 269 328 329
f 269 329 270
f 270 329 330
f 270 330 272
f 272 330 331
f 272 331 273
f 273 331 274
f 274 331 332
f 274 332 333
f 274 333 275
f 275 333 276
f 276 334 277
f 277 334 335
f 277 335 336
f 277 336 278
f 278 336 279
f 279 336 337
f 279 337 280
f 280 337 338
f 280 338 281
f 281 338 339
f 281 339 282
f 282 339 340
f 282 340 341
f 282 341 284
f 282 284 283
f 284 341 342
f 284 342 285
f 285 342 343
f 285 343 286
f 286 343 288
f 286 288 287
f 288 343 344
f 288 344 345
f 288 345 346
f 288 346 289
f 289 346 347
f 289 347 348
f 289 348 290
f 290 348 349
f 290 349 291
f 291 349 350
f 291 350 351
f 291 351 352
f 291 352 292
f 292 353 354
f 292 354 293
f 292 352 355
f 292 355 356
f 292 356 353
f 293 354 357
f 293 357 358
f 293 358 359
f 293 359 294
f 295 314 360
f 295 360 361
f 295 361 362
f 295 362 296
f 305 307 306
f 307 363 308
f 308 363 309
f 310 364 311
f 311 365 366
f 311 366 312
f 311 364 367
f 311 367 365
f 314 361 360
f 319 368 321
f 319 321 320
f 321 368 369
f 336 370 337
f 337 370 338
f 340 371 342
f 340 342 341
f 342 372 343
f 342 371 372
f 347 373 348
f 348 373 374
f 348 374 350
f 348 350 349
f 350 374 351
f 351 374 375
f 351 375 355
f 351 355 352
f 353 376 354
f 353 356 377
f 353 377 376
f 354 376 378
f 354 378 357
f 355 375 379
f 355 379 356
f 356 379 377
f 357 380 381
f 357 381 358
f 357 378 380
f 358 381 382
f 358 382 383
f 358 383 384
f 358 384 359
f 359 384 385
f 359 385 386
f 364 387 388
f 364 388 389
f 364 389 390
f 364 390 391
f 364 391 392
f 364 392 393
f 364 393 365
f 364 365 367
f 364 394 395
f 364 395 387
f 376 377 396
f 377 379 396
f 380 397 381
f 381 397 382
f 382 397 398
f 382 398 399
f 382 399 383
f 383 399 400
f 383 400 384
f 384 400 401
f 384 401 385
f 385 401 402
f 385 402 403
f 385 403 404
f 385 404 405
f 385 405 406
f 385 406 407
f 385 407 386
f 394 408 395
f 395 408 409
f 398 410 399
f 399 410 411
f 399 411 400
f 400 411 412
f 400 412 413
f 400 413 401
f 401 414 402
f 401 413 415
f 401 415 414
f 402 414 403
f 403 414 415
f 403 415 416
f 403 416 404
f 404 416 417
f 404 417 418
f 404 418 419
f 404 419 405
f 405 420 406
f 405 419 420
f 406 420 421
f 406 421 422
f 406 422 407
f 407 422 423
f 407 423 424
f 407 424 425
f 407 425 426
f 407 426 408
f 408 427 428
f 408 428 429
f 408 429 430
f 408 430 431
f 408 431 432
f 408 432 433
f 408 433 434
f 408 434 435
f 408 435 436
f 408 436 409
f 408 426 427
f 418 437 420
f 418 420 419
f 420 437 421
f 421 437 438
f 421 438 422
f 422 438 439
f 422 439 440
f 422 440 423
f 423 440 441
f 423 441 442
f 423 442 424
f 424 442 425
f 425 442 443
f 425 443 426
f 426 443 444
f 426 444 427
f 427 445 428
f 427 444 445
f 428 445 446
f 428 446 430
f 428 430 429
f 441 447 442
f 442 447 443
f 443 447 448
f 443 448 444
f 444 448 449
f 444 449 445
f 445 449 446
