v -0.000371 -0.013437 0.043382
v 0.000367 -0.013398 0.043382
v -0.001112 -0.013431 0.043382
v 0.000367 -0.012826 0.042649
v 0.001113 -0.012818 0.042649
v 0.001851 -0.012771 0.042649
v 0.000539 -0.013382 0.043382
v -0.001850 -0.013387 0.043382
v -0.000371 -0.012788 0.042649
v 0.002592 -0.012680 0.042649
v 0.001110 -0.013321 0.043382
v -0.001847 -0.012652 0.042649
v -0.002590 -0.013299 0.043382
v 0.003332 -0.012545 0.042649
v 0.001851 -0.013199 0.043382
v -0.002590 -0.012962 0.043047
v -0.002590 -0.012558 0.042649
v -0.003331 -0.013172 0.043382
v 0.002592 -0.013036 0.043382
v 0.004076 -0.012365 0.042649
v -0.003331 -0.012962 0.043176
v -0.003331 -0.012420 0.042649
v -0.004075 -0.013000 0.043382
v 0.003332 -0.012826 0.043382
v 0.004556 -0.012221 0.042649
v -0.004075 -0.012962 0.043344
v -0.004075 -0.012241 0.042649
v -0.004208 -0.012962 0.043382
v 0.004814 -0.012141 0.042649
v 0.004073 -0.012569 0.043382
v -0.004141 -0.012221 0.042649
v -0.004815 -0.012782 0.043382
v 0.005554 -0.011862 0.042649
v 0.004814 -0.012263 0.043382
v -0.004815 -0.012221 0.042846
v -0.004815 -0.012011 0.042649
v -0.005556 -0.012522 0.043382
v 0.006295 -0.011534 0.042649
v 0.004902 -0.012221 0.043382
v -0.005556 -0.012221 0.043101
v -0.005556 -0.011730 0.042649
v -0.006272 -0.012221 0.043382
v 0.006403 -0.011478 0.042649
v 0.005554 -0.011898 0.043382
v -0.006297 -0.011401 0.042649
v -0.007035 -0.011840 0.043382
v 0.007036 -0.011144 0.042649
v 0.006295 -0.011476 0.043382
v -0.007035 -0.011478 0.043060
v -0.007037 -0.011009 0.042649
v -0.007678 -0.011478 0.043382
v 0.007710 -0.010738 0.042649
v 0.007776 -0.010697 0.042649
v 0.007036 -0.010981 0.043382
v -0.007775 -0.011420 0.043382
v -0.007481 -0.010738 0.042649
v 0.008514 -0.010175 0.042649
v 0.007363 -0.010738 0.043382
v -0.007775 -0.010738 0.042804
v -0.008516 -0.010934 0.043382
v -0.007775 -0.010553 0.042649
v 0.008747 -0.009995 0.042649
v 0.007776 -0.010409 0.043382
v -0.008516 -0.010738 0.043222
v -0.008782 -0.010738 0.043382
v -0.008519 -0.010025 0.042649
v 0.009258 -0.009570 0.042649
v 0.008248 -0.009998 0.043382
v -0.009257 -0.010371 0.043382
v -0.009257 -0.009995 0.043091
v -0.009259 -0.009412 0.042649
v 0.009602 -0.009257 0.042649
v 0.008517 -0.009744 0.043382
v -0.009698 -0.009995 0.043382
v -0.009997 -0.009727 0.043382
v -0.009429 -0.009257 0.042649
v 0.009998 -0.008868 0.042649
v 0.008997 -0.009257 0.043382
v -0.010477 -0.009257 0.043382
v -0.009997 -0.009257 0.043040
v -0.010000 -0.008699 0.042649
v 0.010337 -0.008509 0.042649
v 0.009258 -0.008965 0.043382
v -0.010738 -0.008976 0.043382
v -0.010169 -0.008517 0.042649
v 0.010739 -0.008048 0.042649
v 0.009632 -0.008514 0.043382
v -0.010738 -0.008517 0.043070
v -0.011146 -0.008517 0.043382
v -0.010738 -0.007860 0.042649
v 0.010961 -0.007777 0.042649
v 0.009998 -0.008034 0.043382
v -0.011479 -0.008103 0.043382
v -0.010807 -0.007774 0.042649
v 0.011505 -0.007034 0.042649
v 0.010181 -0.007777 0.043382
v -0.011479 -0.007774 0.043179
v -0.011731 -0.007774 0.043382
v -0.011357 -0.007034 0.042649
v 0.010653 -0.007034 0.043382
v 0.011937 -0.006352 0.042649
v -0.012239 -0.007034 0.043382
v -0.011479 -0.007034 0.042748
v -0.011479 -0.006852 0.042649
v 0.011480 -0.006294 0.043073
v 0.011114 -0.006294 0.043382
v 0.011974 -0.006294 0.042649
v -0.012666 -0.006316 0.043382
v -0.012219 -0.006291 0.042981
v -0.011834 -0.006291 0.042649
v 0.011480 -0.005680 0.043382
v 0.012220 -0.005849 0.042649
v 0.011552 -0.005553 0.043382
v -0.012680 -0.006291 0.043382
v -0.012222 -0.005597 0.042649
v 0.012379 -0.005553 0.042649
v 0.012220 -0.005553 0.042792
v 0.011926 -0.004813 0.043382
v -0.012247 -0.005550 0.042649
v -0.012960 -0.005755 0.043382
v 0.012220 -0.004813 0.043115
v 0.012728 -0.004813 0.042649
v 0.012220 -0.004125 0.043382
v -0.013065 -0.005550 0.043382
v -0.012599 -0.004810 0.042649
v 0.012961 -0.004236 0.042649
v 0.012243 -0.004070 0.043382
v -0.012960 -0.004810 0.042981
v -0.013393 -0.004816 0.043382
v -0.012899 -0.004070 0.042649
v 0.013025 -0.004070 0.042649
v 0.012961 -0.004070 0.042710
v 0.012506 -0.003330 0.043382
v -0.013678 -0.004070 0.043382
v -0.012960 -0.003890 0.042649
v 0.013266 -0.003352 0.042649
v 0.012961 -0.003330 0.042948
v 0.012723 -0.002589 0.043382
v -0.013914 -0.003330 0.043382
v -0.013149 -0.003330 0.042649
v 0.013474 -0.002592 0.042649
v 0.012889 -0.001849 0.043382
v -0.014106 -0.002589 0.043382
v -0.013354 -0.002589 0.042649
v 0.013635 -0.001849 0.042649
v 0.012961 -0.001849 0.043311
v 0.012961 -0.001418 0.043382
v -0.014258 -0.001849 0.043382
v -0.013512 -0.001852 0.042649
v 0.013752 -0.001109 0.042649
v 0.013011 -0.001109 0.043382
v -0.014369 -0.001106 0.043382
v -0.013631 -0.001106 0.042649
v 0.013827 -0.000368 0.042649
v 0.013702 -0.000368 0.042773
v 0.013091 -0.000368 0.043382
v -0.014441 -0.000355 0.043382
v -0.013706 -0.000366 0.042649
v 0.013863 0.000361 0.042649
v 0.013130 0.000372 0.043382
v -0.014477 0.000375 0.043382
v -0.013742 0.000375 0.042649
v 0.013863 0.000372 0.042649
v 0.013125 0.001109 0.043382
v 0.013702 0.001109 0.042805
v -0.014472 0.001109 0.043382
v -0.013737 0.001112 0.042649
v 0.013857 0.001109 0.042649
v 0.013078 0.001847 0.043382
v 0.013816 0.001847 0.042649
v -0.014430 0.001839 0.043382
v -0.013731 0.001253 0.042649
v 0.012989 0.002590 0.043382
v 0.013732 0.002579 0.042649
v -0.014350 0.002590 0.043382
v -0.013695 0.001850 0.042649
v 0.012961 0.002758 0.043382
v 0.013702 0.002590 0.042677
v 0.013702 0.002764 0.042649
v -0.014231 0.003333 0.043382
v -0.013609 0.002590 0.042649
v 0.012961 0.003330 0.043282
v 0.012858 0.003330 0.043382
v 0.013605 0.003330 0.042649
v -0.014072 0.004073 0.043382
v -0.013484 0.003333 0.042649
v 0.013441 0.004073 0.042649
v 0.012961 0.004073 0.043114
v 0.012684 0.004073 0.043382
v -0.013873 0.004814 0.043382
v -0.013318 0.004073 0.042649
v 0.013230 0.004811 0.042649
v 0.012462 0.004811 0.043382
v 0.012961 0.004811 0.042908
v -0.013701 0.005341 0.043382
v -0.013107 0.004816 0.042649
v 0.012978 0.005554 0.042649
v 0.012961 0.005554 0.042665
v 0.012456 0.004827 0.043382
v -0.013631 0.005554 0.043382
v -0.012960 0.005242 0.042649
v 0.012961 0.005598 0.042649
v 0.012220 0.005554 0.043357
v 0.012220 0.005482 0.043382
v -0.013343 0.006294 0.043382
v -0.012852 0.005554 0.042649
v 0.012678 0.006294 0.042649
v 0.012220 0.006294 0.043067
v 0.011874 0.006294 0.043382
v 0.012193 0.005554 0.043382
v -0.013010 0.007034 0.043382
v -0.012960 0.006294 0.043028
v -0.012547 0.006294 0.042649
v 0.012329 0.007032 0.042649
v 0.011499 0.007034 0.043382
v -0.012960 0.007134 0.043382
v -0.012960 0.007034 0.043337
v -0.012524 0.006344 0.042649
v 0.012220 0.007233 0.042649
v 0.012220 0.007034 0.042743
v 0.011918 0.007775 0.042649
v 0.011480 0.007775 0.043027
v 0.011480 0.007068 0.043382
v -0.012616 0.007777 0.043382
v -0.012192 0.007034 0.042649
v -0.012219 0.007034 0.042674
v -0.012219 0.006979 0.042649
v 0.011480 0.008479 0.042649
v 0.011061 0.007775 0.043382
v -0.012219 0.008346 0.043382
v -0.011307 0.008518 0.042649
v -0.011479 0.008255 0.042649
v -0.011775 0.007783 0.042649
v 0.011452 0.008518 0.042649
v 0.010739 0.008518 0.043236
v 0.010739 0.008258 0.043382
v -0.012092 0.008518 0.043382
v -0.010766 0.009261 0.042649
v 0.010917 0.009255 0.042649
v 0.010739 0.009255 0.042791
v 0.010556 0.008518 0.043382
v -0.011479 0.009258 0.043382
v -0.011479 0.009258 0.043381
v -0.010738 0.009294 0.042649
v 0.010739 0.009482 0.042649
v 0.009998 0.009233 0.043382
v -0.010780 0.009998 0.043382
v -0.010000 0.010156 0.042649
v -0.010144 0.009998 0.042649
v 0.010304 0.009998 0.042649
v 0.009998 0.009998 0.042879
v 0.009305 0.009998 0.043382
v -0.010738 0.010037 0.043382
v -0.009259 0.010902 0.042649
v -0.009429 0.010739 0.042649
v 0.009996 0.010333 0.042649
v 0.009258 0.010048 0.043382
v -0.009997 0.010714 0.043382
v -0.008599 0.011479 0.042649
v 0.009599 0.010739 0.042649
v 0.009258 0.010739 0.042889
v 0.008517 0.010747 0.043382
v -0.009967 0.010739 0.043382
v -0.008519 0.011545 0.042649
v 0.009255 0.011065 0.042649
v 0.008783 0.011476 0.042649
v 0.008517 0.011476 0.042822
v 0.007776 0.011349 0.043382
v -0.009257 0.011305 0.043382
v -0.007775 0.012109 0.042649
v 0.008517 0.011697 0.042649
v 0.007826 0.012219 0.042649
v 0.007776 0.012219 0.042679
v 0.007599 0.011479 0.043382
v -0.009012 0.011479 0.043382
v -0.007614 0.012222 0.042649
v 0.007776 0.012255 0.042649
v 0.007036 0.012219 0.043092
v 0.007036 0.011871 0.043382
v -0.008516 0.011821 0.043382
v -0.007037 0.012600 0.042649
v 0.007077 0.012716 0.042649
v 0.006478 0.012219 0.043382
v -0.007867 0.012222 0.043382
v -0.006419 0.012962 0.042649
v 0.007036 0.012741 0.042649
v 0.006295 0.012330 0.043382
v -0.007775 0.012274 0.043382
v -0.006297 0.013031 0.042649
v 0.006661 0.012959 0.042649
v 0.006295 0.012959 0.042831
v 0.005554 0.012725 0.043382
v -0.007035 0.012669 0.043382
v -0.005556 0.013404 0.042649
v 0.006295 0.013164 0.042649
v 0.005554 0.013537 0.042649
v 0.005044 0.012959 0.043382
v -0.006410 0.012962 0.043382
v -0.004815 0.013727 0.042649
v -0.006297 0.013015 0.043382
v 0.005177 0.013702 0.042649
v 0.004814 0.013062 0.043382
v -0.004075 0.014001 0.042649
v -0.005556 0.013307 0.043382
v 0.004814 0.013857 0.042649
v 0.004814 0.013702 0.042793
v 0.004073 0.013352 0.043382
v -0.004815 0.013553 0.043382
v -0.003334 0.014233 0.042649
v 0.004081 0.014125 0.042649
v 0.004073 0.013702 0.043053
v 0.003332 0.013595 0.043382
v -0.004280 0.013702 0.043382
v -0.002593 0.014421 0.042649
v -0.004075 0.013758 0.043382
v 0.003332 0.014357 0.042649
v 0.003332 0.013702 0.043280
v 0.002936 0.013702 0.043382
v -0.002485 0.014443 0.042649
v -0.003331 0.013921 0.043382
v 0.003005 0.014440 0.042649
v 0.002592 0.013794 0.043382
v -0.001850 0.014570 0.042649
v -0.002590 0.014042 0.043382
v 0.002592 0.014542 0.042649
v 0.001851 0.013948 0.043382
v -0.001112 0.014678 0.042649
v -0.001853 0.014122 0.043382
v 0.001851 0.014691 0.042649
v 0.001110 0.014062 0.043382
v -0.000371 0.014749 0.042649
v -0.001112 0.014167 0.043382
v 0.001116 0.014774 0.042649
v 0.000539 0.014208 0.043292
v 0.000539 0.014120 0.043382
v 0.000367 0.014783 0.042649
v -0.000371 0.014172 0.043382
v 0.000367 0.014136 0.043382
f 1 2 7
f 1 7 11
f 1 11 15
f 1 15 19
f 1 19 24
f 1 24 30
f 1 30 34
f 1 34 39
f 1 39 44
f 1 44 48
f 1 48 54
f 1 54 58
f 1 58 63
f 1 63 68
f 1 68 73
f 1 73 78
f 1 78 83
f 1 83 87
f 1 87 92
f 1 92 96
f 1 96 100
f 1 100 106
f 1 106 111
f 1 111 113
f 1 113 118
f 1 118 123
f 1 123 127
f 1 127 133
f 1 133 138
f 1 138 142
f 1 142 147
f 1 147 151
f 1 151 156
f 1 156 160
f 1 160 164
f 1 164 169
f 1 169 173
f 1 173 177
f 1 177 183
f 1 183 189
f 1 189 193
f 1 193 199
f 1 199 204
f 1 204 210
f 1 210 209
f 1 209 215
f 1 215 223
f 1 223 229
f 1 229 236
f 1 236 241
f 1 241 246
f 1 246 252
f 1 252 257
f 1 257 262
f 1 262 268
f 1 268 274
f 1 274 279
f 1 279 283
f 1 283 287
f 1 287 292
f 1 292 297
f 1 297 302
f 1 302 307
f 1 307 312
f 1 312 318
f 1 318 322
f 1 322 326
f 1 326 330
f 1 330 335
f 1 335 338
f 1 338 337
f 1 337 332
f 1 332 328
f 1 328 324
f 1 324 320
f 1 320 315
f 1 315 313
f 1 313 308
f 1 308 304
f 1 304 300
f 1 300 298
f 1 298 293
f 1 293 288
f 1 288 284
f 1 284 280
f 1 280 275
f 1 275 269
f 1 269 263
f 1 263 258
f 1 258 253
f 1 253 247
f 1 247 242
f 1 242 237
f 1 237 230
f 1 230 224
f 1 224 216
f 1 216 211
f 1 211 205
f 1 205 200
f 1 200 195
f 1 195 190
f 1 190 185
f 1 185 180
f 1 180 175
f 1 175 171
f 1 171 166
f 1 166 161
f 1 161 157
f 1 157 152
f 1 152 148
f 1 148 143
f 1 143 139
f 1 139 134
f 1 134 129
f 1 129 124
f 1 124 120
f 1 120 114
f 1 114 108
f 1 108 102
f 1 102 98
f 1 98 93
f 1 93 89
f 1 89 84
f 1 84 79
f 1 79 75
f 1 75 74
f 1 74 69
f 1 69 65
f 1 65 60
f 1 60 55
f 1 55 51
f 1 51 46
f 1 46 42
f 1 42 37
f 1 37 32
f 1 32 28
f 1 28 23
f 1 23 18
f 1 18 13
f 1 13 8
f 1 8 3
f 1 3 4
f 1 4 5
f 1 5 2
f 2 5 6
f 2 6 7
f 3 8 9
f 3 9 4
f 4 9 12
f 4 12 17
f 4 17 22
f 4 22 27
f 4 27 31
f 4 31 36
f 4 36 41
f 4 41 45
f 4 45 50
f 4 50 56
f 4 56 61
f 4 61 66
f 4 66 71
f 4 71 76
f 4 76 81
f 4 81 85
f 4 85 90
f 4 90 94
f 4 94 99
f 4 99 104
f 4 104 110
f 4 110 115
f 4 115 119
f 4 119 125
f 4 125 130
f 4 130 135
f 4 135 140
f 4 140 144
f 4 144 149
f 4 149 153
f 4 153 158
f 4 158 162
f 4 162 167
f 4 167 172
f 4 172 176
f 4 176 181
f 4 181 186
f 4 186 191
f 4 191 196
f 4 196 201
f 4 201 206
f 4 206 213
f 4 213 218
f 4 218 227
f 4 227 225
f 4 225 233
f 4 233 232
f 4 232 231
f 4 231 238
f 4 238 244
f 4 244 249
f 4 249 248
f 4 248 255
f 4 255 254
f 4 254 259
f 4 259 264
f 4 264 270
f 4 270 276
f 4 276 281
f 4 281 285
f 4 285 289
f 4 289 294
f 4 294 299
f 4 299 303
f 4 303 309
f 4 309 314
f 4 314 319
f 4 319 323
f 4 323 327
f 4 327 331
f 4 331 336
f 4 336 333
f 4 333 329
f 4 329 325
f 4 325 321
f 4 321 316
f 4 316 310
f 4 310 305
f 4 305 301
f 4 301 296
f 4 296 295
f 4 295 290
f 4 290 286
f 4 286 282
f 4 282 277
f 4 277 272
f 4 272 271
f 4 271 266
f 4 266 265
f 4 265 260
f 4 260 256
f 4 256 250
f 4 250 245
f 4 245 239
f 4 239 234
f 4 234 228
f 4 228 221
f 4 221 219
f 4 219 214
f 4 214 207
f 4 207 202
f 4 202 197
f 4 197 192
f 4 192 187
f 4 187 184
f 4 184 179
f 4 179 174
f 4 174 170
f 4 170 168
f 4 168 163
f 4 163 159
f 4 159 154
f 4 154 150
f 4 150 145
f 4 145 141
f 4 141 136
f 4 136 131
f 4 131 126
f 4 126 122
f 4 122 116
f 4 116 112
f 4 112 107
f 4 107 101
f 4 101 95
f 4 95 91
f 4 91 86
f 4 86 82
f 4 82 77
f 4 77 72
f 4 72 67
f 4 67 62
f 4 62 57
f 4 57 53
f 4 53 52
f 4 52 47
f 4 47 43
f 4 43 38
f 4 38 33
f 4 33 29
f 4 29 25
f 4 25 20
f 4 20 14
f 4 14 10
f 4 10 6
f 4 6 5
f 6 10 11
f 6 11 7
f 8 12 9
f 8 13 12
f 10 14 15
f 10 15 11
f 12 13 16
f 12 16 17
f 13 18 16
f 14 19 15
f 14 20 19
f 16 18 17
f 17 18 21
f 17 21 22
f 18 23 21
f 19 20 24
f 20 25 24
f 21 23 22
f 22 23 26
f 22 26 27
f 23 28 26
f 24 25 29
f 24 29 30
f 26 28 31
f 26 31 27
f 28 32 31
f 29 33 30
f 30 33 34
f 31 32 35
f 31 35 36
f 32 37 35
f 33 38 34
f 34 38 39
f 35 37 36
f 36 37 40
f 36 40 41
f 37 42 40
f 38 43 44
f 38 44 39
f 40 42 41
f 41 42 45
f 42 46 45
f 43 47 44
f 44 47 48
f 45 46 49
f 45 49 50
f 46 51 49
f 47 52 48
f 48 52 53
f 48 53 54
f 49 51 50
f 50 51 55
f 50 55 56
f 53 57 54
f 54 57 58
f 55 59 56
f 55 60 59
f 56 59 61
f 57 62 58
f 58 62 63
f 59 60 61
f 60 64 61
f 60 65 64
f 61 64 66
f 62 67 63
f 63 67 68
f 64 65 66
f 65 69 66
f 66 69 70
f 66 70 71
f 67 72 68
f 68 72 73
f 69 74 70
f 70 74 71
f 71 74 75
f 71 75 76
f 72 77 73
f 73 77 78
f 75 79 80
f 75 80 76
f 76 80 81
f 77 82 78
f 78 82 83
f 79 84 85
f 79 85 81
f 79 81 80
f 82 86 83
f 83 86 87
f 84 88 85
f 84 89 88
f 85 88 90
f 86 91 87
f 87 91 92
f 88 89 90
f 89 93 94
f 89 94 90
f 91 95 92
f 92 95 96
f 93 97 94
f 93 98 97
f 94 97 99
f 95 100 96
f 95 101 100
f 97 98 99
f 98 102 103
f 98 103 99
f 99 103 104
f 100 101 105
f 100 105 106
f 101 107 105
f 102 108 109
f 102 109 110
f 102 110 104
f 102 104 103
f 105 111 106
f 105 107 111
f 107 112 113
f 107 113 111
f 108 114 109
f 109 114 115
f 109 115 110
f 112 116 117
f 112 117 113
f 113 117 118
f 114 119 115
f 114 120 119
f 116 121 118
f 116 118 117
f 116 122 121
f 118 121 123
f 119 120 124
f 119 124 125
f 121 122 123
f 122 126 123
f 123 126 127
f 124 128 125
f 124 129 128
f 125 128 130
f 126 131 132
f 126 132 127
f 127 132 133
f 128 129 130
f 129 134 130
f 130 134 135
f 131 136 132
f 132 136 137
f 132 137 133
f 133 137 138
f 134 139 140
f 134 140 135
f 136 141 138
f 136 138 137
f 138 141 142
f 139 143 144
f 139 144 140
f 141 145 146
f 141 146 142
f 142 146 147
f 143 148 149
f 143 149 144
f 145 150 151
f 145 151 147
f 145 147 146
f 148 152 153
f 148 153 149
f 150 154 155
f 150 155 156
f 150 156 151
f 152 157 158
f 152 158 153
f 154 159 160
f 154 160 155
f 155 160 156
f 157 161 158
f 158 161 162
f 159 163 160
f 160 163 165
f 160 165 164
f 161 166 167
f 161 167 162
f 163 168 165
f 164 165 170
f 164 170 169
f 165 168 170
f 166 171 172
f 166 172 167
f 169 170 174
f 169 174 173
f 171 175 176
f 171 176 172
f 173 174 178
f 173 178 177
f 174 179 178
f 175 180 181
f 175 181 176
f 177 182 183
f 177 178 179
f 177 179 184
f 177 184 182
f 180 185 186
f 180 186 181
f 182 184 187
f 182 187 183
f 183 187 188
f 183 188 189
f 185 190 191
f 185 191 186
f 187 192 188
f 188 192 189
f 189 192 194
f 189 194 193
f 190 195 196
f 190 196 191
f 192 197 198
f 192 198 194
f 193 194 199
f 194 198 199
f 195 200 196
f 196 200 201
f 197 202 198
f 198 202 203
f 198 203 204
f 198 204 199
f 200 205 206
f 200 206 201
f 202 207 203
f 203 207 208
f 203 208 209
f 203 209 210
f 203 210 204
f 205 211 212
f 205 212 206
f 206 212 213
f 207 214 208
f 208 214 209
f 209 214 215
f 211 216 217
f 211 217 218
f 211 218 212
f 212 218 213
f 214 219 220
f 214 220 215
f 215 220 219
f 215 219 221
f 215 221 222
f 215 222 223
f 216 224 225
f 216 225 226
f 216 226 217
f 217 226 227
f 217 227 218
f 221 228 222
f 222 228 229
f 222 229 223
f 224 230 231
f 224 231 232
f 224 232 233
f 224 233 225
f 225 227 226
f 228 234 235
f 228 235 236
f 228 236 229
f 230 237 238
f 230 238 231
f 234 239 235
f 235 239 240
f 235 240 241
f 235 241 236
f 237 242 243
f 237 243 238
f 238 243 244
f 239 245 240
f 240 245 246
f 240 246 241
f 242 247 243
f 243 247 248
f 243 248 249
f 243 249 244
f 245 250 246
f 246 251 252
f 246 250 251
f 247 253 254
f 247 254 255
f 247 255 248
f 250 256 251
f 251 256 257
f 251 257 252
f 253 258 254
f 254 258 259
f 256 260 257
f 257 261 262
f 257 260 261
f 258 263 264
f 258 264 259
f 260 265 261
f 261 265 262
f 262 265 266
f 262 266 267
f 262 267 268
f 263 269 264
f 264 269 270
f 266 271 267
f 267 271 268
f 268 272 273
f 268 273 274
f 268 271 272
f 269 275 270
f 270 275 276
f 272 277 273
f 273 277 278
f 273 278 279
f 273 279 274
f 275 280 276
f 276 280 281
f 277 282 278
f 278 282 283
f 278 283 279
f 280 284 281
f 281 284 285
f 282 286 287
f 282 287 283
f 284 288 285
f 285 288 289
f 286 290 287
f 287 291 292
f 287 290 291
f 288 293 289
f 289 293 294
f 290 295 291
f 291 295 292
f 292 296 297
f 292 295 296
f 293 298 294
f 294 298 300
f 294 300 299
f 296 301 302
f 296 302 297
f 299 300 304
f 299 304 303
f 301 305 306
f 301 306 302
f 302 306 307
f 303 308 309
f 303 304 308
f 305 310 311
f 305 311 307
f 305 307 306
f 307 311 312
f 308 313 309
f 309 313 315
f 309 315 314
f 310 316 317
f 310 317 311
f 311 317 312
f 312 317 318
f 314 315 320
f 314 320 319
f 316 321 322
f 316 322 318
f 316 318 317
f 319 320 323
f 320 324 323
f 321 325 322
f 322 325 326
f 323 324 327
f 324 328 327
f 325 329 326
f 326 329 330
f 327 328 331
f 328 332 331
f 329 333 330
f 330 333 334
f 330 334 335
f 331 332 336
f 332 337 336
f 333 336 337
f 333 337 338
f 333 338 334
f 334 338 335
