v -0.013253 0.000370 0.046323
v -0.013008 -0.000368 0.045589
v -0.013003 -0.001109 0.045589
v -0.013215 -0.000368 0.046323
v -0.013248 0.001110 0.046323
v -0.012970 0.000375 0.045589
v -0.012962 -0.001767 0.045589
v -0.012956 -0.001850 0.045589
v -0.013136 -0.001109 0.046323
v -0.013202 0.001851 0.046323
v -0.012891 0.001110 0.045589
v -0.012866 -0.002590 0.045589
v -0.013013 -0.001850 0.046323
v -0.013114 0.002592 0.046323
v -0.012765 0.001851 0.045589
v -0.012735 -0.003331 0.045589
v -0.012962 -0.002086 0.046323
v -0.012983 0.003333 0.046323
v -0.012962 0.003430 0.046323
v -0.012596 0.002592 0.045589
v -0.012847 -0.002590 0.046323
v -0.012558 -0.004072 0.045589
v -0.012814 0.004059 0.046323
v -0.012378 0.003333 0.045589
v -0.012634 -0.003331 0.046323
v -0.012335 -0.004813 0.045589
v -0.012591 0.004814 0.046323
v -0.012220 0.003776 0.045589
v -0.012375 -0.004072 0.046323
v -0.012062 -0.005553 0.045589
v -0.012324 0.005555 0.046323
v -0.012114 0.004073 0.045589
v -0.012220 -0.004441 0.046323
v -0.011737 -0.006294 0.045589
v -0.012062 -0.004813 0.046323
v -0.012220 0.005802 0.046323
v -0.012220 0.005555 0.046226
v -0.011536 0.005552 0.045589
v -0.011691 -0.005553 0.046323
v -0.011481 -0.006802 0.045589
v -0.012010 0.006290 0.046323
v -0.011481 0.005674 0.045589
v -0.011358 -0.007035 0.045589
v -0.011481 -0.005925 0.046323
v -0.012007 0.006295 0.046323
v -0.011481 0.006295 0.045845
v -0.011195 0.006295 0.045589
v -0.010917 -0.007776 0.045589
v -0.011260 -0.006294 0.046323
v -0.011637 0.007036 0.046323
v -0.011481 0.007036 0.046185
v -0.010797 0.007036 0.045589
v -0.010740 -0.008039 0.045589
v -0.010759 -0.007035 0.046323
v -0.011481 0.007311 0.046323
v -0.011206 0.007777 0.046323
v -0.010740 0.007131 0.045589
v -0.010407 -0.008514 0.045589
v -0.010740 -0.007060 0.046323
v -0.010740 0.007777 0.045929
v -0.010740 0.008473 0.046323
v -0.010331 0.007777 0.045589
v -0.009998 -0.009035 0.045589
v -0.010172 -0.007776 0.046323
v -0.010710 0.008518 0.046323
v -0.009998 0.008243 0.045589
v -0.009815 -0.009257 0.045589
v -0.009998 -0.007975 0.046323
v -0.009998 0.008518 0.045752
v -0.010137 0.009258 0.046323
v -0.009783 0.008529 0.045589
v -0.009259 -0.009257 0.046010
v -0.009259 -0.009870 0.045589
v -0.008828 -0.009257 0.046323
v -0.009998 0.009419 0.046323
v -0.009998 0.009258 0.046216
v -0.009259 0.009156 0.045589
v -0.009134 -0.009998 0.045589
v -0.008518 -0.009576 0.046323
v -0.009259 0.009258 0.045657
v -0.009474 0.009999 0.046323
v -0.009153 0.009272 0.045589
v -0.008518 -0.009998 0.046021
v -0.008518 -0.010580 0.045589
v -0.008068 -0.009998 0.046323
v -0.009259 0.009999 0.046165
v -0.009259 0.010218 0.046323
v -0.008518 0.009919 0.045589
v -0.008338 -0.010739 0.045589
v -0.007776 -0.010253 0.046323
v -0.008518 0.009999 0.045646
v -0.008706 0.010740 0.046323
v -0.008433 0.009999 0.045589
v -0.007776 -0.010739 0.045948
v -0.007776 -0.011193 0.045589
v -0.007162 -0.010739 0.046323
v -0.008518 0.010740 0.046195
v -0.008518 0.010906 0.046323
v -0.007776 0.010571 0.045589
v -0.007389 -0.011479 0.045589
v -0.007034 -0.010833 0.046323
v -0.007776 0.010740 0.045718
v -0.007806 0.011481 0.046323
v -0.007561 0.010743 0.045589
v -0.007034 -0.011479 0.045794
v -0.007034 -0.011726 0.045589
v -0.006295 -0.011332 0.046323
v -0.007776 0.011481 0.046304
v -0.007776 0.011503 0.046323
v -0.007034 0.011134 0.045589
v -0.006298 -0.012187 0.045589
v -0.006295 -0.011479 0.046198
v -0.006047 -0.011479 0.046323
v -0.007056 0.012005 0.046323
v -0.007034 0.011481 0.045873
v -0.006514 0.011481 0.045589
v -0.006238 -0.012220 0.045589
v -0.005554 -0.011762 0.046323
v -0.007034 0.012019 0.046323
v -0.006295 0.011619 0.045589
v -0.005554 -0.012220 0.045917
v -0.005554 -0.012586 0.045589
v -0.004812 -0.012128 0.046323
v -0.006713 0.012221 0.046323
v -0.006295 0.012221 0.046106
v -0.005554 0.012038 0.045589
v -0.004812 -0.012220 0.046240
v -0.004815 -0.012930 0.045589
v -0.004600 -0.012220 0.046323
v -0.006295 0.012468 0.046323
v -0.005554 0.012221 0.045750
v -0.005183 0.012221 0.045589
v -0.004739 -0.012961 0.045589
v -0.004073 -0.012439 0.046323
v -0.005557 0.012859 0.046323
v -0.004812 0.012399 0.045589
v -0.004073 -0.012961 0.045835
v -0.004073 -0.013221 0.045589
v -0.003332 -0.012700 0.046323
v -0.005336 0.012962 0.046323
v -0.004812 0.012962 0.046106
v -0.004073 0.012701 0.045589
v -0.003335 -0.013466 0.045589
v -0.002590 -0.012911 0.046323
v -0.004812 0.013198 0.046323
v -0.003335 0.012956 0.045589
v -0.004073 0.012962 0.045832
v -0.003332 0.012962 0.045593
v -0.002593 -0.013665 0.045589
v -0.002367 -0.012963 0.046323
v -0.004054 0.013489 0.046323
v -0.003318 0.012962 0.045589
v -0.003397 0.013703 0.046323
v -0.003332 0.013703 0.046303
v -0.002427 -0.013701 0.045589
v -0.001851 -0.013077 0.046323
v -0.002590 0.013165 0.045589
v -0.003332 0.013722 0.046323
v -0.002612 0.013914 0.046323
v -0.002590 0.013703 0.046112
v -0.001851 -0.013823 0.045589
v -0.001110 -0.013199 0.046323
v -0.001851 0.013325 0.045589
v -0.002590 0.013919 0.046323
v -0.001115 -0.013937 0.045589
v -0.000368 -0.013277 0.046323
v -0.001110 0.013445 0.045589
v -0.001851 0.013703 0.045959
v -0.001851 0.014072 0.046323
v -0.000371 -0.014012 0.045589
v 0.000371 -0.013313 0.046323
v -0.000371 0.013522 0.045589
v -0.001110 0.013703 0.045844
v -0.001110 0.014185 0.046323
v 0.000368 -0.014048 0.045589
v 0.001110 -0.013310 0.046323
v -0.000368 0.013703 0.045768
v 0.000371 0.013703 0.045732
v 0.000368 0.013558 0.045589
v -0.000371 0.014258 0.046323
v 0.001107 -0.014043 0.045589
v 0.001851 -0.013263 0.046323
v 0.001848 -0.014001 0.045589
v 0.000371 0.014294 0.046323
v 0.000371 0.013558 0.045589
v 0.001110 0.013556 0.045589
v 0.002590 -0.013177 0.046323
v 0.002590 -0.013918 0.045589
v 0.001110 0.014288 0.046323
v 0.001851 0.013511 0.045589
v 0.001851 0.014247 0.046323
v 0.003332 -0.013047 0.046323
v 0.003332 -0.013796 0.045589
v 0.002590 0.013425 0.045589
v 0.002590 0.014166 0.046323
v 0.004073 -0.012875 0.046323
v 0.004073 -0.013632 0.045589
v 0.003332 0.013298 0.045589
v 0.003332 0.014044 0.046323
v 0.003332 0.013703 0.045987
v 0.004809 -0.012658 0.046323
v 0.004812 -0.013427 0.045589
v 0.004073 0.013128 0.045589
v 0.004073 0.013703 0.046146
v 0.004070 0.013883 0.046323
v 0.005554 -0.013177 0.045589
v 0.005554 -0.012392 0.046323
v 0.004815 0.012962 0.045634
v 0.004651 0.012962 0.045589
v 0.004738 0.013703 0.046323
v 0.006096 -0.012961 0.045589
v 0.005960 -0.012220 0.046323
v 0.006295 -0.012880 0.045589
v 0.004815 0.013681 0.046323
v 0.005554 0.013436 0.046323
v 0.004815 0.012915 0.045589
v 0.006295 -0.012220 0.046192
v 0.006295 -0.012076 0.046323
v 0.007034 -0.012533 0.045589
v 0.006295 0.013145 0.046323
v 0.005554 0.012962 0.045877
v 0.005554 0.012654 0.045589
v 0.007037 -0.011707 0.046323
v 0.007037 -0.012220 0.045868
v 0.007618 -0.012220 0.045589
v 0.006295 0.012962 0.046153
v 0.006704 0.012962 0.046323
v 0.006295 0.012346 0.045589
v 0.007776 -0.012134 0.045589
v 0.007435 -0.011479 0.046323
v 0.007037 0.012807 0.046323
v 0.006554 0.012221 0.045589
v 0.008515 -0.011673 0.045589
v 0.007776 -0.011479 0.046152
v 0.007776 -0.011279 0.046323
v 0.007776 0.012416 0.046323
v 0.007037 0.012221 0.045798
v 0.007037 0.011985 0.045589
v 0.008804 -0.011476 0.045589
v 0.008517 -0.011479 0.045752
v 0.008517 -0.010786 0.046323
v 0.008106 0.012221 0.046323
v 0.007776 0.012221 0.046153
v 0.007773 0.011569 0.045589
v 0.009259 -0.011149 0.045589
v 0.008580 -0.010739 0.046323
v 0.008517 0.011966 0.046323
v 0.007912 0.011481 0.045589
v 0.009774 -0.010739 0.045589
v 0.009259 -0.010739 0.045916
v 0.009259 -0.010217 0.046323
v 0.009226 0.011481 0.046323
v 0.008517 0.011481 0.045915
v 0.008517 0.011084 0.045589
v 0.009998 -0.010550 0.045589
v 0.009515 -0.009998 0.046323
v 0.009259 0.011456 0.046323
v 0.009259 0.010740 0.045751
v 0.008986 0.010743 0.045589
v 0.010600 -0.009998 0.045589
v 0.009998 -0.009998 0.046004
v 0.009998 -0.009559 0.046323
v 0.009998 0.010873 0.046323
v 0.009259 0.010532 0.045589
v 0.010739 -0.009862 0.045589
v 0.010306 -0.009257 0.046323
v 0.010159 0.010737 0.046323
v 0.009998 0.010740 0.046220
v 0.009886 0.009999 0.045589
v 0.011315 -0.009257 0.045589
v 0.010739 -0.009257 0.046014
v 0.010739 -0.008799 0.046323
v 0.010739 0.010207 0.046323
v 0.009998 0.009999 0.045663
v 0.009998 0.009896 0.045589
v 0.011481 -0.009068 0.045589
v 0.010987 -0.008516 0.046323
v 0.010947 0.009991 0.046323
v 0.010739 0.009999 0.046172
v 0.010649 0.009258 0.045589
v 0.011939 -0.008514 0.045589
v 0.011481 -0.008516 0.045947
v 0.011481 -0.007909 0.046323
v 0.011481 0.009328 0.046323
v 0.011309 0.008518 0.045589
v 0.010745 0.009159 0.045589
v 0.012220 -0.008139 0.045589
v 0.011579 -0.007776 0.046323
v 0.011533 0.009258 0.046323
v 0.011879 0.007782 0.045589
v 0.011481 0.008304 0.045589
v 0.012479 -0.007776 0.045589
v 0.012220 -0.007776 0.045804
v 0.012094 -0.007035 0.046323
v 0.012034 0.008526 0.046323
v 0.012220 0.007286 0.045589
v 0.012961 -0.007032 0.045589
v 0.012220 -0.007035 0.046217
v 0.012220 -0.006832 0.046323
v 0.012040 0.008518 0.046323
v 0.012383 0.007036 0.045589
v 0.013387 -0.006275 0.045589
v 0.012961 -0.006294 0.045956
v 0.012539 -0.006300 0.046323
v 0.012220 0.008224 0.046323
v 0.012822 0.006295 0.045589
v 0.012487 0.007777 0.046323
v 0.013703 -0.005634 0.045589
v 0.012931 -0.005553 0.046323
v 0.012961 0.006029 0.045589
v 0.012874 0.007036 0.046323
v 0.013741 -0.005553 0.045589
v 0.013703 -0.005553 0.045624
v 0.012961 -0.005487 0.046323
v 0.013201 0.005555 0.045589
v 0.012961 0.006850 0.046323
v 0.014000 -0.004813 0.045589
v 0.013550 -0.004072 0.046323
v 0.013264 -0.004813 0.046323
v 0.013528 0.004814 0.045589
v 0.013212 0.006295 0.046323
v 0.014199 -0.004072 0.045589
v 0.013787 -0.003331 0.046323
v 0.013703 -0.003600 0.046323
v 0.013501 0.005555 0.046323
v 0.013703 0.004359 0.045589
v 0.014355 -0.003331 0.045589
v 0.013981 -0.002590 0.046323
v 0.013703 0.004950 0.046323
v 0.013807 0.004073 0.045589
v 0.014357 -0.003315 0.045589
v 0.014134 -0.001850 0.046323
v 0.013747 0.004814 0.046323
v 0.014041 0.003333 0.045589
v 0.014475 -0.002590 0.045589
v 0.014248 -0.001109 0.046323
v 0.013948 0.004073 0.046323
v 0.014232 0.002592 0.045589
v 0.014554 -0.001850 0.045589
v 0.014319 -0.000368 0.046323
v 0.014106 0.003333 0.046323
v 0.014382 0.001851 0.045589
v 0.014595 -0.001115 0.045589
v 0.014355 0.000370 0.046323
v 0.014226 0.002592 0.046323
v 0.014494 0.001110 0.045589
v 0.014600 -0.000368 0.045589
v 0.014349 0.001110 0.046323
v 0.014308 0.001851 0.046323
v 0.014565 0.000370 0.045589
f 1 2 3
f 1 3 4
f 1 4 9
f 1 9 13
f 1 13 17
f 1 17 21
f 1 21 25
f 1 25 29
f 1 29 33
f 1 33 35
f 1 35 39
f 1 39 44
f 1 44 49
f 1 49 54
f 1 54 59
f 1 59 64
f 1 64 68
f 1 68 74
f 1 74 79
f 1 79 85
f 1 85 90
f 1 90 96
f 1 96 101
f 1 101 107
f 1 107 113
f 1 113 118
f 1 118 123
f 1 123 129
f 1 129 134
f 1 134 139
f 1 139 144
f 1 144 150
f 1 150 156
f 1 156 162
f 1 162 166
f 1 166 171
f 1 171 176
f 1 176 182
f 1 182 187
f 1 187 192
f 1 192 196
f 1 196 201
f 1 201 207
f 1 207 212
f 1 212 218
f 1 218 223
f 1 223 230
f 1 230 235
f 1 235 241
f 1 241 246
f 1 246 251
f 1 251 256
f 1 256 262
f 1 262 266
f 1 266 272
f 1 272 277
f 1 277 283
f 1 283 288
f 1 288 294
f 1 294 299
f 1 299 304
f 1 304 309
f 1 309 314
f 1 314 319
f 1 319 318
f 1 318 324
f 1 324 323
f 1 323 328
f 1 328 332
f 1 332 336
f 1 336 340
f 1 340 344
f 1 344 348
f 1 348 349
f 1 349 345
f 1 345 341
f 1 341 337
f 1 337 333
f 1 333 329
f 1 329 325
f 1 325 321
f 1 321 316
f 1 316 311
f 1 311 307
f 1 307 305
f 1 305 300
f 1 300 295
f 1 295 289
f 1 289 284
f 1 284 278
f 1 278 273
f 1 273 267
f 1 267 263
f 1 263 257
f 1 257 252
f 1 252 247
f 1 247 242
f 1 242 236
f 1 236 231
f 1 231 227
f 1 227 220
f 1 220 215
f 1 215 214
f 1 214 210
f 1 210 205
f 1 205 199
f 1 199 195
f 1 195 191
f 1 191 189
f 1 189 184
f 1 184 180
f 1 180 174
f 1 174 169
f 1 169 164
f 1 164 159
f 1 159 158
f 1 158 153
f 1 153 151
f 1 151 145
f 1 145 140
f 1 140 135
f 1 135 130
f 1 130 124
f 1 124 119
f 1 119 114
f 1 114 109
f 1 109 103
f 1 103 98
f 1 98 92
f 1 92 87
f 1 87 81
f 1 81 75
f 1 75 70
f 1 70 65
f 1 65 61
f 1 61 56
f 1 56 55
f 1 55 50
f 1 50 45
f 1 45 41
f 1 41 36
f 1 36 31
f 1 31 27
f 1 27 23
f 1 23 19
f 1 19 18
f 1 18 14
f 1 14 10
f 1 10 5
f 1 5 2
f 2 5 6
f 2 6 11
f 2 11 15
f 2 15 20
f 2 20 24
f 2 24 28
f 2 28 32
f 2 32 38
f 2 38 42
f 2 42 47
f 2 47 52
f 2 52 57
f 2 57 62
f 2 62 66
f 2 66 71
f 2 71 77
f 2 77 82
f 2 82 88
f 2 88 93
f 2 93 99
f 2 99 104
f 2 104 110
f 2 110 116
f 2 116 120
f 2 120 126
f 2 126 132
f 2 132 136
f 2 136 142
f 2 142 146
f 2 146 152
f 2 152 157
f 2 157 163
f 2 163 167
f 2 167 172
f 2 172 179
f 2 179 185
f 2 185 186
f 2 186 190
f 2 190 194
f 2 194 198
f 2 198 203
f 2 203 209
f 2 209 216
f 2 216 222
f 2 222 228
f 2 228 232
f 2 232 238
f 2 238 244
f 2 244 248
f 2 248 254
f 2 254 259
f 2 259 264
f 2 264 269
f 2 269 275
f 2 275 280
f 2 280 286
f 2 286 285
f 2 285 291
f 2 291 290
f 2 290 296
f 2 296 301
f 2 301 306
f 2 306 310
f 2 310 315
f 2 315 320
f 2 320 326
f 2 326 330
f 2 330 334
f 2 334 338
f 2 338 342
f 2 342 346
f 2 346 350
f 2 350 347
f 2 347 343
f 2 343 339
f 2 339 335
f 2 335 331
f 2 331 327
f 2 327 322
f 2 322 317
f 2 317 312
f 2 312 308
f 2 308 302
f 2 302 297
f 2 297 292
f 2 292 287
f 2 287 281
f 2 281 276
f 2 276 270
f 2 270 265
f 2 265 260
f 2 260 255
f 2 255 249
f 2 249 245
f 2 245 239
f 2 239 233
f 2 233 229
f 2 229 225
f 2 225 219
f 2 219 213
f 2 213 211
f 2 211 206
f 2 206 202
f 2 202 197
f 2 197 193
f 2 193 188
f 2 188 183
f 2 183 181
f 2 181 175
f 2 175 170
f 2 170 165
f 2 165 161
f 2 161 155
f 2 155 149
f 2 149 143
f 2 143 138
f 2 138 133
f 2 133 128
f 2 128 122
f 2 122 117
f 2 117 111
f 2 111 106
f 2 106 100
f 2 100 95
f 2 95 89
f 2 89 84
f 2 84 78
f 2 78 73
f 2 73 67
f 2 67 63
f 2 63 58
f 2 58 53
f 2 53 48
f 2 48 43
f 2 43 40
f 2 40 34
f 2 34 30
f 2 30 26
f 2 26 22
f 2 22 16
f 2 16 12
f 2 12 8
f 2 8 7
f 2 7 3
f 3 7 4
f 4 7 8
f 4 8 9
f 5 10 6
f 6 10 11
f 8 12 9
f 9 12 13
f 10 14 11
f 11 14 15
f 12 16 13
f 13 16 17
f 14 18 15
f 15 18 19
f 15 19 20
f 16 21 17
f 16 22 21
f 19 23 20
f 20 23 24
f 21 22 25
f 22 26 25
f 23 27 24
f 24 27 28
f 25 26 29
f 26 30 29
f 27 31 32
f 27 32 28
f 29 30 33
f 30 34 35
f 30 35 33
f 31 36 37
f 31 37 32
f 32 37 38
f 34 39 35
f 34 40 39
f 36 41 38
f 36 38 37
f 38 41 42
f 39 40 43
f 39 43 44
f 41 45 46
f 41 46 42
f 42 46 47
f 43 48 44
f 44 48 49
f 45 50 46
f 46 50 47
f 47 50 51
f 47 51 52
f 48 53 49
f 49 53 54
f 50 55 51
f 51 55 52
f 52 55 56
f 52 56 57
f 53 58 54
f 54 58 59
f 56 60 57
f 56 61 60
f 57 60 62
f 58 63 59
f 59 63 64
f 60 61 65
f 60 65 62
f 62 65 66
f 63 67 64
f 64 67 68
f 65 69 66
f 65 70 69
f 66 69 71
f 67 72 68
f 67 73 72
f 68 72 74
f 69 70 71
f 70 75 76
f 70 76 71
f 71 76 77
f 72 73 74
f 73 78 79
f 73 79 74
f 75 80 76
f 75 81 80
f 76 80 77
f 77 80 82
f 78 83 79
f 78 84 83
f 79 83 85
f 80 81 86
f 80 86 82
f 81 87 86
f 82 86 88
f 83 84 85
f 84 89 85
f 85 89 90
f 86 91 88
f 86 87 91
f 87 92 91
f 88 91 93
f 89 94 90
f 89 95 94
f 90 94 96
f 91 92 97
f 91 97 93
f 92 98 97
f 93 97 99
f 94 95 96
f 95 100 96
f 96 100 101
f 97 102 99
f 97 98 102
f 98 103 102
f 99 102 104
f 100 105 101
f 100 106 105
f 101 105 107
f 102 103 108
f 102 108 104
f 103 109 108
f 104 108 110
f 105 106 107
f 106 111 112
f 106 112 107
f 107 112 113
f 108 109 114
f 108 114 115
f 108 115 110
f 110 115 116
f 111 117 118
f 111 118 113
f 111 113 112
f 114 119 120
f 114 120 116
f 114 116 115
f 117 121 118
f 117 122 121
f 118 121 123
f 119 124 120
f 120 124 125
f 120 125 126
f 121 122 123
f 122 127 123
f 122 128 127
f 123 127 129
f 124 130 125
f 125 131 126
f 125 130 131
f 126 131 132
f 127 128 129
f 128 133 134
f 128 134 129
f 130 135 131
f 131 135 132
f 132 135 136
f 133 137 134
f 133 138 137
f 134 137 139
f 135 140 136
f 136 140 141
f 136 141 142
f 137 138 139
f 138 143 139
f 139 143 144
f 140 145 141
f 141 145 142
f 142 145 147
f 142 147 148
f 142 148 146
f 143 149 144
f 144 149 150
f 145 151 147
f 146 148 152
f 147 151 148
f 148 151 153
f 148 153 154
f 148 154 152
f 149 155 156
f 149 156 150
f 152 154 157
f 153 158 154
f 154 158 159
f 154 159 160
f 154 160 157
f 155 161 156
f 156 161 162
f 157 160 163
f 159 164 160
f 160 164 163
f 161 165 162
f 162 165 166
f 163 164 168
f 163 168 167
f 164 169 168
f 165 170 166
f 166 170 175
f 166 175 171
f 167 168 169
f 167 169 173
f 167 173 172
f 169 174 173
f 171 175 176
f 172 173 174
f 172 174 177
f 172 177 178
f 172 178 179
f 174 180 177
f 175 181 176
f 176 181 183
f 176 183 182
f 177 180 184
f 177 184 178
f 178 185 179
f 178 184 186
f 178 186 185
f 182 183 188
f 182 188 187
f 184 189 186
f 186 189 191
f 186 191 190
f 187 188 193
f 187 193 192
f 190 191 195
f 190 195 194
f 192 193 197
f 192 197 196
f 194 195 199
f 194 199 200
f 194 200 198
f 196 197 202
f 196 202 201
f 198 200 204
f 198 204 203
f 199 205 200
f 200 205 204
f 201 202 206
f 201 206 207
f 203 208 209
f 203 204 210
f 203 210 208
f 204 205 210
f 206 211 207
f 207 211 213
f 207 213 212
f 208 210 214
f 208 214 215
f 208 215 216
f 208 216 209
f 212 213 217
f 212 217 218
f 213 219 217
f 215 220 221
f 215 221 216
f 216 221 222
f 217 219 218
f 218 219 224
f 218 224 223
f 219 225 224
f 220 226 222
f 220 222 221
f 220 227 226
f 222 226 228
f 223 224 225
f 223 225 229
f 223 229 230
f 226 227 228
f 227 231 228
f 228 231 232
f 229 233 234
f 229 234 230
f 230 234 235
f 231 236 237
f 231 237 232
f 232 237 238
f 233 239 240
f 233 240 235
f 233 235 234
f 235 240 241
f 236 242 243
f 236 243 238
f 236 238 237
f 238 243 244
f 239 245 241
f 239 241 240
f 241 245 246
f 242 247 244
f 242 244 243
f 244 247 248
f 245 249 250
f 245 250 246
f 246 250 251
f 247 252 253
f 247 253 248
f 248 253 254
f 249 255 251
f 249 251 250
f 251 255 256
f 252 257 258
f 252 258 259
f 252 259 254
f 252 254 253
f 255 260 261
f 255 261 256
f 256 261 262
f 257 263 258
f 258 264 259
f 258 263 264
f 260 265 262
f 260 262 261
f 262 265 266
f 263 267 268
f 263 268 264
f 264 268 269
f 265 270 271
f 265 271 266
f 266 271 272
f 267 273 274
f 267 274 269
f 267 269 268
f 269 274 275
f 270 276 272
f 270 272 271
f 272 276 277
f 273 278 279
f 273 279 274
f 274 279 275
f 275 279 280
f 276 281 282
f 276 282 277
f 277 282 283
f 278 284 285
f 278 285 286
f 278 286 279
f 279 286 280
f 281 287 283
f 281 283 282
f 283 287 288
f 284 289 290
f 284 290 291
f 284 291 285
f 287 292 293
f 287 293 288
f 288 293 294
f 289 295 296
f 289 296 290
f 292 297 298
f 292 298 294
f 292 294 293
f 294 298 299
f 295 300 301
f 295 301 296
f 297 302 303
f 297 303 304
f 297 304 299
f 297 299 298
f 300 305 301
f 301 305 307
f 301 307 306
f 302 308 309
f 302 309 303
f 303 309 304
f 306 307 311
f 306 311 310
f 308 312 313
f 308 313 309
f 309 313 314
f 310 311 315
f 311 316 315
f 312 317 318
f 312 318 319
f 312 319 313
f 313 319 314
f 315 316 321
f 315 321 320
f 317 322 323
f 317 323 324
f 317 324 318
f 320 321 325
f 320 325 326
f 322 327 328
f 322 328 323
f 325 329 330
f 325 330 326
f 327 331 332
f 327 332 328
f 329 333 330
f 330 333 334
f 331 335 332
f 332 335 336
f 333 337 334
f 334 337 338
f 335 339 336
f 336 339 340
f 337 341 338
f 338 341 342
f 339 343 340
f 340 343 344
f 341 345 342
f 342 345 346
f 343 347 344
f 344 347 348
f 345 349 346
f 346 349 350
f 347 350 348
f 348 350 349
