v 0.000369 -0.013315 0.046323
v -0.000037 -0.013119 0.046710
v -0.000790 -0.013098 0.046710
v -0.000368 -0.013277 0.046324
v -0.000368 -0.013277 0.046323
v 0.001109 -0.013310 0.046323
v 0.001109 -0.013310 0.046324
v 0.000662 -0.013098 0.046710
v -0.001730 -0.013000 0.046710
v -0.001111 -0.013198 0.046324
v -0.001111 -0.013198 0.046323
v 0.001852 -0.013264 0.046323
v 0.001852 -0.013264 0.046324
v 0.001312 -0.013043 0.046710
v -0.001851 -0.012981 0.046710
v -0.001851 -0.013076 0.046324
v -0.001851 -0.013076 0.046323
v 0.002591 -0.013177 0.046323
v 0.002591 -0.013177 0.046324
v 0.001873 -0.012967 0.046710
v -0.002591 -0.012856 0.046710
v -0.002980 -0.012785 0.046710
v -0.002591 -0.012913 0.046323
v 0.003331 -0.013049 0.046323
v 0.001909 -0.012962 0.046710
v -0.003722 -0.012592 0.046710
v -0.003333 -0.012701 0.046323
v 0.004074 -0.012875 0.046323
v 0.004074 -0.012875 0.046324
v 0.003331 -0.012962 0.046411
v 0.002591 -0.012839 0.046710
v 0.002591 -0.012962 0.046572
v -0.004462 -0.012350 0.046710
v -0.004073 -0.012439 0.046323
v 0.004814 -0.012657 0.046323
v 0.004814 -0.012657 0.046324
v 0.004362 -0.012391 0.046710
v 0.004074 -0.012475 0.046710
v 0.003331 -0.012663 0.046710
v -0.005202 -0.012059 0.046710
v -0.004599 -0.012222 0.046323
v 0.005554 -0.012391 0.046323
v 0.005554 -0.012391 0.046324
v 0.004863 -0.012233 0.046710
v 0.004814 -0.012249 0.046710
v -0.004813 -0.012129 0.046323
v -0.005945 -0.011713 0.046710
v 0.005959 -0.012222 0.046323
v 0.005554 -0.012222 0.046482
v 0.004893 -0.012222 0.046710
v 0.005959 -0.012222 0.046324
v -0.005556 -0.011762 0.046323
v -0.006685 -0.011308 0.046710
v 0.006294 -0.012075 0.046323
v 0.005554 -0.011974 0.046710
v 0.006294 -0.012075 0.046324
v 0.005885 -0.011833 0.046710
v -0.006046 -0.011479 0.046323
v -0.006295 -0.011332 0.046323
v -0.007424 -0.010837 0.046710
v 0.007036 -0.011708 0.046323
v 0.006505 -0.011545 0.046710
v 0.006294 -0.011648 0.046710
v 0.006200 -0.011692 0.046710
v -0.007035 -0.010832 0.046323
v -0.007518 -0.010772 0.046710
v 0.007436 -0.011479 0.046323
v 0.007036 -0.011267 0.046710
v -0.007161 -0.010740 0.046323
v -0.007561 -0.010740 0.046710
v 0.007776 -0.011278 0.046323
v 0.007776 -0.011278 0.046324
v 0.007335 -0.011090 0.046710
v -0.008304 -0.010171 0.046710
v -0.007775 -0.010253 0.046323
v 0.008516 -0.010786 0.046323
v 0.007776 -0.010821 0.046710
v 0.007724 -0.010854 0.046710
v 0.008516 -0.010786 0.046324
v 0.007899 -0.010740 0.046710
v -0.008510 -0.010000 0.046710
v -0.008066 -0.010000 0.046323
v 0.008579 -0.010740 0.046323
v 0.008579 -0.010740 0.046324
v 0.008516 -0.010740 0.046361
v 0.008516 -0.010304 0.046710
v -0.008740 -0.009798 0.046710
v -0.009055 -0.009507 0.046710
v -0.008518 -0.009575 0.046323
v 0.009259 -0.010215 0.046323
v 0.009259 -0.010215 0.046324
v 0.008911 -0.010000 0.046710
v -0.009315 -0.009257 0.046710
v -0.008827 -0.009257 0.046323
v 0.009513 -0.010000 0.046323
v 0.009513 -0.010000 0.046324
v 0.009259 -0.010000 0.046492
v 0.009259 -0.009711 0.046710
v -0.009534 -0.009031 0.046710
v -0.009998 -0.008550 0.046710
v -0.010028 -0.008517 0.046710
v -0.009998 -0.007976 0.046323
v 0.009999 -0.009559 0.046323
v 0.009999 -0.009559 0.046324
v 0.009755 -0.009257 0.046710
v -0.010261 -0.008259 0.046710
v -0.010343 -0.008167 0.046710
v -0.010173 -0.007778 0.046323
v 0.010305 -0.009257 0.046323
v 0.009999 -0.009257 0.046543
v 0.010305 -0.009257 0.046324
v 0.009999 -0.009021 0.046710
v -0.010469 -0.008020 0.046710
v -0.010674 -0.007778 0.046710
v -0.010740 -0.007060 0.046323
v 0.010738 -0.008800 0.046323
v 0.010146 -0.008868 0.046710
v -0.010740 -0.007693 0.046710
v -0.010759 -0.007035 0.046323
v 0.010738 -0.008517 0.046513
v 0.010475 -0.008517 0.046710
v 0.010988 -0.008517 0.046323
v 0.010988 -0.008517 0.046324
v -0.010938 -0.007438 0.046710
v -0.011138 -0.007166 0.046710
v -0.011231 -0.007035 0.046710
v -0.011403 -0.006779 0.046710
v -0.011258 -0.006295 0.046323
v 0.010708 -0.008251 0.046710
v 0.011481 -0.007908 0.046323
v 0.011095 -0.007778 0.046710
v -0.011480 -0.006660 0.046710
v -0.011480 -0.006295 0.046511
v -0.011480 -0.005925 0.046323
v 0.011580 -0.007778 0.046324
v 0.011481 -0.007778 0.046404
v 0.011580 -0.007778 0.046323
v 0.011481 -0.007253 0.046710
v -0.011713 -0.006295 0.046710
v -0.011916 -0.005944 0.046710
v -0.011691 -0.005555 0.046323
v 0.012095 -0.007035 0.046323
v 0.011632 -0.007035 0.046710
v -0.011971 -0.005846 0.046710
v -0.012127 -0.005555 0.046710
v -0.012193 -0.005425 0.046710
v -0.012061 -0.004813 0.046323
v 0.011881 -0.006646 0.046710
v 0.012221 -0.006831 0.046323
v 0.012221 -0.006831 0.046324
v -0.012483 -0.004813 0.046710
v -0.012220 -0.004813 0.046469
v -0.012560 -0.004636 0.046710
v -0.012220 -0.004440 0.046323
v 0.012221 -0.006295 0.046603
v 0.012095 -0.006295 0.046710
v 0.012542 -0.006295 0.046323
v 0.012542 -0.006295 0.046324
v -0.012373 -0.004073 0.046323
v -0.012683 -0.004337 0.046710
v 0.012221 -0.006072 0.046710
v 0.012193 -0.006121 0.046710
v 0.012931 -0.005555 0.046323
v 0.012498 -0.005555 0.046710
v 0.012931 -0.005555 0.046324
v -0.012787 -0.004073 0.046710
v -0.012636 -0.003333 0.046323
v 0.013265 -0.004813 0.046323
v 0.012684 -0.005164 0.046710
v 0.012846 -0.004813 0.046710
v -0.012864 -0.003853 0.046710
v -0.012963 -0.003564 0.046710
v -0.012963 -0.003333 0.046635
v -0.012847 -0.002591 0.046323
v 0.013550 -0.004073 0.046323
v 0.013139 -0.004073 0.046710
v 0.012917 -0.004639 0.046710
v -0.013039 -0.003333 0.046710
v -0.012963 -0.002591 0.046434
v -0.012963 -0.002088 0.046324
v -0.012963 -0.002085 0.046323
v 0.013703 -0.003600 0.046323
v 0.013703 -0.003600 0.046324
v 0.013386 -0.003333 0.046710
v 0.013270 -0.003684 0.046710
v -0.013245 -0.002591 0.046710
v -0.013300 -0.002351 0.046710
v -0.013015 -0.001851 0.046323
v 0.013788 -0.003333 0.046323
v 0.013788 -0.003333 0.046324
v 0.013703 -0.003333 0.046405
v 0.013481 -0.002988 0.046710
v -0.013324 -0.002240 0.046710
v -0.013376 -0.001998 0.046710
v -0.013407 -0.001851 0.046710
v -0.013459 -0.001533 0.046710
v -0.013135 -0.001108 0.046323
v 0.013983 -0.002591 0.046323
v 0.013983 -0.002591 0.046324
v 0.013703 -0.002591 0.046596
v 0.013586 -0.002591 0.046710
v -0.013524 -0.001108 0.046710
v -0.013215 -0.000369 0.046323
v 0.014134 -0.001851 0.046323
v 0.014134 -0.001851 0.046324
v 0.013703 -0.002041 0.046710
v -0.013549 -0.000877 0.046710
v -0.013601 -0.000369 0.046710
v -0.013609 -0.000216 0.046710
v -0.013253 0.000371 0.046323
v 0.014246 -0.001108 0.046323
v 0.014246 -0.001108 0.046324
v 0.013857 -0.001108 0.046710
v 0.013753 -0.001783 0.046710
v 0.013742 -0.001851 0.046710
v -0.013637 0.000371 0.046710
v -0.013637 0.000477 0.046710
v -0.013634 0.001111 0.046710
v -0.013248 0.001111 0.046323
v 0.014320 -0.000369 0.046323
v 0.014320 -0.000369 0.046324
v 0.013934 -0.000369 0.046710
v 0.013879 -0.000899 0.046710
v -0.013590 0.001851 0.046710
v -0.013201 0.001851 0.046323
v 0.014353 0.000371 0.046323
v 0.014353 0.000371 0.046324
v 0.013969 0.000371 0.046710
v -0.013505 0.002591 0.046710
v -0.013113 0.002591 0.046323
v 0.014350 0.001111 0.046323
v 0.014350 0.001111 0.046324
v 0.013964 0.001111 0.046710
v -0.013379 0.003333 0.046710
v -0.012985 0.003333 0.046323
v 0.014309 0.001851 0.046323
v 0.014309 0.001851 0.046324
v 0.013947 0.001410 0.046710
v -0.013291 0.003722 0.046710
v -0.012963 0.003431 0.046324
v -0.012963 0.003428 0.046323
v 0.014227 0.002591 0.046323
v 0.014227 0.002591 0.046324
v 0.013892 0.002117 0.046710
v 0.013920 0.001851 0.046710
v -0.013209 0.004073 0.046710
v -0.012963 0.004073 0.046470
v -0.012815 0.004059 0.046323
v 0.014106 0.003333 0.046323
v 0.014106 0.003333 0.046324
v 0.013808 0.002781 0.046710
v 0.013838 0.002591 0.046710
v -0.013124 0.004375 0.046710
v -0.012812 0.004073 0.046324
v -0.012593 0.004813 0.046324
v -0.012590 0.004813 0.046323
v 0.013947 0.004073 0.046323
v 0.013947 0.004073 0.046324
v 0.013703 0.003388 0.046710
v 0.013714 0.003333 0.046710
v -0.012998 0.004813 0.046710
v -0.012963 0.004813 0.046676
v -0.012324 0.005555 0.046323
v -0.012963 0.004919 0.046710
v -0.012738 0.005555 0.046710
v 0.013747 0.004813 0.046323
v 0.013747 0.004813 0.046324
v 0.013703 0.004073 0.046562
v 0.013550 0.004073 0.046710
v -0.012220 0.005803 0.046324
v -0.012220 0.005800 0.046323
v -0.012582 0.005944 0.046710
v 0.013703 0.004949 0.046323
v 0.013703 0.004949 0.046324
v 0.013703 0.004813 0.046366
v 0.013342 0.004813 0.046710
v -0.012220 0.006295 0.046517
v -0.012009 0.006295 0.046324
v -0.012009 0.006290 0.046323
v -0.012431 0.006295 0.046710
v 0.013501 0.005555 0.046323
v 0.013501 0.005555 0.046324
v 0.013227 0.005166 0.046710
v 0.013323 0.004878 0.046710
v -0.012308 0.006559 0.046710
v -0.012220 0.006738 0.046710
v -0.012075 0.007035 0.046710
v -0.011636 0.007035 0.046323
v 0.013213 0.006295 0.046323
v 0.013213 0.006295 0.046324
v 0.013092 0.005555 0.046710
v 0.013218 0.005191 0.046710
v -0.011861 0.007424 0.046710
v -0.011480 0.007312 0.046324
v -0.011480 0.007310 0.046323
v 0.012961 0.006850 0.046323
v 0.012961 0.005882 0.046710
v 0.012961 0.006850 0.046324
v 0.012794 0.006295 0.046710
v -0.011658 0.007777 0.046710
v -0.011480 0.007777 0.046556
v -0.011206 0.007777 0.046324
v -0.011206 0.007775 0.046323
v 0.012876 0.007035 0.046323
v 0.012876 0.007035 0.046324
v 0.012673 0.006559 0.046710
v -0.011518 0.008003 0.046710
v -0.011181 0.008517 0.046710
v -0.010740 0.008474 0.046323
v 0.012487 0.007777 0.046323
v 0.012487 0.007777 0.046324
v 0.012446 0.007035 0.046710
v 0.012632 0.006646 0.046710
v -0.010740 0.009121 0.046710
v -0.010740 0.008517 0.046347
v -0.010710 0.008517 0.046323
v 0.012221 0.008224 0.046323
v 0.012221 0.008224 0.046324
v 0.012221 0.007777 0.046555
v 0.012221 0.007454 0.046710
v 0.012311 0.007288 0.046710
v -0.010633 0.009257 0.046710
v -0.010137 0.009257 0.046324
v -0.010135 0.009257 0.046323
v 0.012040 0.008517 0.046323
v 0.012040 0.008517 0.046324
v 0.011829 0.008128 0.046710
v 0.011914 0.007990 0.046710
v 0.012043 0.007777 0.046710
v -0.010313 0.009646 0.046710
v -0.009998 0.009420 0.046323
v 0.012035 0.008525 0.046323
v 0.011533 0.009257 0.046324
v 0.011481 0.008661 0.046710
v 0.011580 0.008517 0.046710
v 0.011747 0.008259 0.046710
v -0.010006 0.010000 0.046710
v -0.009474 0.010000 0.046323
v 0.011533 0.009257 0.046323
v 0.011481 0.009328 0.046324
v 0.011481 0.009257 0.046367
v 0.011051 0.009257 0.046710
v -0.009633 0.010389 0.046710
v -0.009258 0.010220 0.046323
v 0.011481 0.009328 0.046323
v 0.010947 0.009991 0.046323
v 0.010738 0.009641 0.046710
v -0.009247 0.010772 0.046710
v -0.009255 0.010223 0.046323
v 0.010938 0.010000 0.046324
v 0.010437 0.010000 0.046710
v 0.010738 0.010206 0.046323
v 0.010738 0.010206 0.046324
v -0.008849 0.011128 0.046710
v -0.008707 0.010739 0.046323
v 0.009678 0.010739 0.046710
v 0.010155 0.010739 0.046323
v 0.010155 0.010739 0.046324
v -0.008518 0.011414 0.046710
v -0.008518 0.010908 0.046323
v 0.009999 0.010873 0.046324
v 0.008853 0.011433 0.046710
v 0.009999 0.010873 0.046323
v -0.007929 0.011868 0.046710
v -0.007808 0.011479 0.046324
v -0.007775 0.011504 0.046323
v 0.009259 0.011457 0.046324
v 0.008790 0.011479 0.046710
v 0.009259 0.011457 0.046323
v -0.007775 0.011980 0.046710
v -0.007529 0.012154 0.046710
v -0.007035 0.012020 0.046323
v 0.008516 0.011969 0.046324
v 0.007932 0.012083 0.046710
v 0.008516 0.011966 0.046323
v -0.007427 0.012222 0.046710
v -0.007035 0.012222 0.046491
v -0.006712 0.012222 0.046323
v 0.008105 0.012222 0.046323
v 0.008108 0.012222 0.046324
v 0.007387 0.012437 0.046710
v 0.007721 0.012222 0.046710
v -0.007035 0.012477 0.046710
v -0.006295 0.012469 0.046323
v -0.006816 0.012611 0.046710
v 0.007776 0.012415 0.046323
v 0.007776 0.012415 0.046324
v 0.006647 0.012850 0.046710
v -0.006295 0.012913 0.046710
v -0.005556 0.012861 0.046323
v 0.007036 0.012807 0.046323
v 0.007036 0.012807 0.046324
v 0.006507 0.012918 0.046710
v -0.006202 0.012962 0.046710
v -0.005339 0.012962 0.046324
v -0.005336 0.012962 0.046323
v -0.005556 0.012962 0.046413
v 0.006702 0.012962 0.046323
v 0.006705 0.012962 0.046324
v 0.005904 0.013209 0.046710
v -0.005556 0.013288 0.046710
v -0.005419 0.013350 0.046710
v -0.004813 0.013198 0.046324
v -0.004813 0.013195 0.046323
v 0.006294 0.013147 0.046323
v 0.006294 0.013147 0.046324
v 0.005165 0.013519 0.046710
v -0.004813 0.013614 0.046710
v -0.004073 0.013484 0.046324
v -0.004076 0.013481 0.046323
v 0.005554 0.013438 0.046323
v 0.005554 0.013438 0.046324
v 0.004389 0.013791 0.046710
v -0.004684 0.013663 0.046710
v -0.004583 0.013701 0.046710
v -0.004073 0.013892 0.046710
v -0.003333 0.013723 0.046323
v -0.004054 0.013489 0.046323
v 0.004814 0.013682 0.046323
v 0.004814 0.013682 0.046324
v 0.003685 0.014001 0.046710
v -0.003752 0.013995 0.046710
v -0.003722 0.014003 0.046710
v -0.002591 0.013919 0.046323
v 0.004071 0.013884 0.046323
v 0.004074 0.013884 0.046324
v 0.002942 0.014177 0.046710
v -0.002980 0.014180 0.046710
v -0.001853 0.014071 0.046323
v 0.003331 0.014044 0.046323
v 0.002591 0.014166 0.046324
v 0.002591 0.014234 0.046710
v -0.002311 0.014302 0.046710
v -0.001111 0.014185 0.046323
v 0.002591 0.014164 0.046323
v 0.001849 0.014245 0.046323
v 0.001852 0.014245 0.046324
v 0.001180 0.014425 0.046710
v 0.001852 0.014351 0.046710
v -0.001681 0.014384 0.046710
v -0.000371 0.014259 0.046323
v 0.001109 0.014289 0.046323
v 0.000369 0.014468 0.046710
v -0.001083 0.014436 0.046710
v -0.000935 0.014444 0.046710
v -0.000368 0.014471 0.046710
v 0.000369 0.014292 0.046323
v 0.000369 0.014444 0.046655
f 1 2 3
f 1 3 4
f 1 4 5
f 1 5 11
f 1 11 17
f 1 17 23
f 1 23 27
f 1 27 34
f 1 34 41
f 1 41 46
f 1 46 52
f 1 52 58
f 1 58 59
f 1 59 65
f 1 65 69
f 1 69 75
f 1 75 82
f 1 82 89
f 1 89 94
f 1 94 102
f 1 102 108
f 1 108 115
f 1 115 119
f 1 119 128
f 1 128 134
f 1 134 141
f 1 141 147
f 1 147 154
f 1 154 159
f 1 159 167
f 1 167 174
f 1 174 181
f 1 181 188
f 1 188 197
f 1 197 203
f 1 203 210
f 1 210 219
f 1 219 225
f 1 225 230
f 1 230 235
f 1 235 241
f 1 241 248
f 1 248 256
f 1 256 263
f 1 263 271
f 1 271 279
f 1 279 288
f 1 288 295
f 1 295 303
f 1 303 309
f 1 309 316
f 1 316 324
f 1 324 331
f 1 331 338
f 1 338 344
f 1 344 349
f 1 349 355
f 1 355 360
f 1 360 366
f 1 366 372
f 1 372 378
f 1 378 384
f 1 384 390
f 1 390 396
f 1 396 404
f 1 404 410
f 1 410 418
f 1 418 417
f 1 417 424
f 1 424 429
f 1 429 434
f 1 434 441
f 1 441 447
f 1 447 442
f 1 442 436
f 1 436 435
f 1 435 430
f 1 430 425
f 1 425 419
f 1 419 411
f 1 411 405
f 1 405 398
f 1 398 391
f 1 391 386
f 1 386 379
f 1 379 375
f 1 375 369
f 1 369 363
f 1 363 357
f 1 357 352
f 1 352 346
f 1 346 345
f 1 345 339
f 1 339 332
f 1 332 325
f 1 325 317
f 1 317 310
f 1 310 304
f 1 304 296
f 1 296 289
f 1 289 281
f 1 281 273
f 1 273 266
f 1 266 257
f 1 257 249
f 1 249 242
f 1 242 236
f 1 236 231
f 1 231 226
f 1 226 220
f 1 220 211
f 1 211 204
f 1 204 198
f 1 198 189
f 1 189 182
f 1 182 175
f 1 175 168
f 1 168 163
f 1 163 157
f 1 157 149
f 1 149 142
f 1 142 137
f 1 137 130
f 1 130 122
f 1 122 116
f 1 116 109
f 1 109 103
f 1 103 95
f 1 95 90
f 1 90 83
f 1 83 76
f 1 76 71
f 1 71 67
f 1 67 61
f 1 61 54
f 1 54 48
f 1 48 42
f 1 42 35
f 1 35 28
f 1 28 24
f 1 24 18
f 1 18 12
f 1 12 6
f 1 6 7
f 1 7 2
f 2 7 8
f 2 8 14
f 2 14 20
f 2 20 25
f 2 25 31
f 2 31 39
f 2 39 38
f 2 38 37
f 2 37 45
f 2 45 44
f 2 44 50
f 2 50 55
f 2 55 57
f 2 57 64
f 2 64 63
f 2 63 62
f 2 62 68
f 2 68 73
f 2 73 78
f 2 78 77
f 2 77 80
f 2 80 86
f 2 86 92
f 2 92 98
f 2 98 105
f 2 105 112
f 2 112 117
f 2 117 121
f 2 121 129
f 2 129 131
f 2 131 138
f 2 138 143
f 2 143 148
f 2 148 156
f 2 156 162
f 2 162 161
f 2 161 164
f 2 164 169
f 2 169 170
f 2 170 177
f 2 177 176
f 2 176 185
f 2 185 184
f 2 184 192
f 2 192 201
f 2 201 206
f 2 206 215
f 2 215 214
f 2 214 213
f 2 213 223
f 2 223 222
f 2 222 228
f 2 228 233
f 2 233 238
f 2 238 245
f 2 245 244
f 2 244 252
f 2 252 251
f 2 251 260
f 2 260 259
f 2 259 269
f 2 269 276
f 2 276 284
f 2 284 283
f 2 283 292
f 2 292 291
f 2 291 297
f 2 297 299
f 2 299 306
f 2 306 313
f 2 313 312
f 2 312 321
f 2 321 320
f 2 320 329
f 2 329 328
f 2 328 327
f 2 327 336
f 2 336 335
f 2 335 334
f 2 334 342
f 2 342 347
f 2 347 351
f 2 351 356
f 2 356 362
f 2 362 368
f 2 368 374
f 2 374 382
f 2 382 381
f 2 381 388
f 2 388 393
f 2 393 400
f 2 400 407
f 2 407 413
f 2 413 421
f 2 421 427
f 2 427 432
f 2 432 439
f 2 439 438
f 2 438 443
f 2 443 446
f 2 446 445
f 2 445 444
f 2 444 440
f 2 440 433
f 2 433 428
f 2 428 423
f 2 423 422
f 2 422 416
f 2 416 415
f 2 415 414
f 2 414 408
f 2 408 402
f 2 402 401
f 2 401 394
f 2 394 389
f 2 389 385
f 2 385 383
f 2 383 376
f 2 376 371
f 2 371 370
f 2 370 364
f 2 364 359
f 2 359 354
f 2 354 348
f 2 348 343
f 2 343 337
f 2 337 330
f 2 330 322
f 2 322 314
f 2 314 308
f 2 308 307
f 2 307 300
f 2 300 293
f 2 293 287
f 2 287 286
f 2 286 285
f 2 285 280
f 2 280 272
f 2 272 265
f 2 265 264
f 2 264 261
f 2 261 253
f 2 253 246
f 2 246 239
f 2 239 234
f 2 234 229
f 2 229 224
f 2 224 218
f 2 218 217
f 2 217 216
f 2 216 209
f 2 209 208
f 2 208 207
f 2 207 202
f 2 202 196
f 2 196 195
f 2 195 194
f 2 194 193
f 2 193 187
f 2 187 186
f 2 186 178
f 2 178 172
f 2 172 171
f 2 171 166
f 2 166 160
f 2 160 153
f 2 153 151
f 2 151 146
f 2 146 145
f 2 145 144
f 2 144 140
f 2 140 139
f 2 139 132
f 2 132 127
f 2 127 126
f 2 126 125
f 2 125 124
f 2 124 118
f 2 118 114
f 2 114 113
f 2 113 107
f 2 107 106
f 2 106 101
f 2 101 100
f 2 100 99
f 2 99 93
f 2 93 88
f 2 88 87
f 2 87 81
f 2 81 74
f 2 74 70
f 2 70 66
f 2 66 60
f 2 60 53
f 2 53 47
f 2 47 40
f 2 40 33
f 2 33 26
f 2 26 22
f 2 22 21
f 2 21 15
f 2 15 9
f 2 9 3
f 3 9 4
f 4 9 10
f 4 10 11
f 4 11 5
f 6 12 13
f 6 13 7
f 7 13 8
f 8 13 14
f 9 15 10
f 10 15 16
f 10 16 17
f 10 17 11
f 12 18 19
f 12 19 13
f 13 19 14
f 14 19 20
f 15 21 16
f 16 21 22
f 16 22 23
f 16 23 17
f 18 24 19
f 19 25 20
f 19 24 25
f 22 26 23
f 23 26 27
f 24 28 29
f 24 29 30
f 24 30 31
f 24 31 32
f 24 32 25
f 25 32 31
f 26 33 27
f 27 33 34
f 28 35 36
f 28 36 29
f 29 36 37
f 29 37 38
f 29 38 39
f 29 39 31
f 29 31 30
f 33 40 34
f 34 40 41
f 35 42 43
f 35 43 36
f 36 43 44
f 36 44 45
f 36 45 37
f 40 46 41
f 40 47 46
f 42 48 51
f 42 51 43
f 43 49 50
f 43 50 44
f 43 51 49
f 46 47 52
f 47 53 52
f 48 54 56
f 48 56 51
f 49 51 55
f 49 55 50
f 51 56 57
f 51 57 55
f 52 53 58
f 53 59 58
f 53 60 59
f 54 61 56
f 56 62 63
f 56 63 64
f 56 64 57
f 56 61 62
f 59 60 65
f 60 66 65
f 61 67 68
f 61 68 62
f 65 66 69
f 66 70 69
f 67 71 72
f 67 72 68
f 68 72 73
f 69 70 74
f 69 74 75
f 71 76 79
f 71 79 72
f 72 77 78
f 72 78 73
f 72 79 80
f 72 80 77
f 74 81 75
f 75 81 82
f 76 83 84
f 76 84 79
f 79 84 85
f 79 85 80
f 80 85 86
f 81 87 82
f 82 87 88
f 82 88 89
f 83 90 91
f 83 91 84
f 84 86 85
f 84 91 92
f 84 92 86
f 88 93 89
f 89 93 94
f 90 95 96
f 90 96 91
f 91 96 97
f 91 97 92
f 92 97 98
f 93 99 94
f 94 99 100
f 94 100 101
f 94 101 102
f 95 103 104
f 95 104 96
f 96 98 97
f 96 104 98
f 98 104 105
f 101 106 102
f 102 106 107
f 102 107 108
f 103 109 111
f 103 111 104
f 104 110 105
f 104 111 110
f 105 110 112
f 107 113 108
f 108 113 114
f 108 114 115
f 109 116 111
f 110 111 112
f 111 117 112
f 111 116 117
f 114 118 119
f 114 119 115
f 116 120 121
f 116 121 117
f 116 122 123
f 116 123 120
f 118 124 119
f 119 124 125
f 119 125 126
f 119 126 127
f 119 127 128
f 120 129 121
f 120 123 129
f 122 130 123
f 123 130 131
f 123 131 129
f 127 132 133
f 127 133 128
f 128 133 134
f 130 135 136
f 130 136 131
f 130 137 135
f 131 136 138
f 132 139 133
f 133 139 134
f 134 139 140
f 134 140 141
f 135 138 136
f 135 137 142
f 135 142 138
f 138 142 143
f 140 144 141
f 141 144 145
f 141 145 146
f 141 146 147
f 142 148 143
f 142 149 150
f 142 150 148
f 146 151 152
f 146 152 147
f 147 152 153
f 147 153 154
f 148 150 155
f 148 155 156
f 149 157 158
f 149 158 150
f 150 158 155
f 151 153 152
f 153 159 154
f 153 160 159
f 155 161 162
f 155 162 156
f 155 158 161
f 157 163 165
f 157 165 158
f 158 164 161
f 158 165 164
f 159 160 166
f 159 166 167
f 163 168 165
f 164 165 169
f 165 170 169
f 165 168 170
f 166 171 167
f 167 171 172
f 167 172 173
f 167 173 174
f 168 175 176
f 168 176 177
f 168 177 170
f 172 178 173
f 173 179 174
f 173 178 179
f 174 179 180
f 174 180 181
f 175 182 183
f 175 183 184
f 175 184 185
f 175 185 176
f 178 186 179
f 179 186 187
f 179 187 180
f 180 187 188
f 180 188 181
f 182 189 190
f 182 190 183
f 183 190 191
f 183 191 184
f 184 191 192
f 187 193 188
f 188 193 194
f 188 194 195
f 188 195 196
f 188 196 197
f 189 198 199
f 189 199 190
f 190 199 200
f 190 200 192
f 190 192 191
f 192 200 201
f 196 202 197
f 197 202 203
f 198 204 205
f 198 205 199
f 199 205 206
f 199 206 200
f 200 206 201
f 202 207 203
f 203 207 208
f 203 208 209
f 203 209 210
f 204 211 212
f 204 212 205
f 205 212 213
f 205 213 214
f 205 214 215
f 205 215 206
f 209 216 210
f 210 216 217
f 210 217 218
f 210 218 219
f 211 220 221
f 211 221 212
f 212 221 222
f 212 222 223
f 212 223 213
f 218 224 219
f 219 224 225
f 220 226 227
f 220 227 221
f 221 227 228
f 221 228 222
f 224 229 225
f 225 229 230
f 226 231 232
f 226 232 227
f 227 232 228
f 228 232 233
f 229 234 230
f 230 234 235
f 231 236 237
f 231 237 232
f 232 237 238
f 232 238 233
f 234 239 235
f 235 239 240
f 235 240 241
f 236 242 243
f 236 243 237
f 237 243 244
f 237 244 245
f 237 245 238
f 239 246 247
f 239 247 240
f 240 247 248
f 240 248 241
f 242 249 250
f 242 250 243
f 243 250 251
f 243 251 252
f 243 252 244
f 246 253 247
f 247 254 248
f 247 253 254
f 248 254 255
f 248 255 256
f 249 257 258
f 249 258 250
f 250 258 259
f 250 259 260
f 250 260 251
f 253 261 254
f 254 261 262
f 254 262 255
f 255 263 256
f 255 262 264
f 255 264 265
f 255 265 263
f 257 266 267
f 257 267 258
f 258 267 268
f 258 268 259
f 259 268 269
f 261 264 262
f 263 270 271
f 263 265 272
f 263 272 270
f 266 273 274
f 266 274 267
f 267 274 275
f 267 275 269
f 267 269 268
f 269 275 276
f 270 272 277
f 270 277 278
f 270 278 271
f 271 278 279
f 272 280 277
f 273 281 282
f 273 282 274
f 274 282 283
f 274 283 284
f 274 284 275
f 275 284 276
f 277 280 285
f 277 285 278
f 278 285 286
f 278 286 287
f 278 287 288
f 278 288 279
f 281 289 290
f 281 290 282
f 282 290 291
f 282 291 292
f 282 292 283
f 287 293 288
f 288 293 294
f 288 294 295
f 289 296 298
f 289 298 290
f 290 297 291
f 290 298 299
f 290 299 297
f 293 300 294
f 294 300 301
f 294 301 302
f 294 302 303
f 294 303 295
f 296 304 305
f 296 305 298
f 298 305 306
f 298 306 299
f 300 307 301
f 301 307 302
f 302 307 308
f 302 308 309
f 302 309 303
f 304 310 311
f 304 311 305
f 305 311 312
f 305 312 313
f 305 313 306
f 308 314 315
f 308 315 309
f 309 315 316
f 310 317 318
f 310 318 311
f 311 318 319
f 311 319 320
f 311 320 321
f 311 321 312
f 314 322 323
f 314 323 316
f 314 316 315
f 316 323 324
f 317 325 326
f 317 326 318
f 318 326 327
f 318 327 328
f 318 328 329
f 318 329 319
f 319 329 320
f 322 330 323
f 323 330 331
f 323 331 324
f 325 332 326
f 326 332 333
f 326 333 334
f 326 334 335
f 326 335 336
f 326 336 327
f 330 337 331
f 331 337 338
f 332 339 333
f 333 339 345
f 333 345 340
f 333 340 341
f 333 341 334
f 334 341 342
f 337 343 338
f 338 343 344
f 340 342 341
f 340 345 346
f 340 346 342
f 342 346 347
f 343 348 349
f 343 349 344
f 346 350 351
f 346 351 347
f 346 352 353
f 346 353 350
f 348 354 355
f 348 355 349
f 350 353 351
f 351 353 356
f 352 357 358
f 352 358 353
f 353 358 356
f 354 359 360
f 354 360 355
f 356 361 362
f 356 358 361
f 357 363 361
f 357 361 358
f 359 364 365
f 359 365 360
f 360 365 366
f 361 363 369
f 361 369 367
f 361 367 362
f 362 367 368
f 364 370 366
f 364 366 365
f 366 370 371
f 366 371 372
f 367 369 373
f 367 373 374
f 367 374 368
f 369 375 373
f 371 376 372
f 372 376 377
f 372 377 378
f 373 375 379
f 373 379 380
f 373 380 381
f 373 381 382
f 373 382 374
f 376 383 377
f 377 383 378
f 378 383 385
f 378 385 384
f 379 386 380
f 380 386 387
f 380 387 381
f 381 387 388
f 384 385 389
f 384 389 390
f 386 391 392
f 386 392 387
f 387 392 388
f 388 392 393
f 389 394 390
f 390 395 396
f 390 394 397
f 390 397 395
f 391 398 399
f 391 399 392
f 392 399 400
f 392 400 393
f 394 401 397
f 395 402 403
f 395 403 396
f 395 397 401
f 395 401 402
f 396 403 404
f 398 405 399
f 399 405 406
f 399 406 400
f 400 406 407
f 402 408 403
f 403 408 409
f 403 409 410
f 403 410 404
f 405 411 412
f 405 412 406
f 406 412 407
f 407 412 413
f 408 414 409
f 409 414 415
f 409 415 416
f 409 416 417
f 409 417 418
f 409 418 410
f 411 419 420
f 411 420 412
f 412 420 413
f 413 420 421
f 416 422 417
f 417 422 423
f 417 423 424
f 419 425 426
f 419 426 421
f 419 421 420
f 421 426 427
f 423 428 424
f 424 428 429
f 425 430 426
f 426 430 427
f 427 430 431
f 427 431 432
f 428 433 429
f 429 433 434
f 430 435 431
f 431 435 436
f 431 436 437
f 431 437 438
f 431 438 439
f 431 439 432
f 433 440 434
f 434 440 441
f 436 442 438
f 436 438 437
f 438 442 443
f 440 444 441
f 441 444 445
f 441 445 446
f 441 446 447
f 442 447 448
f 442 448 443
f 443 448 446
f 446 448 447
