v -0.014475 0.000369 0.030882
v -0.014472 0.001109 0.030882
v -0.014442 0.000369 0.030849
v -0.014442 -0.000369 0.030882
v -0.014472 -0.001109 0.031617
v -0.014475 -0.000369 0.031617
v -0.013960 0.001109 0.030370
v -0.013966 0.000369 0.030370
v -0.014442 0.000369 0.031617
v -0.014431 0.001850 0.030882
v -0.013930 -0.000369 0.030370
v -0.014371 -0.001109 0.030882
v -0.014431 -0.001849 0.031617
v -0.013916 0.001850 0.030370
v -0.014371 0.001109 0.031617
v -0.014351 0.002590 0.030882
v -0.013894 0.002069 0.030370
v -0.013908 -0.000594 0.030370
v -0.013853 -0.001109 0.030370
v -0.014258 -0.001849 0.030882
v -0.014351 -0.002590 0.031617
v -0.014258 0.001850 0.031617
v -0.013834 0.002590 0.030370
v -0.014233 0.003333 0.030882
v -0.013740 -0.001849 0.030370
v -0.014106 -0.002590 0.030882
v -0.014230 -0.003333 0.031617
v -0.014106 0.002590 0.031617
v -0.013809 0.002742 0.030370
v -0.013710 0.003333 0.030370
v -0.014073 0.004074 0.030882
v -0.013636 -0.002336 0.030370
v -0.013702 -0.002590 0.030488
v -0.013914 -0.003333 0.030882
v -0.014073 -0.004073 0.031617
v -0.013914 0.003333 0.031617
v -0.013548 0.004074 0.030370
v -0.013875 0.004814 0.030882
v -0.013581 -0.002590 0.030370
v -0.013702 -0.003333 0.030678
v -0.013680 -0.004073 0.030882
v -0.013872 -0.004814 0.031617
v -0.013498 -0.002902 0.030370
v -0.013680 0.004074 0.031617
v -0.013338 0.004814 0.030370
v -0.013633 0.005554 0.030882
v -0.013267 0.005039 0.030370
v -0.013380 -0.003333 0.030370
v -0.013316 -0.003533 0.030370
v -0.013179 -0.003944 0.030370
v -0.013135 -0.004073 0.030370
v -0.013396 -0.004814 0.030882
v -0.013633 -0.005551 0.031617
v -0.013702 -0.005340 0.031617
v -0.013396 0.004814 0.031617
v -0.013088 0.005554 0.030370
v -0.013347 0.006295 0.030882
v -0.012961 -0.004515 0.030370
v -0.012961 -0.004814 0.030481
v -0.013066 -0.005554 0.030882
v -0.013341 -0.006303 0.031617
v -0.013066 0.005554 0.031617
v -0.012961 0.005872 0.030370
v -0.013011 0.007035 0.030882
v -0.012961 0.007035 0.030837
v -0.012961 0.006295 0.030528
v -0.012840 -0.004814 0.030370
v -0.012724 -0.005070 0.030370
v -0.012961 -0.005554 0.030788
v -0.012961 -0.005760 0.030882
v -0.012961 -0.007133 0.031617
v -0.013011 -0.007035 0.031617
v -0.012961 0.005760 0.031617
v -0.012961 0.007136 0.030882
v -0.012788 0.006295 0.030370
v -0.012441 0.007035 0.030370
v -0.012493 -0.005554 0.030370
v -0.012463 -0.005616 0.030370
v -0.012378 -0.005779 0.030370
v -0.012680 -0.006295 0.030882
v -0.012617 -0.007775 0.031617
v -0.012680 0.006295 0.031617
v -0.012617 0.007775 0.030882
v -0.012221 0.007438 0.030370
v -0.012361 -0.005810 0.030370
v -0.012221 -0.006295 0.030481
v -0.012240 -0.007035 0.030882
v -0.012221 -0.007775 0.031280
v -0.012221 -0.008347 0.031617
v -0.012240 0.007035 0.031617
v -0.012221 0.007775 0.031220
v -0.012221 0.008347 0.030882
v -0.011538 0.008516 0.030370
v -0.012031 0.007775 0.030370
v -0.012221 0.007066 0.031617
v -0.012221 -0.006064 0.030370
v -0.012091 -0.006295 0.030370
v -0.011976 -0.006480 0.030370
v -0.011626 -0.007035 0.030370
v -0.011480 -0.007246 0.030370
v -0.011731 -0.007775 0.030882
v -0.012091 -0.008516 0.031617
v -0.011480 -0.007775 0.030679
v -0.011731 0.007775 0.031617
v -0.012094 0.008516 0.030882
v -0.010982 0.009259 0.030370
v -0.011409 -0.007345 0.030370
v -0.011480 -0.008516 0.031136
v -0.011480 -0.009259 0.031617
v -0.011480 -0.009259 0.031617
v -0.011012 -0.007877 0.030370
v -0.011089 -0.007775 0.030370
v -0.011480 0.008105 0.031617
v -0.011480 0.008516 0.031363
v -0.011480 0.009259 0.030883
v -0.011480 0.009259 0.030881
v -0.010335 0.009999 0.030370
v -0.010864 -0.008060 0.030370
v -0.010740 -0.008516 0.030570
v -0.010470 -0.008516 0.030370
v -0.010740 -0.009259 0.031069
v -0.010778 -0.009999 0.031617
v -0.011147 0.008516 0.031617
v -0.010740 0.009999 0.030911
v -0.010778 0.009999 0.030882
v -0.010740 0.008980 0.031617
v -0.010740 0.009259 0.031431
v -0.010222 0.010120 0.030370
v -0.010740 -0.008206 0.030370
v -0.010264 -0.008741 0.030370
v -0.010143 -0.008868 0.030370
v -0.010478 -0.009259 0.030882
v -0.010740 -0.009999 0.031589
v -0.010740 -0.010036 0.031617
v -0.010740 0.010039 0.030882
v -0.010478 0.009259 0.031617
v -0.009999 0.009726 0.031617
v -0.009999 0.009999 0.031420
v -0.009592 0.010740 0.030370
v -0.009999 -0.009014 0.030370
v -0.009999 -0.009259 0.030541
v -0.009999 -0.009999 0.031080
v -0.009999 -0.010714 0.031617
v -0.009999 0.010714 0.030882
v -0.009474 0.010852 0.030370
v -0.009699 0.009999 0.031617
v -0.009752 -0.009259 0.030370
v -0.009600 -0.009400 0.030370
v -0.009391 -0.009588 0.030370
v -0.009259 -0.009706 0.030370
v -0.009969 -0.010740 0.031617
v -0.009259 -0.009999 0.030591
v -0.009259 0.010374 0.031617
v -0.009969 0.010740 0.030882
v -0.008725 0.011480 0.030370
v -0.008904 -0.009999 0.030370
v -0.009259 -0.010374 0.030882
v -0.009259 -0.010740 0.031167
v -0.009259 -0.011303 0.031617
v -0.008785 0.010740 0.031617
v -0.009259 0.010740 0.031333
v -0.009259 0.011303 0.030882
v -0.008667 0.011525 0.030370
v -0.008763 -0.010112 0.030370
v -0.008620 -0.010224 0.030370
v -0.008598 -0.010241 0.030370
v -0.009014 -0.011480 0.031617
v -0.008518 -0.010740 0.030722
v -0.008518 0.010934 0.031617
v -0.009014 0.011480 0.030882
v -0.008001 0.012021 0.030370
v -0.008518 -0.010300 0.030370
v -0.008518 -0.011480 0.031331
v -0.008518 -0.011821 0.031617
v -0.007894 -0.010740 0.030370
v -0.008510 0.010940 0.031617
v -0.008518 0.011480 0.031168
v -0.008518 0.011821 0.030882
v -0.007261 0.012502 0.030370
v -0.007861 -0.010762 0.030370
v -0.007775 -0.010818 0.030370
v -0.007872 -0.012220 0.031617
v -0.007775 -0.011480 0.030931
v -0.007775 0.011424 0.031617
v -0.007869 0.012221 0.030882
v -0.007775 0.012277 0.030882
v -0.006330 0.013009 0.030370
v -0.007539 -0.010965 0.030370
v -0.007230 -0.011151 0.030370
v -0.007035 -0.011263 0.030370
v -0.007775 -0.012220 0.031570
v -0.007775 -0.012274 0.031617
v -0.007679 0.011480 0.031617
v -0.007035 0.011846 0.031617
v -0.007035 0.012221 0.031285
v -0.007035 0.012671 0.030882
v -0.005780 0.013285 0.030370
v -0.006622 -0.011480 0.030370
v -0.007035 -0.011480 0.030560
v -0.007035 -0.012220 0.031215
v -0.007035 -0.012671 0.031617
v -0.006996 0.011866 0.031617
v -0.006294 0.012212 0.031617
v -0.006410 0.012961 0.030882
v -0.006294 0.013014 0.030882
v -0.004813 0.013673 0.030370
v -0.006462 -0.011562 0.030370
v -0.006410 -0.012961 0.031617
v -0.006294 -0.011646 0.030370
v -0.006294 -0.012212 0.030882
v -0.005595 0.012505 0.031617
v -0.005554 0.012961 0.031207
v -0.005554 0.013307 0.030882
v -0.005554 0.012522 0.031617
v -0.004073 0.013929 0.030370
v -0.006294 -0.013014 0.031617
v -0.006165 -0.011705 0.030370
v -0.005771 -0.011880 0.030370
v -0.004813 0.012786 0.031617
v -0.004813 0.013555 0.030882
v -0.003555 0.014090 0.030370
v -0.005554 -0.012522 0.030882
v -0.005554 -0.012961 0.031293
v -0.005554 -0.013307 0.031617
v -0.005554 -0.011973 0.030370
v -0.005554 -0.012220 0.030601
v -0.004211 0.012961 0.031617
v -0.004073 0.013000 0.031617
v -0.004279 0.013701 0.030882
v -0.004073 0.013758 0.030882
v -0.002815 0.014270 0.030370
v -0.004846 -0.012234 0.030370
v -0.004813 -0.013555 0.031617
v -0.004813 -0.012246 0.030370
v -0.004813 -0.012961 0.031051
v -0.003333 0.013172 0.031617
v -0.003333 0.013921 0.030882
v -0.001852 0.014433 0.030370
v -0.004279 -0.013701 0.031617
v -0.004343 -0.012392 0.030370
v -0.004114 -0.012460 0.030370
v -0.004073 -0.013000 0.030882
v -0.002592 0.013302 0.031617
v -0.002592 0.014042 0.030882
v -0.001108 0.014523 0.030370
v -0.004073 -0.013757 0.031617
v -0.004073 -0.012471 0.030370
v -0.003333 -0.012648 0.030370
v -0.001852 0.013386 0.031617
v -0.001852 0.014124 0.030882
v -0.000371 0.014574 0.030370
v -0.003333 -0.013921 0.031617
v -0.003333 -0.013172 0.030882
v -0.002592 -0.012783 0.030370
v -0.001108 0.013431 0.031617
v -0.001108 0.014166 0.030882
v 0.000370 0.014588 0.030370
v -0.002592 -0.014042 0.031617
v -0.001852 -0.012874 0.030370
v -0.000371 0.013437 0.031617
v -0.000371 0.014171 0.030882
v 0.001110 0.014563 0.030370
v -0.001852 -0.014123 0.031617
v -0.000404 -0.012983 0.030370
v 0.000370 0.013400 0.031617
v 0.000370 0.014135 0.030882
v 0.001851 0.014467 0.030370
v 0.001110 0.014062 0.030882
v -0.001108 -0.014166 0.031617
v 0.000306 -0.013000 0.030370
v 0.001110 0.013321 0.031617
v 0.002448 0.014349 0.030370
v 0.001851 0.013949 0.030882
v -0.000371 -0.014171 0.031617
v 0.001091 -0.012972 0.030370
v 0.001851 0.013200 0.031617
v 0.002591 0.014318 0.030370
v 0.002591 0.013794 0.030882
v 0.000370 -0.014135 0.031617
v 0.001851 -0.012902 0.030370
v 0.002591 0.013037 0.031617
v 0.002985 0.014219 0.030370
v 0.003332 0.014129 0.030370
v 0.001110 -0.014062 0.031617
v 0.002591 -0.012789 0.030370
v 0.003332 0.012829 0.031617
v 0.004072 0.013896 0.030370
v 0.001853 -0.013946 0.031617
v 0.003332 -0.012631 0.030370
v 0.002591 -0.013791 0.031617
v 0.004072 0.012570 0.031617
v 0.004072 0.012961 0.031252
v 0.004072 0.013701 0.030554
v 0.004595 0.013701 0.030370
v 0.003849 -0.012508 0.030370
v 0.002935 -0.013701 0.031617
v 0.004813 0.012263 0.031617
v 0.004813 0.013065 0.030882
v 0.004813 0.013620 0.030370
v 0.004716 0.013656 0.030370
v 0.004078 -0.013352 0.031617
v 0.003332 -0.013594 0.031617
v 0.004813 -0.012178 0.030370
v 0.004903 0.012221 0.031617
v 0.005553 0.013293 0.030370
v 0.005399 0.013364 0.030370
v 0.005140 0.013479 0.030370
v 0.005069 0.013510 0.030370
v 0.004813 -0.013065 0.031617
v 0.005553 -0.011874 0.030370
v 0.005553 0.012221 0.031333
v 0.005553 0.012724 0.030882
v 0.005553 0.012961 0.030670
v 0.005553 0.011900 0.031617
v 0.006208 0.012961 0.030370
v 0.005044 -0.012961 0.031617
v 0.006070 -0.011646 0.030370
v 0.006296 0.012916 0.030370
v 0.006296 0.012221 0.030978
v 0.006296 0.012330 0.030882
v 0.006296 0.011477 0.031617
v 0.005553 -0.012724 0.031617
v 0.006811 -0.011246 0.030370
v 0.006296 -0.012330 0.031617
v 0.005558 -0.012722 0.031617
v 0.006552 0.012770 0.030370
v 0.006866 0.012587 0.030370
v 0.007037 0.010982 0.031617
v 0.007037 0.011480 0.031211
v 0.007037 0.011874 0.030882
v 0.007037 0.012221 0.030592
v 0.007037 0.012482 0.030370
v 0.007606 -0.010740 0.030370
v 0.007037 -0.011871 0.031617
v 0.006478 -0.012220 0.031617
v 0.007777 0.011351 0.030882
v 0.007777 0.011480 0.030779
v 0.007777 0.011984 0.030370
v 0.007361 0.010740 0.031617
v 0.007433 0.012221 0.030370
v 0.007650 -0.010711 0.030370
v 0.007598 -0.011480 0.031617
v 0.008440 0.011480 0.030370
v 0.007777 0.010740 0.031365
v 0.007777 0.010410 0.031617
v 0.008292 -0.010247 0.030370
v 0.007777 -0.011348 0.031617
v 0.008518 0.011418 0.030370
v 0.008518 0.010748 0.030882
v 0.008248 0.009999 0.031617
v 0.008589 -0.009999 0.030370
v 0.008526 -0.010740 0.031617
v 0.007840 -0.011297 0.031617
v 0.008705 0.011258 0.030370
v 0.009258 0.010740 0.030389
v 0.009035 0.010968 0.030370
v 0.008518 0.009999 0.031437
v 0.008518 0.009746 0.031617
v 0.009258 -0.009400 0.030370
v 0.009415 -0.009259 0.030370
v 0.009258 -0.010047 0.031617
v 0.009286 0.010740 0.030370
v 0.009258 0.010765 0.030370
v 0.009258 0.009999 0.030918
v 0.008994 0.009259 0.031617
v 0.009998 -0.008640 0.030370
v 0.009308 -0.009999 0.031617
v 0.009514 0.010515 0.030370
v 0.009308 0.009999 0.030882
v 0.009258 0.008966 0.031617
v 0.009258 0.009259 0.031426
v 0.010114 -0.008516 0.030370
v 0.009976 -0.009259 0.031617
v 0.009789 0.010233 0.030370
v 0.009998 0.009999 0.030379
v 0.009632 0.008519 0.031617
v 0.009979 0.009259 0.030882
v 0.009998 -0.009234 0.031617
v 0.010717 -0.007775 0.030370
v 0.010009 0.009999 0.030370
v 0.010073 0.009926 0.030370
v 0.009998 0.008516 0.031331
v 0.010637 0.009259 0.030370
v 0.009998 0.008034 0.031617
v 0.010557 -0.008516 0.031617
v 0.011245 -0.007035 0.030370
v 0.010557 0.008516 0.030882
v 0.010852 0.008978 0.030370
v 0.010739 0.009127 0.030370
v 0.010183 0.007778 0.031617
v 0.010739 0.008516 0.030736
v 0.010739 -0.008257 0.031617
v 0.011061 -0.007775 0.031617
v 0.011716 -0.006295 0.030370
v 0.011185 0.008516 0.030370
v 0.010739 0.007775 0.031154
v 0.011336 0.008293 0.030370
v 0.011237 0.008440 0.030370
v 0.010654 0.007035 0.031617
v 0.011479 -0.007069 0.031617
v 0.011848 -0.006069 0.030370
v 0.011061 0.007775 0.030882
v 0.011479 0.008068 0.030370
v 0.011111 0.006300 0.031617
v 0.011499 -0.007035 0.031617
v 0.012132 -0.005554 0.030370
v 0.011479 0.007775 0.030527
v 0.011661 0.007775 0.030370
v 0.011479 0.005681 0.031617
v 0.011873 -0.006295 0.031617
v 0.012181 -0.005456 0.030370
v 0.011793 0.007553 0.030370
v 0.011551 0.005554 0.031617
v 0.012192 -0.005554 0.031617
v 0.012487 -0.004814 0.030370
v 0.012002 0.007176 0.030370
v 0.011925 0.004814 0.031617
v 0.012077 0.007035 0.030370
v 0.012583 -0.004589 0.030370
v 0.012790 -0.004073 0.030370
v 0.012220 -0.005481 0.031617
v 0.012220 0.004127 0.031617
v 0.012435 0.006295 0.030370
v 0.012272 0.006641 0.030370
v 0.012853 -0.003896 0.030370
v 0.012462 -0.004814 0.031617
v 0.012242 0.004074 0.031617
v 0.012743 0.005554 0.030370
v 0.012569 0.005971 0.030370
v 0.013043 -0.003333 0.030370
v 0.012682 -0.004073 0.031617
v 0.012506 0.003333 0.031617
v 0.013002 0.004814 0.030370
v 0.013249 -0.002590 0.030370
v 0.012858 -0.003330 0.031617
v 0.012721 0.002590 0.031617
v 0.013103 0.004459 0.030370
v 0.013409 -0.001849 0.030370
v 0.012991 -0.002590 0.031617
v 0.012889 0.001850 0.031617
v 0.013274 0.003812 0.030370
v 0.013214 0.004074 0.030370
v 0.013448 -0.001627 0.030370
v 0.013527 -0.001109 0.030370
v 0.013079 -0.001849 0.031617
v 0.013013 0.001112 0.031617
v 0.013508 0.002590 0.030370
v 0.013412 0.003159 0.030370
v 0.013381 0.003333 0.030370
v 0.013549 -0.000923 0.030370
v 0.013604 -0.000369 0.030370
v 0.013613 -0.000250 0.030370
v 0.013125 -0.001109 0.031617
v 0.013593 0.001850 0.030370
v 0.013092 0.000369 0.031617
v 0.013640 0.000369 0.030370
v 0.013131 -0.000369 0.031617
v 0.013637 0.001109 0.030370
v 0.013640 0.000448 0.030370
f 1 2 3
f 1 3 4
f 1 4 5
f 1 5 6
f 1 6 2
f 2 7 8
f 2 8 3
f 2 6 9
f 2 9 10
f 2 10 7
f 3 8 4
f 4 11 12
f 4 12 13
f 4 13 5
f 4 8 11
f 5 13 21
f 5 21 27
f 5 27 35
f 5 35 42
f 5 42 54
f 5 54 53
f 5 53 61
f 5 61 72
f 5 72 71
f 5 71 81
f 5 81 89
f 5 89 102
f 5 102 110
f 5 110 122
f 5 122 134
f 5 134 143
f 5 143 151
f 5 151 159
f 5 159 167
f 5 167 174
f 5 174 182
f 5 182 192
f 5 192 201
f 5 201 208
f 5 208 216
f 5 216 224
f 5 224 233
f 5 233 239
f 5 239 246
f 5 246 252
f 5 252 258
f 5 258 263
f 5 263 269
f 5 269 274
f 5 274 279
f 5 279 284
f 5 284 288
f 5 288 290
f 5 290 296
f 5 296 302
f 5 302 301
f 5 301 309
f 5 309 316
f 5 316 322
f 5 322 325
f 5 325 324
f 5 324 335
f 5 335 334
f 5 334 342
f 5 342 347
f 5 347 353
f 5 353 352
f 5 352 361
f 5 361 367
f 5 367 373
f 5 373 378
f 5 378 385
f 5 385 392
f 5 392 393
f 5 393 400
f 5 400 405
f 5 405 410
f 5 410 414
f 5 414 421
f 5 421 426
f 5 426 431
f 5 431 435
f 5 435 439
f 5 439 445
f 5 445 453
f 5 453 457
f 5 457 455
f 5 455 446
f 5 446 440
f 5 440 436
f 5 436 432
f 5 432 427
f 5 427 422
f 5 422 417
f 5 417 413
f 5 413 409
f 5 409 404
f 5 404 399
f 5 399 390
f 5 390 384
f 5 384 376
f 5 376 370
f 5 370 365
f 5 365 358
f 5 358 350
f 5 350 345
f 5 345 339
f 5 339 328
f 5 328 321
f 5 321 314
f 5 314 304
f 5 304 297
f 5 297 291
f 5 291 286
f 5 286 281
f 5 281 276
f 5 276 271
f 5 271 265
f 5 265 260
f 5 260 255
f 5 255 249
f 5 249 243
f 5 243 236
f 5 236 228
f 5 228 227
f 5 227 219
f 5 219 214
f 5 214 211
f 5 211 203
f 5 203 202
f 5 202 194
f 5 194 193
f 5 193 184
f 5 184 176
f 5 176 169
f 5 169 160
f 5 160 153
f 5 153 146
f 5 146 137
f 5 137 136
f 5 136 126
f 5 126 123
f 5 123 113
f 5 113 104
f 5 104 95
f 5 95 90
f 5 90 82
f 5 82 73
f 5 73 62
f 5 62 55
f 5 55 44
f 5 44 36
f 5 36 28
f 5 28 22
f 5 22 15
f 5 15 9
f 5 9 6
f 7 10 14
f 7 14 17
f 7 17 23
f 7 23 29
f 7 29 30
f 7 30 37
f 7 37 45
f 7 45 47
f 7 47 56
f 7 56 63
f 7 63 75
f 7 75 76
f 7 76 84
f 7 84 94
f 7 94 93
f 7 93 106
f 7 106 117
f 7 117 128
f 7 128 139
f 7 139 145
f 7 145 155
f 7 155 163
f 7 163 171
f 7 171 179
f 7 179 187
f 7 187 197
f 7 197 206
f 7 206 215
f 7 215 221
f 7 221 231
f 7 231 238
f 7 238 245
f 7 245 251
f 7 251 257
f 7 257 262
f 7 262 267
f 7 267 272
f 7 272 277
f 7 277 282
f 7 282 283
f 7 283 287
f 7 287 294
f 7 294 300
f 7 300 299
f 7 299 308
f 7 308 307
f 7 307 306
f 7 306 305
f 7 305 315
f 7 315 318
f 7 318 326
f 7 326 327
f 7 327 332
f 7 332 340
f 7 340 338
f 7 338 343
f 7 343 348
f 7 348 354
f 7 354 356
f 7 356 363
f 7 363 362
f 7 362 368
f 7 368 374
f 7 374 380
f 7 380 381
f 7 381 383
f 7 383 389
f 7 389 388
f 7 388 395
f 7 395 398
f 7 398 397
f 7 397 403
f 7 403 408
f 7 408 412
f 7 412 416
f 7 416 418
f 7 418 424
f 7 424 423
f 7 423 429
f 7 429 428
f 7 428 433
f 7 433 437
f 7 437 442
f 7 442 441
f 7 441 449
f 7 449 448
f 7 448 447
f 7 447 454
f 7 454 458
f 7 458 459
f 7 459 456
f 7 456 452
f 7 452 451
f 7 451 450
f 7 450 444
f 7 444 443
f 7 443 438
f 7 438 434
f 7 434 430
f 7 430 425
f 7 425 420
f 7 420 419
f 7 419 415
f 7 415 411
f 7 411 406
f 7 406 401
f 7 401 394
f 7 394 386
f 7 386 379
f 7 379 372
f 7 372 366
f 7 366 360
f 7 360 359
f 7 359 351
f 7 351 346
f 7 346 341
f 7 341 333
f 7 333 323
f 7 323 317
f 7 317 310
f 7 310 303
f 7 303 295
f 7 295 289
f 7 289 285
f 7 285 280
f 7 280 275
f 7 275 270
f 7 270 264
f 7 264 259
f 7 259 254
f 7 254 248
f 7 248 247
f 7 247 241
f 7 241 240
f 7 240 234
f 7 234 232
f 7 232 225
f 7 225 218
f 7 218 217
f 7 217 209
f 7 209 207
f 7 207 198
f 7 198 190
f 7 190 189
f 7 189 188
f 7 188 181
f 7 181 180
f 7 180 175
f 7 175 172
f 7 172 166
f 7 166 165
f 7 165 164
f 7 164 156
f 7 156 150
f 7 150 149
f 7 149 148
f 7 148 147
f 7 147 140
f 7 140 131
f 7 131 130
f 7 130 120
f 7 120 129
f 7 129 118
f 7 118 111
f 7 111 112
f 7 112 107
f 7 107 100
f 7 100 99
f 7 99 98
f 7 98 97
f 7 97 96
f 7 96 85
f 7 85 79
f 7 79 78
f 7 78 77
f 7 77 68
f 7 68 67
f 7 67 58
f 7 58 51
f 7 51 50
f 7 50 49
f 7 49 48
f 7 48 43
f 7 43 39
f 7 39 32
f 7 32 25
f 7 25 19
f 7 19 18
f 7 18 11
f 7 11 8
f 9 15 10
f 10 16 17
f 10 17 14
f 10 15 16
f 11 18 12
f 12 18 19
f 12 19 25
f 12 25 20
f 12 20 21
f 12 21 13
f 15 22 16
f 16 23 17
f 16 22 24
f 16 24 23
f 20 25 26
f 20 26 27
f 20 27 21
f 22 28 24
f 23 24 29
f 24 30 29
f 24 28 31
f 24 31 30
f 25 32 33
f 25 33 26
f 26 33 34
f 26 34 35
f 26 35 27
f 28 36 31
f 30 31 37
f 31 38 37
f 31 36 38
f 32 39 33
f 33 39 34
f 34 40 41
f 34 41 42
f 34 42 35
f 34 39 43
f 34 43 40
f 36 44 38
f 37 38 45
f 38 44 46
f 38 46 47
f 38 47 45
f 40 48 49
f 40 49 41
f 40 43 48
f 41 49 50
f 41 50 51
f 41 51 52
f 41 52 53
f 41 53 54
f 41 54 42
f 44 55 46
f 46 56 47
f 46 55 57
f 46 57 56
f 51 58 52
f 52 59 60
f 52 60 61
f 52 61 53
f 52 58 59
f 55 62 57
f 56 57 63
f 57 64 65
f 57 65 66
f 57 66 63
f 57 62 64
f 58 67 59
f 59 67 68
f 59 68 60
f 60 68 69
f 60 69 70
f 60 70 71
f 60 71 72
f 60 72 61
f 62 73 74
f 62 74 64
f 63 66 75
f 64 74 65
f 65 76 75
f 65 75 66
f 65 74 76
f 68 77 69
f 69 77 78
f 69 78 70
f 70 79 80
f 70 80 71
f 70 78 79
f 71 80 81
f 73 82 74
f 74 82 83
f 74 83 76
f 76 83 84
f 79 85 80
f 80 85 86
f 80 86 87
f 80 87 81
f 81 87 88
f 81 88 89
f 82 90 83
f 83 91 92
f 83 92 93
f 83 93 94
f 83 94 84
f 83 90 95
f 83 95 91
f 85 96 86
f 86 97 87
f 86 96 97
f 87 97 98
f 87 98 99
f 87 99 88
f 88 99 100
f 88 100 101
f 88 101 89
f 89 101 103
f 89 103 102
f 91 104 92
f 91 95 104
f 92 104 105
f 92 105 106
f 92 106 93
f 100 107 103
f 100 103 101
f 102 108 109
f 102 109 110
f 102 103 111
f 102 111 108
f 103 112 111
f 103 107 112
f 104 113 105
f 105 114 115
f 105 115 116
f 105 116 106
f 105 113 114
f 106 116 117
f 108 118 109
f 108 111 118
f 109 118 119
f 109 119 120
f 109 120 121
f 109 121 122
f 109 122 110
f 113 123 114
f 114 123 115
f 115 124 125
f 115 125 116
f 115 123 126
f 115 126 127
f 115 127 124
f 116 125 128
f 116 128 117
f 118 129 119
f 119 129 120
f 120 130 121
f 121 130 131
f 121 131 132
f 121 132 133
f 121 133 122
f 122 133 134
f 124 135 125
f 124 127 136
f 124 136 137
f 124 137 138
f 124 138 135
f 125 135 128
f 126 136 127
f 128 135 139
f 131 140 141
f 131 141 132
f 132 141 133
f 133 142 143
f 133 143 134
f 133 141 142
f 135 138 144
f 135 144 145
f 135 145 139
f 137 146 138
f 138 146 144
f 140 147 141
f 141 147 142
f 142 147 148
f 142 148 149
f 142 149 150
f 142 150 143
f 143 150 152
f 143 152 151
f 144 153 154
f 144 154 155
f 144 155 145
f 144 146 153
f 150 156 152
f 151 152 157
f 151 157 158
f 151 158 159
f 152 156 157
f 153 160 161
f 153 161 154
f 154 161 162
f 154 162 155
f 155 162 163
f 156 164 157
f 157 164 158
f 158 164 165
f 158 165 166
f 158 166 159
f 159 166 168
f 159 168 167
f 160 169 162
f 160 162 161
f 162 170 171
f 162 171 163
f 162 169 170
f 166 172 168
f 167 168 173
f 167 173 174
f 168 172 175
f 168 175 173
f 169 176 177
f 169 177 170
f 170 177 178
f 170 178 171
f 171 178 179
f 173 175 180
f 173 180 181
f 173 181 174
f 174 181 183
f 174 183 182
f 176 184 177
f 177 184 178
f 178 184 185
f 178 185 179
f 179 185 186
f 179 186 187
f 181 188 183
f 182 183 189
f 182 189 190
f 182 190 191
f 182 191 192
f 183 188 189
f 184 193 186
f 184 186 185
f 186 194 195
f 186 195 196
f 186 196 187
f 186 193 194
f 187 196 197
f 190 198 199
f 190 199 191
f 191 199 200
f 191 200 192
f 192 200 201
f 194 202 195
f 195 202 203
f 195 203 196
f 196 203 204
f 196 204 197
f 197 204 205
f 197 205 206
f 198 207 200
f 198 200 199
f 200 207 201
f 201 207 209
f 201 209 210
f 201 210 208
f 203 211 205
f 203 205 204
f 205 212 213
f 205 213 206
f 205 211 214
f 205 214 212
f 206 213 215
f 208 210 216
f 209 217 210
f 210 217 218
f 210 218 216
f 212 214 219
f 212 219 213
f 213 220 215
f 213 219 220
f 215 220 221
f 216 222 223
f 216 223 224
f 216 218 225
f 216 225 226
f 216 226 222
f 219 227 220
f 220 227 228
f 220 228 229
f 220 229 221
f 221 229 230
f 221 230 231
f 222 226 232
f 222 232 223
f 223 232 224
f 224 232 234
f 224 234 235
f 224 235 233
f 225 232 226
f 228 236 230
f 228 230 229
f 230 237 231
f 230 236 237
f 231 237 238
f 233 235 240
f 233 240 241
f 233 241 242
f 233 242 239
f 234 240 235
f 236 243 237
f 237 244 238
f 237 243 244
f 238 244 245
f 239 242 246
f 241 247 242
f 242 247 248
f 242 248 246
f 243 249 244
f 244 250 245
f 244 249 250
f 245 250 251
f 246 248 253
f 246 253 252
f 248 254 253
f 249 255 250
f 250 256 251
f 250 255 256
f 251 256 257
f 252 253 254
f 252 254 258
f 254 259 258
f 255 260 261
f 255 261 256
f 256 261 257
f 257 261 262
f 258 259 263
f 259 264 263
f 260 265 266
f 260 266 261
f 261 266 262
f 262 266 268
f 262 268 267
f 263 264 269
f 264 270 269
f 265 271 268
f 265 268 266
f 267 268 271
f 267 271 273
f 267 273 272
f 269 270 274
f 270 275 274
f 271 276 273
f 272 273 276
f 272 276 278
f 272 278 277
f 274 275 279
f 275 280 279
f 276 281 278
f 277 278 282
f 278 283 282
f 278 281 283
f 279 280 284
f 280 285 284
f 281 286 283
f 283 286 287
f 284 285 288
f 285 289 290
f 285 290 288
f 286 291 292
f 286 292 293
f 286 293 287
f 287 293 294
f 289 295 290
f 290 295 296
f 291 297 298
f 291 298 299
f 291 299 292
f 292 299 300
f 292 300 293
f 293 300 294
f 295 301 302
f 295 302 296
f 295 303 301
f 297 304 305
f 297 305 306
f 297 306 307
f 297 307 298
f 298 307 308
f 298 308 299
f 301 303 309
f 303 310 309
f 304 311 312
f 304 312 313
f 304 313 305
f 304 314 311
f 305 313 315
f 309 310 317
f 309 317 316
f 311 314 318
f 311 318 312
f 312 318 315
f 312 315 313
f 314 319 320
f 314 320 318
f 314 321 319
f 316 317 322
f 317 323 324
f 317 324 325
f 317 325 322
f 318 320 326
f 319 327 320
f 319 321 327
f 320 327 326
f 321 328 329
f 321 329 330
f 321 330 331
f 321 331 332
f 321 332 327
f 323 333 334
f 323 334 335
f 323 335 324
f 328 336 337
f 328 337 338
f 328 338 329
f 328 339 336
f 329 338 340
f 329 340 330
f 330 340 331
f 331 340 332
f 333 341 334
f 334 341 342
f 336 343 337
f 336 339 344
f 336 344 343
f 337 343 338
f 339 345 344
f 341 346 342
f 342 346 347
f 343 344 348
f 344 345 348
f 345 349 348
f 345 350 349
f 346 351 352
f 346 352 353
f 346 353 347
f 348 349 354
f 349 355 356
f 349 356 354
f 349 350 357
f 349 357 355
f 350 358 357
f 351 359 352
f 352 359 360
f 352 360 361
f 355 362 363
f 355 363 356
f 355 357 362
f 357 358 364
f 357 364 362
f 358 365 364
f 360 366 367
f 360 367 361
f 362 364 368
f 364 365 369
f 364 369 368
f 365 370 371
f 365 371 369
f 366 372 367
f 367 372 373
f 368 369 374
f 369 371 375
f 369 375 374
f 370 376 377
f 370 377 371
f 371 377 375
f 372 378 373
f 372 379 378
f 374 375 380
f 375 377 381
f 375 381 380
f 376 382 383
f 376 383 377
f 376 384 382
f 377 383 381
f 378 379 385
f 379 386 385
f 382 387 388
f 382 388 389
f 382 389 383
f 382 384 387
f 384 390 391
f 384 391 387
f 385 386 392
f 386 393 392
f 386 394 393
f 387 391 388
f 388 391 395
f 390 396 397
f 390 397 398
f 390 398 395
f 390 395 391
f 390 399 396
f 393 394 400
f 394 401 400
f 396 402 397
f 396 399 402
f 397 402 403
f 399 404 402
f 400 401 405
f 401 406 405
f 402 407 403
f 402 404 407
f 403 407 408
f 404 408 407
f 404 409 408
f 405 406 410
f 406 411 410
f 408 409 412
f 409 413 412
f 410 411 415
f 410 415 414
f 412 413 416
f 413 417 418
f 413 418 416
f 414 415 419
f 414 419 420
f 414 420 421
f 417 422 423
f 417 423 424
f 417 424 418
f 420 425 426
f 420 426 421
f 422 427 428
f 422 428 429
f 422 429 423
f 425 430 426
f 426 430 431
f 427 432 428
f 428 432 433
f 430 434 431
f 431 434 435
f 432 436 433
f 433 436 437
f 434 438 435
f 435 438 439
f 436 440 441
f 436 441 442
f 436 442 437
f 438 443 439
f 439 443 444
f 439 444 445
f 440 446 447
f 440 447 448
f 440 448 449
f 440 449 441
f 444 450 445
f 445 450 451
f 445 451 452
f 445 452 453
f 446 454 447
f 446 455 454
f 452 456 453
f 453 456 457
f 454 455 458
f 455 457 458
f 456 459 457
f 457 459 458
