v -0.000372 -0.013788 0.027067
v -0.001111 -0.013784 0.027067
v -0.000372 -0.013191 0.026469
v 0.000369 -0.013752 0.027067
v -0.001850 -0.013740 0.027067
v -0.001111 -0.013186 0.026469
v 0.000369 -0.013154 0.026469
v 0.001079 -0.013680 0.027067
v -0.001850 -0.013141 0.026469
v -0.002004 -0.013722 0.027067
v 0.001111 -0.013076 0.026469
v 0.001111 -0.013676 0.027067
v -0.002591 -0.013655 0.027067
v -0.002591 -0.013052 0.026469
v 0.001696 -0.013585 0.027067
v 0.001850 -0.012953 0.026469
v -0.003040 -0.013580 0.027067
v -0.003333 -0.013531 0.027067
v -0.003105 -0.012962 0.026469
v 0.001839 -0.013561 0.027067
v 0.002591 -0.012786 0.026469
v 0.002591 -0.013399 0.027067
v 0.001850 -0.013558 0.027067
v -0.003925 -0.013398 0.027067
v -0.003333 -0.012922 0.026469
v 0.003333 -0.012572 0.026469
v 0.003333 -0.012962 0.026843
v 0.003333 -0.013196 0.027067
v -0.004074 -0.013363 0.027067
v -0.004074 -0.012962 0.026678
v -0.004074 -0.012747 0.026469
v 0.004072 -0.012310 0.026469
v 0.004055 -0.012953 0.027067
v 0.004028 -0.012962 0.027067
v -0.004618 -0.013211 0.027067
v -0.004813 -0.013154 0.027067
v -0.004813 -0.012962 0.026884
v -0.004813 -0.012527 0.026469
v 0.004285 -0.012222 0.026469
v 0.004713 -0.012690 0.027067
v 0.004385 -0.012823 0.027067
v 0.004345 -0.012839 0.027067
v 0.004072 -0.012947 0.027067
v -0.005235 -0.013011 0.027067
v -0.005554 -0.012899 0.027067
v -0.005554 -0.012259 0.026469
v 0.004813 -0.011994 0.026469
v 0.004813 -0.012222 0.026677
v 0.004813 -0.012647 0.027067
v -0.005727 -0.012829 0.027067
v -0.006171 -0.012648 0.027067
v -0.005646 -0.012221 0.026469
v 0.005554 -0.011623 0.026469
v 0.005554 -0.012222 0.027000
v 0.005554 -0.012297 0.027067
v -0.006296 -0.012595 0.027067
v -0.006296 -0.012222 0.026725
v -0.006296 -0.011940 0.026469
v 0.005803 -0.011481 0.026469
v 0.006201 -0.011940 0.027067
v 0.005950 -0.012082 0.027067
v 0.005901 -0.012109 0.027067
v -0.006821 -0.012347 0.027067
v -0.007035 -0.012243 0.027067
v -0.007035 -0.012222 0.027048
v -0.007035 -0.011567 0.026469
v 0.006296 -0.011188 0.026469
v 0.006296 -0.011481 0.026719
v 0.006296 -0.011886 0.027067
v -0.007075 -0.012222 0.027067
v -0.007332 -0.012082 0.027067
v -0.007665 -0.011896 0.027067
v -0.007189 -0.011481 0.026471
v -0.007186 -0.011481 0.026469
v 0.006954 -0.010743 0.026469
v 0.006935 -0.011481 0.027067
v -0.007776 -0.011831 0.027067
v -0.007776 -0.011481 0.026765
v -0.007776 -0.011132 0.026469
v 0.007035 -0.010683 0.026469
v 0.007035 -0.011413 0.027067
v -0.008285 -0.011515 0.027067
v -0.008336 -0.011481 0.027067
v -0.008517 -0.011362 0.027067
v -0.008366 -0.010738 0.026469
v 0.008518 -0.009557 0.026469
v 0.007776 -0.010864 0.027067
v -0.008517 -0.010740 0.026556
v -0.009259 -0.010823 0.027067
v -0.008517 -0.010633 0.026469
v 0.008104 -0.010600 0.027067
v 0.008077 -0.010622 0.027067
v 0.008872 -0.009261 0.026469
v -0.009521 -0.010611 0.027067
v -0.009259 -0.010740 0.027001
v -0.009259 -0.010057 0.026469
v 0.008518 -0.010250 0.027067
v 0.008875 -0.009259 0.026469
v -0.009873 -0.010316 0.027067
v -0.009327 -0.009999 0.026469
v 0.009259 -0.008914 0.026469
v 0.008943 -0.009859 0.027067
v -0.009998 -0.010205 0.027067
v -0.009998 -0.009999 0.026913
v -0.009998 -0.009390 0.026469
v 0.009660 -0.008522 0.026469
v 0.009259 -0.009543 0.027067
v -0.010222 -0.009999 0.027067
v -0.010344 -0.009885 0.027067
v -0.010133 -0.009259 0.026469
v 0.009998 -0.008160 0.026469
v 0.009654 -0.009119 0.027067
v -0.010626 -0.009610 0.027067
v -0.010739 -0.009259 0.026903
v -0.010739 -0.008616 0.026469
v 0.010331 -0.007782 0.026469
v 0.009998 -0.008709 0.027067
v -0.010739 -0.009493 0.027067
v -0.010961 -0.009259 0.027067
v -0.011072 -0.009137 0.027067
v -0.010829 -0.008518 0.026471
v -0.010826 -0.008518 0.026469
v 0.010739 -0.007265 0.026469
v 0.010269 -0.008378 0.027067
v -0.011356 -0.008814 0.027067
v -0.011481 -0.008668 0.027067
v -0.011481 -0.008518 0.026970
v -0.011416 -0.007792 0.026469
v 0.010910 -0.007037 0.026469
v 0.010796 -0.007639 0.027067
v -0.011605 -0.008518 0.027067
v -0.011481 -0.007779 0.026513
v -0.011427 -0.007778 0.026469
v 0.011405 -0.006297 0.026469
v 0.011254 -0.006897 0.027067
v -0.012165 -0.007779 0.027067
v -0.011481 -0.007706 0.026471
v -0.011481 -0.007704 0.026469
v 0.011481 -0.006172 0.026469
v 0.011484 -0.006167 0.026469
v 0.011830 -0.005556 0.026469
v 0.011646 -0.006157 0.027067
v -0.012222 -0.007697 0.027067
v -0.011946 -0.007036 0.026469
v 0.012198 -0.004816 0.026469
v 0.011911 -0.005556 0.027067
v -0.012222 -0.007037 0.026700
v -0.012652 -0.007037 0.027067
v -0.012222 -0.006597 0.026471
v -0.012222 -0.006595 0.026469
v 0.012507 -0.004075 0.026469
v 0.012209 -0.004804 0.027067
v -0.012704 -0.006955 0.027067
v -0.012401 -0.006297 0.026471
v -0.012398 -0.006297 0.026469
v 0.012764 -0.003333 0.026469
v 0.012764 -0.003333 0.026471
v 0.012444 -0.004075 0.027067
v -0.012855 -0.006696 0.027067
v -0.013083 -0.006297 0.027067
v -0.012793 -0.005555 0.026469
v 0.012975 -0.002598 0.026469
v 0.012639 -0.003333 0.027067
v -0.013453 -0.005556 0.027067
v -0.012961 -0.005192 0.026471
v -0.012961 -0.005189 0.026469
v -0.013486 -0.005488 0.027067
v 0.013088 -0.001986 0.026469
v 0.013110 -0.001986 0.026471
v 0.012788 -0.002593 0.027067
v -0.013131 -0.004816 0.026471
v -0.013129 -0.004816 0.026469
v -0.013594 -0.005240 0.027067
v -0.013978 -0.001986 0.026469
v 0.013107 -0.001986 0.026478
v 0.012904 -0.001986 0.026966
v 0.012861 -0.001986 0.027067
v -0.013702 -0.004988 0.027067
v -0.013702 -0.004816 0.026999
v -0.013418 -0.004075 0.026469
v -0.013854 -0.002593 0.026469
v -0.013981 -0.001986 0.026471
v -0.014536 -0.001986 0.027067
v -0.013776 -0.004816 0.027067
v -0.013702 -0.004075 0.026738
v -0.013659 -0.003332 0.026469
v -0.013702 -0.003174 0.026469
v -0.013857 -0.002593 0.026471
v -0.014089 -0.001986 0.026576
v -0.014449 -0.001986 0.026971
v -0.014460 -0.002593 0.027067
v -0.014049 -0.004075 0.027067
v -0.014279 -0.003333 0.027067
v -0.014317 -0.003194 0.027067
v -0.014333 -0.003129 0.027067
v -0.014444 -0.002663 0.027067
v -0.014444 -0.002593 0.027051
f 1 2 6
f 1 6 3
f 1 3 4
f 1 4 8
f 1 8 12
f 1 12 15
f 1 15 20
f 1 20 23
f 1 23 22
f 1 22 28
f 1 28 34
f 1 34 33
f 1 33 43
f 1 43 42
f 1 42 41
f 1 41 40
f 1 40 49
f 1 49 55
f 1 55 62
f 1 62 61
f 1 61 60
f 1 60 69
f 1 69 76
f 1 76 81
f 1 81 87
f 1 87 92
f 1 92 91
f 1 91 97
f 1 97 102
f 1 102 107
f 1 107 112
f 1 112 117
f 1 117 124
f 1 124 130
f 1 130 135
f 1 135 142
f 1 142 146
f 1 146 152
f 1 152 158
f 1 158 163
f 1 163 170
f 1 170 177
f 1 177 183
f 1 183 191
f 1 191 196
f 1 196 195
f 1 195 194
f 1 194 193
f 1 193 192
f 1 192 184
f 1 184 178
f 1 178 173
f 1 173 167
f 1 167 164
f 1 164 160
f 1 160 159
f 1 159 153
f 1 153 148
f 1 148 143
f 1 143 136
f 1 136 131
f 1 131 126
f 1 126 125
f 1 125 120
f 1 120 119
f 1 119 118
f 1 118 113
f 1 113 109
f 1 109 108
f 1 108 103
f 1 103 99
f 1 99 94
f 1 94 89
f 1 89 84
f 1 84 83
f 1 83 82
f 1 82 77
f 1 77 72
f 1 72 71
f 1 71 70
f 1 70 64
f 1 64 63
f 1 63 56
f 1 56 51
f 1 51 50
f 1 50 45
f 1 45 44
f 1 44 36
f 1 36 35
f 1 35 29
f 1 29 24
f 1 24 18
f 1 18 17
f 1 17 13
f 1 13 10
f 1 10 5
f 1 5 2
f 2 5 6
f 3 6 9
f 3 9 14
f 3 14 19
f 3 19 25
f 3 25 31
f 3 31 38
f 3 38 46
f 3 46 52
f 3 52 58
f 3 58 66
f 3 66 74
f 3 74 79
f 3 79 85
f 3 85 90
f 3 90 96
f 3 96 100
f 3 100 105
f 3 105 110
f 3 110 115
f 3 115 122
f 3 122 128
f 3 128 133
f 3 133 138
f 3 138 144
f 3 144 150
f 3 150 155
f 3 155 161
f 3 161 166
f 3 166 172
f 3 172 180
f 3 180 186
f 3 186 187
f 3 187 181
f 3 181 174
f 3 174 168
f 3 168 162
f 3 162 156
f 3 156 151
f 3 151 145
f 3 145 141
f 3 141 140
f 3 140 139
f 3 139 134
f 3 134 129
f 3 129 123
f 3 123 116
f 3 116 111
f 3 111 106
f 3 106 101
f 3 101 98
f 3 98 93
f 3 93 86
f 3 86 80
f 3 80 75
f 3 75 67
f 3 67 59
f 3 59 53
f 3 53 47
f 3 47 39
f 3 39 32
f 3 32 26
f 3 26 21
f 3 21 16
f 3 16 11
f 3 11 7
f 3 7 4
f 4 7 8
f 5 9 6
f 5 10 9
f 7 11 8
f 8 11 12
f 9 10 13
f 9 13 14
f 11 15 12
f 11 16 15
f 13 17 14
f 14 17 18
f 14 18 19
f 15 16 20
f 16 21 22
f 16 22 23
f 16 23 20
f 18 24 25
f 18 25 19
f 21 26 27
f 21 27 28
f 21 28 22
f 24 29 25
f 25 29 30
f 25 30 31
f 26 32 33
f 26 33 34
f 26 34 27
f 27 34 28
f 29 35 30
f 30 35 31
f 31 35 36
f 31 36 37
f 31 37 38
f 32 39 40
f 32 40 41
f 32 41 42
f 32 42 43
f 32 43 33
f 36 44 37
f 37 44 38
f 38 44 45
f 38 45 46
f 39 47 48
f 39 48 49
f 39 49 40
f 45 50 46
f 46 50 51
f 46 51 52
f 47 53 54
f 47 54 55
f 47 55 48
f 48 55 49
f 51 56 52
f 52 56 57
f 52 57 58
f 53 59 60
f 53 60 61
f 53 61 62
f 53 62 54
f 54 62 55
f 56 63 57
f 57 63 58
f 58 63 64
f 58 64 65
f 58 65 66
f 59 67 68
f 59 68 69
f 59 69 60
f 64 70 65
f 65 70 66
f 66 70 71
f 66 71 72
f 66 72 73
f 66 73 74
f 67 75 76
f 67 76 68
f 68 76 69
f 72 77 78
f 72 78 73
f 73 78 79
f 73 79 74
f 75 80 81
f 75 81 76
f 77 82 78
f 78 82 79
f 79 82 83
f 79 83 84
f 79 84 85
f 80 86 87
f 80 87 81
f 84 88 85
f 84 89 88
f 85 88 90
f 86 91 92
f 86 92 87
f 86 93 91
f 88 89 90
f 89 94 95
f 89 95 90
f 90 95 96
f 91 93 97
f 93 98 97
f 94 96 95
f 94 99 96
f 96 99 100
f 97 98 101
f 97 101 102
f 99 103 104
f 99 104 100
f 100 104 105
f 101 106 102
f 102 106 107
f 103 108 104
f 104 108 109
f 104 109 105
f 105 109 110
f 106 111 107
f 107 111 112
f 109 113 110
f 110 113 114
f 110 114 115
f 111 116 112
f 112 116 117
f 113 118 114
f 114 118 119
f 114 119 120
f 114 120 115
f 115 120 121
f 115 121 122
f 116 123 124
f 116 124 117
f 120 125 121
f 121 125 126
f 121 126 127
f 121 127 128
f 121 128 122
f 123 129 124
f 124 129 130
f 126 131 127
f 127 131 128
f 128 131 132
f 128 132 133
f 129 134 130
f 130 134 135
f 131 136 132
f 132 137 133
f 132 136 137
f 133 137 138
f 134 139 135
f 135 139 140
f 135 140 141
f 135 141 142
f 136 143 144
f 136 144 137
f 137 144 138
f 141 145 142
f 142 145 146
f 143 147 144
f 143 148 147
f 144 147 149
f 144 149 150
f 145 151 146
f 146 151 152
f 147 148 153
f 147 153 149
f 149 153 154
f 149 154 150
f 150 154 155
f 151 156 157
f 151 157 152
f 152 157 158
f 153 159 154
f 154 159 160
f 154 160 161
f 154 161 155
f 156 162 157
f 157 162 158
f 158 162 163
f 160 164 161
f 161 165 166
f 161 164 167
f 161 167 165
f 162 168 169
f 162 169 163
f 163 169 170
f 165 171 166
f 165 167 171
f 166 171 172
f 167 173 171
f 168 174 182
f 168 182 189
f 168 189 190
f 168 190 183
f 168 183 177
f 168 177 176
f 168 176 175
f 168 175 169
f 169 175 170
f 170 175 176
f 170 176 177
f 171 173 178
f 171 178 179
f 171 179 180
f 171 180 172
f 174 181 188
f 174 188 182
f 178 184 179
f 179 184 180
f 180 184 185
f 180 185 186
f 181 187 188
f 182 188 189
f 183 190 191
f 184 192 185
f 185 192 186
f 186 192 193
f 186 193 187
f 187 193 194
f 187 194 188
f 188 194 195
f 188 195 196
f 188 196 197
f 188 197 189
f 189 197 191
f 189 191 190
f 191 197 196
