v 0.000371 -0.014293 0.041176
v 0.000371 -0.014293 0.041176
v -0.000368 -0.014259 0.041176
v 0.001109 -0.014290 0.041176
v 0.001109 -0.014290 0.041176
v 0.000371 -0.013559 0.041912
v -0.000368 -0.014259 0.041176
v -0.001110 -0.014186 0.041176
v 0.001851 -0.014247 0.041176
v 0.001851 -0.014247 0.041176
v 0.001109 -0.013555 0.041912
v 0.000371 -0.013556 0.041915
v 0.000368 -0.013556 0.041915
v -0.000374 -0.013520 0.041915
v -0.001110 -0.014186 0.041176
v -0.001852 -0.014074 0.041176
v 0.002590 -0.014167 0.041176
v 0.001846 -0.013508 0.041915
v 0.001109 -0.013552 0.041915
v -0.001115 -0.013442 0.041915
v -0.001852 -0.013327 0.041912
v -0.001860 -0.013322 0.041915
v -0.002590 -0.013920 0.041176
v -0.002590 -0.013920 0.041176
v 0.003332 -0.014045 0.041176
v 0.003332 -0.014045 0.041176
v 0.002587 -0.013422 0.041915
v -0.001852 -0.013324 0.041915
v -0.002590 -0.013161 0.041915
v -0.002590 -0.013164 0.041912
v -0.003332 -0.013724 0.041176
v -0.003332 -0.013724 0.041176
v 0.004073 -0.013885 0.041176
v 0.004073 -0.013885 0.041176
v 0.003332 -0.013298 0.041912
v 0.003332 -0.013295 0.041915
v -0.003305 -0.012963 0.041915
v -0.003332 -0.012955 0.041915
v -0.003400 -0.013702 0.041176
v 0.004741 -0.013702 0.041176
v 0.004073 -0.013127 0.041912
v 0.004741 -0.013702 0.041176
v 0.004073 -0.013124 0.041915
v -0.004074 -0.012700 0.041915
v -0.004074 -0.012963 0.041668
v -0.004074 -0.013485 0.041176
v 0.004812 -0.013683 0.041176
v 0.004812 -0.013683 0.041176
v 0.004649 -0.012963 0.041912
v 0.004649 -0.012960 0.041915
v -0.004810 -0.012397 0.041915
v -0.004813 -0.012963 0.041394
v -0.004813 -0.013199 0.041176
v 0.005554 -0.013438 0.041176
v 0.005554 -0.013438 0.041176
v 0.004812 -0.012963 0.041866
v 0.004812 -0.012911 0.041915
v -0.005181 -0.012222 0.041915
v -0.005554 -0.012862 0.041176
v -0.005339 -0.012963 0.041176
v -0.005339 -0.012963 0.041176
v 0.006295 -0.013147 0.041176
v 0.005554 -0.012963 0.041624
v 0.006295 -0.013147 0.041176
v 0.005551 -0.012652 0.041915
v -0.005554 -0.012038 0.041915
v -0.006296 -0.012471 0.041176
v -0.005554 -0.012862 0.041176
v 0.006704 -0.012963 0.041176
v 0.006295 -0.012963 0.041347
v 0.006704 -0.012963 0.041176
v 0.006290 -0.012345 0.041915
v -0.006296 -0.011619 0.041915
v -0.006296 -0.012222 0.041394
v -0.006713 -0.012222 0.041176
v -0.006296 -0.012471 0.041176
v 0.007034 -0.012808 0.041176
v 0.007037 -0.012808 0.041176
v 0.006549 -0.012222 0.041915
v -0.006511 -0.011481 0.041915
v -0.007035 -0.012021 0.041176
v -0.006713 -0.012222 0.041176
v 0.007776 -0.012417 0.041176
v 0.007776 -0.012417 0.041176
v 0.007037 -0.012222 0.041701
v 0.007037 -0.011980 0.041915
v -0.007032 -0.011135 0.041915
v -0.007035 -0.011481 0.041627
v -0.007035 -0.012021 0.041176
v -0.007776 -0.011505 0.041176
v 0.008106 -0.012222 0.041176
v 0.007776 -0.012222 0.041347
v 0.008106 -0.012222 0.041176
v 0.007776 -0.011563 0.041915
v -0.007564 -0.010740 0.041915
v -0.007776 -0.011481 0.041196
v -0.007809 -0.011481 0.041176
v 0.008517 -0.011968 0.041176
v 0.008517 -0.011968 0.041176
v 0.007912 -0.011481 0.041912
v 0.007907 -0.011481 0.041915
v -0.007776 -0.010571 0.041915
v -0.007776 -0.010740 0.041782
v -0.008518 -0.010909 0.041176
v -0.008518 -0.010909 0.041176
v 0.009226 -0.011481 0.041176
v 0.008517 -0.011481 0.041585
v 0.009226 -0.011481 0.041176
v 0.008517 -0.011081 0.041915
v -0.008431 -0.009999 0.041915
v -0.008518 -0.010740 0.041305
v -0.008709 -0.010740 0.041176
v -0.008709 -0.010740 0.041176
v 0.009259 -0.011458 0.041176
v 0.009259 -0.011458 0.041176
v 0.008984 -0.010740 0.041915
v -0.008518 -0.009920 0.041915
v -0.009257 -0.010221 0.041176
v -0.009257 -0.010221 0.041176
v 0.009998 -0.010874 0.041176
v 0.009998 -0.010874 0.041176
v 0.009259 -0.010740 0.041749
v 0.009259 -0.010531 0.041912
v 0.009259 -0.010527 0.041915
v -0.009161 -0.009262 0.041915
v -0.009257 -0.009999 0.041335
v -0.009475 -0.009999 0.041176
v -0.009475 -0.009999 0.041176
v 0.010156 -0.010740 0.041176
v 0.010156 -0.010740 0.041176
v 0.009998 -0.010740 0.041280
v 0.009886 -0.009999 0.041912
v 0.009881 -0.009999 0.041915
v -0.009259 -0.009154 0.041915
v -0.009998 -0.009422 0.041176
v 0.010737 -0.010209 0.041176
v 0.010740 -0.010207 0.041176
v 0.009998 -0.009999 0.041837
v 0.009998 -0.009897 0.041912
v 0.009998 -0.009892 0.041915
v -0.009791 -0.008518 0.041915
v -0.009998 -0.009259 0.041284
v -0.010137 -0.009259 0.041176
v -0.010137 -0.009259 0.041176
v 0.010939 -0.009999 0.041176
v 0.010740 -0.009999 0.041328
v 0.010939 -0.009999 0.041176
v 0.010650 -0.009259 0.041912
v 0.010644 -0.009259 0.041915
v -0.009998 -0.008243 0.041915
v -0.010710 -0.008518 0.041176
v -0.010710 -0.008518 0.041176
v 0.011478 -0.009331 0.041176
v 0.011481 -0.009329 0.041176
v 0.010740 -0.009163 0.041912
v 0.011309 -0.008518 0.041912
v 0.010740 -0.009159 0.041915
v -0.010331 -0.007777 0.041915
v -0.010740 -0.008475 0.041176
v -0.010740 -0.008475 0.041176
v 0.011533 -0.009258 0.041176
v 0.011533 -0.009259 0.041176
v 0.011879 -0.007777 0.041915
v 0.011481 -0.008305 0.041912
v 0.011481 -0.008300 0.041915
v 0.011309 -0.008512 0.041915
v -0.010740 -0.007132 0.041915
v -0.010740 -0.007777 0.041571
v -0.011206 -0.007777 0.041176
v -0.011206 -0.007777 0.041176
v 0.012040 -0.008518 0.041176
v 0.012040 -0.008518 0.041176
v 0.012220 -0.007284 0.041912
v 0.011890 -0.007762 0.041915
v -0.010797 -0.007036 0.041915
v -0.011479 -0.007313 0.041176
v -0.011479 -0.007313 0.041176
v 0.012220 -0.008226 0.041176
v 0.012220 -0.008226 0.041176
v 0.012384 -0.007036 0.041912
v 0.012220 -0.007279 0.041915
v 0.012381 -0.007036 0.041915
v -0.011195 -0.006296 0.041915
v -0.011637 -0.007036 0.041176
v -0.011637 -0.007034 0.041176
v 0.012487 -0.007777 0.041176
v 0.012487 -0.007777 0.041176
v 0.012820 -0.006295 0.041915
v -0.011482 -0.005677 0.041915
v -0.012008 -0.006296 0.041176
v -0.012008 -0.006296 0.041176
v 0.012874 -0.007036 0.041176
v 0.012874 -0.007036 0.041176
v 0.012962 -0.006029 0.041912
v 0.012962 -0.006022 0.041915
v -0.011536 -0.005557 0.041915
v -0.012221 -0.005806 0.041176
v 0.012962 -0.006852 0.041176
v 0.012962 -0.006852 0.041176
v 0.013202 -0.005557 0.041912
v 0.013196 -0.005557 0.041915
v -0.012114 -0.004075 0.041915
v -0.012327 -0.005555 0.041176
v 0.013213 -0.006296 0.041176
v 0.013213 -0.006296 0.041176
v 0.013529 -0.004816 0.041912
v 0.013526 -0.004816 0.041915
v -0.012221 -0.003784 0.041915
v -0.012381 -0.003337 0.041915
v -0.012591 -0.004816 0.041176
v -0.012591 -0.004814 0.041176
v 0.013502 -0.005555 0.041176
v 0.013502 -0.005557 0.041176
v 0.013703 -0.004359 0.041912
v 0.013534 -0.004794 0.041915
v -0.012597 -0.002597 0.041915
v -0.012812 -0.004075 0.041176
v 0.013703 -0.004951 0.041176
v 0.013703 -0.004951 0.041176
v 0.013807 -0.004075 0.041912
v 0.013703 -0.004352 0.041915
v 0.013804 -0.004075 0.041915
v -0.012769 -0.001853 0.041915
v -0.012962 -0.003434 0.041176
v 0.013747 -0.004814 0.041176
v 0.013747 -0.004816 0.041176
v 0.014041 -0.003334 0.041912
v 0.014033 -0.003355 0.041915
v -0.012891 -0.001123 0.041915
v -0.013115 -0.002594 0.041176
v -0.012984 -0.003334 0.041176
v -0.012984 -0.003334 0.041176
v 0.013946 -0.004075 0.041176
v 0.013946 -0.004075 0.041176
v 0.014232 -0.002594 0.041912
v 0.014230 -0.002600 0.041915
v -0.012973 -0.000374 0.041915
v -0.013202 -0.001853 0.041176
v -0.013115 -0.002592 0.041176
v 0.014107 -0.003334 0.041176
v 0.014107 -0.003334 0.041176
v 0.014382 -0.001853 0.041912
v 0.014380 -0.001856 0.041915
v -0.013011 0.000367 0.041915
v -0.013248 -0.001112 0.041176
v -0.013248 -0.001112 0.041176
v -0.013202 -0.001851 0.041176
v 0.014227 -0.002592 0.041176
v 0.014227 -0.002594 0.041176
v 0.014494 -0.001112 0.041912
v 0.014388 -0.001810 0.041915
v -0.013011 0.000370 0.041915
v -0.013254 -0.000371 0.041176
v 0.014309 -0.001851 0.041176
v 0.014309 -0.001853 0.041176
v 0.014565 -0.000371 0.041912
v 0.014559 -0.000413 0.041915
v 0.014491 -0.001112 0.041915
v -0.013006 0.001113 0.041915
v -0.013216 0.000370 0.041176
v -0.013216 0.000370 0.041176
v 0.014350 -0.001112 0.041176
v 0.014600 0.000370 0.041912
v 0.014562 -0.000371 0.041915
v -0.012998 0.001251 0.041915
v -0.013137 0.001111 0.041176
v 0.014355 -0.000371 0.041176
v 0.014595 0.001110 0.041912
v 0.014592 0.001110 0.041915
v 0.014595 0.000370 0.041915
v 0.014595 0.000352 0.041915
v -0.013112 0.001251 0.041176
v 0.014584 0.001251 0.041915
v -0.013085 0.001251 0.041176
v 0.014320 0.000370 0.041176
v 0.014587 0.001251 0.041912
v 0.013799 0.001251 0.041176
v 0.014246 0.001111 0.041176
v 0.014284 0.001251 0.041279
v 0.014227 0.001251 0.041176
f 1 2 7
f 1 7 3
f 1 3 8
f 1 8 16
f 1 16 24
f 1 24 32
f 1 32 39
f 1 39 46
f 1 46 53
f 1 53 61
f 1 61 68
f 1 68 76
f 1 76 82
f 1 82 89
f 1 89 90
f 1 90 97
f 1 97 105
f 1 105 113
f 1 113 119
f 1 119 128
f 1 128 135
f 1 135 144
f 1 144 152
f 1 152 160
f 1 160 170
f 1 170 177
f 1 177 185
f 1 185 191
f 1 191 197
f 1 197 203
f 1 203 211
f 1 211 217
f 1 217 224
f 1 224 232
f 1 232 239
f 1 239 247
f 1 247 246
f 1 246 253
f 1 253 261
f 1 261 266
f 1 266 274
f 1 274 277
f 1 277 278
f 1 278 275
f 1 275 267
f 1 267 262
f 1 262 254
f 1 254 248
f 1 248 240
f 1 240 233
f 1 233 225
f 1 225 218
f 1 218 212
f 1 212 204
f 1 204 198
f 1 198 192
f 1 192 186
f 1 186 178
f 1 178 171
f 1 171 161
f 1 161 153
f 1 153 145
f 1 145 136
f 1 136 129
f 1 129 120
f 1 120 114
f 1 114 106
f 1 106 98
f 1 98 91
f 1 91 83
f 1 83 77
f 1 77 69
f 1 69 62
f 1 62 54
f 1 54 47
f 1 47 40
f 1 40 33
f 1 33 25
f 1 25 17
f 1 17 9
f 1 9 4
f 1 4 5
f 1 5 2
f 2 5 6
f 2 6 7
f 3 7 15
f 3 15 8
f 4 9 10
f 4 10 5
f 5 10 11
f 5 11 6
f 6 11 19
f 6 19 12
f 6 12 13
f 6 13 14
f 6 14 7
f 7 14 15
f 8 15 16
f 9 17 10
f 10 18 11
f 10 17 18
f 11 18 19
f 12 19 18
f 12 18 27
f 12 27 36
f 12 36 43
f 12 43 50
f 12 50 57
f 12 57 65
f 12 65 72
f 12 72 79
f 12 79 86
f 12 86 94
f 12 94 101
f 12 101 109
f 12 109 116
f 12 116 124
f 12 124 133
f 12 133 140
f 12 140 149
f 12 149 157
f 12 157 166
f 12 166 165
f 12 165 163
f 12 163 174
f 12 174 181
f 12 181 182
f 12 182 188
f 12 188 195
f 12 195 201
f 12 201 207
f 12 207 215
f 12 215 221
f 12 221 222
f 12 222 228
f 12 228 236
f 12 236 243
f 12 243 251
f 12 251 258
f 12 258 257
f 12 257 264
f 12 264 271
f 12 271 270
f 12 270 269
f 12 269 273
f 12 273 265
f 12 265 259
f 12 259 252
f 12 252 244
f 12 244 237
f 12 237 229
f 12 229 223
f 12 223 216
f 12 216 209
f 12 209 208
f 12 208 202
f 12 202 196
f 12 196 189
f 12 189 183
f 12 183 175
f 12 175 167
f 12 167 158
f 12 158 150
f 12 150 141
f 12 141 134
f 12 134 125
f 12 125 117
f 12 117 110
f 12 110 102
f 12 102 95
f 12 95 87
f 12 87 80
f 12 80 73
f 12 73 66
f 12 66 58
f 12 58 51
f 12 51 44
f 12 44 38
f 12 38 37
f 12 37 29
f 12 29 22
f 12 22 28
f 12 28 20
f 12 20 14
f 12 14 13
f 14 20 15
f 15 20 16
f 16 20 21
f 16 21 22
f 16 22 23
f 16 23 24
f 17 25 26
f 17 26 27
f 17 27 18
f 20 28 21
f 21 28 22
f 22 29 30
f 22 30 23
f 23 30 31
f 23 31 32
f 23 32 24
f 25 33 34
f 25 34 26
f 26 34 35
f 26 35 27
f 27 35 36
f 29 37 30
f 30 37 31
f 31 37 38
f 31 38 39
f 31 39 32
f 33 40 42
f 33 42 34
f 34 41 35
f 34 42 41
f 35 41 43
f 35 43 36
f 38 44 45
f 38 45 46
f 38 46 39
f 40 47 48
f 40 48 42
f 41 42 48
f 41 48 49
f 41 49 50
f 41 50 43
f 44 51 52
f 44 52 53
f 44 53 45
f 45 53 46
f 47 54 55
f 47 55 48
f 48 55 56
f 48 56 49
f 49 56 50
f 50 56 57
f 51 58 59
f 51 59 60
f 51 60 52
f 52 60 53
f 53 60 61
f 54 62 64
f 54 64 55
f 55 63 57
f 55 57 56
f 55 64 63
f 57 63 65
f 58 66 59
f 59 66 67
f 59 67 76
f 59 76 68
f 59 68 61
f 59 61 60
f 62 69 71
f 62 71 64
f 63 64 65
f 64 70 65
f 64 71 70
f 65 70 72
f 66 73 74
f 66 74 67
f 67 74 75
f 67 75 82
f 67 82 76
f 69 77 78
f 69 78 71
f 70 71 72
f 71 78 72
f 72 78 79
f 73 80 81
f 73 81 75
f 73 75 74
f 75 81 89
f 75 89 82
f 77 83 78
f 78 83 84
f 78 84 85
f 78 85 79
f 79 85 86
f 80 87 88
f 80 88 81
f 81 88 90
f 81 90 89
f 83 91 93
f 83 93 84
f 84 92 86
f 84 86 85
f 84 93 92
f 86 92 94
f 87 95 96
f 87 96 90
f 87 90 88
f 90 96 97
f 91 98 99
f 91 99 93
f 92 93 94
f 93 99 94
f 94 99 100
f 94 100 101
f 95 102 103
f 95 103 97
f 95 97 96
f 97 103 104
f 97 104 105
f 98 106 108
f 98 108 99
f 99 107 100
f 99 108 107
f 100 107 109
f 100 109 101
f 102 110 111
f 102 111 104
f 102 104 103
f 104 111 112
f 104 112 113
f 104 113 105
f 106 114 115
f 106 115 108
f 107 108 115
f 107 115 109
f 109 115 116
f 110 117 112
f 110 112 111
f 112 118 119
f 112 119 113
f 112 117 118
f 114 120 121
f 114 121 115
f 115 121 122
f 115 122 116
f 116 122 123
f 116 123 124
f 117 125 126
f 117 126 118
f 118 126 127
f 118 127 128
f 118 128 119
f 120 129 130
f 120 130 121
f 121 130 131
f 121 131 123
f 121 123 122
f 123 131 132
f 123 132 124
f 124 132 133
f 125 134 127
f 125 127 126
f 127 135 128
f 127 134 135
f 129 136 137
f 129 137 130
f 130 137 138
f 130 138 132
f 130 132 131
f 132 138 139
f 132 139 140
f 132 140 133
f 134 141 142
f 134 142 135
f 135 142 143
f 135 143 144
f 136 145 137
f 137 146 139
f 137 139 138
f 137 145 147
f 137 147 146
f 139 146 148
f 139 148 140
f 140 148 149
f 141 150 151
f 141 151 143
f 141 143 142
f 143 151 152
f 143 152 144
f 145 153 154
f 145 154 147
f 146 147 155
f 146 155 148
f 147 154 156
f 147 156 155
f 148 155 157
f 148 157 149
f 150 158 151
f 151 159 160
f 151 160 152
f 151 158 159
f 153 161 154
f 154 161 162
f 154 162 163
f 154 163 164
f 154 164 156
f 155 156 157
f 156 164 165
f 156 165 166
f 156 166 157
f 158 167 168
f 158 168 159
f 159 168 169
f 159 169 170
f 159 170 160
f 161 171 162
f 162 171 172
f 162 172 173
f 162 173 174
f 162 174 163
f 163 165 164
f 167 175 169
f 167 169 168
f 169 175 176
f 169 176 177
f 169 177 170
f 171 178 179
f 171 179 172
f 172 179 180
f 172 180 173
f 173 181 174
f 173 180 182
f 173 182 181
f 175 183 184
f 175 184 176
f 176 184 177
f 177 184 185
f 178 186 187
f 178 187 179
f 179 187 180
f 180 187 188
f 180 188 182
f 183 189 190
f 183 190 184
f 184 190 191
f 184 191 185
f 186 192 193
f 186 193 187
f 187 193 194
f 187 194 188
f 188 194 195
f 189 196 190
f 190 196 197
f 190 197 191
f 192 198 199
f 192 199 193
f 193 199 200
f 193 200 194
f 194 200 195
f 195 200 201
f 196 202 203
f 196 203 197
f 198 204 205
f 198 205 199
f 199 205 200
f 200 205 206
f 200 206 207
f 200 207 201
f 202 208 203
f 203 209 210
f 203 210 211
f 203 208 209
f 204 212 213
f 204 213 205
f 205 213 206
f 206 213 214
f 206 214 215
f 206 215 207
f 209 216 217
f 209 217 210
f 210 217 211
f 212 218 213
f 213 218 219
f 213 219 220
f 213 220 214
f 214 221 215
f 214 220 222
f 214 222 221
f 216 223 224
f 216 224 217
f 218 225 226
f 218 226 219
f 219 226 220
f 220 226 227
f 220 227 228
f 220 228 222
f 223 229 230
f 223 230 231
f 223 231 224
f 224 231 232
f 225 233 226
f 226 233 234
f 226 234 227
f 227 234 235
f 227 235 236
f 227 236 228
f 229 237 238
f 229 238 230
f 230 238 247
f 230 247 239
f 230 239 232
f 230 232 231
f 233 240 241
f 233 241 234
f 234 241 235
f 235 241 242
f 235 242 236
f 236 242 243
f 237 244 245
f 237 245 238
f 238 245 246
f 238 246 247
f 240 248 249
f 240 249 242
f 240 242 241
f 242 250 251
f 242 251 243
f 242 249 250
f 244 252 253
f 244 253 245
f 245 253 246
f 248 254 255
f 248 255 249
f 249 255 250
f 250 256 257
f 250 257 258
f 250 258 251
f 250 255 256
f 252 259 253
f 253 260 261
f 253 259 260
f 254 262 256
f 254 256 255
f 256 263 264
f 256 264 257
f 256 262 263
f 259 265 260
f 260 266 261
f 260 265 266
f 262 267 263
f 263 268 269
f 263 269 270
f 263 270 271
f 263 271 264
f 263 267 268
f 265 272 266
f 265 273 276
f 265 276 279
f 265 279 280
f 265 280 277
f 265 277 274
f 265 274 272
f 266 272 274
f 267 275 268
f 268 276 273
f 268 273 269
f 268 275 276
f 275 278 279
f 275 279 276
f 277 280 278
f 278 280 279
