v 0.013330 0.000443 0.048527
v 0.013300 0.000443 0.048473
v 0.012883 0.001112 0.047793
v 0.012836 0.001842 0.047793
v 0.013259 0.001116 0.048527
v -0.014192 0.000443 0.048527
v 0.012885 0.000443 0.047794
v 0.012883 0.001102 0.047793
v 0.012745 0.002593 0.047793
v 0.013138 0.001853 0.048527
v -0.014127 0.001112 0.048527
v -0.014676 0.001853 0.047794
v -0.014717 0.001112 0.047794
v -0.014220 0.000443 0.048491
v 0.012828 0.000443 0.047793
v 0.012611 0.003334 0.047793
v 0.012973 0.002593 0.048527
v -0.014011 0.001855 0.048527
v -0.014599 0.002593 0.047794
v -0.014676 0.001853 0.047793
v -0.014717 0.001112 0.047793
v -0.014722 0.000443 0.047794
v -0.014706 0.000443 0.047793
v 0.012432 0.004074 0.047793
v 0.012962 0.002636 0.048527
v -0.013857 0.002593 0.048527
v -0.014442 0.002593 0.047949
v -0.014442 0.003253 0.047794
v -0.014442 0.003253 0.047793
v -0.014596 0.002593 0.047793
v 0.012762 0.003334 0.048527
v 0.012776 0.003288 0.048527
v 0.012207 0.004815 0.047793
v -0.013704 0.003185 0.048527
v -0.014423 0.003334 0.047794
v -0.014423 0.003334 0.047793
v 0.012504 0.004074 0.048527
v 0.011930 0.005557 0.047793
v -0.013704 0.003334 0.048488
v -0.013662 0.003334 0.048527
v -0.014195 0.004074 0.047794
v -0.014195 0.004074 0.047793
v 0.012221 0.004758 0.048527
v 0.011930 0.005557 0.047794
v 0.011606 0.006295 0.047793
v -0.013421 0.004078 0.048527
v -0.013704 0.004074 0.048262
v -0.013923 0.004815 0.047794
v -0.013923 0.004815 0.047793
v 0.012196 0.004815 0.048527
v 0.011831 0.005554 0.048527
v 0.011479 0.006540 0.047793
v -0.013133 0.004815 0.048527
v -0.013704 0.004815 0.048001
v -0.013704 0.005338 0.047794
v -0.013704 0.005336 0.047793
v 0.011828 0.005559 0.048527
v 0.011219 0.007038 0.047793
v -0.012965 0.005194 0.048527
v -0.013608 0.005557 0.047794
v -0.013605 0.005557 0.047793
v 0.011479 0.006170 0.048527
v 0.010774 0.007774 0.047793
v 0.011405 0.006297 0.048527
v -0.012962 0.005557 0.048378
v -0.012795 0.005559 0.048527
v -0.013240 0.006297 0.047794
v -0.013237 0.006297 0.047793
v 0.010906 0.007040 0.048527
v 0.010738 0.007827 0.047793
v -0.012962 0.006297 0.048039
v -0.012402 0.006297 0.048527
v -0.012962 0.006790 0.047794
v -0.012962 0.006788 0.047793
v 0.010252 0.008519 0.047793
v 0.010738 0.007263 0.048527
v -0.012224 0.006599 0.048527
v -0.012817 0.007038 0.047794
v -0.012817 0.007038 0.047793
v 0.009999 0.008845 0.047793
v 0.010332 0.007780 0.048527
v -0.012221 0.007038 0.048300
v -0.011949 0.007038 0.048527
v -0.012333 0.007777 0.047794
v -0.012333 0.007777 0.047793
v 0.009653 0.009259 0.047793
v 0.009653 0.009259 0.047794
v 0.009999 0.008160 0.048527
v -0.012221 0.007777 0.047887
v -0.011479 0.007710 0.048527
v -0.012221 0.007934 0.047794
v -0.012221 0.007934 0.047793
v 0.009258 0.009696 0.047793
v 0.009662 0.008520 0.048527
v -0.011479 0.007777 0.048487
v -0.011427 0.007781 0.048527
v -0.011782 0.008517 0.047794
v -0.011782 0.008517 0.047793
v 0.008959 0.010001 0.047793
v 0.009258 0.008915 0.048527
v -0.010831 0.008517 0.048527
v -0.011479 0.008517 0.048030
v -0.011479 0.008882 0.047794
v -0.011479 0.008882 0.047793
v 0.008517 0.010420 0.047793
v 0.008874 0.009261 0.048527
v -0.010741 0.008620 0.048527
v -0.011150 0.009259 0.047794
v -0.011150 0.009259 0.047793
v 0.008146 0.010742 0.047793
v 0.008517 0.009559 0.048527
v -0.010738 0.009259 0.048097
v -0.010137 0.009259 0.048527
v -0.010738 0.009691 0.047794
v -0.010738 0.009691 0.047793
v 0.007775 0.011041 0.047793
v 0.007775 0.011040 0.047794
v 0.007036 0.010740 0.048483
v 0.007036 0.010685 0.048527
v -0.009999 0.009394 0.048527
v -0.010425 0.010000 0.047794
v -0.010425 0.010000 0.047793
v 0.007179 0.011482 0.047793
v 0.007179 0.011481 0.047794
v 0.007036 0.011481 0.047877
v 0.006960 0.010740 0.048527
v -0.009329 0.010002 0.048527
v -0.009999 0.010000 0.048087
v -0.009999 0.010389 0.047794
v -0.009999 0.010389 0.047793
v 0.007036 0.011581 0.047793
v 0.006295 0.011189 0.048527
v -0.009582 0.010740 0.047794
v -0.009258 0.010060 0.048527
v -0.009258 0.010740 0.047999
v -0.009582 0.010740 0.047793
v 0.006295 0.012048 0.047793
v 0.006295 0.011481 0.048281
v 0.005804 0.011483 0.048527
v -0.009258 0.010998 0.047794
v -0.009236 0.010078 0.048527
v -0.008517 0.010637 0.048527
v -0.009258 0.010998 0.047793
v 0.005982 0.012223 0.047793
v 0.005554 0.011625 0.048527
v -0.008517 0.010740 0.048444
v -0.008588 0.011481 0.047794
v -0.008371 0.010740 0.048527
v -0.008588 0.011481 0.047793
v 0.005554 0.012452 0.047793
v 0.005554 0.012221 0.048000
v 0.004818 0.011996 0.048527
v -0.008517 0.011481 0.047835
v -0.008517 0.011530 0.047794
v -0.007797 0.011122 0.048527
v -0.008517 0.011530 0.047793
v 0.004812 0.012799 0.047793
v 0.004812 0.012221 0.048323
v 0.004285 0.012224 0.048527
v -0.007775 0.011136 0.048527
v -0.007775 0.011481 0.048235
v -0.007778 0.011993 0.047793
v 0.004409 0.012963 0.047793
v 0.004074 0.012312 0.048527
v -0.007196 0.011481 0.048527
v -0.007037 0.011571 0.048527
v -0.007366 0.012221 0.047793
v 0.004074 0.013095 0.047793
v 0.004074 0.012962 0.047918
v 0.003335 0.012574 0.048527
v -0.006295 0.011944 0.048527
v -0.007037 0.012221 0.047952
v -0.007037 0.012397 0.047794
v -0.007037 0.012397 0.047793
v 0.003332 0.013342 0.047793
v 0.003332 0.012962 0.048157
v 0.002596 0.012786 0.048527
v -0.006295 0.012221 0.048275
v -0.005650 0.012224 0.048527
v -0.006295 0.012748 0.047793
v 0.002591 0.013543 0.047793
v 0.002591 0.013543 0.047794
v 0.002591 0.012788 0.048527
v -0.005551 0.012265 0.048527
v -0.005768 0.012962 0.047794
v -0.005768 0.012962 0.047793
v 0.001838 0.013704 0.047793
v 0.001849 0.012955 0.048527
v -0.004812 0.012530 0.048527
v -0.005554 0.012962 0.047874
v -0.005554 0.013046 0.047794
v -0.005556 0.013046 0.047793
v 0.001830 0.013705 0.047793
v 0.001111 0.013078 0.048527
v -0.004812 0.012962 0.048116
v -0.004804 0.012533 0.048527
v -0.004815 0.013300 0.047793
v 0.001111 0.013817 0.047793
v 0.001111 0.013704 0.047906
v 0.000372 0.013157 0.048527
v -0.004074 0.012751 0.048527
v -0.004074 0.013508 0.047793
v 0.000369 0.013704 0.047982
v 0.000369 0.013892 0.047793
v -0.000369 0.013194 0.048527
v -0.003332 0.012925 0.048527
v -0.003332 0.013673 0.047793
v -0.000372 0.013928 0.047793
v -0.000372 0.013704 0.048018
v -0.000372 0.013194 0.048527
v -0.003110 0.012964 0.048527
v -0.002588 0.013057 0.048527
v -0.003145 0.013704 0.047794
v -0.003151 0.013704 0.047793
v -0.001111 0.013923 0.047793
v -0.001111 0.013923 0.047794
v -0.001111 0.013704 0.048013
v -0.001111 0.013190 0.048527
v -0.001849 0.013144 0.048527
v -0.002591 0.013704 0.047886
v -0.002591 0.013796 0.047793
v -0.001849 0.013879 0.047793
v -0.001849 0.013704 0.047969
f 1 2 3
f 1 3 4
f 1 4 5
f 1 5 10
f 1 10 17
f 1 17 25
f 1 25 32
f 1 32 31
f 1 31 37
f 1 37 43
f 1 43 50
f 1 50 51
f 1 51 57
f 1 57 62
f 1 62 64
f 1 64 69
f 1 69 76
f 1 76 81
f 1 81 88
f 1 88 94
f 1 94 100
f 1 100 106
f 1 106 111
f 1 111 119
f 1 119 126
f 1 126 132
f 1 132 139
f 1 139 145
f 1 145 152
f 1 152 159
f 1 159 164
f 1 164 170
f 1 170 177
f 1 177 183
f 1 183 188
f 1 188 194
f 1 194 200
f 1 200 205
f 1 205 210
f 1 210 218
f 1 218 219
f 1 219 212
f 1 212 211
f 1 211 206
f 1 206 201
f 1 201 196
f 1 196 189
f 1 189 184
f 1 184 179
f 1 179 171
f 1 171 166
f 1 166 165
f 1 165 160
f 1 160 155
f 1 155 148
f 1 148 142
f 1 142 141
f 1 141 134
f 1 134 127
f 1 127 120
f 1 120 113
f 1 113 107
f 1 107 101
f 1 101 96
f 1 96 90
f 1 90 83
f 1 83 77
f 1 77 72
f 1 72 66
f 1 66 59
f 1 59 53
f 1 53 46
f 1 46 40
f 1 40 34
f 1 34 26
f 1 26 18
f 1 18 11
f 1 11 6
f 1 6 14
f 1 14 22
f 1 22 23
f 1 23 15
f 1 15 7
f 1 7 2
f 2 7 3
f 3 7 8
f 3 8 15
f 3 15 23
f 3 23 21
f 3 21 20
f 3 20 30
f 3 30 29
f 3 29 36
f 3 36 42
f 3 42 49
f 3 49 56
f 3 56 61
f 3 61 68
f 3 68 74
f 3 74 79
f 3 79 85
f 3 85 92
f 3 92 98
f 3 98 104
f 3 104 109
f 3 109 115
f 3 115 122
f 3 122 130
f 3 130 136
f 3 136 143
f 3 143 149
f 3 149 156
f 3 156 162
f 3 162 167
f 3 167 174
f 3 174 180
f 3 180 186
f 3 186 192
f 3 192 197
f 3 197 202
f 3 202 207
f 3 207 214
f 3 214 221
f 3 221 222
f 3 222 215
f 3 215 208
f 3 208 204
f 3 204 198
f 3 198 193
f 3 193 187
f 3 187 181
f 3 181 175
f 3 175 168
f 3 168 163
f 3 163 157
f 3 157 150
f 3 150 144
f 3 144 137
f 3 137 131
f 3 131 123
f 3 123 116
f 3 116 110
f 3 110 105
f 3 105 99
f 3 99 93
f 3 93 86
f 3 86 80
f 3 80 75
f 3 75 70
f 3 70 63
f 3 63 58
f 3 58 52
f 3 52 45
f 3 45 38
f 3 38 33
f 3 33 24
f 3 24 16
f 3 16 9
f 3 9 4
f 4 9 5
f 5 9 10
f 6 11 12
f 6 12 13
f 6 13 14
f 7 15 8
f 9 16 10
f 10 16 17
f 11 18 19
f 11 19 12
f 12 19 20
f 12 20 21
f 12 21 13
f 13 21 22
f 13 22 14
f 16 24 17
f 17 24 25
f 18 26 27
f 18 27 19
f 19 27 28
f 19 28 29
f 19 29 30
f 19 30 20
f 21 23 22
f 24 31 32
f 24 32 25
f 24 33 31
f 26 34 35
f 26 35 28
f 26 28 27
f 28 35 36
f 28 36 29
f 31 33 37
f 33 38 37
f 34 39 35
f 34 40 39
f 35 41 42
f 35 42 36
f 35 39 41
f 37 38 44
f 37 44 43
f 38 45 44
f 39 40 46
f 39 46 47
f 39 47 41
f 41 47 48
f 41 48 49
f 41 49 42
f 43 44 50
f 44 45 50
f 45 51 50
f 45 52 51
f 46 53 54
f 46 54 48
f 46 48 47
f 48 54 55
f 48 55 49
f 49 55 56
f 51 52 57
f 52 58 57
f 53 59 60
f 53 60 55
f 53 55 54
f 55 60 56
f 56 60 61
f 57 58 62
f 58 63 64
f 58 64 62
f 59 65 60
f 59 66 65
f 60 65 67
f 60 67 68
f 60 68 61
f 63 69 64
f 63 70 69
f 65 66 67
f 66 71 67
f 66 72 71
f 67 73 74
f 67 74 68
f 67 71 73
f 69 70 75
f 69 75 76
f 71 72 73
f 72 77 78
f 72 78 73
f 73 78 79
f 73 79 74
f 75 80 76
f 76 80 81
f 77 82 78
f 77 83 82
f 78 82 84
f 78 84 85
f 78 85 79
f 80 86 87
f 80 87 81
f 81 87 88
f 82 83 84
f 83 89 84
f 83 90 89
f 84 89 91
f 84 91 92
f 84 92 85
f 86 93 87
f 87 93 88
f 88 93 94
f 89 90 95
f 89 95 91
f 90 96 95
f 91 97 98
f 91 98 92
f 91 95 96
f 91 96 97
f 93 99 94
f 94 99 100
f 96 101 102
f 96 102 97
f 97 102 103
f 97 103 104
f 97 104 98
f 99 105 100
f 100 105 106
f 101 107 108
f 101 108 103
f 101 103 102
f 103 108 109
f 103 109 104
f 105 110 106
f 106 110 111
f 107 112 108
f 107 113 112
f 108 112 114
f 108 114 115
f 108 115 109
f 110 116 111
f 111 116 117
f 111 117 118
f 111 118 119
f 112 113 114
f 113 120 121
f 113 121 114
f 114 121 122
f 114 122 115
f 116 123 124
f 116 124 117
f 117 124 118
f 118 124 123
f 118 123 125
f 118 125 126
f 118 126 119
f 120 127 128
f 120 128 121
f 121 128 129
f 121 129 130
f 121 130 122
f 123 131 125
f 125 131 132
f 125 132 126
f 127 133 129
f 127 129 128
f 127 134 135
f 127 135 133
f 129 133 136
f 129 136 130
f 131 137 138
f 131 138 132
f 132 138 139
f 133 135 140
f 133 140 143
f 133 143 136
f 134 141 135
f 135 141 142
f 135 142 140
f 137 144 145
f 137 145 139
f 137 139 138
f 140 142 146
f 140 146 147
f 140 147 149
f 140 149 143
f 142 148 146
f 144 150 151
f 144 151 145
f 145 151 152
f 146 148 153
f 146 153 147
f 147 153 154
f 147 154 156
f 147 156 149
f 148 155 153
f 150 157 158
f 150 158 152
f 150 152 151
f 152 158 159
f 153 155 160
f 153 160 154
f 154 160 161
f 154 161 162
f 154 162 156
f 157 163 164
f 157 164 159
f 157 159 158
f 160 165 161
f 161 165 162
f 162 165 166
f 162 166 167
f 163 168 169
f 163 169 164
f 164 169 170
f 166 171 172
f 166 172 167
f 167 172 173
f 167 173 174
f 168 175 176
f 168 176 170
f 168 170 169
f 170 176 177
f 171 178 173
f 171 173 172
f 171 179 178
f 173 178 180
f 173 180 174
f 175 177 176
f 175 181 182
f 175 182 177
f 177 182 183
f 178 179 180
f 179 184 180
f 180 184 185
f 180 185 186
f 181 187 182
f 182 187 188
f 182 188 183
f 184 189 190
f 184 190 185
f 185 190 191
f 185 191 192
f 185 192 186
f 187 193 194
f 187 194 188
f 189 195 191
f 189 191 190
f 189 196 195
f 191 195 197
f 191 197 192
f 193 198 199
f 193 199 194
f 194 199 200
f 195 196 201
f 195 201 197
f 197 201 202
f 198 203 200
f 198 200 199
f 198 204 203
f 200 203 205
f 201 206 202
f 202 206 207
f 203 204 205
f 204 208 209
f 204 209 205
f 205 209 210
f 206 211 207
f 207 211 212
f 207 212 213
f 207 213 214
f 208 215 216
f 208 216 209
f 209 216 217
f 209 217 218
f 209 218 210
f 212 219 220
f 212 220 213
f 213 220 221
f 213 221 214
f 215 222 216
f 216 222 223
f 216 223 217
f 217 223 218
f 218 223 219
f 219 223 220
f 220 223 221
f 221 223 222
