v 0.002207 0.013223 0.028676
v 0.002593 0.013177 0.028676
v 0.002207 0.013063 0.028469
v 0.002207 -0.014208 0.028676
v 0.003334 0.013047 0.028676
v 0.002207 0.012620 0.027941
v 0.002207 -0.014375 0.027941
v 0.002593 -0.014164 0.028676
v 0.004074 0.012874 0.028676
v 0.002593 0.012534 0.027940
v 0.002207 0.012609 0.027940
v 0.002593 -0.014294 0.027940
v 0.002593 -0.014297 0.027941
v 0.003334 -0.014045 0.028676
v 0.002207 -0.013767 0.027940
v 0.004815 0.012655 0.028676
v 0.004074 0.012115 0.027940
v 0.003334 -0.014105 0.027940
v 0.003334 -0.014105 0.027941
v 0.004074 -0.013883 0.028676
v 0.005556 0.012391 0.028676
v 0.004815 0.011883 0.027940
v 0.004074 -0.013873 0.027940
v 0.004815 -0.013683 0.028676
v 0.005960 0.012220 0.028676
v 0.005556 0.012220 0.028518
v 0.005556 0.011599 0.027940
v 0.004532 -0.013702 0.027940
v 0.004533 -0.013702 0.027941
v 0.005556 -0.013438 0.028676
v 0.006297 0.012075 0.028676
v 0.005823 0.011480 0.027940
v 0.004815 -0.013594 0.027940
v 0.006297 -0.013146 0.028676
v 0.007038 0.011705 0.028676
v 0.006297 0.011480 0.028137
v 0.006297 0.011261 0.027940
v 0.005556 -0.013267 0.027940
v 0.006706 -0.012962 0.028676
v 0.007436 0.011480 0.028676
v 0.007038 0.011480 0.028477
v 0.007038 0.010867 0.027940
v 0.006161 -0.012959 0.027940
v 0.006162 -0.012962 0.027941
v 0.007038 -0.012808 0.028676
v 0.007778 0.011278 0.028676
v 0.007248 0.010740 0.027940
v 0.006297 -0.012889 0.027940
v 0.006297 -0.012892 0.027941
v 0.007778 -0.012416 0.028676
v 0.008518 0.010786 0.028676
v 0.007778 0.010740 0.028221
v 0.007778 0.010402 0.027940
v 0.006302 -0.012887 0.027940
v 0.007038 -0.012457 0.027941
v 0.008108 -0.012222 0.028676
v 0.008580 0.010740 0.028676
v 0.008518 0.010740 0.028639
v 0.008346 0.010000 0.027940
v 0.007038 -0.012454 0.027940
v 0.007395 -0.012222 0.027941
v 0.008518 -0.011968 0.028676
v 0.009259 0.010216 0.028676
v 0.008518 0.010000 0.028044
v 0.008518 0.009868 0.027940
v 0.007395 -0.012219 0.027940
v 0.007777 -0.011957 0.027940
v 0.009259 -0.011457 0.028676
v 0.009259 0.010000 0.028508
v 0.009513 0.010000 0.028676
v 0.009259 0.009249 0.027940
v 0.008403 -0.011479 0.027940
v 0.010000 -0.010874 0.028676
v 0.010000 0.009560 0.028676
v 0.010000 0.008522 0.027940
v 0.010000 0.009257 0.028457
v 0.008517 -0.011387 0.027940
v 0.010155 -0.010739 0.028676
v 0.010306 0.009257 0.028676
v 0.010740 0.008798 0.028676
v 0.010740 0.008517 0.028487
v 0.010004 0.008517 0.027940
v 0.009253 -0.010739 0.027940
v 0.009259 -0.010736 0.027941
v 0.010738 -0.010207 0.028676
v 0.010988 0.008517 0.028676
v 0.010650 0.007777 0.027940
v 0.009979 -0.009999 0.027940
v 0.010740 -0.009999 0.028522
v 0.010940 -0.009999 0.028676
v 0.011481 0.007906 0.028676
v 0.010740 0.007777 0.028010
v 0.010739 0.007663 0.027940
v 0.009998 -0.009977 0.027940
v 0.010608 -0.009259 0.027940
v 0.011480 -0.009331 0.028676
v 0.010740 -0.009259 0.028042
v 0.011580 0.007777 0.028676
v 0.011481 0.007777 0.028596
v 0.011208 0.007036 0.027940
v 0.010739 -0.009088 0.027940
v 0.011533 -0.009259 0.028676
v 0.011481 -0.009259 0.028633
v 0.012092 0.007039 0.028676
v 0.011481 0.007036 0.028164
v 0.011481 0.006626 0.027940
v 0.011158 -0.008516 0.027940
v 0.011158 -0.008518 0.027941
v 0.012041 -0.008516 0.028676
v 0.011481 -0.008518 0.028207
v 0.012222 0.006831 0.028676
v 0.011690 0.006296 0.027940
v 0.011480 -0.008027 0.027940
v 0.011637 -0.007775 0.027940
v 0.012222 -0.008224 0.028676
v 0.012541 0.006296 0.028676
v 0.012222 0.006296 0.028397
v 0.012107 0.005553 0.027940
v 0.012222 -0.007775 0.028445
v 0.012052 -0.007035 0.027940
v 0.012487 -0.007775 0.028676
v 0.012929 0.005556 0.028676
v 0.012222 0.005553 0.028042
v 0.012222 0.005321 0.027940
v 0.012221 -0.006695 0.027940
v 0.012222 -0.007035 0.028090
v 0.012876 -0.007035 0.028676
v 0.012963 0.005486 0.028676
v 0.012463 0.004813 0.027940
v 0.012412 -0.006292 0.027940
v 0.012963 -0.006852 0.028676
v 0.013264 0.004813 0.028676
v 0.012963 0.004813 0.028397
v 0.012767 0.004073 0.027940
v 0.012963 -0.006295 0.028445
v 0.012718 -0.005555 0.027940
v 0.013214 -0.006295 0.028676
v 0.013550 0.004070 0.028676
v 0.012963 0.004073 0.028123
v 0.012963 0.003503 0.027940
v 0.012963 -0.004858 0.027940
v 0.012963 -0.005555 0.028168
v 0.013503 -0.005555 0.028676
v 0.013704 0.003598 0.028676
v 0.013020 0.003333 0.027940
v 0.012977 -0.004815 0.027940
v 0.013704 -0.004815 0.028634
v 0.013702 -0.004950 0.028676
v 0.013788 0.003333 0.028676
v 0.013704 0.003333 0.028595
v 0.013222 0.002606 0.027940
v 0.013190 -0.004069 0.027940
v 0.013191 -0.004072 0.027941
v 0.013748 -0.004812 0.028676
v 0.013704 -0.004072 0.028438
v 0.013982 0.002593 0.028676
v 0.013704 0.002590 0.028404
v 0.013226 0.002590 0.027940
v 0.013359 -0.003329 0.027940
v 0.013360 -0.003332 0.027941
v 0.013947 -0.004072 0.028676
v 0.014135 0.001852 0.028676
v 0.013704 0.001850 0.028251
v 0.013387 0.001850 0.027940
v 0.013485 -0.002589 0.027940
v 0.013704 -0.003332 0.028278
v 0.013486 -0.002591 0.027941
v 0.014108 -0.003332 0.028676
v 0.014247 0.001110 0.028676
v 0.013704 0.001110 0.028136
v 0.013507 0.001110 0.027941
v 0.013505 0.001112 0.027940
v 0.013570 -0.001849 0.027940
v 0.013704 -0.002591 0.028156
v 0.013572 -0.001851 0.027941
v 0.014228 -0.002591 0.028676
v 0.014321 0.000369 0.028676
v 0.013704 0.000369 0.028060
v 0.013585 0.000369 0.027941
v 0.013582 0.000372 0.027940
v 0.013614 -0.001108 0.027940
v 0.013616 -0.001111 0.027941
v 0.013704 -0.001111 0.028028
v 0.013704 -0.001851 0.028073
v 0.014309 -0.001851 0.028676
v 0.014355 -0.000371 0.028676
v 0.013704 -0.000371 0.028024
v 0.013619 -0.000371 0.027940
v 0.014350 -0.001108 0.028676
f 1 2 3
f 1 3 6
f 1 6 11
f 1 11 15
f 1 15 7
f 1 7 4
f 1 4 8
f 1 8 14
f 1 14 20
f 1 20 24
f 1 24 30
f 1 30 34
f 1 34 39
f 1 39 45
f 1 45 50
f 1 50 56
f 1 56 62
f 1 62 68
f 1 68 73
f 1 73 78
f 1 78 85
f 1 85 90
f 1 90 96
f 1 96 102
f 1 102 109
f 1 109 115
f 1 115 121
f 1 121 127
f 1 127 131
f 1 131 137
f 1 137 143
f 1 143 148
f 1 148 154
f 1 154 161
f 1 161 168
f 1 168 176
f 1 176 185
f 1 185 189
f 1 189 186
f 1 186 177
f 1 177 169
f 1 169 162
f 1 162 156
f 1 156 149
f 1 149 144
f 1 144 138
f 1 138 132
f 1 132 128
f 1 128 122
f 1 122 116
f 1 116 111
f 1 111 104
f 1 104 98
f 1 98 91
f 1 91 86
f 1 86 80
f 1 80 79
f 1 79 74
f 1 74 70
f 1 70 63
f 1 63 57
f 1 57 51
f 1 51 46
f 1 46 40
f 1 40 35
f 1 35 31
f 1 31 25
f 1 25 21
f 1 21 16
f 1 16 9
f 1 9 5
f 1 5 2
f 2 5 6
f 2 6 3
f 4 7 8
f 5 9 10
f 5 10 6
f 6 10 11
f 7 12 13
f 7 13 14
f 7 14 8
f 7 15 12
f 9 16 17
f 9 17 10
f 10 17 22
f 10 22 27
f 10 27 32
f 10 32 37
f 10 37 42
f 10 42 47
f 10 47 53
f 10 53 59
f 10 59 65
f 10 65 71
f 10 71 75
f 10 75 82
f 10 82 87
f 10 87 93
f 10 93 100
f 10 100 106
f 10 106 112
f 10 112 118
f 10 118 124
f 10 124 129
f 10 129 134
f 10 134 140
f 10 140 145
f 10 145 151
f 10 151 158
f 10 158 164
f 10 164 172
f 10 172 180
f 10 180 188
f 10 188 181
f 10 181 173
f 10 173 165
f 10 165 159
f 10 159 152
f 10 152 146
f 10 146 141
f 10 141 136
f 10 136 130
f 10 130 125
f 10 125 120
f 10 120 114
f 10 114 113
f 10 113 107
f 10 107 101
f 10 101 95
f 10 95 94
f 10 94 88
f 10 88 83
f 10 83 77
f 10 77 72
f 10 72 67
f 10 67 66
f 10 66 60
f 10 60 54
f 10 54 48
f 10 48 43
f 10 43 38
f 10 38 33
f 10 33 28
f 10 28 23
f 10 23 18
f 10 18 12
f 10 12 15
f 10 15 11
f 12 18 13
f 13 19 20
f 13 20 14
f 13 18 19
f 16 21 22
f 16 22 17
f 18 23 24
f 18 24 19
f 19 24 20
f 21 25 26
f 21 26 22
f 22 26 27
f 23 28 29
f 23 29 30
f 23 30 24
f 25 31 27
f 25 27 26
f 27 31 32
f 28 33 29
f 29 33 30
f 30 33 34
f 31 35 36
f 31 36 32
f 32 36 37
f 33 38 34
f 34 38 39
f 35 40 41
f 35 41 37
f 35 37 36
f 37 41 42
f 38 43 44
f 38 44 45
f 38 45 39
f 40 46 42
f 40 42 41
f 42 46 47
f 43 48 44
f 44 48 49
f 44 49 45
f 45 49 50
f 46 51 52
f 46 52 47
f 47 52 53
f 48 54 49
f 49 54 55
f 49 55 50
f 50 55 56
f 51 57 58
f 51 58 59
f 51 59 53
f 51 53 52
f 54 60 55
f 55 60 66
f 55 66 61
f 55 61 62
f 55 62 56
f 57 63 64
f 57 64 59
f 57 59 58
f 59 64 65
f 61 66 67
f 61 67 68
f 61 68 62
f 63 69 65
f 63 65 64
f 63 70 69
f 65 69 71
f 67 72 68
f 68 72 73
f 69 70 71
f 70 74 71
f 71 74 76
f 71 76 75
f 72 77 73
f 73 77 78
f 74 79 76
f 75 76 79
f 75 79 80
f 75 80 81
f 75 81 82
f 77 83 84
f 77 84 78
f 78 84 85
f 80 86 81
f 81 86 87
f 81 87 82
f 83 88 84
f 84 88 85
f 85 88 89
f 85 89 90
f 86 91 92
f 86 92 87
f 87 92 93
f 88 94 89
f 89 94 95
f 89 95 90
f 90 95 97
f 90 97 96
f 91 98 99
f 91 99 92
f 92 99 93
f 93 99 100
f 95 101 97
f 96 97 103
f 96 103 102
f 97 101 103
f 98 104 105
f 98 105 100
f 98 100 99
f 100 105 106
f 101 107 108
f 101 108 103
f 102 103 110
f 102 110 109
f 103 108 110
f 104 111 112
f 104 112 106
f 104 106 105
f 107 113 108
f 108 113 110
f 109 110 113
f 109 113 114
f 109 114 115
f 111 116 117
f 111 117 112
f 112 117 118
f 114 119 115
f 114 120 119
f 115 119 121
f 116 122 123
f 116 123 118
f 116 118 117
f 118 123 124
f 119 120 121
f 120 125 126
f 120 126 121
f 121 126 127
f 122 128 129
f 122 129 124
f 122 124 123
f 125 130 127
f 125 127 126
f 127 130 131
f 128 132 133
f 128 133 129
f 129 133 134
f 130 135 131
f 130 136 135
f 131 135 137
f 132 138 139
f 132 139 134
f 132 134 133
f 134 139 140
f 135 136 137
f 136 141 142
f 136 142 137
f 137 142 143
f 138 144 145
f 138 145 140
f 138 140 139
f 141 146 147
f 141 147 143
f 141 143 142
f 143 147 148
f 144 149 150
f 144 150 145
f 145 150 151
f 146 152 153
f 146 153 147
f 147 154 148
f 147 153 155
f 147 155 154
f 149 156 157
f 149 157 151
f 149 151 150
f 151 157 158
f 152 159 160
f 152 160 153
f 153 160 155
f 154 155 161
f 155 160 161
f 156 162 163
f 156 163 164
f 156 164 157
f 157 164 158
f 159 165 167
f 159 167 160
f 160 166 161
f 160 167 166
f 161 166 168
f 162 169 170
f 162 170 171
f 162 171 163
f 163 171 164
f 164 171 172
f 165 173 175
f 165 175 167
f 166 167 168
f 167 174 168
f 167 175 174
f 168 174 176
f 169 177 178
f 169 178 179
f 169 179 170
f 170 179 171
f 171 179 180
f 171 180 172
f 173 181 182
f 173 182 175
f 174 175 176
f 175 182 183
f 175 183 184
f 175 184 176
f 176 184 185
f 177 186 187
f 177 187 178
f 178 187 179
f 179 187 188
f 179 188 180
f 181 188 183
f 181 183 182
f 183 188 187
f 183 187 186
f 183 186 189
f 183 189 185
f 183 185 184
