v -0.000369 -0.013191 0.038971
v 0.000278 -0.013082 0.038325
v 0.001019 -0.013074 0.038325
v 0.000369 -0.013155 0.038972
v -0.000369 -0.013191 0.038972
v -0.001110 -0.013188 0.038972
v -0.000460 -0.013050 0.038325
v 0.001761 -0.013025 0.038325
v 0.001111 -0.013074 0.038972
v -0.001851 -0.013142 0.038972
v -0.001168 -0.012976 0.038325
v 0.002253 -0.012963 0.038325
v 0.002502 -0.012930 0.038325
v 0.001797 -0.012963 0.038972
v -0.002593 -0.013052 0.038972
v -0.002590 -0.013052 0.038971
v -0.001257 -0.012963 0.038325
v 0.003243 -0.012795 0.038325
v 0.001855 -0.012952 0.038972
v -0.003115 -0.012963 0.038972
v -0.001851 -0.012865 0.038325
v 0.002590 -0.012787 0.038972
v 0.003981 -0.012616 0.038325
v -0.003331 -0.012922 0.038972
v -0.003331 -0.012922 0.038971
v -0.002681 -0.012689 0.038325
v 0.003332 -0.012572 0.038972
v 0.004723 -0.012388 0.038325
v -0.004050 -0.012754 0.038972
v -0.004072 -0.012749 0.038971
v -0.003422 -0.012480 0.038325
v 0.004073 -0.012309 0.038972
v 0.005464 -0.012111 0.038325
v -0.004072 -0.012749 0.038972
v -0.004814 -0.012529 0.038972
v -0.004111 -0.012236 0.038325
v 0.004286 -0.012220 0.038972
v 0.004814 -0.011994 0.038972
v 0.006205 -0.011783 0.038325
v -0.005555 -0.012260 0.038972
v -0.005555 -0.012260 0.038971
v -0.004150 -0.012220 0.038325
v 0.005555 -0.011623 0.038972
v 0.006792 -0.011479 0.038325
v -0.006296 -0.011940 0.038972
v -0.004814 -0.011940 0.038325
v -0.006296 -0.011940 0.038971
v 0.005804 -0.011479 0.038972
v 0.007035 -0.011338 0.038325
v -0.007037 -0.011569 0.038972
v -0.006296 -0.011479 0.038554
v -0.006296 -0.011224 0.038325
v 0.007679 -0.010955 0.038325
v 0.006294 -0.011186 0.038972
v -0.007192 -0.011479 0.038972
v -0.007034 -0.010828 0.038325
v 0.006952 -0.010744 0.038972
v 0.007997 -0.010738 0.038325
v -0.007787 -0.011129 0.038972
v -0.007181 -0.010738 0.038325
v 0.007035 -0.010681 0.038972
v 0.008517 -0.010369 0.038325
v -0.007776 -0.010738 0.038637
v -0.008368 -0.010738 0.038972
v -0.008368 -0.010738 0.038971
v -0.007776 -0.010364 0.038325
v 0.008517 -0.009998 0.038623
v 0.008517 -0.009556 0.038972
v 0.008993 -0.009998 0.038325
v -0.008517 -0.010635 0.038972
v -0.007848 -0.010315 0.038325
v 0.009104 -0.009908 0.038325
v 0.009159 -0.009862 0.038325
v 0.008874 -0.009257 0.038972
v -0.009258 -0.010058 0.038972
v -0.009258 -0.010058 0.038971
v -0.008517 -0.009998 0.038460
v -0.008166 -0.010090 0.038325
v 0.009259 -0.009778 0.038325
v 0.009259 -0.009257 0.038718
v 0.009259 -0.008913 0.038972
v -0.009330 -0.009998 0.038972
v -0.008517 -0.009827 0.038325
v -0.009258 -0.009998 0.038925
v 0.009831 -0.009257 0.038325
v 0.009925 -0.009168 0.038325
v 0.009662 -0.008517 0.038972
v -0.009258 -0.009257 0.038365
v -0.009999 -0.009393 0.038972
v -0.009195 -0.009257 0.038325
v 0.010000 -0.009094 0.038325
v 0.010000 -0.008517 0.038729
v 0.010000 -0.008159 0.038972
v -0.009258 -0.009203 0.038325
v -0.009999 -0.009257 0.038874
v -0.010135 -0.009257 0.038972
v -0.010135 -0.009257 0.038971
v 0.010545 -0.008517 0.038325
v 0.010625 -0.008427 0.038325
v 0.010332 -0.007776 0.038972
v -0.009958 -0.008517 0.038325
v -0.009999 -0.008517 0.038354
v -0.010741 -0.008617 0.038972
v -0.010741 -0.008617 0.038971
v 0.010738 -0.008292 0.038325
v 0.010738 -0.007776 0.038657
v 0.010738 -0.007263 0.038972
v -0.009999 -0.008473 0.038325
v -0.010829 -0.008517 0.038972
v -0.010741 -0.008517 0.038903
v 0.011159 -0.007776 0.038325
v 0.011228 -0.007687 0.038325
v 0.010907 -0.007035 0.038972
v -0.010345 -0.008077 0.038325
v -0.011429 -0.007776 0.038972
v -0.010741 -0.007776 0.038427
v -0.010608 -0.007776 0.038325
v 0.011479 -0.007339 0.038325
v 0.011479 -0.007035 0.038502
v 0.011405 -0.006295 0.038972
v -0.011103 -0.007125 0.038325
v -0.010824 -0.007499 0.038325
v -0.010741 -0.007608 0.038325
v -0.011485 -0.007700 0.038972
v 0.011692 -0.007035 0.038325
v 0.012157 -0.006295 0.038325
v 0.011479 -0.006167 0.038972
v -0.011167 -0.007035 0.038325
v -0.011949 -0.007035 0.038972
v -0.011479 -0.007035 0.038581
v 0.012221 -0.006178 0.038325
v 0.011831 -0.005554 0.038972
v -0.011537 -0.006479 0.038325
v -0.012223 -0.006596 0.038972
v 0.012221 -0.005554 0.038625
v 0.012555 -0.005554 0.038325
v 0.012196 -0.004814 0.038972
v -0.011651 -0.006295 0.038325
v -0.012400 -0.006295 0.038972
v -0.012400 -0.006295 0.038971
v -0.012220 -0.006295 0.038814
v 0.012901 -0.004814 0.038325
v 0.012221 -0.004757 0.038972
v -0.012007 -0.005668 0.038325
v -0.012793 -0.005554 0.038972
v -0.012220 -0.005554 0.038459
v -0.012793 -0.005554 0.038971
v 0.012506 -0.004073 0.038972
v 0.012962 -0.004665 0.038325
v -0.012068 -0.005554 0.038325
v -0.012961 -0.005191 0.038972
v -0.012220 -0.005248 0.038325
v -0.012961 -0.005191 0.038971
v -0.012386 -0.004903 0.038325
v 0.012962 -0.004073 0.038543
v 0.012763 -0.003330 0.038972
v 0.013194 -0.004073 0.038325
v -0.013133 -0.004814 0.038972
v -0.012961 -0.004814 0.038814
v -0.012428 -0.004814 0.038325
v 0.012768 -0.003311 0.038972
v 0.012962 -0.003333 0.038782
v 0.013438 -0.003333 0.038325
v -0.013421 -0.004073 0.038972
v -0.012961 -0.004073 0.038540
v -0.012688 -0.004187 0.038325
v 0.012962 -0.002635 0.038972
v 0.013465 -0.003243 0.038325
v -0.012986 -0.003333 0.038325
v -0.013661 -0.003333 0.038972
v -0.012732 -0.004073 0.038325
v 0.013640 -0.002592 0.038325
v 0.012973 -0.002592 0.038972
v -0.013047 -0.003118 0.038325
v -0.013703 -0.003178 0.038972
v -0.013174 -0.002663 0.038325
v 0.013653 -0.002527 0.038325
v 0.013139 -0.001851 0.038972
v -0.013703 -0.002592 0.038821
v -0.013858 -0.002592 0.038972
v -0.013191 -0.002592 0.038325
v 0.013703 -0.002291 0.038325
v 0.013261 -0.001111 0.038971
v 0.013258 -0.001111 0.038972
v 0.013703 -0.001851 0.038416
v -0.013354 -0.001851 0.038325
v -0.014010 -0.001851 0.038972
v -0.014010 -0.001851 0.038971
v -0.013703 -0.001851 0.038667
v 0.013794 -0.001851 0.038325
v 0.013703 -0.001111 0.038531
v 0.013338 -0.000370 0.038972
v 0.013911 -0.001111 0.038325
v -0.013473 -0.001111 0.038325
v -0.014123 -0.001111 0.038972
v -0.014123 -0.001111 0.038971
v -0.013703 -0.001111 0.038552
v 0.013963 -0.000593 0.038325
v 0.013985 -0.000370 0.038325
v 0.013374 0.000373 0.038972
v -0.013551 -0.000370 0.038325
v -0.014198 -0.000370 0.038972
v -0.014198 -0.000370 0.038971
v 0.014021 0.000373 0.038325
v 0.013371 0.001111 0.038971
v 0.013368 0.001111 0.038972
v -0.013587 0.000373 0.038325
v -0.014234 0.000373 0.038972
v -0.013703 0.000373 0.038441
v 0.014016 0.001111 0.038325
v 0.013703 0.001111 0.038638
v 0.013324 0.001852 0.038972
v 0.013982 0.001686 0.038325
v 0.013703 0.001852 0.038594
v -0.013703 0.001111 0.038445
v -0.013584 0.000788 0.038325
v -0.014228 0.001111 0.038972
v -0.014228 0.001111 0.038971
v 0.013911 0.002408 0.038325
v 0.013703 0.002592 0.038511
v 0.013238 0.002592 0.038971
v 0.013236 0.002592 0.038972
v 0.013971 0.001852 0.038325
v -0.013703 0.001852 0.038489
v -0.013556 0.001534 0.038325
v -0.013581 0.001111 0.038325
v -0.014184 0.001852 0.038972
v -0.014184 0.001852 0.038971
v 0.013888 0.002592 0.038325
v 0.013808 0.003091 0.038325
v 0.013108 0.003333 0.038972
v 0.013703 0.003333 0.038388
v -0.014104 0.002592 0.038971
v -0.013703 0.002592 0.038573
v -0.013537 0.001852 0.038325
v -0.014104 0.002592 0.038972
v 0.013767 0.003333 0.038325
v 0.012962 0.003967 0.038972
v 0.013631 0.003954 0.038325
v 0.013703 0.003626 0.038325
v -0.013982 0.003333 0.038971
v -0.013703 0.003333 0.038695
v -0.013451 0.002592 0.038325
v -0.013982 0.003333 0.038972
v 0.012937 0.004073 0.038972
v 0.013604 0.004073 0.038325
v -0.013822 0.004073 0.038971
v -0.013327 0.003333 0.038325
v -0.013822 0.004073 0.038972
v 0.012962 0.004814 0.038741
v 0.012721 0.004814 0.038971
v 0.012719 0.004814 0.038972
v 0.013424 0.004722 0.038325
v -0.013703 0.004510 0.038971
v -0.013703 0.004073 0.038855
v -0.013155 0.004073 0.038325
v -0.013703 0.004510 0.038972
v 0.013191 0.005424 0.038325
v 0.013396 0.004814 0.038325
v 0.013147 0.005554 0.038325
v 0.012962 0.005554 0.038499
v 0.012456 0.005554 0.038972
v -0.013620 0.004814 0.038971
v -0.013130 0.004163 0.038325
v -0.013617 0.004814 0.038972
v 0.012901 0.006173 0.038325
v 0.012221 0.006113 0.038972
v 0.012860 0.006273 0.038325
v -0.013371 0.005554 0.038971
v -0.012961 0.004814 0.038342
v -0.012978 0.004692 0.038325
v -0.013371 0.005554 0.038972
v 0.012221 0.006295 0.038900
v 0.012143 0.006295 0.038971
v 0.012140 0.006295 0.038972
v 0.012550 0.006935 0.038325
v -0.013080 0.006295 0.038971
v -0.012961 0.005554 0.038585
v -0.012901 0.004936 0.038325
v -0.012942 0.004814 0.038325
v -0.012961 0.004749 0.038325
v -0.013080 0.006295 0.038972
v 0.012503 0.007036 0.038325
v 0.012221 0.007036 0.038577
v 0.011775 0.007036 0.038971
v 0.011773 0.007036 0.038972
v -0.012961 0.006558 0.038971
v -0.012961 0.006295 0.038861
v -0.012682 0.005554 0.038325
v -0.012961 0.006555 0.038972
v 0.012154 0.007687 0.038325
v 0.011479 0.007556 0.038972
v -0.012737 0.007036 0.038971
v -0.012334 0.006385 0.038325
v -0.012375 0.006295 0.038325
v -0.012737 0.007036 0.038972
v 0.012118 0.007749 0.038325
v 0.011479 0.007776 0.038860
v 0.011349 0.007776 0.038972
v -0.012345 0.007776 0.038971
v -0.012220 0.007036 0.038507
v -0.012259 0.006539 0.038325
v -0.012345 0.007776 0.038972
v 0.012102 0.007776 0.038325
v 0.011709 0.008411 0.038325
v 0.010860 0.008517 0.038971
v 0.010857 0.008517 0.038972
v 0.011643 0.008517 0.038325
v 0.011479 0.008517 0.038460
v -0.012220 0.007988 0.038971
v -0.012220 0.007776 0.038861
v -0.012016 0.007036 0.038325
v -0.012220 0.007988 0.038972
v 0.011405 0.008861 0.038325
v 0.011184 0.009168 0.038325
v 0.010735 0.008685 0.038972
v -0.011894 0.008517 0.038971
v -0.011598 0.007776 0.038325
v -0.011894 0.008517 0.038972
v 0.011114 0.009257 0.038325
v 0.010738 0.009257 0.038624
v 0.010293 0.009257 0.038972
v -0.011543 0.007866 0.038325
v -0.011479 0.009119 0.038971
v -0.011479 0.008517 0.038623
v -0.011479 0.007966 0.038325
v -0.011479 0.009119 0.038972
v 0.010738 0.009732 0.038325
v 0.010686 0.009797 0.038325
v 0.010556 0.009952 0.038325
v 0.010000 0.009607 0.038971
v 0.009997 0.009605 0.038972
v -0.011379 0.009257 0.038971
v -0.011053 0.008606 0.038325
v -0.011117 0.008517 0.038325
v -0.011379 0.009257 0.038972
v 0.010514 0.009998 0.038325
v 0.010000 0.009998 0.038712
v 0.009643 0.009998 0.038972
v -0.010793 0.009998 0.038971
v -0.010741 0.009998 0.038928
v -0.010741 0.009257 0.038459
v -0.010741 0.009035 0.038325
v -0.010793 0.009998 0.038972
v 0.010000 0.010562 0.038325
v 0.009259 0.010391 0.038971
v 0.009256 0.010391 0.038972
v 0.009956 0.010608 0.038325
v -0.010741 0.010063 0.038971
v -0.009999 0.009927 0.038325
v -0.010154 0.009746 0.038325
v -0.010566 0.009257 0.038325
v -0.010741 0.010060 0.038972
v 0.009867 0.010698 0.038325
v 0.009826 0.010739 0.038325
v 0.009259 0.010739 0.038722
v 0.008891 0.010739 0.038971
v 0.008888 0.010739 0.038972
v -0.010121 0.010739 0.038971
v -0.009999 0.009998 0.038371
v -0.010121 0.010739 0.038972
v -0.009936 0.009998 0.038325
v 0.009259 0.011278 0.038325
v 0.009214 0.011319 0.038325
v 0.008512 0.011072 0.038972
v -0.009999 0.010866 0.038971
v -0.009999 0.010739 0.038881
v -0.009999 0.010863 0.038972
v -0.009419 0.010527 0.038325
v 0.009087 0.011430 0.038325
v 0.008006 0.011479 0.038971
v 0.008003 0.011479 0.038972
v 0.008517 0.011479 0.038655
v -0.009358 0.011474 0.038972
v -0.009258 0.010690 0.038325
v 0.008517 0.011900 0.038325
v 0.007776 0.011655 0.038971
v 0.007776 0.011653 0.038972
v -0.009258 0.011560 0.038972
v -0.009258 0.011563 0.038971
v -0.009258 0.011479 0.038908
v -0.009203 0.010739 0.038325
v 0.008454 0.011948 0.038325
v 0.007776 0.012220 0.038512
v 0.007035 0.012165 0.038972
v 0.008188 0.012152 0.038325
v -0.008517 0.012111 0.038972
v -0.008517 0.012114 0.038971
v -0.008517 0.011479 0.038431
v -0.008517 0.011343 0.038325
v -0.008818 0.011078 0.038325
v 0.007776 0.012448 0.038325
v 0.007035 0.012928 0.038325
v 0.006949 0.012220 0.038971
v 0.006946 0.012220 0.038972
v -0.008340 0.012220 0.038972
v -0.008348 0.011479 0.038325
v -0.008343 0.012220 0.038971
v -0.007126 0.012342 0.038325
v -0.007311 0.012220 0.038325
v -0.007776 0.011900 0.038325
v 0.006977 0.012960 0.038325
v 0.006294 0.012610 0.038972
v -0.007776 0.012556 0.038972
v -0.007776 0.012556 0.038971
v -0.006385 0.012773 0.038325
v 0.006205 0.013362 0.038325
v 0.006294 0.012960 0.038658
v 0.006269 0.012624 0.038972
v -0.007034 0.012944 0.038972
v -0.007034 0.012944 0.038971
v -0.005942 0.013001 0.038325
v 0.005464 0.013652 0.038325
v 0.004814 0.013329 0.038972
v 0.005555 0.012998 0.038971
v 0.005555 0.012996 0.038972
v -0.006296 0.013278 0.038972
v -0.006999 0.012960 0.038971
v -0.005643 0.013150 0.038325
v 0.005317 0.013704 0.038325
v 0.004073 0.013614 0.038971
v 0.004076 0.013611 0.038972
v -0.006296 0.013278 0.038971
v -0.005555 0.013565 0.038972
v -0.005555 0.013568 0.038971
v -0.004905 0.013476 0.038325
v 0.004814 0.013866 0.038325
v 0.003799 0.013704 0.038971
v 0.003796 0.013704 0.038972
v -0.005143 0.013704 0.038972
v -0.005145 0.013704 0.038971
v -0.004164 0.013752 0.038325
v -0.004296 0.013704 0.038325
v 0.003981 0.014102 0.038325
v 0.003332 0.013850 0.038972
v -0.004814 0.013809 0.038972
v -0.004814 0.013809 0.038971
v -0.003422 0.013983 0.038325
v 0.003243 0.014262 0.038325
v 0.002590 0.014045 0.038971
v 0.002596 0.014043 0.038972
v -0.004072 0.014010 0.038972
v -0.004072 0.014010 0.038971
v -0.002681 0.014170 0.038325
v 0.002502 0.014387 0.038325
v 0.001849 0.014197 0.038971
v 0.001849 0.014195 0.038972
v -0.003331 0.014167 0.038972
v -0.003331 0.014170 0.038971
v -0.001940 0.014317 0.038325
v 0.002054 0.014436 0.038325
v 0.001111 0.014309 0.038972
v -0.002590 0.014287 0.038972
v -0.002590 0.014290 0.038971
v -0.001199 0.014425 0.038325
v 0.001849 0.014458 0.038325
v 0.000369 0.014382 0.038971
v 0.000369 0.014379 0.038972
v -0.001851 0.014368 0.038972
v -0.001851 0.014368 0.038971
v -0.000369 0.014493 0.038325
v 0.001111 0.014507 0.038325
v -0.000369 0.014414 0.038972
v -0.001110 0.014409 0.038972
v -0.001110 0.014412 0.038971
v 0.000369 0.014517 0.038325
f 1 2 3
f 1 3 4
f 1 4 5
f 1 5 6
f 1 6 2
f 2 6 7
f 2 7 11
f 2 11 17
f 2 17 21
f 2 21 26
f 2 26 31
f 2 31 36
f 2 36 42
f 2 42 46
f 2 46 52
f 2 52 56
f 2 56 60
f 2 60 66
f 2 66 71
f 2 71 78
f 2 78 83
f 2 83 90
f 2 90 94
f 2 94 101
f 2 101 108
f 2 108 114
f 2 114 117
f 2 117 123
f 2 123 122
f 2 122 121
f 2 121 128
f 2 128 133
f 2 133 138
f 2 138 144
f 2 144 150
f 2 150 152
f 2 152 154
f 2 154 160
f 2 160 166
f 2 166 171
f 2 171 169
f 2 169 174
f 2 174 176
f 2 176 181
f 2 181 186
f 2 186 194
f 2 194 201
f 2 201 207
f 2 207 216
f 2 216 226
f 2 226 225
f 2 225 235
f 2 235 243
f 2 243 248
f 2 248 256
f 2 256 264
f 2 264 271
f 2 271 281
f 2 281 280
f 2 280 279
f 2 279 289
f 2 289 295
f 2 295 294
f 2 294 302
f 2 302 312
f 2 312 318
f 2 318 323
f 2 323 326
f 2 326 335
f 2 335 334
f 2 334 343
f 2 343 352
f 2 352 351
f 2 351 350
f 2 350 362
f 2 362 369
f 2 369 375
f 2 375 382
f 2 382 391
f 2 391 390
f 2 390 397
f 2 397 401
f 2 401 400
f 2 400 399
f 2 399 406
f 2 406 412
f 2 412 419
f 2 419 426
f 2 426 433
f 2 433 432
f 2 432 438
f 2 438 444
f 2 444 450
f 2 450 455
f 2 455 461
f 2 461 466
f 2 466 462
f 2 462 456
f 2 456 451
f 2 451 445
f 2 445 439
f 2 439 434
f 2 434 427
f 2 427 420
f 2 420 413
f 2 413 407
f 2 407 402
f 2 402 393
f 2 393 392
f 2 392 386
f 2 386 383
f 2 383 376
f 2 376 370
f 2 370 364
f 2 364 363
f 2 363 355
f 2 355 354
f 2 354 348
f 2 348 345
f 2 345 337
f 2 337 330
f 2 330 329
f 2 329 328
f 2 328 320
f 2 320 315
f 2 315 314
f 2 314 308
f 2 308 305
f 2 305 304
f 2 304 297
f 2 297 291
f 2 291 283
f 2 283 276
f 2 276 268
f 2 268 266
f 2 266 260
f 2 260 258
f 2 258 259
f 2 259 253
f 2 253 246
f 2 246 239
f 2 239 240
f 2 240 237
f 2 237 230
f 2 230 229
f 2 229 219
f 2 219 223
f 2 223 213
f 2 213 210
f 2 210 204
f 2 204 199
f 2 199 198
f 2 198 193
f 2 193 190
f 2 190 182
f 2 182 177
f 2 177 172
f 2 172 168
f 2 168 163
f 2 163 157
f 2 157 149
f 2 149 142
f 2 142 136
f 2 136 131
f 2 131 126
f 2 126 125
f 2 125 118
f 2 118 112
f 2 112 111
f 2 111 105
f 2 105 99
f 2 99 98
f 2 98 91
f 2 91 86
f 2 86 85
f 2 85 79
f 2 79 73
f 2 73 72
f 2 72 69
f 2 69 62
f 2 62 58
f 2 58 53
f 2 53 49
f 2 49 44
f 2 44 39
f 2 39 33
f 2 33 28
f 2 28 23
f 2 23 18
f 2 18 13
f 2 13 12
f 2 12 8
f 2 8 3
f 3 8 4
f 4 8 9
f 4 9 14
f 4 14 19
f 4 19 22
f 4 22 27
f 4 27 32
f 4 32 37
f 4 37 38
f 4 38 43
f 4 43 48
f 4 48 54
f 4 54 57
f 4 57 61
f 4 61 68
f 4 68 74
f 4 74 81
f 4 81 87
f 4 87 93
f 4 93 100
f 4 100 107
f 4 107 113
f 4 113 120
f 4 120 127
f 4 127 132
f 4 132 137
f 4 137 143
f 4 143 148
f 4 148 156
f 4 156 161
f 4 161 167
f 4 167 173
f 4 173 178
f 4 178 184
f 4 184 192
f 4 192 200
f 4 200 206
f 4 206 212
f 4 212 222
f 4 222 231
f 4 231 238
f 4 238 245
f 4 245 252
f 4 252 262
f 4 262 267
f 4 267 275
f 4 275 286
f 4 286 292
f 4 292 299
f 4 299 307
f 4 307 316
f 4 316 322
f 4 322 332
f 4 332 339
f 4 339 347
f 4 347 358
f 4 358 365
f 4 365 372
f 4 372 378
f 4 378 385
f 4 385 395
f 4 395 403
f 4 403 409
f 4 409 416
f 4 416 414
f 4 414 422
f 4 422 429
f 4 429 435
f 4 435 441
f 4 441 447
f 4 447 452
f 4 452 458
f 4 458 463
f 4 463 464
f 4 464 459
f 4 459 453
f 4 453 448
f 4 448 442
f 4 442 436
f 4 436 430
f 4 430 424
f 4 424 417
f 4 417 410
f 4 410 404
f 4 404 396
f 4 396 387
f 4 387 379
f 4 379 374
f 4 374 368
f 4 368 361
f 4 361 353
f 4 353 344
f 4 344 336
f 4 336 327
f 4 327 319
f 4 319 313
f 4 313 303
f 4 303 296
f 4 296 290
f 4 290 282
f 4 282 272
f 4 272 265
f 4 265 257
f 4 257 249
f 4 249 244
f 4 244 236
f 4 236 227
f 4 227 217
f 4 217 208
f 4 208 202
f 4 202 195
f 4 195 187
f 4 187 180
f 4 180 175
f 4 175 170
f 4 170 164
f 4 164 158
f 4 158 151
f 4 151 145
f 4 145 139
f 4 139 134
f 4 134 129
f 4 129 124
f 4 124 115
f 4 115 109
f 4 109 103
f 4 103 96
f 4 96 89
f 4 89 82
f 4 82 75
f 4 75 70
f 4 70 64
f 4 64 59
f 4 59 55
f 4 55 50
f 4 50 45
f 4 45 40
f 4 40 35
f 4 35 34
f 4 34 29
f 4 29 24
f 4 24 20
f 4 20 15
f 4 15 10
f 4 10 6
f 4 6 5
f 6 10 7
f 7 10 11
f 8 12 9
f 9 12 13
f 9 13 14
f 10 15 16
f 10 16 11
f 11 16 17
f 13 18 14
f 14 18 19
f 15 20 16
f 16 21 17
f 16 20 21
f 18 22 19
f 18 23 22
f 20 24 25
f 20 25 21
f 21 25 26
f 22 23 27
f 23 28 27
f 24 29 25
f 25 29 30
f 25 30 26
f 26 30 31
f 27 28 32
f 28 33 32
f 29 34 30
f 30 34 35
f 30 35 31
f 31 35 36
f 32 33 37
f 33 38 37
f 33 39 38
f 35 40 41
f 35 41 36
f 36 41 42
f 38 39 43
f 39 44 43
f 40 45 47
f 40 47 41
f 41 46 42
f 41 47 46
f 43 44 48
f 44 49 48
f 45 50 47
f 46 47 51
f 46 51 52
f 47 50 51
f 48 49 53
f 48 53 54
f 50 55 56
f 50 56 52
f 50 52 51
f 53 57 54
f 53 58 57
f 55 59 56
f 56 59 60
f 57 58 62
f 57 62 61
f 59 63 60
f 59 64 65
f 59 65 63
f 60 63 66
f 61 62 67
f 61 67 68
f 62 69 67
f 63 65 66
f 64 70 65
f 65 70 71
f 65 71 66
f 67 69 68
f 68 69 72
f 68 72 73
f 68 73 74
f 70 75 76
f 70 76 77
f 70 77 78
f 70 78 71
f 73 79 74
f 74 79 80
f 74 80 81
f 75 82 76
f 76 83 77
f 76 82 84
f 76 84 83
f 77 83 78
f 79 85 80
f 80 85 81
f 81 85 86
f 81 86 91
f 81 91 87
f 82 88 84
f 82 89 88
f 83 84 90
f 84 88 90
f 87 91 92
f 87 92 93
f 88 89 94
f 88 94 90
f 89 95 94
f 89 96 97
f 89 97 95
f 91 98 92
f 92 98 93
f 93 98 99
f 93 99 100
f 94 95 101
f 95 97 102
f 95 102 101
f 96 103 104
f 96 104 97
f 97 104 102
f 99 105 100
f 100 105 106
f 100 106 107
f 101 102 108
f 102 104 108
f 103 109 104
f 104 109 110
f 104 110 108
f 105 111 106
f 106 111 107
f 107 111 112
f 107 112 113
f 108 110 114
f 109 115 116
f 109 116 110
f 110 117 114
f 110 116 117
f 112 118 113
f 113 118 119
f 113 119 120
f 115 121 122
f 115 122 123
f 115 123 116
f 115 124 121
f 116 123 117
f 118 125 119
f 119 125 120
f 120 125 126
f 120 126 127
f 121 124 128
f 124 129 130
f 124 130 128
f 126 131 132
f 126 132 127
f 128 130 133
f 129 133 130
f 129 134 133
f 131 135 132
f 131 136 135
f 132 135 137
f 133 134 138
f 134 139 140
f 134 140 141
f 134 141 138
f 135 136 137
f 136 142 137
f 137 142 143
f 138 141 144
f 139 145 147
f 139 147 140
f 140 146 144
f 140 144 141
f 140 147 146
f 142 148 143
f 142 149 148
f 144 146 150
f 145 151 153
f 145 153 147
f 146 152 150
f 146 147 152
f 147 153 154
f 147 154 152
f 148 149 155
f 148 155 156
f 149 157 155
f 151 158 153
f 153 159 160
f 153 160 154
f 153 158 159
f 155 157 156
f 156 157 162
f 156 162 161
f 157 163 162
f 158 164 165
f 158 165 166
f 158 166 159
f 159 166 160
f 161 162 167
f 162 163 168
f 162 168 167
f 164 169 165
f 164 170 169
f 165 169 171
f 165 171 166
f 167 168 172
f 167 172 173
f 169 170 174
f 170 175 176
f 170 176 174
f 172 177 178
f 172 178 173
f 175 179 176
f 175 180 179
f 176 179 181
f 177 182 178
f 178 183 184
f 178 182 185
f 178 185 183
f 179 180 186
f 179 186 181
f 180 187 188
f 180 188 189
f 180 189 186
f 182 190 185
f 183 185 191
f 183 191 192
f 183 192 184
f 185 190 193
f 185 193 191
f 186 189 194
f 187 195 196
f 187 196 188
f 188 196 197
f 188 197 194
f 188 194 189
f 191 193 192
f 192 193 198
f 192 198 199
f 192 199 204
f 192 204 200
f 194 197 201
f 195 202 203
f 195 203 196
f 196 203 201
f 196 201 197
f 200 205 206
f 200 204 205
f 201 203 207
f 202 208 203
f 203 208 209
f 203 209 207
f 204 210 211
f 204 211 205
f 205 212 206
f 205 211 213
f 205 213 214
f 205 214 212
f 207 209 215
f 207 215 216
f 208 217 218
f 208 218 215
f 208 215 209
f 210 213 211
f 212 214 219
f 212 219 220
f 212 220 221
f 212 221 222
f 213 223 214
f 214 223 219
f 215 218 224
f 215 224 225
f 215 225 226
f 215 226 216
f 217 227 228
f 217 228 218
f 218 228 224
f 219 229 220
f 220 229 230
f 220 230 221
f 221 231 222
f 221 230 232
f 221 232 231
f 224 228 233
f 224 233 234
f 224 234 235
f 224 235 225
f 227 236 233
f 227 233 228
f 230 237 232
f 231 232 239
f 231 239 238
f 232 237 240
f 232 240 239
f 233 236 244
f 233 244 241
f 233 241 234
f 234 241 242
f 234 242 243
f 234 243 235
f 238 239 246
f 238 246 245
f 241 244 249
f 241 249 247
f 241 247 242
f 242 247 248
f 242 248 243
f 245 250 251
f 245 251 252
f 245 246 253
f 245 253 250
f 247 254 255
f 247 255 248
f 247 249 257
f 247 257 254
f 248 255 256
f 250 258 251
f 250 253 259
f 250 259 258
f 251 258 260
f 251 260 261
f 251 261 262
f 251 262 252
f 254 257 263
f 254 263 255
f 255 263 256
f 256 263 264
f 257 265 263
f 260 266 261
f 261 266 262
f 262 266 268
f 262 268 267
f 263 269 270
f 263 270 271
f 263 271 264
f 263 265 272
f 263 272 269
f 267 268 273
f 267 273 274
f 267 274 275
f 268 276 273
f 269 272 282
f 269 282 277
f 269 277 278
f 269 278 279
f 269 279 270
f 270 279 280
f 270 280 281
f 270 281 271
f 273 283 274
f 273 276 283
f 274 283 284
f 274 284 285
f 274 285 286
f 274 286 275
f 277 282 287
f 277 287 288
f 277 288 289
f 277 289 278
f 278 289 279
f 282 290 287
f 283 291 284
f 284 291 285
f 285 292 286
f 285 291 292
f 287 293 294
f 287 294 295
f 287 295 288
f 287 290 296
f 287 296 293
f 288 295 289
f 291 297 292
f 292 297 298
f 292 298 299
f 293 296 303
f 293 303 300
f 293 300 301
f 293 301 302
f 293 302 294
f 297 304 298
f 298 304 305
f 298 305 299
f 299 306 307
f 299 305 308
f 299 308 309
f 299 309 306
f 300 303 313
f 300 313 310
f 300 310 311
f 300 311 312
f 300 312 301
f 301 312 302
f 306 309 314
f 306 314 315
f 306 315 316
f 306 316 307
f 308 314 309
f 310 313 319
f 310 319 317
f 310 317 318
f 310 318 311
f 311 318 312
f 315 320 321
f 315 321 316
f 316 321 322
f 317 323 318
f 317 319 327
f 317 327 324
f 317 324 325
f 317 325 326
f 317 326 323
f 320 328 321
f 321 328 329
f 321 329 322
f 322 330 331
f 322 331 332
f 322 329 330
f 324 333 334
f 324 334 335
f 324 335 325
f 324 327 336
f 324 336 333
f 325 335 326
f 330 337 338
f 330 338 331
f 331 338 339
f 331 339 332
f 333 336 344
f 333 344 340
f 333 340 341
f 333 341 342
f 333 342 343
f 333 343 334
f 337 345 338
f 338 345 339
f 339 346 347
f 339 345 348
f 339 348 346
f 340 344 349
f 340 349 341
f 341 350 351
f 341 351 352
f 341 352 342
f 341 349 350
f 342 352 343
f 344 353 349
f 346 348 354
f 346 354 355
f 346 355 356
f 346 356 357
f 346 357 358
f 346 358 347
f 349 359 360
f 349 360 350
f 349 353 361
f 349 361 359
f 350 360 362
f 355 363 356
f 356 363 364
f 356 364 357
f 357 364 365
f 357 365 358
f 359 361 366
f 359 366 367
f 359 367 360
f 360 367 362
f 361 368 366
f 362 367 369
f 364 370 365
f 365 371 372
f 365 370 373
f 365 373 371
f 366 368 374
f 366 374 375
f 366 375 367
f 367 375 369
f 370 376 373
f 371 373 376
f 371 376 377
f 371 377 372
f 372 377 378
f 374 379 380
f 374 380 381
f 374 381 375
f 375 381 382
f 376 383 377
f 377 384 385
f 377 385 378
f 377 383 386
f 377 386 384
f 379 387 388
f 379 388 380
f 380 388 389
f 380 389 390
f 380 390 381
f 381 390 391
f 381 391 382
f 384 392 385
f 384 386 392
f 385 392 393
f 385 393 394
f 385 394 395
f 387 396 388
f 388 397 389
f 388 396 398
f 388 398 399
f 388 399 400
f 388 400 401
f 388 401 397
f 389 397 390
f 393 402 403
f 393 403 394
f 394 403 395
f 396 404 398
f 398 405 399
f 398 404 405
f 399 405 406
f 402 407 408
f 402 408 403
f 403 408 409
f 404 410 411
f 404 411 405
f 405 411 406
f 406 411 412
f 407 413 414
f 407 414 415
f 407 415 408
f 408 415 409
f 409 415 416
f 410 417 418
f 410 418 411
f 411 418 419
f 411 419 412
f 413 420 421
f 413 421 414
f 414 421 422
f 414 416 415
f 417 423 418
f 417 424 425
f 417 425 423
f 418 423 419
f 419 423 426
f 420 427 428
f 420 428 421
f 421 428 429
f 421 429 422
f 423 425 426
f 424 430 425
f 425 430 431
f 425 431 432
f 425 432 433
f 425 433 426
f 427 434 435
f 427 435 428
f 428 435 429
f 430 436 431
f 431 436 437
f 431 437 432
f 432 437 438
f 434 439 440
f 434 440 435
f 435 440 441
f 436 442 443
f 436 443 437
f 437 443 438
f 438 443 444
f 439 445 446
f 439 446 440
f 440 446 441
f 441 446 447
f 442 448 449
f 442 449 443
f 443 449 444
f 444 449 450
f 445 451 452
f 445 452 446
f 446 452 447
f 448 453 454
f 448 454 449
f 449 454 450
f 450 454 455
f 451 456 452
f 452 456 457
f 452 457 458
f 453 459 454
f 454 459 460
f 454 460 455
f 455 460 459
f 455 459 461
f 456 462 457
f 457 462 463
f 457 463 458
f 459 464 465
f 459 465 461
f 461 465 466
f 462 466 463
f 463 466 465
f 463 465 464
