v -0.013745 0.000373 0.042649
v -0.013011 0.000373 0.041915
v -0.013707 -0.000368 0.042647
v -0.013708 -0.000368 0.042649
v -0.013740 0.001107 0.042649
v -0.013703 0.001109 0.042612
v -0.013006 0.001112 0.041915
v -0.012973 -0.000371 0.041915
v -0.013632 -0.001107 0.042649
v -0.013705 -0.000407 0.042649
v -0.013696 0.001848 0.042649
v -0.012962 0.001810 0.041915
v -0.012962 -0.000467 0.041915
v -0.012962 -0.001107 0.041984
v -0.013631 -0.001115 0.042649
v -0.013612 0.002590 0.042649
v -0.013610 0.002590 0.042647
v -0.012960 0.001848 0.041915
v -0.012892 -0.001107 0.041915
v -0.012891 -0.001120 0.041915
v -0.013515 -0.001851 0.042649
v -0.013489 0.003319 0.042649
v -0.012871 0.002590 0.041915
v -0.012768 -0.001851 0.041915
v -0.012962 -0.001851 0.042105
v -0.013353 -0.002590 0.042647
v -0.013355 -0.002590 0.042649
v -0.013486 0.003331 0.042649
v -0.012962 0.003331 0.042135
v -0.012738 0.003331 0.041915
v -0.012598 -0.002590 0.041915
v -0.012962 -0.002590 0.042267
v -0.013151 -0.003332 0.042649
v -0.013320 0.004068 0.042649
v -0.012962 0.004070 0.042303
v -0.012561 0.004070 0.041915
v -0.012381 -0.003332 0.041915
v -0.012962 -0.003332 0.042468
v -0.012962 -0.003888 0.042647
v -0.012964 -0.003888 0.042649
v -0.013109 0.004809 0.042649
v -0.013107 0.004814 0.042647
v -0.012962 0.004814 0.042509
v -0.012338 0.004814 0.041915
v -0.012224 -0.003774 0.041915
v -0.012899 -0.004073 0.042647
v -0.012899 -0.004076 0.042649
v -0.012962 0.005241 0.042649
v -0.012853 0.005553 0.042649
v -0.012222 0.005134 0.041915
v -0.012222 -0.004073 0.042014
v -0.012113 -0.004078 0.041915
v -0.011536 -0.005554 0.041915
v -0.012600 -0.004812 0.042649
v -0.012548 0.006295 0.042649
v -0.012222 0.005553 0.042059
v -0.012065 0.005553 0.041915
v -0.011482 -0.005673 0.041915
v -0.011195 -0.006298 0.041915
v -0.012248 -0.005554 0.042649
v -0.012222 0.006295 0.042350
v -0.012222 0.006978 0.042649
v -0.011742 0.006295 0.041915
v -0.010797 -0.007039 0.041915
v -0.011836 -0.006293 0.042649
v -0.012193 0.007036 0.042649
v -0.011481 0.006810 0.041915
v -0.010741 -0.007130 0.041915
v -0.011481 -0.006854 0.042649
v -0.011808 0.007729 0.042649
v -0.011481 0.007036 0.042018
v -0.011362 0.007036 0.041915
v -0.010333 -0.007775 0.041915
v -0.011360 -0.007034 0.042649
v -0.011781 0.007777 0.042649
v -0.010921 0.007775 0.041915
v -0.011481 0.007775 0.042390
v -0.010000 -0.008240 0.041915
v -0.010810 -0.007775 0.042649
v -0.011481 0.008255 0.042649
v -0.011308 0.008516 0.042647
v -0.010740 0.008047 0.041915
v -0.009793 -0.008517 0.041915
v -0.010741 -0.007862 0.042649
v -0.011309 0.008516 0.042649
v -0.010774 0.009250 0.042649
v -0.010740 0.008516 0.042181
v -0.010410 0.008516 0.041915
v -0.009261 -0.009152 0.041915
v -0.010172 -0.008517 0.042649
v -0.010000 0.009042 0.041915
v -0.010740 0.009293 0.042649
v -0.010740 0.009291 0.042647
v -0.009167 -0.009258 0.041915
v -0.010001 -0.008697 0.042649
v -0.010000 0.009255 0.042050
v -0.009821 0.009255 0.041915
v -0.010145 0.009997 0.042647
v -0.010146 0.009997 0.042649
v -0.008519 -0.009919 0.041915
v -0.009429 -0.009258 0.042649
v -0.010000 0.009997 0.042538
v -0.009261 0.009875 0.041915
v -0.010000 0.010157 0.042647
v -0.010001 0.010157 0.042649
v -0.008434 -0.010000 0.041915
v -0.009261 -0.009411 0.042649
v -0.009261 0.009997 0.041999
v -0.009140 0.009997 0.041915
v -0.009429 0.010738 0.042647
v -0.009431 0.010738 0.042649
v -0.007778 -0.010569 0.041915
v -0.008554 -0.010000 0.042649
v -0.009261 0.010738 0.042528
v -0.008519 0.010586 0.041915
v -0.009261 0.010898 0.042647
v -0.009261 0.010898 0.042649
v -0.007562 -0.010741 0.041915
v -0.008510 -0.010033 0.042649
v -0.008519 0.010738 0.042028
v -0.008330 0.010748 0.041915
v -0.008885 0.011231 0.042648
v -0.008600 0.011480 0.042649
v -0.007038 -0.011132 0.041915
v -0.007778 -0.010553 0.042649
v -0.008599 0.011480 0.042647
v -0.008519 0.011480 0.042595
v -0.007778 0.011198 0.041915
v -0.008520 0.011546 0.042649
v -0.006515 -0.011480 0.041915
v -0.007483 -0.010736 0.042649
v -0.006294 -0.011620 0.041915
v -0.008519 0.011546 0.042647
v -0.007778 0.011480 0.042138
v -0.007395 0.011480 0.041915
v -0.007778 0.012109 0.042649
v -0.007778 0.012109 0.042647
v -0.007038 -0.011008 0.042649
v -0.005554 -0.012039 0.041915
v -0.007020 -0.011018 0.042649
v -0.007038 0.011731 0.041915
v -0.007615 0.012221 0.042649
v -0.007615 0.012221 0.042647
v -0.005182 -0.012222 0.041915
v -0.006297 -0.011402 0.042649
v -0.007038 0.012221 0.042325
v -0.006297 0.012193 0.041915
v -0.007036 0.012602 0.042649
v -0.007038 0.012600 0.042647
v -0.005017 -0.012300 0.041915
v -0.006120 -0.011483 0.042649
v -0.006246 0.012221 0.041915
v -0.006420 0.012963 0.042647
v -0.006297 0.012963 0.042586
v -0.006420 0.012963 0.042649
v -0.005017 -0.011935 0.042648
v -0.005558 -0.011732 0.042649
v -0.005017 0.012841 0.041915
v -0.005556 0.012592 0.041915
v -0.006298 0.013031 0.042649
v -0.006297 0.013031 0.042647
v -0.005017 -0.011927 0.042649
v -0.005017 0.012963 0.042023
v -0.005556 0.012963 0.042247
v -0.005554 0.013404 0.042649
v -0.005556 0.013404 0.042647
v -0.005017 0.013374 0.042649
v -0.005017 0.013641 0.042647
f 1 2 3
f 1 3 4
f 1 4 10
f 1 10 9
f 1 9 15
f 1 15 21
f 1 21 27
f 1 27 33
f 1 33 40
f 1 40 47
f 1 47 54
f 1 54 60
f 1 60 65
f 1 65 69
f 1 69 74
f 1 74 79
f 1 79 84
f 1 84 90
f 1 90 95
f 1 95 101
f 1 101 107
f 1 107 113
f 1 113 119
f 1 119 125
f 1 125 131
f 1 131 138
f 1 138 140
f 1 140 145
f 1 145 151
f 1 151 157
f 1 157 162
f 1 162 167
f 1 167 165
f 1 165 160
f 1 160 155
f 1 155 148
f 1 148 142
f 1 142 136
f 1 136 129
f 1 129 123
f 1 123 117
f 1 117 111
f 1 111 105
f 1 105 99
f 1 99 92
f 1 92 86
f 1 86 85
f 1 85 80
f 1 80 75
f 1 75 70
f 1 70 66
f 1 66 62
f 1 62 55
f 1 55 49
f 1 49 48
f 1 48 41
f 1 41 34
f 1 34 28
f 1 28 22
f 1 22 16
f 1 16 11
f 1 11 5
f 1 5 6
f 1 6 2
f 2 6 7
f 2 7 12
f 2 12 18
f 2 18 23
f 2 23 30
f 2 30 36
f 2 36 44
f 2 44 50
f 2 50 57
f 2 57 63
f 2 63 67
f 2 67 72
f 2 72 76
f 2 76 82
f 2 82 88
f 2 88 91
f 2 91 97
f 2 97 103
f 2 103 109
f 2 109 115
f 2 115 121
f 2 121 128
f 2 128 135
f 2 135 141
f 2 141 147
f 2 147 152
f 2 152 159
f 2 159 158
f 2 158 150
f 2 150 144
f 2 144 139
f 2 139 132
f 2 132 130
f 2 130 124
f 2 124 118
f 2 118 112
f 2 112 106
f 2 106 100
f 2 100 94
f 2 94 89
f 2 89 83
f 2 83 78
f 2 78 73
f 2 73 68
f 2 68 64
f 2 64 59
f 2 59 58
f 2 58 53
f 2 53 52
f 2 52 45
f 2 45 37
f 2 37 31
f 2 31 24
f 2 24 20
f 2 20 19
f 2 19 13
f 2 13 8
f 2 8 3
f 3 8 9
f 3 9 10
f 3 10 4
f 5 11 6
f 6 11 7
f 7 11 12
f 8 13 9
f 9 13 14
f 9 14 15
f 11 16 17
f 11 17 18
f 11 18 12
f 13 19 14
f 14 19 20
f 14 20 15
f 15 20 21
f 16 22 17
f 17 23 18
f 17 22 23
f 20 24 25
f 20 25 21
f 21 25 26
f 21 26 27
f 22 28 29
f 22 29 23
f 23 29 30
f 24 31 32
f 24 32 26
f 24 26 25
f 26 32 33
f 26 33 27
f 28 34 29
f 29 34 30
f 30 34 35
f 30 35 36
f 31 37 38
f 31 38 33
f 31 33 32
f 33 38 39
f 33 39 40
f 34 41 42
f 34 42 35
f 35 42 36
f 36 42 43
f 36 43 44
f 37 45 46
f 37 46 39
f 37 39 38
f 39 46 40
f 40 46 47
f 41 48 42
f 42 48 43
f 43 48 44
f 44 48 49
f 44 49 50
f 45 51 46
f 45 52 51
f 46 51 53
f 46 53 54
f 46 54 47
f 49 55 56
f 49 56 50
f 50 56 57
f 51 52 53
f 53 58 54
f 54 58 59
f 54 59 60
f 55 61 57
f 55 57 56
f 55 62 61
f 57 61 63
f 59 64 60
f 60 64 65
f 61 62 66
f 61 66 63
f 63 66 67
f 64 68 65
f 65 68 69
f 66 70 71
f 66 71 67
f 67 71 72
f 68 73 69
f 69 73 74
f 70 75 71
f 71 75 72
f 72 75 77
f 72 77 76
f 73 78 74
f 74 78 79
f 75 80 77
f 76 77 80
f 76 80 81
f 76 81 82
f 78 83 79
f 79 83 84
f 80 85 81
f 81 85 86
f 81 86 87
f 81 87 82
f 82 87 88
f 83 89 84
f 84 89 90
f 86 91 88
f 86 88 87
f 86 92 93
f 86 93 91
f 89 94 90
f 90 94 95
f 91 93 96
f 91 96 97
f 92 98 93
f 92 99 98
f 93 98 96
f 94 100 95
f 95 100 101
f 96 98 97
f 97 98 102
f 97 102 103
f 98 99 105
f 98 105 104
f 98 104 102
f 100 106 101
f 101 106 107
f 102 104 103
f 103 104 108
f 103 108 109
f 104 105 111
f 104 111 110
f 104 110 108
f 106 112 107
f 107 112 113
f 108 110 114
f 108 114 109
f 109 114 115
f 110 111 116
f 110 116 114
f 111 117 116
f 112 118 113
f 113 118 119
f 114 116 115
f 115 116 120
f 115 120 121
f 116 117 122
f 116 122 120
f 117 123 122
f 118 124 119
f 119 124 125
f 120 122 126
f 120 126 127
f 120 127 121
f 121 127 128
f 122 123 126
f 123 129 133
f 123 133 126
f 124 130 125
f 125 130 132
f 125 132 131
f 126 133 127
f 127 133 128
f 128 133 134
f 128 134 135
f 129 136 137
f 129 137 133
f 131 132 138
f 132 139 140
f 132 140 138
f 133 137 134
f 134 137 135
f 135 137 141
f 136 142 143
f 136 143 137
f 137 143 141
f 139 144 145
f 139 145 140
f 141 143 146
f 141 146 147
f 142 148 143
f 143 148 149
f 143 149 146
f 144 150 145
f 145 150 151
f 146 149 147
f 147 149 153
f 147 153 154
f 147 154 152
f 148 155 153
f 148 153 149
f 150 156 157
f 150 157 151
f 150 158 163
f 150 163 168
f 150 168 167
f 150 167 162
f 150 162 156
f 152 154 159
f 153 155 160
f 153 160 161
f 153 161 154
f 154 161 159
f 156 162 157
f 158 159 163
f 159 161 164
f 159 164 163
f 160 165 166
f 160 166 161
f 161 166 164
f 163 164 166
f 163 166 168
f 165 167 168
f 165 168 166
