v -0.003725 0.014329 0.034562
v -0.003725 0.013997 0.034891
v -0.003333 0.014417 0.034562
v -0.003725 -0.004490 0.034562
v -0.003725 0.013600 0.035280
v -0.003333 0.013669 0.035297
v -0.002578 0.014535 0.034562
v -0.003145 0.013701 0.035297
v -0.002591 0.013793 0.035297
v 0.012594 -0.004490 0.034562
v -0.003725 -0.004490 0.035297
v -0.003725 0.013581 0.035297
v -0.001841 0.014614 0.034562
v -0.001849 0.013879 0.035294
v -0.001843 0.013877 0.035297
v 0.012460 -0.004490 0.034749
v 0.012762 -0.004079 0.034562
v 0.012010 -0.004490 0.035297
v -0.001111 0.014653 0.034562
v -0.001111 0.013920 0.035297
v 0.012049 -0.004490 0.035295
v 0.012766 -0.004070 0.034562
v 0.012180 -0.004074 0.035297
v -0.000369 0.014659 0.034562
v -0.000369 0.013924 0.035297
v 0.012963 -0.003498 0.034562
v 0.013019 -0.003332 0.034562
v 0.012954 -0.003521 0.034562
v 0.013224 -0.002591 0.034562
v 0.012362 -0.003332 0.035297
v 0.000392 0.014623 0.034562
v -0.000359 0.013924 0.035297
v 0.013618 0.000372 0.034562
v 0.013581 -0.000368 0.034562
v 0.013504 -0.001110 0.034562
v 0.013385 -0.001851 0.034562
v 0.012954 0.004876 0.034562
v 0.012643 -0.001843 0.035297
v 0.000373 0.013888 0.035297
v 0.001111 0.014443 0.034670
v 0.001111 0.014552 0.034562
v 0.013613 0.001113 0.034562
v 0.012886 0.000383 0.035297
v 0.012886 0.000372 0.035297
v 0.012849 -0.000370 0.035297
v 0.012769 -0.001099 0.035297
v 0.012767 -0.001110 0.035297
v 0.012715 0.005555 0.034562
v 0.012205 0.004818 0.035297
v 0.012954 0.004818 0.034581
v 0.012975 0.004816 0.034562
v 0.012978 0.004805 0.034562
v 0.013188 0.004074 0.034562
v 0.013356 0.003334 0.034562
v 0.013484 0.002590 0.034562
v 0.013569 0.001853 0.034562
v 0.001111 0.013813 0.035297
v 0.001853 0.014443 0.034562
v 0.012881 0.001118 0.035297
v 0.012409 0.006291 0.034562
v 0.011929 0.005555 0.035297
v 0.012431 0.004074 0.035297
v 0.012610 0.003334 0.035297
v 0.012744 0.002593 0.035297
v 0.012834 0.001855 0.035297
v 0.001857 0.013697 0.035297
v 0.002595 0.014293 0.034562
v 0.012407 0.006295 0.034562
v 0.012221 0.006295 0.034734
v 0.011601 0.006295 0.035297
v 0.002595 0.013538 0.035297
v 0.003349 0.014098 0.034562
v 0.012219 0.006693 0.034562
v 0.012051 0.007034 0.034562
v 0.011481 0.006535 0.035297
v 0.003351 0.013333 0.035297
v 0.003334 0.013341 0.035294
v 0.003334 0.013703 0.034947
v 0.004075 0.013870 0.034562
v 0.011635 0.007772 0.034562
v 0.011481 0.007036 0.035065
v 0.011216 0.007036 0.035297
v 0.004075 0.013092 0.035297
v 0.004075 0.013703 0.034720
v 0.004532 0.013701 0.034562
v 0.011481 0.008022 0.034562
v 0.011481 0.007774 0.034694
v 0.010769 0.007774 0.035297
v 0.004410 0.012959 0.035297
v 0.004824 0.013588 0.034562
v 0.011155 0.008518 0.034562
v 0.010737 0.007825 0.035297
v 0.004814 0.012797 0.035297
v 0.005552 0.013266 0.034562
v 0.010737 0.009088 0.034562
v 0.010739 0.008518 0.034903
v 0.010251 0.008518 0.035297
v 0.005552 0.012449 0.035297
v 0.005552 0.012960 0.034837
v 0.006153 0.012960 0.034562
v 0.010605 0.009259 0.034562
v 0.009999 0.008841 0.035297
v 0.005979 0.012222 0.035297
v 0.006306 0.012882 0.034562
v 0.009999 0.009975 0.034562
v 0.009999 0.009259 0.035033
v 0.009652 0.009259 0.035297
v 0.006293 0.012046 0.035297
v 0.006294 0.012222 0.035144
v 0.007036 0.012453 0.034562
v 0.009976 0.009999 0.034562
v 0.009257 0.009692 0.035297
v 0.007036 0.011581 0.035294
v 0.007036 0.012222 0.034759
v 0.007036 0.011577 0.035297
v 0.007389 0.012222 0.034562
v 0.009252 0.010737 0.034562
v 0.009258 0.009999 0.035084
v 0.008960 0.009995 0.035297
v 0.007775 0.011956 0.034562
v 0.007174 0.011478 0.035297
v 0.007776 0.011478 0.034946
v 0.008515 0.011386 0.034562
v 0.008516 0.010739 0.035055
v 0.008515 0.010415 0.035297
v 0.008403 0.011478 0.034562
v 0.007776 0.011037 0.035297
v 0.008145 0.010737 0.035297
f 1 2 3
f 1 3 7
f 1 7 13
f 1 13 19
f 1 19 24
f 1 24 31
f 1 31 41
f 1 41 58
f 1 58 67
f 1 67 72
f 1 72 79
f 1 79 85
f 1 85 90
f 1 90 94
f 1 94 100
f 1 100 104
f 1 104 110
f 1 110 116
f 1 116 120
f 1 120 126
f 1 126 123
f 1 123 117
f 1 117 111
f 1 111 105
f 1 105 101
f 1 101 95
f 1 95 91
f 1 91 86
f 1 86 80
f 1 80 74
f 1 74 73
f 1 73 68
f 1 68 60
f 1 60 48
f 1 48 37
f 1 37 28
f 1 28 22
f 1 22 17
f 1 17 10
f 1 10 4
f 1 4 11
f 1 11 12
f 1 12 5
f 1 5 2
f 2 5 6
f 2 6 3
f 3 6 8
f 3 8 9
f 3 9 7
f 4 10 16
f 4 16 21
f 4 21 18
f 4 18 11
f 5 12 6
f 6 12 11
f 6 11 18
f 6 18 23
f 6 23 30
f 6 30 38
f 6 38 47
f 6 47 46
f 6 46 45
f 6 45 44
f 6 44 43
f 6 43 59
f 6 59 65
f 6 65 64
f 6 64 63
f 6 63 62
f 6 62 49
f 6 49 61
f 6 61 70
f 6 70 75
f 6 75 82
f 6 82 88
f 6 88 92
f 6 92 97
f 6 97 102
f 6 102 107
f 6 107 112
f 6 112 119
f 6 119 125
f 6 125 128
f 6 128 127
f 6 127 121
f 6 121 115
f 6 115 108
f 6 108 103
f 6 103 98
f 6 98 93
f 6 93 89
f 6 89 83
f 6 83 76
f 6 76 71
f 6 71 66
f 6 66 57
f 6 57 39
f 6 39 32
f 6 32 25
f 6 25 20
f 6 20 15
f 6 15 9
f 6 9 8
f 7 9 14
f 7 14 13
f 9 15 14
f 10 17 16
f 13 14 15
f 13 15 20
f 13 20 19
f 16 17 21
f 17 22 21
f 18 21 23
f 19 20 24
f 20 25 24
f 21 22 26
f 21 26 27
f 21 27 23
f 22 28 26
f 23 27 29
f 23 29 30
f 24 25 32
f 24 32 31
f 26 28 27
f 27 28 29
f 28 33 34
f 28 34 35
f 28 35 36
f 28 36 29
f 28 37 33
f 29 36 30
f 30 36 38
f 31 32 39
f 31 39 40
f 31 40 41
f 33 42 43
f 33 43 44
f 33 44 45
f 33 45 34
f 33 37 42
f 34 45 35
f 35 45 46
f 35 46 47
f 35 47 36
f 36 47 38
f 37 48 49
f 37 49 50
f 37 50 51
f 37 51 52
f 37 52 53
f 37 53 54
f 37 54 55
f 37 55 56
f 37 56 42
f 39 57 40
f 40 58 41
f 40 57 58
f 42 56 59
f 42 59 43
f 48 60 61
f 48 61 49
f 49 62 50
f 50 62 53
f 50 53 52
f 50 52 51
f 53 62 63
f 53 63 54
f 54 63 64
f 54 64 55
f 55 64 65
f 55 65 56
f 56 65 59
f 57 66 58
f 58 66 67
f 60 68 69
f 60 69 61
f 61 69 70
f 66 71 67
f 67 71 72
f 68 73 69
f 69 73 70
f 70 73 74
f 70 74 75
f 71 76 77
f 71 77 78
f 71 78 72
f 72 78 79
f 74 80 81
f 74 81 75
f 75 81 82
f 76 83 84
f 76 84 79
f 76 79 78
f 76 78 77
f 79 84 85
f 80 86 87
f 80 87 82
f 80 82 81
f 82 87 88
f 83 89 90
f 83 90 85
f 83 85 84
f 86 91 92
f 86 92 88
f 86 88 87
f 89 93 90
f 90 93 94
f 91 95 96
f 91 96 92
f 92 96 97
f 93 98 99
f 93 99 94
f 94 99 100
f 95 101 97
f 95 97 96
f 97 101 102
f 98 103 104
f 98 104 100
f 98 100 99
f 101 105 106
f 101 106 102
f 102 106 107
f 103 108 109
f 103 109 104
f 104 109 110
f 105 111 107
f 105 107 106
f 107 111 112
f 108 113 114
f 108 114 110
f 108 110 109
f 108 115 113
f 110 114 116
f 111 117 118
f 111 118 112
f 112 118 119
f 113 120 116
f 113 116 114
f 113 115 121
f 113 121 122
f 113 122 120
f 117 123 124
f 117 124 125
f 117 125 119
f 117 119 118
f 120 122 126
f 121 127 122
f 122 127 126
f 123 126 128
f 123 128 124
f 124 128 125
f 126 127 128
