v -0.013499 0.000371 0.025736
v -0.012963 -0.002586 0.025002
v -0.012960 -0.004072 0.025002
v -0.013463 -0.000369 0.025736
v -0.013494 0.001111 0.025736
v -0.013494 0.001111 0.025735
v -0.012960 0.004074 0.025002
v -0.012963 0.003343 0.025002
v -0.012222 -0.005042 0.025736
v -0.012331 -0.004812 0.025736
v -0.012637 -0.004069 0.025736
v -0.012893 -0.003329 0.025736
v -0.012963 -0.003086 0.025736
v -0.013101 -0.002589 0.025736
v -0.013264 -0.001849 0.025736
v -0.013384 -0.001109 0.025736
v -0.011478 -0.007035 0.025002
v -0.011969 -0.005552 0.025736
v -0.013449 0.001851 0.025736
v -0.013449 0.001851 0.025735
v -0.013362 0.002591 0.025735
v -0.013235 0.003331 0.025736
v -0.013064 0.004074 0.025736
v -0.012851 0.004814 0.025736
v -0.012219 0.006294 0.025002
v -0.010737 -0.008516 0.025002
v -0.011660 -0.006100 0.025736
v -0.011548 -0.006295 0.025736
v -0.013362 0.002591 0.025736
v -0.012590 0.005549 0.025736
v -0.012278 0.006294 0.025736
v -0.012219 0.006416 0.025736
v -0.011913 0.007037 0.025736
v -0.011478 0.007777 0.025002
v -0.009257 -0.009996 0.025002
v -0.009833 -0.008518 0.025736
v -0.010001 -0.008337 0.025736
v -0.010490 -0.007775 0.025736
v -0.010737 -0.007464 0.025736
v -0.011057 -0.007035 0.025736
v -0.011481 -0.006403 0.025736
v -0.011492 0.007777 0.025736
v -0.011006 0.008520 0.025736
v -0.010737 0.008886 0.025736
v -0.010453 0.009255 0.025736
v -0.009998 0.009793 0.025736
v -0.009805 0.010003 0.025736
v -0.009255 0.010562 0.025736
v -0.010737 0.008520 0.025002
v -0.008516 -0.010736 0.025002
v -0.009257 -0.009083 0.025736
v -0.007775 -0.011470 0.025002
v -0.009066 0.010740 0.025736
v -0.007034 0.012218 0.025002
v -0.009058 -0.009258 0.025736
v -0.007775 -0.010257 0.025736
v -0.008137 -0.009998 0.025736
v -0.008516 -0.009712 0.025736
v -0.005551 -0.012945 0.025002
v -0.008516 0.011225 0.025736
v -0.008205 0.011480 0.025736
v -0.007772 0.011804 0.025735
v -0.007037 0.012311 0.025736
v -0.006293 0.012751 0.025736
v -0.005891 0.012961 0.025735
v -0.005554 0.013131 0.025736
v -0.005551 0.012961 0.025002
v -0.007719 -0.010293 0.025736
v -0.003331 -0.013696 0.025002
v -0.003331 -0.012443 0.025736
v -0.003954 -0.012222 0.025736
v -0.004072 -0.012176 0.025736
v -0.004799 -0.011864 0.025736
v -0.006295 -0.011124 0.025736
v -0.007011 -0.010739 0.025736
v -0.007772 0.011804 0.025736
v -0.005891 0.012961 0.025736
v -0.004813 0.013460 0.025736
v -0.004072 0.013701 0.025002
v -0.000366 -0.014422 0.025002
v -0.002592 -0.012658 0.025736
v -0.004072 0.013740 0.025736
v -0.003334 0.013976 0.025736
v -0.002590 0.014169 0.025735
v -0.001851 0.014319 0.025736
v -0.000369 0.014441 0.025002
v 0.000375 -0.014428 0.025002
v 0.000372 -0.013069 0.025736
v -0.000369 -0.013030 0.025736
v -0.001012 -0.012962 0.025736
v -0.001110 -0.012950 0.025736
v -0.001851 -0.012825 0.025736
v -0.002590 0.014169 0.025736
v -0.001113 0.014429 0.025736
v -0.000369 0.014503 0.025735
v 0.000372 0.014534 0.025735
v 0.001849 0.014441 0.025002
v 0.001835 -0.014428 0.025002
v 0.001108 -0.013064 0.025736
v -0.000369 0.014503 0.025736
v 0.000372 0.014534 0.025736
v 0.001105 0.014531 0.025735
v 0.002587 0.014410 0.025735
v 0.002747 0.014387 0.025736
v 0.003331 0.014293 0.025735
v 0.004070 0.014134 0.025735
v 0.004814 0.013701 0.025002
v 0.001849 0.014492 0.025735
v 0.004808 -0.013699 0.025002
v 0.004072 -0.012621 0.025736
v 0.003328 -0.012797 0.025736
v 0.002587 -0.012928 0.025736
v 0.001849 -0.013018 0.025736
v 0.001105 0.014531 0.025736
v 0.002587 0.014410 0.025736
v 0.003331 0.014293 0.025736
v 0.004070 0.014134 0.025736
v 0.004814 0.013936 0.025735
v 0.005538 0.013701 0.025735
v 0.007034 0.012961 0.025002
v 0.001849 0.014489 0.025736
v 0.007029 -0.012956 0.025002
v 0.004811 -0.012397 0.025736
v 0.004814 0.013936 0.025736
v 0.005535 0.013701 0.025736
v 0.005555 0.013695 0.025735
v 0.006293 0.013411 0.025735
v 0.007034 0.013029 0.025735
v 0.007147 0.012961 0.025735
v 0.007775 0.012552 0.025735
v 0.009255 0.011480 0.025002
v 0.009255 -0.011476 0.025002
v 0.007773 -0.010988 0.025736
v 0.007034 -0.011428 0.025736
v 0.006293 -0.011805 0.025736
v 0.005552 -0.012128 0.025736
v 0.005299 -0.012222 0.025736
v 0.006293 0.013409 0.025736
v 0.007034 0.013026 0.025736
v 0.007144 0.012961 0.025736
v 0.007775 0.012552 0.025736
v 0.008242 0.012218 0.025735
v 0.008517 0.012014 0.025735
v 0.009162 0.011480 0.025736
v 0.009255 0.011395 0.025736
v 0.009999 0.010692 0.025735
v 0.012220 0.008517 0.025002
v 0.011470 -0.009258 0.025002
v 0.009960 -0.009258 0.025736
v 0.009258 -0.009896 0.025736
v 0.009131 -0.009998 0.025736
v 0.008514 -0.010478 0.025736
v 0.008146 -0.010739 0.025736
v 0.008239 0.012218 0.025736
v 0.008517 0.012011 0.025736
v 0.009948 0.010738 0.025736
v 0.009999 0.010689 0.025736
v 0.010631 0.009997 0.025735
v 0.010737 0.009870 0.025736
v 0.011226 0.009257 0.025736
v 0.011478 0.008909 0.025735
v 0.011745 0.008517 0.025736
v 0.013699 0.006294 0.025002
v 0.012208 -0.008518 0.025002
v 0.009999 -0.009219 0.025736
v 0.010628 0.009997 0.025736
v 0.011476 0.008906 0.025736
v 0.012203 0.007777 0.025736
v 0.012220 0.007749 0.025736
v 0.012601 0.007037 0.025735
v 0.014440 0.004811 0.025002
v 0.013691 -0.006295 0.025002
v 0.011799 -0.007035 0.025736
v 0.011478 -0.007492 0.025736
v 0.011271 -0.007775 0.025736
v 0.010737 -0.008430 0.025736
v 0.010662 -0.008518 0.025736
v 0.012599 0.007037 0.025736
v 0.012944 0.006294 0.025736
v 0.013239 0.005554 0.025736
v 0.013486 0.004811 0.025736
v 0.015179 0.002585 0.025002
v 0.014426 -0.004812 0.025002
v 0.012666 -0.005533 0.025736
v 0.012644 -0.005575 0.025736
v 0.012363 -0.006100 0.025736
v 0.012256 -0.006295 0.025736
v 0.012220 -0.006358 0.025736
v 0.013694 0.004074 0.025736
v 0.013702 0.004037 0.025736
v 0.013859 0.003331 0.025735
v 0.013980 0.002591 0.025736
v 0.014061 0.001851 0.025736
v 0.014106 0.001111 0.025735
v 0.014109 0.000371 0.025736
v 0.015182 0.001108 0.025002
v 0.015148 -0.002589 0.025002
v 0.013539 -0.003304 0.025736
v 0.013289 -0.004069 0.025735
v 0.012997 -0.004812 0.025736
v 0.012961 -0.004892 0.025736
v 0.013856 0.003331 0.025736
v 0.014103 0.001111 0.025736
v 0.014073 -0.000369 0.025736
v 0.014075 -0.000369 0.025735
v 0.015176 -0.001849 0.025002
v 0.015179 -0.001109 0.025002
v 0.015182 0.000371 0.025002
v 0.014000 -0.001112 0.025736
v 0.013884 -0.001849 0.025736
v 0.013730 -0.002589 0.025736
v 0.013286 -0.004069 0.025736
f 1 2 3
f 1 3 4
f 1 4 16
f 1 16 15
f 1 15 14
f 1 14 13
f 1 13 12
f 1 12 11
f 1 11 10
f 1 10 9
f 1 9 18
f 1 18 28
f 1 28 41
f 1 41 40
f 1 40 39
f 1 39 38
f 1 38 37
f 1 37 36
f 1 36 51
f 1 51 55
f 1 55 58
f 1 58 57
f 1 57 56
f 1 56 68
f 1 68 75
f 1 75 74
f 1 74 73
f 1 73 72
f 1 72 71
f 1 71 70
f 1 70 81
f 1 81 92
f 1 92 91
f 1 91 90
f 1 90 89
f 1 89 88
f 1 88 99
f 1 99 113
f 1 113 112
f 1 112 111
f 1 111 110
f 1 110 123
f 1 123 137
f 1 137 136
f 1 136 135
f 1 135 134
f 1 134 133
f 1 133 153
f 1 153 152
f 1 152 151
f 1 151 150
f 1 150 149
f 1 149 165
f 1 165 177
f 1 177 176
f 1 176 175
f 1 175 174
f 1 174 173
f 1 173 188
f 1 188 187
f 1 187 186
f 1 186 185
f 1 185 184
f 1 184 201
f 1 201 200
f 1 200 212
f 1 212 198
f 1 198 211
f 1 211 210
f 1 210 209
f 1 209 204
f 1 204 195
f 1 195 203
f 1 203 193
f 1 193 192
f 1 192 202
f 1 202 190
f 1 190 189
f 1 189 181
f 1 181 180
f 1 180 179
f 1 179 178
f 1 178 169
f 1 169 168
f 1 168 162
f 1 162 167
f 1 167 160
f 1 160 159
f 1 159 166
f 1 166 157
f 1 157 156
f 1 156 145
f 1 145 144
f 1 144 155
f 1 155 154
f 1 154 141
f 1 141 140
f 1 140 139
f 1 139 138
f 1 138 125
f 1 125 124
f 1 124 117
f 1 117 116
f 1 116 115
f 1 115 121
f 1 121 114
f 1 114 101
f 1 101 100
f 1 100 94
f 1 94 85
f 1 85 93
f 1 93 83
f 1 83 82
f 1 82 78
f 1 78 66
f 1 66 77
f 1 77 64
f 1 64 63
f 1 63 76
f 1 76 61
f 1 61 60
f 1 60 53
f 1 53 48
f 1 48 47
f 1 47 46
f 1 46 45
f 1 45 44
f 1 44 43
f 1 43 42
f 1 42 33
f 1 33 32
f 1 32 31
f 1 31 30
f 1 30 24
f 1 24 23
f 1 23 22
f 1 22 29
f 1 29 19
f 1 19 5
f 1 5 6
f 1 6 7
f 1 7 8
f 1 8 2
f 2 8 7
f 2 7 25
f 2 25 34
f 2 34 49
f 2 49 54
f 2 54 67
f 2 67 79
f 2 79 86
f 2 86 97
f 2 97 107
f 2 107 120
f 2 120 131
f 2 131 147
f 2 147 163
f 2 163 171
f 2 171 182
f 2 182 196
f 2 196 208
f 2 208 207
f 2 207 206
f 2 206 197
f 2 197 183
f 2 183 172
f 2 172 164
f 2 164 148
f 2 148 132
f 2 132 122
f 2 122 109
f 2 109 98
f 2 98 87
f 2 87 80
f 2 80 69
f 2 69 59
f 2 59 52
f 2 52 50
f 2 50 35
f 2 35 26
f 2 26 17
f 2 17 3
f 3 9 10
f 3 10 11
f 3 11 12
f 3 12 13
f 3 13 14
f 3 14 15
f 3 15 16
f 3 16 4
f 3 17 18
f 3 18 9
f 5 19 20
f 5 20 6
f 6 20 7
f 7 20 21
f 7 21 22
f 7 22 23
f 7 23 24
f 7 24 25
f 17 26 18
f 18 26 27
f 18 27 28
f 19 29 21
f 19 21 20
f 21 29 22
f 24 30 25
f 25 30 31
f 25 31 32
f 25 32 33
f 25 33 34
f 26 35 36
f 26 36 37
f 26 37 38
f 26 38 39
f 26 39 40
f 26 40 41
f 26 41 28
f 26 28 27
f 33 42 34
f 34 42 43
f 34 43 44
f 34 44 45
f 34 45 46
f 34 46 47
f 34 47 48
f 34 48 49
f 35 50 36
f 36 50 52
f 36 52 51
f 48 53 54
f 48 54 49
f 51 52 55
f 52 56 57
f 52 57 58
f 52 58 55
f 52 59 56
f 53 60 54
f 54 61 62
f 54 62 63
f 54 63 64
f 54 64 65
f 54 65 66
f 54 66 67
f 54 60 61
f 56 59 68
f 59 69 70
f 59 70 71
f 59 71 72
f 59 72 73
f 59 73 74
f 59 74 75
f 59 75 68
f 61 76 62
f 62 76 63
f 64 77 65
f 65 77 66
f 66 78 79
f 66 79 67
f 69 80 81
f 69 81 70
f 78 82 79
f 79 82 83
f 79 83 84
f 79 84 85
f 79 85 86
f 80 87 88
f 80 88 89
f 80 89 90
f 80 90 91
f 80 91 92
f 80 92 81
f 83 93 84
f 84 93 85
f 85 94 86
f 86 94 95
f 86 95 96
f 86 96 97
f 87 98 88
f 88 98 99
f 94 100 95
f 95 100 101
f 95 101 96
f 96 101 114
f 96 114 102
f 96 102 97
f 97 103 104
f 97 104 105
f 97 105 106
f 97 106 107
f 97 102 108
f 97 108 103
f 98 109 110
f 98 110 111
f 98 111 112
f 98 112 113
f 98 113 99
f 102 114 108
f 103 115 104
f 103 108 115
f 104 115 116
f 104 116 105
f 105 116 117
f 105 117 106
f 106 117 124
f 106 124 118
f 106 118 107
f 107 118 119
f 107 119 120
f 108 114 121
f 108 121 115
f 109 122 123
f 109 123 110
f 118 124 119
f 119 124 125
f 119 125 126
f 119 126 120
f 120 126 127
f 120 127 128
f 120 128 129
f 120 129 130
f 120 130 131
f 122 132 133
f 122 133 134
f 122 134 135
f 122 135 136
f 122 136 137
f 122 137 123
f 125 138 127
f 125 127 126
f 127 138 139
f 127 139 128
f 128 139 140
f 128 140 129
f 129 140 141
f 129 141 130
f 130 141 142
f 130 142 131
f 131 142 143
f 131 143 144
f 131 144 145
f 131 145 146
f 131 146 147
f 132 148 149
f 132 149 150
f 132 150 151
f 132 151 152
f 132 152 153
f 132 153 133
f 141 154 142
f 142 154 143
f 143 155 144
f 143 154 155
f 145 156 146
f 146 156 157
f 146 157 158
f 146 158 147
f 147 158 159
f 147 159 160
f 147 160 161
f 147 161 162
f 147 162 163
f 148 164 149
f 149 164 165
f 157 166 158
f 158 166 159
f 160 167 161
f 161 167 162
f 162 168 163
f 163 168 169
f 163 169 170
f 163 170 171
f 164 172 173
f 164 173 174
f 164 174 175
f 164 175 176
f 164 176 177
f 164 177 165
f 169 178 170
f 170 178 179
f 170 179 171
f 171 179 180
f 171 180 181
f 171 181 182
f 172 183 184
f 172 184 185
f 172 185 186
f 172 186 187
f 172 187 188
f 172 188 173
f 181 189 182
f 182 189 190
f 182 190 191
f 182 191 192
f 182 192 193
f 182 193 194
f 182 194 195
f 182 195 196
f 183 197 198
f 183 198 199
f 183 199 200
f 183 200 201
f 183 201 184
f 190 202 191
f 191 202 192
f 193 203 194
f 194 203 195
f 195 204 205
f 195 205 197
f 195 197 206
f 195 206 207
f 195 207 208
f 195 208 196
f 197 205 209
f 197 209 210
f 197 210 211
f 197 211 198
f 198 212 199
f 199 212 200
f 204 209 205
