v 0.000368 -0.013765 0.033373
v 0.001109 -0.013759 0.033373
v -0.000368 -0.012950 0.034562
v -0.001110 -0.012944 0.034562
v -0.000368 -0.013729 0.033373
v 0.000384 -0.012911 0.034562
v 0.001851 -0.013715 0.033373
v -0.001743 -0.012905 0.034562
v -0.001852 -0.012897 0.034562
v -0.000616 -0.013704 0.033373
v 0.001882 -0.013712 0.033373
v 0.001963 -0.013704 0.033373
v 0.001118 -0.012830 0.034562
v -0.002560 -0.012813 0.034562
v -0.001110 -0.013651 0.033373
v -0.001035 -0.013659 0.033373
v 0.002590 -0.013631 0.033373
v 0.002693 -0.013615 0.033373
v 0.001857 -0.012705 0.034562
v -0.001852 -0.013534 0.033373
v -0.001651 -0.013567 0.033373
v -0.003318 -0.012677 0.034562
v 0.003332 -0.013506 0.033373
v 0.003443 -0.013481 0.033373
v 0.004073 -0.013339 0.033373
v 0.002590 -0.012535 0.034562
v -0.003332 -0.012674 0.034562
v -0.002590 -0.013375 0.033373
v 0.004489 -0.013222 0.033373
v 0.004079 -0.012115 0.034562
v -0.004065 -0.012499 0.034562
v -0.003332 -0.013169 0.033373
v 0.004815 -0.013128 0.033373
v 0.004815 -0.012961 0.033533
v 0.004815 -0.011884 0.034562
v -0.004815 -0.012273 0.034562
v -0.004074 -0.012922 0.033373
v 0.005080 -0.013039 0.033373
v 0.005554 -0.012872 0.033373
v 0.005554 -0.012390 0.033824
v 0.005556 -0.011600 0.034562
v -0.004958 -0.012221 0.034562
v -0.005554 -0.011998 0.034562
v -0.004684 -0.012674 0.033373
v 0.005618 -0.012847 0.033373
v 0.005824 -0.011480 0.034562
v 0.006042 -0.012674 0.033373
v 0.006189 -0.012613 0.033373
v 0.006295 -0.012568 0.033373
v 0.006295 -0.012221 0.033692
v -0.006285 -0.011678 0.034562
v -0.004813 -0.012621 0.033373
v 0.006295 -0.012076 0.033824
v 0.006295 -0.011263 0.034562
v 0.006686 -0.012385 0.033373
v -0.006296 -0.011672 0.034562
v -0.005554 -0.012271 0.033373
v 0.007026 -0.012221 0.033373
v 0.007037 -0.012215 0.033373
v 0.007037 -0.011706 0.033824
v 0.007037 -0.011480 0.034023
v 0.007037 -0.010868 0.034562
v -0.006672 -0.011483 0.034562
v -0.007035 -0.011291 0.034562
v -0.006162 -0.011934 0.033373
v 0.007547 -0.011934 0.033373
v 0.007701 -0.011848 0.033373
v 0.007776 -0.011803 0.033373
v 0.007776 -0.011480 0.033652
v 0.007246 -0.010740 0.034562
v -0.006296 -0.011859 0.033373
v -0.007779 -0.010846 0.034562
v 0.008144 -0.011578 0.033373
v 0.007776 -0.010740 0.034279
v 0.007776 -0.010404 0.034562
v -0.006926 -0.011458 0.033373
v -0.007938 -0.010740 0.034562
v 0.008517 -0.011333 0.033373
v 0.008517 -0.010740 0.033861
v 0.008345 -0.009997 0.034562
v -0.007035 -0.011383 0.033373
v -0.008521 -0.010331 0.034562
v 0.008715 -0.011194 0.033373
v 0.009259 -0.010793 0.033373
v 0.009259 -0.010740 0.033416
v 0.008517 -0.009869 0.034562
v -0.007054 -0.011369 0.033373
v -0.008942 -0.010000 0.034562
v -0.007776 -0.010835 0.033373
v -0.007300 -0.011194 0.033373
v 0.009326 -0.010740 0.033373
v 0.009674 -0.010454 0.033373
v 0.009259 -0.010214 0.033824
v 0.009259 -0.009997 0.033992
v 0.009259 -0.009249 0.034562
v -0.009257 -0.009739 0.034562
v -0.007893 -0.010740 0.033373
v 0.009998 -0.010173 0.033373
v 0.009998 -0.008523 0.034562
v 0.009998 -0.009997 0.033504
v 0.010188 -0.009997 0.033373
v 0.009998 -0.009560 0.033824
v 0.009998 -0.009257 0.034043
v -0.009274 -0.009725 0.034562
v -0.008231 -0.010454 0.033373
v 0.010006 -0.008514 0.034562
v 0.010489 -0.009711 0.033373
v -0.008518 -0.010198 0.033373
v -0.009787 -0.009257 0.034562
v 0.010740 -0.009457 0.033373
v 0.010740 -0.009257 0.033514
v 0.010929 -0.009257 0.033373
v 0.011188 -0.008971 0.033373
v 0.010740 -0.008517 0.034013
v 0.010650 -0.007777 0.034562
v -0.008727 -0.009997 0.033373
v -0.009998 -0.009051 0.034562
v 0.011481 -0.008631 0.033373
v 0.010740 -0.007663 0.034562
v 0.011481 -0.008517 0.033447
v 0.011799 -0.008230 0.033373
v -0.009014 -0.009711 0.033373
v -0.010503 -0.008517 0.034562
v -0.009218 -0.009499 0.033373
v 0.011573 -0.008517 0.033373
v 0.011481 -0.007908 0.033824
v 0.011481 -0.007777 0.033904
v 0.011205 -0.007037 0.034562
v 0.012136 -0.007777 0.033373
v -0.010743 -0.008242 0.034562
v -0.009692 -0.008971 0.033373
v -0.009438 -0.009257 0.033373
v -0.009257 -0.009457 0.033373
v 0.011481 -0.007037 0.034336
v 0.011481 -0.006625 0.034562
v 0.012220 -0.007652 0.033373
v 0.012095 -0.007037 0.033824
v -0.011122 -0.007777 0.034562
v -0.010314 -0.008230 0.033373
v -0.009998 -0.008612 0.033373
v 0.011690 -0.006291 0.034562
v 0.012624 -0.007037 0.033373
v 0.012220 -0.007037 0.033717
v -0.010743 -0.007646 0.033373
v -0.011479 -0.007290 0.034562
v 0.012797 -0.006750 0.033373
v 0.012220 -0.006294 0.034102
v 0.012106 -0.005554 0.034562
v -0.010854 -0.007490 0.033373
v -0.011657 -0.007037 0.034562
v 0.012541 -0.006294 0.033824
v 0.012962 -0.006461 0.033373
v 0.012109 -0.005548 0.034562
v 0.012962 -0.006294 0.033456
v 0.012962 -0.005554 0.033795
v -0.011320 -0.006750 0.033373
v -0.012117 -0.006299 0.034562
v 0.013054 -0.006294 0.033373
v 0.012220 -0.005320 0.034562
v 0.013427 -0.005554 0.033373
v 0.012463 -0.004813 0.034562
v -0.012221 -0.006116 0.034562
v -0.012522 -0.005556 0.034562
v -0.011719 -0.006007 0.033373
v 0.013263 -0.004813 0.033824
v 0.012962 -0.004813 0.034102
v 0.013703 -0.004869 0.033373
v 0.012767 -0.004070 0.034562
v -0.012867 -0.004813 0.034562
v -0.012062 -0.005267 0.033373
v 0.012962 -0.004073 0.034377
v 0.013547 -0.004073 0.033824
v 0.013723 -0.004813 0.033373
v 0.012962 -0.003500 0.034562
v -0.012962 -0.004582 0.034562
v -0.013160 -0.004076 0.034562
v -0.012349 -0.004527 0.033373
v 0.013017 -0.003333 0.034562
v 0.013703 -0.003597 0.033824
v 0.014041 -0.003787 0.033373
v 0.013787 -0.003333 0.033824
v -0.013406 -0.003336 0.034562
v -0.012589 -0.003787 0.033373
v 0.013224 -0.002590 0.034562
v 0.013703 -0.003333 0.033905
v 0.013982 -0.002590 0.033824
v 0.014211 -0.003044 0.033373
v 0.013703 -0.002590 0.034096
v -0.013606 -0.002599 0.034562
v -0.012778 -0.003044 0.033373
v 0.013385 -0.001850 0.034562
v 0.013703 -0.001850 0.034249
v 0.014135 -0.001850 0.033824
v 0.014336 -0.002334 0.033373
v -0.013765 -0.001850 0.034562
v -0.012859 -0.002590 0.033373
v 0.013503 -0.001115 0.034562
v 0.014247 -0.001110 0.033824
v 0.013703 -0.001110 0.034364
v 0.014412 -0.001728 0.033373
v -0.013880 -0.001113 0.034562
v -0.012979 -0.001850 0.033373
v 0.013581 -0.000372 0.034562
v 0.014320 -0.000370 0.033824
v 0.013703 -0.000370 0.034440
v 0.014462 -0.001110 0.033373
v -0.013955 -0.000372 0.034562
v -0.013085 -0.000823 0.033373
v 0.013617 0.000368 0.034562
v 0.014353 0.000370 0.033824
v 0.013703 0.000370 0.034476
v 0.014492 -0.000370 0.033373
v -0.013991 0.000370 0.034562
v -0.013102 -0.000083 0.033373
v 0.013617 0.000370 0.034562
v 0.014350 0.001111 0.033824
v 0.013703 0.001111 0.034472
v 0.014484 0.000370 0.033373
v -0.013986 0.001111 0.034562
v -0.013077 0.000657 0.033373
v 0.013611 0.001111 0.034562
v 0.014308 0.001851 0.033824
v 0.013703 0.001851 0.034427
v 0.013567 0.001851 0.034562
v 0.014437 0.001111 0.033373
v -0.013944 0.001845 0.034562
v -0.013018 0.001283 0.033373
v 0.014227 0.002591 0.033824
v 0.013703 0.002591 0.034344
v 0.013483 0.002591 0.034562
v 0.014322 0.002137 0.033373
v -0.013860 0.002588 0.034562
v -0.013857 0.002591 0.034559
v -0.012962 0.001670 0.033373
v 0.014108 0.003331 0.033824
v 0.013358 0.003328 0.034562
v 0.013703 0.003331 0.034221
v 0.014183 0.002878 0.033373
v -0.013737 0.003331 0.034562
v -0.012934 0.001851 0.033373
v 0.013946 0.004074 0.033824
v 0.013188 0.004074 0.034562
v 0.013703 0.004074 0.034062
v 0.014004 0.003618 0.033373
v -0.013570 0.004074 0.034559
v -0.013735 0.003331 0.034559
v -0.012798 0.002591 0.033373
v -0.013570 0.004074 0.034562
v 0.013745 0.004814 0.033824
v 0.013703 0.004814 0.033866
v 0.012976 0.004814 0.034562
v 0.013784 0.004361 0.033373
v -0.013369 0.004800 0.034562
v -0.012547 0.003618 0.033373
v 0.013703 0.004948 0.033824
v 0.013503 0.005554 0.033824
v 0.012962 0.005554 0.034332
v 0.012716 0.005554 0.034562
v 0.013519 0.005101 0.033373
v -0.013113 0.005557 0.034562
v -0.012324 0.004280 0.033373
v 0.013213 0.006294 0.033824
v 0.012410 0.006294 0.034562
v 0.012962 0.006294 0.034055
v 0.013204 0.005841 0.033373
v -0.012962 0.005936 0.034562
v -0.012962 0.005930 0.034559
v -0.012962 0.005554 0.034418
v -0.012327 0.005554 0.033824
v -0.011839 0.005554 0.033373
v 0.012962 0.006851 0.033824
v 0.012875 0.007035 0.033824
v 0.012220 0.006695 0.034559
v 0.012220 0.006687 0.034562
v 0.012842 0.006581 0.033373
v -0.012814 0.006297 0.034562
v -0.012814 0.006294 0.034559
v -0.011716 0.005841 0.033373
v 0.012485 0.007778 0.033824
v 0.012220 0.007035 0.034410
v 0.012050 0.007035 0.034562
v 0.012424 0.007321 0.033373
v -0.012466 0.007035 0.034562
v -0.012466 0.007035 0.034559
v -0.012221 0.006294 0.034016
v -0.012009 0.006294 0.033824
v -0.011490 0.006339 0.033373
v 0.012220 0.008226 0.033824
v 0.012220 0.007778 0.034055
v 0.011637 0.007778 0.034559
v 0.011632 0.007778 0.034562
v 0.011944 0.008064 0.033373
v 0.012042 0.008518 0.033824
v -0.012463 0.007040 0.034562
v -0.012221 0.007494 0.034559
v -0.012221 0.007035 0.034340
v -0.011638 0.007035 0.033824
v -0.011122 0.007035 0.033373
v 0.011478 0.008025 0.034562
v 0.011481 0.008693 0.033373
v 0.011481 0.009330 0.033824
v 0.011534 0.009258 0.033824
v 0.011481 0.008518 0.034293
v -0.012221 0.007494 0.034562
v -0.012064 0.007778 0.034559
v -0.010955 0.007321 0.033373
v 0.011155 0.008518 0.034562
v 0.010740 0.009570 0.033373
v 0.010940 0.009998 0.033824
v 0.011481 0.009258 0.033867
v 0.010740 0.009258 0.034458
v 0.010737 0.009088 0.034562
v -0.012064 0.007778 0.034562
v -0.011602 0.008518 0.034559
v -0.011479 0.007778 0.034056
v -0.010740 0.007778 0.033429
v -0.010673 0.007778 0.033373
v -0.011206 0.007778 0.033824
v 0.010305 0.009998 0.033373
v 0.010740 0.009998 0.033673
v 0.010609 0.009255 0.034562
v 0.010740 0.010207 0.033824
v 0.009981 0.009998 0.034559
v 0.009998 0.009976 0.034562
v -0.011602 0.008518 0.034562
v -0.011482 0.008693 0.034562
v -0.011479 0.008696 0.034559
v -0.011479 0.008518 0.034456
v -0.010740 0.008476 0.033824
v -0.010475 0.008064 0.033373
v 0.009998 0.010279 0.033373
v 0.010154 0.010738 0.033824
v 0.009259 0.010735 0.034559
v 0.009256 0.010733 0.034562
v -0.011075 0.009258 0.034559
v -0.011075 0.009258 0.034562
v -0.010740 0.008518 0.033848
v -0.010149 0.008518 0.033373
v 0.009415 0.010769 0.033373
v 0.009998 0.010738 0.033720
v 0.009998 0.010875 0.033824
v 0.008517 0.011389 0.034559
v 0.008515 0.011387 0.034562
v -0.010740 0.009678 0.034559
v -0.010740 0.009258 0.034292
v -0.010740 0.009678 0.034562
v -0.010029 0.008674 0.033373
v 0.009259 0.010891 0.033373
v 0.009259 0.011459 0.033824
v 0.008403 0.011481 0.034559
v 0.008403 0.011478 0.034562
v -0.010470 0.009998 0.034559
v -0.009998 0.009258 0.033716
v -0.010470 0.009998 0.034562
v -0.009544 0.009258 0.033373
v 0.009081 0.011028 0.033373
v 0.008579 0.011387 0.033373
v 0.008517 0.011481 0.033415
v 0.008517 0.011968 0.033824
v 0.007394 0.012221 0.034559
v 0.007776 0.011957 0.034559
v 0.007773 0.011954 0.034562
v -0.010001 0.010513 0.034562
v -0.009998 0.010513 0.034559
v -0.009998 0.009998 0.034205
v -0.009257 0.009572 0.033373
v 0.008517 0.011428 0.033373
v 0.008439 0.011481 0.033373
v 0.007988 0.011768 0.033373
v 0.008108 0.012221 0.033824
v 0.007037 0.012455 0.034559
v 0.007037 0.012452 0.034562
v 0.007388 0.012221 0.034562
v -0.009775 0.010738 0.034562
v -0.009778 0.010738 0.034559
v -0.009257 0.009998 0.033666
v -0.008841 0.009998 0.033373
v 0.007776 0.011896 0.033373
v 0.007776 0.012221 0.033653
v 0.007776 0.012416 0.033824
v 0.006295 0.012892 0.034559
v 0.006293 0.012889 0.034562
v -0.009260 0.011231 0.034562
v -0.009257 0.011234 0.034559
v -0.009257 0.010738 0.034194
v -0.009257 0.010221 0.033824
v -0.008518 0.010304 0.033373
v 0.007190 0.012221 0.033373
v 0.007140 0.012249 0.033373
v 0.007037 0.012305 0.033373
v 0.007037 0.012808 0.033824
v 0.006161 0.012961 0.034559
v 0.006159 0.012959 0.034562
v -0.008975 0.011481 0.034562
v -0.008975 0.011481 0.034559
v -0.008518 0.010738 0.033695
v -0.008016 0.010738 0.033373
v 0.006613 0.012508 0.033373
v 0.006295 0.012655 0.033373
v 0.006705 0.012961 0.033824
v 0.005554 0.013268 0.034559
v 0.005554 0.013265 0.034562
v -0.008518 0.011860 0.034559
v -0.008515 0.011860 0.034562
v -0.008518 0.011481 0.034261
v -0.008518 0.010908 0.033824
v -0.007776 0.010936 0.033373
v 0.006295 0.012961 0.033653
v 0.005554 0.012959 0.033373
v 0.006295 0.013145 0.033824
v 0.004815 0.013596 0.034559
v 0.004812 0.013593 0.034562
v -0.008036 0.012221 0.034559
v -0.007776 0.011481 0.033804
v -0.008036 0.012221 0.034562
v -0.007035 0.011481 0.033373
v 0.005071 0.013126 0.033373
v 0.005554 0.013437 0.033824
v 0.004530 0.013702 0.034559
v 0.004530 0.013699 0.034562
v -0.007776 0.012408 0.034559
v -0.007776 0.012221 0.034405
v -0.007774 0.012408 0.034562
v -0.007035 0.012021 0.033824
v -0.006591 0.011768 0.033373
v 0.004815 0.013212 0.033373
v 0.004815 0.013682 0.033824
v 0.004073 0.013871 0.034559
v 0.004073 0.013869 0.034562
v -0.007035 0.012889 0.034559
v -0.007035 0.012221 0.033991
v -0.007035 0.012886 0.034562
v -0.006296 0.011951 0.033373
v 0.004073 0.013421 0.033373
v 0.004073 0.013885 0.033824
v 0.003332 0.014105 0.034559
v 0.003332 0.014102 0.034562
v -0.006906 0.012961 0.034562
v -0.006909 0.012961 0.034559
v -0.006296 0.012221 0.033606
v -0.005961 0.012138 0.033373
v 0.003332 0.013588 0.033373
v 0.003332 0.014044 0.033824
v 0.002590 0.014297 0.034559
v 0.002595 0.014292 0.034562
v -0.006296 0.013307 0.034562
v -0.006296 0.013307 0.034559
v -0.006296 0.012961 0.034253
v -0.005811 0.012221 0.033373
v 0.002604 0.013710 0.033373
v 0.002590 0.014166 0.033824
v 0.001851 0.014445 0.034559
v 0.001851 0.014442 0.034562
v -0.005551 0.013674 0.034562
v -0.005554 0.013674 0.034559
v -0.005554 0.012961 0.033913
v -0.005554 0.012861 0.033824
v -0.005554 0.012358 0.033373
v 0.001851 0.013793 0.033373
v 0.001851 0.014247 0.033824
v 0.001109 0.014556 0.034559
v 0.001109 0.014553 0.034562
v -0.005487 0.013702 0.034562
v -0.005490 0.013702 0.034559
v -0.004813 0.013198 0.033824
v -0.004813 0.012961 0.033606
v -0.004813 0.012708 0.033373
v -0.005242 0.012508 0.033373
v 0.001282 0.013830 0.033373
v 0.001109 0.014289 0.033824
v 0.000368 0.014625 0.034559
v 0.000387 0.014623 0.034562
v -0.004813 0.013988 0.034562
v -0.004813 0.013991 0.034559
v -0.004481 0.012845 0.033373
v 0.001109 0.013838 0.033373
v 0.000368 0.013844 0.033373
v 0.000368 0.014292 0.033824
v -0.000368 0.014662 0.034559
v -0.000357 0.014656 0.034562
v -0.004074 0.014255 0.034562
v -0.004074 0.014258 0.034559
v -0.004074 0.013702 0.034030
v -0.004074 0.013485 0.033824
v -0.004074 0.013006 0.033373
v -0.000368 0.013807 0.033373
v -0.000368 0.014258 0.033824
v -0.001110 0.014656 0.034559
v -0.001110 0.014653 0.034562
v -0.000368 0.014656 0.034562
v -0.003332 0.014417 0.034562
v -0.003332 0.014420 0.034559
v -0.002590 0.013919 0.033824
v -0.003332 0.013724 0.033824
v -0.003332 0.013254 0.033373
v -0.001110 0.013732 0.033373
v -0.001110 0.014186 0.033824
v -0.001852 0.014614 0.034559
v -0.001852 0.014612 0.034562
v -0.002590 0.014534 0.034562
v -0.002590 0.014536 0.034559
v -0.001852 0.014072 0.033824
v -0.002590 0.013457 0.033373
v -0.001852 0.013615 0.033373
v -0.001679 0.013643 0.033373
f 1 2 3
f 1 3 4
f 1 4 5
f 1 5 10
f 1 10 16
f 1 16 15
f 1 15 21
f 1 21 20
f 1 20 28
f 1 28 32
f 1 32 37
f 1 37 44
f 1 44 52
f 1 52 57
f 1 57 65
f 1 65 71
f 1 71 76
f 1 76 81
f 1 81 87
f 1 87 90
f 1 90 89
f 1 89 97
f 1 97 105
f 1 105 108
f 1 108 116
f 1 116 122
f 1 122 124
f 1 124 133
f 1 133 132
f 1 132 131
f 1 131 140
f 1 140 139
f 1 139 144
f 1 144 149
f 1 149 156
f 1 156 164
f 1 164 170
f 1 170 177
f 1 177 183
f 1 183 190
f 1 190 196
f 1 196 202
f 1 202 208
f 1 208 214
f 1 214 220
f 1 220 227
f 1 227 234
f 1 234 240
f 1 240 247
f 1 247 254
f 1 254 261
f 1 261 270
f 1 270 278
f 1 278 287
f 1 287 298
f 1 298 306
f 1 306 317
f 1 317 330
f 1 330 338
f 1 338 347
f 1 347 355
f 1 355 366
f 1 366 377
f 1 377 387
f 1 387 397
f 1 397 407
f 1 407 416
f 1 416 425
f 1 425 433
f 1 433 441
f 1 441 449
f 1 449 458
f 1 458 468
f 1 468 467
f 1 467 475
f 1 475 485
f 1 485 495
f 1 495 503
f 1 503 504
f 1 504 505
f 1 505 496
f 1 496 486
f 1 486 477
f 1 477 476
f 1 476 469
f 1 469 459
f 1 459 450
f 1 450 442
f 1 442 434
f 1 434 426
f 1 426 417
f 1 417 409
f 1 409 399
f 1 399 398
f 1 398 390
f 1 390 389
f 1 389 388
f 1 388 378
f 1 378 369
f 1 369 368
f 1 368 367
f 1 367 357
f 1 357 356
f 1 356 348
f 1 348 339
f 1 339 331
f 1 331 319
f 1 319 308
f 1 308 300
f 1 300 292
f 1 292 282
f 1 282 275
f 1 275 265
f 1 265 259
f 1 259 252
f 1 252 244
f 1 244 238
f 1 238 231
f 1 231 225
f 1 225 218
f 1 218 212
f 1 212 206
f 1 206 200
f 1 200 194
f 1 194 187
f 1 187 180
f 1 180 173
f 1 173 167
f 1 167 160
f 1 160 158
f 1 158 152
f 1 152 146
f 1 146 142
f 1 142 136
f 1 136 129
f 1 129 121
f 1 121 125
f 1 125 118
f 1 118 113
f 1 113 112
f 1 112 110
f 1 110 107
f 1 107 101
f 1 101 98
f 1 98 92
f 1 92 91
f 1 91 84
f 1 84 83
f 1 83 78
f 1 78 73
f 1 73 68
f 1 68 67
f 1 67 66
f 1 66 59
f 1 59 58
f 1 58 55
f 1 55 49
f 1 49 48
f 1 48 47
f 1 47 45
f 1 45 39
f 1 39 38
f 1 38 33
f 1 33 29
f 1 29 25
f 1 25 24
f 1 24 23
f 1 23 18
f 1 18 17
f 1 17 12
f 1 12 11
f 1 11 7
f 1 7 2
f 2 6 3
f 2 7 6
f 3 6 13
f 3 13 19
f 3 19 26
f 3 26 30
f 3 30 35
f 3 35 41
f 3 41 46
f 3 46 54
f 3 54 62
f 3 62 70
f 3 70 75
f 3 75 80
f 3 80 86
f 3 86 95
f 3 95 99
f 3 99 106
f 3 106 115
f 3 115 119
f 3 119 128
f 3 128 135
f 3 135 141
f 3 141 148
f 3 148 153
f 3 153 159
f 3 159 161
f 3 161 168
f 3 168 174
f 3 174 178
f 3 178 184
f 3 184 191
f 3 191 197
f 3 197 203
f 3 203 209
f 3 209 215
f 3 215 221
f 3 221 224
f 3 224 230
f 3 230 236
f 3 236 242
f 3 242 251
f 3 251 258
f 3 258 263
f 3 263 274
f 3 274 281
f 3 281 291
f 3 291 299
f 3 299 307
f 3 307 312
f 3 312 321
f 3 321 324
f 3 324 334
f 3 334 343
f 3 343 351
f 3 351 362
f 3 362 373
f 3 373 372
f 3 372 382
f 3 382 393
f 3 393 402
f 3 402 412
f 3 412 420
f 3 420 429
f 3 429 437
f 3 437 445
f 3 445 453
f 3 453 462
f 3 462 472
f 3 472 480
f 3 480 490
f 3 490 489
f 3 489 499
f 3 499 500
f 3 500 491
f 3 491 481
f 3 481 473
f 3 473 463
f 3 463 454
f 3 454 446
f 3 446 438
f 3 438 432
f 3 432 423
f 3 423 415
f 3 415 404
f 3 404 394
f 3 394 383
f 3 383 374
f 3 374 363
f 3 363 354
f 3 354 346
f 3 346 336
f 3 336 326
f 3 326 325
f 3 325 313
f 3 313 304
f 3 304 294
f 3 294 283
f 3 283 276
f 3 276 266
f 3 266 260
f 3 260 253
f 3 253 248
f 3 248 239
f 3 239 232
f 3 232 226
f 3 226 219
f 3 219 213
f 3 213 207
f 3 207 201
f 3 201 195
f 3 195 189
f 3 189 182
f 3 182 176
f 3 176 175
f 3 175 169
f 3 169 163
f 3 163 162
f 3 162 157
f 3 157 150
f 3 150 145
f 3 145 138
f 3 138 130
f 3 130 123
f 3 123 117
f 3 117 109
f 3 109 104
f 3 104 96
f 3 96 88
f 3 88 82
f 3 82 77
f 3 77 72
f 3 72 64
f 3 64 63
f 3 63 56
f 3 56 51
f 3 51 43
f 3 43 42
f 3 42 36
f 3 36 31
f 3 31 27
f 3 27 22
f 3 22 14
f 3 14 9
f 3 9 8
f 3 8 4
f 4 8 5
f 5 8 9
f 5 9 10
f 6 7 11
f 6 11 12
f 6 12 13
f 9 14 15
f 9 15 16
f 9 16 10
f 12 17 13
f 13 17 18
f 13 18 19
f 14 20 21
f 14 21 15
f 14 22 20
f 18 23 19
f 19 23 24
f 19 24 25
f 19 25 26
f 20 22 27
f 20 27 28
f 25 29 26
f 26 29 30
f 27 31 28
f 28 31 32
f 29 33 30
f 30 33 34
f 30 34 35
f 31 36 32
f 32 36 37
f 33 38 34
f 34 38 35
f 35 38 39
f 35 39 40
f 35 40 41
f 36 42 37
f 37 42 43
f 37 43 44
f 39 45 40
f 40 45 41
f 41 45 47
f 41 47 48
f 41 48 49
f 41 49 50
f 41 50 46
f 43 51 52
f 43 52 44
f 46 50 53
f 46 53 54
f 49 55 50
f 50 55 53
f 51 56 57
f 51 57 52
f 53 55 54
f 54 55 58
f 54 58 59
f 54 59 60
f 54 60 61
f 54 61 62
f 56 63 57
f 57 63 64
f 57 64 65
f 59 66 60
f 60 66 61
f 61 66 62
f 62 66 67
f 62 67 68
f 62 68 69
f 62 69 70
f 64 71 65
f 64 72 71
f 68 73 69
f 69 73 74
f 69 74 70
f 70 74 75
f 71 72 76
f 72 77 76
f 73 78 74
f 74 78 75
f 75 78 79
f 75 79 80
f 76 77 81
f 77 82 81
f 78 83 79
f 79 83 84
f 79 84 85
f 79 85 86
f 79 86 80
f 81 82 87
f 82 88 89
f 82 89 90
f 82 90 87
f 84 91 85
f 85 91 92
f 85 92 93
f 85 93 86
f 86 93 94
f 86 94 95
f 88 96 97
f 88 97 89
f 92 95 94
f 92 94 93
f 92 98 95
f 95 98 100
f 95 100 101
f 95 101 102
f 95 102 103
f 95 103 99
f 96 104 97
f 97 104 105
f 98 101 100
f 99 103 106
f 101 107 102
f 102 107 103
f 103 107 106
f 104 108 105
f 104 109 108
f 106 107 110
f 106 110 111
f 106 111 112
f 106 112 113
f 106 113 114
f 106 114 115
f 108 109 116
f 109 117 116
f 110 112 111
f 113 118 114
f 114 118 115
f 115 118 120
f 115 120 121
f 115 121 119
f 116 117 122
f 117 123 124
f 117 124 122
f 118 125 120
f 119 126 127
f 119 127 128
f 119 121 126
f 120 125 121
f 121 129 127
f 121 127 126
f 123 130 131
f 123 131 132
f 123 132 133
f 123 133 124
f 127 129 128
f 128 129 134
f 128 134 135
f 129 136 137
f 129 137 134
f 130 138 139
f 130 139 140
f 130 140 131
f 134 137 135
f 135 137 141
f 136 142 143
f 136 143 137
f 137 143 141
f 138 144 139
f 138 145 144
f 141 143 142
f 141 142 146
f 141 146 147
f 141 147 148
f 144 145 149
f 145 150 149
f 146 151 147
f 146 152 151
f 147 151 148
f 148 151 154
f 148 154 155
f 148 155 153
f 149 150 156
f 150 157 156
f 151 152 154
f 152 158 154
f 153 155 159
f 154 158 155
f 155 158 160
f 155 160 161
f 155 161 159
f 156 157 162
f 156 162 163
f 156 163 164
f 160 165 166
f 160 166 161
f 160 167 165
f 161 166 168
f 163 169 164
f 164 169 170
f 165 171 168
f 165 168 166
f 165 167 172
f 165 172 171
f 167 173 172
f 168 171 174
f 169 175 170
f 170 175 176
f 170 176 177
f 171 172 174
f 172 178 174
f 172 173 179
f 172 179 178
f 173 180 181
f 173 181 179
f 176 182 177
f 177 182 183
f 178 179 185
f 178 185 184
f 179 181 185
f 180 186 181
f 180 187 186
f 181 186 188
f 181 188 185
f 182 189 183
f 183 189 190
f 184 185 188
f 184 188 191
f 186 192 191
f 186 191 188
f 186 187 193
f 186 193 192
f 187 194 193
f 189 195 190
f 190 195 196
f 191 192 197
f 192 193 197
f 193 194 198
f 193 198 199
f 193 199 197
f 194 200 198
f 195 201 202
f 195 202 196
f 197 199 203
f 198 200 204
f 198 204 205
f 198 205 203
f 198 203 199
f 200 206 204
f 201 207 208
f 201 208 202
f 203 205 209
f 204 210 211
f 204 211 205
f 204 206 210
f 205 211 209
f 206 212 210
f 207 213 208
f 208 213 214
f 209 211 215
f 210 216 211
f 210 212 216
f 211 217 215
f 211 216 217
f 212 218 216
f 213 219 214
f 214 219 220
f 215 217 221
f 216 222 217
f 216 218 222
f 217 223 224
f 217 224 221
f 217 222 223
f 218 225 222
f 219 226 220
f 220 226 227
f 222 228 223
f 222 225 228
f 223 229 230
f 223 230 224
f 223 228 229
f 225 231 228
f 226 232 233
f 226 233 227
f 227 233 234
f 228 231 235
f 228 235 229
f 229 235 230
f 230 235 237
f 230 237 236
f 231 238 235
f 232 239 233
f 233 239 240
f 233 240 234
f 235 238 241
f 235 241 237
f 236 237 241
f 236 241 243
f 236 243 242
f 238 244 241
f 239 245 246
f 239 246 247
f 239 247 240
f 239 248 245
f 241 244 249
f 241 249 250
f 241 250 243
f 242 243 250
f 242 250 251
f 244 252 249
f 245 248 253
f 245 253 254
f 245 254 247
f 245 247 246
f 249 252 255
f 249 255 250
f 250 255 251
f 251 255 256
f 251 256 257
f 251 257 258
f 252 259 256
f 252 256 255
f 253 260 261
f 253 261 254
f 256 259 262
f 256 262 257
f 257 262 258
f 258 262 264
f 258 264 263
f 259 265 262
f 260 266 267
f 260 267 268
f 260 268 261
f 261 268 269
f 261 269 270
f 262 265 271
f 262 271 264
f 263 264 271
f 263 271 272
f 263 272 273
f 263 273 274
f 265 275 272
f 265 272 271
f 266 276 277
f 266 277 267
f 267 277 269
f 267 269 268
f 269 277 270
f 270 277 278
f 272 275 279
f 272 279 280
f 272 280 273
f 273 280 281
f 273 281 274
f 275 282 279
f 276 283 284
f 276 284 277
f 277 284 285
f 277 285 278
f 278 285 286
f 278 286 287
f 279 282 288
f 279 288 289
f 279 289 281
f 279 281 280
f 281 290 291
f 281 289 290
f 282 292 293
f 282 293 288
f 283 294 284
f 284 294 295
f 284 295 296
f 284 296 287
f 284 287 286
f 284 286 285
f 287 296 297
f 287 297 298
f 288 293 290
f 288 290 289
f 290 293 299
f 290 299 291
f 292 300 301
f 292 301 302
f 292 302 293
f 293 302 303
f 293 303 299
f 294 304 295
f 295 304 313
f 295 313 305
f 295 305 297
f 295 297 296
f 297 305 298
f 298 305 306
f 299 303 307
f 300 308 309
f 300 309 301
f 301 310 302
f 301 309 311
f 301 311 312
f 301 312 310
f 302 310 307
f 302 307 303
f 305 313 325
f 305 325 314
f 305 314 315
f 305 315 306
f 306 316 317
f 306 315 318
f 306 318 316
f 307 310 312
f 308 319 320
f 308 320 309
f 309 321 311
f 309 320 322
f 309 322 323
f 309 323 324
f 309 324 321
f 311 321 312
f 314 325 326
f 314 326 327
f 314 327 328
f 314 328 317
f 314 317 316
f 314 316 318
f 314 318 315
f 317 328 329
f 317 329 330
f 319 322 320
f 319 331 322
f 322 331 332
f 322 332 333
f 322 333 323
f 323 333 324
f 324 333 334
f 326 335 327
f 326 336 335
f 327 335 337
f 327 337 328
f 328 337 329
f 329 337 330
f 330 337 338
f 331 339 340
f 331 340 332
f 332 340 341
f 332 341 342
f 332 342 333
f 333 342 343
f 333 343 334
f 335 336 346
f 335 346 344
f 335 344 345
f 335 345 338
f 335 338 337
f 338 345 347
f 339 348 349
f 339 349 341
f 339 341 340
f 341 349 350
f 341 350 342
f 342 350 351
f 342 351 343
f 344 352 353
f 344 353 345
f 344 346 354
f 344 354 352
f 345 353 347
f 347 353 355
f 348 356 349
f 349 356 357
f 349 357 358
f 349 358 359
f 349 359 360
f 349 360 361
f 349 361 350
f 350 361 351
f 351 361 362
f 352 363 364
f 352 364 365
f 352 365 355
f 352 355 353
f 352 354 363
f 355 365 366
f 357 367 358
f 358 367 368
f 358 368 359
f 359 368 369
f 359 369 370
f 359 370 371
f 359 371 360
f 360 371 372
f 360 372 373
f 360 373 361
f 361 373 362
f 363 374 375
f 363 375 364
f 364 375 376
f 364 376 365
f 365 376 366
f 366 376 377
f 369 378 370
f 370 378 379
f 370 379 380
f 370 380 381
f 370 381 371
f 371 381 372
f 372 381 382
f 374 383 375
f 375 384 385
f 375 385 377
f 375 377 386
f 375 386 376
f 375 383 384
f 376 386 377
f 377 385 387
f 378 388 379
f 379 388 389
f 379 389 380
f 380 389 390
f 380 390 391
f 380 391 381
f 381 392 393
f 381 393 382
f 381 391 392
f 383 394 384
f 384 395 396
f 384 396 387
f 384 387 385
f 384 394 395
f 387 396 397
f 390 398 391
f 391 398 399
f 391 399 400
f 391 400 401
f 391 401 392
f 392 401 402
f 392 402 393
f 394 403 395
f 394 404 403
f 395 403 405
f 395 405 406
f 395 406 396
f 396 406 397
f 397 406 405
f 397 405 407
f 399 408 400
f 399 409 408
f 400 408 410
f 400 410 401
f 401 411 402
f 401 410 411
f 402 411 412
f 403 413 414
f 403 414 407
f 403 407 405
f 403 404 415
f 403 415 413
f 407 414 416
f 408 409 410
f 409 417 418
f 409 418 410
f 410 418 411
f 411 418 419
f 411 419 420
f 411 420 412
f 413 415 421
f 413 421 422
f 413 422 414
f 414 422 416
f 415 423 421
f 416 424 425
f 416 422 421
f 416 421 424
f 417 426 418
f 418 426 427
f 418 427 428
f 418 428 419
f 419 428 429
f 419 429 420
f 421 423 430
f 421 430 431
f 421 431 424
f 423 432 430
f 424 431 425
f 425 431 433
f 426 434 427
f 427 434 435
f 427 435 436
f 427 436 428
f 428 436 437
f 428 437 429
f 430 432 438
f 430 438 439
f 430 439 440
f 430 440 433
f 430 433 431
f 433 440 441
f 434 442 435
f 435 442 443
f 435 443 444
f 435 444 436
f 436 444 437
f 437 444 445
f 438 446 439
f 439 447 448
f 439 448 440
f 439 446 447
f 440 448 449
f 440 449 441
f 442 450 443
f 443 450 451
f 443 451 452
f 443 452 444
f 444 452 453
f 444 453 445
f 446 454 455
f 446 455 447
f 447 455 456
f 447 456 457
f 447 457 458
f 447 458 448
f 448 458 449
f 450 459 451
f 451 459 460
f 451 460 461
f 451 461 452
f 452 461 462
f 452 462 453
f 454 463 464
f 454 464 455
f 455 464 465
f 455 465 466
f 455 466 467
f 455 467 456
f 456 467 468
f 456 468 457
f 457 468 458
f 459 469 460
f 460 469 470
f 460 470 471
f 460 471 461
f 461 471 472
f 461 472 462
f 463 473 474
f 463 474 464
f 464 474 465
f 465 474 475
f 465 475 466
f 466 475 467
f 469 476 470
f 470 476 477
f 470 477 478
f 470 478 479
f 470 479 471
f 471 479 472
f 472 479 480
f 473 481 482
f 473 482 474
f 474 482 483
f 474 483 484
f 474 484 485
f 474 485 475
f 477 486 487
f 477 487 478
f 478 487 488
f 478 488 479
f 479 488 489
f 479 489 490
f 479 490 480
f 481 491 492
f 481 492 482
f 482 492 493
f 482 493 494
f 482 494 495
f 482 495 483
f 483 495 484
f 484 495 485
f 486 496 497
f 486 497 487
f 487 497 498
f 487 498 488
f 488 498 499
f 488 499 489
f 491 500 501
f 491 501 492
f 492 501 502
f 492 502 493
f 493 503 494
f 493 502 504
f 493 504 503
f 494 503 495
f 496 505 502
f 496 502 497
f 497 502 501
f 497 501 498
f 498 501 500
f 498 500 499
f 502 505 504
