v -0.013741 -0.000371 0.032355
v -0.013737 -0.001110 0.032355
v -0.013061 -0.001051 0.033032
v -0.013064 -0.000371 0.033032
v -0.013062 -0.000314 0.033032
v -0.013705 0.000369 0.032355
v -0.013057 -0.001167 0.033032
v -0.013060 -0.001110 0.033032
v -0.013695 -0.001811 0.032355
v -0.013027 0.000369 0.033032
v -0.013021 0.000426 0.033032
v -0.013702 0.000405 0.032355
v -0.013014 -0.001849 0.033032
v -0.013693 -0.001849 0.032355
v -0.012947 0.001111 0.033032
v -0.013629 0.001108 0.032355
v -0.013609 -0.002589 0.032355
v -0.013008 -0.001902 0.033032
v -0.012911 0.001327 0.033032
v -0.013512 0.001850 0.032355
v -0.013629 0.001113 0.032355
v -0.013483 -0.003331 0.032355
v -0.012925 -0.002591 0.033032
v -0.012823 0.001850 0.033032
v -0.013352 0.002592 0.032355
v -0.012793 -0.003333 0.033032
v -0.013316 -0.004070 0.032355
v -0.012797 0.001968 0.033032
v -0.012962 0.002592 0.032733
v -0.013147 0.003331 0.032355
v -0.012962 -0.004072 0.032697
v -0.012617 -0.004072 0.033032
v -0.013105 -0.004814 0.032355
v -0.012654 0.002592 0.033032
v -0.012962 0.003331 0.032532
v -0.012961 0.003886 0.032355
v -0.012633 0.002667 0.033032
v -0.012962 -0.004814 0.032491
v -0.012394 -0.004814 0.033032
v -0.012962 -0.005230 0.032355
v -0.012419 0.003390 0.033032
v -0.012438 0.003331 0.033032
v -0.012897 0.004073 0.032355
v -0.012374 -0.004871 0.033032
v -0.012850 -0.005553 0.032355
v -0.012274 0.003798 0.033032
v -0.012222 0.004073 0.032987
v -0.011589 0.005554 0.033032
v -0.012597 0.004815 0.032355
v -0.012222 0.003941 0.033032
v -0.012222 -0.005290 0.033032
v -0.012546 -0.006293 0.032355
v -0.012222 -0.005553 0.032941
v -0.012173 0.004073 0.033032
v -0.011587 0.005559 0.033032
v -0.011242 0.006296 0.033032
v -0.012244 0.005554 0.032355
v -0.012123 -0.005553 0.033032
v -0.012222 -0.006295 0.032650
v -0.012222 -0.006971 0.032355
v -0.012222 0.005597 0.032355
v -0.010839 0.007035 0.033032
v -0.011801 -0.006295 0.033032
v -0.012190 -0.007037 0.032355
v -0.011774 -0.006352 0.033032
v -0.011832 0.006296 0.032355
v -0.010367 0.007777 0.033032
v -0.011481 0.006849 0.032355
v -0.011481 -0.007037 0.032982
v -0.011481 -0.006925 0.033032
v -0.011779 -0.007774 0.032355
v -0.011359 0.007033 0.032355
v -0.010014 0.008261 0.033032
v -0.011424 -0.007037 0.033032
v -0.011481 -0.008250 0.032355
v -0.011481 -0.007776 0.032610
v -0.010807 0.007777 0.032355
v -0.009820 0.008516 0.033032
v -0.010984 -0.007776 0.033032
v -0.010947 -0.007833 0.033032
v -0.011306 -0.008516 0.032355
v -0.010740 0.007859 0.032355
v -0.009807 0.008532 0.033032
v -0.010740 -0.008140 0.033032
v -0.010767 -0.009255 0.032355
v -0.010740 -0.008518 0.032819
v -0.009273 0.009160 0.033032
v -0.010169 0.008516 0.032355
v -0.010477 -0.008518 0.033032
v -0.010001 -0.009128 0.033032
v -0.010740 -0.009289 0.032355
v -0.009185 0.009258 0.033032
v -0.010001 0.008696 0.032355
v -0.010001 -0.009257 0.032950
v -0.009892 -0.009257 0.033032
v -0.010143 -0.009999 0.032355
v -0.008522 0.009925 0.033032
v -0.009426 0.009258 0.032355
v -0.010001 -0.009999 0.032462
v -0.009259 -0.009954 0.033032
v -0.009989 -0.010168 0.032355
v -0.008442 0.010000 0.033032
v -0.009259 0.009410 0.032355
v -0.009259 -0.009999 0.033001
v -0.009216 -0.009999 0.033032
v -0.009427 -0.010739 0.032355
v -0.007855 0.010512 0.033032
v -0.008551 0.010000 0.032355
v -0.009259 -0.010739 0.032472
v -0.008519 -0.010659 0.033032
v -0.009259 -0.010898 0.032355
v -0.007835 0.010528 0.033032
v -0.008519 0.010025 0.032355
v -0.008519 -0.010739 0.032972
v -0.008425 -0.010739 0.033032
v -0.008597 -0.011480 0.032355
v -0.007581 0.010725 0.033032
v -0.007379 0.010869 0.033032
v -0.007778 0.010550 0.032355
v -0.008519 -0.011480 0.032405
v -0.008198 -0.010925 0.033032
v -0.008519 -0.011544 0.032355
v -0.007379 0.010801 0.032355
v -0.007480 0.010739 0.032355
v -0.007379 -0.011555 0.033032
v -0.007778 -0.011266 0.033032
v -0.007778 -0.012106 0.032355
v -0.007778 -0.011480 0.032862
v -0.007379 -0.012374 0.032355
v -0.007407 -0.011537 0.033032
v -0.007379 -0.011671 0.032938
v -0.007487 -0.011480 0.033032
v -0.007612 -0.012222 0.032355
v -0.007379 -0.012222 0.032484
f 1 2 3
f 1 3 4
f 1 4 5
f 1 5 6
f 1 6 12
f 1 12 16
f 1 16 21
f 1 21 20
f 1 20 25
f 1 25 30
f 1 30 36
f 1 36 43
f 1 43 49
f 1 49 57
f 1 57 61
f 1 61 66
f 1 66 68
f 1 68 72
f 1 72 77
f 1 77 82
f 1 82 88
f 1 88 93
f 1 93 98
f 1 98 103
f 1 103 108
f 1 108 113
f 1 113 119
f 1 119 124
f 1 124 123
f 1 123 129
f 1 129 133
f 1 133 127
f 1 127 122
f 1 122 116
f 1 116 111
f 1 111 106
f 1 106 101
f 1 101 96
f 1 96 91
f 1 91 85
f 1 85 81
f 1 81 75
f 1 75 71
f 1 71 64
f 1 64 60
f 1 60 52
f 1 52 45
f 1 45 40
f 1 40 33
f 1 33 27
f 1 27 22
f 1 22 17
f 1 17 14
f 1 14 9
f 1 9 2
f 2 7 8
f 2 8 3
f 2 9 7
f 3 8 7
f 3 7 13
f 3 13 18
f 3 18 23
f 3 23 26
f 3 26 32
f 3 32 39
f 3 39 44
f 3 44 51
f 3 51 58
f 3 58 63
f 3 63 65
f 3 65 70
f 3 70 74
f 3 74 79
f 3 79 80
f 3 80 84
f 3 84 89
f 3 89 90
f 3 90 95
f 3 95 100
f 3 100 105
f 3 105 110
f 3 110 115
f 3 115 121
f 3 121 126
f 3 126 132
f 3 132 130
f 3 130 125
f 3 125 118
f 3 118 117
f 3 117 112
f 3 112 107
f 3 107 102
f 3 102 97
f 3 97 92
f 3 92 87
f 3 87 83
f 3 83 78
f 3 78 73
f 3 73 67
f 3 67 62
f 3 62 56
f 3 56 55
f 3 55 48
f 3 48 54
f 3 54 50
f 3 50 46
f 3 46 41
f 3 41 42
f 3 42 37
f 3 37 34
f 3 34 28
f 3 28 24
f 3 24 19
f 3 19 15
f 3 15 11
f 3 11 10
f 3 10 5
f 3 5 4
f 5 10 6
f 6 11 12
f 6 10 11
f 7 9 13
f 9 14 13
f 11 15 16
f 11 16 12
f 13 14 17
f 13 17 18
f 15 19 20
f 15 20 21
f 15 21 16
f 17 22 23
f 17 23 18
f 19 24 20
f 20 24 25
f 22 26 23
f 22 27 26
f 24 28 25
f 25 28 29
f 25 29 30
f 26 27 31
f 26 31 32
f 27 33 31
f 28 34 29
f 29 34 30
f 30 35 36
f 30 34 37
f 30 37 35
f 31 33 32
f 32 33 38
f 32 38 39
f 33 40 38
f 35 41 36
f 35 37 42
f 35 42 41
f 36 41 43
f 38 40 39
f 39 40 45
f 39 45 44
f 41 46 43
f 43 47 48
f 43 48 49
f 43 46 50
f 43 50 47
f 44 45 51
f 45 52 53
f 45 53 51
f 47 50 54
f 47 54 48
f 48 55 49
f 49 55 56
f 49 56 57
f 51 53 58
f 52 59 58
f 52 58 53
f 52 60 59
f 56 61 57
f 56 62 61
f 58 59 63
f 59 60 64
f 59 64 65
f 59 65 63
f 61 62 66
f 62 67 68
f 62 68 66
f 64 69 70
f 64 70 65
f 64 71 69
f 67 72 68
f 67 73 72
f 69 74 70
f 69 71 74
f 71 75 76
f 71 76 74
f 72 73 77
f 73 78 77
f 74 76 79
f 75 80 79
f 75 79 76
f 75 81 80
f 77 78 83
f 77 83 82
f 80 81 84
f 81 85 86
f 81 86 84
f 82 83 87
f 82 87 88
f 84 86 89
f 85 90 89
f 85 89 86
f 85 91 90
f 87 92 88
f 88 92 93
f 90 91 94
f 90 94 95
f 91 96 94
f 92 97 93
f 93 97 98
f 94 96 95
f 95 96 99
f 95 99 100
f 96 101 99
f 97 102 98
f 98 102 103
f 99 101 104
f 99 104 100
f 100 104 105
f 101 106 104
f 102 107 103
f 103 107 108
f 104 106 105
f 105 106 109
f 105 109 110
f 106 111 109
f 107 112 108
f 108 112 113
f 109 111 110
f 110 111 114
f 110 114 115
f 111 116 114
f 112 117 113
f 113 117 118
f 113 118 119
f 114 116 120
f 114 120 115
f 115 120 121
f 116 122 120
f 118 123 124
f 118 124 119
f 118 125 131
f 118 131 134
f 118 134 129
f 118 129 123
f 120 126 121
f 120 122 126
f 122 127 128
f 122 128 126
f 125 130 131
f 126 128 132
f 127 133 130
f 127 130 132
f 127 132 128
f 129 134 133
f 130 133 131
f 131 133 134
