v -0.000370 -0.013681 0.047793
v -0.000039 -0.013121 0.046710
v 0.000660 -0.013098 0.046710
v 0.000368 -0.013645 0.047793
v -0.001109 -0.013675 0.047793
v -0.000792 -0.013096 0.046710
v 0.001312 -0.013043 0.046710
v 0.001110 -0.013567 0.047793
v -0.001851 -0.013631 0.047793
v -0.001730 -0.013001 0.046710
v 0.001873 -0.012968 0.046710
v 0.001910 -0.012962 0.046710
v 0.001851 -0.013448 0.047793
v -0.002592 -0.013545 0.047793
v -0.003331 -0.013420 0.047793
v -0.002592 -0.012854 0.046710
v 0.002592 -0.012840 0.046710
v 0.002598 -0.013287 0.047793
v -0.002980 -0.012785 0.046710
v -0.004072 -0.013251 0.047793
v 0.003331 -0.012663 0.046710
v 0.004073 -0.012474 0.046710
v 0.003331 -0.013082 0.047793
v -0.003721 -0.012591 0.046710
v -0.004813 -0.013040 0.047793
v 0.004359 -0.012391 0.046710
v 0.004814 -0.012249 0.046710
v 0.003696 -0.012960 0.047793
v -0.004462 -0.012349 0.046710
v -0.005044 -0.012962 0.047793
v 0.004862 -0.012233 0.046710
v 0.004073 -0.012832 0.047793
v -0.005555 -0.012782 0.047793
v -0.005204 -0.012058 0.046710
v 0.004893 -0.012222 0.046710
v 0.005555 -0.011975 0.046710
v 0.004814 -0.012530 0.047793
v -0.006294 -0.012477 0.047793
v -0.005942 -0.011714 0.046710
v 0.005887 -0.011831 0.046710
v 0.006294 -0.011650 0.046710
v 0.005463 -0.012222 0.047793
v -0.006836 -0.012219 0.047793
v -0.007035 -0.012119 0.047793
v -0.006684 -0.011309 0.046710
v 0.006505 -0.011545 0.046710
v 0.005553 -0.012177 0.047793
v -0.007776 -0.011706 0.047793
v -0.008139 -0.011478 0.047793
v -0.007425 -0.010837 0.046710
v 0.006628 -0.011481 0.046710
v 0.007035 -0.011267 0.046710
v 0.006294 -0.011761 0.047793
v -0.008518 -0.011231 0.047793
v -0.007560 -0.010740 0.046710
v 0.007336 -0.011090 0.046710
v 0.007724 -0.010854 0.046710
v 0.007777 -0.010821 0.046710
v 0.006738 -0.011481 0.047793
v -0.009192 -0.010737 0.047793
v -0.008304 -0.010171 0.046710
v 0.007900 -0.010740 0.046710
v 0.007033 -0.011284 0.047793
v -0.009256 -0.010687 0.047793
v -0.008518 -0.009999 0.046716
v -0.008509 -0.009999 0.046710
v 0.008518 -0.010305 0.046710
v 0.007763 -0.010740 0.047793
v -0.009998 -0.010060 0.047793
v -0.008740 -0.009797 0.046710
v 0.008912 -0.009999 0.046710
v 0.007777 -0.010729 0.047793
v -0.010065 -0.009999 0.047793
v -0.009054 -0.009508 0.046710
v 0.009257 -0.009711 0.046710
v 0.008518 -0.010085 0.047793
v -0.010739 -0.009339 0.047793
v -0.009315 -0.009259 0.046710
v 0.009754 -0.009259 0.046710
v 0.008608 -0.009999 0.047793
v -0.010815 -0.009259 0.047793
v -0.010739 -0.009259 0.047736
v -0.010029 -0.008518 0.046710
v 0.009998 -0.009020 0.046710
v 0.009257 -0.009336 0.047793
v -0.011455 -0.008532 0.047793
v -0.010739 -0.008518 0.047237
v -0.010501 -0.008518 0.047059
v -0.010262 -0.008260 0.046710
v 0.010147 -0.008868 0.046710
v 0.009330 -0.009259 0.047793
v -0.011481 -0.008501 0.047793
v -0.010675 -0.007777 0.046710
v -0.010470 -0.008021 0.046710
v 0.010473 -0.008518 0.046710
v 0.009945 -0.008518 0.047793
v 0.010706 -0.008252 0.046710
v 0.010740 -0.008213 0.046710
v -0.011481 -0.007777 0.047346
v -0.010739 -0.007777 0.046760
v -0.012031 -0.007774 0.047793
v -0.010739 -0.007694 0.046710
v 0.009998 -0.008449 0.047793
v 0.011094 -0.007777 0.046710
v -0.011138 -0.007167 0.046710
v -0.010947 -0.007425 0.046710
v -0.010939 -0.007436 0.046710
v -0.012219 -0.007503 0.047793
v -0.011481 -0.007036 0.046914
v -0.011231 -0.007036 0.046710
v 0.010476 -0.007777 0.047793
v 0.011481 -0.007253 0.046710
v -0.012526 -0.007036 0.047793
v -0.012219 -0.007036 0.047533
v -0.011481 -0.006659 0.046710
v -0.011402 -0.006778 0.046710
v 0.010740 -0.007361 0.047793
v 0.011630 -0.007036 0.046710
v 0.011880 -0.006645 0.046710
v -0.012958 -0.006298 0.047793
v -0.012118 -0.006296 0.047059
v -0.011711 -0.006296 0.046710
v 0.010936 -0.007036 0.047793
v 0.012096 -0.006296 0.046710
v -0.012961 -0.005555 0.047455
v -0.012520 -0.005555 0.047059
v -0.012219 -0.005555 0.046792
v -0.012127 -0.005555 0.046710
v -0.011969 -0.005846 0.046710
v -0.011916 -0.005943 0.046710
v -0.013334 -0.005555 0.047793
v -0.011815 -0.006118 0.046710
v 0.011330 -0.006296 0.047793
v 0.012195 -0.006121 0.046710
v 0.012498 -0.005555 0.046710
v -0.012483 -0.004814 0.046710
v -0.012194 -0.005425 0.046710
v -0.013660 -0.004817 0.047793
v -0.012865 -0.004814 0.047059
v 0.011481 -0.005971 0.047793
v 0.012686 -0.005164 0.046710
v -0.012559 -0.004637 0.046710
v -0.013702 -0.004703 0.047793
v -0.013702 -0.004073 0.047571
v -0.012961 -0.004073 0.046873
v -0.012787 -0.004073 0.046710
v -0.012683 -0.004337 0.046710
v -0.012632 -0.004462 0.046710
v 0.011667 -0.005555 0.047793
v 0.012843 -0.004814 0.046710
v -0.013935 -0.004073 0.047793
v -0.013039 -0.003333 0.046710
v -0.012865 -0.003852 0.046710
v 0.011947 -0.004814 0.047793
v 0.012916 -0.004639 0.046710
v 0.013138 -0.004073 0.046710
v -0.014168 -0.003333 0.047793
v -0.013702 -0.003333 0.047345
v -0.013405 -0.003333 0.047059
v -0.013076 -0.003202 0.046710
v 0.012178 -0.004073 0.047793
v 0.013270 -0.003682 0.046710
v 0.013385 -0.003333 0.046710
v -0.014357 -0.002589 0.047793
v -0.013702 -0.002592 0.047154
v -0.013244 -0.002592 0.046710
v 0.012358 -0.003347 0.047793
v 0.013481 -0.002986 0.046710
v 0.013585 -0.002592 0.046710
v -0.014444 -0.002168 0.047793
v -0.013407 -0.001851 0.046710
v -0.013376 -0.001998 0.046710
v -0.013323 -0.002240 0.046710
v 0.012360 -0.003333 0.047793
v 0.013703 -0.002043 0.046710
v 0.013703 -0.001851 0.046749
v -0.014505 -0.001851 0.047793
v -0.014444 -0.001851 0.047730
v -0.013525 -0.001110 0.046710
v 0.013388 -0.001851 0.047059
v 0.012641 -0.001851 0.047793
v 0.013742 -0.001851 0.046710
v 0.013753 -0.001782 0.046710
v 0.013703 -0.001110 0.046864
v 0.012768 -0.001110 0.047793
v -0.014615 -0.001122 0.047793
v -0.014444 -0.001110 0.047621
v -0.013551 -0.000877 0.046710
v 0.013857 -0.001110 0.046710
v 0.013880 -0.000897 0.046710
v 0.012849 -0.000370 0.047793
v -0.014688 -0.000370 0.047793
v -0.013952 -0.000370 0.047059
v -0.013702 -0.000370 0.046810
v -0.013601 -0.000370 0.046710
v 0.013933 -0.000370 0.046710
v 0.013703 -0.000370 0.046940
v 0.012885 0.000365 0.047793
v 0.013947 -0.000092 0.046710
v -0.014722 0.000371 0.047793
v -0.013702 0.000371 0.046774
v -0.013610 -0.000217 0.046710
v 0.012961 0.000371 0.047717
v 0.012885 0.000371 0.047793
v 0.013970 0.000371 0.046710
v -0.014716 0.001109 0.047793
v -0.014444 0.001109 0.047519
v -0.013635 0.001109 0.046710
v -0.013638 0.000476 0.046710
v -0.013638 0.000371 0.046710
v 0.012883 0.001109 0.047793
v 0.013964 0.001109 0.046710
v 0.013703 0.001109 0.046972
v -0.014674 0.001850 0.047793
v -0.014444 0.001850 0.047561
v -0.013590 0.001850 0.046710
v 0.012835 0.001850 0.047793
v 0.013947 0.001409 0.046710
v 0.013922 0.001850 0.046710
v -0.014595 0.002590 0.047793
v -0.014444 0.002590 0.047641
v -0.013570 0.002019 0.046710
v -0.013857 0.002590 0.047059
v 0.012745 0.002590 0.047793
v 0.013838 0.002590 0.046710
v 0.013703 0.002590 0.046844
v 0.013487 0.002590 0.047059
v -0.014444 0.003248 0.047793
v -0.013570 0.004072 0.047059
v -0.013702 0.003473 0.047059
v -0.013733 0.003331 0.047059
v -0.013503 0.002590 0.046710
v -0.013702 0.002590 0.046906
v 0.012610 0.003331 0.047793
v 0.013703 0.003331 0.046722
v 0.013360 0.003331 0.047059
v 0.013807 0.002782 0.046710
v -0.014424 0.003331 0.047793
v -0.013362 0.004813 0.047059
v -0.013124 0.004374 0.046710
v -0.013208 0.004072 0.046710
v -0.013292 0.003722 0.046710
v -0.013702 0.003331 0.047028
v -0.013461 0.002840 0.046710
v 0.013551 0.004072 0.046710
v 0.012961 0.004072 0.047280
v 0.012431 0.004072 0.047793
v 0.013703 0.003387 0.046710
v 0.013714 0.003331 0.046710
v -0.014194 0.004072 0.047793
v -0.013112 0.005553 0.047059
v -0.012997 0.004813 0.046710
v -0.013376 0.003331 0.046710
v 0.013343 0.004813 0.046710
v 0.012416 0.004125 0.047793
v -0.013924 0.004813 0.047793
v -0.012975 0.004879 0.046710
v -0.012961 0.005931 0.047059
v -0.012739 0.005553 0.046710
v 0.013225 0.005165 0.046710
v 0.012978 0.004813 0.047059
v 0.012206 0.004813 0.047793
v -0.013702 0.005334 0.047793
v -0.012812 0.006294 0.047059
v -0.012582 0.005945 0.046710
v 0.013217 0.005190 0.046710
v 0.011950 0.005501 0.047793
v 0.013091 0.005553 0.046710
v 0.012961 0.005553 0.046832
v 0.012720 0.005553 0.047059
v -0.013607 0.005553 0.047793
v -0.012464 0.007035 0.047059
v -0.012433 0.006294 0.046710
v 0.011931 0.005553 0.047793
v 0.013023 0.005731 0.046710
v -0.013239 0.006294 0.047793
v -0.012219 0.007493 0.047059
v -0.012219 0.007035 0.046840
v -0.012219 0.006738 0.046710
v -0.012306 0.006558 0.046710
v 0.012220 0.006294 0.047233
v 0.011605 0.006291 0.047793
v 0.012793 0.006294 0.046710
v -0.012961 0.006785 0.047793
v -0.012062 0.007776 0.047059
v -0.011860 0.007426 0.046710
v -0.012073 0.007035 0.046710
v 0.012633 0.006647 0.046710
v 0.011481 0.006538 0.047793
v 0.012532 0.006857 0.046710
v 0.012445 0.007035 0.046710
v -0.012815 0.007035 0.047793
v -0.011602 0.008516 0.047059
v -0.011517 0.008003 0.046710
v -0.011658 0.007776 0.046710
v 0.012220 0.007035 0.046910
v 0.011481 0.007035 0.047565
v 0.011217 0.007035 0.047793
v 0.012313 0.007287 0.046710
v -0.012332 0.007776 0.047793
v -0.011481 0.008694 0.047059
v -0.011481 0.008516 0.046957
v -0.011481 0.008061 0.046710
v 0.012043 0.007776 0.046710
v 0.011481 0.007776 0.047194
v 0.010771 0.007778 0.047793
v -0.012219 0.007934 0.047793
v -0.011074 0.009257 0.047059
v -0.011180 0.008516 0.046710
v 0.011914 0.007989 0.046710
v 0.011830 0.008128 0.046710
v 0.011481 0.008516 0.046794
v 0.010740 0.007826 0.047793
v -0.011781 0.008516 0.047793
v -0.010739 0.009679 0.047059
v -0.010739 0.009257 0.046793
v -0.010739 0.009121 0.046710
v 0.011580 0.008516 0.046710
v 0.011481 0.008663 0.046710
v 0.011158 0.008516 0.047059
v 0.010740 0.008516 0.047403
v 0.010254 0.008519 0.047793
v -0.011481 0.008880 0.047793
v -0.010470 0.009998 0.047059
v -0.010312 0.009648 0.046710
v -0.010633 0.009257 0.046710
v 0.011049 0.009257 0.046710
v 0.009998 0.008844 0.047793
v 0.010740 0.009091 0.047059
v 0.010740 0.009257 0.046958
v -0.011149 0.009257 0.047793
v -0.009998 0.010514 0.047059
v -0.010006 0.009998 0.046710
v 0.010740 0.009640 0.046710
v 0.009998 0.009257 0.047534
v 0.009653 0.009260 0.047793
v -0.010739 0.009690 0.047793
v -0.009776 0.010739 0.047059
v -0.009633 0.010389 0.046710
v 0.010437 0.009998 0.046710
v 0.009998 0.009979 0.047059
v 0.009257 0.009696 0.047793
v -0.010425 0.009998 0.047793
v -0.009256 0.011233 0.047059
v -0.009245 0.010772 0.046710
v 0.009678 0.010739 0.046710
v 0.009254 0.010739 0.047059
v 0.009257 0.010736 0.047059
v 0.009257 0.009998 0.047584
v 0.008959 0.010001 0.047793
v -0.009998 0.010389 0.047793
v -0.008976 0.011479 0.047059
v -0.008849 0.011130 0.046710
v 0.008853 0.011432 0.046710
v 0.008518 0.011388 0.047059
v 0.008518 0.010739 0.047555
v 0.008518 0.010417 0.047793
v -0.009582 0.010739 0.047793
v -0.008518 0.011860 0.047059
v -0.008518 0.011479 0.046762
v -0.008518 0.011413 0.046710
v 0.008791 0.011479 0.046710
v 0.008403 0.011479 0.047059
v 0.007777 0.011041 0.047793
v 0.008145 0.010741 0.047793
v -0.009256 0.010997 0.047793
v -0.008038 0.012220 0.047059
v -0.007928 0.011868 0.046710
v -0.008434 0.011479 0.046710
v 0.007934 0.012081 0.046710
v 0.007777 0.011957 0.047059
v 0.007777 0.011479 0.047446
v 0.007179 0.011482 0.047793
v -0.008588 0.011479 0.047793
v -0.007776 0.012406 0.047059
v -0.007776 0.012220 0.046905
v -0.007776 0.011982 0.046710
v -0.007788 0.011973 0.046710
v 0.007721 0.012220 0.046710
v 0.007035 0.012456 0.047059
v 0.007395 0.012220 0.047059
v 0.007035 0.011582 0.047793
v -0.008518 0.011529 0.047793
v -0.007035 0.012889 0.047059
v -0.007035 0.012478 0.046710
v -0.007428 0.012220 0.046710
v -0.007529 0.012154 0.046710
v 0.007387 0.012437 0.046710
v 0.006294 0.012892 0.047059
v 0.006294 0.012220 0.047644
v 0.006294 0.012048 0.047793
v 0.007035 0.012220 0.047259
v -0.007776 0.011993 0.047793
v -0.006911 0.012961 0.047059
v -0.006294 0.012914 0.046710
v -0.006816 0.012609 0.046710
v 0.006648 0.012850 0.046710
v 0.006159 0.012961 0.047059
v 0.005555 0.012450 0.047793
v 0.005982 0.012223 0.047793
v -0.007366 0.012220 0.047793
v -0.006294 0.013308 0.047059
v -0.006221 0.012953 0.046710
v 0.005906 0.013211 0.046710
v 0.005555 0.013269 0.047059
v 0.005555 0.012961 0.047336
v 0.004814 0.012800 0.047793
v -0.007038 0.012395 0.047793
v -0.005555 0.013674 0.047059
v -0.005555 0.013288 0.046710
v 0.005165 0.013519 0.046710
v 0.004814 0.013593 0.047059
v 0.004814 0.012961 0.047644
v 0.004410 0.012964 0.047793
v -0.006296 0.012747 0.047793
v -0.005490 0.013702 0.047059
v -0.004813 0.013616 0.046710
v -0.005417 0.013349 0.046710
v -0.005524 0.013302 0.046710
v 0.004390 0.013790 0.046710
v 0.004073 0.013874 0.047059
v 0.004530 0.013702 0.047059
v 0.004073 0.013094 0.047793
v -0.005558 0.013047 0.047793
v -0.004813 0.013990 0.047059
v -0.004684 0.013666 0.046710
v 0.003682 0.014001 0.046710
v 0.003331 0.014107 0.047059
v 0.003331 0.013341 0.047793
v -0.004813 0.013299 0.047793
v -0.004072 0.014259 0.047059
v -0.004072 0.013890 0.046710
v 0.002944 0.014176 0.046710
v 0.002592 0.014295 0.047059
v 0.002592 0.013544 0.047793
v -0.004072 0.013507 0.047793
v -0.003331 0.013702 0.047763
v -0.003331 0.014417 0.047059
v -0.002980 0.014182 0.046710
v -0.003721 0.014004 0.046710
v 0.002592 0.014234 0.046710
v 0.001851 0.014445 0.047059
v 0.001857 0.013699 0.047793
v -0.003331 0.013671 0.047793
v -0.003145 0.013704 0.047793
v -0.003179 0.014442 0.047059
v -0.002308 0.014301 0.046710
v -0.002592 0.013796 0.047793
v 0.001857 0.014351 0.046710
v 0.001110 0.014556 0.047059
v 0.001110 0.013815 0.047793
v 0.001829 0.013704 0.047793
v -0.002592 0.014537 0.047059
v -0.001682 0.014384 0.046710
v -0.001851 0.013879 0.047793
v 0.001180 0.014423 0.046710
v 0.000368 0.014626 0.047059
v 0.000368 0.014442 0.047242
v 0.000368 0.013890 0.047793
v -0.001851 0.014614 0.047059
v -0.001081 0.014437 0.046710
v -0.001109 0.013924 0.047793
v 0.001110 0.014429 0.046710
v 0.000368 0.014467 0.046710
v -0.000370 0.014662 0.047059
v -0.000370 0.013926 0.047793
v -0.001109 0.014656 0.047059
v -0.000370 0.014470 0.046710
f 1 2 3
f 1 3 4
f 1 4 8
f 1 8 13
f 1 13 18
f 1 18 23
f 1 23 28
f 1 28 32
f 1 32 37
f 1 37 42
f 1 42 47
f 1 47 53
f 1 53 59
f 1 59 63
f 1 63 68
f 1 68 72
f 1 72 76
f 1 76 80
f 1 80 85
f 1 85 91
f 1 91 96
f 1 96 103
f 1 103 111
f 1 111 117
f 1 117 123
f 1 123 133
f 1 133 140
f 1 140 149
f 1 149 154
f 1 154 161
f 1 161 167
f 1 167 174
f 1 174 181
f 1 181 185
f 1 185 191
f 1 191 198
f 1 198 204
f 1 204 211
f 1 211 217
f 1 217 224
f 1 224 234
f 1 234 247
f 1 247 255
f 1 255 262
f 1 262 267
f 1 267 274
f 1 274 282
f 1 282 289
f 1 289 298
f 1 298 306
f 1 306 313
f 1 313 322
f 1 322 328
f 1 328 336
f 1 336 342
f 1 342 350
f 1 350 357
f 1 357 365
f 1 365 364
f 1 364 373
f 1 373 382
f 1 382 391
f 1 391 400
f 1 400 399
f 1 399 407
f 1 407 414
f 1 414 423
f 1 423 429
f 1 429 435
f 1 435 443
f 1 443 452
f 1 452 451
f 1 451 459
f 1 459 466
f 1 466 462
f 1 462 455
f 1 455 448
f 1 448 445
f 1 445 444
f 1 444 436
f 1 436 430
f 1 430 424
f 1 424 415
f 1 415 408
f 1 408 401
f 1 401 393
f 1 393 383
f 1 383 374
f 1 374 366
f 1 366 358
f 1 358 351
f 1 351 343
f 1 343 337
f 1 337 331
f 1 331 323
f 1 323 314
f 1 314 307
f 1 307 300
f 1 300 292
f 1 292 284
f 1 284 276
f 1 276 271
f 1 271 263
f 1 263 256
f 1 256 250
f 1 250 238
f 1 238 228
f 1 228 220
f 1 220 214
f 1 214 206
f 1 206 200
f 1 200 192
f 1 192 186
f 1 186 177
f 1 177 170
f 1 170 164
f 1 164 157
f 1 157 151
f 1 151 143
f 1 143 138
f 1 138 131
f 1 131 120
f 1 120 113
f 1 113 108
f 1 108 101
f 1 101 92
f 1 92 86
f 1 86 81
f 1 81 77
f 1 77 73
f 1 73 69
f 1 69 64
f 1 64 60
f 1 60 54
f 1 54 49
f 1 49 48
f 1 48 44
f 1 44 43
f 1 43 38
f 1 38 33
f 1 33 30
f 1 30 25
f 1 25 20
f 1 20 15
f 1 15 14
f 1 14 9
f 1 9 5
f 1 5 2
f 2 5 6
f 2 6 10
f 2 10 16
f 2 16 19
f 2 19 24
f 2 24 29
f 2 29 34
f 2 34 39
f 2 39 45
f 2 45 50
f 2 50 55
f 2 55 61
f 2 61 66
f 2 66 70
f 2 70 74
f 2 74 78
f 2 78 83
f 2 83 89
f 2 89 94
f 2 94 93
f 2 93 102
f 2 102 107
f 2 107 106
f 2 106 105
f 2 105 110
f 2 110 116
f 2 116 115
f 2 115 122
f 2 122 132
f 2 132 130
f 2 130 129
f 2 129 128
f 2 128 137
f 2 137 136
f 2 136 142
f 2 142 148
f 2 148 147
f 2 147 146
f 2 146 153
f 2 153 152
f 2 152 160
f 2 160 166
f 2 166 173
f 2 173 172
f 2 172 171
f 2 171 179
f 2 179 188
f 2 188 195
f 2 195 202
f 2 202 210
f 2 210 209
f 2 209 208
f 2 208 216
f 2 216 222
f 2 222 232
f 2 232 244
f 2 244 253
f 2 253 242
f 2 242 241
f 2 241 240
f 2 240 252
f 2 252 257
f 2 257 259
f 2 259 265
f 2 265 273
f 2 273 280
f 2 280 279
f 2 279 287
f 2 287 286
f 2 286 295
f 2 295 294
f 2 294 303
f 2 303 309
f 2 309 317
f 2 317 326
f 2 326 325
f 2 325 333
f 2 333 339
f 2 339 345
f 2 345 353
f 2 353 361
f 2 361 369
f 2 369 368
f 2 368 378
f 2 378 377
f 2 377 387
f 2 387 386
f 2 386 385
f 2 385 396
f 2 396 395
f 2 395 403
f 2 403 410
f 2 410 419
f 2 419 418
f 2 418 417
f 2 417 426
f 2 426 432
f 2 432 440
f 2 440 439
f 2 439 447
f 2 447 454
f 2 454 461
f 2 461 468
f 2 468 464
f 2 464 463
f 2 463 456
f 2 456 449
f 2 449 441
f 2 441 433
f 2 433 427
f 2 427 420
f 2 420 411
f 2 411 404
f 2 404 397
f 2 397 388
f 2 388 379
f 2 379 370
f 2 370 362
f 2 362 354
f 2 354 346
f 2 346 340
f 2 340 334
f 2 334 327
f 2 327 319
f 2 319 318
f 2 318 311
f 2 311 310
f 2 310 304
f 2 304 299
f 2 299 291
f 2 291 290
f 2 290 288
f 2 288 283
f 2 283 275
f 2 275 268
f 2 268 266
f 2 266 260
f 2 260 254
f 2 254 245
f 2 245 248
f 2 248 249
f 2 249 237
f 2 237 225
f 2 225 219
f 2 219 218
f 2 218 212
f 2 212 205
f 2 205 199
f 2 199 196
f 2 196 190
f 2 190 189
f 2 189 183
f 2 183 182
f 2 182 175
f 2 175 169
f 2 169 168
f 2 168 163
f 2 163 162
f 2 162 156
f 2 156 155
f 2 155 150
f 2 150 141
f 2 141 135
f 2 135 134
f 2 134 124
f 2 124 119
f 2 119 118
f 2 118 112
f 2 112 104
f 2 104 98
f 2 98 97
f 2 97 95
f 2 95 90
f 2 90 84
f 2 84 79
f 2 79 75
f 2 75 71
f 2 71 67
f 2 67 62
f 2 62 58
f 2 58 57
f 2 57 56
f 2 56 52
f 2 52 51
f 2 51 46
f 2 46 41
f 2 41 40
f 2 40 36
f 2 36 35
f 2 35 31
f 2 31 27
f 2 27 26
f 2 26 22
f 2 22 21
f 2 21 17
f 2 17 12
f 2 12 11
f 2 11 7
f 2 7 3
f 3 7 4
f 4 7 8
f 5 9 6
f 6 9 10
f 7 11 8
f 8 11 12
f 8 12 13
f 9 14 10
f 10 14 15
f 10 15 16
f 12 17 13
f 13 17 18
f 15 19 16
f 15 20 19
f 17 21 18
f 18 21 22
f 18 22 23
f 19 20 24
f 20 25 24
f 22 26 23
f 23 26 27
f 23 27 28
f 24 25 29
f 25 30 29
f 27 31 32
f 27 32 28
f 29 30 33
f 29 33 34
f 31 35 32
f 32 35 36
f 32 36 37
f 33 38 34
f 34 38 39
f 36 40 37
f 37 40 41
f 37 41 42
f 38 43 39
f 39 43 44
f 39 44 45
f 41 46 47
f 41 47 42
f 44 48 45
f 45 48 49
f 45 49 50
f 46 51 47
f 47 51 52
f 47 52 53
f 49 54 50
f 50 54 55
f 52 56 53
f 53 56 57
f 53 57 58
f 53 58 59
f 54 60 55
f 55 60 61
f 58 62 59
f 59 62 63
f 60 64 61
f 61 64 65
f 61 65 66
f 62 67 63
f 63 67 68
f 64 69 65
f 65 70 66
f 65 69 70
f 67 71 68
f 68 71 72
f 69 73 70
f 70 73 74
f 71 75 72
f 72 75 76
f 73 77 78
f 73 78 74
f 75 79 76
f 76 79 80
f 77 81 82
f 77 82 78
f 78 82 83
f 79 84 80
f 80 84 85
f 81 86 87
f 81 87 82
f 82 88 83
f 82 87 88
f 83 88 89
f 84 90 85
f 85 90 91
f 86 92 93
f 86 93 94
f 86 94 87
f 87 94 89
f 87 89 88
f 90 95 91
f 91 95 97
f 91 97 98
f 91 98 96
f 92 99 100
f 92 100 93
f 92 101 99
f 93 100 102
f 96 98 104
f 96 104 103
f 99 105 106
f 99 106 107
f 99 107 100
f 99 101 105
f 100 107 102
f 101 108 109
f 101 109 110
f 101 110 105
f 103 104 112
f 103 112 111
f 108 113 114
f 108 114 109
f 109 115 116
f 109 116 110
f 109 114 115
f 111 112 118
f 111 118 119
f 111 119 117
f 113 120 121
f 113 121 122
f 113 122 114
f 114 122 115
f 117 119 124
f 117 124 123
f 120 125 126
f 120 126 127
f 120 127 128
f 120 128 129
f 120 129 130
f 120 130 121
f 120 131 125
f 121 130 132
f 121 132 122
f 123 124 134
f 123 134 135
f 123 135 133
f 125 136 137
f 125 137 126
f 125 131 136
f 126 137 127
f 127 137 128
f 131 138 139
f 131 139 136
f 133 135 141
f 133 141 140
f 136 139 142
f 138 143 144
f 138 144 145
f 138 145 146
f 138 146 147
f 138 147 148
f 138 148 139
f 139 148 142
f 140 141 150
f 140 150 149
f 143 151 144
f 144 151 152
f 144 152 153
f 144 153 145
f 145 153 146
f 149 150 155
f 149 155 156
f 149 156 154
f 151 157 158
f 151 158 159
f 151 159 152
f 152 159 160
f 154 156 162
f 154 162 163
f 154 163 161
f 157 164 165
f 157 165 166
f 157 166 158
f 158 166 159
f 159 166 160
f 161 163 168
f 161 168 169
f 161 169 167
f 164 170 171
f 164 171 172
f 164 172 165
f 165 172 173
f 165 173 166
f 167 169 175
f 167 175 176
f 167 176 174
f 170 177 178
f 170 178 171
f 171 178 179
f 174 176 180
f 174 180 181
f 175 182 176
f 176 182 183
f 176 183 184
f 176 184 185
f 176 185 180
f 177 186 178
f 178 186 187
f 178 187 179
f 179 187 188
f 180 185 181
f 183 189 184
f 184 189 190
f 184 190 191
f 184 191 185
f 186 192 193
f 186 193 187
f 187 193 194
f 187 194 188
f 188 194 195
f 190 196 197
f 190 197 191
f 191 197 199
f 191 199 198
f 192 200 201
f 192 201 193
f 193 201 202
f 193 202 194
f 194 202 195
f 196 199 197
f 198 203 204
f 198 199 205
f 198 205 203
f 200 206 207
f 200 207 208
f 200 208 209
f 200 209 201
f 201 209 210
f 201 210 202
f 203 211 204
f 203 205 211
f 205 212 213
f 205 213 211
f 206 214 215
f 206 215 207
f 207 215 208
f 208 215 216
f 211 213 218
f 211 218 219
f 211 219 217
f 212 218 213
f 214 220 215
f 215 220 221
f 215 221 216
f 216 221 223
f 216 223 222
f 217 219 225
f 217 225 226
f 217 226 227
f 217 227 224
f 220 228 229
f 220 229 230
f 220 230 231
f 220 231 221
f 221 231 223
f 222 223 233
f 222 233 232
f 223 231 233
f 224 227 235
f 224 235 236
f 224 236 234
f 225 237 226
f 226 237 227
f 227 237 235
f 228 238 229
f 229 239 240
f 229 240 241
f 229 241 242
f 229 242 230
f 229 238 239
f 230 243 231
f 230 242 243
f 231 243 233
f 232 233 243
f 232 243 244
f 234 236 245
f 234 245 246
f 234 246 247
f 235 248 236
f 235 237 249
f 235 249 248
f 236 248 245
f 238 250 239
f 239 251 257
f 239 257 252
f 239 252 240
f 239 250 251
f 242 253 243
f 243 253 244
f 245 254 246
f 246 254 255
f 246 255 247
f 250 256 251
f 251 256 258
f 251 258 259
f 251 259 257
f 254 260 261
f 254 261 255
f 255 261 262
f 256 263 264
f 256 264 258
f 258 264 265
f 258 265 259
f 260 266 261
f 261 266 262
f 262 266 268
f 262 268 269
f 262 269 270
f 262 270 267
f 263 271 264
f 264 272 273
f 264 273 265
f 264 271 272
f 267 270 274
f 268 275 269
f 269 275 270
f 270 275 274
f 271 276 272
f 272 277 278
f 272 278 279
f 272 279 280
f 272 280 273
f 272 276 277
f 274 281 282
f 274 275 283
f 274 283 281
f 276 284 285
f 276 285 277
f 277 285 286
f 277 286 287
f 277 287 278
f 278 287 279
f 281 283 288
f 281 288 282
f 282 288 290
f 282 290 291
f 282 291 289
f 284 292 285
f 285 293 294
f 285 294 295
f 285 295 286
f 285 292 293
f 289 291 296
f 289 296 297
f 289 297 298
f 291 299 296
f 292 300 293
f 293 300 301
f 293 301 302
f 293 302 303
f 293 303 294
f 296 299 297
f 297 299 304
f 297 304 298
f 298 304 305
f 298 305 306
f 300 307 301
f 301 308 309
f 301 309 302
f 301 307 308
f 302 309 303
f 304 310 305
f 305 310 311
f 305 311 306
f 306 312 313
f 306 311 312
f 307 314 308
f 308 315 316
f 308 316 317
f 308 317 309
f 308 314 315
f 311 318 312
f 312 319 320
f 312 320 313
f 312 318 319
f 313 320 321
f 313 321 322
f 314 323 315
f 315 323 324
f 315 324 325
f 315 325 326
f 315 326 316
f 316 326 317
f 319 327 321
f 319 321 320
f 321 327 322
f 322 327 329
f 322 329 330
f 322 330 328
f 323 331 324
f 324 332 333
f 324 333 325
f 324 331 332
f 327 334 330
f 327 330 329
f 328 335 336
f 328 330 335
f 330 334 335
f 331 337 332
f 332 338 339
f 332 339 333
f 332 337 338
f 334 340 335
f 335 340 341
f 335 341 336
f 336 341 342
f 337 343 338
f 338 344 345
f 338 345 339
f 338 343 344
f 340 346 347
f 340 347 348
f 340 348 341
f 341 348 349
f 341 349 342
f 342 349 350
f 343 351 344
f 344 352 353
f 344 353 345
f 344 351 352
f 346 354 355
f 346 355 347
f 347 355 356
f 347 356 357
f 347 357 350
f 347 350 348
f 348 350 349
f 351 358 352
f 352 359 360
f 352 360 361
f 352 361 353
f 352 358 359
f 354 362 363
f 354 363 355
f 355 363 364
f 355 364 365
f 355 365 356
f 356 365 357
f 358 366 359
f 359 367 368
f 359 368 369
f 359 369 360
f 359 366 367
f 360 369 361
f 362 370 371
f 362 371 363
f 363 371 372
f 363 372 364
f 364 372 373
f 366 374 367
f 367 375 376
f 367 376 377
f 367 377 378
f 367 378 368
f 367 374 375
f 370 379 380
f 370 380 381
f 370 381 371
f 371 381 382
f 371 382 373
f 371 373 372
f 374 383 375
f 375 384 385
f 375 385 386
f 375 386 387
f 375 387 376
f 375 383 384
f 376 387 377
f 379 388 380
f 380 389 390
f 380 390 391
f 380 391 392
f 380 392 381
f 380 388 389
f 381 392 382
f 382 392 391
f 383 393 384
f 384 394 395
f 384 395 396
f 384 396 385
f 384 393 394
f 388 397 389
f 389 397 398
f 389 398 399
f 389 399 400
f 389 400 390
f 390 400 391
f 393 401 402
f 393 402 394
f 394 402 395
f 395 402 403
f 397 404 405
f 397 405 398
f 398 405 406
f 398 406 399
f 399 406 407
f 401 408 402
f 402 409 410
f 402 410 403
f 402 408 409
f 404 411 412
f 404 412 405
f 405 412 413
f 405 413 407
f 405 407 406
f 407 413 414
f 408 415 409
f 409 416 417
f 409 417 418
f 409 418 419
f 409 419 410
f 409 415 416
f 411 420 421
f 411 421 422
f 411 422 412
f 412 422 423
f 412 423 414
f 412 414 413
f 415 424 425
f 415 425 416
f 416 425 417
f 417 425 426
f 420 427 428
f 420 428 421
f 421 428 429
f 421 429 423
f 421 423 422
f 424 430 431
f 424 431 425
f 425 431 432
f 425 432 426
f 427 433 434
f 427 434 428
f 428 434 435
f 428 435 429
f 430 436 431
f 431 436 437
f 431 437 438
f 431 438 439
f 431 439 440
f 431 440 432
f 433 441 442
f 433 442 434
f 434 442 443
f 434 443 435
f 436 444 437
f 437 444 445
f 437 445 438
f 438 446 447
f 438 447 439
f 438 445 448
f 438 448 446
f 441 449 442
f 442 449 450
f 442 450 451
f 442 451 452
f 442 452 443
f 446 448 453
f 446 453 447
f 447 453 454
f 448 455 453
f 449 456 450
f 450 456 457
f 450 457 458
f 450 458 459
f 450 459 451
f 453 460 454
f 453 455 460
f 454 460 461
f 455 462 460
f 456 463 457
f 457 463 464
f 457 464 465
f 457 465 458
f 458 465 466
f 458 466 459
f 460 467 461
f 460 462 467
f 461 467 468
f 462 465 467
f 462 466 465
f 464 468 465
f 465 468 467
