v 0.014362 -0.003293 0.045588
v 0.014265 -0.003293 0.045589
v 0.014323 -0.003293 0.045549
v 0.014442 -0.002788 0.045588
v 0.014473 -0.002591 0.045589
v 0.014442 -0.002783 0.045589
v -0.012625 -0.003293 0.045589
v 0.013732 -0.002591 0.044853
v 0.013615 -0.003293 0.044853
v 0.014442 -0.002591 0.045557
v 0.014473 -0.002591 0.045588
v 0.014553 -0.001851 0.045589
v -0.012866 -0.002591 0.045589
v -0.012742 -0.003293 0.045589
v 0.013815 -0.001851 0.044853
v -0.013491 -0.003293 0.044853
v 0.014553 -0.001851 0.045588
v 0.014595 -0.001115 0.045589
v -0.012955 -0.001851 0.045589
v -0.013610 -0.002591 0.044853
v -0.013457 -0.003293 0.044887
v 0.013860 -0.001110 0.044853
v 0.014595 -0.001110 0.045588
v 0.014600 -0.000369 0.045588
v 0.014598 -0.000369 0.045589
v -0.012961 -0.001766 0.045589
v -0.013693 -0.001851 0.044853
v 0.013865 -0.000369 0.044853
v 0.014564 0.000372 0.045588
v 0.014564 0.000372 0.045589
v -0.013002 -0.001110 0.045589
v -0.013738 -0.001110 0.044853
v 0.013829 0.000372 0.044853
v 0.014495 0.001113 0.045588
v 0.014492 0.001113 0.045589
v -0.013008 -0.000369 0.045589
v -0.013743 -0.000369 0.044853
v 0.013754 0.001113 0.044853
v 0.014384 0.001853 0.045588
v 0.014384 0.001853 0.045589
v -0.012969 0.000377 0.045589
v -0.013707 0.000372 0.044853
v 0.013638 0.001853 0.044853
v 0.014234 0.002594 0.045588
v 0.014234 0.002594 0.045589
v -0.013629 0.001113 0.044853
v -0.012889 0.001113 0.045589
v 0.013479 0.002594 0.044853
v 0.014043 0.003335 0.045588
v 0.014043 0.003335 0.045589
v -0.013513 0.001853 0.044853
v -0.012767 0.001847 0.045589
v 0.013277 0.003335 0.044853
v 0.013807 0.004076 0.045588
v 0.013807 0.004076 0.045589
v -0.013352 0.002594 0.044853
v -0.012595 0.002594 0.045589
v 0.013027 0.004076 0.044853
v 0.013701 0.004076 0.045488
v 0.013701 0.004359 0.045588
v 0.013701 0.004359 0.045589
v -0.013149 0.003335 0.044853
v -0.012378 0.003335 0.045589
v 0.012961 0.004246 0.044853
v 0.013529 0.004815 0.045588
v 0.013529 0.004815 0.045589
v -0.012961 0.003889 0.044853
v -0.012220 0.003779 0.045589
v -0.012897 0.004076 0.044853
v 0.012961 0.004815 0.045064
v 0.012730 0.004816 0.044853
v 0.013202 0.005554 0.045588
v 0.013202 0.005556 0.045589
v -0.012112 0.004076 0.045589
v -0.012597 0.004816 0.044853
v -0.011535 0.005556 0.045589
v 0.012381 0.005556 0.044853
v 0.012961 0.005554 0.045372
v 0.012961 0.006027 0.045588
v 0.012961 0.006029 0.045589
v -0.012245 0.005554 0.044853
v -0.011479 0.005676 0.045589
v -0.011193 0.006295 0.045589
v 0.012822 0.006295 0.045588
v 0.012220 0.005856 0.044853
v 0.012822 0.006295 0.045589
v -0.010797 0.007037 0.045589
v -0.012220 0.005600 0.044853
v 0.012220 0.006295 0.045064
v 0.012384 0.007036 0.045588
v 0.012384 0.007037 0.045589
v 0.011976 0.006295 0.044853
v -0.010738 0.007131 0.045589
v -0.011832 0.006295 0.044853
v 0.012220 0.007036 0.045450
v 0.012220 0.007285 0.045588
v 0.012220 0.007286 0.045589
v 0.011507 0.007036 0.044853
v -0.010331 0.007778 0.045589
v -0.011479 0.006851 0.044853
v 0.011881 0.007776 0.045588
v 0.011881 0.007778 0.045589
v 0.011479 0.007073 0.044853
v 0.011479 0.007776 0.045263
v -0.011357 0.007036 0.044853
v -0.009998 0.008243 0.045589
v 0.011479 0.008304 0.045588
v 0.011479 0.008306 0.045589
v 0.010963 0.007776 0.044853
v -0.010808 0.007776 0.044853
v -0.009781 0.008529 0.045589
v 0.011310 0.008517 0.045589
v 0.010738 0.008050 0.044853
v -0.010738 0.007860 0.044853
v -0.009257 0.009156 0.045589
v 0.010738 0.008517 0.045153
v 0.010744 0.009159 0.045589
v 0.010333 0.008517 0.044853
v -0.010170 0.008517 0.044853
v -0.009165 0.009258 0.045589
v 0.010650 0.009258 0.045588
v 0.010650 0.009258 0.045589
v 0.009998 0.008872 0.044853
v -0.009998 0.008697 0.044853
v -0.008516 0.009919 0.045589
v 0.009998 0.009258 0.045124
v 0.009998 0.009898 0.045589
v 0.009604 0.009258 0.044853
v -0.009426 0.009258 0.044853
v -0.008433 0.009999 0.045589
v 0.009887 0.009999 0.045588
v 0.009887 0.009999 0.045589
v 0.009257 0.009573 0.044853
v -0.009257 0.009411 0.044853
v -0.007775 0.010573 0.045589
v 0.009257 0.009999 0.045175
v 0.009257 0.010532 0.045588
v 0.009268 0.010523 0.045589
v 0.008744 0.009999 0.044853
v -0.008549 0.009999 0.044853
v -0.007562 0.010743 0.045589
v 0.008990 0.010739 0.045589
v 0.008516 0.010177 0.044853
v -0.008516 0.010025 0.044853
v -0.007035 0.011134 0.045589
v 0.008516 0.010739 0.045306
v 0.008516 0.011084 0.045588
v 0.008516 0.011084 0.045589
v 0.007775 0.010698 0.044853
v -0.007775 0.010551 0.044853
v -0.006513 0.011482 0.045589
v 0.007775 0.010739 0.044887
v 0.007911 0.011482 0.045589
v 0.007711 0.010739 0.044853
v -0.007479 0.010739 0.044853
v -0.006294 0.011620 0.045589
v 0.007775 0.011480 0.045515
v 0.007775 0.011568 0.045589
v 0.007034 0.011147 0.044853
v -0.007035 0.011007 0.044853
v -0.005553 0.012040 0.045589
v 0.007772 0.011569 0.045589
v 0.006402 0.011480 0.044853
v 0.007034 0.011480 0.045144
v -0.006294 0.011399 0.044853
v -0.005184 0.012223 0.045589
v 0.007034 0.011985 0.045589
v 0.006294 0.011535 0.044853
v -0.004812 0.012399 0.045589
v -0.006116 0.011480 0.044853
v 0.006555 0.012223 0.045589
v 0.005553 0.011865 0.044853
v 0.006294 0.012221 0.045475
v -0.004072 0.012703 0.045588
v -0.005553 0.011731 0.044853
v -0.004072 0.012703 0.045589
v 0.006294 0.012346 0.045589
v 0.005553 0.012221 0.045184
v 0.004812 0.012140 0.044853
v -0.003336 0.012957 0.045589
v -0.004812 0.012011 0.044853
v 0.005553 0.012655 0.045589
v 0.004812 0.012221 0.044929
v 0.004554 0.012221 0.044853
v -0.003331 0.012958 0.045589
v -0.004072 0.012241 0.044853
v 0.004812 0.012916 0.045589
v 0.004071 0.012368 0.044853
v -0.002590 0.013165 0.045589
v -0.003331 0.012422 0.044853
v 0.004648 0.012963 0.045589
v 0.004071 0.012962 0.045428
v 0.003331 0.012548 0.044853
v -0.001849 0.013326 0.045589
v -0.001849 0.013326 0.045588
v -0.002590 0.012558 0.044853
v 0.004071 0.013128 0.045589
v 0.002590 0.012681 0.044853
v 0.003331 0.013298 0.045589
v -0.001108 0.013447 0.045589
v -0.001849 0.012650 0.044853
v 0.001849 0.012772 0.044853
v 0.002590 0.012962 0.045130
v 0.002590 0.013425 0.045589
v -0.000373 0.013523 0.045589
v -0.000368 0.013523 0.045588
v -0.000368 0.012962 0.045029
v -0.000368 0.012785 0.044853
v 0.001111 0.012820 0.044853
v 0.001849 0.013511 0.045589
v 0.000368 0.013559 0.045589
v 0.000373 0.013559 0.045588
v 0.000373 0.012825 0.044853
v 0.001111 0.013556 0.045589
v 0.000373 0.013559 0.045589
f 1 2 7
f 1 7 14
f 1 14 21
f 1 21 16
f 1 16 9
f 1 9 3
f 1 3 4
f 1 4 5
f 1 5 6
f 1 6 2
f 2 6 5
f 2 5 12
f 2 12 18
f 2 18 25
f 2 25 30
f 2 30 35
f 2 35 40
f 2 40 45
f 2 45 50
f 2 50 55
f 2 55 61
f 2 61 66
f 2 66 73
f 2 73 80
f 2 80 86
f 2 86 91
f 2 91 97
f 2 97 102
f 2 102 108
f 2 108 112
f 2 112 117
f 2 117 122
f 2 122 127
f 2 127 132
f 2 132 138
f 2 138 142
f 2 142 148
f 2 148 153
f 2 153 158
f 2 158 162
f 2 162 167
f 2 167 171
f 2 171 177
f 2 177 182
f 2 182 187
f 2 187 191
f 2 191 197
f 2 197 199
f 2 199 204
f 2 204 210
f 2 210 214
f 2 214 215
f 2 215 211
f 2 211 205
f 2 205 200
f 2 200 194
f 2 194 189
f 2 189 185
f 2 185 180
f 2 180 176
f 2 176 169
f 2 169 166
f 2 166 161
f 2 161 156
f 2 156 151
f 2 151 145
f 2 145 141
f 2 141 135
f 2 135 130
f 2 130 125
f 2 125 120
f 2 120 115
f 2 115 111
f 2 111 106
f 2 106 99
f 2 99 93
f 2 93 87
f 2 87 83
f 2 83 82
f 2 82 76
f 2 76 74
f 2 74 68
f 2 68 63
f 2 63 57
f 2 57 52
f 2 52 47
f 2 47 41
f 2 41 36
f 2 36 31
f 2 31 26
f 2 26 19
f 2 19 13
f 2 13 7
f 3 8 4
f 3 9 8
f 4 10 11
f 4 11 5
f 4 8 10
f 5 11 17
f 5 17 12
f 7 13 14
f 8 15 10
f 8 9 16
f 8 16 20
f 8 20 27
f 8 27 32
f 8 32 37
f 8 37 42
f 8 42 46
f 8 46 51
f 8 51 56
f 8 56 62
f 8 62 67
f 8 67 69
f 8 69 75
f 8 75 81
f 8 81 88
f 8 88 94
f 8 94 100
f 8 100 105
f 8 105 110
f 8 110 114
f 8 114 119
f 8 119 124
f 8 124 129
f 8 129 134
f 8 134 140
f 8 140 144
f 8 144 150
f 8 150 155
f 8 155 160
f 8 160 165
f 8 165 170
f 8 170 175
f 8 175 181
f 8 181 186
f 8 186 190
f 8 190 196
f 8 196 201
f 8 201 208
f 8 208 213
f 8 213 209
f 8 209 202
f 8 202 198
f 8 198 193
f 8 193 188
f 8 188 184
f 8 184 179
f 8 179 172
f 8 172 168
f 8 168 163
f 8 163 159
f 8 159 154
f 8 154 149
f 8 149 143
f 8 143 139
f 8 139 133
f 8 133 128
f 8 128 123
f 8 123 118
f 8 118 113
f 8 113 109
f 8 109 103
f 8 103 98
f 8 98 92
f 8 92 85
f 8 85 77
f 8 77 71
f 8 71 64
f 8 64 58
f 8 58 53
f 8 53 48
f 8 48 43
f 8 43 38
f 8 38 33
f 8 33 28
f 8 28 22
f 8 22 15
f 10 17 11
f 10 15 17
f 12 17 18
f 13 19 20
f 13 20 21
f 13 21 14
f 15 22 17
f 16 21 20
f 17 23 18
f 17 22 23
f 18 23 24
f 18 24 25
f 19 26 27
f 19 27 20
f 22 28 24
f 22 24 23
f 24 29 30
f 24 30 25
f 24 28 33
f 24 33 29
f 26 31 27
f 27 31 32
f 29 34 30
f 29 33 34
f 30 34 35
f 31 36 37
f 31 37 32
f 33 38 34
f 34 38 39
f 34 39 40
f 34 40 35
f 36 41 42
f 36 42 37
f 38 43 39
f 39 43 44
f 39 44 45
f 39 45 40
f 41 46 42
f 41 47 46
f 43 48 44
f 44 49 50
f 44 50 45
f 44 48 49
f 46 47 51
f 47 52 51
f 48 53 49
f 49 54 55
f 49 55 50
f 49 53 54
f 51 52 56
f 52 57 56
f 53 58 59
f 53 59 54
f 54 59 60
f 54 60 61
f 54 61 55
f 56 57 62
f 57 63 62
f 58 64 65
f 58 65 60
f 58 60 59
f 60 65 66
f 60 66 61
f 62 63 67
f 63 68 69
f 63 69 67
f 64 70 65
f 64 71 70
f 65 70 72
f 65 72 73
f 65 73 66
f 68 74 69
f 69 74 76
f 69 76 75
f 70 71 72
f 71 77 78
f 71 78 72
f 72 78 79
f 72 79 80
f 72 80 73
f 75 76 82
f 75 82 83
f 75 83 81
f 77 84 79
f 77 79 78
f 77 85 84
f 79 84 80
f 80 84 86
f 81 83 87
f 81 87 88
f 84 85 89
f 84 89 90
f 84 90 91
f 84 91 86
f 85 92 89
f 87 93 94
f 87 94 88
f 89 92 90
f 90 92 95
f 90 95 96
f 90 96 97
f 90 97 91
f 92 98 95
f 93 99 94
f 94 99 100
f 95 98 96
f 96 98 101
f 96 101 102
f 96 102 97
f 98 103 104
f 98 104 101
f 99 105 100
f 99 106 105
f 101 104 107
f 101 107 108
f 101 108 102
f 103 109 104
f 104 109 107
f 105 106 110
f 106 111 110
f 107 109 112
f 107 112 108
f 109 113 112
f 110 111 114
f 111 115 114
f 112 113 116
f 112 116 117
f 113 118 116
f 114 115 119
f 115 120 119
f 116 118 117
f 117 118 121
f 117 121 122
f 118 123 121
f 119 120 124
f 120 125 124
f 121 123 126
f 121 126 127
f 121 127 122
f 123 128 126
f 124 125 129
f 125 130 129
f 126 128 127
f 127 128 131
f 127 131 132
f 128 133 131
f 129 130 134
f 130 135 134
f 131 133 136
f 131 136 137
f 131 137 138
f 131 138 132
f 133 139 136
f 134 135 140
f 135 141 140
f 136 139 137
f 137 142 138
f 137 139 143
f 137 143 142
f 140 141 144
f 141 145 144
f 142 143 146
f 142 146 147
f 142 147 148
f 143 149 146
f 144 145 150
f 145 151 150
f 146 149 147
f 147 149 152
f 147 152 153
f 147 153 148
f 149 154 152
f 150 151 155
f 151 156 155
f 152 154 157
f 152 157 153
f 153 157 158
f 154 159 157
f 155 156 160
f 156 161 160
f 157 159 158
f 158 159 162
f 159 163 164
f 159 164 162
f 160 161 165
f 161 166 165
f 162 164 167
f 163 167 164
f 163 168 167
f 165 166 169
f 165 169 170
f 167 168 171
f 168 172 173
f 168 173 171
f 169 174 175
f 169 175 170
f 169 176 174
f 171 173 177
f 172 178 177
f 172 177 173
f 172 179 178
f 174 176 180
f 174 180 181
f 174 181 175
f 177 178 182
f 178 179 182
f 179 183 182
f 179 184 183
f 180 185 186
f 180 186 181
f 182 183 187
f 183 184 187
f 184 188 187
f 185 189 186
f 186 189 190
f 187 188 191
f 188 192 191
f 188 193 192
f 189 194 195
f 189 195 190
f 190 195 196
f 191 192 197
f 192 193 197
f 193 198 199
f 193 199 197
f 194 200 195
f 195 200 196
f 196 200 201
f 198 202 203
f 198 203 199
f 199 203 204
f 200 205 206
f 200 206 201
f 201 206 207
f 201 207 208
f 202 204 203
f 202 209 210
f 202 210 204
f 205 211 212
f 205 212 206
f 206 212 213
f 206 213 207
f 207 213 208
f 209 214 210
f 209 213 214
f 211 215 212
f 212 214 213
f 212 215 214
