v -0.014723 0.000371 0.035294
v -0.014721 0.000371 0.035297
v -0.014718 0.001108 0.035294
v -0.013991 0.000371 0.034562
v -0.013991 0.000366 0.034562
v -0.014444 -0.000368 0.035049
v -0.014688 -0.000368 0.035294
v -0.014687 -0.000368 0.035297
v -0.014716 0.001108 0.035297
v -0.013986 0.001108 0.034562
v -0.014678 0.001850 0.035294
v -0.013955 -0.000374 0.034562
v -0.014617 -0.001107 0.035294
v -0.014616 -0.001107 0.035297
v -0.014674 0.001850 0.035297
v -0.013943 0.001850 0.034562
v -0.014596 0.002592 0.035297
v -0.014598 0.002592 0.035294
v -0.013880 -0.001113 0.034562
v -0.014444 -0.001107 0.035121
v -0.014509 -0.001849 0.035294
v -0.014507 -0.001849 0.035297
v -0.014444 0.002592 0.035141
v -0.013861 0.002587 0.034562
v -0.014444 0.003242 0.035297
v -0.014444 0.003253 0.035294
v -0.013572 0.004073 0.034562
v -0.013703 0.003483 0.034562
v -0.013737 0.003331 0.034562
v -0.013765 -0.001852 0.034562
v -0.014444 -0.002172 0.035294
v -0.014443 -0.002172 0.035297
v -0.014421 0.003331 0.035297
v -0.014425 0.003331 0.035294
v -0.013369 0.004799 0.034562
v -0.013703 -0.002145 0.034562
v -0.014359 -0.002589 0.035294
v -0.014359 -0.002589 0.035297
v -0.014193 0.004073 0.035297
v -0.014196 0.004073 0.035294
v -0.013113 0.005555 0.034562
v -0.013606 -0.002600 0.034562
v -0.014169 -0.003331 0.035294
v -0.014169 -0.003328 0.035297
v -0.013923 0.004813 0.035297
v -0.013925 0.004813 0.035294
v -0.012963 0.005934 0.034562
v -0.013407 -0.003331 0.034562
v -0.013703 -0.003331 0.034845
v -0.013938 -0.004073 0.035294
v -0.013937 -0.004073 0.035297
v -0.013703 0.005330 0.035297
v -0.013703 0.005335 0.035294
v -0.012815 0.006297 0.034562
v -0.013162 -0.004073 0.034562
v -0.013703 -0.004073 0.035071
v -0.013703 -0.004704 0.035294
v -0.013703 -0.004704 0.035297
v -0.013604 0.005555 0.035297
v -0.013608 0.005555 0.035294
v -0.012468 0.007033 0.034562
v -0.012963 -0.004579 0.034562
v -0.013661 -0.004812 0.035294
v -0.013661 -0.004812 0.035297
v -0.013236 0.006294 0.035297
v -0.013239 0.006294 0.035294
v -0.012222 0.007494 0.034562
v -0.012963 -0.004812 0.034648
v -0.012867 -0.004818 0.034562
v -0.013336 -0.005554 0.035294
v -0.013335 -0.005554 0.035297
v -0.012963 0.006782 0.035297
v -0.012963 0.006787 0.035294
v -0.012065 0.007775 0.034562
v -0.012523 -0.005554 0.034562
v -0.012963 -0.005554 0.034955
v -0.012963 -0.006294 0.035294
v -0.012963 -0.006294 0.035297
v -0.012814 0.007033 0.035297
v -0.012817 0.007033 0.035294
v -0.011604 0.008515 0.034562
v -0.012225 -0.006109 0.034562
v -0.012222 -0.006294 0.034648
v -0.012529 -0.007036 0.035294
v -0.012530 -0.007036 0.035297
v -0.012331 0.007775 0.035297
v -0.012334 0.007775 0.035294
v -0.011483 0.008694 0.034562
v -0.012120 -0.006299 0.034562
v -0.012222 -0.007036 0.035033
v -0.012222 -0.007504 0.035294
v -0.012222 -0.007504 0.035297
v -0.012222 0.007930 0.035297
v -0.012222 0.007933 0.035294
v -0.011075 0.009257 0.034562
v -0.011656 -0.007038 0.034562
v -0.012034 -0.007775 0.035294
v -0.012035 -0.007775 0.035297
v -0.011794 0.008496 0.035297
v -0.011782 0.008515 0.035294
v -0.011058 0.009279 0.034562
v -0.011481 -0.007288 0.034562
v -0.011481 -0.007775 0.034846
v -0.011470 -0.008517 0.035294
v -0.011471 -0.008517 0.035297
v -0.011779 0.008515 0.035297
v -0.011481 0.008878 0.035297
v -0.011481 0.008880 0.035294
v -0.010742 0.009677 0.034562
v -0.011120 -0.007778 0.034562
v -0.011058 -0.008363 0.034880
v -0.011058 -0.008517 0.034980
v -0.010818 -0.009259 0.035294
v -0.010820 -0.009259 0.035297
v -0.011148 0.009257 0.035297
v -0.011151 0.009257 0.035294
v -0.010471 0.009999 0.034562
v -0.011058 -0.007854 0.034562
v -0.010740 -0.008246 0.034562
v -0.010740 -0.008517 0.034737
v -0.010740 -0.009259 0.035236
v -0.010740 -0.009340 0.035294
v -0.010740 -0.009343 0.035297
v -0.010504 -0.008517 0.034562
v -0.010740 0.009687 0.035297
v -0.010740 0.009690 0.035294
v -0.010001 0.010511 0.034562
v -0.009999 -0.009259 0.034707
v -0.009999 -0.009051 0.034562
v -0.010068 -0.009998 0.035294
v -0.010071 -0.009998 0.035297
v -0.010421 0.009999 0.035297
v -0.010425 0.009999 0.035294
v -0.009777 0.010738 0.034562
v -0.009788 -0.009259 0.034562
v -0.009999 -0.009998 0.035246
v -0.009999 -0.010063 0.035294
v -0.009999 -0.010063 0.035297
v -0.009999 0.010386 0.035297
v -0.009999 0.010389 0.035294
v -0.009260 0.011231 0.034562
v -0.009258 -0.009738 0.034562
v -0.009258 -0.010689 0.035294
v -0.009258 -0.010692 0.035297
v -0.009258 -0.009998 0.034758
v -0.009581 0.010736 0.035297
v -0.009582 0.010738 0.035294
v -0.008976 0.011480 0.034562
v -0.008946 -0.009998 0.034562
v -0.009193 -0.010740 0.035294
v -0.009196 -0.010740 0.035297
v -0.009258 0.010993 0.035297
v -0.009258 0.010996 0.035294
v -0.008516 0.011859 0.034562
v -0.008521 -0.010332 0.034562
v -0.008519 -0.010740 0.034889
v -0.008519 -0.011236 0.035297
v -0.008597 0.011472 0.035297
v -0.008590 0.011480 0.035294
v -0.007778 0.012406 0.034562
v -0.008036 0.012220 0.034562
v -0.007940 -0.010740 0.034562
v -0.007779 -0.010846 0.034562
v -0.008142 -0.011483 0.035297
v -0.008519 0.011526 0.035297
v -0.008519 0.011529 0.035294
v -0.007035 0.012889 0.034562
v -0.007038 -0.011290 0.034562
v -0.007778 -0.011480 0.035098
v -0.007780 -0.011710 0.035297
v -0.008515 0.011529 0.035297
v -0.007778 0.011992 0.035294
v -0.006908 0.012962 0.034562
v -0.006674 -0.011483 0.034562
v -0.007038 -0.011480 0.034727
v -0.007757 -0.011724 0.035297
v -0.007778 0.011989 0.035297
v -0.007366 0.012220 0.035297
v -0.006297 0.013306 0.034562
v -0.006299 -0.011672 0.034562
v -0.007038 -0.012122 0.035294
v -0.007038 -0.012124 0.035297
v -0.007034 0.012396 0.035297
v -0.005553 0.013674 0.034562
v -0.006287 -0.011678 0.034562
v -0.006297 -0.012222 0.035058
v -0.006837 -0.012225 0.035297
v -0.006297 0.012742 0.035297
v -0.006297 0.012745 0.035294
v -0.005486 0.013704 0.034562
v -0.005556 -0.012000 0.034562
v -0.006297 -0.012479 0.035294
v -0.006299 -0.012479 0.035297
v -0.005762 0.012962 0.035297
v -0.005769 0.012962 0.035294
v -0.004816 0.013988 0.034562
v -0.004958 -0.012222 0.034562
v -0.005556 -0.012222 0.034768
v -0.005556 -0.012788 0.035297
v -0.005551 0.013046 0.035297
v -0.004075 0.014256 0.034562
v -0.004817 -0.012273 0.034562
v -0.005051 -0.012964 0.035297
v -0.004811 0.013297 0.035297
v -0.004075 0.013506 0.035294
v -0.003725 0.013582 0.035297
v -0.003725 0.014332 0.034562
v -0.004075 -0.012498 0.034562
v -0.004817 -0.013045 0.035297
v -0.004075 0.013503 0.035297
v -0.003725 -0.013319 0.035297
v -0.003725 -0.012579 0.034562
v -0.003725 -0.012715 0.034693
v -0.004075 -0.013256 0.035297
v -0.003725 -0.013335 0.035295
v -0.003725 -0.013116 0.035082
f 1 2 9
f 1 9 3
f 1 3 10
f 1 10 4
f 1 4 5
f 1 5 6
f 1 6 7
f 1 7 8
f 1 8 2
f 2 8 14
f 2 14 22
f 2 22 32
f 2 32 38
f 2 38 44
f 2 44 51
f 2 51 58
f 2 58 64
f 2 64 71
f 2 71 78
f 2 78 85
f 2 85 92
f 2 92 98
f 2 98 105
f 2 105 114
f 2 114 123
f 2 123 131
f 2 131 138
f 2 138 144
f 2 144 151
f 2 151 157
f 2 157 164
f 2 164 170
f 2 170 176
f 2 176 182
f 2 182 187
f 2 187 193
f 2 193 199
f 2 199 203
f 2 203 209
f 2 209 214
f 2 214 211
f 2 211 206
f 2 206 210
f 2 210 204
f 2 204 200
f 2 200 194
f 2 194 188
f 2 188 183
f 2 183 178
f 2 178 177
f 2 177 171
f 2 171 165
f 2 165 158
f 2 158 152
f 2 152 146
f 2 146 139
f 2 139 132
f 2 132 125
f 2 125 115
f 2 115 107
f 2 107 106
f 2 106 99
f 2 99 93
f 2 93 86
f 2 86 79
f 2 79 72
f 2 72 65
f 2 65 59
f 2 59 52
f 2 52 45
f 2 45 39
f 2 39 33
f 2 33 25
f 2 25 17
f 2 17 15
f 2 15 9
f 3 9 11
f 3 11 10
f 4 10 16
f 4 16 24
f 4 24 29
f 4 29 28
f 4 28 27
f 4 27 35
f 4 35 41
f 4 41 47
f 4 47 54
f 4 54 61
f 4 61 67
f 4 67 74
f 4 74 81
f 4 81 88
f 4 88 95
f 4 95 101
f 4 101 109
f 4 109 117
f 4 117 127
f 4 127 134
f 4 134 141
f 4 141 148
f 4 148 154
f 4 154 161
f 4 161 160
f 4 160 167
f 4 167 173
f 4 173 179
f 4 179 184
f 4 184 190
f 4 190 196
f 4 196 201
f 4 201 207
f 4 207 212
f 4 212 208
f 4 208 202
f 4 202 197
f 4 197 191
f 4 191 185
f 4 185 180
f 4 180 174
f 4 174 168
f 4 168 163
f 4 163 162
f 4 162 155
f 4 155 149
f 4 149 142
f 4 142 135
f 4 135 129
f 4 129 124
f 4 124 119
f 4 119 118
f 4 118 110
f 4 110 102
f 4 102 96
f 4 96 89
f 4 89 82
f 4 82 75
f 4 75 69
f 4 69 62
f 4 62 55
f 4 55 48
f 4 48 42
f 4 42 36
f 4 36 30
f 4 30 19
f 4 19 12
f 4 12 5
f 5 12 6
f 6 12 13
f 6 13 7
f 7 13 14
f 7 14 8
f 9 15 11
f 10 11 16
f 11 17 18
f 11 18 16
f 11 15 17
f 12 19 20
f 12 20 13
f 13 20 21
f 13 21 22
f 13 22 14
f 16 18 23
f 16 23 24
f 17 25 26
f 17 26 18
f 18 26 27
f 18 27 28
f 18 28 29
f 18 29 23
f 19 30 21
f 19 21 20
f 21 30 31
f 21 31 32
f 21 32 22
f 23 29 24
f 25 33 34
f 25 34 26
f 26 34 27
f 27 34 35
f 30 36 37
f 30 37 31
f 31 37 38
f 31 38 32
f 33 39 40
f 33 40 34
f 34 40 35
f 35 40 41
f 36 42 37
f 37 42 43
f 37 43 38
f 38 43 44
f 39 45 40
f 40 45 46
f 40 46 41
f 41 46 47
f 42 48 49
f 42 49 43
f 43 49 50
f 43 50 44
f 44 50 51
f 45 52 53
f 45 53 46
f 46 53 54
f 46 54 47
f 48 55 56
f 48 56 50
f 48 50 49
f 50 56 57
f 50 57 58
f 50 58 51
f 52 59 60
f 52 60 53
f 53 60 54
f 54 60 61
f 55 62 63
f 55 63 57
f 55 57 56
f 57 63 64
f 57 64 58
f 59 65 66
f 59 66 60
f 60 66 61
f 61 66 67
f 62 68 63
f 62 69 68
f 63 68 70
f 63 70 64
f 64 70 71
f 65 72 66
f 66 72 73
f 66 73 74
f 66 74 67
f 68 69 70
f 69 75 76
f 69 76 70
f 70 76 77
f 70 77 78
f 70 78 71
f 72 79 80
f 72 80 73
f 73 80 74
f 74 80 81
f 75 82 77
f 75 77 76
f 77 82 83
f 77 83 84
f 77 84 85
f 77 85 78
f 79 86 87
f 79 87 80
f 80 87 81
f 81 87 88
f 82 89 83
f 83 89 84
f 84 89 90
f 84 90 91
f 84 91 85
f 85 91 92
f 86 93 87
f 87 93 94
f 87 94 88
f 88 94 95
f 89 96 90
f 90 96 91
f 91 97 98
f 91 98 92
f 91 96 97
f 93 99 100
f 93 100 94
f 94 100 101
f 94 101 95
f 96 102 97
f 97 102 103
f 97 103 104
f 97 104 105
f 97 105 98
f 99 106 100
f 100 106 107
f 100 107 108
f 100 108 109
f 100 109 101
f 102 110 103
f 103 110 104
f 104 110 111
f 104 111 112
f 104 112 113
f 104 113 114
f 104 114 105
f 107 115 116
f 107 116 108
f 108 116 117
f 108 117 109
f 110 118 111
f 111 118 119
f 111 119 120
f 111 120 112
f 112 120 113
f 113 121 122
f 113 122 123
f 113 123 114
f 113 120 124
f 113 124 121
f 115 125 116
f 116 125 126
f 116 126 127
f 116 127 117
f 119 124 120
f 121 128 122
f 121 124 129
f 121 129 128
f 122 128 130
f 122 130 131
f 122 131 123
f 125 132 133
f 125 133 126
f 126 133 134
f 126 134 127
f 128 129 135
f 128 135 136
f 128 136 130
f 130 136 137
f 130 137 131
f 131 137 138
f 132 139 133
f 133 139 140
f 133 140 141
f 133 141 134
f 135 142 136
f 136 142 137
f 137 143 144
f 137 144 138
f 137 142 145
f 137 145 143
f 139 146 147
f 139 147 140
f 140 147 148
f 140 148 141
f 142 149 145
f 143 150 144
f 143 145 149
f 143 149 150
f 144 150 151
f 146 152 147
f 147 152 153
f 147 153 154
f 147 154 148
f 149 155 150
f 150 155 156
f 150 156 157
f 150 157 151
f 152 158 153
f 153 158 159
f 153 159 160
f 153 160 161
f 153 161 154
f 155 162 156
f 156 162 157
f 157 163 164
f 157 162 163
f 158 165 159
f 159 165 166
f 159 166 160
f 160 166 167
f 163 168 169
f 163 169 164
f 164 169 170
f 165 171 166
f 166 171 172
f 166 172 167
f 167 172 173
f 168 174 175
f 168 175 176
f 168 176 170
f 168 170 169
f 171 177 172
f 172 177 178
f 172 178 179
f 172 179 173
f 174 180 181
f 174 181 175
f 175 181 176
f 176 181 182
f 178 183 179
f 179 183 184
f 180 185 186
f 180 186 187
f 180 187 181
f 181 187 182
f 183 188 189
f 183 189 184
f 184 189 190
f 185 191 186
f 186 191 192
f 186 192 187
f 187 192 193
f 188 194 195
f 188 195 189
f 189 195 196
f 189 196 190
f 191 197 198
f 191 198 192
f 192 198 199
f 192 199 193
f 194 200 195
f 195 200 196
f 196 200 201
f 197 202 199
f 197 199 198
f 199 202 203
f 200 204 201
f 201 204 205
f 201 205 206
f 201 206 207
f 202 208 209
f 202 209 203
f 204 210 205
f 205 210 206
f 206 211 215
f 206 215 216
f 206 216 213
f 206 213 212
f 206 212 207
f 208 212 213
f 208 213 214
f 208 214 209
f 211 214 215
f 213 216 214
f 214 216 215
