v -0.013588 0.000372 0.038325
v -0.012963 0.000372 0.037699
v -0.012764 -0.000372 0.037501
v -0.012759 -0.001111 0.037501
v -0.013574 0.000097 0.038325
v -0.013583 0.001109 0.038325
v -0.013494 0.001109 0.038235
v -0.012760 0.001109 0.037501
v -0.012764 0.000372 0.037501
v -0.013551 -0.000369 0.038325
v -0.012712 -0.001850 0.037501
v -0.013558 0.001535 0.038325
v -0.013538 0.001851 0.038325
v -0.012963 0.001851 0.037750
v -0.012712 0.001851 0.037501
v -0.013530 -0.000577 0.038325
v -0.012621 -0.002592 0.037501
v -0.013474 -0.001111 0.038325
v -0.013453 0.002592 0.038325
v -0.012622 0.002592 0.037501
v -0.012485 -0.003331 0.037501
v -0.013355 -0.001850 0.038325
v -0.013450 -0.001264 0.038325
v -0.013327 0.003332 0.038325
v -0.012963 0.003332 0.037968
v -0.012486 0.003332 0.037501
v -0.013194 -0.002592 0.038325
v -0.013331 -0.001963 0.038325
v -0.012305 -0.004073 0.037501
v -0.013157 0.004073 0.038325
v -0.012963 0.004073 0.038136
v -0.012305 0.004073 0.037501
v -0.013174 -0.002662 0.038325
v -0.012222 -0.004346 0.037501
v -0.012986 -0.003331 0.038325
v -0.013048 -0.003118 0.038325
v -0.013132 0.004163 0.038325
v -0.012979 0.004692 0.038325
v -0.012963 0.004750 0.038325
v -0.012944 0.004812 0.038325
v -0.012222 0.004349 0.037501
v -0.012077 -0.004814 0.037501
v -0.012963 -0.003404 0.038325
v -0.012685 0.005554 0.038325
v -0.012850 0.004812 0.038235
v -0.012078 0.004812 0.037501
v -0.012222 0.004812 0.037638
v -0.012732 -0.004073 0.038325
v -0.012913 -0.003549 0.038325
v -0.011798 -0.005553 0.037501
v -0.012376 0.006296 0.038325
v -0.012222 0.005554 0.037893
v -0.011800 0.005554 0.037501
v -0.012688 -0.004188 0.038325
v -0.011468 -0.006295 0.037501
v -0.012429 -0.004814 0.038325
v -0.012335 0.006386 0.038325
v -0.012279 0.006296 0.038235
v -0.012222 0.006296 0.038183
v -0.011772 0.005617 0.037501
v -0.011078 -0.007037 0.037501
v -0.012070 -0.005553 0.038325
v -0.012222 -0.005248 0.038325
v -0.012291 -0.005105 0.038325
v -0.012387 -0.004904 0.038325
v -0.011469 0.006296 0.037501
v -0.012222 0.006619 0.038325
v -0.011631 -0.006333 0.038325
v -0.011653 -0.006295 0.038325
v -0.012008 -0.005669 0.038325
v -0.010740 -0.007596 0.037501
v -0.012016 0.007035 0.038325
v -0.011915 0.007035 0.038235
v -0.011481 0.007035 0.037852
v -0.011111 0.006975 0.037501
v -0.011597 -0.006385 0.038325
v -0.010625 -0.007776 0.037501
v -0.011599 0.007777 0.038325
v -0.011079 0.007035 0.037501
v -0.011538 -0.006478 0.038325
v -0.010101 -0.008515 0.037501
v -0.011168 -0.007037 0.038325
v -0.011481 -0.006566 0.038325
v -0.011544 0.007867 0.038325
v -0.011495 0.007777 0.038235
v -0.011481 0.007777 0.038223
v -0.010740 0.007596 0.037501
v -0.010824 -0.007500 0.038325
v -0.011103 -0.007127 0.038325
v -0.009999 -0.008648 0.037501
v -0.010740 0.007777 0.037596
v -0.011481 0.007965 0.038325
v -0.010626 0.007777 0.037501
v -0.010740 -0.007608 0.038325
v -0.009494 -0.009257 0.037501
v -0.010608 -0.007776 0.038325
v -0.011119 0.008518 0.038325
v -0.010740 0.008518 0.038014
v -0.010101 0.008518 0.037501
v -0.009999 -0.008472 0.038325
v -0.010346 -0.008077 0.038325
v -0.009259 -0.009515 0.037501
v -0.011055 0.008609 0.038325
v -0.010740 0.008887 0.038235
v -0.010740 0.009034 0.038325
v -0.010567 0.009257 0.038325
v -0.009999 0.008649 0.037501
v -0.009958 -0.008518 0.038325
v -0.008787 -0.009996 0.037501
v -0.010155 0.009746 0.038325
v -0.010453 0.009257 0.038235
v -0.009999 0.009257 0.037883
v -0.009494 0.009260 0.037501
v -0.009816 -0.008658 0.038325
v -0.008519 -0.010252 0.037501
v -0.009259 -0.009202 0.038325
v -0.009999 0.009929 0.038325
v -0.009259 0.009516 0.037501
v -0.009936 0.009999 0.038325
v -0.007959 -0.010738 0.037501
v -0.009197 -0.009257 0.038325
v -0.009813 0.009999 0.038235
v -0.009259 0.009999 0.037832
v -0.008786 0.009999 0.037501
v -0.009420 0.010525 0.038325
v -0.008519 -0.009826 0.038325
v -0.009028 -0.009400 0.038325
v -0.007778 -0.010883 0.037501
v -0.009259 0.010688 0.038325
v -0.008519 0.010252 0.037501
v -0.008290 -0.009998 0.038325
v -0.007037 -0.011432 0.037501
v -0.009206 0.010738 0.038325
v -0.008519 0.010738 0.037862
v -0.007957 0.010741 0.037501
v -0.008185 -0.010076 0.038325
v -0.006965 -0.011479 0.037501
v -0.007778 -0.010364 0.038325
v -0.007850 -0.010314 0.038325
v -0.008820 0.011079 0.038325
v -0.008519 0.011227 0.038235
v -0.008519 0.011342 0.038325
v -0.008349 0.011480 0.038325
v -0.007778 0.010886 0.037501
v -0.006297 -0.011903 0.037501
v -0.007184 -0.010740 0.038325
v -0.007778 0.011901 0.038325
v -0.007778 0.011806 0.038235
v -0.008206 0.011480 0.038235
v -0.007037 0.011432 0.037501
v -0.007778 0.011480 0.037971
v -0.005727 -0.012221 0.037501
v -0.007037 -0.010828 0.038325
v -0.007313 0.012222 0.038325
v -0.007176 0.012222 0.038235
v -0.007037 0.011480 0.037539
v -0.006967 0.011480 0.037501
v -0.005556 -0.012314 0.037501
v -0.006297 -0.011224 0.038325
v -0.007037 0.012312 0.038235
v -0.007128 0.012342 0.038325
v -0.007037 0.012222 0.038158
v -0.006297 0.011906 0.037501
v -0.005451 -0.012364 0.037501
v -0.005651 -0.011537 0.038325
v -0.006297 0.012222 0.037773
v -0.006297 0.012750 0.038235
v -0.006387 0.012775 0.038325
v -0.005729 0.012222 0.037501
v -0.005451 -0.011625 0.038325
v -0.005451 0.012364 0.037501
v -0.005895 0.012961 0.038235
v -0.005556 0.012314 0.037501
v -0.005943 0.013001 0.038325
v -0.005556 0.013134 0.038235
v -0.005451 0.013234 0.038325
v -0.005451 0.012921 0.037998
v -0.005556 0.012961 0.038080
v -0.005646 0.013151 0.038325
v -0.005451 0.013179 0.038235
v -0.005451 0.013226 0.038312
f 1 2 3
f 1 3 4
f 1 4 5
f 1 5 10
f 1 10 16
f 1 16 18
f 1 18 23
f 1 23 22
f 1 22 28
f 1 28 27
f 1 27 33
f 1 33 36
f 1 36 35
f 1 35 43
f 1 43 49
f 1 49 48
f 1 48 54
f 1 54 56
f 1 56 65
f 1 65 64
f 1 64 63
f 1 63 62
f 1 62 70
f 1 70 69
f 1 69 68
f 1 68 76
f 1 76 80
f 1 80 83
f 1 83 82
f 1 82 89
f 1 89 88
f 1 88 94
f 1 94 96
f 1 96 101
f 1 101 100
f 1 100 108
f 1 108 114
f 1 114 116
f 1 116 121
f 1 121 127
f 1 127 126
f 1 126 131
f 1 131 136
f 1 136 139
f 1 139 138
f 1 138 146
f 1 146 153
f 1 153 159
f 1 159 165
f 1 165 170
f 1 170 176
f 1 176 179
f 1 179 174
f 1 174 168
f 1 168 161
f 1 161 154
f 1 154 147
f 1 147 143
f 1 143 142
f 1 142 140
f 1 140 133
f 1 133 129
f 1 129 125
f 1 125 119
f 1 119 117
f 1 117 110
f 1 110 106
f 1 106 105
f 1 105 103
f 1 103 97
f 1 97 92
f 1 92 84
f 1 84 78
f 1 78 72
f 1 72 67
f 1 67 57
f 1 57 51
f 1 51 44
f 1 44 40
f 1 40 39
f 1 39 38
f 1 38 37
f 1 37 30
f 1 30 24
f 1 24 19
f 1 19 13
f 1 13 12
f 1 12 6
f 1 6 7
f 1 7 8
f 1 8 2
f 2 9 3
f 2 8 9
f 3 9 8
f 3 8 15
f 3 15 20
f 3 20 26
f 3 26 32
f 3 32 41
f 3 41 46
f 3 46 53
f 3 53 60
f 3 60 66
f 3 66 75
f 3 75 79
f 3 79 87
f 3 87 93
f 3 93 99
f 3 99 107
f 3 107 113
f 3 113 118
f 3 118 124
f 3 124 130
f 3 130 135
f 3 135 144
f 3 144 150
f 3 150 157
f 3 157 163
f 3 163 169
f 3 169 173
f 3 173 171
f 3 171 164
f 3 164 158
f 3 158 152
f 3 152 145
f 3 145 137
f 3 137 132
f 3 132 128
f 3 128 120
f 3 120 115
f 3 115 109
f 3 109 102
f 3 102 95
f 3 95 90
f 3 90 81
f 3 81 77
f 3 77 71
f 3 71 61
f 3 61 55
f 3 55 50
f 3 50 42
f 3 42 34
f 3 34 29
f 3 29 21
f 3 21 17
f 3 17 11
f 3 11 4
f 4 10 5
f 4 11 10
f 6 12 7
f 7 12 8
f 8 12 13
f 8 13 14
f 8 14 15
f 10 11 16
f 11 17 18
f 11 18 16
f 13 19 14
f 14 19 15
f 15 19 20
f 17 21 22
f 17 22 23
f 17 23 18
f 19 24 20
f 20 25 26
f 20 24 25
f 21 27 28
f 21 28 22
f 21 29 27
f 24 30 25
f 25 30 26
f 26 30 31
f 26 31 32
f 27 29 33
f 29 34 35
f 29 35 36
f 29 36 33
f 30 37 31
f 31 37 32
f 32 37 38
f 32 38 39
f 32 39 40
f 32 40 41
f 34 42 35
f 35 42 43
f 40 44 45
f 40 45 41
f 41 45 47
f 41 47 46
f 42 48 49
f 42 49 43
f 42 50 48
f 44 51 52
f 44 52 46
f 44 46 47
f 44 47 45
f 46 52 53
f 48 50 54
f 50 55 56
f 50 56 54
f 51 57 58
f 51 58 53
f 51 53 52
f 53 58 59
f 53 59 60
f 55 61 62
f 55 62 63
f 55 63 64
f 55 64 65
f 55 65 56
f 57 66 59
f 57 59 58
f 57 67 66
f 59 66 60
f 61 68 69
f 61 69 70
f 61 70 62
f 61 71 68
f 66 67 72
f 66 72 73
f 66 73 74
f 66 74 75
f 68 71 77
f 68 77 76
f 72 78 73
f 73 78 74
f 74 78 79
f 74 79 75
f 76 77 80
f 77 81 82
f 77 82 83
f 77 83 80
f 78 84 85
f 78 85 79
f 79 85 86
f 79 86 87
f 81 88 89
f 81 89 82
f 81 90 88
f 84 91 86
f 84 86 85
f 84 92 91
f 86 91 87
f 87 91 93
f 88 90 94
f 90 95 96
f 90 96 94
f 91 92 97
f 91 97 93
f 93 97 98
f 93 98 99
f 95 100 101
f 95 101 96
f 95 102 100
f 97 103 98
f 98 103 104
f 98 104 99
f 99 104 105
f 99 105 106
f 99 106 107
f 100 102 108
f 102 109 108
f 103 105 104
f 106 110 111
f 106 111 107
f 107 111 112
f 107 112 113
f 108 109 114
f 109 115 116
f 109 116 114
f 110 112 111
f 110 117 112
f 112 117 113
f 113 117 119
f 113 119 118
f 115 120 121
f 115 121 116
f 118 119 122
f 118 122 123
f 118 123 124
f 119 125 122
f 120 126 127
f 120 127 121
f 120 128 126
f 122 125 123
f 123 125 129
f 123 129 124
f 124 129 130
f 126 128 131
f 128 132 131
f 129 133 130
f 130 133 134
f 130 134 135
f 131 132 136
f 132 137 138
f 132 138 139
f 132 139 136
f 133 140 134
f 134 140 141
f 134 141 135
f 135 141 142
f 135 142 143
f 135 143 144
f 137 145 138
f 138 145 146
f 140 142 141
f 143 147 148
f 143 148 149
f 143 149 144
f 144 149 151
f 144 151 150
f 145 152 153
f 145 153 146
f 147 154 155
f 147 155 148
f 148 156 151
f 148 151 149
f 148 155 156
f 150 151 156
f 150 156 157
f 152 158 153
f 153 158 159
f 154 160 155
f 154 161 160
f 155 160 162
f 155 162 156
f 156 162 157
f 157 162 163
f 158 164 165
f 158 165 159
f 160 166 163
f 160 163 162
f 160 161 167
f 160 167 166
f 161 168 167
f 163 166 169
f 164 170 165
f 164 171 177
f 164 177 180
f 164 180 181
f 164 181 176
f 164 176 170
f 166 167 169
f 167 168 172
f 167 172 173
f 167 173 169
f 168 174 175
f 168 175 172
f 171 173 177
f 172 175 178
f 172 178 173
f 173 178 177
f 174 179 175
f 175 179 180
f 175 180 177
f 175 177 178
f 176 181 179
f 179 181 180
