v -0.005017 0.013638 0.042647
v -0.004871 0.013702 0.042649
v -0.004871 0.013702 0.042647
v -0.005017 0.013622 0.042630
v -0.005017 0.013375 0.042649
v -0.004812 0.013727 0.042649
v -0.004812 0.013727 0.042647
v -0.004812 0.012961 0.041939
v -0.005017 0.012961 0.042023
v -0.005017 -0.011931 0.042649
v -0.004072 0.014002 0.042649
v -0.004072 0.013702 0.042363
v -0.004072 0.013228 0.041915
v -0.004735 0.012967 0.041915
v -0.004072 0.014002 0.042647
v -0.004819 0.012931 0.041915
v -0.005017 0.012842 0.041915
v -0.005017 -0.011937 0.042648
v -0.004812 -0.012012 0.042649
v -0.003333 0.014232 0.042649
v -0.003331 0.013472 0.041915
v -0.003331 0.014232 0.042647
v -0.005017 -0.012300 0.041915
v -0.004810 -0.012397 0.041915
v -0.004072 -0.012700 0.041915
v -0.004138 -0.012222 0.042649
v -0.003335 -0.012955 0.041915
v -0.002592 0.014421 0.042649
v -0.002590 0.013672 0.041915
v -0.002590 0.014421 0.042647
v -0.004072 -0.012242 0.042649
v -0.002590 -0.013160 0.041915
v -0.002483 0.014443 0.042649
v -0.002485 0.014443 0.042647
v -0.001849 0.013827 0.041915
v -0.003329 -0.012425 0.042649
v -0.001849 -0.013324 0.041915
v -0.001849 0.014568 0.042649
v -0.001849 0.014570 0.042647
v -0.001114 0.013941 0.041915
v -0.002586 -0.012561 0.042649
v -0.001108 -0.013443 0.041915
v -0.001108 0.014679 0.042649
v -0.001108 0.014679 0.042647
v -0.000373 0.014016 0.041915
v -0.001849 -0.012650 0.042649
v -0.000373 -0.013518 0.041915
v -0.000369 0.014748 0.042649
v -0.000369 0.014443 0.042341
v -0.000369 0.014748 0.042647
v 0.000367 0.014052 0.041915
v -0.000361 -0.012788 0.042649
v 0.000372 -0.013557 0.041915
v 0.000372 0.014781 0.042649
v 0.000372 0.014784 0.042647
v 0.000372 0.014052 0.041915
v 0.000372 -0.012824 0.042649
v 0.001113 -0.013551 0.041915
v 0.001113 -0.012822 0.042649
v 0.000378 -0.012824 0.042649
v 0.000376 0.014781 0.042649
v 0.001113 0.014779 0.042647
v 0.001113 0.014443 0.042311
v 0.001113 0.014046 0.041915
v 0.001855 -0.013507 0.041915
v 0.001855 -0.012772 0.042649
v 0.001117 0.014776 0.042649
v 0.001855 0.014693 0.042649
v 0.001855 0.014693 0.042647
v 0.002592 0.013921 0.041915
v 0.001855 0.014005 0.041915
v 0.002592 -0.013421 0.041915
v 0.002592 -0.012683 0.042649
v 0.002592 0.014545 0.042649
v 0.002592 0.014548 0.042647
v 0.003354 0.013794 0.041915
v 0.003333 -0.013293 0.041915
v 0.003333 -0.012547 0.042649
v 0.003007 0.014443 0.042649
v 0.003009 0.014443 0.042647
v 0.004074 0.013633 0.041915
v 0.003767 0.013702 0.041915
v 0.004068 -0.013127 0.041915
v 0.004076 -0.012367 0.042649
v 0.003333 0.014360 0.042649
v 0.003333 0.014360 0.042647
v 0.004817 0.013427 0.041915
v 0.004813 -0.012910 0.041915
v 0.004556 -0.012220 0.042649
v 0.004084 0.014127 0.042649
v 0.004074 0.014132 0.042647
v 0.005554 0.013178 0.041915
v 0.005551 -0.012652 0.041915
v 0.004813 -0.012139 0.042649
v 0.004813 0.013857 0.042649
v 0.004813 0.013857 0.042647
v 0.006098 0.012961 0.041915
v 0.006290 -0.012344 0.041915
v 0.005554 -0.011865 0.042649
v 0.005180 0.013702 0.042649
v 0.005180 0.013702 0.042647
v 0.006294 0.012881 0.041915
v 0.006559 -0.012217 0.041915
v 0.006403 -0.011479 0.042649
v 0.006292 -0.011532 0.042649
v 0.005552 0.013538 0.042649
v 0.005554 0.013538 0.042647
v 0.007035 0.012534 0.041915
v 0.007035 -0.011981 0.041915
v 0.007033 -0.011149 0.042649
v 0.006294 0.013167 0.042649
v 0.006294 0.013169 0.042647
v 0.007620 0.012221 0.041915
v 0.007772 -0.011565 0.041915
v 0.007774 -0.010699 0.042649
v 0.006660 0.012961 0.042649
v 0.006662 0.012961 0.042647
v 0.007776 0.012135 0.041915
v 0.007918 -0.011471 0.041915
v 0.008517 -0.011077 0.041915
v 0.008517 -0.010735 0.042194
v 0.008515 -0.010175 0.042649
v 0.007035 0.012745 0.042647
v 0.007033 0.012742 0.042649
v 0.008517 0.011674 0.041915
v 0.008983 -0.010735 0.041915
v 0.008747 -0.009995 0.042649
v 0.009258 -0.010525 0.041915
v 0.007077 0.012715 0.042649
v 0.007776 0.012257 0.042649
v 0.007776 0.012260 0.042647
v 0.008801 0.011480 0.041915
v 0.009258 -0.009998 0.042325
v 0.009258 -0.009570 0.042649
v 0.009880 -0.009998 0.041915
v 0.007828 0.012221 0.042649
v 0.007830 0.012221 0.042647
v 0.009258 0.011150 0.041915
v 0.009943 -0.009942 0.041915
v 0.009999 -0.009892 0.041915
v 0.009606 -0.009254 0.042649
v 0.008517 0.011699 0.042649
v 0.008517 0.011702 0.042647
v 0.009774 0.010739 0.041915
v 0.010648 -0.009254 0.041915
v 0.009999 -0.009257 0.042376
v 0.009943 -0.008924 0.042648
v 0.009999 -0.008868 0.042649
v 0.008784 0.011480 0.042649
v 0.008786 0.011480 0.042647
v 0.009943 0.010598 0.041915
v 0.010740 -0.009157 0.041915
v 0.010333 -0.008516 0.042649
v 0.009256 0.011067 0.042649
v 0.009258 0.011067 0.042647
v 0.009999 0.010548 0.041915
v 0.011305 -0.008516 0.041915
v 0.010740 -0.008516 0.042347
v 0.010740 -0.008047 0.042649
v 0.009600 0.010739 0.042649
v 0.009602 0.010739 0.042647
v 0.010602 0.009999 0.041915
v 0.011481 -0.008297 0.041915
v 0.010961 -0.007775 0.042649
v 0.009997 0.010334 0.042649
v 0.009943 0.010393 0.042647
v 0.010740 0.009863 0.041915
v 0.011890 -0.007762 0.041915
v 0.011481 -0.007775 0.042237
v 0.011481 -0.007074 0.042647
v 0.011481 -0.007068 0.042649
v 0.010304 0.009999 0.042649
v 0.010308 0.009999 0.042647
v 0.009999 0.010334 0.042647
v 0.011316 0.009255 0.041915
v 0.012221 -0.007279 0.041915
v 0.012221 -0.007035 0.042050
v 0.011504 -0.007035 0.042649
v 0.010740 0.009483 0.042649
v 0.011481 0.009067 0.041915
v 0.012380 -0.007035 0.041915
v 0.011975 -0.006294 0.042649
v 0.010919 0.009255 0.042649
v 0.010921 0.009255 0.042647
v 0.011936 0.008514 0.041915
v 0.012818 -0.006294 0.041915
v 0.012221 -0.006294 0.042436
v 0.012221 -0.005850 0.042649
v 0.011454 0.008517 0.042649
v 0.011456 0.008517 0.042647
v 0.012221 0.008137 0.041915
v 0.012962 -0.006019 0.041915
v 0.012380 -0.005553 0.042649
v 0.011479 0.008478 0.042649
v 0.012962 0.007027 0.041915
v 0.012480 0.007777 0.041915
v 0.013198 -0.005553 0.041915
v 0.012962 -0.005553 0.042128
v 0.012729 -0.004813 0.042649
v 0.011919 0.007777 0.042649
v 0.011921 0.007777 0.042647
v 0.013374 0.006295 0.041915
v 0.013526 -0.004813 0.041915
v 0.012962 -0.004813 0.042436
v 0.012962 -0.004238 0.042649
v 0.012221 0.007236 0.042649
v 0.013699 0.005635 0.041915
v 0.012328 0.007033 0.042649
v 0.013703 -0.004349 0.041915
v 0.013027 -0.004072 0.042649
v 0.013739 0.005552 0.041915
v 0.012677 0.006295 0.042649
v 0.012679 0.006295 0.042647
v 0.013805 -0.004072 0.041915
v 0.013703 -0.004072 0.042012
v 0.013277 -0.003331 0.042647
v 0.013275 -0.003331 0.042649
v 0.012962 0.005602 0.042647
v 0.012981 0.005549 0.042649
v 0.014000 0.004808 0.041915
v 0.014033 -0.003353 0.041915
v 0.013703 -0.003331 0.042239
v 0.013476 -0.002596 0.042649
v 0.013232 0.004811 0.042649
v 0.013234 0.004811 0.042647
v 0.013703 0.004811 0.042199
v 0.013444 0.004073 0.042647
v 0.013703 0.004073 0.042395
v 0.014196 0.004073 0.041915
v 0.014039 -0.003331 0.041915
v 0.014231 -0.002591 0.041915
v 0.013636 -0.001850 0.042649
v 0.013442 0.004073 0.042649
v 0.013609 0.003330 0.042647
v 0.013703 0.003330 0.042555
v 0.014354 0.003330 0.041915
v 0.014381 -0.001847 0.041915
v 0.013703 -0.001425 0.042649
v 0.013607 0.003330 0.042649
v 0.013703 0.002764 0.042649
v 0.013733 0.002592 0.042647
v 0.014444 0.002592 0.041943
v 0.014444 0.002766 0.041915
v 0.014444 -0.001431 0.041915
v 0.013753 -0.001109 0.042647
v 0.013751 -0.001109 0.042649
v 0.013732 0.002592 0.042649
v 0.013816 0.001851 0.042647
v 0.014471 0.002592 0.041915
v 0.014444 0.001851 0.042022
v 0.014551 0.001851 0.041915
v 0.014490 -0.001109 0.041915
v 0.014444 -0.001109 0.041962
v 0.013829 -0.000368 0.042647
v 0.013828 -0.000368 0.042649
v 0.013814 0.001851 0.042649
v 0.013860 0.001107 0.042647
v 0.014444 0.001107 0.042064
v 0.014592 0.001107 0.041915
v 0.014563 -0.000368 0.041915
v 0.014444 -0.000368 0.042034
v 0.013862 0.000361 0.042649
v 0.013858 0.001107 0.042649
v 0.013864 0.000372 0.042647
v 0.014597 0.000372 0.041915
v 0.013862 0.000372 0.042649
f 1 2 3
f 1 3 4
f 1 4 9
f 1 9 17
f 1 17 23
f 1 23 18
f 1 18 10
f 1 10 5
f 1 5 2
f 2 6 7
f 2 7 3
f 2 5 10
f 2 10 19
f 2 19 26
f 2 26 31
f 2 31 36
f 2 36 41
f 2 41 46
f 2 46 52
f 2 52 57
f 2 57 60
f 2 60 59
f 2 59 66
f 2 66 73
f 2 73 78
f 2 78 84
f 2 84 89
f 2 89 94
f 2 94 99
f 2 99 105
f 2 105 104
f 2 104 110
f 2 110 115
f 2 115 122
f 2 122 127
f 2 127 134
f 2 134 141
f 2 141 148
f 2 148 153
f 2 153 159
f 2 159 164
f 2 164 171
f 2 171 178
f 2 178 182
f 2 182 188
f 2 188 193
f 2 193 199
f 2 199 205
f 2 205 210
f 2 210 217
f 2 217 223
f 2 223 232
f 2 232 238
f 2 238 246
f 2 246 255
f 2 255 262
f 2 262 266
f 2 266 263
f 2 263 256
f 2 256 247
f 2 247 240
f 2 240 239
f 2 239 233
f 2 233 224
f 2 224 219
f 2 219 212
f 2 212 208
f 2 208 206
f 2 206 200
f 2 200 194
f 2 194 189
f 2 189 183
f 2 183 179
f 2 179 172
f 2 172 165
f 2 165 160
f 2 160 154
f 2 154 149
f 2 149 142
f 2 142 136
f 2 136 130
f 2 130 129
f 2 129 124
f 2 124 116
f 2 116 111
f 2 111 106
f 2 106 100
f 2 100 95
f 2 95 90
f 2 90 85
f 2 85 79
f 2 79 74
f 2 74 68
f 2 68 67
f 2 67 61
f 2 61 54
f 2 54 48
f 2 48 43
f 2 43 38
f 2 38 33
f 2 33 28
f 2 28 20
f 2 20 11
f 2 11 6
f 3 7 8
f 3 8 4
f 4 8 9
f 6 11 15
f 6 15 7
f 7 12 13
f 7 13 14
f 7 14 8
f 7 15 12
f 8 14 16
f 8 16 17
f 8 17 9
f 10 18 19
f 11 20 15
f 12 21 13
f 12 15 21
f 13 21 29
f 13 29 35
f 13 35 40
f 13 40 45
f 13 45 51
f 13 51 56
f 13 56 64
f 13 64 71
f 13 71 70
f 13 70 76
f 13 76 82
f 13 82 81
f 13 81 87
f 13 87 92
f 13 92 97
f 13 97 102
f 13 102 108
f 13 108 113
f 13 113 118
f 13 118 125
f 13 125 132
f 13 132 138
f 13 138 144
f 13 144 151
f 13 151 156
f 13 156 162
f 13 162 167
f 13 167 175
f 13 175 180
f 13 180 185
f 13 185 191
f 13 191 196
f 13 196 195
f 13 195 202
f 13 202 207
f 13 207 211
f 13 211 220
f 13 220 229
f 13 229 236
f 13 236 243
f 13 243 249
f 13 249 251
f 13 251 259
f 13 259 265
f 13 265 260
f 13 260 252
f 13 252 244
f 13 244 237
f 13 237 231
f 13 231 230
f 13 230 221
f 13 221 214
f 13 214 209
f 13 209 203
f 13 203 197
f 13 197 192
f 13 192 186
f 13 186 181
f 13 181 176
f 13 176 168
f 13 168 163
f 13 163 157
f 13 157 152
f 13 152 145
f 13 145 140
f 13 140 139
f 13 139 135
f 13 135 128
f 13 128 126
f 13 126 120
f 13 120 119
f 13 119 114
f 13 114 109
f 13 109 103
f 13 103 98
f 13 98 93
f 13 93 88
f 13 88 83
f 13 83 77
f 13 77 72
f 13 72 65
f 13 65 58
f 13 58 53
f 13 53 47
f 13 47 42
f 13 42 37
f 13 37 32
f 13 32 27
f 13 27 25
f 13 25 24
f 13 24 23
f 13 23 17
f 13 17 16
f 13 16 14
f 15 20 22
f 15 22 21
f 18 23 24
f 18 24 25
f 18 25 19
f 19 25 27
f 19 27 26
f 20 28 30
f 20 30 22
f 21 22 29
f 22 30 29
f 26 27 31
f 27 32 31
f 28 33 34
f 28 34 30
f 29 30 34
f 29 34 35
f 31 32 36
f 32 37 36
f 33 38 39
f 33 39 34
f 34 39 35
f 35 39 40
f 36 37 41
f 37 42 41
f 38 43 39
f 39 43 44
f 39 44 40
f 40 44 45
f 41 42 46
f 42 47 46
f 43 48 50
f 43 50 44
f 44 49 45
f 44 50 49
f 45 49 51
f 46 47 52
f 47 53 52
f 48 54 55
f 48 55 50
f 49 50 55
f 49 55 51
f 51 55 56
f 52 53 57
f 53 58 59
f 53 59 60
f 53 60 57
f 54 61 55
f 55 61 67
f 55 67 62
f 55 62 63
f 55 63 56
f 56 63 64
f 58 65 59
f 59 65 66
f 62 67 68
f 62 68 69
f 62 69 70
f 62 70 71
f 62 71 63
f 63 71 64
f 65 72 66
f 66 72 73
f 68 74 75
f 68 75 69
f 69 75 76
f 69 76 70
f 72 77 73
f 73 77 78
f 74 79 75
f 75 79 80
f 75 80 81
f 75 81 82
f 75 82 76
f 77 83 78
f 78 83 84
f 79 85 80
f 80 85 86
f 80 86 81
f 81 86 87
f 83 88 84
f 84 88 89
f 85 90 91
f 85 91 86
f 86 91 87
f 87 91 92
f 88 93 94
f 88 94 89
f 90 95 91
f 91 95 96
f 91 96 92
f 92 96 97
f 93 98 99
f 93 99 94
f 95 100 101
f 95 101 96
f 96 101 102
f 96 102 97
f 98 103 104
f 98 104 105
f 98 105 99
f 100 106 107
f 100 107 101
f 101 107 102
f 102 107 108
f 103 109 104
f 104 109 110
f 106 111 112
f 106 112 107
f 107 112 108
f 108 112 113
f 109 114 110
f 110 114 115
f 111 116 112
f 112 116 117
f 112 117 118
f 112 118 113
f 114 119 115
f 115 119 120
f 115 120 121
f 115 121 122
f 116 123 117
f 116 124 123
f 117 123 118
f 118 123 125
f 120 126 121
f 121 126 122
f 122 126 128
f 122 128 127
f 123 124 129
f 123 129 130
f 123 130 131
f 123 131 125
f 125 131 132
f 127 128 133
f 127 133 134
f 128 135 133
f 130 136 131
f 131 136 137
f 131 137 138
f 131 138 132
f 133 135 134
f 134 135 139
f 134 139 140
f 134 140 141
f 136 142 143
f 136 143 137
f 137 143 138
f 138 143 144
f 140 145 146
f 140 146 141
f 141 146 147
f 141 147 148
f 142 149 143
f 143 149 150
f 143 150 144
f 144 150 151
f 145 152 148
f 145 148 146
f 146 148 147
f 148 152 153
f 149 154 155
f 149 155 150
f 150 155 151
f 151 155 156
f 152 157 158
f 152 158 153
f 153 158 159
f 154 160 161
f 154 161 155
f 155 161 162
f 155 162 156
f 157 163 164
f 157 164 159
f 157 159 158
f 160 165 166
f 160 166 161
f 161 166 167
f 161 167 162
f 163 168 169
f 163 169 164
f 164 169 170
f 164 170 171
f 165 172 173
f 165 173 174
f 165 174 166
f 166 174 167
f 167 174 175
f 168 176 170
f 168 170 169
f 170 176 177
f 170 177 178
f 170 178 171
f 172 179 173
f 173 179 180
f 173 180 175
f 173 175 174
f 176 181 177
f 177 181 182
f 177 182 178
f 179 183 184
f 179 184 185
f 179 185 180
f 181 186 187
f 181 187 182
f 182 187 188
f 183 189 190
f 183 190 184
f 184 190 191
f 184 191 185
f 186 192 193
f 186 193 188
f 186 188 187
f 189 194 190
f 190 194 195
f 190 195 196
f 190 196 191
f 192 197 198
f 192 198 193
f 193 198 199
f 194 200 201
f 194 201 195
f 195 201 202
f 197 203 204
f 197 204 199
f 197 199 198
f 199 204 205
f 200 206 201
f 201 206 202
f 202 206 208
f 202 208 207
f 203 209 210
f 203 210 205
f 203 205 204
f 207 208 211
f 208 212 213
f 208 213 211
f 209 214 215
f 209 215 210
f 210 215 216
f 210 216 217
f 211 213 218
f 211 218 219
f 211 219 220
f 212 219 218
f 212 218 213
f 214 221 222
f 214 222 216
f 214 216 215
f 216 222 223
f 216 223 217
f 219 224 225
f 219 225 226
f 219 226 220
f 220 226 227
f 220 227 228
f 220 228 229
f 221 230 223
f 221 223 222
f 223 230 231
f 223 231 232
f 224 233 227
f 224 227 225
f 225 227 226
f 227 233 239
f 227 239 234
f 227 234 228
f 228 234 229
f 229 234 235
f 229 235 236
f 231 237 232
f 232 237 238
f 234 239 240
f 234 240 235
f 235 240 236
f 236 240 241
f 236 241 242
f 236 242 243
f 237 244 238
f 238 244 245
f 238 245 246
f 240 247 241
f 241 247 256
f 241 256 248
f 241 248 242
f 242 249 243
f 242 248 250
f 242 250 251
f 242 251 249
f 244 252 253
f 244 253 245
f 245 254 255
f 245 255 246
f 245 253 254
f 248 256 263
f 248 263 257
f 248 257 250
f 250 257 251
f 251 257 258
f 251 258 259
f 252 260 253
f 253 260 261
f 253 261 254
f 254 261 262
f 254 262 255
f 257 264 265
f 257 265 258
f 257 263 266
f 257 266 264
f 258 265 259
f 260 265 261
f 261 265 262
f 262 265 264
f 262 264 266
