v -0.005450 0.013232 0.038325
v -0.004903 0.013473 0.038325
v -0.004813 0.013460 0.038235
v -0.005450 0.013178 0.038235
v -0.005450 -0.011622 0.038325
v -0.004296 0.013703 0.038325
v -0.004183 0.013703 0.038235
v -0.004074 0.012962 0.037501
v -0.004813 0.012959 0.037773
v -0.004813 0.012664 0.037501
v -0.005450 0.012959 0.038036
v -0.005450 -0.012361 0.037501
v -0.004813 -0.011939 0.038325
v -0.004163 0.013749 0.038325
v -0.004074 0.013744 0.038235
v -0.004074 0.013703 0.038196
v -0.003332 0.013213 0.037501
v -0.005450 0.012364 0.037501
v -0.004813 -0.012664 0.037501
v -0.004151 -0.012220 0.038325
v -0.003423 0.013982 0.038325
v -0.003332 0.013703 0.037970
v -0.003332 0.013976 0.038235
v -0.002592 0.013414 0.037501
v -0.004074 -0.012962 0.037501
v -0.004111 -0.012237 0.038325
v -0.002682 0.014171 0.038325
v -0.002592 0.014171 0.038235
v -0.002592 0.013703 0.037779
v -0.001851 0.013703 0.037626
v -0.001851 0.013573 0.037501
v -0.003669 -0.013097 0.037501
v -0.003423 -0.012477 0.038325
v -0.001942 0.014315 0.038325
v -0.001851 0.014320 0.038235
v -0.001607 0.013703 0.037588
v -0.001607 0.013614 0.037501
v -0.003332 -0.013097 0.037609
v -0.002682 -0.012688 0.038325
v -0.001607 -0.013100 0.037501
v -0.001607 -0.013100 0.038007
v -0.001200 0.014426 0.038325
v -0.001607 0.014358 0.038235
v -0.001109 0.013703 0.037511
v -0.001115 0.013692 0.037501
v -0.002592 -0.013097 0.037808
v -0.001851 -0.012864 0.038325
v 0.005021 -0.013100 0.037501
v -0.001851 -0.013097 0.037968
v -0.001111 -0.013100 0.038089
v -0.000458 -0.013051 0.038325
v -0.001109 0.014431 0.038235
v -0.000369 0.014493 0.038325
v -0.000369 0.014504 0.038235
v -0.001016 0.013703 0.037501
v -0.001168 -0.012975 0.038325
v -0.001256 -0.012962 0.038325
v -0.001607 -0.012905 0.038325
v 0.005423 -0.012962 0.037501
v 0.004725 -0.012388 0.038325
v 0.004813 -0.013100 0.037569
v -0.000369 -0.013100 0.038168
v 0.000281 -0.013083 0.038325
v -0.000369 0.013768 0.037501
v 0.000372 0.014518 0.038325
v 0.000372 0.014539 0.038235
v 0.005556 -0.012916 0.037501
v 0.005465 -0.012112 0.038325
v 0.003986 -0.012615 0.038325
v 0.004561 -0.013100 0.037640
v 0.000339 -0.013100 0.038204
v 0.001023 -0.013075 0.038325
v 0.000372 -0.013100 0.038206
v 0.001074 -0.013100 0.038201
v 0.001112 -0.013100 0.038201
v 0.000372 0.013803 0.037501
v 0.001112 0.014507 0.038325
v 0.001112 0.014534 0.038235
v 0.001112 0.013801 0.037501
v 0.006296 -0.012613 0.037501
v 0.006205 -0.011782 0.038325
v 0.003246 -0.012797 0.038325
v 0.004077 -0.013100 0.037773
v 0.001763 -0.013024 0.038325
v 0.001854 -0.013100 0.038155
v 0.002594 -0.013100 0.038067
v 0.001854 0.014455 0.038325
v 0.001854 0.014493 0.038235
v 0.001854 0.013757 0.037501
v 0.007034 -0.012258 0.037501
v 0.006792 -0.011479 0.038325
v 0.002504 -0.012932 0.038325
v 0.003335 -0.013100 0.037940
v 0.003577 -0.013100 0.037886
v 0.002768 -0.013100 0.038039
v 0.002056 0.014434 0.038325
v 0.002504 0.014385 0.038325
v 0.002594 0.014412 0.038235
v 0.002328 0.013703 0.037501
v 0.007775 -0.011850 0.037501
v 0.007034 -0.011338 0.038325
v 0.003246 0.014263 0.038325
v 0.003335 0.014293 0.038235
v 0.002594 0.013703 0.037531
v 0.002594 0.013671 0.037501
v 0.008364 -0.011479 0.037501
v 0.007678 -0.010957 0.038325
v 0.003986 0.014101 0.038325
v 0.004077 0.014136 0.038235
v 0.003335 0.013703 0.037653
v 0.003311 0.013552 0.037501
v 0.008517 -0.011379 0.037501
v 0.007996 -0.010738 0.038325
v 0.004815 0.013865 0.038325
v 0.004815 0.013939 0.038235
v 0.004077 0.013703 0.037813
v 0.004077 0.013381 0.037501
v 0.009255 -0.010843 0.037501
v 0.008517 -0.010738 0.038028
v 0.008517 -0.010370 0.038325
v 0.005318 0.013703 0.038325
v 0.005540 0.013703 0.038235
v 0.004815 0.013703 0.038009
v 0.004815 0.013170 0.037501
v 0.009386 -0.010738 0.037501
v 0.009257 -0.010738 0.037583
v 0.008993 -0.009999 0.038325
v 0.005465 0.013652 0.038325
v 0.005556 0.013698 0.038235
v 0.005427 0.012962 0.037501
v 0.009998 -0.010224 0.037501
v 0.009257 -0.009999 0.038158
v 0.009136 -0.009999 0.038235
v 0.009257 -0.009777 0.038325
v 0.006205 0.013362 0.038325
v 0.006296 0.013411 0.038235
v 0.005556 0.012962 0.037543
v 0.005556 0.012916 0.037501
v 0.010244 -0.009999 0.037501
v 0.009998 -0.009999 0.037670
v 0.009925 -0.009169 0.038325
v 0.006296 0.013316 0.038325
v 0.007034 0.013032 0.038235
v 0.007034 0.012261 0.037501
v 0.006296 0.012962 0.037820
v 0.006280 0.012621 0.037501
v 0.010738 -0.009512 0.037501
v 0.010738 -0.009255 0.037681
v 0.009998 -0.009093 0.038325
v 0.006974 0.012962 0.038325
v 0.007034 0.012962 0.038295
v 0.007147 0.012962 0.038235
v 0.007775 0.011850 0.037501
v 0.007109 0.012221 0.037501
v 0.010988 -0.009252 0.037501
v 0.010544 -0.008517 0.038325
v 0.007034 0.012927 0.038325
v 0.007137 0.012862 0.038325
v 0.007775 0.012556 0.038235
v 0.008364 0.011482 0.037501
v 0.011480 -0.008687 0.037501
v 0.010738 -0.008517 0.038180
v 0.010623 -0.008425 0.038325
v 0.007775 0.012448 0.038325
v 0.008188 0.012153 0.038325
v 0.008243 0.012221 0.038235
v 0.008517 0.011382 0.037501
v 0.011623 -0.008517 0.037501
v 0.011480 -0.008517 0.037614
v 0.010738 -0.008289 0.038325
v 0.008454 0.011950 0.038325
v 0.008517 0.012015 0.038235
v 0.009257 0.010844 0.037501
v 0.012178 -0.007781 0.037501
v 0.011480 -0.007773 0.038070
v 0.011228 -0.007686 0.038325
v 0.011159 -0.007773 0.038325
v 0.008517 0.011901 0.038325
v 0.009086 0.011431 0.038325
v 0.009164 0.011479 0.038235
v 0.009390 0.010741 0.037501
v 0.012222 -0.007721 0.037501
v 0.011480 -0.007491 0.038235
v 0.011480 -0.007337 0.038325
v 0.009213 0.011320 0.038325
v 0.009257 0.011398 0.038235
v 0.009998 0.010227 0.037501
v 0.012672 -0.007037 0.037501
v 0.012222 -0.007037 0.037884
v 0.011692 -0.007037 0.038325
v 0.009824 0.010741 0.038325
v 0.009951 0.010741 0.038235
v 0.010246 0.009999 0.037501
v 0.012961 -0.006539 0.037501
v 0.012222 -0.006293 0.038269
v 0.012154 -0.006293 0.038325
v 0.009955 0.010608 0.038325
v 0.009998 0.010692 0.038235
v 0.010738 0.009515 0.037501
v 0.013098 -0.006293 0.037501
v 0.012961 -0.006293 0.037622
v 0.012222 -0.006179 0.038325
v 0.009998 0.010562 0.038325
v 0.010633 0.009999 0.038235
v 0.010984 0.009258 0.037501
v 0.013469 -0.005551 0.037501
v 0.012961 -0.005551 0.037961
v 0.012555 -0.005551 0.038325
v 0.010512 0.009999 0.038325
v 0.010556 0.009951 0.038325
v 0.010738 0.009732 0.038325
v 0.010738 0.009872 0.038235
v 0.011480 0.008693 0.037501
v 0.013701 -0.005021 0.037501
v 0.012902 -0.004810 0.038325
v 0.011115 0.009258 0.038325
v 0.011226 0.009258 0.038235
v 0.011625 0.008517 0.037501
v 0.013790 -0.004810 0.037501
v 0.012961 -0.004661 0.038325
v 0.011180 0.009169 0.038325
v 0.011405 0.008860 0.038325
v 0.011480 0.008906 0.038235
v 0.012222 0.007724 0.037501
v 0.012184 0.007776 0.037501
v 0.014062 -0.004080 0.037501
v 0.013288 -0.004069 0.038235
v 0.013193 -0.004069 0.038325
v 0.011480 0.008752 0.038325
v 0.011748 0.008517 0.038235
v 0.012672 0.007037 0.037501
v 0.014300 -0.003311 0.037501
v 0.013701 -0.003330 0.038072
v 0.013437 -0.003330 0.038325
v 0.011641 0.008517 0.038325
v 0.011710 0.008411 0.038325
v 0.012206 0.007776 0.038235
v 0.012222 0.007749 0.038235
v 0.012961 0.006539 0.037501
v 0.014443 -0.002749 0.037501
v 0.013640 -0.002589 0.038325
v 0.013463 -0.003238 0.038325
v 0.012101 0.007776 0.038325
v 0.012116 0.007749 0.038325
v 0.012166 0.007662 0.038325
v 0.012222 0.007562 0.038325
v 0.012503 0.007037 0.038325
v 0.012602 0.007037 0.038235
v 0.013098 0.006296 0.037501
v 0.014482 -0.002589 0.037501
v 0.014443 -0.002589 0.037540
v 0.013653 -0.002524 0.038325
v 0.012551 0.006937 0.038325
v 0.012850 0.006296 0.038325
v 0.012947 0.006296 0.038235
v 0.013471 0.005554 0.037501
v 0.014631 -0.001848 0.037501
v 0.013885 -0.001848 0.038235
v 0.013794 -0.001848 0.038325
v 0.012961 0.006020 0.038325
v 0.013146 0.005554 0.038325
v 0.013241 0.005554 0.038235
v 0.013790 0.004813 0.037501
v 0.013701 0.005024 0.037501
v 0.014740 -0.001106 0.037501
v 0.013909 -0.001106 0.038325
v 0.013191 0.005422 0.038325
v 0.013396 0.004813 0.038325
v 0.013489 0.004813 0.038235
v 0.014066 0.004072 0.037501
v 0.014810 -0.000365 0.037501
v 0.013985 -0.000365 0.038325
v 0.013423 0.004721 0.038325
v 0.013695 0.004072 0.038235
v 0.014296 0.003333 0.037501
v 0.014810 0.000374 0.037501
v 0.014109 0.000374 0.038235
v 0.014020 0.000374 0.038325
v 0.014012 0.000195 0.038325
v 0.013606 0.004061 0.038325
v 0.013630 0.003956 0.038325
v 0.013858 0.003333 0.038235
v 0.014484 0.002592 0.037501
v 0.014740 0.001109 0.037501
v 0.014062 0.001851 0.038235
v 0.014106 0.001109 0.038235
v 0.014016 0.000947 0.038325
v 0.013766 0.003333 0.038325
v 0.013808 0.003092 0.038325
v 0.013979 0.002592 0.038235
v 0.014631 0.001851 0.037501
v 0.013971 0.001851 0.038325
v 0.013983 0.001686 0.038325
v 0.013889 0.002592 0.038325
v 0.014014 0.001109 0.038325
f 1 2 3
f 1 3 4
f 1 4 11
f 1 11 18
f 1 18 12
f 1 12 5
f 1 5 13
f 1 13 20
f 1 20 26
f 1 26 33
f 1 33 39
f 1 39 47
f 1 47 58
f 1 58 57
f 1 57 56
f 1 56 51
f 1 51 63
f 1 63 72
f 1 72 84
f 1 84 92
f 1 92 82
f 1 82 69
f 1 69 60
f 1 60 68
f 1 68 81
f 1 81 91
f 1 91 101
f 1 101 107
f 1 107 113
f 1 113 120
f 1 120 127
f 1 127 134
f 1 134 141
f 1 141 149
f 1 149 156
f 1 156 163
f 1 163 170
f 1 170 177
f 1 177 176
f 1 176 184
f 1 184 190
f 1 190 196
f 1 196 202
f 1 202 208
f 1 208 215
f 1 215 220
f 1 220 228
f 1 228 234
f 1 234 242
f 1 242 241
f 1 241 252
f 1 252 259
f 1 259 266
f 1 266 272
f 1 272 279
f 1 279 278
f 1 278 287
f 1 287 295
f 1 295 293
f 1 293 292
f 1 292 294
f 1 294 289
f 1 289 288
f 1 288 281
f 1 281 280
f 1 280 273
f 1 273 268
f 1 268 267
f 1 267 261
f 1 261 260
f 1 260 254
f 1 254 253
f 1 253 247
f 1 247 246
f 1 246 245
f 1 245 244
f 1 244 243
f 1 243 236
f 1 236 235
f 1 235 229
f 1 229 222
f 1 222 221
f 1 221 216
f 1 216 211
f 1 211 210
f 1 210 209
f 1 209 203
f 1 203 197
f 1 197 191
f 1 191 185
f 1 185 179
f 1 179 178
f 1 178 171
f 1 171 165
f 1 165 164
f 1 164 158
f 1 158 157
f 1 157 150
f 1 150 142
f 1 142 135
f 1 135 128
f 1 128 121
f 1 121 114
f 1 114 108
f 1 108 102
f 1 102 97
f 1 97 96
f 1 96 87
f 1 87 77
f 1 77 65
f 1 65 53
f 1 53 42
f 1 42 34
f 1 34 27
f 1 27 21
f 1 21 14
f 1 14 6
f 1 6 2
f 2 6 7
f 2 7 3
f 3 8 9
f 3 9 4
f 3 7 8
f 4 9 10
f 4 10 11
f 5 12 13
f 6 14 15
f 6 15 7
f 7 16 8
f 7 15 16
f 8 16 17
f 8 17 24
f 8 24 31
f 8 31 37
f 8 37 45
f 8 45 55
f 8 55 64
f 8 64 76
f 8 76 79
f 8 79 89
f 8 89 99
f 8 99 105
f 8 105 111
f 8 111 117
f 8 117 124
f 8 124 130
f 8 130 138
f 8 138 146
f 8 146 144
f 8 144 154
f 8 154 153
f 8 153 160
f 8 160 167
f 8 167 173
f 8 173 181
f 8 181 187
f 8 187 193
f 8 193 199
f 8 199 205
f 8 205 213
f 8 213 218
f 8 218 225
f 8 225 224
f 8 224 231
f 8 231 239
f 8 239 249
f 8 249 256
f 8 256 264
f 8 264 263
f 8 263 270
f 8 270 275
f 8 275 283
f 8 283 291
f 8 291 284
f 8 284 276
f 8 276 271
f 8 271 265
f 8 265 257
f 8 257 250
f 8 250 240
f 8 240 232
f 8 232 226
f 8 226 219
f 8 219 214
f 8 214 206
f 8 206 200
f 8 200 194
f 8 194 188
f 8 188 182
f 8 182 174
f 8 174 168
f 8 168 161
f 8 161 155
f 8 155 147
f 8 147 139
f 8 139 131
f 8 131 125
f 8 125 118
f 8 118 112
f 8 112 106
f 8 106 100
f 8 100 90
f 8 90 80
f 8 80 67
f 8 67 59
f 8 59 48
f 8 48 40
f 8 40 32
f 8 32 25
f 8 25 19
f 8 19 12
f 8 12 18
f 8 18 10
f 8 10 9
f 10 18 11
f 12 19 13
f 13 19 20
f 14 21 15
f 15 22 16
f 15 21 23
f 15 23 22
f 16 22 17
f 17 22 24
f 19 25 26
f 19 26 20
f 21 27 28
f 21 28 23
f 22 23 29
f 22 29 24
f 23 28 29
f 24 29 30
f 24 30 31
f 25 32 33
f 25 33 26
f 27 34 35
f 27 35 28
f 28 35 30
f 28 30 29
f 30 35 36
f 30 36 37
f 30 37 31
f 32 38 39
f 32 39 33
f 32 40 41
f 32 41 38
f 34 42 43
f 34 43 35
f 35 43 44
f 35 44 36
f 36 44 45
f 36 45 37
f 38 41 46
f 38 46 47
f 38 47 39
f 40 48 61
f 40 61 70
f 40 70 83
f 40 83 94
f 40 94 93
f 40 93 95
f 40 95 86
f 40 86 85
f 40 85 75
f 40 75 74
f 40 74 73
f 40 73 71
f 40 71 62
f 40 62 50
f 40 50 41
f 41 49 46
f 41 50 51
f 41 51 49
f 42 52 43
f 42 53 54
f 42 54 52
f 43 52 44
f 44 52 55
f 44 55 45
f 46 56 57
f 46 57 58
f 46 58 47
f 46 49 56
f 48 59 60
f 48 60 61
f 49 51 56
f 50 62 63
f 50 63 51
f 52 54 64
f 52 64 55
f 53 65 66
f 53 66 54
f 54 66 76
f 54 76 64
f 59 67 60
f 60 69 61
f 60 67 68
f 61 69 70
f 62 71 63
f 63 71 73
f 63 73 74
f 63 74 75
f 63 75 72
f 65 77 78
f 65 78 66
f 66 78 79
f 66 79 76
f 67 80 68
f 68 80 81
f 69 82 83
f 69 83 70
f 72 75 85
f 72 85 86
f 72 86 84
f 77 87 88
f 77 88 78
f 78 88 79
f 79 88 89
f 80 90 81
f 81 90 91
f 82 92 93
f 82 93 94
f 82 94 83
f 84 86 95
f 84 95 93
f 84 93 92
f 87 96 88
f 88 96 97
f 88 97 98
f 88 98 89
f 89 98 99
f 90 100 91
f 91 100 101
f 97 102 103
f 97 103 98
f 98 103 104
f 98 104 99
f 99 104 105
f 100 106 107
f 100 107 101
f 102 108 109
f 102 109 103
f 103 109 110
f 103 110 104
f 104 110 111
f 104 111 105
f 106 112 107
f 107 112 113
f 108 114 115
f 108 115 109
f 109 115 116
f 109 116 110
f 110 116 111
f 111 116 117
f 112 118 119
f 112 119 113
f 113 119 120
f 114 121 115
f 115 121 122
f 115 122 123
f 115 123 117
f 115 117 116
f 117 123 124
f 118 125 126
f 118 126 127
f 118 127 120
f 118 120 119
f 121 128 129
f 121 129 122
f 122 129 130
f 122 130 124
f 122 124 123
f 125 131 132
f 125 132 133
f 125 133 126
f 126 133 127
f 127 133 134
f 128 135 136
f 128 136 129
f 129 136 137
f 129 137 130
f 130 137 138
f 131 139 140
f 131 140 132
f 132 140 134
f 132 134 133
f 134 140 141
f 135 142 136
f 136 142 143
f 136 143 144
f 136 144 145
f 136 145 137
f 137 145 146
f 137 146 138
f 139 147 141
f 139 141 140
f 141 147 148
f 141 148 149
f 142 150 143
f 143 150 151
f 143 151 152
f 143 152 153
f 143 153 154
f 143 154 144
f 144 146 145
f 147 155 148
f 148 155 156
f 148 156 149
f 150 157 151
f 151 157 158
f 151 158 152
f 152 158 159
f 152 159 160
f 152 160 153
f 155 161 162
f 155 162 156
f 156 162 163
f 158 164 159
f 159 164 165
f 159 165 166
f 159 166 167
f 159 167 160
f 161 168 169
f 161 169 162
f 162 169 170
f 162 170 163
f 165 171 172
f 165 172 166
f 166 172 173
f 166 173 167
f 168 174 175
f 168 175 176
f 168 176 169
f 169 176 177
f 169 177 170
f 171 178 172
f 172 178 179
f 172 179 180
f 172 180 181
f 172 181 173
f 174 182 175
f 175 182 183
f 175 183 176
f 176 183 184
f 179 185 186
f 179 186 180
f 180 186 187
f 180 187 181
f 182 188 189
f 182 189 190
f 182 190 184
f 182 184 183
f 185 191 192
f 185 192 186
f 186 192 193
f 186 193 187
f 188 194 195
f 188 195 189
f 189 195 190
f 190 195 196
f 191 197 192
f 192 197 198
f 192 198 199
f 192 199 193
f 194 200 201
f 194 201 195
f 195 201 202
f 195 202 196
f 197 203 198
f 198 203 204
f 198 204 205
f 198 205 199
f 200 206 207
f 200 207 208
f 200 208 201
f 201 208 202
f 203 209 204
f 204 209 210
f 204 210 211
f 204 211 212
f 204 212 213
f 204 213 205
f 206 214 215
f 206 215 207
f 207 215 208
f 211 216 212
f 212 216 217
f 212 217 218
f 212 218 213
f 214 219 215
f 215 219 220
f 216 221 217
f 217 221 222
f 217 222 223
f 217 223 224
f 217 224 225
f 217 225 218
f 219 226 227
f 219 227 228
f 219 228 220
f 222 229 223
f 223 229 230
f 223 230 224
f 224 230 231
f 226 232 233
f 226 233 234
f 226 234 227
f 227 234 228
f 229 235 230
f 230 235 236
f 230 236 237
f 230 237 231
f 231 237 238
f 231 238 239
f 232 240 241
f 232 241 242
f 232 242 233
f 233 242 234
f 236 243 237
f 237 243 244
f 237 244 238
f 238 244 245
f 238 245 246
f 238 246 247
f 238 247 248
f 238 248 249
f 238 249 239
f 240 250 251
f 240 251 241
f 241 251 252
f 247 253 248
f 248 253 254
f 248 254 255
f 248 255 256
f 248 256 249
f 250 257 251
f 251 257 258
f 251 258 259
f 251 259 252
f 254 260 255
f 255 260 261
f 255 261 262
f 255 262 263
f 255 263 264
f 255 264 256
f 257 265 266
f 257 266 258
f 258 266 259
f 261 267 262
f 262 267 268
f 262 268 269
f 262 269 270
f 262 270 263
f 265 271 272
f 265 272 266
f 268 273 269
f 269 273 274
f 269 274 275
f 269 275 270
f 271 276 277
f 271 277 278
f 271 278 279
f 271 279 272
f 273 280 274
f 274 280 281
f 274 281 282
f 274 282 283
f 274 283 275
f 276 284 285
f 276 285 286
f 276 286 277
f 277 286 278
f 278 286 287
f 281 288 282
f 282 288 289
f 282 289 290
f 282 290 291
f 282 291 283
f 284 291 290
f 284 290 285
f 285 292 293
f 285 293 286
f 285 290 294
f 285 294 292
f 286 293 295
f 286 295 287
f 289 294 290
