v -0.000371 -0.013925 0.039704
v 0.000369 -0.013703 0.039518
v 0.000380 -0.013889 0.039704
v -0.001111 -0.013921 0.039704
v -0.000371 -0.013193 0.038972
v 0.000369 -0.013155 0.038972
v 0.001109 -0.013703 0.039594
v 0.001109 -0.013814 0.039704
v -0.001850 -0.013877 0.039704
v -0.001111 -0.013189 0.038972
v 0.001109 -0.013075 0.038972
v 0.001852 -0.013699 0.039704
v -0.001850 -0.013703 0.039531
v -0.002585 -0.013794 0.039704
v -0.001850 -0.013143 0.038972
v 0.001791 -0.012964 0.038972
v 0.001852 -0.012953 0.038972
v 0.002594 -0.013540 0.039704
v -0.003146 -0.013702 0.039704
v -0.002590 -0.013703 0.039614
v -0.002593 -0.013055 0.038972
v 0.002591 -0.012786 0.038972
v 0.002591 -0.012962 0.039142
v 0.003342 -0.013336 0.039704
v -0.003333 -0.013669 0.039704
v -0.003110 -0.012964 0.038972
v 0.003331 -0.012572 0.038972
v 0.003331 -0.012962 0.039343
v 0.004074 -0.013093 0.039704
v -0.004073 -0.013505 0.039704
v -0.003333 -0.012924 0.038972
v 0.004074 -0.012311 0.038972
v 0.004074 -0.012962 0.039582
v 0.004404 -0.012962 0.039704
v -0.004812 -0.013297 0.039704
v -0.004073 -0.012962 0.039178
v -0.004051 -0.012755 0.038972
v 0.004286 -0.012221 0.038972
v 0.004814 -0.012797 0.039704
v -0.004812 -0.012962 0.039384
v -0.004073 -0.012749 0.038972
v -0.005555 -0.013044 0.039704
v 0.004814 -0.011996 0.038972
v 0.004814 -0.012221 0.039177
v 0.005553 -0.012449 0.039704
v -0.004810 -0.012530 0.038972
v -0.005764 -0.012962 0.039704
v -0.005555 -0.012962 0.039626
v 0.005553 -0.011624 0.038972
v 0.005553 -0.012221 0.039500
v 0.005982 -0.012219 0.039704
v -0.005555 -0.012261 0.038972
v -0.006295 -0.012744 0.039704
v 0.005804 -0.011481 0.038972
v 0.006293 -0.012046 0.039704
v -0.005648 -0.012221 0.038972
v -0.006295 -0.012221 0.039225
v -0.007035 -0.012396 0.039704
v 0.006296 -0.011189 0.038972
v 0.006296 -0.011481 0.039219
v 0.006310 -0.012036 0.039704
v -0.006295 -0.011941 0.038972
v -0.007365 -0.012219 0.039704
v -0.007035 -0.012221 0.039548
v 0.006956 -0.010740 0.038972
v 0.007036 -0.011481 0.039623
v 0.007036 -0.011578 0.039704
v -0.007037 -0.011569 0.038972
v -0.007777 -0.011991 0.039704
v 0.007036 -0.010683 0.038972
v 0.007036 -0.010740 0.039017
v 0.007176 -0.011481 0.039704
v -0.007191 -0.011481 0.038972
v -0.007777 -0.011481 0.039265
v -0.008517 -0.011528 0.039704
v 0.008518 -0.009556 0.038972
v 0.007762 -0.011049 0.039704
v 0.007776 -0.011039 0.039704
v -0.007777 -0.011136 0.038972
v -0.008586 -0.011481 0.039704
v -0.008517 -0.011481 0.039665
v 0.008873 -0.009259 0.038972
v 0.008144 -0.010739 0.039704
v -0.008369 -0.010740 0.038972
v -0.008594 -0.011475 0.039704
v -0.008517 -0.010740 0.039056
v 0.009258 -0.008914 0.038972
v 0.008515 -0.010416 0.039704
v -0.008517 -0.010636 0.038972
v -0.009257 -0.010996 0.039704
v 0.008958 -0.009999 0.039704
v 0.009662 -0.008518 0.038972
v -0.009257 -0.010740 0.039501
v -0.009260 -0.010059 0.038972
v -0.009581 -0.010739 0.039704
v 0.009258 -0.009693 0.039704
v 0.009998 -0.008159 0.038972
v -0.009999 -0.010387 0.039704
v -0.009999 -0.009999 0.039413
v -0.009328 -0.009999 0.038972
v 0.009654 -0.009258 0.039704
v 0.010331 -0.007777 0.038972
v -0.010423 -0.009997 0.039704
v -0.009999 -0.009393 0.038972
v 0.009998 -0.008843 0.039704
v 0.010740 -0.007262 0.038972
v -0.010739 -0.009689 0.039704
v -0.010137 -0.009259 0.038972
v 0.010251 -0.008516 0.039704
v 0.010908 -0.007037 0.038972
v -0.011149 -0.009256 0.039704
v -0.010739 -0.009259 0.039403
v -0.010739 -0.008618 0.038972
v 0.010738 -0.007825 0.039704
v 0.011403 -0.006297 0.038972
v -0.011479 -0.008880 0.039704
v -0.010830 -0.008518 0.038972
v 0.010771 -0.007775 0.039704
v 0.011480 -0.006169 0.038972
v -0.011479 -0.008518 0.039470
v -0.011779 -0.008518 0.039704
v -0.011430 -0.007777 0.038972
v 0.011216 -0.007034 0.039704
v 0.011830 -0.005559 0.038972
v -0.012222 -0.007931 0.039704
v -0.011485 -0.007702 0.038972
v 0.011480 -0.006536 0.039704
v 0.012195 -0.004815 0.038972
v 0.011604 -0.006296 0.039704
v -0.012222 -0.007777 0.039613
v -0.012332 -0.007777 0.039704
v -0.011947 -0.007037 0.038972
v 0.012220 -0.004758 0.038972
v 0.011929 -0.005556 0.039704
v -0.012222 -0.007037 0.039200
v -0.012816 -0.007034 0.039704
v -0.012222 -0.006597 0.038972
v 0.012506 -0.004075 0.038972
v 0.012206 -0.004815 0.039704
v -0.012400 -0.006297 0.038972
v -0.012961 -0.006784 0.039704
v 0.012765 -0.003333 0.038972
v 0.012432 -0.004075 0.039704
v -0.012961 -0.006297 0.039461
v -0.012794 -0.005556 0.038972
v -0.013236 -0.006297 0.039704
v 0.012770 -0.003313 0.038972
v 0.012963 -0.002637 0.038972
v 0.012974 -0.002593 0.038972
v 0.012611 -0.003334 0.039704
v -0.012961 -0.005556 0.039122
v -0.012961 -0.005193 0.038972
v -0.013602 -0.005561 0.039704
v 0.013139 -0.001853 0.038972
v 0.012743 -0.002593 0.039704
v -0.013605 -0.005555 0.039704
v -0.013132 -0.004815 0.038972
v 0.013260 -0.001112 0.038972
v 0.012833 -0.001853 0.039704
v -0.013701 -0.005337 0.039704
v -0.013701 -0.004815 0.039499
v -0.013421 -0.004075 0.038972
v 0.013337 -0.000371 0.038972
v 0.012880 -0.001116 0.039704
v -0.013921 -0.004815 0.039704
v -0.014194 -0.004075 0.039704
v -0.013660 -0.003337 0.038972
v 0.013375 0.000369 0.038972
v 0.012886 -0.000378 0.039704
v -0.014422 -0.003337 0.039704
v -0.013704 -0.003175 0.038972
v 0.013370 0.001098 0.038972
v 0.012886 -0.000371 0.039704
v -0.014444 -0.003247 0.039704
v -0.013858 -0.002593 0.038972
v 0.012963 0.001098 0.039470
v 0.012847 0.000369 0.039704
v -0.014229 0.001098 0.038972
v -0.014595 -0.002593 0.039704
v -0.014444 -0.002593 0.039551
v -0.014012 -0.001853 0.038972
v 0.012767 0.001098 0.039703
v 0.012745 0.001098 0.039704
v -0.014232 0.000369 0.038972
v -0.014722 -0.000371 0.039704
v -0.014686 0.000369 0.039704
v -0.014617 0.001098 0.039704
v -0.014675 -0.001860 0.039704
v -0.014125 -0.001112 0.038972
v -0.014199 -0.000371 0.038972
v -0.014716 -0.001116 0.039704
f 1 2 3
f 1 3 8
f 1 8 12
f 1 12 18
f 1 18 24
f 1 24 29
f 1 29 34
f 1 34 39
f 1 39 45
f 1 45 51
f 1 51 55
f 1 55 61
f 1 61 67
f 1 67 72
f 1 72 77
f 1 77 78
f 1 78 83
f 1 83 88
f 1 88 91
f 1 91 96
f 1 96 101
f 1 101 105
f 1 105 109
f 1 109 114
f 1 114 118
f 1 118 123
f 1 123 127
f 1 127 129
f 1 129 134
f 1 134 139
f 1 139 143
f 1 143 150
f 1 150 155
f 1 155 159
f 1 159 164
f 1 164 169
f 1 169 173
f 1 173 177
f 1 177 183
f 1 183 187
f 1 187 186
f 1 186 185
f 1 185 191
f 1 191 188
f 1 188 179
f 1 179 174
f 1 174 170
f 1 170 166
f 1 166 165
f 1 165 160
f 1 160 156
f 1 156 153
f 1 153 146
f 1 146 141
f 1 141 136
f 1 136 131
f 1 131 125
f 1 125 121
f 1 121 116
f 1 116 111
f 1 111 107
f 1 107 103
f 1 103 98
f 1 98 95
f 1 95 90
f 1 90 85
f 1 85 80
f 1 80 75
f 1 75 69
f 1 69 63
f 1 63 58
f 1 58 53
f 1 53 47
f 1 47 42
f 1 42 35
f 1 35 30
f 1 30 25
f 1 25 19
f 1 19 14
f 1 14 9
f 1 9 4
f 1 4 10
f 1 10 5
f 1 5 2
f 2 5 6
f 2 6 7
f 2 7 3
f 3 7 8
f 4 9 10
f 5 10 15
f 5 15 21
f 5 21 26
f 5 26 31
f 5 31 37
f 5 37 41
f 5 41 46
f 5 46 52
f 5 52 56
f 5 56 62
f 5 62 68
f 5 68 73
f 5 73 79
f 5 79 84
f 5 84 89
f 5 89 94
f 5 94 100
f 5 100 104
f 5 104 108
f 5 108 113
f 5 113 117
f 5 117 122
f 5 122 126
f 5 126 132
f 5 132 137
f 5 137 140
f 5 140 145
f 5 145 152
f 5 152 157
f 5 157 162
f 5 162 167
f 5 167 171
f 5 171 175
f 5 175 181
f 5 181 189
f 5 189 190
f 5 190 184
f 5 184 178
f 5 178 172
f 5 172 168
f 5 168 163
f 5 163 158
f 5 158 154
f 5 154 149
f 5 149 148
f 5 148 147
f 5 147 142
f 5 142 138
f 5 138 133
f 5 133 128
f 5 128 124
f 5 124 119
f 5 119 115
f 5 115 110
f 5 110 106
f 5 106 102
f 5 102 97
f 5 97 92
f 5 92 87
f 5 87 82
f 5 82 76
f 5 76 70
f 5 70 65
f 5 65 59
f 5 59 54
f 5 54 49
f 5 49 43
f 5 43 38
f 5 38 32
f 5 32 27
f 5 27 22
f 5 22 17
f 5 17 16
f 5 16 11
f 5 11 6
f 6 11 7
f 7 11 12
f 7 12 8
f 9 13 10
f 9 14 13
f 10 13 15
f 11 16 12
f 12 17 18
f 12 16 17
f 13 14 15
f 14 19 20
f 14 20 15
f 15 20 21
f 17 22 23
f 17 23 18
f 18 23 24
f 19 25 21
f 19 21 20
f 21 25 26
f 22 27 28
f 22 28 24
f 22 24 23
f 24 28 29
f 25 30 31
f 25 31 26
f 27 32 33
f 27 33 29
f 27 29 28
f 29 33 34
f 30 35 36
f 30 36 37
f 30 37 31
f 32 38 39
f 32 39 34
f 32 34 33
f 35 40 41
f 35 41 36
f 35 42 40
f 36 41 37
f 38 43 44
f 38 44 39
f 39 44 45
f 40 46 41
f 40 42 46
f 42 47 48
f 42 48 46
f 43 49 50
f 43 50 45
f 43 45 44
f 45 50 51
f 46 48 52
f 47 52 48
f 47 53 52
f 49 54 55
f 49 55 51
f 49 51 50
f 52 53 56
f 53 57 56
f 53 58 57
f 54 59 60
f 54 60 55
f 55 60 61
f 56 57 62
f 57 58 62
f 58 63 64
f 58 64 62
f 59 65 66
f 59 66 67
f 59 67 60
f 60 67 61
f 62 64 68
f 63 69 68
f 63 68 64
f 65 70 71
f 65 71 66
f 66 71 72
f 66 72 67
f 68 69 73
f 69 74 73
f 69 75 74
f 70 76 71
f 71 77 72
f 71 76 78
f 71 78 77
f 73 74 79
f 74 75 79
f 75 80 81
f 75 81 79
f 76 82 83
f 76 83 78
f 79 81 84
f 80 85 86
f 80 86 81
f 81 86 84
f 82 87 88
f 82 88 83
f 84 86 89
f 85 90 86
f 86 90 89
f 87 91 88
f 87 92 91
f 89 90 93
f 89 93 94
f 90 95 93
f 91 92 96
f 92 97 96
f 93 95 94
f 94 95 98
f 94 98 99
f 94 99 100
f 96 97 101
f 97 102 101
f 98 103 99
f 99 103 104
f 99 104 100
f 101 102 105
f 102 106 105
f 103 107 108
f 103 108 104
f 105 106 109
f 106 110 109
f 107 111 112
f 107 112 108
f 108 112 113
f 109 110 114
f 110 115 114
f 111 116 117
f 111 117 112
f 112 117 113
f 114 115 118
f 115 119 118
f 116 120 117
f 116 121 120
f 117 120 122
f 118 119 123
f 119 124 123
f 120 121 122
f 121 125 122
f 122 125 126
f 123 124 127
f 124 128 129
f 124 129 127
f 125 130 126
f 125 131 130
f 126 130 132
f 128 133 134
f 128 134 129
f 130 135 132
f 130 131 135
f 131 136 135
f 132 135 137
f 133 138 134
f 134 138 139
f 135 136 137
f 136 140 137
f 136 141 140
f 138 142 139
f 139 142 143
f 140 141 144
f 140 144 145
f 141 146 144
f 142 147 143
f 143 147 148
f 143 148 149
f 143 149 150
f 144 146 145
f 145 146 151
f 145 151 152
f 146 153 151
f 149 154 150
f 150 154 155
f 151 153 156
f 151 156 152
f 152 156 157
f 154 158 155
f 155 158 159
f 156 160 157
f 157 160 161
f 157 161 162
f 158 163 159
f 159 163 164
f 160 165 161
f 161 165 162
f 162 165 166
f 162 166 167
f 163 168 164
f 164 168 169
f 166 170 167
f 167 170 171
f 168 172 173
f 168 173 169
f 170 174 175
f 170 175 171
f 172 176 177
f 172 177 173
f 172 178 187
f 172 187 183
f 172 183 182
f 172 182 176
f 174 179 180
f 174 180 175
f 175 180 181
f 176 182 177
f 177 182 183
f 178 184 185
f 178 185 186
f 178 186 187
f 179 188 189
f 179 189 181
f 179 181 180
f 184 190 191
f 184 191 185
f 188 191 190
f 188 190 189
