v 0.000372 -0.014539 0.036765
v 0.000372 -0.014456 0.036381
v 0.001108 -0.014534 0.036765
v 0.001108 -0.013798 0.037501
v 0.000372 -0.013804 0.037500
v -0.000369 -0.013768 0.037501
v -0.000369 -0.014503 0.036765
v -0.000369 -0.014459 0.036381
v 0.000962 -0.014431 0.036381
v 0.001850 -0.014492 0.036765
v 0.001850 -0.013754 0.037501
v 0.000372 -0.013801 0.037501
v 0.000361 -0.013801 0.037501
v -0.001007 -0.013701 0.037501
v -0.001111 -0.013693 0.037500
v -0.001111 -0.014431 0.036765
v -0.001111 -0.014420 0.036381
v 0.001535 -0.014387 0.036381
v 0.002591 -0.014412 0.036765
v 0.002591 -0.013671 0.037501
v -0.001111 -0.013690 0.037501
v -0.001849 -0.014320 0.036765
v -0.001852 -0.013574 0.037501
v -0.001849 -0.014345 0.036381
v 0.002204 -0.014301 0.036381
v 0.003333 -0.014295 0.036765
v 0.003330 -0.013546 0.037501
v -0.002591 -0.014170 0.036765
v -0.002591 -0.014231 0.036381
v -0.002591 -0.013415 0.037501
v 0.002591 -0.014220 0.036381
v 0.003687 -0.013987 0.036381
v 0.004072 -0.014137 0.036765
v 0.004072 -0.013379 0.037501
v -0.003332 -0.013979 0.036765
v -0.003332 -0.014079 0.036381
v -0.003332 -0.013210 0.037501
v -0.003332 -0.013213 0.037500
v 0.004659 -0.013685 0.036381
v 0.004813 -0.013937 0.036765
v 0.004813 -0.013701 0.036991
v 0.004810 -0.013169 0.037501
v -0.004074 -0.013743 0.036765
v -0.004459 -0.013779 0.036381
v -0.004074 -0.013882 0.036381
v -0.003779 -0.013060 0.037501
v -0.004074 -0.012963 0.037500
v 0.005167 -0.013504 0.036381
v 0.005555 -0.013698 0.036765
v 0.005423 -0.012960 0.037501
v -0.004812 -0.013463 0.036765
v -0.005200 -0.013518 0.036381
v -0.004074 -0.012960 0.037501
v -0.004366 -0.012844 0.037501
v -0.004812 -0.012664 0.037501
v 0.005908 -0.013196 0.036381
v 0.006296 -0.013413 0.036765
v 0.005555 -0.012916 0.037500
v 0.005555 -0.012913 0.037501
v -0.005554 -0.013132 0.036765
v -0.005942 -0.013210 0.036381
v -0.005554 -0.012314 0.037501
v -0.005554 -0.012960 0.036920
v 0.006296 -0.013005 0.036381
v 0.007035 -0.013030 0.036765
v 0.007111 -0.012220 0.037501
v 0.007035 -0.012258 0.037501
v 0.006296 -0.012614 0.037500
v 0.006293 -0.012611 0.037501
v -0.005894 -0.012960 0.036765
v -0.006680 -0.012852 0.036381
v -0.005728 -0.012220 0.037501
v -0.006295 -0.012750 0.036765
v 0.006375 -0.012960 0.036381
v 0.007035 -0.012960 0.036705
v 0.007147 -0.012960 0.036765
v 0.007776 -0.011851 0.037500
v 0.007776 -0.011848 0.037501
v -0.007422 -0.012439 0.036381
v -0.006295 -0.011903 0.037501
v -0.006295 -0.012220 0.037227
v -0.007037 -0.012311 0.036765
v 0.007035 -0.012580 0.036381
v 0.007776 -0.012555 0.036765
v 0.008518 -0.011382 0.037500
v 0.008366 -0.011479 0.037500
v 0.008363 -0.011479 0.037501
v -0.007776 -0.012211 0.036381
v -0.006964 -0.011479 0.037501
v -0.007037 -0.012220 0.036842
v -0.007175 -0.012220 0.036765
v 0.007605 -0.012209 0.036381
v 0.007776 -0.012220 0.036488
v 0.008243 -0.012220 0.036765
v 0.009256 -0.010843 0.037501
v 0.008518 -0.011379 0.037501
v -0.008278 -0.011867 0.036381
v -0.007037 -0.011432 0.037501
v -0.007776 -0.011806 0.036765
v 0.007776 -0.012089 0.036381
v 0.008001 -0.011926 0.036381
v 0.008518 -0.012014 0.036765
v 0.009391 -0.010735 0.037501
v -0.008517 -0.011701 0.036381
v -0.007776 -0.010885 0.037501
v -0.007776 -0.011479 0.037029
v -0.008205 -0.011479 0.036765
v -0.008517 -0.011479 0.036569
v 0.008251 -0.011737 0.036381
v 0.008518 -0.011526 0.036381
v 0.009164 -0.011479 0.036765
v 0.009998 -0.010225 0.037501
v -0.008809 -0.011479 0.036381
v -0.007955 -0.010738 0.037501
v -0.008517 -0.011229 0.036765
v 0.008574 -0.011479 0.036381
v 0.008827 -0.011265 0.036381
v 0.009256 -0.011398 0.036765
v 0.010245 -0.009997 0.037501
v -0.009259 -0.011088 0.036381
v -0.008517 -0.010250 0.037501
v -0.008517 -0.010252 0.037500
v -0.008517 -0.010738 0.037138
v 0.009065 -0.011054 0.036381
v 0.009256 -0.010880 0.036381
v 0.009953 -0.010738 0.036765
v 0.010739 -0.009514 0.037501
v -0.009259 -0.010738 0.036639
v -0.009627 -0.010738 0.036381
v -0.008787 -0.009997 0.037501
v 0.009405 -0.010738 0.036381
v 0.009591 -0.010558 0.036381
v 0.009813 -0.010330 0.036381
v 0.009998 -0.010691 0.036765
v 0.010984 -0.009259 0.037501
v -0.009259 -0.010563 0.036765
v -0.009259 -0.009997 0.037168
v -0.009997 -0.010358 0.036381
v -0.009259 -0.009514 0.037501
v 0.009998 -0.010133 0.036381
v 0.010633 -0.009997 0.036765
v 0.011481 -0.008693 0.037500
v 0.011481 -0.008690 0.037501
v -0.009812 -0.009997 0.036765
v -0.009997 -0.009997 0.036629
v -0.010329 -0.009997 0.036381
v -0.009492 -0.009256 0.037501
v -0.009492 -0.009259 0.037500
v 0.010122 -0.009997 0.036381
v 0.010301 -0.009795 0.036381
v 0.010739 -0.009872 0.036765
v 0.011624 -0.008518 0.037501
v -0.010739 -0.009512 0.036381
v -0.009997 -0.009259 0.037117
v -0.009997 -0.008646 0.037501
v 0.010456 -0.009612 0.036381
v 0.010506 -0.009551 0.036381
v 0.010745 -0.009259 0.036381
v 0.011228 -0.009259 0.036765
v 0.012183 -0.007778 0.037501
v -0.010452 -0.009259 0.036765
v -0.010739 -0.009259 0.036541
v -0.010941 -0.009259 0.036381
v -0.010101 -0.008516 0.037501
v -0.010101 -0.008518 0.037500
v 0.010973 -0.008957 0.036381
v 0.011155 -0.008704 0.036381
v 0.011481 -0.008907 0.036765
v 0.012672 -0.007037 0.037501
v 0.011748 -0.008518 0.036765
v -0.010739 -0.008518 0.036986
v -0.011202 -0.008904 0.036381
v -0.010624 -0.007775 0.037501
v -0.010624 -0.007778 0.037500
v 0.011287 -0.008518 0.036381
v 0.011481 -0.008518 0.036540
v 0.012672 -0.007037 0.037500
v 0.012961 -0.006540 0.037500
v 0.012961 -0.006537 0.037501
v 0.011585 -0.008063 0.036381
v 0.012206 -0.007778 0.036765
v -0.011008 -0.008518 0.036765
v -0.011475 -0.008518 0.036381
v -0.010739 -0.007594 0.037501
v -0.010739 -0.007778 0.037404
v -0.011480 -0.008510 0.036381
v 0.011481 -0.008224 0.036381
v 0.013099 -0.006296 0.037500
v 0.013099 -0.006296 0.037501
v 0.011759 -0.007778 0.036381
v 0.011826 -0.007661 0.036381
v 0.011989 -0.007375 0.036381
v 0.012172 -0.007037 0.036381
v 0.012220 -0.007037 0.036424
v 0.012602 -0.007037 0.036765
v -0.011076 -0.007037 0.037501
v -0.011480 -0.007778 0.036777
v -0.011702 -0.008163 0.036381
v 0.013472 -0.005555 0.037500
v 0.013475 -0.005544 0.037501
v 0.012383 -0.006607 0.036381
v 0.012529 -0.006296 0.036381
v 0.012947 -0.006296 0.036765
v -0.011466 -0.006296 0.037501
v -0.011480 -0.007037 0.037148
v -0.011941 -0.007778 0.036381
v 0.013703 -0.005025 0.037500
v 0.013703 -0.005022 0.037501
v 0.012692 -0.005908 0.036381
v 0.012961 -0.005555 0.036502
v 0.013242 -0.005555 0.036765
v 0.013793 -0.004814 0.037500
v -0.012222 -0.007037 0.036493
v -0.011480 -0.006265 0.037501
v -0.012222 -0.006296 0.036817
v -0.012520 -0.006682 0.036381
v -0.012222 -0.007270 0.036381
v 0.013793 -0.004814 0.037501
v 0.012832 -0.005555 0.036381
v 0.012961 -0.005186 0.036381
v 0.013090 -0.004814 0.036381
v 0.013489 -0.004814 0.036765
v 0.014068 -0.004074 0.037500
v -0.012345 -0.007037 0.036381
v -0.011798 -0.005555 0.037501
v -0.012697 -0.006296 0.036381
v 0.014062 -0.004082 0.037501
v 0.013206 -0.004415 0.036381
v 0.013301 -0.004074 0.036381
v 0.013694 -0.004074 0.036765
v 0.013703 -0.004074 0.036779
v 0.014295 -0.003333 0.037500
v 0.014295 -0.003333 0.037501
v 0.014065 -0.004074 0.037501
v -0.012076 -0.004814 0.037501
v -0.012222 -0.005555 0.037107
v -0.012961 -0.005647 0.036381
v 0.013394 -0.003671 0.036381
v 0.013703 -0.004040 0.036765
v 0.014444 -0.002756 0.037500
v 0.014301 -0.003313 0.037501
v -0.012222 -0.004346 0.037501
v -0.012222 -0.004814 0.037362
v -0.013143 -0.005139 0.036381
v -0.012997 -0.005555 0.036381
v -0.012972 -0.005619 0.036381
v 0.013467 -0.003333 0.036381
v 0.013703 -0.003333 0.036612
v 0.013857 -0.003333 0.036765
v 0.014483 -0.002592 0.037500
v 0.014483 -0.002592 0.037501
v 0.014444 -0.002753 0.037501
v -0.012303 -0.004071 0.037501
v -0.013250 -0.004814 0.036381
v -0.012961 -0.004814 0.036658
v -0.012848 -0.004814 0.036765
v 0.013593 -0.002592 0.036381
v 0.013703 -0.002592 0.036489
v 0.013981 -0.002592 0.036765
v 0.014632 -0.001851 0.037500
v 0.014627 -0.001868 0.037501
v -0.012486 -0.003333 0.037501
v -0.013064 -0.004074 0.036765
v -0.013354 -0.004459 0.036381
v 0.013677 -0.001851 0.036381
v 0.013703 -0.001851 0.036406
v 0.014062 -0.001851 0.036765
v 0.014739 -0.001110 0.037500
v 0.014739 -0.001113 0.037501
v 0.014630 -0.001851 0.037501
v -0.012621 -0.002592 0.037501
v -0.013626 -0.003333 0.036381
v -0.013460 -0.004074 0.036381
v 0.013722 -0.001110 0.036381
v 0.014104 -0.001110 0.036765
v 0.014809 -0.000370 0.037500
v 0.014809 -0.000370 0.037501
v -0.012711 -0.001851 0.037501
v -0.013750 -0.002592 0.036381
v -0.013736 -0.002678 0.036381
v 0.013725 -0.000411 0.036381
v 0.014110 -0.000370 0.036765
v 0.014444 -0.000370 0.037115
v 0.014809 0.000368 0.037500
v 0.014809 0.000368 0.037501
v -0.012758 -0.001110 0.037501
v -0.013702 -0.001851 0.036511
v -0.013812 -0.002051 0.036381
v 0.013725 -0.000370 0.036381
v 0.013703 0.000113 0.036381
v 0.014444 0.000368 0.037133
v 0.014739 0.001109 0.037500
v 0.014739 0.001109 0.037501
v -0.012764 -0.000372 0.037501
v -0.013876 -0.001110 0.036381
v -0.013862 -0.001355 0.036381
v -0.013831 -0.001851 0.036381
v 0.013691 0.000343 0.036381
v 0.013703 0.000368 0.036393
v 0.014444 0.001109 0.037205
v 0.014632 0.001850 0.037500
v 0.014630 0.001850 0.037501
v -0.012764 0.000368 0.037501
v -0.013702 -0.000370 0.036559
v -0.013879 -0.000619 0.036381
v 0.013630 0.000962 0.036381
v 0.013703 0.001109 0.036469
v 0.014444 0.001850 0.037314
v 0.014444 0.002591 0.037460
v 0.014483 0.002591 0.037500
v 0.014483 0.002591 0.037501
v -0.012758 0.001109 0.037501
v -0.013879 -0.000370 0.036381
v 0.013613 0.001109 0.036381
v 0.013540 0.001578 0.036381
v 0.013703 0.001850 0.036584
v 0.013731 0.002591 0.036765
v 0.014444 0.002755 0.037500
v 0.013419 0.002219 0.036381
v 0.014444 0.002752 0.037501
v -0.012711 0.001850 0.037501
v -0.013845 0.000368 0.036381
v 0.013495 0.001850 0.036381
v 0.014295 0.003332 0.037500
v 0.013703 0.002591 0.036737
v 0.014295 0.003332 0.037501
v 0.013335 0.002591 0.036381
v -0.012621 0.002591 0.037501
v -0.013769 0.001109 0.036381
v 0.014068 0.004072 0.037500
v 0.013242 0.002946 0.036381
v 0.013703 0.003332 0.036928
v 0.014065 0.004072 0.037501
v -0.012486 0.003332 0.037501
v -0.013654 0.001850 0.036381
v 0.013793 0.004813 0.037500
v 0.013793 0.004813 0.037501
v 0.013132 0.003332 0.036381
v 0.013703 0.004072 0.037155
v -0.012303 0.004078 0.037501
v -0.013494 0.002591 0.036381
v -0.013550 0.002336 0.036381
v 0.013290 0.004072 0.036765
v 0.013703 0.004813 0.037416
v 0.013703 0.005027 0.037500
v 0.013703 0.005024 0.037501
v 0.012927 0.003942 0.036381
v -0.012222 0.004350 0.037501
v -0.013292 0.003332 0.036381
v -0.013326 0.003215 0.036381
v -0.013393 0.002976 0.036381
v -0.013416 0.002896 0.036381
v 0.012961 0.004072 0.036457
v 0.012880 0.004072 0.036381
v 0.012961 0.004813 0.036731
v 0.013472 0.005554 0.037500
v 0.013472 0.005554 0.037501
v -0.012076 0.004813 0.037501
v -0.013045 0.004072 0.036381
v 0.012824 0.004211 0.036381
v 0.012579 0.004813 0.036381
v 0.013099 0.006295 0.037500
v 0.012961 0.005554 0.037038
v 0.013099 0.006295 0.037501
v -0.011801 0.005548 0.037501
v -0.012961 0.004286 0.036381
v 0.012234 0.005543 0.036381
v 0.012228 0.005554 0.036381
v 0.012961 0.006295 0.037378
v 0.012961 0.006542 0.037500
v 0.012961 0.006539 0.037501
v -0.011469 0.006295 0.037501
v -0.012750 0.004813 0.036381
v -0.012851 0.004564 0.036381
v 0.012259 0.006295 0.036765
v 0.011815 0.006295 0.036381
v 0.012672 0.007036 0.037500
v 0.012672 0.007036 0.037501
v -0.011079 0.007036 0.037501
v -0.012399 0.005554 0.036381
v -0.012520 0.005310 0.036381
v -0.012660 0.005010 0.036381
v 0.012220 0.007036 0.037116
v 0.011481 0.006822 0.036381
v 0.012220 0.007724 0.037500
v 0.012220 0.007724 0.037501
v -0.011899 0.006453 0.036381
v -0.011994 0.006295 0.036381
v -0.012135 0.006045 0.036381
v -0.012222 0.005890 0.036381
v -0.010739 0.007596 0.037501
v 0.011481 0.007036 0.036498
v 0.011338 0.007036 0.036381
v 0.012183 0.007776 0.037500
v 0.012183 0.007776 0.037501
v -0.011725 0.006733 0.036381
v -0.010626 0.007776 0.037501
v 0.011082 0.007391 0.036381
v 0.011481 0.007776 0.036929
v 0.011624 0.008517 0.037500
v 0.011624 0.008517 0.037501
v -0.011525 0.007036 0.036381
v -0.010101 0.008517 0.037501
v -0.011480 0.007102 0.036381
v 0.011273 0.007776 0.036765
v 0.010787 0.007776 0.036381
v 0.011481 0.008517 0.037386
v 0.011481 0.008692 0.037500
v 0.011481 0.008692 0.037501
v -0.010983 0.007776 0.036381
v -0.011098 0.007627 0.036381
v -0.011278 0.007385 0.036381
v -0.009997 0.008648 0.037501
v 0.010734 0.007843 0.036381
v 0.010739 0.008517 0.036820
v 0.010984 0.009258 0.037500
v 0.010984 0.009258 0.037501
v -0.010739 0.008076 0.036381
v -0.009492 0.009258 0.037501
v 0.010489 0.008132 0.036381
v 0.010147 0.008517 0.036381
v 0.010739 0.009258 0.037319
v 0.010739 0.009516 0.037500
v 0.010739 0.009516 0.037501
v -0.010357 0.008517 0.036381
v -0.009259 0.009516 0.037501
v 0.009998 0.008673 0.036381
v 0.009804 0.008872 0.036381
v 0.010248 0.009999 0.037501
v 0.009998 0.009222 0.036765
v 0.009998 0.009258 0.036791
v -0.009997 0.008895 0.036381
v -0.008784 0.009999 0.037501
v 0.009403 0.009258 0.036381
v 0.009961 0.009258 0.036765
v 0.009998 0.009999 0.037330
v 0.009998 0.010226 0.037500
v 0.009998 0.010226 0.037501
v -0.009627 0.009258 0.036381
v -0.008517 0.010254 0.037501
v 0.009234 0.009411 0.036381
v 0.009388 0.010740 0.037500
v 0.009256 0.009999 0.036841
v 0.009388 0.010740 0.037501
v -0.009259 0.009594 0.036381
v -0.007955 0.010740 0.037501
v -0.007955 0.010740 0.037500
v 0.008998 0.009613 0.036381
v 0.009136 0.009999 0.036765
v 0.008518 0.010004 0.036381
v 0.009256 0.010740 0.037417
v 0.009256 0.010842 0.037500
v 0.009256 0.010842 0.037501
v -0.008747 0.010018 0.036381
v -0.007776 0.010887 0.037501
v 0.008518 0.010482 0.036765
v 0.007512 0.010740 0.036381
v 0.008518 0.010740 0.036972
v 0.008518 0.011381 0.037500
v 0.008518 0.011381 0.037501
v -0.008517 0.010196 0.036381
v -0.007037 0.011433 0.037501
v -0.007037 0.011433 0.037500
v 0.007361 0.010848 0.036381
v 0.008366 0.011483 0.037501
v -0.008335 0.010329 0.036381
v -0.006961 0.011483 0.037501
v -0.007742 0.010740 0.036381
v -0.007776 0.010717 0.036381
v -0.008085 0.010509 0.036381
v 0.006319 0.011480 0.036381
v 0.007776 0.011849 0.037500
v 0.007776 0.011849 0.037501
v -0.006295 0.011905 0.037501
v -0.006295 0.011905 0.037500
v -0.007037 0.011164 0.036381
v 0.007108 0.012221 0.037500
v 0.005908 0.011708 0.036381
v 0.007108 0.012221 0.037501
v -0.005728 0.012221 0.037501
v -0.005728 0.012221 0.037500
v -0.005554 0.012316 0.037501
v -0.006439 0.011480 0.036381
v 0.007035 0.012260 0.037500
v 0.005167 0.012058 0.036381
v 0.006296 0.012612 0.037500
v 0.007035 0.012260 0.037501
v -0.004812 0.012665 0.037500
v -0.005944 0.011719 0.036381
v -0.006295 0.011553 0.036381
v -0.004812 0.012665 0.037501
v 0.005555 0.012918 0.037501
v 0.004425 0.012352 0.036381
v 0.006276 0.012621 0.037501
v 0.006296 0.012612 0.037501
v -0.004074 0.012965 0.037501
v -0.004801 0.012221 0.036381
v -0.004826 0.012210 0.036381
v 0.005425 0.012962 0.037501
v 0.003333 0.012679 0.036381
v 0.004813 0.013170 0.037500
v -0.003332 0.013212 0.037501
v -0.003332 0.013212 0.037500
v -0.004430 0.012368 0.036381
v 0.004813 0.013170 0.037501
v 0.004072 0.013381 0.037501
v 0.002591 0.012854 0.036381
v -0.002591 0.013417 0.037501
v -0.003720 0.012601 0.036381
v 0.003333 0.013547 0.037500
v 0.003333 0.013547 0.037501
v 0.002204 0.012940 0.036381
v -0.001849 0.013575 0.037501
v -0.001849 0.013575 0.037500
v -0.002978 0.012796 0.036381
v 0.002591 0.013672 0.037501
v 0.001465 0.013048 0.036381
v -0.001116 0.013692 0.037501
v -0.001976 0.012976 0.036381
v -0.002060 0.012962 0.036381
v -0.002860 0.012818 0.036381
v 0.002325 0.013703 0.037501
v 0.001108 0.013070 0.036381
v 0.001850 0.013756 0.037500
v -0.001015 0.013703 0.037501
v -0.001478 0.013051 0.036381
v 0.001850 0.013756 0.037501
v 0.001108 0.013800 0.037500
v 0.000372 0.013112 0.036381
v -0.000369 0.013769 0.037501
v -0.000757 0.013112 0.036381
v 0.001108 0.013800 0.037501
v 0.000372 0.013805 0.037501
v -0.000369 0.013115 0.036381
f 1 2 3
f 1 3 4
f 1 4 5
f 1 5 6
f 1 6 7
f 1 7 8
f 1 8 2
f 2 8 17
f 2 17 24
f 2 24 29
f 2 29 36
f 2 36 45
f 2 45 44
f 2 44 52
f 2 52 61
f 2 61 71
f 2 71 79
f 2 79 88
f 2 88 97
f 2 97 104
f 2 104 113
f 2 113 120
f 2 120 129
f 2 129 138
f 2 138 146
f 2 146 153
f 2 153 163
f 2 163 172
f 2 172 183
f 2 183 186
f 2 186 198
f 2 198 206
f 2 206 217
f 2 217 224
f 2 224 216
f 2 216 226
f 2 226 237
f 2 237 246
f 2 246 245
f 2 245 244
f 2 244 254
f 2 254 264
f 2 264 273
f 2 273 272
f 2 272 280
f 2 280 279
f 2 279 288
f 2 288 297
f 2 297 296
f 2 296 295
f 2 295 305
f 2 305 313
f 2 313 322
f 2 322 329
f 2 329 335
f 2 335 342
f 2 342 341
f 2 341 352
f 2 352 351
f 2 351 350
f 2 350 349
f 2 349 359
f 2 359 366
f 2 366 374
f 2 374 373
f 2 373 382
f 2 382 381
f 2 381 380
f 2 380 390
f 2 390 389
f 2 389 388
f 2 388 387
f 2 387 396
f 2 396 402
f 2 402 404
f 2 404 412
f 2 412 411
f 2 411 410
f 2 410 418
f 2 418 425
f 2 425 432
f 2 432 439
f 2 439 445
f 2 445 454
f 2 454 461
f 2 461 466
f 2 466 470
f 2 470 469
f 2 469 468
f 2 468 476
f 2 476 483
f 2 483 490
f 2 490 489
f 2 489 498
f 2 498 497
f 2 497 504
f 2 504 509
f 2 509 515
f 2 515 521
f 2 521 520
f 2 520 519
f 2 519 526
f 2 526 531
f 2 531 534
f 2 534 529
f 2 529 523
f 2 523 517
f 2 517 512
f 2 512 507
f 2 507 500
f 2 500 493
f 2 493 485
f 2 485 478
f 2 478 471
f 2 471 464
f 2 464 457
f 2 457 450
f 2 450 448
f 2 448 441
f 2 441 434
f 2 434 428
f 2 428 427
f 2 427 421
f 2 421 420
f 2 420 414
f 2 414 406
f 2 406 398
f 2 398 393
f 2 393 384
f 2 384 376
f 2 376 368
f 2 368 367
f 2 367 361
f 2 361 360
f 2 360 354
f 2 354 347
f 2 347 338
f 2 338 331
f 2 331 327
f 2 327 319
f 2 319 323
f 2 323 315
f 2 315 314
f 2 314 306
f 2 306 298
f 2 298 290
f 2 290 289
f 2 289 281
f 2 281 274
f 2 274 265
f 2 265 257
f 2 257 247
f 2 247 238
f 2 238 229
f 2 229 228
f 2 228 221
f 2 221 220
f 2 220 219
f 2 219 209
f 2 209 202
f 2 202 201
f 2 201 193
f 2 193 192
f 2 192 191
f 2 191 190
f 2 190 180
f 2 180 187
f 2 187 175
f 2 175 167
f 2 167 166
f 2 166 158
f 2 158 157
f 2 157 156
f 2 156 150
f 2 150 149
f 2 149 140
f 2 140 133
f 2 133 132
f 2 132 131
f 2 131 125
f 2 125 124
f 2 124 117
f 2 117 116
f 2 116 110
f 2 110 109
f 2 109 101
f 2 101 100
f 2 100 92
f 2 92 83
f 2 83 74
f 2 74 64
f 2 64 56
f 2 56 48
f 2 48 39
f 2 39 32
f 2 32 31
f 2 31 25
f 2 25 18
f 2 18 9
f 2 9 3
f 3 9 10
f 3 10 4
f 4 10 11
f 4 11 20
f 4 20 27
f 4 27 34
f 4 34 42
f 4 42 50
f 4 50 59
f 4 59 69
f 4 69 67
f 4 67 66
f 4 66 78
f 4 78 87
f 4 87 96
f 4 96 95
f 4 95 103
f 4 103 112
f 4 112 119
f 4 119 127
f 4 127 135
f 4 135 143
f 4 143 152
f 4 152 160
f 4 160 169
f 4 169 179
f 4 179 189
f 4 189 200
f 4 200 208
f 4 208 218
f 4 218 227
f 4 227 234
f 4 234 233
f 4 233 241
f 4 241 252
f 4 252 251
f 4 251 261
f 4 261 270
f 4 270 269
f 4 269 277
f 4 277 285
f 4 285 293
f 4 293 302
f 4 302 311
f 4 311 320
f 4 320 326
f 4 326 333
f 4 333 337
f 4 337 346
f 4 346 357
f 4 357 364
f 4 364 371
f 4 371 378
f 4 378 386
f 4 386 395
f 4 395 401
f 4 401 409
f 4 409 417
f 4 417 424
f 4 424 429
f 4 429 438
f 4 438 444
f 4 444 453
f 4 453 460
f 4 460 465
f 4 465 473
f 4 473 479
f 4 479 487
f 4 487 495
f 4 495 494
f 4 494 492
f 4 492 499
f 4 499 505
f 4 505 506
f 4 506 511
f 4 511 516
f 4 516 522
f 4 522 527
f 4 527 532
f 4 532 533
f 4 533 530
f 4 530 525
f 4 525 518
f 4 518 513
f 4 513 508
f 4 508 502
f 4 502 496
f 4 496 491
f 4 491 482
f 4 482 480
f 4 480 474
f 4 474 467
f 4 467 462
f 4 462 455
f 4 455 446
f 4 446 440
f 4 440 433
f 4 433 426
f 4 426 419
f 4 419 413
f 4 413 403
f 4 403 397
f 4 397 391
f 4 391 379
f 4 379 372
f 4 372 365
f 4 365 358
f 4 358 348
f 4 348 340
f 4 340 334
f 4 334 328
f 4 328 321
f 4 321 312
f 4 312 303
f 4 303 294
f 4 294 286
f 4 286 278
f 4 278 271
f 4 271 262
f 4 262 253
f 4 253 242
f 4 242 235
f 4 235 225
f 4 225 214
f 4 214 204
f 4 204 196
f 4 196 184
f 4 184 173
f 4 173 164
f 4 164 155
f 4 155 147
f 4 147 139
f 4 139 130
f 4 130 121
f 4 121 114
f 4 114 105
f 4 105 98
f 4 98 89
f 4 89 80
f 4 80 72
f 4 72 62
f 4 62 55
f 4 55 54
f 4 54 53
f 4 53 46
f 4 46 37
f 4 37 30
f 4 30 23
f 4 23 21
f 4 21 14
f 4 14 6
f 4 6 13
f 4 13 12
f 4 12 5
f 5 12 13
f 5 13 6
f 6 14 15
f 6 15 16
f 6 16 7
f 7 16 17
f 7 17 8
f 9 18 10
f 10 18 19
f 10 19 11
f 11 19 20
f 14 21 15
f 15 22 16
f 15 21 23
f 15 23 22
f 16 22 24
f 16 24 17
f 18 25 19
f 19 25 26
f 19 26 20
f 20 26 27
f 22 23 28
f 22 28 29
f 22 29 24
f 23 30 28
f 25 31 26
f 26 32 33
f 26 33 27
f 26 31 32
f 27 33 34
f 28 30 35
f 28 35 36
f 28 36 29
f 30 37 38
f 30 38 35
f 32 39 40
f 32 40 33
f 33 40 34
f 34 40 41
f 34 41 42
f 35 38 43
f 35 43 44
f 35 44 45
f 35 45 36
f 37 46 38
f 38 46 47
f 38 47 43
f 39 48 49
f 39 49 40
f 40 49 41
f 41 49 42
f 42 49 50
f 43 47 51
f 43 51 52
f 43 52 44
f 46 53 47
f 47 53 54
f 47 54 55
f 47 55 51
f 48 56 57
f 48 57 49
f 49 58 50
f 49 57 58
f 50 58 59
f 51 55 60
f 51 60 61
f 51 61 52
f 55 62 63
f 55 63 60
f 56 64 57
f 57 64 65
f 57 65 66
f 57 66 67
f 57 67 68
f 57 68 58
f 58 68 59
f 59 68 69
f 60 63 70
f 60 70 71
f 60 71 61
f 62 72 73
f 62 73 70
f 62 70 63
f 64 74 65
f 65 74 75
f 65 75 76
f 65 76 77
f 65 77 66
f 66 77 78
f 67 69 68
f 70 73 71
f 71 73 79
f 72 80 81
f 72 81 73
f 73 81 82
f 73 82 79
f 74 83 75
f 75 83 76
f 76 84 85
f 76 85 86
f 76 86 77
f 76 83 84
f 77 86 87
f 77 87 78
f 79 82 88
f 80 89 90
f 80 90 82
f 80 82 81
f 82 90 91
f 82 91 88
f 83 92 84
f 84 92 93
f 84 93 94
f 84 94 85
f 85 95 96
f 85 96 87
f 85 87 86
f 85 94 95
f 88 91 97
f 89 98 90
f 90 98 91
f 91 98 99
f 91 99 97
f 92 100 93
f 93 100 94
f 94 100 101
f 94 101 102
f 94 102 95
f 95 102 103
f 97 99 104
f 98 105 106
f 98 106 99
f 99 106 107
f 99 107 108
f 99 108 104
f 101 109 102
f 102 110 111
f 102 111 103
f 102 109 110
f 103 111 112
f 104 108 113
f 105 114 115
f 105 115 108
f 105 108 107
f 105 107 106
f 108 115 113
f 110 116 111
f 111 116 117
f 111 117 118
f 111 118 112
f 112 118 119
f 113 115 120
f 114 121 122
f 114 122 123
f 114 123 115
f 115 123 120
f 117 124 118
f 118 125 126
f 118 126 119
f 118 124 125
f 119 126 127
f 120 123 122
f 120 122 128
f 120 128 129
f 121 130 122
f 122 130 128
f 125 131 126
f 126 131 132
f 126 132 133
f 126 133 134
f 126 134 135
f 126 135 127
f 128 130 136
f 128 136 129
f 129 137 138
f 129 136 130
f 129 130 137
f 130 139 137
f 133 140 134
f 134 140 141
f 134 141 135
f 135 141 142
f 135 142 143
f 137 139 138
f 138 139 144
f 138 144 145
f 138 145 146
f 139 147 148
f 139 148 145
f 139 145 144
f 140 149 141
f 141 149 150
f 141 150 151
f 141 151 142
f 142 152 143
f 142 151 152
f 145 148 146
f 146 148 154
f 146 154 153
f 147 155 148
f 148 155 154
f 150 156 151
f 151 156 157
f 151 157 158
f 151 158 159
f 151 159 152
f 152 159 160
f 153 154 161
f 153 161 162
f 153 162 163
f 154 155 161
f 155 164 165
f 155 165 161
f 158 166 159
f 159 167 168
f 159 168 160
f 159 166 167
f 160 168 170
f 160 170 169
f 161 165 162
f 162 165 163
f 163 165 171
f 163 171 172
f 164 173 174
f 164 174 165
f 165 174 171
f 167 175 168
f 168 175 176
f 168 176 170
f 169 177 178
f 169 178 179
f 169 170 177
f 170 176 180
f 170 180 181
f 170 181 177
f 171 182 172
f 171 174 182
f 172 182 183
f 173 184 174
f 174 184 185
f 174 185 186
f 174 186 183
f 174 183 182
f 175 187 176
f 176 187 180
f 177 181 178
f 178 188 189
f 178 189 179
f 178 181 188
f 180 190 181
f 181 190 191
f 181 191 192
f 181 192 193
f 181 193 194
f 181 194 195
f 181 195 188
f 184 196 197
f 184 197 185
f 185 197 198
f 185 198 186
f 188 199 189
f 188 195 199
f 189 199 200
f 193 201 194
f 194 201 195
f 195 201 202
f 195 202 203
f 195 203 199
f 196 204 205
f 196 205 206
f 196 206 197
f 197 206 198
f 199 207 208
f 199 208 200
f 199 203 207
f 202 209 203
f 203 209 210
f 203 210 211
f 203 211 212
f 203 212 207
f 204 213 205
f 204 214 215
f 204 215 216
f 204 216 213
f 205 213 217
f 205 217 206
f 207 212 218
f 207 218 208
f 209 219 210
f 210 219 220
f 210 220 211
f 211 221 222
f 211 222 223
f 211 223 212
f 211 220 221
f 212 223 218
f 213 216 224
f 213 224 217
f 214 225 215
f 215 225 226
f 215 226 216
f 218 223 227
f 221 228 222
f 222 228 229
f 222 229 230
f 222 230 231
f 222 231 232
f 222 232 223
f 223 232 233
f 223 233 234
f 223 234 227
f 225 235 236
f 225 236 226
f 226 236 237
f 229 238 239
f 229 239 230
f 230 239 231
f 231 239 240
f 231 240 232
f 232 240 241
f 232 241 233
f 235 242 243
f 235 243 244
f 235 244 245
f 235 245 236
f 236 245 246
f 236 246 237
f 238 247 248
f 238 248 239
f 239 248 249
f 239 249 250
f 239 250 240
f 240 250 251
f 240 251 252
f 240 252 241
f 242 253 254
f 242 254 255
f 242 255 256
f 242 256 243
f 243 256 244
f 244 256 255
f 244 255 254
f 247 257 248
f 248 257 258
f 248 258 259
f 248 259 249
f 249 259 260
f 249 260 250
f 250 260 251
f 251 260 261
f 253 262 263
f 253 263 264
f 253 264 254
f 257 265 266
f 257 266 258
f 258 266 259
f 259 267 268
f 259 268 260
f 259 266 267
f 260 268 269
f 260 269 270
f 260 270 261
f 262 271 272
f 262 272 273
f 262 273 263
f 263 273 264
f 265 274 266
f 266 274 267
f 267 274 275
f 267 275 276
f 267 276 268
f 268 276 269
f 269 276 277
f 271 278 279
f 271 279 280
f 271 280 272
f 274 281 282
f 274 282 275
f 275 282 283
f 275 283 276
f 276 283 284
f 276 284 285
f 276 285 277
f 278 286 287
f 278 287 288
f 278 288 279
f 281 289 282
f 282 289 290
f 282 290 291
f 282 291 284
f 282 284 283
f 284 291 292
f 284 292 293
f 284 293 285
f 286 294 295
f 286 295 296
f 286 296 287
f 287 296 297
f 287 297 288
f 290 298 299
f 290 299 291
f 291 300 292
f 291 299 300
f 292 300 301
f 292 301 293
f 293 301 302
f 294 303 304
f 294 304 305
f 294 305 295
f 298 306 299
f 299 306 300
f 300 306 307
f 300 307 301
f 301 308 309
f 301 309 310
f 301 310 311
f 301 311 302
f 301 307 308
f 303 312 313
f 303 313 304
f 304 313 305
f 306 314 307
f 307 314 315
f 307 315 308
f 308 315 316
f 308 316 309
f 309 317 318
f 309 318 310
f 309 316 319
f 309 319 317
f 310 318 311
f 311 318 320
f 312 321 322
f 312 322 313
f 315 323 316
f 316 323 319
f 317 324 318
f 317 319 325
f 317 325 324
f 318 324 326
f 318 326 320
f 319 327 325
f 321 328 329
f 321 329 322
f 324 330 326
f 324 325 331
f 324 331 332
f 324 332 330
f 325 327 331
f 326 330 333
f 328 334 335
f 328 335 329
f 330 336 337
f 330 337 333
f 330 332 338
f 330 338 339
f 330 339 336
f 331 338 332
f 334 340 341
f 334 341 342
f 334 342 335
f 336 339 343
f 336 343 344
f 336 344 345
f 336 345 337
f 337 345 346
f 338 347 339
f 339 347 343
f 340 348 349
f 340 349 350
f 340 350 351
f 340 351 352
f 340 352 341
f 343 347 353
f 343 353 344
f 344 353 354
f 344 354 355
f 344 355 345
f 345 356 357
f 345 357 346
f 345 355 356
f 347 354 353
f 348 358 349
f 349 358 359
f 354 360 355
f 355 360 361
f 355 361 356
f 356 362 364
f 356 364 357
f 356 361 363
f 356 363 362
f 358 365 359
f 359 365 366
f 361 367 363
f 362 363 368
f 362 368 369
f 362 369 370
f 362 370 364
f 363 367 368
f 364 370 371
f 365 372 373
f 365 373 374
f 365 374 366
f 368 375 369
f 368 376 375
f 369 375 370
f 370 375 377
f 370 377 378
f 370 378 371
f 372 379 380
f 372 380 381
f 372 381 382
f 372 382 373
f 375 376 377
f 376 383 377
f 376 384 383
f 377 383 385
f 377 385 386
f 377 386 378
f 379 387 388
f 379 388 389
f 379 389 390
f 379 390 380
f 379 391 387
f 383 384 392
f 383 392 385
f 384 393 392
f 385 394 395
f 385 395 386
f 385 392 394
f 387 391 396
f 391 397 396
f 392 393 394
f 393 398 399
f 393 399 394
f 394 399 400
f 394 400 401
f 394 401 395
f 396 397 402
f 397 403 404
f 397 404 402
f 398 405 399
f 398 406 405
f 399 405 400
f 400 405 407
f 400 407 408
f 400 408 409
f 400 409 401
f 403 410 411
f 403 411 412
f 403 412 404
f 403 413 410
f 405 406 407
f 406 414 407
f 407 414 415
f 407 415 408
f 408 415 416
f 408 416 417
f 408 417 409
f 410 413 418
f 413 419 418
f 414 420 415
f 415 420 421
f 415 421 416
f 416 421 422
f 416 422 423
f 416 423 424
f 416 424 417
f 418 419 425
f 419 426 425
f 421 427 422
f 422 427 428
f 422 428 423
f 423 429 424
f 423 428 430
f 423 430 431
f 423 431 429
f 425 426 432
f 426 433 432
f 428 434 435
f 428 435 430
f 429 431 435
f 429 435 434
f 429 434 436
f 429 436 437
f 429 437 438
f 430 435 431
f 432 433 439
f 433 440 439
f 434 441 436
f 436 441 437
f 437 442 444
f 437 444 438
f 437 441 443
f 437 443 442
f 439 440 445
f 440 446 447
f 440 447 445
f 441 448 443
f 442 443 449
f 442 449 450
f 442 450 451
f 442 451 452
f 442 452 453
f 442 453 444
f 443 448 449
f 445 447 454
f 446 455 447
f 447 455 454
f 448 450 449
f 450 456 451
f 450 457 456
f 451 456 452
f 452 456 458
f 452 458 459
f 452 459 460
f 452 460 453
f 454 455 461
f 455 462 463
f 455 463 461
f 456 457 458
f 457 464 459
f 457 459 458
f 459 464 465
f 459 465 460
f 461 463 466
f 462 467 463
f 463 467 468
f 463 468 469
f 463 469 470
f 463 470 466
f 464 471 472
f 464 472 465
f 465 472 473
f 467 474 475
f 467 475 468
f 468 475 476
f 471 477 472
f 471 478 477
f 472 477 479
f 472 479 473
f 474 480 481
f 474 481 475
f 475 481 476
f 476 481 482
f 476 482 483
f 477 478 484
f 477 484 487
f 477 487 479
f 478 485 486
f 478 486 484
f 480 482 481
f 482 488 489
f 482 489 490
f 482 490 483
f 482 491 488
f 484 486 495
f 484 495 487
f 485 492 486
f 485 493 492
f 486 494 495
f 486 492 494
f 488 496 497
f 488 497 498
f 488 498 489
f 488 491 496
f 492 493 499
f 493 500 501
f 493 501 499
f 496 502 503
f 496 503 504
f 496 504 497
f 499 501 505
f 500 506 501
f 500 507 506
f 501 506 505
f 502 508 503
f 503 508 509
f 503 509 504
f 506 507 510
f 506 510 511
f 507 512 510
f 508 513 514
f 508 514 515
f 508 515 509
f 510 512 516
f 510 516 511
f 512 517 516
f 513 518 514
f 514 518 519
f 514 519 520
f 514 520 521
f 514 521 515
f 516 517 522
f 517 523 524
f 517 524 522
f 518 525 526
f 518 526 519
f 522 524 527
f 523 528 524
f 523 529 528
f 524 528 532
f 524 532 527
f 525 530 526
f 526 530 531
f 528 529 533
f 528 533 532
f 529 534 533
f 530 533 531
f 531 533 534
