v -0.013104 -0.000084 0.033373
v -0.013076 0.000657 0.033373
v -0.013063 -0.000369 0.033032
v -0.013060 -0.001110 0.033032
v -0.013085 -0.000823 0.033373
v -0.013014 0.000493 0.033032
v -0.013025 0.000370 0.033032
v -0.013060 -0.000311 0.033032
v -0.013017 0.001284 0.033373
v -0.013014 -0.001852 0.033032
v -0.012979 -0.001852 0.033373
v -0.012963 0.000964 0.033032
v -0.012963 0.001672 0.033373
v -0.012946 0.001109 0.033032
v -0.012963 -0.002278 0.033032
v -0.012925 -0.002590 0.033032
v -0.012859 -0.002590 0.033373
v -0.012935 0.001850 0.033373
v -0.012911 0.001325 0.033032
v -0.012778 -0.003045 0.033373
v -0.012792 -0.003332 0.033032
v -0.012821 0.001850 0.033032
v -0.012797 0.002591 0.033373
v -0.012615 -0.004073 0.033032
v -0.012588 -0.003786 0.033373
v -0.012797 0.001968 0.033032
v -0.012545 0.003620 0.033373
v -0.012653 0.002591 0.033032
v -0.012426 -0.004708 0.033032
v -0.012393 -0.004815 0.033032
v -0.012350 -0.004527 0.033373
v -0.012417 0.003390 0.033032
v -0.012436 0.003333 0.033032
v -0.012325 0.004279 0.033373
v -0.012374 -0.004869 0.033032
v -0.012222 -0.005291 0.033032
v -0.012122 -0.005553 0.033032
v -0.012062 -0.005266 0.033373
v -0.012274 0.003795 0.033032
v -0.012173 0.004072 0.033032
v -0.012222 0.003940 0.033032
v -0.011840 0.005554 0.033373
v -0.011799 -0.006295 0.033032
v -0.011720 -0.006007 0.033373
v -0.011588 0.005554 0.033032
v -0.011718 0.005842 0.033373
v -0.011772 -0.006352 0.033032
v -0.011479 -0.006927 0.033032
v -0.011422 -0.007036 0.033032
v -0.011319 -0.006749 0.033373
v -0.011512 0.006296 0.033373
v -0.011241 0.006296 0.033032
v -0.010983 -0.007778 0.033032
v -0.010855 -0.007490 0.033373
v -0.011121 0.007034 0.033373
v -0.010839 0.007034 0.033032
v -0.010739 -0.008141 0.033032
v -0.010476 -0.008516 0.033032
v -0.010742 -0.007646 0.033373
v -0.010953 0.007322 0.033373
v -0.010750 0.007656 0.033373
v -0.010362 0.007781 0.033032
v -0.010240 -0.008820 0.033032
v -0.010316 -0.008229 0.033373
v -0.010671 0.007776 0.033373
v -0.010476 0.008063 0.033373
v -0.010150 0.008517 0.033373
v -0.010012 0.008263 0.033032
v -0.009998 -0.009129 0.033032
v -0.009998 -0.008612 0.033373
v -0.009998 0.008712 0.033373
v -0.009817 0.008517 0.033032
v -0.009890 -0.009258 0.033032
v -0.009966 -0.008650 0.033373
v -0.009806 0.008531 0.033032
v -0.009543 0.009259 0.033373
v -0.009817 -0.009258 0.033088
v -0.009258 -0.009955 0.033032
v -0.009692 -0.008970 0.033373
v -0.009272 0.009160 0.033032
v -0.009258 0.009573 0.033373
v -0.009440 -0.009258 0.033373
v -0.009215 -0.009999 0.033032
v -0.009014 -0.009712 0.033373
v -0.009258 -0.009457 0.033373
v -0.009182 0.009259 0.033032
v -0.008841 0.009997 0.033373
v -0.008518 -0.010199 0.033373
v -0.008727 -0.009999 0.033373
v -0.008518 -0.010658 0.033032
v -0.009171 0.009270 0.033032
v -0.008518 0.010304 0.033373
v -0.008521 0.009924 0.033032
v -0.008230 -0.010453 0.033373
v -0.008423 -0.010741 0.033032
v -0.008336 -0.010741 0.033088
v -0.007853 0.010512 0.033032
v -0.008439 0.009997 0.033032
v -0.008016 0.010739 0.033373
v -0.007894 -0.010741 0.033373
v -0.007778 -0.011266 0.033032
v -0.007778 -0.011195 0.033088
v -0.007834 0.010528 0.033032
v -0.007778 0.010936 0.033373
v -0.007778 -0.010834 0.033373
v -0.007406 -0.011537 0.033032
v -0.007390 -0.011479 0.033088
v -0.007300 -0.011192 0.033373
v -0.007580 0.010725 0.033032
v -0.007034 0.011480 0.033373
v -0.007034 0.011480 0.033373
v -0.007034 -0.011794 0.033032
v -0.007034 -0.011479 0.033294
v -0.007034 -0.011384 0.033373
v -0.007034 0.011122 0.033032
v -0.006590 0.011768 0.033373
v -0.006487 0.011480 0.033032
v -0.006926 -0.011457 0.033373
v -0.006397 -0.012193 0.033032
v -0.006264 -0.011876 0.033373
v -0.006294 0.011951 0.033373
v -0.006294 0.011601 0.033032
v -0.006351 -0.012221 0.033032
v -0.006294 -0.012221 0.033061
v -0.006164 -0.011933 0.033373
v -0.006281 0.011609 0.033032
v -0.005961 0.012140 0.033373
v -0.006294 -0.012254 0.033032
v -0.006226 -0.012292 0.033032
v -0.005646 -0.012221 0.033373
v -0.005554 0.012014 0.033032
v -0.005809 0.012222 0.033373
v -0.005554 -0.012270 0.033373
v -0.005554 -0.012650 0.033032
v -0.005554 0.012359 0.033373
v -0.005242 0.012509 0.033373
v -0.005120 0.012222 0.033032
v -0.004814 -0.012620 0.033373
v -0.004938 -0.012937 0.033032
v -0.004814 0.012709 0.033373
v -0.004814 0.012367 0.033032
v -0.004686 -0.012675 0.033373
v -0.004884 -0.012962 0.033032
v -0.004814 -0.012962 0.033061
v -0.004480 0.012846 0.033373
v -0.004073 0.012665 0.033032
v -0.004073 -0.012921 0.033373
v -0.004740 -0.012962 0.033088
v -0.004814 -0.012992 0.033032
v -0.004656 -0.013055 0.033032
v -0.004073 0.013004 0.033373
v -0.003333 0.012914 0.033032
v -0.004073 -0.012962 0.033335
v -0.003954 -0.012962 0.033373
v -0.004073 -0.013282 0.033032
v -0.003333 0.013253 0.033373
v -0.002593 0.013116 0.033032
v -0.003333 -0.013170 0.033373
v -0.003425 -0.013498 0.033032
v -0.002593 0.013456 0.033373
v -0.002023 0.013239 0.033032
v -0.002254 0.013529 0.033373
v -0.003333 -0.013468 0.033088
v -0.002593 -0.013375 0.033373
v -0.003333 -0.013526 0.033032
v -0.001849 0.013272 0.033032
v -0.001849 0.013614 0.033373
v -0.002679 -0.013704 0.033032
v -0.002403 -0.013416 0.033373
v -0.002593 -0.013704 0.033054
v -0.001215 0.013376 0.033032
v -0.001679 0.013642 0.033373
v -0.002593 -0.013725 0.033032
v -0.001849 -0.013534 0.033373
v -0.002373 -0.013772 0.033032
v -0.001849 -0.013881 0.033032
v -0.001849 -0.013704 0.033208
v -0.001109 0.013732 0.033373
v -0.001109 0.013445 0.033088
v -0.000369 0.013467 0.033032
v -0.001652 -0.013567 0.033373
v -0.001109 -0.013996 0.033032
v -0.001109 -0.013704 0.033323
v -0.000369 0.013809 0.033373
v 0.000298 0.013499 0.033032
v 0.000371 0.013560 0.033088
v -0.001109 -0.013652 0.033373
v -0.000453 -0.014062 0.033032
v -0.000618 -0.013704 0.033373
v -0.001036 -0.013660 0.033373
v 0.000371 0.013844 0.033373
v 0.000371 0.013502 0.033032
v 0.001039 0.013499 0.033032
v -0.000369 -0.014070 0.033032
v -0.000369 -0.013728 0.033373
v 0.001109 0.013839 0.033373
v 0.001109 0.013497 0.033032
v 0.001109 0.013554 0.033088
v 0.000371 -0.014106 0.033032
v 0.000371 -0.013764 0.033373
v 0.001849 0.013795 0.033373
v 0.001779 0.013458 0.033032
v 0.001109 -0.014100 0.033032
v 0.000502 -0.013764 0.033373
v 0.001977 0.013781 0.033373
v 0.001849 0.013510 0.033088
v 0.001849 0.013453 0.033032
v 0.001746 -0.014062 0.033032
v 0.001849 -0.014002 0.033088
v 0.001234 -0.013753 0.033373
v 0.001109 -0.013758 0.033373
v 0.002606 0.013710 0.033373
v 0.002514 0.013376 0.033032
v 0.001849 -0.014054 0.033032
v 0.002503 -0.013980 0.033032
v 0.002592 -0.013917 0.033088
v 0.002592 -0.013704 0.033302
v 0.001963 -0.013704 0.033373
v 0.001882 -0.013712 0.033373
v 0.001849 -0.013714 0.033373
v 0.003333 0.013587 0.033373
v 0.003241 0.013256 0.033032
v 0.002592 0.013423 0.033088
v 0.002592 0.013365 0.033032
v 0.002592 -0.013966 0.033032
v 0.003333 -0.013797 0.033088
v 0.003333 -0.013704 0.033180
v 0.003333 -0.013507 0.033373
v 0.002693 -0.013613 0.033373
v 0.002592 -0.013630 0.033373
v 0.004073 0.013420 0.033373
v 0.003333 0.013239 0.033032
v 0.003333 -0.013838 0.033032
v 0.003756 -0.013704 0.033088
v 0.004073 -0.013632 0.033088
v 0.003734 -0.013416 0.033373
v 0.004813 0.013212 0.033373
v 0.004073 0.013070 0.033032
v 0.004073 -0.013671 0.033032
v 0.004813 -0.013427 0.033088
v 0.004073 -0.013340 0.033373
v 0.005071 0.013127 0.033373
v 0.004813 0.012914 0.033088
v 0.004643 0.012906 0.033032
v 0.004417 -0.013575 0.033032
v 0.004813 -0.013460 0.033032
v 0.005554 -0.013176 0.033088
v 0.005079 -0.013039 0.033373
v 0.004813 -0.013129 0.033373
v 0.004488 -0.013222 0.033373
v 0.005562 0.012955 0.033373
v 0.005554 0.012594 0.033032
v 0.004813 0.012854 0.033032
v 0.005554 -0.013203 0.033032
v 0.006096 -0.012962 0.033088
v 0.005554 -0.012962 0.033290
v 0.005302 -0.012962 0.033373
v 0.006294 0.012657 0.033373
v 0.006191 0.012328 0.033032
v 0.006148 -0.012962 0.033032
v 0.006294 -0.012902 0.033032
v 0.006294 -0.012880 0.033088
v 0.006042 -0.012675 0.033373
v 0.005616 -0.012847 0.033373
v 0.005554 -0.012872 0.033373
v 0.006611 0.012509 0.033373
v 0.006294 0.012345 0.033088
v 0.006294 0.012282 0.033032
v 0.007034 -0.012549 0.033032
v 0.007034 -0.012533 0.033088
v 0.006687 -0.012385 0.033373
v 0.006294 -0.012568 0.033373
v 0.007034 0.012304 0.033373
v 0.007034 0.012222 0.033298
v 0.006554 0.012222 0.033088
v 0.006424 0.012222 0.033032
v 0.007777 -0.012144 0.033032
v 0.007620 -0.012221 0.033088
v 0.007040 -0.012212 0.033373
v 0.007034 -0.012221 0.033368
v 0.007024 -0.012221 0.033373
v 0.007140 0.012249 0.033373
v 0.006544 0.012164 0.033032
v 0.007192 0.012222 0.033373
v 0.007034 0.011984 0.033088
v 0.008518 -0.011676 0.033088
v 0.007777 -0.012133 0.033088
v 0.008518 -0.011676 0.033032
v 0.007550 -0.011933 0.033373
v 0.007034 0.011918 0.033032
v 0.007777 0.011896 0.033373
v 0.007683 0.011554 0.033032
v 0.008778 -0.011498 0.033032
v 0.008802 -0.011479 0.033088
v 0.008518 -0.011479 0.033252
v 0.008144 -0.011578 0.033373
v 0.007777 -0.011805 0.033373
v 0.007986 0.011768 0.033373
v 0.007777 0.011565 0.033088
v 0.007777 0.011499 0.033032
v 0.009258 -0.011151 0.033088
v 0.009258 -0.011143 0.033032
v 0.008716 -0.011192 0.033373
v 0.008531 -0.011323 0.033373
v 0.008439 0.011480 0.033373
v 0.007913 0.011480 0.033088
v 0.007807 0.011480 0.033032
v 0.009735 -0.010765 0.033032
v 0.009776 -0.010741 0.033088
v 0.009326 -0.010741 0.033373
v 0.009258 -0.010793 0.033373
v 0.008518 0.011428 0.033373
v 0.008518 0.011084 0.033088
v 0.008518 0.011015 0.033032
v 0.009998 -0.010535 0.033032
v 0.009998 -0.010552 0.033088
v 0.009673 -0.010453 0.033373
v 0.009079 0.011026 0.033373
v 0.008895 0.010739 0.033032
v 0.010557 -0.010024 0.033032
v 0.010603 -0.009999 0.033088
v 0.010188 -0.009999 0.033373
v 0.009998 -0.010172 0.033373
v 0.009258 0.010892 0.033373
v 0.009258 0.010739 0.033251
v 0.009258 0.010531 0.033088
v 0.009258 0.010457 0.033032
v 0.010739 -0.009835 0.033032
v 0.010739 -0.009865 0.033088
v 0.010487 -0.009712 0.033373
v 0.009415 0.010769 0.033373
v 0.009998 0.010279 0.033373
v 0.009800 0.009997 0.033032
v 0.011287 -0.009258 0.033032
v 0.011316 -0.009258 0.033088
v 0.010739 -0.009460 0.033373
v 0.010695 -0.009504 0.033373
v 0.010305 0.009997 0.033373
v 0.009998 0.009997 0.033163
v 0.009863 0.009943 0.033032
v 0.011479 -0.009025 0.033032
v 0.011479 -0.009072 0.033088
v 0.011189 -0.008970 0.033373
v 0.010931 -0.009258 0.033373
v 0.010739 0.009568 0.033373
v 0.010571 0.009259 0.033032
v 0.009998 0.009820 0.033032
v 0.009998 0.009896 0.033088
v 0.011902 -0.008514 0.033032
v 0.011937 -0.008516 0.033088
v 0.011574 -0.008516 0.033373
v 0.011479 -0.008631 0.033373
v 0.011447 -0.008670 0.033373
v 0.011479 0.008692 0.033373
v 0.011308 0.008517 0.033088
v 0.010739 0.009163 0.033088
v 0.010649 0.009259 0.033088
v 0.010625 0.009201 0.033032
v 0.012222 -0.008079 0.033032
v 0.012222 -0.008141 0.033088
v 0.011799 -0.008229 0.033373
v 0.011943 0.008063 0.033373
v 0.011883 0.007776 0.033088
v 0.011479 0.008304 0.033088
v 0.011479 0.008214 0.033032
v 0.011235 0.008517 0.033032
v 0.010739 0.009078 0.033032
v 0.012436 -0.007778 0.033032
v 0.012482 -0.007778 0.033088
v 0.012222 -0.007778 0.033304
v 0.012135 -0.007778 0.033373
v 0.012222 0.007636 0.033373
v 0.012222 0.007283 0.033088
v 0.011853 0.007718 0.033032
v 0.011813 0.007776 0.033032
v 0.012911 -0.007036 0.033032
v 0.012962 -0.007033 0.033088
v 0.012626 -0.007036 0.033373
v 0.012222 -0.007652 0.033373
v 0.012423 0.007322 0.033373
v 0.012385 0.007034 0.033088
v 0.012222 0.007182 0.033032
v 0.013323 -0.006295 0.033032
v 0.013377 -0.006295 0.033088
v 0.012962 -0.006462 0.033373
v 0.012797 -0.006749 0.033373
v 0.012843 0.006583 0.033373
v 0.012821 0.006296 0.033088
v 0.012317 0.007034 0.033032
v 0.012756 0.006296 0.033032
v 0.013646 -0.005630 0.033032
v 0.013703 -0.005635 0.033088
v 0.013429 -0.005553 0.033373
v 0.013055 -0.006295 0.033373
v 0.013206 0.005842 0.033373
v 0.013201 0.005554 0.033088
v 0.012962 0.006028 0.033088
v 0.012962 0.005905 0.033032
v 0.013681 -0.005553 0.033032
v 0.013703 -0.005553 0.033051
v 0.013741 -0.005553 0.033088
v 0.013703 -0.005553 0.033124
v 0.013703 -0.004869 0.033373
v 0.013518 0.005100 0.033373
v 0.013529 0.004813 0.033088
v 0.013139 0.005554 0.033032
v 0.013703 -0.005496 0.033032
v 0.013944 -0.004815 0.033032
v 0.014001 -0.004815 0.033088
v 0.013722 -0.004815 0.033373
v 0.013784 0.004359 0.033373
v 0.013809 0.004072 0.033088
v 0.013703 0.004356 0.033088
v 0.013491 0.004755 0.033032
v 0.013467 0.004813 0.033032
v 0.014142 -0.004073 0.033032
v 0.014199 -0.004073 0.033088
v 0.014039 -0.003786 0.033373
v 0.014006 0.003620 0.033373
v 0.014042 0.003333 0.033088
v 0.013852 0.003749 0.033032
v 0.013749 0.004072 0.033032
v 0.013703 0.004197 0.033032
v 0.014299 -0.003332 0.033032
v 0.014356 -0.003332 0.033088
v 0.014210 -0.003045 0.033373
v 0.014185 0.002879 0.033373
v 0.014234 0.002591 0.033088
v 0.014142 0.002720 0.033032
v 0.013982 0.003333 0.033032
v 0.014389 -0.002771 0.033032
v 0.014443 -0.002787 0.033088
v 0.014337 -0.002336 0.033373
v 0.014324 0.002137 0.033373
v 0.014383 0.001850 0.033088
v 0.014310 0.001932 0.033032
v 0.014175 0.002591 0.033032
v 0.014416 -0.002590 0.033032
v 0.014443 -0.002590 0.033058
v 0.014473 -0.002590 0.033088
v 0.014411 -0.001729 0.033373
v 0.014438 0.001109 0.033373
v 0.014495 0.001109 0.033088
v 0.014326 0.001850 0.033032
v 0.014459 -0.002213 0.033032
v 0.014554 -0.001852 0.033088
v 0.014462 -0.001110 0.033373
v 0.014484 0.000370 0.033373
v 0.014565 0.000370 0.033088
v 0.014438 0.001109 0.033032
v 0.014497 -0.001852 0.033032
v 0.014595 -0.001110 0.033088
v 0.014514 -0.001575 0.033032
v 0.014492 -0.000369 0.033373
v 0.014600 -0.000369 0.033088
v 0.014508 0.000370 0.033032
v 0.014538 -0.001110 0.033032
v 0.014541 -0.000842 0.033032
v 0.014543 -0.000369 0.033032
f 1 2 3
f 1 3 4
f 1 4 5
f 1 5 11
f 1 11 17
f 1 17 20
f 1 20 25
f 1 25 31
f 1 31 38
f 1 38 44
f 1 44 50
f 1 50 54
f 1 54 59
f 1 59 64
f 1 64 70
f 1 70 74
f 1 74 79
f 1 79 82
f 1 82 85
f 1 85 84
f 1 84 89
f 1 89 88
f 1 88 94
f 1 94 100
f 1 100 105
f 1 105 108
f 1 108 114
f 1 114 118
f 1 118 120
f 1 120 125
f 1 125 130
f 1 130 133
f 1 133 138
f 1 138 142
f 1 142 147
f 1 147 154
f 1 154 158
f 1 158 164
f 1 164 169
f 1 169 174
f 1 174 181
f 1 181 187
f 1 187 190
f 1 190 189
f 1 189 195
f 1 195 200
f 1 200 204
f 1 204 211
f 1 211 210
f 1 210 220
f 1 220 219
f 1 219 218
f 1 218 230
f 1 230 229
f 1 229 228
f 1 228 236
f 1 236 241
f 1 241 250
f 1 250 249
f 1 249 248
f 1 248 257
f 1 257 265
f 1 265 264
f 1 264 263
f 1 263 272
f 1 272 271
f 1 271 281
f 1 281 279
f 1 279 289
f 1 289 297
f 1 297 296
f 1 296 304
f 1 304 303
f 1 303 311
f 1 311 310
f 1 310 317
f 1 317 323
f 1 323 322
f 1 322 330
f 1 330 337
f 1 337 336
f 1 336 344
f 1 344 343
f 1 343 353
f 1 353 352
f 1 352 351
f 1 351 361
f 1 361 371
f 1 371 379
f 1 379 378
f 1 378 386
f 1 386 385
f 1 385 394
f 1 394 393
f 1 393 403
f 1 403 410
f 1 410 418
f 1 418 426
f 1 426 433
f 1 433 441
f 1 441 447
f 1 447 454
f 1 454 448
f 1 448 442
f 1 442 434
f 1 434 427
f 1 427 419
f 1 419 411
f 1 411 404
f 1 404 395
f 1 395 387
f 1 387 380
f 1 380 372
f 1 372 362
f 1 362 354
f 1 354 345
f 1 345 338
f 1 338 332
f 1 332 331
f 1 331 324
f 1 324 318
f 1 318 312
f 1 312 305
f 1 305 298
f 1 298 291
f 1 291 284
f 1 284 282
f 1 282 273
f 1 273 266
f 1 266 258
f 1 258 251
f 1 251 242
f 1 242 237
f 1 237 231
f 1 231 221
f 1 221 212
f 1 212 205
f 1 205 201
f 1 201 196
f 1 196 191
f 1 191 184
f 1 184 178
f 1 178 172
f 1 172 167
f 1 167 162
f 1 162 160
f 1 160 156
f 1 156 151
f 1 151 145
f 1 145 140
f 1 140 136
f 1 136 135
f 1 135 132
f 1 132 127
f 1 127 121
f 1 121 116
f 1 116 110
f 1 110 104
f 1 104 99
f 1 99 92
f 1 92 87
f 1 87 81
f 1 81 76
f 1 76 71
f 1 71 67
f 1 67 66
f 1 66 65
f 1 65 61
f 1 61 60
f 1 60 55
f 1 55 51
f 1 51 46
f 1 46 42
f 1 42 34
f 1 34 27
f 1 27 23
f 1 23 18
f 1 18 13
f 1 13 9
f 1 9 2
f 2 6 7
f 2 7 8
f 2 8 3
f 2 9 6
f 3 8 7
f 3 7 6
f 3 6 12
f 3 12 14
f 3 14 19
f 3 19 22
f 3 22 26
f 3 26 28
f 3 28 33
f 3 33 32
f 3 32 39
f 3 39 41
f 3 41 40
f 3 40 45
f 3 45 52
f 3 52 56
f 3 56 62
f 3 62 68
f 3 68 72
f 3 72 75
f 3 75 80
f 3 80 86
f 3 86 91
f 3 91 93
f 3 93 98
f 3 98 97
f 3 97 103
f 3 103 109
f 3 109 115
f 3 115 117
f 3 117 122
f 3 122 126
f 3 126 131
f 3 131 137
f 3 137 141
f 3 141 146
f 3 146 152
f 3 152 157
f 3 157 161
f 3 161 166
f 3 166 171
f 3 171 180
f 3 180 185
f 3 185 192
f 3 192 193
f 3 193 197
f 3 197 202
f 3 202 207
f 3 207 213
f 3 213 224
f 3 224 222
f 3 222 232
f 3 232 238
f 3 238 244
f 3 244 253
f 3 253 252
f 3 252 259
f 3 259 268
f 3 268 276
f 3 276 283
f 3 283 290
f 3 290 292
f 3 292 300
f 3 300 307
f 3 307 314
f 3 314 319
f 3 319 327
f 3 327 333
f 3 333 340
f 3 340 347
f 3 347 346
f 3 346 358
f 3 358 367
f 3 367 366
f 3 366 365
f 3 365 375
f 3 375 374
f 3 374 382
f 3 382 389
f 3 389 390
f 3 390 398
f 3 398 406
f 3 406 415
f 3 415 414
f 3 414 423
f 3 423 422
f 3 422 421
f 3 421 430
f 3 430 429
f 3 429 437
f 3 437 436
f 3 436 444
f 3 444 450
f 3 450 456
f 3 456 459
f 3 459 458
f 3 458 457
f 3 457 453
f 3 453 451
f 3 451 445
f 3 445 438
f 3 438 431
f 3 431 424
f 3 424 416
f 3 416 408
f 3 408 407
f 3 407 399
f 3 399 391
f 3 391 383
f 3 383 376
f 3 376 368
f 3 368 359
f 3 359 349
f 3 349 341
f 3 341 334
f 3 334 328
f 3 328 320
f 3 320 315
f 3 315 308
f 3 308 302
f 3 302 293
f 3 293 288
f 3 288 277
f 3 277 269
f 3 269 261
f 3 261 260
f 3 260 254
f 3 254 246
f 3 246 245
f 3 245 239
f 3 239 233
f 3 233 225
f 3 225 215
f 3 215 214
f 3 214 208
f 3 208 203
f 3 203 199
f 3 199 194
f 3 194 188
f 3 188 182
f 3 182 176
f 3 176 175
f 3 175 173
f 3 173 168
f 3 168 165
f 3 165 159
f 3 159 155
f 3 155 150
f 3 150 149
f 3 149 143
f 3 143 139
f 3 139 134
f 3 134 129
f 3 129 128
f 3 128 123
f 3 123 119
f 3 119 112
f 3 112 106
f 3 106 101
f 3 101 95
f 3 95 90
f 3 90 83
f 3 83 78
f 3 78 73
f 3 73 69
f 3 69 63
f 3 63 58
f 3 58 57
f 3 57 53
f 3 53 49
f 3 49 48
f 3 48 47
f 3 47 43
f 3 43 37
f 3 37 36
f 3 36 35
f 3 35 30
f 3 30 29
f 3 29 24
f 3 24 21
f 3 21 16
f 3 16 15
f 3 15 10
f 3 10 4
f 4 10 5
f 5 10 11
f 6 9 12
f 9 13 14
f 9 14 12
f 10 15 11
f 11 15 16
f 11 16 17
f 13 18 14
f 14 18 19
f 16 20 17
f 16 21 20
f 18 22 19
f 18 23 22
f 20 21 24
f 20 24 25
f 22 23 26
f 23 27 28
f 23 28 26
f 24 29 25
f 25 29 30
f 25 30 31
f 27 32 33
f 27 33 28
f 27 34 32
f 30 35 31
f 31 35 36
f 31 36 37
f 31 37 38
f 32 34 39
f 34 40 41
f 34 41 39
f 34 42 40
f 37 43 38
f 38 43 44
f 40 42 45
f 42 46 45
f 43 47 44
f 44 47 48
f 44 48 49
f 44 49 50
f 45 46 51
f 45 51 52
f 49 53 50
f 50 53 54
f 51 55 52
f 52 55 56
f 53 57 54
f 54 57 58
f 54 58 59
f 55 60 56
f 56 60 61
f 56 61 62
f 58 63 64
f 58 64 59
f 61 65 62
f 62 65 66
f 62 66 67
f 62 67 68
f 63 69 64
f 64 69 70
f 67 71 72
f 67 72 68
f 69 73 70
f 70 73 74
f 71 75 72
f 71 76 75
f 73 77 74
f 73 78 77
f 74 77 79
f 75 76 80
f 76 81 80
f 77 78 82
f 77 82 79
f 78 83 84
f 78 84 85
f 78 85 82
f 80 81 86
f 81 87 86
f 83 88 89
f 83 89 84
f 83 90 88
f 86 87 91
f 87 92 93
f 87 93 91
f 88 90 94
f 90 95 96
f 90 96 94
f 92 97 98
f 92 98 93
f 92 99 97
f 94 96 100
f 95 101 96
f 96 101 102
f 96 102 100
f 97 99 103
f 99 104 103
f 100 102 105
f 101 106 107
f 101 107 108
f 101 108 102
f 102 108 105
f 103 104 109
f 104 110 111
f 104 111 109
f 106 112 113
f 106 113 114
f 106 114 107
f 107 114 108
f 109 111 115
f 110 116 111
f 111 116 117
f 111 117 115
f 112 118 113
f 112 119 120
f 112 120 118
f 113 118 114
f 116 121 122
f 116 122 117
f 119 123 120
f 120 123 124
f 120 124 125
f 121 126 122
f 121 127 126
f 123 128 124
f 124 128 129
f 124 129 125
f 125 129 130
f 126 127 131
f 127 132 131
f 129 133 130
f 129 134 133
f 131 132 135
f 131 135 136
f 131 136 137
f 133 134 138
f 134 139 138
f 136 140 141
f 136 141 137
f 138 139 143
f 138 143 144
f 138 144 142
f 140 145 141
f 141 145 146
f 142 144 148
f 142 148 147
f 143 149 144
f 144 149 150
f 144 150 148
f 145 151 146
f 146 151 156
f 146 156 152
f 147 148 153
f 147 153 154
f 148 150 153
f 150 155 153
f 152 156 160
f 152 160 157
f 153 155 154
f 154 155 158
f 155 159 158
f 157 160 162
f 157 162 161
f 158 159 163
f 158 163 164
f 159 165 163
f 161 162 167
f 161 167 166
f 163 165 168
f 163 168 164
f 164 168 170
f 164 170 169
f 166 167 171
f 167 172 171
f 168 173 170
f 169 170 174
f 170 173 175
f 170 175 176
f 170 176 177
f 170 177 174
f 171 172 178
f 171 178 179
f 171 179 180
f 174 177 181
f 176 182 183
f 176 183 177
f 177 183 181
f 178 184 180
f 178 180 179
f 180 184 186
f 180 186 185
f 181 183 187
f 182 188 189
f 182 189 183
f 183 189 190
f 183 190 187
f 184 191 186
f 185 186 192
f 186 191 193
f 186 193 192
f 188 194 195
f 188 195 189
f 191 196 193
f 193 196 198
f 193 198 197
f 194 199 200
f 194 200 195
f 196 201 202
f 196 202 198
f 197 198 202
f 199 203 204
f 199 204 200
f 201 205 206
f 201 206 202
f 202 206 207
f 203 208 209
f 203 209 210
f 203 210 211
f 203 211 204
f 205 212 206
f 206 213 207
f 206 212 213
f 208 214 209
f 209 214 215
f 209 215 216
f 209 216 217
f 209 217 218
f 209 218 219
f 209 219 220
f 209 220 210
f 212 221 222
f 212 222 223
f 212 223 213
f 213 223 224
f 215 225 216
f 216 225 226
f 216 226 217
f 217 226 227
f 217 227 228
f 217 228 229
f 217 229 230
f 217 230 218
f 221 231 232
f 221 232 222
f 222 224 223
f 225 233 226
f 226 233 234
f 226 234 227
f 227 234 228
f 228 234 235
f 228 235 236
f 231 237 238
f 231 238 232
f 233 239 235
f 233 235 234
f 235 239 240
f 235 240 241
f 235 241 236
f 237 242 243
f 237 243 244
f 237 244 238
f 239 245 240
f 240 245 246
f 240 246 247
f 240 247 248
f 240 248 249
f 240 249 250
f 240 250 241
f 242 251 252
f 242 252 253
f 242 253 243
f 243 253 244
f 246 254 247
f 247 254 255
f 247 255 256
f 247 256 257
f 247 257 248
f 251 258 252
f 252 258 259
f 254 260 255
f 255 260 261
f 255 261 262
f 255 262 263
f 255 263 264
f 255 264 256
f 256 264 265
f 256 265 257
f 258 266 267
f 258 267 259
f 259 267 268
f 261 269 270
f 261 270 262
f 262 270 271
f 262 271 272
f 262 272 263
f 266 273 274
f 266 274 275
f 266 275 276
f 266 276 267
f 267 276 268
f 269 277 278
f 269 278 270
f 270 278 279
f 270 279 280
f 270 280 281
f 270 281 271
f 273 282 274
f 274 283 275
f 274 282 284
f 274 284 285
f 274 285 283
f 275 283 276
f 277 286 287
f 277 287 278
f 277 288 286
f 278 287 289
f 278 289 279
f 279 281 280
f 283 285 290
f 284 291 285
f 285 291 292
f 285 292 290
f 286 288 293
f 286 293 294
f 286 294 295
f 286 295 296
f 286 296 297
f 286 297 287
f 287 297 289
f 291 298 299
f 291 299 292
f 292 299 300
f 293 301 294
f 293 302 301
f 294 303 304
f 294 304 295
f 294 301 303
f 295 304 296
f 298 305 306
f 298 306 300
f 298 300 299
f 300 306 307
f 301 302 308
f 301 308 309
f 301 309 310
f 301 310 311
f 301 311 303
f 305 312 313
f 305 313 314
f 305 314 306
f 306 314 307
f 308 315 316
f 308 316 309
f 309 316 317
f 309 317 310
f 312 318 313
f 313 318 314
f 314 318 319
f 315 320 321
f 315 321 316
f 316 321 322
f 316 322 323
f 316 323 317
f 318 324 319
f 319 324 325
f 319 325 326
f 319 326 327
f 320 328 329
f 320 329 321
f 321 329 330
f 321 330 322
f 324 331 325
f 325 331 326
f 326 332 327
f 326 331 332
f 327 332 333
f 328 334 335
f 328 335 329
f 329 335 344
f 329 344 336
f 329 336 337
f 329 337 330
f 332 338 339
f 332 339 340
f 332 340 333
f 334 341 342
f 334 342 335
f 335 342 343
f 335 343 344
f 338 345 346
f 338 346 347
f 338 347 348
f 338 348 339
f 339 348 340
f 340 348 347
f 341 349 342
f 342 349 350
f 342 350 351
f 342 351 352
f 342 352 353
f 342 353 343
f 345 354 355
f 345 355 356
f 345 356 357
f 345 357 346
f 346 357 358
f 349 359 360
f 349 360 350
f 350 360 361
f 350 361 351
f 354 362 363
f 354 363 364
f 354 364 355
f 355 364 365
f 355 365 366
f 355 366 356
f 356 366 367
f 356 367 358
f 356 358 357
f 359 368 369
f 359 369 360
f 360 369 370
f 360 370 371
f 360 371 361
f 362 372 373
f 362 373 363
f 363 374 375
f 363 375 365
f 363 365 364
f 363 373 374
f 368 376 377
f 368 377 369
f 369 377 378
f 369 378 379
f 369 379 370
f 370 379 371
f 372 380 381
f 372 381 373
f 373 381 382
f 373 382 374
f 376 383 384
f 376 384 377
f 377 384 385
f 377 385 386
f 377 386 378
f 380 387 388
f 380 388 381
f 381 389 382
f 381 388 390
f 381 390 389
f 383 391 392
f 383 392 384
f 384 392 393
f 384 393 394
f 384 394 385
f 387 395 396
f 387 396 397
f 387 397 388
f 388 397 398
f 388 398 390
f 391 399 400
f 391 400 392
f 392 400 401
f 392 401 402
f 392 402 393
f 393 402 403
f 395 404 405
f 395 405 396
f 396 406 398
f 396 398 397
f 396 405 415
f 396 415 406
f 399 407 400
f 400 407 408
f 400 408 401
f 401 409 403
f 401 403 402
f 401 408 409
f 403 409 410
f 404 411 412
f 404 412 413
f 404 413 405
f 405 413 414
f 405 414 415
f 408 416 417
f 408 417 409
f 409 417 418
f 409 418 410
f 411 419 420
f 411 420 412
f 412 420 421
f 412 421 422
f 412 422 423
f 412 423 413
f 413 423 414
f 416 424 425
f 416 425 417
f 417 425 426
f 417 426 418
f 419 427 428
f 419 428 420
f 420 429 430
f 420 430 421
f 420 428 429
f 424 431 425
f 425 432 433
f 425 433 426
f 425 431 432
f 427 434 435
f 427 435 428
f 428 435 436
f 428 436 437
f 428 437 429
f 431 438 439
f 431 439 432
f 432 439 440
f 432 440 433
f 433 440 441
f 434 442 443
f 434 443 435
f 435 444 436
f 435 443 450
f 435 450 444
f 438 445 439
f 439 445 446
f 439 446 440
f 440 446 441
f 441 446 447
f 442 448 449
f 442 449 443
f 443 449 456
f 443 456 450
f 445 451 446
f 446 452 447
f 446 451 453
f 446 453 452
f 447 452 454
f 448 454 455
f 448 455 449
f 449 455 459
f 449 459 456
f 452 453 457
f 452 457 458
f 452 458 455
f 452 455 454
f 455 458 459
