v -0.014444 -0.000373 0.044152
v -0.013741 -0.000362 0.044853
v -0.014408 0.000368 0.044152
v -0.014438 -0.001110 0.044152
v -0.013738 -0.001107 0.044853
v -0.013741 -0.000373 0.044853
v -0.013706 0.000368 0.044853
v -0.013703 0.000404 0.044853
v -0.014336 0.001107 0.044152
v -0.014397 -0.001849 0.044152
v -0.013738 -0.001110 0.044853
v -0.013703 -0.001703 0.044853
v -0.013630 0.001107 0.044853
v -0.013703 0.001107 0.044781
v -0.014225 0.001849 0.044152
v -0.013703 -0.001849 0.044844
v -0.014321 -0.002555 0.044152
v -0.013693 -0.001849 0.044853
v -0.013512 0.001849 0.044853
v -0.013703 0.001849 0.044666
v -0.014072 0.002591 0.044152
v -0.013610 -0.002590 0.044853
v -0.014316 -0.002590 0.044152
v -0.013353 0.002591 0.044853
v -0.013703 0.002591 0.044513
v -0.013878 0.003332 0.044152
v -0.014198 -0.003332 0.044152
v -0.013703 -0.003332 0.044638
v -0.013484 -0.003332 0.044853
v -0.013149 0.003332 0.044853
v -0.013703 0.003332 0.044322
v -0.013703 0.003884 0.044152
v -0.014049 -0.004021 0.044152
v -0.013703 -0.004071 0.044479
v -0.013316 -0.004071 0.044853
v -0.012898 0.004071 0.044853
v -0.012961 0.004071 0.044793
v -0.013645 0.004063 0.044152
v -0.014038 -0.004071 0.044152
v -0.013857 -0.004741 0.044152
v -0.013703 -0.004810 0.044282
v -0.013105 -0.004810 0.044853
v -0.012597 0.004813 0.044853
v -0.012598 0.004813 0.044853
v -0.012961 0.004813 0.044519
v -0.013358 0.004813 0.044152
v -0.013642 0.004071 0.044152
v -0.013837 -0.004810 0.044152
v -0.013703 -0.005232 0.044152
v -0.013607 -0.005519 0.044152
v -0.012961 -0.005235 0.044853
v -0.012245 0.005555 0.044853
v -0.012961 0.005555 0.044212
v -0.013028 0.005555 0.044152
v -0.013596 -0.005552 0.044152
v -0.012961 -0.005552 0.044748
v -0.012850 -0.005552 0.044853
v -0.011832 0.006291 0.044853
v -0.011834 0.006291 0.044853
v -0.012221 0.006291 0.044519
v -0.012660 0.006258 0.044152
v -0.012929 0.005748 0.044152
v -0.013309 -0.006294 0.044152
v -0.012961 -0.006294 0.044472
v -0.012546 -0.006294 0.044853
v -0.011480 0.006848 0.044853
v -0.012221 0.007000 0.044152
v -0.012642 0.006291 0.044152
v -0.012974 -0.007035 0.044152
v -0.012221 -0.006975 0.044853
v -0.012191 -0.007035 0.044853
v -0.011357 0.007033 0.044853
v -0.011480 0.007033 0.044752
v -0.012200 0.007033 0.044152
v -0.012961 -0.007060 0.044152
v -0.012221 -0.007035 0.044826
v -0.012888 -0.007198 0.044152
v -0.012578 -0.007774 0.044152
v -0.011778 -0.007774 0.044853
v -0.010808 0.007775 0.044853
v -0.011480 0.007775 0.044321
v -0.011688 0.007775 0.044152
v -0.012149 0.007107 0.044152
v -0.012221 -0.008290 0.044152
v -0.011306 -0.008516 0.044853
v -0.011480 -0.008251 0.044853
v -0.010740 0.007860 0.044853
v -0.011449 0.008089 0.044152
v -0.012055 -0.008516 0.044152
v -0.010767 -0.009258 0.044853
v -0.011133 0.008483 0.044152
v -0.010169 0.008516 0.044853
v -0.010740 0.008516 0.044430
v -0.011448 -0.009258 0.044152
v -0.010740 -0.009291 0.044853
v -0.010740 0.008927 0.044152
v -0.009998 0.008696 0.044853
v -0.010456 0.009231 0.044152
v -0.010713 0.008958 0.044152
v -0.010748 -0.009997 0.044152
v -0.009998 -0.010157 0.044853
v -0.010144 -0.009997 0.044853
v -0.009426 0.009255 0.044853
v -0.009998 0.009255 0.044460
v -0.009998 0.009680 0.044152
v -0.010705 -0.010041 0.044152
v -0.009428 -0.010739 0.044853
v -0.009259 0.009410 0.044853
v -0.009973 0.009705 0.044152
v -0.009936 -0.010747 0.044152
v -0.009259 -0.010901 0.044853
v -0.008551 0.009997 0.044853
v -0.009259 0.009997 0.044409
v -0.009687 0.009964 0.044152
v -0.009259 -0.011284 0.044152
v -0.008518 -0.011546 0.044853
v -0.008599 -0.011480 0.044853
v -0.008518 0.010022 0.044853
v -0.008728 0.010739 0.044152
v -0.009259 0.010328 0.044152
v -0.009649 0.009997 0.044152
v -0.008992 -0.011483 0.044152
v -0.007778 -0.012109 0.044853
v -0.007777 0.010549 0.044853
v -0.008518 0.010739 0.044278
v -0.008518 0.010893 0.044152
v -0.008483 -0.011833 0.044152
v -0.007615 -0.012219 0.044853
v -0.007480 0.010739 0.044853
v -0.007777 0.010739 0.044696
v -0.007777 0.011381 0.044152
v -0.008418 -0.011875 0.044152
v -0.007039 -0.012597 0.044853
v -0.007039 0.011004 0.044853
v -0.007611 0.011478 0.044152
v -0.007743 -0.012291 0.044152
v -0.006420 -0.012961 0.044853
v -0.006297 0.011398 0.044853
v -0.007039 0.011478 0.044440
v -0.007039 0.011806 0.044152
v -0.007039 -0.012666 0.044152
v -0.006297 -0.013027 0.044853
v -0.006120 0.011478 0.044853
v -0.006289 0.012175 0.044152
v -0.006407 -0.012964 0.044152
v -0.005557 -0.013402 0.044853
v -0.005557 0.011732 0.044853
v -0.006187 0.012220 0.044152
v -0.006297 -0.013013 0.044152
v -0.005178 -0.013570 0.044853
v -0.004874 -0.013700 0.044853
v -0.004815 0.012007 0.044853
v -0.005557 0.012220 0.044399
v -0.005557 0.012484 0.044152
v -0.005557 -0.013311 0.044152
v -0.004815 -0.013725 0.044853
v -0.004874 -0.013700 0.044853
v -0.004815 -0.013725 0.044853
v -0.004138 0.012220 0.044853
v -0.004815 0.012220 0.044654
v -0.005178 0.012619 0.044152
v -0.004818 -0.013559 0.044152
v -0.004074 -0.014001 0.044853
v -0.004076 -0.013998 0.044853
v -0.004074 0.012239 0.044853
v -0.004815 0.012746 0.044152
v -0.004074 -0.013766 0.044152
v -0.003334 -0.014229 0.044853
v -0.003334 -0.014229 0.044853
v -0.003334 0.012418 0.044853
v -0.004074 0.012959 0.044156
v -0.004207 0.012925 0.044152
v -0.003334 -0.013932 0.044152
v -0.002593 -0.014420 0.044853
v -0.002593 0.012556 0.044853
v -0.003334 0.013135 0.044152
v -0.003951 0.012992 0.044152
v -0.004087 0.012959 0.044152
v -0.002593 -0.014056 0.044152
v -0.001853 -0.014566 0.044853
v -0.002487 -0.014442 0.044853
v -0.002487 -0.014442 0.044853
v -0.001853 0.012647 0.044853
v -0.002534 0.013270 0.044152
v -0.002593 0.013262 0.044152
v -0.001789 -0.014149 0.044152
v -0.001112 -0.014676 0.044853
v -0.001853 -0.014566 0.044853
v -0.000372 0.012782 0.044853
v -0.001853 0.013350 0.044152
v -0.001112 -0.014188 0.044152
v -0.000372 -0.014748 0.044853
v -0.000372 -0.014748 0.044853
v -0.000009 0.012790 0.044853
v -0.000009 0.012801 0.044853
v -0.001064 0.013403 0.044152
v -0.001039 -0.014191 0.044152
v -0.000009 -0.014764 0.044853
v -0.000009 -0.014715 0.044853
v -0.000009 0.013201 0.044392
v -0.000372 0.013405 0.044152
v -0.000372 -0.014194 0.044152
v -0.000298 -0.014194 0.044152
v -0.000009 -0.014301 0.044289
v -0.000009 0.013389 0.044152
v -0.000325 0.013405 0.044152
v -0.000009 -0.014180 0.044152
f 1 2 3
f 1 3 9
f 1 9 15
f 1 15 21
f 1 21 26
f 1 26 32
f 1 32 38
f 1 38 47
f 1 47 46
f 1 46 54
f 1 54 62
f 1 62 61
f 1 61 68
f 1 68 67
f 1 67 74
f 1 74 83
f 1 83 82
f 1 82 88
f 1 88 91
f 1 91 96
f 1 96 99
f 1 99 98
f 1 98 105
f 1 105 109
f 1 109 114
f 1 114 121
f 1 121 120
f 1 120 119
f 1 119 126
f 1 126 131
f 1 131 135
f 1 135 140
f 1 140 144
f 1 144 148
f 1 148 154
f 1 154 161
f 1 161 166
f 1 166 172
f 1 172 178
f 1 178 177
f 1 177 176
f 1 176 185
f 1 185 184
f 1 184 190
f 1 190 196
f 1 196 201
f 1 201 206
f 1 206 205
f 1 205 207
f 1 207 203
f 1 203 202
f 1 202 197
f 1 197 191
f 1 191 186
f 1 186 179
f 1 179 173
f 1 173 167
f 1 167 162
f 1 162 155
f 1 155 149
f 1 149 145
f 1 145 141
f 1 141 136
f 1 136 132
f 1 132 127
f 1 127 122
f 1 122 115
f 1 115 110
f 1 110 106
f 1 106 100
f 1 100 94
f 1 94 89
f 1 89 84
f 1 84 78
f 1 78 77
f 1 77 75
f 1 75 69
f 1 69 63
f 1 63 55
f 1 55 50
f 1 50 49
f 1 49 48
f 1 48 40
f 1 40 39
f 1 39 33
f 1 33 27
f 1 27 23
f 1 23 17
f 1 17 10
f 1 10 4
f 1 4 5
f 1 5 6
f 1 6 2
f 2 7 3
f 2 6 5
f 2 5 12
f 2 12 18
f 2 18 22
f 2 22 29
f 2 29 35
f 2 35 42
f 2 42 51
f 2 51 57
f 2 57 65
f 2 65 71
f 2 71 79
f 2 79 86
f 2 86 85
f 2 85 90
f 2 90 95
f 2 95 102
f 2 102 101
f 2 101 107
f 2 107 111
f 2 111 117
f 2 117 116
f 2 116 123
f 2 123 128
f 2 128 133
f 2 133 137
f 2 137 142
f 2 142 146
f 2 146 151
f 2 151 158
f 2 158 164
f 2 164 169
f 2 169 174
f 2 174 182
f 2 182 188
f 2 188 187
f 2 187 193
f 2 193 199
f 2 199 194
f 2 194 189
f 2 189 183
f 2 183 175
f 2 175 170
f 2 170 165
f 2 165 159
f 2 159 152
f 2 152 147
f 2 147 143
f 2 143 138
f 2 138 134
f 2 134 129
f 2 129 124
f 2 124 118
f 2 118 112
f 2 112 108
f 2 108 103
f 2 103 97
f 2 97 92
f 2 92 87
f 2 87 80
f 2 80 72
f 2 72 66
f 2 66 58
f 2 58 52
f 2 52 43
f 2 43 36
f 2 36 30
f 2 30 24
f 2 24 19
f 2 19 13
f 2 13 8
f 2 8 7
f 3 7 8
f 3 8 9
f 4 10 11
f 4 11 5
f 5 11 12
f 8 13 14
f 8 14 9
f 9 14 15
f 10 16 12
f 10 12 11
f 10 17 16
f 12 16 18
f 13 19 20
f 13 20 14
f 14 20 15
f 15 20 21
f 16 17 22
f 16 22 18
f 17 23 22
f 19 24 25
f 19 25 21
f 19 21 20
f 21 25 26
f 22 23 27
f 22 27 28
f 22 28 29
f 24 30 31
f 24 31 26
f 24 26 25
f 26 31 32
f 27 33 28
f 28 33 29
f 29 33 34
f 29 34 35
f 30 32 31
f 30 36 37
f 30 37 38
f 30 38 32
f 33 39 34
f 34 40 35
f 34 39 40
f 35 40 41
f 35 41 42
f 36 43 44
f 36 44 45
f 36 45 46
f 36 46 37
f 37 47 38
f 37 46 47
f 40 48 41
f 41 49 42
f 41 48 49
f 42 49 50
f 42 50 51
f 43 52 44
f 44 52 53
f 44 53 54
f 44 54 45
f 45 54 46
f 50 55 51
f 51 55 56
f 51 56 57
f 52 58 59
f 52 59 60
f 52 60 61
f 52 61 62
f 52 62 53
f 53 62 54
f 55 63 56
f 56 63 57
f 57 63 64
f 57 64 65
f 58 66 59
f 59 66 67
f 59 67 60
f 60 67 68
f 60 68 61
f 63 69 64
f 64 69 65
f 65 70 71
f 65 69 70
f 66 72 73
f 66 73 74
f 66 74 67
f 69 75 76
f 69 76 70
f 70 76 71
f 71 76 75
f 71 75 77
f 71 77 78
f 71 78 79
f 72 80 81
f 72 81 82
f 72 82 73
f 73 82 83
f 73 83 74
f 78 84 85
f 78 85 86
f 78 86 79
f 80 87 88
f 80 88 81
f 81 88 82
f 84 89 90
f 84 90 85
f 87 91 88
f 87 92 93
f 87 93 91
f 89 94 95
f 89 95 90
f 91 93 96
f 92 97 98
f 92 98 99
f 92 99 93
f 93 99 96
f 94 100 101
f 94 101 102
f 94 102 95
f 97 103 104
f 97 104 98
f 98 104 105
f 100 106 107
f 100 107 101
f 103 108 109
f 103 109 104
f 104 109 105
f 106 110 111
f 106 111 107
f 108 112 113
f 108 113 114
f 108 114 109
f 110 115 116
f 110 116 117
f 110 117 111
f 112 118 119
f 112 119 120
f 112 120 113
f 113 120 121
f 113 121 114
f 115 122 123
f 115 123 116
f 118 124 125
f 118 125 119
f 119 125 126
f 122 127 123
f 123 127 128
f 124 129 130
f 124 130 126
f 124 126 125
f 126 130 131
f 127 132 133
f 127 133 128
f 129 134 131
f 129 131 130
f 131 134 135
f 132 136 133
f 133 136 137
f 134 138 139
f 134 139 135
f 135 139 140
f 136 141 142
f 136 142 137
f 138 143 144
f 138 144 140
f 138 140 139
f 141 145 146
f 141 146 142
f 143 147 144
f 144 147 148
f 145 149 146
f 146 149 150
f 146 150 151
f 147 152 153
f 147 153 148
f 148 153 154
f 149 155 156
f 149 156 157
f 149 157 150
f 150 157 151
f 151 157 156
f 151 156 158
f 152 159 160
f 152 160 154
f 152 154 153
f 154 160 161
f 155 162 163
f 155 163 156
f 156 163 158
f 158 163 164
f 159 165 166
f 159 166 160
f 160 166 161
f 162 167 168
f 162 168 163
f 163 168 169
f 163 169 164
f 165 170 171
f 165 171 172
f 165 172 166
f 167 173 174
f 167 174 168
f 168 174 169
f 170 175 176
f 170 176 177
f 170 177 171
f 171 177 178
f 171 178 172
f 173 179 180
f 173 180 181
f 173 181 174
f 174 181 182
f 175 183 184
f 175 184 185
f 175 185 176
f 179 186 187
f 179 187 180
f 180 187 188
f 180 188 182
f 180 182 181
f 183 189 190
f 183 190 184
f 186 191 192
f 186 192 187
f 187 192 193
f 189 194 195
f 189 195 196
f 189 196 190
f 191 197 198
f 191 198 192
f 192 198 193
f 193 198 199
f 194 199 198
f 194 198 204
f 194 204 207
f 194 207 205
f 194 205 200
f 194 200 195
f 195 200 196
f 196 200 201
f 197 202 198
f 198 202 203
f 198 203 204
f 200 205 206
f 200 206 201
f 203 207 204
