v -0.025000 0.013699 0.024263
v -0.024814 0.014439 0.024999
v -0.024907 0.014439 0.024263
v -0.025000 0.013699 0.005149
v -0.025000 -0.013699 0.024263
v -0.012960 0.004073 0.025002
v -0.012221 0.006294 0.025002
v -0.011477 0.007775 0.025002
v -0.009999 0.009256 0.025002
v -0.007777 0.011477 0.025002
v -0.007033 0.012218 0.025002
v -0.021109 0.016666 0.024999
v -0.024814 0.014540 0.024263
v -0.024814 -0.014439 0.024999
v -0.024907 0.014439 0.005149
v -0.024941 0.012958 0.004413
v -0.025000 0.012218 0.004413
v -0.025000 -0.013699 0.005149
v -0.024907 -0.014439 0.024263
v -0.012960 -0.004073 0.025002
v -0.005555 0.012958 0.025002
v -0.001850 0.027773 0.024999
v -0.000367 0.028654 0.024263
v -0.003333 0.026943 0.024263
v -0.023698 0.015185 0.024263
v -0.024814 0.014540 0.005149
v -0.024814 -0.014540 0.024263
v -0.021109 -0.016666 0.024999
v -0.005555 -0.012941 0.025002
v -0.007777 -0.011472 0.025002
v -0.009255 -0.009996 0.025002
v -0.010738 -0.008515 0.025002
v -0.012221 -0.005553 0.025002
v -0.024814 0.014439 0.005019
v -0.024814 0.013312 0.004413
v -0.024814 0.012958 0.004249
v -0.024883 0.011477 0.003678
v -0.024966 0.009256 0.002942
v -0.025000 0.010737 0.003678
v -0.024907 -0.014439 0.005149
v -0.025000 -0.012218 0.004413
v -0.024941 -0.012958 0.004413
v -0.004072 0.013699 0.025002
v -0.000367 0.028513 0.024999
v 0.000367 0.028654 0.024263
v -0.000367 0.028654 0.005149
v -0.003333 0.026943 0.003678
v -0.023698 0.015185 0.005149
v -0.018887 0.017962 0.002942
v -0.019846 0.017407 0.002942
v -0.018554 0.018147 0.002207
v -0.023331 0.015393 0.004413
v -0.023674 0.015185 0.004413
v -0.024814 -0.014540 0.005149
v -0.023698 -0.015185 0.024263
v -0.003333 -0.026943 0.024263
v -0.000367 -0.028654 0.024263
v -0.001850 -0.027773 0.024999
v -0.003333 -0.013693 0.025002
v -0.000367 -0.028513 0.024999
v -0.024173 0.014439 0.004413
v -0.024599 0.013699 0.004413
v -0.024070 0.014607 0.004413
v -0.023331 0.012958 0.002942
v -0.021109 0.011477 0.000281
v -0.022455 0.011477 0.001471
v -0.023727 0.012218 0.002942
v -0.024550 0.012218 0.003678
v -0.024814 0.011674 0.003678
v -0.024814 0.011477 0.003593
v -0.024814 0.009822 0.002942
v -0.024814 0.009256 0.002736
v -0.024814 0.007601 0.002207
v -0.024941 0.007034 0.002207
v -0.025000 0.006294 0.002207
v -0.025000 0.008515 0.002942
v -0.024814 -0.014439 0.005019
v -0.024814 -0.013312 0.004413
v -0.025000 -0.010737 0.003678
v -0.024966 -0.009256 0.002942
v -0.024883 -0.011477 0.003678
v -0.024814 -0.012958 0.004249
v -0.000367 0.014439 0.025002
v 0.000367 0.028513 0.024999
v 0.000367 0.014445 0.025002
v 0.000367 0.028654 0.005149
v 0.001850 0.027773 0.024999
v 0.021109 0.016666 0.024999
v 0.003333 0.026943 0.024263
v -0.000367 0.028513 0.004917
v -0.001111 0.028138 0.004413
v -0.002589 0.027291 0.003678
v -0.004811 0.026085 0.002942
v -0.005555 0.025658 0.002942
v -0.010865 0.022590 0.001471
v -0.014717 0.020368 0.001471
v -0.018148 0.018147 0.001916
v -0.018148 0.017407 0.001397
v -0.018887 0.017799 0.002207
v -0.020845 0.016666 0.002942
v -0.022328 0.015926 0.003678
v -0.021848 0.016245 0.003678
v -0.015833 0.019628 0.001471
v -0.015921 0.019555 0.001471
v -0.016665 0.018927 0.001471
v -0.016709 0.018887 0.001471
v -0.022592 0.015544 0.003678
v -0.023698 -0.015185 0.005149
v -0.023674 -0.015185 0.004413
v -0.023331 -0.015393 0.004413
v -0.018554 -0.018147 0.002207
v -0.019846 -0.017407 0.002942
v -0.018887 -0.017962 0.002942
v -0.003333 -0.026943 0.003678
v -0.000367 -0.028654 0.005149
v 0.000367 -0.028654 0.024263
v -0.000367 -0.014422 0.025002
v 0.000367 -0.028513 0.024999
v 0.000367 -0.014428 0.025002
v -0.023331 0.014411 0.003678
v -0.022592 0.013699 0.002675
v -0.021633 0.012958 0.001471
v -0.022592 0.012958 0.002298
v -0.024070 0.013699 0.003952
v -0.022837 0.015185 0.003678
v -0.023331 0.014439 0.003693
v -0.022059 0.012218 0.001471
v -0.021109 0.012218 0.000646
v -0.020370 0.012218 0.000007
v -0.021109 0.010737 0.000000
v -0.021848 0.009996 0.000281
v -0.021848 0.010737 0.000600
v -0.022592 0.011202 0.001471
v -0.022592 0.011477 0.001593
v -0.023277 0.011477 0.002207
v -0.024095 0.011477 0.002942
v -0.022817 0.010737 0.001471
v -0.022592 0.009996 0.000957
v -0.024432 0.010737 0.002942
v -0.024745 0.009996 0.002942
v -0.023458 0.009256 0.001471
v -0.022592 0.008515 0.000396
v -0.023737 0.008515 0.001471
v -0.024515 0.008515 0.002207
v -0.024760 0.007775 0.002207
v -0.023331 0.007034 0.000622
v -0.024217 0.007034 0.001471
v -0.024814 0.007034 0.002044
v -0.024814 0.004488 0.001471
v -0.024878 0.004073 0.001471
v -0.024951 0.003332 0.001471
v -0.025000 0.002592 0.001471
v -0.024173 -0.014439 0.004413
v -0.024070 -0.014607 0.004413
v -0.024599 -0.013699 0.004413
v -0.023727 -0.012218 0.002942
v -0.022455 -0.011477 0.001471
v -0.021109 -0.011477 0.000281
v -0.023331 -0.012958 0.002942
v -0.025000 -0.008515 0.002942
v -0.024814 -0.009256 0.002736
v -0.024814 -0.009822 0.002942
v -0.025000 -0.006294 0.002207
v -0.024941 -0.007034 0.002207
v -0.024814 -0.007601 0.002207
v -0.024814 -0.011477 0.003593
v -0.024814 -0.011674 0.003678
v -0.024550 -0.012218 0.003678
v 0.001111 0.014445 0.025002
v 0.001850 0.014439 0.025002
v 0.004811 0.013704 0.025002
v 0.007033 0.012958 0.025002
v 0.001111 0.028138 0.004413
v 0.000367 0.028513 0.004917
v 0.003333 0.026943 0.003678
v 0.002589 0.027291 0.003678
v 0.024814 0.014439 0.024999
v 0.024814 0.014540 0.024263
v 0.023698 0.015185 0.024263
v -0.000367 0.028154 0.004413
v -0.000367 0.027773 0.004031
v -0.001111 0.026668 0.002942
v -0.001850 0.027363 0.003678
v -0.002589 0.027033 0.003412
v -0.003333 0.026477 0.002942
v -0.004072 0.026376 0.002942
v -0.006294 0.025165 0.002207
v -0.007033 0.024800 0.002207
v -0.007777 0.024374 0.002207
v -0.010738 0.022663 0.001471
v -0.010738 0.022590 0.001366
v -0.012960 0.021109 0.001077
v -0.014443 0.020368 0.001263
v -0.017512 0.018147 0.001471
v -0.016665 0.017407 0.000350
v -0.017404 0.017407 0.000869
v -0.017404 0.018248 0.001471
v -0.018887 0.017407 0.001938
v -0.017404 0.016666 0.000350
v -0.018148 0.016666 0.000891
v -0.019249 0.017407 0.002207
v -0.020370 0.015926 0.002107
v -0.021109 0.016329 0.002942
v -0.020370 0.016666 0.002572
v -0.018887 0.015185 0.000487
v -0.021417 0.015926 0.002942
v -0.021109 0.015185 0.002256
v -0.020673 0.014439 0.001471
v -0.021848 0.015185 0.002861
v -0.022592 0.015185 0.003473
v -0.013699 0.020368 0.000803
v -0.015182 0.019628 0.001069
v -0.014443 0.018887 0.000029
v -0.015182 0.018887 0.000487
v -0.015921 0.018887 0.000957
v -0.015921 0.018147 0.000396
v -0.016665 0.018887 0.001441
v -0.016665 0.018147 0.000891
v -0.022592 -0.015544 0.003678
v -0.022328 -0.015926 0.003678
v -0.021848 -0.016245 0.003678
v -0.020845 -0.016666 0.002942
v -0.018887 -0.017799 0.002207
v -0.018148 -0.017407 0.001397
v -0.018148 -0.018147 0.001916
v -0.016709 -0.018887 0.001471
v -0.016665 -0.018927 0.001471
v -0.015921 -0.019555 0.001471
v -0.015833 -0.019628 0.001471
v -0.014717 -0.020368 0.001471
v -0.010865 -0.022590 0.001471
v -0.005555 -0.025658 0.002942
v -0.004811 -0.026085 0.002942
v -0.002589 -0.027291 0.003678
v -0.001111 -0.028138 0.004413
v -0.000367 -0.028513 0.004917
v 0.000367 -0.028654 0.005149
v 0.003333 -0.026943 0.024263
v 0.021109 -0.016666 0.024999
v 0.001850 -0.027773 0.024999
v 0.007033 -0.012958 0.025002
v 0.004811 -0.013699 0.025002
v 0.001835 -0.014428 0.025002
v -0.022592 0.014209 0.002942
v -0.022592 0.014439 0.003067
v -0.020771 0.012958 0.000737
v -0.020370 0.012958 0.000396
v -0.019626 0.013699 0.000191
v -0.018887 0.014439 0.000029
v -0.018148 0.015185 0.000000
v -0.021848 0.009256 0.000000
v -0.022592 0.009256 0.000668
v -0.022592 0.010737 0.001268
v -0.023331 0.009996 0.001637
v -0.022592 0.007775 0.000144
v -0.023331 0.007775 0.000847
v -0.023987 0.007775 0.001471
v -0.023331 0.006294 0.000418
v -0.024418 0.006294 0.001471
v -0.024599 0.005553 0.001471
v -0.024755 0.004813 0.001471
v -0.024144 0.004073 0.000737
v -0.024814 0.004073 0.001397
v -0.024814 0.003332 0.001290
v -0.024814 0.002592 0.001207
v -0.024814 0.001851 0.001180
v -0.024814 0.001111 0.001160
v -0.024814 0.000370 0.001148
v -0.025000 -0.002592 0.001471
v -0.022592 -0.013699 0.002675
v -0.023331 -0.014411 0.003678
v -0.024070 -0.013699 0.003952
v -0.022592 -0.012958 0.002298
v -0.021633 -0.012958 0.001471
v -0.022837 -0.015185 0.003678
v -0.023331 -0.014439 0.003693
v -0.022592 -0.011477 0.001593
v -0.022592 -0.011202 0.001471
v -0.021848 -0.010737 0.000600
v -0.021848 -0.009996 0.000281
v -0.021109 -0.010737 0.000000
v -0.020370 -0.012218 0.000007
v -0.021109 -0.012218 0.000646
v -0.022059 -0.012218 0.001471
v -0.023458 -0.009256 0.001471
v -0.024760 -0.007775 0.002207
v -0.024515 -0.008515 0.002207
v -0.023737 -0.008515 0.001471
v -0.022592 -0.008515 0.000396
v -0.024745 -0.009996 0.002942
v -0.024951 -0.003332 0.001471
v -0.024878 -0.004073 0.001471
v -0.024814 -0.004488 0.001471
v -0.024814 -0.007034 0.002044
v -0.024217 -0.007034 0.001471
v -0.023331 -0.007034 0.000622
v -0.024095 -0.011477 0.002942
v -0.024432 -0.010737 0.002942
v -0.022592 -0.009996 0.000957
v -0.022817 -0.010737 0.001471
v -0.023277 -0.011477 0.002207
v 0.009255 0.011477 0.025002
v 0.000367 0.028154 0.004413
v 0.001850 0.027363 0.003678
v 0.001111 0.026668 0.002942
v 0.000367 0.027773 0.004031
v 0.010865 0.022590 0.001471
v 0.005555 0.025658 0.002942
v 0.004811 0.026085 0.002942
v 0.023698 0.015185 0.005149
v 0.018887 0.017962 0.002942
v 0.014717 0.020368 0.001471
v 0.004072 0.026376 0.002942
v 0.003333 0.026477 0.002942
v 0.002589 0.027033 0.003412
v 0.025000 0.013699 0.024263
v 0.024907 0.014439 0.024263
v 0.009999 0.010737 0.025002
v 0.012216 0.008515 0.025002
v 0.013699 0.006294 0.025002
v 0.014438 0.004807 0.025002
v 0.015177 0.002586 0.025002
v 0.024814 -0.014439 0.024999
v 0.024814 0.014540 0.005149
v -0.000367 0.025215 0.001471
v -0.000367 0.024480 0.000737
v -0.000367 0.024071 0.000328
v -0.001111 0.024071 0.000350
v -0.002589 0.026561 0.002942
v -0.001850 0.024413 0.000737
v -0.002589 0.025086 0.001471
v -0.003333 0.024996 0.001471
v -0.004811 0.025501 0.002207
v -0.005555 0.025350 0.002207
v -0.003333 0.024256 0.000737
v -0.004072 0.024144 0.000737
v -0.006294 0.024811 0.001853
v -0.007033 0.024217 0.001471
v -0.007508 0.024071 0.001471
v -0.007777 0.023987 0.001471
v -0.008516 0.023734 0.001471
v -0.009255 0.023442 0.001471
v -0.009999 0.023061 0.001471
v -0.011477 0.021849 0.000954
v -0.012221 0.021215 0.000737
v -0.012397 0.021109 0.000737
v -0.012960 0.020767 0.000737
v -0.015182 0.018147 0.000000
v -0.018148 0.015926 0.000396
v -0.018887 0.016711 0.001471
v -0.019626 0.016666 0.002002
v -0.019895 0.016666 0.002207
v -0.019205 0.015185 0.000737
v -0.020135 0.015185 0.001471
v -0.018887 0.015926 0.000957
v -0.019553 0.015926 0.001471
v -0.020370 0.015185 0.001659
v -0.020370 0.014865 0.001471
v -0.020370 0.014439 0.001224
v -0.020370 0.013699 0.000803
v -0.020370 0.013581 0.000737
v -0.021109 0.013794 0.001471
v -0.013582 0.020368 0.000737
v -0.013699 0.020290 0.000737
v -0.014443 0.019768 0.000737
v -0.014443 0.019628 0.000622
v -0.013699 0.019628 0.000191
v -0.012221 0.020368 0.000007
v -0.022592 -0.015185 0.003473
v -0.021848 -0.015185 0.002861
v -0.020673 -0.014439 0.001471
v -0.021109 -0.015185 0.002256
v -0.021417 -0.015926 0.002942
v -0.021109 -0.016329 0.002942
v -0.020370 -0.016666 0.002572
v -0.019249 -0.017407 0.002207
v -0.020370 -0.015926 0.002107
v -0.018887 -0.015185 0.000487
v -0.018887 -0.017407 0.001938
v -0.018148 -0.016666 0.000891
v -0.017404 -0.016666 0.000350
v -0.017512 -0.018147 0.001471
v -0.017404 -0.018248 0.001471
v -0.017404 -0.017407 0.000869
v -0.016665 -0.017407 0.000350
v -0.016665 -0.018887 0.001441
v -0.016665 -0.018147 0.000891
v -0.015921 -0.018147 0.000396
v -0.015921 -0.018887 0.000957
v -0.015182 -0.018887 0.000487
v -0.014443 -0.018887 0.000029
v -0.015182 -0.019628 0.001069
v -0.013699 -0.020368 0.000803
v -0.014443 -0.020368 0.001263
v -0.012960 -0.021109 0.001077
v -0.010738 -0.022590 0.001366
v -0.010738 -0.022663 0.001471
v -0.007777 -0.024374 0.002207
v -0.006294 -0.025165 0.002207
v -0.004072 -0.026376 0.002942
v -0.007033 -0.024800 0.002207
v -0.003333 -0.026477 0.002942
v -0.002589 -0.027033 0.003412
v -0.001850 -0.027363 0.003678
v -0.000367 -0.028154 0.004413
v -0.001111 -0.026668 0.002942
v -0.000367 -0.027773 0.004031
v 0.000367 -0.028513 0.004917
v 0.001111 -0.028138 0.004413
v 0.002589 -0.027291 0.003678
v 0.003333 -0.026943 0.003678
v 0.023698 -0.015185 0.024263
v 0.024814 -0.014540 0.024263
v 0.009255 -0.011477 0.025002
v -0.019626 0.014439 0.000622
v -0.022592 0.007034 0.000000
v -0.023331 0.004813 0.000076
v -0.023331 0.005553 0.000237
v -0.023845 0.005553 0.000737
v -0.024006 0.004813 0.000737
v -0.024070 0.003332 0.000556
v -0.024256 0.003332 0.000737
v -0.024344 0.002592 0.000737
v -0.024413 0.001851 0.000737
v -0.024457 0.001111 0.000737
v -0.024481 0.000370 0.000737
v -0.024814 -0.000370 0.001148
v -0.024814 -0.001111 0.001160
v -0.024814 -0.001851 0.001180
v -0.024814 -0.002592 0.001207
v -0.022592 -0.014209 0.002942
v -0.022592 -0.014439 0.003067
v -0.022592 -0.010737 0.001268
v -0.022592 -0.009256 0.000668
v -0.021848 -0.009256 0.000000
v -0.018148 -0.015185 0.000000
v -0.020370 -0.012958 0.000396
v -0.020771 -0.012958 0.000737
v -0.018887 -0.014439 0.000029
v -0.019626 -0.013699 0.000191
v -0.023987 -0.007775 0.001471
v -0.023331 -0.007775 0.000847
v -0.022592 -0.007775 0.000144
v -0.023331 -0.009996 0.001637
v -0.024814 -0.003332 0.001290
v -0.024814 -0.004073 0.001397
v -0.024144 -0.004073 0.000737
v -0.024755 -0.004813 0.001471
v -0.024418 -0.006294 0.001471
v -0.023331 -0.006294 0.000418
v -0.024599 -0.005553 0.001471
v 0.002589 0.026561 0.002942
v 0.001850 0.024413 0.000737
v 0.001111 0.024071 0.000350
v 0.000367 0.025215 0.001471
v 0.000367 0.024071 0.000328
v 0.000367 0.024480 0.000737
v 0.010738 0.022590 0.001366
v 0.010738 0.022663 0.001471
v 0.007777 0.024374 0.002207
v 0.012960 0.021109 0.001077
v 0.006294 0.025165 0.002207
v 0.007033 0.024800 0.002207
v 0.019846 0.017407 0.002942
v 0.018554 0.018147 0.002207
v 0.015833 0.019628 0.001471
v 0.014443 0.020368 0.001263
v 0.003333 0.024996 0.001471
v 0.005555 0.025350 0.002207
v 0.004811 0.025501 0.002207
v 0.004072 0.024144 0.000737
v 0.003333 0.024256 0.000737
v 0.002589 0.025086 0.001471
v 0.025000 0.013699 0.005149
v 0.025000 -0.013699 0.024263
v 0.024907 0.014439 0.005149
v 0.015177 -0.001851 0.025002
v 0.015148 -0.002592 0.025002
v 0.014423 -0.004813 0.025002
v 0.013689 -0.006294 0.025002
v 0.012206 -0.008515 0.025002
v 0.011472 -0.009256 0.025002
v 0.024907 -0.014439 0.024263
v 0.024814 0.014439 0.005019
v 0.023674 0.015185 0.004413
v 0.023331 0.015393 0.004413
v -0.004072 0.023330 0.000000
v -0.001850 0.024071 0.000396
v -0.002589 0.024346 0.000737
v -0.004811 0.024755 0.001471
v -0.005555 0.024598 0.001471
v -0.002589 0.024071 0.000465
v -0.003333 0.024071 0.000556
v -0.004811 0.023330 0.000076
v -0.005555 0.023846 0.000737
v -0.006294 0.024418 0.001471
v -0.006294 0.023661 0.000737
v -0.006294 0.023330 0.000418
v -0.007033 0.023330 0.000622
v -0.007777 0.023330 0.000847
v -0.007777 0.022590 0.000144
v -0.008516 0.022954 0.000737
v -0.009255 0.023330 0.001353
v -0.009999 0.022590 0.000957
v -0.011042 0.021849 0.000737
v -0.011477 0.021625 0.000737
v -0.011477 0.021109 0.000281
v -0.012960 0.020368 0.000396
v -0.010738 0.021109 0.000000
v -0.018926 0.016666 0.001471
v -0.021109 -0.013794 0.001471
v -0.020370 -0.013581 0.000737
v -0.020370 -0.013699 0.000803
v -0.020370 -0.014439 0.001224
v -0.020370 -0.014865 0.001471
v -0.020370 -0.015185 0.001659
v -0.020135 -0.015185 0.001471
v -0.019895 -0.016666 0.002207
v -0.019553 -0.015926 0.001471
v -0.018887 -0.015926 0.000957
v -0.019626 -0.016666 0.002002
v -0.018887 -0.016711 0.001471
v -0.019205 -0.015185 0.000737
v -0.018148 -0.015926 0.000396
v -0.015182 -0.018147 0.000000
v -0.012221 -0.020368 0.000007
v -0.013699 -0.019628 0.000191
v -0.014443 -0.019628 0.000622
v -0.014443 -0.019768 0.000737
v -0.013582 -0.020368 0.000737
v -0.012960 -0.020767 0.000737
v -0.013699 -0.020290 0.000737
v -0.012397 -0.021109 0.000737
v -0.012221 -0.021215 0.000737
v -0.011477 -0.021849 0.000954
v -0.009255 -0.023442 0.001471
v -0.009999 -0.023061 0.001471
v -0.006294 -0.024811 0.001853
v -0.005555 -0.025350 0.002207
v -0.008516 -0.023734 0.001471
v -0.007777 -0.023987 0.001471
v -0.007508 -0.024071 0.001471
v -0.007033 -0.024217 0.001471
v -0.003333 -0.024996 0.001471
v -0.004811 -0.025501 0.002207
v -0.004072 -0.024144 0.000737
v -0.003333 -0.024256 0.000737
v -0.002589 -0.025086 0.001471
v -0.002589 -0.026561 0.002942
v -0.001850 -0.024413 0.000737
v -0.001111 -0.024071 0.000350
v 0.000367 -0.028154 0.004413
v -0.000367 -0.025215 0.001471
v -0.000367 -0.024071 0.000328
v -0.000367 -0.024480 0.000737
v 0.000367 -0.027773 0.004031
v 0.001111 -0.026668 0.002942
v 0.001850 -0.027363 0.003678
v 0.002589 -0.027033 0.003412
v 0.003333 -0.026477 0.002942
v 0.004072 -0.026376 0.002942
v 0.004811 -0.026085 0.002942
v 0.005555 -0.025658 0.002942
v 0.010865 -0.022590 0.001471
v 0.014717 -0.020368 0.001471
v 0.018887 -0.017962 0.002942
v 0.023698 -0.015185 0.005149
v 0.024814 -0.014540 0.005149
v -0.023331 0.004073 0.000000
v -0.024070 0.002592 0.000465
v -0.024070 0.001851 0.000396
v -0.024070 0.001111 0.000350
v -0.024070 0.000370 0.000328
v -0.024481 -0.000370 0.000737
v -0.024344 -0.002592 0.000737
v -0.024457 -0.001111 0.000737
v -0.024413 -0.001851 0.000737
v -0.022592 -0.007034 0.000000
v -0.019626 -0.014439 0.000622
v -0.023331 -0.005553 0.000237
v -0.023331 -0.004813 0.000076
v -0.024256 -0.003332 0.000737
v -0.024070 -0.003332 0.000556
v -0.024006 -0.004813 0.000737
v -0.023845 -0.005553 0.000737
v 0.001850 0.024071 0.000396
v 0.004072 0.023330 0.000000
v 0.011477 0.021849 0.000954
v 0.009255 0.023442 0.001471
v 0.009999 0.023061 0.001471
v 0.012960 0.020767 0.000737
v 0.012397 0.021109 0.000737
v 0.012221 0.021215 0.000737
v 0.006294 0.024811 0.001853
v 0.008516 0.023734 0.001471
v 0.007777 0.023987 0.001471
v 0.007508 0.024071 0.001471
v 0.007033 0.024217 0.001471
v 0.021848 0.016245 0.003678
v 0.022328 0.015926 0.003678
v 0.020845 0.016666 0.002942
v 0.018887 0.017799 0.002207
v 0.018148 0.017407 0.001397
v 0.018148 0.018147 0.001916
v 0.016709 0.018887 0.001471
v 0.016665 0.018927 0.001471
v 0.015921 0.019555 0.001471
v 0.015921 0.018887 0.000957
v 0.015182 0.018887 0.000487
v 0.014443 0.018887 0.000029
v 0.015182 0.019628 0.001069
v 0.013699 0.020368 0.000803
v 0.005555 0.024598 0.001471
v 0.004811 0.024755 0.001471
v 0.003333 0.024071 0.000556
v 0.004811 0.023330 0.000076
v 0.002589 0.024071 0.000465
v 0.002589 0.024346 0.000737
v 0.025000 0.012218 0.004413
v 0.024941 0.012958 0.004413
v 0.025000 -0.013699 0.005149
v 0.024814 0.013312 0.004413
v 0.024907 -0.014439 0.005149
v 0.024599 0.013699 0.004413
v 0.024173 0.014439 0.004413
v 0.024070 0.014607 0.004413
v 0.022592 0.015544 0.003678
v -0.007033 0.022590 0.000000
v -0.005555 0.023330 0.000237
v -0.009255 0.021849 0.000000
v -0.008516 0.022590 0.000396
v -0.009255 0.022590 0.000668
v -0.009999 0.022349 0.000737
v -0.010738 0.022001 0.000737
v -0.010738 0.021849 0.000600
v -0.009999 0.021849 0.000281
v -0.018926 -0.016666 0.001471
v -0.010738 -0.021109 0.000000
v -0.011477 -0.021109 0.000281
v -0.012960 -0.020368 0.000396
v -0.011477 -0.021625 0.000737
v -0.011042 -0.021849 0.000737
v -0.009999 -0.022590 0.000957
v -0.009255 -0.023330 0.001353
v -0.006294 -0.024418 0.001471
v -0.005555 -0.023846 0.000737
v -0.005555 -0.024598 0.001471
v -0.004811 -0.024755 0.001471
v -0.008516 -0.022954 0.000737
v -0.007777 -0.022590 0.000144
v -0.007777 -0.023330 0.000847
v -0.007033 -0.023330 0.000622
v -0.006294 -0.023330 0.000418
v -0.006294 -0.023661 0.000737
v -0.003333 -0.024071 0.000556
v -0.004811 -0.023330 0.000076
v -0.002589 -0.024071 0.000465
v -0.002589 -0.024346 0.000737
v -0.001850 -0.024071 0.000396
v -0.004072 -0.023330 0.000000
v 0.000367 -0.025215 0.001471
v 0.000367 -0.024071 0.000328
v 0.000367 -0.024480 0.000737
v 0.001111 -0.024071 0.000350
v 0.002589 -0.026561 0.002942
v 0.001850 -0.024413 0.000737
v 0.002589 -0.025086 0.001471
v 0.003333 -0.024996 0.001471
v 0.004811 -0.025501 0.002207
v 0.005555 -0.025350 0.002207
v 0.006294 -0.025165 0.002207
v 0.003333 -0.024256 0.000737
v 0.004072 -0.024144 0.000737
v 0.007033 -0.024800 0.002207
v 0.007777 -0.024374 0.002207
v 0.010738 -0.022663 0.001471
v 0.010738 -0.022590 0.001366
v 0.012960 -0.021109 0.001077
v 0.014443 -0.020368 0.001263
v 0.015833 -0.019628 0.001471
v 0.018554 -0.018147 0.002207
v 0.019846 -0.017407 0.002942
v 0.023331 -0.015393 0.004413
v 0.023674 -0.015185 0.004413
v 0.024814 -0.014439 0.005019
v -0.023331 -0.004073 0.000000
v -0.024070 -0.000370 0.000328
v -0.024070 -0.001111 0.000350
v -0.024070 -0.001851 0.000396
v -0.024070 -0.002592 0.000465
v 0.007033 0.022590 0.000000
v 0.011042 0.021849 0.000737
v 0.009999 0.022590 0.000957
v 0.011477 0.021625 0.000737
v 0.009255 0.023330 0.001353
v 0.013582 0.020368 0.000737
v 0.012960 0.020368 0.000396
v 0.012221 0.020368 0.000007
v 0.011477 0.021109 0.000281
v 0.006294 0.024418 0.001471
v 0.005555 0.023846 0.000737
v 0.008516 0.022954 0.000737
v 0.007777 0.022590 0.000144
v 0.007777 0.023330 0.000847
v 0.007033 0.023330 0.000622
v 0.006294 0.023330 0.000418
v 0.006294 0.023661 0.000737
v 0.022592 0.015185 0.003473
v 0.021848 0.015185 0.002861
v 0.020673 0.014439 0.001471
v 0.021109 0.015185 0.002256
v 0.021417 0.015926 0.002942
v 0.021109 0.016329 0.002942
v 0.020370 0.015926 0.002107
v 0.018887 0.015185 0.000487
v 0.020370 0.016666 0.002572
v 0.019249 0.017407 0.002207
v 0.018887 0.017407 0.001938
v 0.018148 0.016666 0.000891
v 0.017404 0.016666 0.000350
v 0.017512 0.018147 0.001471
v 0.017404 0.018248 0.001471
v 0.017404 0.017407 0.000869
v 0.016665 0.017407 0.000350
v 0.016665 0.018887 0.001441
v 0.016665 0.018147 0.000891
v 0.015921 0.018147 0.000396
v 0.013699 0.019628 0.000191
v 0.014443 0.019628 0.000622
v 0.015182 0.018147 0.000000
v 0.014443 0.019768 0.000737
v 0.013699 0.020290 0.000737
v 0.005555 0.023330 0.000237
v 0.025000 0.010737 0.003678
v 0.024966 0.009256 0.002942
v 0.024883 0.011477 0.003678
v 0.024814 0.012958 0.004249
v 0.024941 -0.012958 0.004413
v 0.025000 -0.012218 0.004413
v 0.023727 0.012218 0.002942
v 0.022455 0.011477 0.001471
v 0.021109 0.011477 0.000281
v 0.023331 0.012958 0.002942
v 0.024814 -0.013312 0.004413
v 0.022592 0.012958 0.002298
v 0.024070 0.013699 0.003952
v 0.022592 0.013699 0.002675
v 0.023331 0.014411 0.003678
v 0.021633 0.012958 0.001471
v 0.022837 0.015185 0.003678
v 0.023331 0.014439 0.003693
v -0.009255 -0.021849 0.000000
v -0.009999 -0.021849 0.000281
v -0.010738 -0.021849 0.000600
v -0.010738 -0.022001 0.000737
v -0.009999 -0.022349 0.000737
v -0.009255 -0.022590 0.000668
v -0.008516 -0.022590 0.000396
v -0.005555 -0.023330 0.000237
v -0.007033 -0.022590 0.000000
v 0.004072 -0.023330 0.000000
v 0.001850 -0.024071 0.000396
v 0.002589 -0.024346 0.000737
v 0.004811 -0.024755 0.001471
v 0.006294 -0.024811 0.001853
v 0.005555 -0.024598 0.001471
v 0.007033 -0.024217 0.001471
v 0.007508 -0.024071 0.001471
v 0.007777 -0.023987 0.001471
v 0.008516 -0.023734 0.001471
v 0.009255 -0.023442 0.001471
v 0.002589 -0.024071 0.000465
v 0.003333 -0.024071 0.000556
v 0.004811 -0.023330 0.000076
v 0.009999 -0.023061 0.001471
v 0.011477 -0.021849 0.000954
v 0.012221 -0.021215 0.000737
v 0.012397 -0.021109 0.000737
v 0.012960 -0.020767 0.000737
v 0.013699 -0.020368 0.000803
v 0.015182 -0.019628 0.001069
v 0.014443 -0.018887 0.000029
v 0.015182 -0.018887 0.000487
v 0.015921 -0.018887 0.000957
v 0.015921 -0.019555 0.001471
v 0.018148 -0.018147 0.001916
v 0.018148 -0.017407 0.001397
v 0.018887 -0.017799 0.002207
v 0.020845 -0.016666 0.002942
v 0.022328 -0.015926 0.003678
v 0.021848 -0.016245 0.003678
v 0.016665 -0.018927 0.001471
v 0.016709 -0.018887 0.001471
v 0.022592 -0.015544 0.003678
v 0.024070 -0.014607 0.004413
v 0.024173 -0.014439 0.004413
v 0.024599 -0.013699 0.004413
v 0.009255 0.021849 0.000000
v 0.010738 0.021849 0.000600
v 0.010738 0.022001 0.000737
v 0.009999 0.022349 0.000737
v 0.009255 0.022590 0.000668
v 0.008516 0.022590 0.000396
v 0.010738 0.021109 0.000000
v 0.009999 0.021849 0.000281
v 0.022592 0.014439 0.003067
v 0.021109 0.013794 0.001471
v 0.020370 0.013581 0.000737
v 0.020370 0.013699 0.000803
v 0.019626 0.013699 0.000191
v 0.020370 0.014439 0.001224
v 0.020370 0.014865 0.001471
v 0.020370 0.015185 0.001659
v 0.020135 0.015185 0.001471
v 0.018887 0.014439 0.000029
v 0.019205 0.015185 0.000737
v 0.018148 0.015926 0.000396
v 0.018887 0.015926 0.000957
v 0.019553 0.015926 0.001471
v 0.019895 0.016666 0.002207
v 0.019626 0.016666 0.002002
v 0.018887 0.016711 0.001471
v 0.018148 0.015185 0.000000
v 0.025000 0.008515 0.002942
v 0.024814 0.009256 0.002736
v 0.024814 0.009822 0.002942
v 0.025000 0.006294 0.002207
v 0.024941 0.007034 0.002207
v 0.024814 0.007601 0.002207
v 0.024814 0.011477 0.003593
v 0.024814 0.011674 0.003678
v 0.024550 0.012218 0.003678
v 0.024814 -0.012958 0.004249
v 0.024883 -0.011477 0.003678
v 0.024966 -0.009256 0.002942
v 0.025000 -0.010737 0.003678
v 0.022592 0.011477 0.001593
v 0.022592 0.011202 0.001471
v 0.021848 0.010737 0.000600
v 0.021848 0.009996 0.000281
v 0.021109 0.010737 0.000000
v 0.020370 0.012218 0.000007
v 0.021109 0.012218 0.000646
v 0.022059 0.012218 0.001471
v 0.023331 -0.012958 0.002942
v 0.021109 -0.011477 0.000281
v 0.022455 -0.011477 0.001471
v 0.023727 -0.012218 0.002942
v 0.022592 0.014209 0.002942
v 0.007033 -0.022590 0.000000
v 0.005555 -0.023846 0.000737
v 0.006294 -0.024418 0.001471
v 0.006294 -0.023661 0.000737
v 0.006294 -0.023330 0.000418
v 0.007033 -0.023330 0.000622
v 0.007777 -0.023330 0.000847
v 0.007777 -0.022590 0.000144
v 0.008516 -0.022954 0.000737
v 0.009255 -0.023330 0.001353
v 0.009999 -0.022590 0.000957
v 0.005555 -0.023330 0.000237
v 0.011042 -0.021849 0.000737
v 0.011477 -0.021625 0.000737
v 0.011477 -0.021109 0.000281
v 0.012221 -0.020368 0.000007
v 0.012960 -0.020368 0.000396
v 0.013582 -0.020368 0.000737
v 0.013699 -0.020290 0.000737
v 0.014443 -0.019768 0.000737
v 0.014443 -0.019628 0.000622
v 0.013699 -0.019628 0.000191
v 0.015182 -0.018147 0.000000
v 0.016665 -0.017407 0.000350
v 0.015921 -0.018147 0.000396
v 0.017404 -0.018248 0.001471
v 0.017512 -0.018147 0.001471
v 0.017404 -0.017407 0.000869
v 0.018887 -0.017407 0.001938
v 0.017404 -0.016666 0.000350
v 0.018148 -0.016666 0.000891
v 0.019249 -0.017407 0.002207
v 0.020370 -0.015926 0.002107
v 0.021109 -0.016329 0.002942
v 0.020370 -0.016666 0.002572
v 0.018887 -0.015185 0.000487
v 0.021417 -0.015926 0.002942
v 0.021109 -0.015185 0.002256
v 0.020673 -0.014439 0.001471
v 0.021848 -0.015185 0.002861
v 0.022592 -0.015185 0.003473
v 0.016665 -0.018887 0.001441
v 0.016665 -0.018147 0.000891
v 0.022837 -0.015185 0.003678
v 0.023331 -0.014439 0.003693
v 0.023331 -0.014411 0.003678
v 0.022592 -0.013699 0.002675
v 0.021633 -0.012958 0.001471
v 0.022592 -0.012958 0.002298
v 0.024070 -0.013699 0.003952
v 0.020370 0.012958 0.000396
v 0.019626 0.014439 0.000622
v 0.018926 0.016666 0.001471
v 0.024760 0.007775 0.002207
v 0.024515 0.008515 0.002207
v 0.023737 0.008515 0.001471
v 0.022592 0.008515 0.000396
v 0.023458 0.009256 0.001471
v 0.024745 0.009996 0.002942
v 0.025000 0.002592 0.001471
v 0.024951 0.003332 0.001471
v 0.024878 0.004073 0.001471
v 0.024814 0.004488 0.001471
v 0.024814 0.007034 0.002044
v 0.024217 0.007034 0.001471
v 0.023331 0.007034 0.000622
v 0.024095 0.011477 0.002942
v 0.024432 0.010737 0.002942
v 0.022592 0.009996 0.000957
v 0.022817 0.010737 0.001471
v 0.023277 0.011477 0.002207
v 0.024550 -0.012218 0.003678
v 0.024814 -0.011674 0.003678
v 0.024814 -0.011477 0.003593
v 0.024814 -0.009822 0.002942
v 0.024814 -0.009256 0.002736
v 0.024814 -0.007601 0.002207
v 0.024941 -0.007034 0.002207
v 0.025000 -0.006294 0.002207
v 0.025000 -0.008515 0.002942
v 0.022592 0.010737 0.001268
v 0.022592 0.009256 0.000668
v 0.021848 0.009256 0.000000
v 0.020771 0.012958 0.000737
v 0.022059 -0.012218 0.001471
v 0.021109 -0.012218 0.000646
v 0.020370 -0.012218 0.000007
v 0.021109 -0.010737 0.000000
v 0.021848 -0.009996 0.000281
v 0.021848 -0.010737 0.000600
v 0.022592 -0.011202 0.001471
v 0.022592 -0.011477 0.001593
v 0.009255 -0.021849 0.000000
v 0.008516 -0.022590 0.000396
v 0.009255 -0.022590 0.000668
v 0.009999 -0.022349 0.000737
v 0.010738 -0.022001 0.000737
v 0.010738 -0.021849 0.000600
v 0.009999 -0.021849 0.000281
v 0.010738 -0.021109 0.000000
v 0.018148 -0.015185 0.000000
v 0.018148 -0.015926 0.000396
v 0.018887 -0.014439 0.000029
v 0.018887 -0.016711 0.001471
v 0.019626 -0.016666 0.002002
v 0.019895 -0.016666 0.002207
v 0.019205 -0.015185 0.000737
v 0.020135 -0.015185 0.001471
v 0.018887 -0.015926 0.000957
v 0.019553 -0.015926 0.001471
v 0.020370 -0.015185 0.001659
v 0.020370 -0.014865 0.001471
v 0.020370 -0.014439 0.001224
v 0.019626 -0.013699 0.000191
v 0.020370 -0.013699 0.000803
v 0.020370 -0.013581 0.000737
v 0.021109 -0.013794 0.001471
v 0.022592 -0.014439 0.003067
v 0.022592 -0.014209 0.002942
v 0.023987 0.007775 0.001471
v 0.023331 0.007775 0.000847
v 0.022592 0.007775 0.000144
v 0.023331 0.009996 0.001637
v 0.024814 0.000370 0.001148
v 0.024814 0.001111 0.001160
v 0.024814 0.001851 0.001180
v 0.024814 0.002592 0.001207
v 0.025000 -0.002592 0.001471
v 0.024814 0.003332 0.001290
v 0.024814 0.004073 0.001397
v 0.024144 0.004073 0.000737
v 0.024755 0.004813 0.001471
v 0.024599 0.005553 0.001471
v 0.024418 0.006294 0.001471
v 0.023331 0.006294 0.000418
v 0.023277 -0.011477 0.002207
v 0.024095 -0.011477 0.002942
v 0.022817 -0.010737 0.001471
v 0.022592 -0.009996 0.000957
v 0.024432 -0.010737 0.002942
v 0.024745 -0.009996 0.002942
v 0.023458 -0.009256 0.001471
v 0.022592 -0.008515 0.000396
v 0.023737 -0.008515 0.001471
v 0.024515 -0.008515 0.002207
v 0.024760 -0.007775 0.002207
v 0.023331 -0.007034 0.000622
v 0.024217 -0.007034 0.001471
v 0.024814 -0.007034 0.002044
v 0.024814 -0.004488 0.001471
v 0.024878 -0.004073 0.001471
v 0.024951 -0.003332 0.001471
v 0.022592 0.007034 0.000000
v 0.020771 -0.012958 0.000737
v 0.020370 -0.012958 0.000396
v 0.021848 -0.009256 0.000000
v 0.022592 -0.009256 0.000668
v 0.022592 -0.010737 0.001268
v 0.018926 -0.016666 0.001471
v 0.019626 -0.014439 0.000622
v 0.023331 0.005553 0.000237
v 0.023331 0.004813 0.000076
v 0.024481 0.000370 0.000737
v 0.024814 -0.000370 0.001148
v 0.024344 0.002592 0.000737
v 0.024457 0.001111 0.000737
v 0.024413 0.001851 0.000737
v 0.024814 -0.002592 0.001207
v 0.024814 -0.001851 0.001180
v 0.024814 -0.001111 0.001160
v 0.024256 0.003332 0.000737
v 0.024070 0.003332 0.000556
v 0.024006 0.004813 0.000737
v 0.023845 0.005553 0.000737
v 0.023331 -0.009996 0.001637
v 0.022592 -0.007775 0.000144
v 0.023331 -0.007775 0.000847
v 0.023987 -0.007775 0.001471
v 0.023331 -0.006294 0.000418
v 0.024418 -0.006294 0.001471
v 0.024599 -0.005553 0.001471
v 0.024755 -0.004813 0.001471
v 0.024144 -0.004073 0.000737
v 0.024814 -0.004073 0.001397
v 0.024814 -0.003332 0.001290
v 0.023331 0.004073 0.000000
v 0.022592 -0.007034 0.000000
v 0.024070 0.002592 0.000465
v 0.024070 0.000370 0.000328
v 0.024070 0.001111 0.000350
v 0.024481 -0.000370 0.000737
v 0.024070 0.001851 0.000396
v 0.024344 -0.002592 0.000737
v 0.024413 -0.001851 0.000737
v 0.024457 -0.001111 0.000737
v 0.023331 -0.004813 0.000076
v 0.023331 -0.005553 0.000237
v 0.023845 -0.005553 0.000737
v 0.024006 -0.004813 0.000737
v 0.024070 -0.003332 0.000556
v 0.024256 -0.003332 0.000737
v 0.023331 -0.004073 0.000000
v 0.024070 -0.000370 0.000328
v 0.024070 -0.001111 0.000350
v 0.024070 -0.002592 0.000465
v 0.024070 -0.001851 0.000396
f 1 2 3
f 1 3 15
f 1 15 4
f 1 4 17
f 1 17 39
f 1 39 76
f 1 76 75
f 1 75 152
f 1 152 269
f 1 269 163
f 1 163 160
f 1 160 79
f 1 79 41
f 1 41 18
f 1 18 5
f 1 5 14
f 1 14 2
f 2 6 7
f 2 7 8
f 2 8 9
f 2 9 10
f 2 10 11
f 2 11 12
f 2 12 13
f 2 13 3
f 2 14 20
f 2 20 6
f 3 13 26
f 3 26 15
f 4 15 16
f 4 16 17
f 5 18 40
f 5 40 19
f 5 19 14
f 6 20 33
f 6 33 32
f 6 32 31
f 6 31 30
f 6 30 29
f 6 29 59
f 6 59 117
f 6 117 119
f 6 119 243
f 6 243 242
f 6 242 241
f 6 241 414
f 6 414 482
f 6 482 481
f 6 481 480
f 6 480 479
f 6 479 478
f 6 478 477
f 6 477 322
f 6 322 321
f 6 321 320
f 6 320 319
f 6 319 318
f 6 318 302
f 6 302 172
f 6 172 171
f 6 171 170
f 6 170 169
f 6 169 85
f 6 85 83
f 6 83 43
f 6 43 21
f 6 21 11
f 6 11 10
f 6 10 9
f 6 9 8
f 6 8 7
f 11 21 22
f 11 22 12
f 12 22 23
f 12 23 24
f 12 24 25
f 12 25 13
f 13 25 48
f 13 48 26
f 14 19 27
f 14 27 28
f 14 28 29
f 14 29 30
f 14 30 31
f 14 31 32
f 14 32 33
f 14 33 20
f 15 34 35
f 15 35 16
f 15 26 34
f 16 35 36
f 16 36 37
f 16 37 38
f 16 38 39
f 16 39 17
f 18 41 42
f 18 42 40
f 19 40 54
f 19 54 27
f 21 43 44
f 21 44 22
f 22 44 23
f 23 44 84
f 23 84 45
f 23 45 86
f 23 86 46
f 23 46 47
f 23 47 24
f 24 47 48
f 24 48 25
f 26 48 49
f 26 49 50
f 26 50 51
f 26 51 52
f 26 52 53
f 26 53 34
f 27 54 108
f 27 108 55
f 27 55 28
f 28 56 57
f 28 57 58
f 28 58 29
f 28 55 56
f 29 58 60
f 29 60 59
f 34 61 62
f 34 62 35
f 34 53 63
f 34 63 61
f 35 62 64
f 35 64 65
f 35 65 66
f 35 66 67
f 35 67 36
f 36 67 68
f 36 68 69
f 36 69 37
f 37 69 70
f 37 70 71
f 37 71 38
f 38 71 72
f 38 72 73
f 38 73 74
f 38 74 75
f 38 75 76
f 38 76 39
f 40 77 54
f 40 42 78
f 40 78 77
f 41 79 42
f 42 79 80
f 42 80 81
f 42 81 82
f 42 82 78
f 43 83 44
f 44 83 85
f 44 85 169
f 44 169 84
f 45 84 87
f 45 87 88
f 45 88 89
f 45 89 175
f 45 175 86
f 46 86 174
f 46 174 90
f 46 90 91
f 46 91 92
f 46 92 47
f 47 92 93
f 47 93 94
f 47 94 95
f 47 95 96
f 47 96 49
f 47 49 48
f 49 96 50
f 50 96 51
f 51 97 98
f 51 98 99
f 51 99 100
f 51 100 101
f 51 101 53
f 51 53 102
f 51 102 52
f 51 96 103
f 51 103 104
f 51 104 105
f 51 105 106
f 51 106 97
f 52 102 53
f 53 101 107
f 53 107 63
f 54 77 109
f 54 109 110
f 54 110 111
f 54 111 112
f 54 112 113
f 54 113 108
f 55 108 114
f 55 114 56
f 56 114 115
f 56 115 57
f 57 115 237
f 57 237 116
f 57 116 118
f 57 118 60
f 57 60 58
f 59 60 117
f 60 118 243
f 60 243 119
f 60 119 117
f 61 120 121
f 61 121 122
f 61 122 123
f 61 123 124
f 61 124 62
f 61 63 120
f 62 124 123
f 62 123 64
f 63 107 125
f 63 125 126
f 63 126 120
f 64 123 127
f 64 127 65
f 65 128 129
f 65 129 130
f 65 130 251
f 65 251 131
f 65 131 132
f 65 132 66
f 65 127 123
f 65 123 128
f 66 133 134
f 66 134 67
f 66 132 133
f 67 134 68
f 68 134 135
f 68 135 136
f 68 136 69
f 69 136 70
f 70 136 137
f 70 137 131
f 70 131 138
f 70 138 139
f 70 139 140
f 70 140 71
f 71 140 141
f 71 141 72
f 72 141 142
f 72 142 143
f 72 143 144
f 72 144 145
f 72 145 73
f 73 145 146
f 73 146 147
f 73 147 148
f 73 148 74
f 74 148 149
f 74 149 150
f 74 150 151
f 74 151 75
f 75 151 152
f 77 153 154
f 77 154 109
f 77 78 155
f 77 155 153
f 78 82 156
f 78 156 157
f 78 157 158
f 78 158 159
f 78 159 155
f 79 160 80
f 80 161 162
f 80 162 81
f 80 160 163
f 80 163 164
f 80 164 165
f 80 165 161
f 81 166 167
f 81 167 82
f 81 162 166
f 82 167 168
f 82 168 156
f 84 169 170
f 84 170 171
f 84 171 172
f 84 172 87
f 86 173 174
f 86 175 176
f 86 176 173
f 87 172 88
f 88 172 177
f 88 177 178
f 88 178 179
f 88 179 89
f 89 179 310
f 89 310 175
f 90 174 303
f 90 303 180
f 90 180 91
f 91 180 181
f 91 181 182
f 91 182 183
f 91 183 92
f 92 183 184
f 92 184 185
f 92 185 186
f 92 186 93
f 93 186 187
f 93 187 188
f 93 188 189
f 93 189 94
f 94 189 95
f 95 189 188
f 95 188 190
f 95 190 191
f 95 191 192
f 95 192 96
f 96 192 193
f 96 193 103
f 97 194 195
f 97 195 196
f 97 196 199
f 97 199 98
f 97 106 197
f 97 197 194
f 98 198 99
f 98 199 200
f 98 200 198
f 99 198 201
f 99 201 100
f 100 202 203
f 100 203 101
f 100 201 204
f 100 204 205
f 100 205 202
f 101 203 206
f 101 206 207
f 101 207 208
f 101 208 209
f 101 209 210
f 101 210 107
f 103 193 211
f 103 211 212
f 103 212 213
f 103 213 214
f 103 214 215
f 103 215 104
f 104 215 105
f 105 215 216
f 105 216 217
f 105 217 106
f 106 217 218
f 106 218 197
f 107 210 125
f 108 113 114
f 109 154 219
f 109 219 220
f 109 220 111
f 109 111 221
f 109 221 110
f 110 221 111
f 111 220 222
f 111 222 223
f 111 223 224
f 111 224 225
f 111 225 226
f 111 226 227
f 111 227 228
f 111 228 229
f 111 229 230
f 111 230 112
f 112 230 113
f 113 230 114
f 114 231 232
f 114 232 233
f 114 233 234
f 114 234 115
f 114 230 231
f 115 235 236
f 115 236 408
f 115 408 237
f 115 234 235
f 116 238 239
f 116 239 240
f 116 240 118
f 116 237 411
f 116 411 238
f 118 240 241
f 118 241 242
f 118 242 243
f 120 244 121
f 120 126 244
f 121 244 129
f 121 129 122
f 122 129 123
f 123 129 128
f 125 210 245
f 125 245 244
f 125 244 126
f 129 244 246
f 129 246 247
f 129 247 248
f 129 248 249
f 129 249 250
f 129 250 130
f 130 250 348
f 130 348 509
f 130 509 630
f 130 630 628
f 130 628 487
f 130 487 587
f 130 587 691
f 130 691 798
f 130 798 804
f 130 804 730
f 130 730 823
f 130 823 841
f 130 841 932
f 130 932 1002
f 130 1002 1035
f 130 1035 1051
f 130 1051 1036
f 130 1036 1005
f 130 1005 937
f 130 937 950
f 130 950 872
f 130 872 949
f 130 949 942
f 130 942 850
f 130 850 761
f 130 761 660
f 130 660 760
f 130 760 752
f 130 752 638
f 130 638 525
f 130 525 436
f 130 436 281
f 130 281 435
f 130 435 578
f 130 578 686
f 130 686 569
f 130 569 416
f 130 416 251
f 131 251 252
f 131 252 138
f 131 137 253
f 131 253 132
f 132 253 133
f 133 136 135
f 133 135 134
f 133 253 136
f 136 253 137
f 138 252 254
f 138 254 139
f 139 254 140
f 140 254 252
f 140 252 141
f 141 252 142
f 142 255 143
f 142 252 251
f 142 251 255
f 143 255 144
f 144 255 256
f 144 256 257
f 144 257 145
f 145 257 146
f 146 257 256
f 146 256 255
f 146 255 258
f 146 258 147
f 147 258 148
f 148 258 259
f 148 259 260
f 148 260 261
f 148 261 149
f 149 262 263
f 149 263 150
f 149 261 262
f 150 263 264
f 150 264 151
f 151 264 265
f 151 265 152
f 152 265 266
f 152 266 267
f 152 267 268
f 152 268 427
f 152 427 269
f 153 270 271
f 153 271 154
f 153 155 272
f 153 272 273
f 153 273 274
f 153 274 270
f 154 275 219
f 154 271 276
f 154 276 275
f 155 159 273
f 155 273 272
f 156 168 277
f 156 277 157
f 157 277 278
f 157 278 279
f 157 279 158
f 158 279 280
f 158 280 435
f 158 435 281
f 158 281 282
f 158 282 283
f 158 283 273
f 158 273 284
f 158 284 159
f 159 284 273
f 161 285 162
f 161 165 286
f 161 286 287
f 161 287 288
f 161 288 289
f 161 289 285
f 162 285 290
f 162 290 166
f 163 269 291
f 163 291 164
f 164 291 292
f 164 292 293
f 164 293 294
f 164 294 165
f 165 294 295
f 165 295 296
f 165 296 286
f 166 297 167
f 166 290 298
f 166 298 299
f 166 299 280
f 166 280 300
f 166 300 297
f 167 297 168
f 168 297 301
f 168 301 277
f 172 302 177
f 173 303 174
f 173 176 304
f 173 304 305
f 173 305 306
f 173 306 303
f 175 307 308
f 175 308 309
f 175 309 176
f 175 310 311
f 175 311 312
f 175 312 307
f 176 309 313
f 176 313 314
f 176 314 315
f 176 315 304
f 177 316 317
f 177 317 178
f 177 302 318
f 177 318 319
f 177 319 320
f 177 320 321
f 177 321 322
f 177 322 477
f 177 477 323
f 177 323 475
f 177 475 316
f 178 324 310
f 178 310 179
f 178 317 476
f 178 476 324
f 180 303 306
f 180 306 181
f 181 306 455
f 181 455 325
f 181 325 182
f 182 325 326
f 182 326 327
f 182 327 328
f 182 328 183
f 183 329 184
f 183 328 330
f 183 330 331
f 183 331 329
f 184 329 185
f 185 331 332
f 185 332 186
f 185 329 331
f 186 333 334
f 186 334 187
f 186 332 335
f 186 335 336
f 186 336 333
f 187 334 337
f 187 337 338
f 187 338 339
f 187 339 340
f 187 340 341
f 187 341 342
f 187 342 188
f 188 342 343
f 188 343 190
f 190 343 191
f 191 343 342
f 191 342 344
f 191 344 192
f 192 345 346
f 192 346 347
f 192 347 193
f 192 344 345
f 193 347 211
f 194 197 218
f 194 218 195
f 195 199 196
f 195 218 216
f 195 216 213
f 195 213 348
f 195 348 250
f 195 250 199
f 198 200 201
f 199 349 200
f 199 250 249
f 199 249 349
f 200 349 350
f 200 350 201
f 201 350 351
f 201 351 352
f 201 352 204
f 202 206 203
f 202 205 353
f 202 353 249
f 202 249 354
f 202 354 206
f 204 352 355
f 204 355 356
f 204 356 205
f 205 249 353
f 205 356 355
f 205 355 349
f 205 349 249
f 206 354 357
f 206 357 358
f 206 358 207
f 207 358 359
f 207 359 208
f 208 359 248
f 208 248 360
f 208 360 210
f 208 210 209
f 210 360 361
f 210 361 362
f 210 362 245
f 211 363 364
f 211 364 365
f 211 365 212
f 211 347 363
f 212 365 366
f 212 366 213
f 213 366 367
f 213 367 368
f 213 368 348
f 213 216 214
f 214 216 215
f 216 218 217
f 219 275 369
f 219 369 220
f 220 369 370
f 220 370 371
f 220 371 372
f 220 372 373
f 220 373 374
f 220 374 222
f 222 375 376
f 222 376 223
f 222 374 377
f 222 377 378
f 222 378 375
f 223 376 379
f 223 379 224
f 224 379 380
f 224 380 381
f 224 381 384
f 224 384 225
f 225 382 383
f 225 383 226
f 225 384 385
f 225 385 382
f 226 386 227
f 226 383 387
f 226 387 386
f 227 386 388
f 227 388 389
f 227 389 228
f 228 389 229
f 229 389 390
f 229 390 391
f 229 391 392
f 229 392 393
f 229 393 394
f 229 394 230
f 230 394 395
f 230 395 231
f 231 396 397
f 231 397 401
f 231 401 398
f 231 398 232
f 231 395 396
f 232 398 401
f 232 401 233
f 233 399 400
f 233 400 234
f 233 401 399
f 234 400 402
f 234 402 403
f 234 403 404
f 234 404 235
f 235 405 236
f 235 404 406
f 235 406 407
f 235 407 405
f 236 405 552
f 236 552 408
f 237 408 409
f 237 409 410
f 237 410 411
f 238 412 239
f 238 411 567
f 238 567 412
f 239 412 413
f 239 413 323
f 239 323 241
f 239 241 240
f 241 323 414
f 244 245 247
f 244 247 246
f 245 362 247
f 247 362 361
f 247 361 248
f 248 361 360
f 248 359 358
f 248 358 415
f 248 415 249
f 249 415 354
f 251 416 255
f 255 416 417
f 255 417 418
f 255 418 258
f 258 418 259
f 259 418 419
f 259 419 260
f 260 419 417
f 260 417 420
f 260 420 261
f 261 420 262
f 262 421 422
f 262 422 263
f 262 420 417
f 262 417 421
f 263 422 264
f 264 422 423
f 264 423 265
f 265 423 424
f 265 424 425
f 265 425 426
f 265 426 266
f 266 426 267
f 267 426 268
f 268 426 574
f 268 574 427
f 269 427 428
f 269 428 429
f 269 429 430
f 269 430 291
f 270 431 271
f 270 274 282
f 270 282 431
f 271 431 276
f 273 283 282
f 273 282 274
f 275 276 431
f 275 431 432
f 275 432 369
f 277 301 278
f 278 301 297
f 278 297 433
f 278 433 279
f 279 433 280
f 280 433 300
f 280 299 434
f 280 434 435
f 281 436 282
f 282 437 438
f 282 438 431
f 282 436 439
f 282 439 440
f 282 440 437
f 285 289 434
f 285 434 290
f 286 296 441
f 286 441 287
f 287 441 442
f 287 442 443
f 287 443 288
f 288 443 289
f 289 443 435
f 289 435 434
f 290 434 444
f 290 444 298
f 291 430 445
f 291 445 292
f 292 445 446
f 292 446 293
f 293 446 447
f 293 447 448
f 293 448 294
f 294 449 450
f 294 450 295
f 294 448 451
f 294 451 449
f 295 450 296
f 296 443 442
f 296 442 441
f 296 450 443
f 297 300 433
f 298 444 299
f 299 444 434
f 304 315 452
f 304 452 473
f 304 473 453
f 304 453 454
f 304 454 305
f 305 455 306
f 305 454 456
f 305 456 457
f 305 457 455
f 307 458 459
f 307 459 463
f 307 463 460
f 307 460 308
f 307 312 461
f 307 461 458
f 308 460 463
f 308 463 309
f 309 462 313
f 309 463 462
f 310 324 311
f 311 464 312
f 311 324 464
f 312 464 465
f 312 465 466
f 312 466 467
f 312 467 461
f 313 468 314
f 313 462 469
f 313 469 470
f 313 470 471
f 313 471 472
f 313 472 468
f 314 468 473
f 314 473 452
f 314 452 315
f 316 474 476
f 316 476 317
f 316 475 621
f 316 621 739
f 316 739 836
f 316 836 929
f 316 929 928
f 316 928 977
f 316 977 909
f 316 909 827
f 316 827 824
f 316 824 734
f 316 734 619
f 316 619 474
f 323 477 478
f 323 478 479
f 323 479 480
f 323 480 481
f 323 481 482
f 323 482 414
f 323 413 483
f 323 483 475
f 324 476 484
f 324 484 485
f 324 485 486
f 324 486 465
f 324 465 464
f 325 455 457
f 325 457 326
f 326 457 456
f 326 456 327
f 327 456 587
f 327 587 487
f 327 487 328
f 328 487 488
f 328 488 330
f 330 488 331
f 331 488 489
f 331 489 335
f 331 335 332
f 333 336 490
f 333 490 334
f 334 490 491
f 334 491 337
f 335 489 492
f 335 492 493
f 335 493 336
f 336 493 494
f 336 494 490
f 337 491 495
f 337 495 496
f 337 496 338
f 338 496 497
f 338 497 498
f 338 498 499
f 338 499 339
f 339 499 340
f 340 499 500
f 340 500 341
f 341 500 501
f 341 501 502
f 341 502 503
f 341 503 342
f 342 503 504
f 342 504 344
f 344 504 505
f 344 505 506
f 344 506 345
f 345 506 507
f 345 507 368
f 345 368 346
f 346 368 347
f 347 368 508
f 347 508 363
f 348 368 509
f 349 355 510
f 349 510 350
f 350 510 351
f 351 510 355
f 351 355 352
f 354 415 357
f 357 415 358
f 363 508 367
f 363 367 364
f 364 367 365
f 365 367 366
f 367 508 368
f 368 507 509
f 369 432 511
f 369 511 512
f 369 512 513
f 369 513 371
f 369 371 370
f 371 513 440
f 371 440 514
f 371 514 372
f 372 515 373
f 372 514 515
f 373 377 374
f 373 515 516
f 373 516 517
f 373 517 377
f 375 518 376
f 375 378 519
f 375 519 520
f 375 520 518
f 376 518 521
f 376 521 522
f 376 522 380
f 376 380 379
f 377 517 439
f 377 439 523
f 377 523 378
f 378 524 520
f 378 520 519
f 378 523 439
f 378 439 524
f 380 522 524
f 380 524 381
f 381 385 384
f 381 524 439
f 381 439 436
f 381 436 385
f 382 387 383
f 382 385 387
f 385 525 391
f 385 391 388
f 385 388 387
f 385 436 525
f 386 387 388
f 388 391 390
f 388 390 389
f 391 526 527
f 391 527 528
f 391 528 392
f 391 525 526
f 392 528 529
f 392 529 393
f 393 530 531
f 393 531 394
f 393 529 532
f 393 532 530
f 394 531 395
f 395 531 533
f 395 533 534
f 395 534 535
f 395 535 396
f 396 535 536
f 396 536 537
f 396 537 397
f 397 537 401
f 399 538 539
f 399 539 400
f 399 401 536
f 399 536 540
f 399 540 541
f 399 541 542
f 399 542 543
f 399 543 538
f 400 544 402
f 400 539 545
f 400 545 546
f 400 546 547
f 400 547 544
f 401 537 536
f 402 544 548
f 402 548 549
f 402 549 403
f 403 549 404
f 404 549 548
f 404 548 550
f 404 550 551
f 404 551 406
f 405 407 556
f 405 556 552
f 406 553 407
f 406 551 554
f 406 554 555
f 406 555 553
f 407 553 661
f 407 661 556
f 408 552 409
f 409 552 556
f 409 556 557
f 409 557 558
f 409 558 410
f 410 558 559
f 410 559 560
f 410 560 561
f 410 561 562
f 410 562 411
f 411 562 563
f 411 563 564
f 411 564 565
f 411 565 566
f 411 566 567
f 412 567 568
f 412 568 413
f 413 568 623
f 413 623 483
f 416 569 417
f 417 419 418
f 417 569 570
f 417 570 421
f 421 570 422
f 422 570 423
f 423 570 571
f 423 571 424
f 424 571 572
f 424 572 425
f 425 572 426
f 426 572 573
f 426 573 687
f 426 687 574
f 427 574 428
f 428 574 429
f 429 574 430
f 430 575 445
f 430 574 576
f 430 576 577
f 430 577 575
f 431 438 437
f 431 437 432
f 432 437 511
f 435 443 578
f 437 440 512
f 437 512 511
f 439 517 579
f 439 579 440
f 440 579 515
f 440 515 514
f 440 513 512
f 443 450 580
f 443 580 581
f 443 581 578
f 445 582 446
f 445 575 582
f 446 582 447
f 447 582 583
f 447 583 581
f 447 581 584
f 447 584 448
f 448 584 451
f 449 451 585
f 449 585 580
f 449 580 450
f 451 584 581
f 451 581 585
f 453 586 454
f 453 473 586
f 454 586 587
f 454 587 456
f 458 588 589
f 458 589 590
f 458 590 459
f 458 461 588
f 459 590 463
f 461 467 591
f 461 591 592
f 461 592 593
f 461 593 588
f 462 594 469
f 462 463 589
f 462 589 595
f 462 595 596
f 462 596 597
f 462 597 598
f 462 598 594
f 463 590 589
f 465 486 599
f 465 599 485
f 465 485 600
f 465 600 601
f 465 601 602
f 465 602 603
f 465 603 604
f 465 604 605
f 465 605 606
f 465 606 607
f 465 607 466
f 466 607 608
f 466 608 609
f 466 609 610
f 466 610 611
f 466 611 612
f 466 612 467
f 467 612 591
f 468 472 618
f 468 618 473
f 469 594 613
f 469 613 614
f 469 614 470
f 470 614 471
f 471 615 472
f 471 614 616
f 471 616 615
f 472 615 617
f 472 617 618
f 473 618 586
f 474 619 620
f 474 620 476
f 475 483 623
f 475 623 621
f 476 620 622
f 476 622 484
f 484 622 624
f 484 624 625
f 484 625 626
f 484 626 485
f 485 626 627
f 485 627 600
f 485 599 486
f 487 628 494
f 487 494 492
f 487 492 488
f 488 492 489
f 490 494 491
f 491 494 495
f 492 494 493
f 494 628 501
f 494 501 629
f 494 629 495
f 495 629 497
f 495 497 496
f 497 629 498
f 498 629 501
f 498 501 499
f 499 501 500
f 501 628 630
f 501 630 631
f 501 631 502
f 502 631 503
f 503 631 632
f 503 632 504
f 504 632 633
f 504 633 634
f 504 634 505
f 505 634 635
f 505 635 507
f 505 507 506
f 507 635 636
f 507 636 509
f 509 636 630
f 515 579 516
f 516 579 517
f 518 520 521
f 520 524 637
f 520 637 521
f 521 637 522
f 522 637 524
f 525 638 526
f 526 638 639
f 526 639 534
f 526 534 533
f 526 533 531
f 526 531 640
f 526 640 527
f 527 529 528
f 527 640 530
f 527 530 532
f 527 532 529
f 530 640 531
f 534 639 641
f 534 641 535
f 535 642 643
f 535 643 536
f 535 641 642
f 536 644 540
f 536 643 644
f 538 543 645
f 538 645 646
f 538 646 647
f 538 647 539
f 539 647 648
f 539 648 545
f 540 644 649
f 540 649 650
f 540 650 651
f 540 651 541
f 541 651 652
f 541 652 542
f 542 652 543
f 543 652 653
f 543 653 654
f 543 654 645
f 544 547 658
f 544 658 548
f 545 648 546
f 546 655 547
f 546 648 656
f 546 656 655
f 547 655 657
f 547 657 658
f 548 658 659
f 548 659 550
f 550 659 551
f 551 659 660
f 551 660 554
f 553 555 663
f 553 663 661
f 554 660 761
f 554 761 662
f 554 662 663
f 554 663 555
f 556 661 557
f 557 661 663
f 557 663 662
f 557 662 664
f 557 664 558
f 558 665 559
f 558 664 666
f 558 666 667
f 558 667 665
f 559 665 560
f 560 667 668
f 560 668 561
f 560 665 667
f 561 669 670
f 561 670 671
f 561 671 562
f 561 668 672
f 561 672 673
f 561 673 669
f 562 671 674
f 562 674 675
f 562 675 563
f 563 675 564
f 564 675 674
f 564 674 676
f 564 676 677
f 564 677 678
f 564 678 565
f 565 678 679
f 565 679 680
f 565 680 681
f 565 681 682
f 565 682 566
f 566 682 568
f 566 568 567
f 568 682 681
f 568 681 683
f 568 683 684
f 568 684 685
f 568 685 623
f 569 573 572
f 569 572 571
f 569 571 570
f 569 686 687
f 569 687 573
f 574 687 688
f 574 688 576
f 575 577 689
f 575 689 690
f 575 690 582
f 576 688 577
f 577 688 689
f 578 581 686
f 580 585 581
f 581 583 690
f 581 690 686
f 582 690 583
f 586 617 587
f 586 618 617
f 587 616 691
f 587 617 616
f 588 692 693
f 588 693 589
f 588 593 694
f 588 694 692
f 589 695 595
f 589 693 695
f 591 612 696
f 591 696 697
f 591 697 698
f 591 698 592
f 592 698 593
f 593 699 694
f 593 698 699
f 594 598 700
f 594 700 701
f 594 701 613
f 595 695 702
f 595 702 703
f 595 703 704
f 595 704 596
f 596 704 705
f 596 705 597
f 597 705 598
f 598 705 706
f 598 706 707
f 598 707 700
f 600 627 708
f 600 708 709
f 600 709 710
f 600 710 711
f 600 711 712
f 600 712 713
f 600 713 601
f 601 713 714
f 601 714 715
f 601 715 716
f 601 716 717
f 601 717 602
f 602 717 718
f 602 718 603
f 603 718 719
f 603 719 720
f 603 720 723
f 603 723 604
f 604 721 722
f 604 722 605
f 604 723 724
f 604 724 721
f 605 725 606
f 605 722 726
f 605 726 725
f 606 725 727
f 606 727 608
f 606 608 607
f 608 727 609
f 609 727 610
f 610 698 728
f 610 728 729
f 610 729 611
f 610 727 724
f 610 724 730
f 610 730 698
f 611 729 731
f 611 731 612
f 612 731 732
f 612 732 696
f 613 701 616
f 613 616 614
f 615 616 617
f 616 701 733
f 616 733 703
f 616 703 691
f 619 734 620
f 620 734 735
f 620 735 736
f 620 736 737
f 620 737 622
f 621 623 738
f 621 738 739
f 622 737 740
f 622 740 741
f 622 741 742
f 622 742 743
f 622 743 624
f 623 685 744
f 623 744 738
f 624 743 745
f 624 745 746
f 624 746 625
f 625 747 748
f 625 748 626
f 625 746 745
f 625 745 749
f 625 749 747
f 626 750 627
f 626 748 751
f 626 751 750
f 627 750 708
f 630 636 632
f 630 632 631
f 632 636 633
f 633 636 634
f 634 636 635
f 638 752 753
f 638 753 639
f 639 753 754
f 639 754 642
f 639 642 641
f 642 754 755
f 642 755 643
f 643 755 756
f 643 756 757
f 643 757 644
f 644 757 758
f 644 758 649
f 645 654 646
f 646 654 759
f 646 759 656
f 646 656 647
f 647 656 648
f 649 758 650
f 650 758 752
f 650 752 760
f 650 760 656
f 650 656 759
f 650 759 653
f 650 653 652
f 650 652 651
f 653 759 654
f 655 656 657
f 656 760 660
f 656 660 657
f 657 660 659
f 657 659 658
f 662 761 664
f 664 761 762
f 664 762 666
f 666 762 667
f 667 762 763
f 667 763 672
f 667 672 668
f 669 673 764
f 669 764 670
f 670 765 671
f 670 764 766
f 670 766 765
f 671 765 767
f 671 767 768
f 671 768 769
f 671 769 770
f 671 770 771
f 671 771 674
f 672 763 772
f 672 772 773
f 672 773 673
f 673 773 774
f 673 774 764
f 674 771 775
f 674 775 676
f 676 775 677
f 677 775 771
f 677 771 776
f 677 776 678
f 678 777 778
f 678 778 779
f 678 779 679
f 678 776 777
f 679 779 780
f 679 780 680
f 680 780 781
f 680 781 782
f 680 782 783
f 680 783 784
f 680 784 785
f 680 785 681
f 681 786 787
f 681 787 788
f 681 788 789
f 681 789 790
f 681 790 684
f 681 684 791
f 681 791 683
f 681 785 792
f 681 792 793
f 681 793 786
f 683 791 684
f 684 790 794
f 684 794 795
f 684 795 685
f 685 796 797
f 685 797 744
f 685 795 796
f 686 690 689
f 686 689 688
f 686 688 687
f 691 703 798
f 692 799 800
f 692 800 693
f 692 694 699
f 692 699 799
f 693 800 801
f 693 801 802
f 693 802 695
f 695 802 803
f 695 803 702
f 696 732 728
f 696 728 697
f 697 728 698
f 698 804 699
f 698 730 804
f 699 804 805
f 699 805 799
f 700 707 701
f 701 707 733
f 702 803 703
f 703 803 798
f 703 733 706
f 703 706 705
f 703 705 704
f 706 733 707
f 708 750 806
f 708 806 807
f 708 807 808
f 708 808 809
f 708 809 710
f 708 710 709
f 710 809 810
f 710 810 811
f 710 811 711
f 711 812 712
f 711 811 812
f 712 714 713
f 712 812 813
f 712 813 814
f 712 814 714
f 714 814 815
f 714 815 816
f 714 816 715
f 715 817 818
f 715 818 819
f 715 819 716
f 715 816 815
f 715 815 817
f 716 820 717
f 716 819 818
f 716 818 820
f 717 820 821
f 717 821 822
f 717 822 719
f 717 719 718
f 719 822 817
f 719 817 720
f 720 724 723
f 720 817 815
f 720 815 823
f 720 823 724
f 721 726 722
f 721 724 726
f 724 727 726
f 724 823 730
f 725 726 727
f 728 731 729
f 728 732 731
f 734 824 735
f 735 825 826
f 735 826 736
f 735 824 827
f 735 827 828
f 735 828 829
f 735 829 825
f 736 830 831
f 736 831 737
f 736 826 830
f 737 831 832
f 737 832 740
f 738 744 833
f 738 833 834
f 738 834 835
f 738 835 836
f 738 836 739
f 740 832 837
f 740 837 741
f 741 837 838
f 741 838 839
f 741 839 742
f 742 839 840
f 742 840 932
f 742 932 841
f 742 841 842
f 742 842 843
f 742 843 745
f 742 745 844
f 742 844 743
f 743 844 745
f 744 797 845
f 744 845 846
f 744 846 847
f 744 847 848
f 744 848 833
f 745 843 842
f 745 842 749
f 747 849 748
f 747 749 842
f 747 842 849
f 748 849 751
f 750 751 849
f 750 849 806
f 752 758 757
f 752 757 753
f 753 757 756
f 753 756 755
f 753 755 754
f 761 850 774
f 761 774 772
f 761 772 762
f 762 772 763
f 764 774 766
f 765 766 851
f 765 851 852
f 765 852 767
f 766 774 851
f 767 852 853
f 767 853 854
f 767 854 855
f 767 855 768
f 768 855 769
f 769 855 856
f 769 856 770
f 770 856 857
f 770 857 858
f 770 858 859
f 770 859 771
f 771 859 860
f 771 860 776
f 772 774 773
f 774 850 857
f 774 857 861
f 774 861 851
f 776 860 862
f 776 862 863
f 776 863 777
f 777 863 864
f 777 864 865
f 777 865 778
f 778 865 779
f 779 865 866
f 779 866 867
f 779 867 780
f 780 867 868
f 780 868 869
f 780 869 781
f 781 869 870
f 781 870 782
f 782 870 871
f 782 871 865
f 782 865 872
f 782 872 873
f 782 873 874
f 782 874 783
f 783 874 784
f 784 792 785
f 784 874 792
f 786 793 875
f 786 875 876
f 786 876 873
f 786 873 877
f 786 877 879
f 786 879 787
f 787 878 788
f 787 879 880
f 787 880 878
f 788 878 881
f 788 881 789
f 789 882 883
f 789 883 790
f 789 881 884
f 789 884 885
f 789 885 882
f 790 883 886
f 790 886 887
f 790 887 888
f 790 888 889
f 790 889 890
f 790 890 794
f 792 874 891
f 792 891 793
f 793 891 892
f 793 892 875
f 794 890 893
f 794 893 795
f 795 893 894
f 795 894 895
f 795 895 796
f 796 895 896
f 796 896 897
f 796 897 898
f 796 898 899
f 796 899 797
f 797 899 898
f 797 898 845
f 798 803 802
f 798 802 805
f 798 805 804
f 799 805 800
f 800 805 801
f 801 805 802
f 806 849 900
f 806 900 807
f 807 900 808
f 808 810 809
f 808 900 810
f 810 815 901
f 810 901 812
f 810 812 811
f 810 900 842
f 810 842 815
f 812 901 813
f 813 901 814
f 814 901 815
f 815 842 823
f 817 822 902
f 817 902 818
f 818 902 821
f 818 821 820
f 821 902 822
f 823 842 841
f 825 829 903
f 825 903 904
f 825 904 905
f 825 905 906
f 825 906 907
f 825 907 826
f 826 907 908
f 826 908 830
f 827 909 910
f 827 910 828
f 828 910 911
f 828 911 912
f 828 912 913
f 828 913 829
f 829 913 914
f 829 914 915
f 829 915 903
f 830 916 831
f 830 908 917
f 830 917 918
f 830 918 840
f 830 840 919
f 830 919 916
f 831 916 832
f 832 916 920
f 832 920 837
f 833 848 921
f 833 921 922
f 833 922 834
f 834 922 923
f 834 923 924
f 834 924 835
f 835 924 925
f 835 925 926
f 835 926 927
f 835 927 928
f 835 928 929
f 835 929 836
f 837 920 838
f 838 920 916
f 838 916 930
f 838 930 839
f 839 930 840
f 840 930 919
f 840 918 931
f 840 931 932
f 842 900 933
f 842 933 849
f 845 898 934
f 845 934 846
f 846 934 898
f 846 898 935
f 846 935 936
f 846 936 937
f 846 937 1005
f 846 1005 938
f 846 938 939
f 846 939 847
f 847 940 941
f 847 941 848
f 847 939 940
f 848 941 921
f 849 933 900
f 850 942 857
f 851 861 853
f 851 853 852
f 853 861 854
f 854 861 857
f 854 857 855
f 855 857 856
f 857 942 943
f 857 943 858
f 858 943 859
f 859 943 944
f 859 944 860
f 860 944 945
f 860 945 946
f 860 946 862
f 862 946 947
f 862 947 864
f 862 864 863
f 864 947 948
f 864 948 949
f 864 949 865
f 865 871 866
f 865 949 872
f 866 871 867
f 867 871 868
f 868 871 869
f 869 871 870
f 872 950 873
f 873 879 877
f 873 876 892
f 873 892 874
f 873 950 879
f 874 892 891
f 875 892 876
f 878 880 881
f 879 951 880
f 879 950 952
f 879 952 951
f 880 951 953
f 880 953 881
f 881 953 954
f 881 954 955
f 881 955 884
f 882 886 883
f 882 885 956
f 882 956 952
f 882 952 957
f 882 957 886
f 884 955 958
f 884 958 959
f 884 959 885
f 885 952 956
f 885 959 958
f 885 958 951
f 885 951 952
f 886 957 960
f 886 960 961
f 886 961 887
f 887 961 962
f 887 962 888
f 888 962 963
f 888 963 964
f 888 964 890
f 888 890 889
f 890 964 965
f 890 965 966
f 890 966 967
f 890 967 893
f 893 967 968
f 893 968 894
f 894 968 895
f 895 968 896
f 896 968 936
f 896 936 897
f 897 936 898
f 898 936 935
f 903 915 969
f 903 969 904
f 904 969 970
f 904 970 971
f 904 971 905
f 905 971 906
f 906 971 932
f 906 932 931
f 906 931 907
f 907 931 908
f 908 931 972
f 908 972 917
f 909 973 974
f 909 974 975
f 909 975 976
f 909 976 910
f 909 977 1013
f 909 1013 973
f 910 976 978
f 910 978 911
f 911 978 979
f 911 979 912
f 912 979 980
f 912 980 981
f 912 981 913
f 913 981 982
f 913 982 983
f 913 983 984
f 913 984 914
f 914 984 915
f 915 971 970
f 915 970 969
f 915 984 971
f 916 919 930
f 917 972 918
f 918 972 931
f 921 941 985
f 921 985 986
f 921 986 922
f 922 986 923
f 923 986 987
f 923 987 938
f 923 938 988
f 923 988 989
f 923 989 990
f 923 990 924
f 924 990 991
f 924 991 925
f 925 991 992
f 925 992 993
f 925 993 994
f 925 994 995
f 925 995 926
f 926 995 996
f 926 996 997
f 926 997 998
f 926 998 927
f 927 998 999
f 927 999 1000
f 927 1000 1001
f 927 1001 928
f 928 1001 977
f 932 971 1002
f 936 968 1003
f 936 1003 1004
f 936 1004 963
f 936 963 952
f 936 952 950
f 936 950 937
f 938 1005 1006
f 938 1006 988
f 938 987 1007
f 938 1007 939
f 939 1007 940
f 940 986 985
f 940 985 941
f 940 1007 986
f 942 948 944
f 942 944 943
f 942 949 948
f 944 948 945
f 945 948 946
f 946 948 947
f 951 958 1008
f 951 1008 953
f 952 963 1009
f 952 1009 957
f 953 1008 954
f 954 1008 958
f 954 958 955
f 957 1009 960
f 960 1009 961
f 961 1009 963
f 961 963 962
f 963 1004 965
f 963 965 964
f 965 1004 966
f 966 1004 967
f 967 1004 968
f 968 1004 1003
f 971 984 1010
f 971 1010 1011
f 971 1011 1002
f 973 1012 974
f 973 1013 1040
f 973 1040 1012
f 974 1012 975
f 975 1012 976
f 976 1014 978
f 976 1012 1015
f 976 1015 1016
f 976 1016 1014
f 977 1001 1017
f 977 1017 1018
f 977 1018 1019
f 977 1019 1013
f 978 1020 979
f 978 1014 1020
f 979 1020 980
f 980 1020 1021
f 980 1021 1011
f 980 1011 1022
f 980 1022 981
f 981 1022 982
f 982 1022 1011
f 982 1011 1023
f 982 1023 983
f 983 1023 1010
f 983 1010 984
f 986 1007 987
f 988 1006 1024
f 988 1024 989
f 989 1024 990
f 990 1024 1006
f 990 1006 991
f 991 1006 992
f 992 1025 993
f 992 1006 1005
f 992 1005 1025
f 993 1025 994
f 994 1025 1026
f 994 1026 1027
f 994 1027 995
f 995 1027 996
f 996 1027 1026
f 996 1026 1025
f 996 1025 1028
f 996 1028 997
f 997 1028 998
f 998 1028 1029
f 998 1029 1030
f 998 1030 1031
f 998 1031 999
f 999 1032 1033
f 999 1033 1000
f 999 1031 1032
f 1000 1033 1034
f 1000 1034 1001
f 1001 1034 1017
f 1002 1011 1035
f 1005 1036 1025
f 1010 1023 1011
f 1011 1021 1037
f 1011 1037 1035
f 1012 1038 1039
f 1012 1039 1015
f 1012 1040 1052
f 1012 1052 1038
f 1013 1019 1040
f 1014 1037 1020
f 1014 1016 1041
f 1014 1041 1037
f 1015 1039 1016
f 1016 1039 1041
f 1017 1042 1043
f 1017 1043 1044
f 1017 1044 1040
f 1017 1040 1018
f 1017 1034 1042
f 1018 1040 1019
f 1020 1037 1021
f 1025 1036 1045
f 1025 1045 1046
f 1025 1046 1028
f 1028 1046 1029
f 1029 1046 1047
f 1029 1047 1030
f 1030 1047 1045
f 1030 1045 1048
f 1030 1048 1031
f 1031 1048 1032
f 1032 1049 1050
f 1032 1050 1033
f 1032 1048 1045
f 1032 1045 1049
f 1033 1050 1034
f 1034 1050 1042
f 1035 1037 1041
f 1035 1041 1039
f 1035 1039 1038
f 1035 1038 1052
f 1035 1052 1051
f 1036 1051 1045
f 1040 1044 1053
f 1040 1053 1052
f 1042 1054 1055
f 1042 1055 1043
f 1042 1050 1054
f 1043 1055 1053
f 1043 1053 1044
f 1045 1047 1046
f 1045 1051 1054
f 1045 1054 1049
f 1049 1054 1050
f 1051 1052 1053
f 1051 1053 1055
f 1051 1055 1054
