v -0.014478 0.000370 0.043382
v -0.014472 0.001109 0.043382
v -0.014472 0.001109 0.043382
v -0.014475 0.000370 0.043382
v -0.014443 -0.000369 0.043382
v -0.014472 -0.001110 0.044118
v -0.014478 -0.000369 0.044118
v -0.014443 0.000370 0.044118
v -0.014432 0.001850 0.043382
v -0.014432 0.001839 0.043382
v -0.014370 -0.001110 0.043382
v -0.014432 -0.001852 0.044118
v -0.014443 -0.001110 0.044147
v -0.014399 -0.001816 0.044152
v -0.014443 -0.000369 0.044152
v -0.014410 0.000334 0.044152
v -0.014408 0.000370 0.044152
v -0.014340 0.001078 0.044152
v -0.014370 0.001109 0.044118
v -0.014351 0.002592 0.043382
v -0.014351 0.002592 0.043382
v -0.014259 -0.001852 0.043382
v -0.014351 -0.002590 0.044118
v -0.014321 -0.002557 0.044152
v -0.014397 -0.001852 0.044152
v -0.014437 -0.001110 0.044152
v -0.014329 0.001156 0.044152
v -0.014259 0.001850 0.044118
v -0.014232 0.003333 0.043382
v -0.014232 0.003333 0.043382
v -0.014107 -0.002590 0.043382
v -0.014232 -0.003332 0.044118
v -0.014205 -0.003293 0.044152
v -0.014224 0.001850 0.044152
v -0.014107 0.002592 0.044118
v -0.014072 0.004072 0.043382
v -0.014072 0.004072 0.043382
v -0.013915 -0.003332 0.043382
v -0.014072 -0.004073 0.044118
v -0.014048 -0.004023 0.044152
v -0.014196 -0.003332 0.044152
v -0.014072 0.002592 0.044152
v -0.013915 0.003333 0.044118
v -0.013874 0.004813 0.043382
v -0.013874 0.004813 0.043382
v -0.013701 -0.003998 0.043382
v -0.013680 -0.004073 0.043382
v -0.013874 -0.004812 0.044118
v -0.013858 -0.004743 0.044152
v -0.014037 -0.004073 0.044152
v -0.013880 0.003333 0.044152
v -0.013680 0.004072 0.044118
v -0.013701 0.005344 0.043382
v -0.013701 0.005341 0.043382
v -0.013677 -0.004073 0.043382
v -0.013396 -0.004812 0.043382
v -0.013631 -0.005554 0.044118
v -0.013701 -0.005343 0.044118
v -0.013647 -0.005401 0.044152
v -0.013839 -0.004812 0.044152
v -0.013677 0.003969 0.044152
v -0.013642 0.004072 0.044152
v -0.013617 0.004136 0.044152
v -0.013396 0.004813 0.044118
v -0.013631 0.005555 0.043382
v -0.013631 0.005555 0.043382
v -0.013065 -0.005554 0.043382
v -0.013344 -0.006295 0.044118
v -0.013596 -0.005554 0.044152
v -0.013325 -0.006253 0.044152
v -0.013358 0.004813 0.044152
v -0.013065 0.005555 0.044118
v -0.013344 0.006296 0.043382
v -0.013344 0.006296 0.043382
v -0.012963 -0.005759 0.043382
v -0.012963 -0.007137 0.044118
v -0.013011 -0.007037 0.044118
v -0.013309 -0.006295 0.044152
v -0.013028 0.005555 0.044152
v -0.012963 0.005685 0.044152
v -0.012963 0.005760 0.044118
v -0.012963 0.007135 0.043382
v -0.013011 0.007035 0.043382
v -0.013011 0.007035 0.043382
v -0.012681 -0.006295 0.043382
v -0.012616 -0.007775 0.044118
v -0.012578 -0.007775 0.044152
v -0.012963 -0.007062 0.044152
v -0.012641 0.006296 0.044152
v -0.012681 0.006296 0.044118
v -0.012616 0.007776 0.043382
v -0.012963 0.007135 0.043382
v -0.012240 -0.007037 0.043382
v -0.012221 -0.007775 0.043780
v -0.012221 -0.008347 0.044118
v -0.012221 -0.008289 0.044152
v -0.012221 0.006999 0.044152
v -0.012240 0.007035 0.044118
v -0.012616 0.007776 0.043382
v -0.012221 0.007066 0.044118
v -0.012221 0.007776 0.043720
v -0.012221 0.008349 0.043382
v -0.012221 -0.007064 0.043382
v -0.011731 -0.007775 0.043382
v -0.012094 -0.008517 0.044118
v -0.012056 -0.008517 0.044152
v -0.012200 0.007035 0.044152
v -0.012221 0.008346 0.043382
v -0.012148 0.007110 0.044152
v -0.011731 0.007776 0.044118
v -0.012094 0.008518 0.043382
v -0.011745 -0.007753 0.043382
v -0.011729 -0.007775 0.043382
v -0.011480 -0.008106 0.043382
v -0.011480 -0.008517 0.043637
v -0.011482 -0.009258 0.044118
v -0.011447 -0.009258 0.044152
v -0.012091 0.008518 0.043382
v -0.011688 0.007776 0.044152
v -0.011450 0.008090 0.044152
v -0.011480 0.008518 0.043864
v -0.011482 0.009257 0.043382
v -0.011480 0.009259 0.043382
v -0.011147 -0.008517 0.043382
v -0.010738 -0.008981 0.043382
v -0.010738 -0.009258 0.043569
v -0.010779 -0.010000 0.044118
v -0.010749 -0.010000 0.044152
v -0.011104 0.008518 0.044152
v -0.010738 0.009257 0.043931
v -0.011031 0.009734 0.043382
v -0.010714 0.008960 0.044152
v -0.010479 -0.009258 0.043382
v -0.010738 -0.010000 0.044089
v -0.010738 -0.010039 0.044118
v -0.010706 -0.010044 0.044152
v -0.010479 0.009257 0.044118
v -0.010779 0.009998 0.043382
v -0.010779 0.009998 0.043382
v -0.010462 0.009223 0.044152
v -0.010000 -0.009728 0.043382
v -0.010000 -0.010000 0.043580
v -0.010000 -0.010714 0.044118
v -0.010000 -0.010689 0.044152
v -0.010430 0.009257 0.044152
v -0.010738 0.009998 0.043411
v -0.010738 0.010037 0.043382
v -0.010738 0.010037 0.043382
v -0.009699 -0.009997 0.043382
v -0.009699 -0.010000 0.043382
v -0.009258 -0.010372 0.043382
v -0.009970 -0.010739 0.044118
v -0.009935 -0.010747 0.044152
v -0.010000 0.009682 0.044152
v -0.010000 0.009998 0.043920
v -0.010000 0.009729 0.044118
v -0.010000 0.010715 0.043382
v -0.010000 0.010715 0.043382
v -0.008782 -0.010739 0.043382
v -0.008785 -0.010739 0.043382
v -0.009258 -0.010739 0.043667
v -0.009258 -0.011305 0.044118
v -0.009258 -0.011286 0.044152
v -0.009973 0.009707 0.044152
v -0.009648 0.009998 0.044152
v -0.009686 0.009965 0.044152
v -0.009226 0.010356 0.044152
v -0.009970 0.010740 0.043382
v -0.009970 0.010740 0.043382
v -0.008517 -0.010933 0.043382
v -0.009015 -0.011480 0.044118
v -0.008996 -0.011480 0.044152
v -0.008725 0.010740 0.044152
v -0.008785 0.010740 0.044118
v -0.009258 0.010740 0.043833
v -0.009258 0.011303 0.043382
v -0.009258 0.011303 0.043382
v -0.007775 -0.011422 0.043382
v -0.008517 -0.011480 0.043831
v -0.008517 -0.011822 0.044118
v -0.008482 -0.011836 0.044152
v -0.008517 0.010892 0.044152
v -0.009015 0.011481 0.043382
v -0.009015 0.011481 0.043382
v -0.007775 -0.011480 0.043431
v -0.007678 -0.011480 0.043382
v -0.007870 -0.012222 0.044118
v -0.007857 -0.012222 0.044152
v -0.008474 0.010923 0.044152
v -0.008517 0.011481 0.043669
v -0.008517 0.011820 0.043382
v -0.008517 0.011820 0.043382
v -0.007037 -0.011844 0.043382
v -0.007775 -0.012222 0.044070
v -0.007775 -0.012277 0.044118
v -0.007743 -0.012291 0.044152
v -0.007775 0.011381 0.044152
v -0.007775 0.011481 0.044069
v -0.007775 0.011423 0.044118
v -0.007870 0.012220 0.043382
v -0.007870 0.012220 0.043382
v -0.006295 -0.012210 0.043382
v -0.006295 -0.012222 0.043392
v -0.007037 -0.012222 0.043715
v -0.007037 -0.012671 0.044118
v -0.007037 -0.012666 0.044152
v -0.007762 0.011390 0.044152
v -0.007648 0.011459 0.044152
v -0.007610 0.011481 0.044152
v -0.007775 0.012220 0.043430
v -0.007775 0.012275 0.043382
v -0.007775 0.012275 0.043382
v -0.006271 -0.012222 0.043382
v -0.006295 -0.013013 0.044118
v -0.006404 -0.012966 0.044152
v -0.007037 0.011806 0.044152
v -0.007037 0.011845 0.044118
v -0.007037 0.012220 0.043785
v -0.007037 0.012670 0.043382
v -0.007037 0.012670 0.043382
v -0.005554 -0.012521 0.043382
v -0.005554 -0.013307 0.044118
v -0.005554 -0.013310 0.044152
v -0.006295 -0.013013 0.044152
v -0.006295 0.012173 0.044152
v -0.006295 0.012212 0.044118
v -0.006409 0.012961 0.043382
v -0.006409 0.012961 0.043382
v -0.004812 -0.012785 0.043382
v -0.004812 -0.013555 0.044118
v -0.004815 -0.013560 0.044152
v -0.006266 0.012187 0.044152
v -0.005554 0.012486 0.044152
v -0.006295 0.013014 0.043382
v -0.006295 0.013014 0.043382
v -0.004209 -0.012960 0.043382
v -0.004074 -0.013002 0.043382
v -0.004279 -0.013702 0.044118
v -0.004074 -0.013768 0.044152
v -0.005508 0.012503 0.044152
v -0.005554 0.012961 0.043707
v -0.005554 0.013306 0.043382
v -0.005554 0.013306 0.043382
v -0.004074 -0.012999 0.043382
v -0.003332 -0.013171 0.043382
v -0.004074 -0.013702 0.044063
v -0.004074 -0.013757 0.044118
v -0.003332 -0.013935 0.044152
v -0.004783 0.012759 0.044152
v -0.004812 0.013556 0.043382
v -0.004812 0.012961 0.043949
v -0.004812 0.013556 0.043382
v -0.002591 -0.013299 0.043382
v -0.003332 -0.013921 0.044118
v -0.002591 -0.014060 0.044152
v -0.004206 0.012928 0.044152
v -0.004279 0.013703 0.043382
v -0.004074 0.013000 0.044118
v -0.004279 0.013703 0.043382
v -0.001850 -0.013385 0.043382
v -0.002591 -0.013702 0.043781
v -0.002591 -0.014041 0.044118
v -0.001787 -0.014152 0.044152
v -0.004085 0.012961 0.044152
v -0.004074 0.013703 0.043437
v -0.004074 0.013758 0.043382
v -0.004074 0.012964 0.044152
v -0.003949 0.012995 0.044152
v -0.004074 0.013758 0.043382
v -0.001111 -0.013432 0.043382
v -0.001850 -0.014124 0.044118
v -0.001111 -0.014190 0.044152
v -0.003332 0.013172 0.044118
v -0.003332 0.013919 0.043382
v -0.003332 0.013703 0.043597
v -0.003332 0.013136 0.044152
v -0.003332 0.013919 0.043382
v -0.000372 -0.013435 0.043382
v -0.000372 -0.014171 0.044118
v -0.001111 -0.014166 0.044118
v -0.001035 -0.014193 0.044152
v -0.003257 0.013150 0.044152
v -0.002591 0.013300 0.044118
v -0.002591 0.013703 0.043719
v -0.002591 0.014042 0.043382
v -0.002591 0.014042 0.043382
v 0.000369 -0.013399 0.043382
v 0.000369 -0.014135 0.044118
v 0.000434 -0.014163 0.044152
v -0.000299 -0.014196 0.044152
v -0.000372 -0.014199 0.044152
v -0.002591 0.013264 0.044152
v -0.002531 0.013272 0.044152
v -0.001850 0.013353 0.044152
v -0.001852 0.014125 0.043382
v 0.001111 -0.013321 0.043382
v 0.001111 -0.014063 0.044118
v 0.001111 -0.014096 0.044152
v -0.001111 0.013397 0.044152
v -0.001111 0.013703 0.043847
v -0.001111 0.014167 0.043382
v -0.001111 0.014167 0.043382
v 0.001849 -0.013202 0.043382
v 0.001849 -0.013949 0.044118
v 0.001849 -0.013982 0.044152
v -0.001062 0.013400 0.044152
v -0.000372 0.014172 0.043382
v -0.000372 0.013406 0.044152
v 0.002591 -0.013038 0.043382
v 0.002591 -0.013829 0.044152
v 0.001890 -0.013974 0.044152
v 0.000369 0.014136 0.043382
v 0.000369 0.014136 0.043382
v -0.000326 0.013406 0.044152
v 0.000369 0.013372 0.044152
v 0.003332 -0.012827 0.043382
v 0.003332 -0.013632 0.044152
v 0.002937 -0.013738 0.044152
v 0.001111 0.014061 0.043382
v 0.000418 0.013370 0.044152
v 0.001111 0.014061 0.043382
v 0.004074 -0.013355 0.044118
v 0.004074 -0.013391 0.044152
v 0.003411 -0.013607 0.044152
v 0.004074 -0.012571 0.043382
v 0.001849 0.013947 0.043382
v 0.001173 0.013292 0.044152
v 0.001849 0.013947 0.043382
v 0.004812 -0.013066 0.044118
v 0.004117 -0.013374 0.044152
v 0.004812 -0.012263 0.043382
v 0.002591 0.013795 0.043382
v 0.001849 0.013181 0.044152
v 0.002017 0.013147 0.044152
v 0.005067 -0.012988 0.044152
v 0.004831 -0.013094 0.044152
v 0.004812 -0.013102 0.044152
v 0.004902 -0.012222 0.043382
v 0.005554 -0.012763 0.044152
v 0.002935 0.013703 0.043382
v 0.003332 0.013597 0.043382
v 0.002591 0.013020 0.044152
v 0.005554 -0.011899 0.043382
v 0.005554 -0.012222 0.043667
v 0.006311 -0.012360 0.044152
v 0.004074 0.013353 0.043382
v 0.004074 0.013353 0.043382
v 0.002802 0.012961 0.044152
v 0.003332 0.012814 0.044152
v 0.006295 -0.012222 0.044022
v 0.006295 -0.011477 0.043382
v 0.006504 -0.012247 0.044152
v 0.004074 0.012561 0.044152
v 0.004812 0.013064 0.043382
v 0.004812 0.013064 0.043382
v 0.007037 -0.010983 0.043382
v 0.007037 -0.011480 0.043789
v 0.007037 -0.011874 0.044118
v 0.006544 -0.012222 0.044152
v 0.004802 0.012262 0.044152
v 0.005042 0.012961 0.043382
v 0.005042 0.012961 0.043382
v 0.007775 -0.011394 0.044152
v 0.007659 -0.011480 0.044152
v 0.007361 -0.010739 0.043382
v 0.007532 -0.011569 0.044152
v 0.007037 -0.011913 0.044152
v 0.004891 0.012220 0.044152
v 0.005554 0.012725 0.043382
v 0.005554 0.012725 0.043382
v 0.007775 -0.010739 0.043635
v 0.007821 -0.011358 0.044152
v 0.007775 -0.010411 0.043382
v 0.005589 0.011881 0.044152
v 0.006295 0.012331 0.043382
v 0.006295 0.012331 0.043382
v 0.008538 -0.010775 0.044152
v 0.008249 -0.010000 0.043382
v 0.006330 0.011462 0.044152
v 0.006479 0.012223 0.043382
v 0.008560 -0.010755 0.044152
v 0.008517 -0.009747 0.043382
v 0.008517 -0.010000 0.043563
v 0.007037 0.010990 0.044152
v 0.007037 0.011873 0.043382
v 0.007037 0.011873 0.043382
v 0.009258 -0.010097 0.044152
v 0.008996 -0.009258 0.043382
v 0.009258 -0.010000 0.044082
v 0.007378 0.010740 0.044152
v 0.007599 0.011481 0.043382
v 0.007597 0.011481 0.043382
v 0.009307 -0.010000 0.044118
v 0.009353 -0.010000 0.044152
v 0.009258 -0.008967 0.043382
v 0.009258 -0.009258 0.043574
v 0.007775 0.011351 0.043382
v 0.007811 0.010401 0.044152
v 0.007775 0.011351 0.043382
v 0.010000 -0.009286 0.044152
v 0.009634 -0.008517 0.043382
v 0.010000 -0.009258 0.044133
v 0.008517 0.010748 0.043382
v 0.008271 0.009998 0.044152
v 0.008517 0.010748 0.043382
v 0.010024 -0.009258 0.044152
v 0.010000 -0.008517 0.043669
v 0.010000 -0.008034 0.043382
v 0.008517 0.009768 0.044152
v 0.009258 0.010048 0.043382
v 0.009258 0.010048 0.043382
v 0.010600 -0.008517 0.044152
v 0.010184 -0.007775 0.043382
v 0.009023 0.009257 0.044152
v 0.009307 0.009998 0.043382
v 0.009329 0.009976 0.043382
v 0.010773 -0.008270 0.044152
v 0.010738 -0.007775 0.043845
v 0.010654 -0.007037 0.043382
v 0.009258 0.008996 0.044152
v 0.010000 0.009234 0.043382
v 0.010000 0.009234 0.043382
v 0.011079 -0.007811 0.044152
v 0.011114 -0.006295 0.043382
v 0.009664 0.008518 0.044152
v 0.010557 0.008518 0.043382
v 0.010557 0.008518 0.043382
v 0.011101 -0.007775 0.044152
v 0.011480 -0.005681 0.043382
v 0.010000 0.008076 0.044152
v 0.010219 0.007776 0.044152
v 0.010738 0.008260 0.043382
v 0.011501 -0.007101 0.044152
v 0.011553 -0.005554 0.043382
v 0.010692 0.007035 0.044152
v 0.011060 0.007776 0.043382
v 0.011060 0.007776 0.043382
v 0.011537 -0.007037 0.044152
v 0.011926 -0.004812 0.043382
v 0.011577 -0.006956 0.044152
v 0.010822 0.006829 0.044152
v 0.011155 0.006296 0.044152
v 0.011480 0.005749 0.044152
v 0.011480 0.007068 0.043382
v 0.011480 0.007068 0.043382
v 0.012232 -0.005554 0.044152
v 0.012221 -0.005579 0.044152
v 0.011910 -0.006295 0.044152
v 0.012221 -0.004129 0.043382
v 0.011572 0.005588 0.044152
v 0.011499 0.007035 0.043382
v 0.011499 0.007035 0.043382
v 0.012237 -0.005540 0.044152
v 0.012243 -0.004073 0.043382
v 0.011591 0.005555 0.044152
v 0.011872 0.006296 0.043382
v 0.011872 0.006296 0.043382
v 0.012500 -0.004812 0.044152
v 0.012508 -0.003332 0.043382
v 0.011942 0.004858 0.044152
v 0.011880 0.006280 0.043382
v 0.011964 0.004813 0.044152
v 0.012719 -0.004073 0.044152
v 0.012722 -0.002590 0.043382
v 0.012194 0.005555 0.043382
v 0.012194 0.005555 0.043382
v 0.012267 0.004108 0.044152
v 0.012895 -0.003332 0.044152
v 0.012889 -0.001852 0.043382
v 0.012221 0.005483 0.043382
v 0.012221 0.005483 0.043382
v 0.012281 0.004072 0.044152
v 0.012963 -0.002954 0.044152
v 0.013025 -0.002599 0.044152
v 0.012992 -0.002785 0.044152
v 0.012963 -0.001421 0.043382
v 0.012462 0.004813 0.043382
v 0.012462 0.004813 0.043382
v 0.012543 0.003333 0.044152
v 0.013114 -0.001852 0.044152
v 0.013014 -0.001110 0.043382
v 0.012687 0.004069 0.043382
v 0.012741 0.002650 0.044152
v 0.013160 -0.001110 0.044152
v 0.013092 -0.000369 0.043382
v 0.012757 0.002592 0.044152
v 0.012860 0.003333 0.043382
v 0.012860 0.003333 0.043382
v 0.013130 0.000370 0.043382
v 0.013165 -0.000369 0.044152
v 0.012900 0.001958 0.044152
v 0.012963 0.002761 0.043382
v 0.012925 0.001850 0.044152
v 0.013125 0.001109 0.043382
v 0.013125 0.001109 0.043382
v 0.013128 0.000370 0.044152
v 0.012992 0.002592 0.043382
v 0.012963 0.001628 0.044152
v 0.013079 0.001850 0.043382
v 0.013079 0.001850 0.043382
v 0.013046 0.001109 0.044152
v 0.013041 0.001145 0.044152
f 1 2 3
f 1 3 4
f 1 4 5
f 1 5 6
f 1 6 7
f 1 7 2
f 2 7 8
f 2 8 9
f 2 9 3
f 3 9 10
f 3 10 21
f 3 21 30
f 3 30 37
f 3 37 45
f 3 45 54
f 3 54 66
f 3 66 74
f 3 74 84
f 3 84 92
f 3 92 99
f 3 99 108
f 3 108 118
f 3 118 123
f 3 123 131
f 3 131 139
f 3 139 148
f 3 148 158
f 3 158 169
f 3 169 177
f 3 177 184
f 3 184 192
f 3 192 201
f 3 201 212
f 3 212 220
f 3 220 228
f 3 228 235
f 3 235 243
f 3 243 252
f 3 252 259
f 3 259 269
f 3 269 277
f 3 277 286
f 3 286 295
f 3 295 302
f 3 302 307
f 3 307 313
f 3 313 321
f 3 321 328
f 3 328 332
f 3 332 341
f 3 341 347
f 3 347 355
f 3 355 362
f 3 362 370
f 3 370 376
f 3 376 380
f 3 380 386
f 3 386 392
f 3 392 399
f 3 399 405
f 3 405 411
f 3 411 416
f 3 416 422
f 3 422 427
f 3 427 432
f 3 432 437
f 3 437 445
f 3 445 452
f 3 452 457
f 3 457 461
f 3 461 466
f 3 466 471
f 3 471 478
f 3 478 482
f 3 482 488
f 3 488 492
f 3 492 497
f 3 497 499
f 3 499 494
f 3 494 489
f 3 489 485
f 3 485 481
f 3 481 476
f 3 476 469
f 3 469 464
f 3 464 459
f 3 459 454
f 3 454 449
f 3 449 439
f 3 439 434
f 3 434 429
f 3 429 424
f 3 424 419
f 3 419 413
f 3 413 408
f 3 408 401
f 3 401 395
f 3 395 388
f 3 388 382
f 3 382 378
f 3 378 373
f 3 373 365
f 3 365 356
f 3 356 351
f 3 351 343
f 3 343 338
f 3 338 331
f 3 331 325
f 3 325 316
f 3 316 309
f 3 309 303
f 3 303 296
f 3 296 287
f 3 287 278
f 3 278 270
f 3 270 260
f 3 260 253
f 3 253 245
f 3 245 244
f 3 244 236
f 3 236 229
f 3 229 221
f 3 221 213
f 3 213 202
f 3 202 193
f 3 193 186
f 3 186 178
f 3 178 170
f 3 170 159
f 3 159 151
f 3 151 149
f 3 149 141
f 3 141 133
f 3 133 125
f 3 125 124
f 3 124 114
f 3 114 113
f 3 113 112
f 3 112 103
f 3 103 93
f 3 93 85
f 3 85 75
f 3 75 67
f 3 67 56
f 3 56 55
f 3 55 46
f 3 46 38
f 3 38 31
f 3 31 22
f 3 22 11
f 3 11 5
f 3 5 4
f 5 11 12
f 5 12 6
f 6 13 7
f 6 12 14
f 6 14 13
f 7 13 15
f 7 15 16
f 7 16 8
f 8 16 17
f 8 17 18
f 8 18 19
f 8 19 9
f 9 20 21
f 9 21 10
f 9 19 20
f 11 22 23
f 11 23 12
f 12 23 24
f 12 24 25
f 12 25 14
f 13 26 15
f 13 14 26
f 14 25 24
f 14 24 33
f 14 33 41
f 14 41 40
f 14 40 50
f 14 50 49
f 14 49 60
f 14 60 59
f 14 59 69
f 14 69 70
f 14 70 78
f 14 78 88
f 14 88 87
f 14 87 96
f 14 96 106
f 14 106 117
f 14 117 128
f 14 128 136
f 14 136 144
f 14 144 153
f 14 153 163
f 14 163 172
f 14 172 181
f 14 181 188
f 14 188 196
f 14 196 206
f 14 206 215
f 14 215 224
f 14 224 223
f 14 223 231
f 14 231 239
f 14 239 248
f 14 248 255
f 14 255 263
f 14 263 272
f 14 272 281
f 14 281 291
f 14 291 290
f 14 290 289
f 14 289 298
f 14 298 305
f 14 305 311
f 14 311 310
f 14 310 318
f 14 318 317
f 14 317 324
f 14 324 323
f 14 323 330
f 14 330 337
f 14 337 336
f 14 336 335
f 14 335 339
f 14 339 345
f 14 345 352
f 14 352 359
f 14 359 367
f 14 367 366
f 14 366 364
f 14 364 363
f 14 363 372
f 14 372 377
f 14 377 381
f 14 381 387
f 14 387 394
f 14 394 400
f 14 400 406
f 14 406 412
f 14 412 417
f 14 417 423
f 14 423 428
f 14 428 433
f 14 433 438
f 14 438 440
f 14 440 448
f 14 448 447
f 14 447 446
f 14 446 453
f 14 453 458
f 14 458 463
f 14 463 468
f 14 468 473
f 14 473 475
f 14 475 474
f 14 474 480
f 14 480 484
f 14 484 490
f 14 490 496
f 14 496 501
f 14 501 502
f 14 502 498
f 14 498 493
f 14 493 491
f 14 491 486
f 14 486 483
f 14 483 479
f 14 479 472
f 14 472 467
f 14 467 462
f 14 462 460
f 14 460 455
f 14 455 450
f 14 450 443
f 14 443 442
f 14 442 441
f 14 441 435
f 14 435 431
f 14 431 430
f 14 430 425
f 14 425 420
f 14 420 414
f 14 414 409
f 14 409 404
f 14 404 398
f 14 398 390
f 14 390 384
f 14 384 379
f 14 379 374
f 14 374 368
f 14 368 360
f 14 360 353
f 14 353 349
f 14 349 348
f 14 348 342
f 14 342 334
f 14 334 333
f 14 333 327
f 14 327 320
f 14 320 315
f 14 315 314
f 14 314 308
f 14 308 306
f 14 306 299
f 14 299 294
f 14 294 293
f 14 293 292
f 14 292 282
f 14 282 276
f 14 276 268
f 14 268 267
f 14 267 264
f 14 264 256
f 14 256 249
f 14 249 240
f 14 240 233
f 14 233 232
f 14 232 225
f 14 225 216
f 14 216 209
f 14 209 208
f 14 208 207
f 14 207 197
f 14 197 189
f 14 189 182
f 14 182 173
f 14 173 167
f 14 167 165
f 14 165 166
f 14 166 164
f 14 164 154
f 14 154 145
f 14 145 140
f 14 140 132
f 14 132 129
f 14 129 120
f 14 120 119
f 14 119 109
f 14 109 107
f 14 107 97
f 14 97 89
f 14 89 80
f 14 80 79
f 14 79 71
f 14 71 63
f 14 63 62
f 14 62 61
f 14 61 51
f 14 51 42
f 14 42 34
f 14 34 27
f 14 27 18
f 14 18 17
f 14 17 16
f 14 16 15
f 14 15 26
f 18 27 19
f 19 27 28
f 19 28 20
f 20 28 29
f 20 29 30
f 20 30 21
f 22 31 32
f 22 32 23
f 23 32 33
f 23 33 24
f 27 34 28
f 28 34 42
f 28 42 35
f 28 35 29
f 29 36 37
f 29 37 30
f 29 35 36
f 31 38 39
f 31 39 32
f 32 39 40
f 32 40 41
f 32 41 33
f 35 42 51
f 35 51 43
f 35 43 36
f 36 43 44
f 36 44 45
f 36 45 37
f 38 46 47
f 38 47 48
f 38 48 39
f 39 49 50
f 39 50 40
f 39 48 49
f 43 51 52
f 43 52 44
f 44 53 45
f 44 52 53
f 45 53 54
f 46 55 47
f 47 55 56
f 47 56 57
f 47 57 58
f 47 58 48
f 48 58 59
f 48 59 60
f 48 60 49
f 51 61 52
f 52 61 62
f 52 62 63
f 52 63 64
f 52 64 65
f 52 65 53
f 53 65 66
f 53 66 54
f 56 67 68
f 56 68 57
f 57 69 59
f 57 59 58
f 57 68 70
f 57 70 69
f 63 71 64
f 64 71 79
f 64 79 72
f 64 72 73
f 64 73 65
f 65 73 74
f 65 74 66
f 67 75 76
f 67 76 77
f 67 77 68
f 68 77 78
f 68 78 70
f 72 79 80
f 72 80 81
f 72 81 82
f 72 82 83
f 72 83 73
f 73 83 84
f 73 84 74
f 75 85 76
f 76 86 87
f 76 87 88
f 76 88 77
f 76 85 86
f 77 88 78
f 80 89 90
f 80 90 81
f 81 90 82
f 82 91 99
f 82 99 92
f 82 92 84
f 82 84 83
f 82 90 91
f 85 93 86
f 86 93 94
f 86 94 95
f 86 95 87
f 87 95 96
f 89 97 90
f 90 97 98
f 90 98 91
f 91 98 100
f 91 100 101
f 91 101 102
f 91 102 99
f 93 103 94
f 94 103 104
f 94 104 95
f 95 105 106
f 95 106 96
f 95 104 105
f 97 107 98
f 98 107 100
f 99 102 108
f 100 107 109
f 100 109 110
f 100 110 101
f 101 110 102
f 102 111 108
f 102 110 111
f 103 112 104
f 104 112 113
f 104 113 114
f 104 114 105
f 105 114 115
f 105 115 116
f 105 116 117
f 105 117 106
f 108 111 118
f 109 119 110
f 110 119 120
f 110 120 111
f 111 120 121
f 111 121 122
f 111 122 123
f 111 123 118
f 114 124 115
f 115 124 116
f 116 124 125
f 116 125 126
f 116 126 127
f 116 127 128
f 116 128 117
f 120 129 121
f 121 129 122
f 122 130 131
f 122 131 123
f 122 129 132
f 122 132 130
f 125 133 126
f 126 133 127
f 127 133 134
f 127 134 135
f 127 135 136
f 127 136 128
f 130 137 138
f 130 138 131
f 130 132 137
f 131 138 139
f 132 140 137
f 133 141 134
f 134 142 135
f 134 141 142
f 135 143 136
f 135 142 143
f 136 143 144
f 137 140 145
f 137 145 138
f 138 146 147
f 138 147 148
f 138 148 139
f 138 145 146
f 141 149 150
f 141 150 142
f 142 150 143
f 143 150 151
f 143 151 152
f 143 152 153
f 143 153 144
f 145 154 146
f 146 155 147
f 146 154 156
f 146 156 155
f 147 157 158
f 147 158 148
f 147 155 157
f 149 151 150
f 151 159 160
f 151 160 161
f 151 161 152
f 152 161 162
f 152 162 163
f 152 163 153
f 154 164 156
f 155 165 157
f 155 156 164
f 155 164 166
f 155 166 165
f 157 165 167
f 157 167 168
f 157 168 169
f 157 169 158
f 159 170 160
f 160 170 162
f 160 162 161
f 162 170 171
f 162 171 172
f 162 172 163
f 167 173 174
f 167 174 175
f 167 175 168
f 168 175 176
f 168 176 177
f 168 177 169
f 170 178 179
f 170 179 171
f 171 179 180
f 171 180 181
f 171 181 172
f 173 182 174
f 174 182 183
f 174 183 176
f 174 176 175
f 176 183 184
f 176 184 177
f 178 185 180
f 178 180 179
f 178 186 185
f 180 187 181
f 180 185 187
f 181 187 188
f 182 189 183
f 183 190 191
f 183 191 192
f 183 192 184
f 183 189 190
f 185 186 187
f 186 193 194
f 186 194 187
f 187 194 195
f 187 195 196
f 187 196 188
f 189 197 190
f 190 198 191
f 190 197 199
f 190 199 198
f 191 198 200
f 191 200 201
f 191 201 192
f 193 202 203
f 193 203 204
f 193 204 195
f 193 195 194
f 195 205 196
f 195 204 205
f 196 205 206
f 197 207 199
f 198 199 208
f 198 208 209
f 198 209 210
f 198 210 200
f 199 207 208
f 200 210 211
f 200 211 212
f 200 212 201
f 202 213 203
f 203 205 204
f 203 213 214
f 203 214 205
f 205 214 215
f 205 215 206
f 209 216 211
f 209 211 210
f 211 216 217
f 211 217 218
f 211 218 219
f 211 219 220
f 211 220 212
f 213 221 214
f 214 222 223
f 214 223 224
f 214 224 215
f 214 221 222
f 216 225 226
f 216 226 217
f 217 226 218
f 218 226 219
f 219 227 228
f 219 228 220
f 219 226 227
f 221 229 222
f 222 229 230
f 222 230 231
f 222 231 223
f 225 232 226
f 226 232 233
f 226 233 234
f 226 234 227
f 227 234 235
f 227 235 228
f 229 236 237
f 229 237 230
f 230 238 239
f 230 239 231
f 230 237 238
f 233 240 241
f 233 241 234
f 234 241 242
f 234 242 243
f 234 243 235
f 236 244 237
f 237 244 245
f 237 245 246
f 237 246 238
f 238 246 247
f 238 247 239
f 239 247 248
f 240 249 241
f 241 249 242
f 242 250 252
f 242 252 243
f 242 249 251
f 242 251 250
f 245 253 254
f 245 254 246
f 246 254 247
f 247 254 248
f 248 254 255
f 249 256 250
f 249 250 251
f 250 257 259
f 250 259 252
f 250 256 258
f 250 258 257
f 253 260 261
f 253 261 254
f 254 261 262
f 254 262 255
f 255 262 263
f 256 264 258
f 257 258 265
f 257 265 266
f 257 266 269
f 257 269 259
f 258 264 267
f 258 267 268
f 258 268 265
f 260 270 271
f 260 271 262
f 260 262 261
f 262 271 263
f 263 271 272
f 265 268 273
f 265 273 266
f 266 274 277
f 266 277 269
f 266 273 275
f 266 275 274
f 268 276 273
f 270 278 279
f 270 279 280
f 270 280 271
f 271 280 272
f 272 280 281
f 273 276 282
f 273 282 283
f 273 283 275
f 274 275 283
f 274 283 284
f 274 284 285
f 274 285 286
f 274 286 277
f 278 287 288
f 278 288 279
f 279 288 289
f 279 289 290
f 279 290 291
f 279 291 280
f 280 291 281
f 282 292 283
f 283 292 293
f 283 293 294
f 283 294 284
f 284 294 285
f 285 295 286
f 285 294 295
f 287 296 297
f 287 297 288
f 288 297 289
f 289 297 298
f 294 299 295
f 295 300 301
f 295 301 302
f 295 299 300
f 296 303 304
f 296 304 297
f 297 304 305
f 297 305 298
f 299 306 300
f 300 306 301
f 301 307 302
f 301 306 308
f 301 308 307
f 303 309 310
f 303 310 304
f 304 310 311
f 304 311 305
f 307 312 313
f 307 308 314
f 307 314 315
f 307 315 312
f 309 316 317
f 309 317 318
f 309 318 310
f 312 319 321
f 312 321 313
f 312 315 320
f 312 320 319
f 316 322 323
f 316 323 324
f 316 324 317
f 316 325 322
f 319 326 328
f 319 328 321
f 319 320 327
f 319 327 326
f 322 329 330
f 322 330 323
f 322 325 329
f 325 331 329
f 326 332 328
f 326 327 333
f 326 333 334
f 326 334 332
f 329 335 336
f 329 336 337
f 329 337 330
f 329 331 335
f 331 338 339
f 331 339 335
f 332 340 341
f 332 334 342
f 332 342 340
f 338 343 344
f 338 344 339
f 339 344 345
f 340 342 341
f 341 346 347
f 341 342 348
f 341 348 349
f 341 349 346
f 343 350 345
f 343 345 344
f 343 351 350
f 345 350 352
f 346 349 353
f 346 353 354
f 346 354 355
f 346 355 347
f 350 351 352
f 351 356 357
f 351 357 358
f 351 358 359
f 351 359 352
f 353 360 354
f 354 361 362
f 354 362 355
f 354 360 361
f 356 363 364
f 356 364 357
f 356 365 363
f 357 364 358
f 358 364 366
f 358 366 367
f 358 367 359
f 360 368 369
f 360 369 361
f 361 369 370
f 361 370 362
f 363 365 371
f 363 371 372
f 365 373 371
f 368 374 369
f 369 375 376
f 369 376 370
f 369 374 375
f 371 373 377
f 371 377 372
f 373 378 377
f 374 379 375
f 375 379 380
f 375 380 376
f 377 378 381
f 378 382 383
f 378 383 381
f 379 384 385
f 379 385 380
f 380 385 386
f 381 383 387
f 382 388 389
f 382 389 383
f 383 389 387
f 384 390 391
f 384 391 385
f 385 391 386
f 386 391 392
f 387 389 393
f 387 393 394
f 388 395 396
f 388 396 393
f 388 393 389
f 390 397 391
f 390 398 397
f 391 397 399
f 391 399 392
f 393 396 394
f 394 396 400
f 395 401 402
f 395 402 396
f 396 402 400
f 397 398 403
f 397 403 405
f 397 405 399
f 398 404 403
f 400 402 406
f 401 407 406
f 401 406 402
f 401 408 407
f 403 404 409
f 403 409 410
f 403 410 411
f 403 411 405
f 406 407 412
f 407 408 412
f 408 413 412
f 409 414 410
f 410 415 416
f 410 416 411
f 410 414 415
f 412 413 417
f 413 418 417
f 413 419 418
f 414 420 421
f 414 421 416
f 414 416 415
f 416 421 422
f 417 418 423
f 418 419 423
f 419 424 423
f 420 425 421
f 421 425 426
f 421 426 427
f 421 427 422
f 423 424 428
f 424 429 428
f 425 430 426
f 426 430 431
f 426 431 432
f 426 432 427
f 428 429 433
f 429 434 433
f 431 435 436
f 431 436 432
f 432 436 437
f 433 434 438
f 434 439 440
f 434 440 438
f 435 441 436
f 436 441 442
f 436 442 443
f 436 443 444
f 436 444 445
f 436 445 437
f 439 446 447
f 439 447 448
f 439 448 440
f 439 449 446
f 443 450 444
f 444 450 455
f 444 455 451
f 444 451 452
f 444 452 445
f 446 449 454
f 446 454 453
f 451 456 457
f 451 457 452
f 451 455 456
f 453 454 458
f 454 459 458
f 455 460 456
f 456 461 457
f 456 460 462
f 456 462 461
f 458 459 463
f 459 464 463
f 461 462 465
f 461 465 466
f 462 467 465
f 463 464 468
f 464 469 468
f 465 467 472
f 465 472 470
f 465 470 471
f 465 471 466
f 468 469 473
f 469 474 475
f 469 475 473
f 469 476 474
f 470 477 478
f 470 478 471
f 470 472 477
f 472 479 477
f 474 476 481
f 474 481 480
f 477 479 482
f 477 482 478
f 479 483 482
f 480 481 485
f 480 485 484
f 482 483 486
f 482 486 487
f 482 487 488
f 484 485 489
f 484 489 490
f 486 491 487
f 487 492 488
f 487 491 493
f 487 493 492
f 489 494 490
f 490 495 496
f 490 494 495
f 492 493 497
f 493 498 497
f 494 499 500
f 494 500 495
f 495 500 496
f 496 500 501
f 497 498 502
f 497 502 501
f 497 501 500
f 497 500 499
