v 0.000371 -0.014784 0.044853
v 0.001110 -0.014779 0.044853
v 0.001110 -0.014444 0.045189
v 0.000371 -0.014444 0.045193
v -0.000368 -0.014750 0.044853
v 0.001851 -0.014694 0.044853
v 0.002590 -0.013919 0.045588
v 0.001851 -0.014001 0.045588
v 0.001110 -0.014045 0.045588
v 0.000371 -0.014048 0.045588
v 0.000368 -0.014047 0.045589
v -0.000368 -0.014444 0.045159
v -0.001110 -0.014679 0.044853
v 0.002590 -0.014548 0.044853
v 0.003332 -0.013797 0.045588
v 0.002587 -0.013918 0.045589
v 0.003332 -0.013795 0.045589
v 0.001848 -0.014000 0.045589
v 0.001107 -0.014044 0.045589
v -0.000371 -0.014012 0.045589
v -0.001110 -0.014444 0.045087
v -0.001852 -0.014570 0.044853
v 0.003005 -0.014444 0.044853
v 0.004073 -0.013633 0.045588
v 0.003757 -0.013703 0.045588
v 0.003757 -0.013702 0.045589
v -0.001110 -0.013938 0.045589
v -0.001110 -0.013939 0.045588
v -0.001852 -0.014444 0.044978
v -0.002484 -0.014444 0.044853
v 0.003332 -0.014361 0.044853
v 0.004812 -0.013426 0.045589
v 0.004073 -0.013632 0.045589
v -0.001852 -0.013824 0.045589
v -0.001852 -0.013825 0.045588
v -0.002593 -0.013667 0.045589
v -0.002590 -0.014422 0.044853
v 0.004073 -0.014132 0.044853
v 0.005554 -0.013177 0.045588
v 0.005551 -0.013177 0.045589
v -0.003332 -0.014234 0.044853
v -0.003332 -0.013468 0.045589
v -0.003332 -0.013703 0.045363
v 0.004812 -0.013860 0.044853
v 0.006097 -0.012961 0.045589
v -0.004074 -0.014002 0.044853
v -0.004074 -0.013223 0.045589
v -0.004074 -0.013703 0.045137
v 0.005180 -0.013703 0.044853
v 0.006296 -0.012881 0.045588
v 0.006296 -0.012880 0.045589
v -0.004813 -0.013728 0.044853
v -0.004736 -0.012962 0.045589
v -0.004813 -0.013703 0.044876
v 0.005554 -0.013540 0.044853
v 0.007035 -0.012535 0.045588
v 0.007035 -0.012533 0.045589
v -0.004873 -0.013703 0.044853
v -0.004815 -0.012931 0.045589
v 0.006296 -0.013170 0.044853
v 0.007621 -0.012222 0.045588
v 0.007618 -0.012222 0.045589
v -0.005554 -0.013404 0.044853
v -0.005554 -0.012962 0.045253
v -0.005554 -0.012587 0.045589
v 0.006664 -0.012962 0.044853
v 0.007776 -0.012135 0.045588
v 0.007776 -0.012134 0.045589
v -0.006296 -0.013032 0.044853
v -0.006239 -0.012221 0.045589
v 0.007035 -0.012745 0.044853
v 0.008518 -0.011676 0.045588
v 0.008515 -0.011675 0.045589
v -0.006296 -0.012962 0.044914
v -0.006419 -0.012962 0.044853
v -0.006296 -0.012222 0.045561
v -0.006296 -0.012188 0.045589
v 0.007776 -0.012260 0.044853
v 0.008801 -0.011481 0.045588
v 0.008799 -0.011481 0.045589
v -0.007035 -0.012601 0.044853
v -0.007035 -0.012222 0.045175
v -0.007035 -0.011726 0.045589
v 0.007831 -0.012222 0.044853
v 0.009257 -0.011151 0.045588
v 0.009257 -0.011150 0.045589
v -0.007613 -0.012222 0.044853
v -0.007387 -0.011481 0.045589
v -0.007389 -0.011481 0.045588
v -0.007777 -0.012108 0.044853
v 0.008518 -0.011703 0.044853
v 0.009775 -0.010740 0.045588
v 0.009775 -0.010740 0.045589
v -0.007777 -0.011194 0.045589
v -0.007777 -0.011481 0.045362
v -0.008518 -0.011547 0.044853
v 0.008788 -0.011481 0.044853
v 0.009998 -0.010552 0.045588
v 0.009998 -0.010551 0.045589
v -0.008336 -0.010739 0.045589
v -0.008518 -0.011481 0.044905
v -0.008597 -0.011481 0.044853
v 0.009257 -0.011068 0.044853
v 0.010604 -0.010000 0.045588
v 0.010601 -0.010000 0.045589
v -0.008518 -0.010581 0.045589
v -0.008518 -0.010583 0.045588
v -0.008518 -0.010740 0.045472
v -0.009257 -0.010902 0.044853
v 0.009603 -0.010740 0.044853
v 0.010740 -0.009866 0.045588
v 0.010740 -0.009863 0.045589
v -0.009134 -0.009997 0.045589
v -0.009134 -0.010000 0.045588
v -0.009257 -0.010740 0.044972
v -0.009429 -0.010740 0.044853
v 0.009998 -0.010336 0.044853
v 0.011315 -0.009258 0.045588
v 0.011315 -0.009258 0.045589
v -0.009257 -0.009871 0.045589
v -0.009257 -0.010000 0.045501
v -0.009999 -0.010158 0.044853
v 0.010307 -0.010000 0.044853
v 0.011479 -0.009072 0.045588
v 0.011479 -0.009069 0.045589
v -0.009816 -0.009256 0.045589
v -0.009816 -0.009258 0.045588
v -0.009999 -0.010000 0.044962
v -0.010143 -0.010000 0.044853
v 0.010740 -0.009486 0.044853
v 0.011937 -0.008520 0.045588
v 0.011934 -0.008520 0.045589
v -0.009999 -0.009038 0.045589
v -0.009999 -0.009258 0.045450
v -0.010740 -0.009292 0.044853
v 0.010920 -0.009258 0.044853
v 0.012221 -0.008143 0.045588
v 0.012221 -0.008140 0.045589
v -0.010408 -0.008515 0.045589
v -0.010740 -0.009258 0.044874
v -0.011308 -0.008518 0.044853
v 0.011454 -0.008520 0.044853
v 0.012482 -0.007778 0.045588
v 0.012480 -0.007778 0.045589
v -0.010740 -0.008042 0.045589
v -0.010740 -0.008520 0.045319
v -0.010915 -0.007777 0.045589
v -0.011479 -0.008255 0.044853
v 0.011479 -0.008481 0.044853
v 0.012962 -0.007035 0.045588
v 0.012957 -0.007042 0.045589
v -0.011357 -0.007036 0.045589
v -0.011479 -0.007778 0.045110
v -0.011779 -0.007778 0.044853
v 0.011921 -0.007778 0.044853
v 0.012962 -0.007033 0.045589
v 0.013377 -0.006297 0.045588
v 0.013377 -0.006297 0.045589
v -0.011479 -0.006803 0.045589
v -0.011479 -0.007037 0.045482
v -0.012191 -0.007037 0.044853
v 0.012221 -0.007238 0.044853
v 0.013742 -0.005556 0.045588
v 0.012327 -0.007037 0.044853
v 0.013701 -0.005636 0.045589
v -0.011738 -0.006296 0.045589
v -0.012221 -0.006976 0.044853
v 0.014001 -0.004816 0.045588
v 0.014001 -0.004816 0.045589
v 0.013739 -0.005556 0.045589
v 0.012679 -0.006297 0.044853
v 0.012962 -0.005604 0.044853
v 0.012981 -0.005556 0.044853
v -0.012063 -0.005555 0.045589
v -0.012221 -0.006297 0.045150
v -0.012545 -0.006297 0.044853
v 0.014200 -0.004075 0.045588
v 0.013235 -0.004815 0.044853
v 0.013442 -0.004075 0.044853
v 0.014197 -0.004075 0.045589
v -0.012221 -0.005126 0.045589
v -0.012851 -0.005556 0.044853
v 0.014356 -0.003334 0.045588
v 0.014356 -0.003332 0.045589
v 0.013609 -0.003334 0.044853
v -0.012333 -0.004815 0.045589
v -0.012963 -0.005237 0.044853
v 0.014364 -0.003294 0.045588
v 0.014358 -0.003318 0.045589
v 0.013614 -0.003294 0.044853
v 0.013701 -0.003294 0.044939
v -0.012556 -0.004074 0.045589
v -0.012963 -0.004816 0.044991
v -0.013107 -0.004815 0.044853
v 0.014266 -0.003294 0.045589
v -0.013492 -0.003294 0.044853
v -0.012734 -0.003332 0.045589
v -0.012963 -0.004075 0.045197
v -0.013317 -0.004075 0.044853
v -0.012625 -0.003294 0.045589
v -0.013483 -0.003334 0.044853
v -0.012963 -0.003334 0.045366
v -0.012742 -0.003294 0.045589
f 1 2 3
f 1 3 4
f 1 4 5
f 1 5 13
f 1 13 22
f 1 22 30
f 1 30 37
f 1 37 41
f 1 41 46
f 1 46 52
f 1 52 58
f 1 58 63
f 1 63 69
f 1 69 75
f 1 75 81
f 1 81 87
f 1 87 90
f 1 90 96
f 1 96 102
f 1 102 109
f 1 109 116
f 1 116 122
f 1 122 129
f 1 129 135
f 1 135 141
f 1 141 148
f 1 148 154
f 1 154 161
f 1 161 167
f 1 167 176
f 1 176 182
f 1 182 187
f 1 187 194
f 1 194 199
f 1 199 201
f 1 201 196
f 1 196 190
f 1 190 185
f 1 185 179
f 1 179 178
f 1 178 173
f 1 173 172
f 1 172 171
f 1 171 164
f 1 164 162
f 1 162 155
f 1 155 149
f 1 149 142
f 1 142 136
f 1 136 130
f 1 130 123
f 1 123 117
f 1 117 110
f 1 110 103
f 1 103 97
f 1 97 91
f 1 91 84
f 1 84 78
f 1 78 71
f 1 71 66
f 1 66 60
f 1 60 55
f 1 55 49
f 1 49 44
f 1 44 38
f 1 38 31
f 1 31 23
f 1 23 14
f 1 14 6
f 1 6 2
f 2 6 7
f 2 7 8
f 2 8 3
f 3 8 9
f 3 9 4
f 4 10 11
f 4 11 12
f 4 12 5
f 4 9 10
f 5 12 13
f 6 14 15
f 6 15 7
f 7 16 18
f 7 18 8
f 7 15 17
f 7 17 16
f 8 18 19
f 8 19 9
f 9 19 11
f 9 11 10
f 11 19 18
f 11 18 16
f 11 16 17
f 11 17 26
f 11 26 33
f 11 33 32
f 11 32 40
f 11 40 45
f 11 45 51
f 11 51 57
f 11 57 62
f 11 62 68
f 11 68 73
f 11 73 80
f 11 80 86
f 11 86 93
f 11 93 99
f 11 99 105
f 11 105 112
f 11 112 119
f 11 119 125
f 11 125 132
f 11 132 138
f 11 138 144
f 11 144 151
f 11 151 156
f 11 156 158
f 11 158 165
f 11 165 170
f 11 170 169
f 11 169 180
f 11 180 184
f 11 184 189
f 11 189 195
f 11 195 200
f 11 200 197
f 11 197 192
f 11 192 186
f 11 186 181
f 11 181 174
f 11 174 166
f 11 166 159
f 11 159 152
f 11 152 147
f 11 147 145
f 11 145 139
f 11 139 133
f 11 133 126
f 11 126 120
f 11 120 113
f 11 113 106
f 11 106 100
f 11 100 94
f 11 94 88
f 11 88 83
f 11 83 77
f 11 77 70
f 11 70 65
f 11 65 59
f 11 59 53
f 11 53 47
f 11 47 42
f 11 42 36
f 11 36 34
f 11 34 27
f 11 27 20
f 11 20 12
f 12 20 13
f 13 20 21
f 13 21 22
f 14 23 24
f 14 24 25
f 14 25 15
f 15 25 26
f 15 26 17
f 20 27 28
f 20 28 21
f 21 28 22
f 22 28 29
f 22 29 30
f 23 31 24
f 24 32 33
f 24 33 26
f 24 26 25
f 24 31 32
f 27 34 35
f 27 35 28
f 28 35 29
f 29 35 30
f 30 36 37
f 30 35 36
f 31 38 32
f 32 38 39
f 32 39 40
f 34 36 35
f 36 41 37
f 36 42 43
f 36 43 41
f 38 44 39
f 39 44 45
f 39 45 40
f 41 43 46
f 42 47 48
f 42 48 46
f 42 46 43
f 44 49 50
f 44 50 45
f 45 50 51
f 46 48 52
f 47 53 54
f 47 54 52
f 47 52 48
f 49 55 50
f 50 56 57
f 50 57 51
f 50 55 56
f 52 54 58
f 53 59 54
f 54 59 58
f 55 60 56
f 56 61 57
f 56 60 61
f 57 61 62
f 58 59 63
f 59 64 63
f 59 65 64
f 60 66 67
f 60 67 61
f 61 67 68
f 61 68 62
f 63 64 69
f 64 65 69
f 65 70 69
f 66 71 67
f 67 72 68
f 67 71 72
f 68 72 73
f 69 70 74
f 69 74 75
f 70 76 74
f 70 77 76
f 71 78 72
f 72 78 79
f 72 79 80
f 72 80 73
f 74 76 75
f 75 76 81
f 76 77 82
f 76 82 81
f 77 83 82
f 78 84 79
f 79 85 86
f 79 86 80
f 79 84 85
f 81 82 87
f 82 83 87
f 83 88 89
f 83 89 90
f 83 90 87
f 84 91 85
f 85 92 93
f 85 93 86
f 85 91 92
f 88 94 89
f 89 94 95
f 89 95 90
f 90 95 96
f 91 97 92
f 92 98 93
f 92 97 98
f 93 98 99
f 94 100 101
f 94 101 96
f 94 96 95
f 96 101 102
f 97 103 98
f 98 104 99
f 98 103 104
f 99 104 105
f 100 106 107
f 100 107 108
f 100 108 101
f 101 108 102
f 102 108 109
f 103 110 104
f 104 110 111
f 104 111 112
f 104 112 105
f 106 113 114
f 106 114 107
f 107 114 115
f 107 115 109
f 107 109 108
f 109 115 116
f 110 117 111
f 111 118 119
f 111 119 112
f 111 117 118
f 113 120 114
f 114 120 121
f 114 121 116
f 114 116 115
f 116 121 122
f 117 123 118
f 118 124 119
f 118 123 124
f 119 124 125
f 120 126 127
f 120 127 128
f 120 128 121
f 121 128 122
f 122 128 129
f 123 130 124
f 124 131 125
f 124 130 131
f 125 131 132
f 126 133 127
f 127 133 134
f 127 134 129
f 127 129 128
f 129 134 135
f 130 136 131
f 131 136 137
f 131 137 138
f 131 138 132
f 133 139 140
f 133 140 135
f 133 135 134
f 135 140 141
f 136 142 137
f 137 143 138
f 137 142 143
f 138 143 144
f 139 145 146
f 139 146 140
f 140 146 141
f 141 146 145
f 141 145 147
f 141 147 148
f 142 149 150
f 142 150 143
f 143 150 151
f 143 151 144
f 147 152 153
f 147 153 148
f 148 153 154
f 149 155 150
f 150 156 151
f 150 155 157
f 150 157 158
f 150 158 156
f 152 159 160
f 152 160 154
f 152 154 153
f 154 160 161
f 155 162 157
f 157 163 158
f 157 162 164
f 157 164 163
f 158 163 165
f 159 166 161
f 159 161 160
f 161 166 167
f 163 168 169
f 163 169 170
f 163 170 165
f 163 164 171
f 163 171 172
f 163 172 173
f 163 173 168
f 166 174 175
f 166 175 167
f 167 175 176
f 168 177 169
f 168 173 178
f 168 178 179
f 168 179 177
f 169 177 180
f 174 181 182
f 174 182 176
f 174 176 175
f 177 183 184
f 177 184 180
f 177 179 185
f 177 185 183
f 181 186 182
f 182 186 187
f 183 188 184
f 183 185 188
f 184 188 189
f 185 190 191
f 185 191 188
f 186 192 193
f 186 193 187
f 187 193 194
f 188 195 189
f 188 191 190
f 188 190 196
f 188 196 203
f 188 203 200
f 188 200 195
f 192 197 198
f 192 198 194
f 192 194 193
f 194 198 199
f 196 201 202
f 196 202 203
f 197 200 203
f 197 203 202
f 197 202 199
f 197 199 198
f 199 202 201
