v -0.000370 -0.013685 0.035297
v -0.000329 -0.012948 0.034562
v 0.000371 -0.013649 0.035297
v -0.001110 -0.013680 0.035297
v -0.000969 -0.012947 0.034562
v -0.000370 -0.012963 0.034574
v 0.000371 -0.012912 0.034562
v -0.000370 -0.012950 0.034562
v 0.001112 -0.013569 0.035294
v 0.001112 -0.013571 0.035297
v -0.001851 -0.013636 0.035297
v -0.001110 -0.012946 0.034562
v 0.001112 -0.012831 0.034562
v 0.001119 -0.013570 0.035297
v 0.001852 -0.013453 0.035297
v -0.001851 -0.012899 0.034562
v -0.002565 -0.013554 0.035297
v 0.001852 -0.012706 0.034562
v 0.001852 -0.012963 0.034814
v 0.001857 -0.013452 0.035297
v -0.002593 -0.012963 0.034714
v -0.002593 -0.012809 0.034562
v -0.002593 -0.013550 0.035297
v 0.002593 -0.012535 0.034562
v 0.002593 -0.012963 0.034976
v 0.002593 -0.013293 0.035297
v -0.003321 -0.013427 0.035297
v -0.003332 -0.013423 0.035294
v -0.003332 -0.012963 0.034843
v -0.003318 -0.012678 0.034562
v 0.002597 -0.012534 0.034562
v 0.003335 -0.013088 0.035297
v -0.003332 -0.013424 0.035297
v -0.003725 -0.013334 0.035295
v -0.003332 -0.012676 0.034562
v -0.003725 -0.013117 0.035082
v 0.004081 -0.012115 0.034562
v 0.004817 -0.011884 0.034562
v 0.003699 -0.012965 0.035297
v -0.003725 -0.013319 0.035297
v -0.003725 -0.012963 0.034932
v -0.003725 -0.012581 0.034562
v 0.005555 -0.011602 0.034562
v 0.004079 -0.012834 0.035297
v 0.004074 -0.012836 0.035297
v 0.003707 -0.012963 0.035297
v -0.003725 -0.004491 0.035297
v -0.003725 -0.004491 0.034562
v 0.004814 -0.012534 0.035297
v 0.005825 -0.011481 0.034562
v 0.012013 -0.004491 0.035297
v 0.012596 -0.004491 0.034562
v 0.006295 -0.011264 0.034562
v 0.005471 -0.012222 0.035297
v 0.011963 -0.004772 0.035297
v 0.012050 -0.004491 0.035295
v 0.012460 -0.004491 0.034749
v 0.011949 -0.004816 0.035297
v 0.011671 -0.005549 0.035297
v 0.012462 -0.004816 0.034562
v 0.007036 -0.010868 0.034562
v 0.005560 -0.012178 0.035297
v 0.011668 -0.005556 0.035297
v 0.012222 -0.005321 0.034562
v 0.011481 -0.005977 0.035297
v 0.011334 -0.006297 0.035297
v 0.006295 -0.011766 0.035297
v 0.007247 -0.010741 0.034562
v 0.012106 -0.005556 0.034562
v 0.010947 -0.007023 0.035297
v 0.007778 -0.010406 0.034562
v 0.006744 -0.011481 0.035297
v 0.011689 -0.006297 0.034562
v 0.010939 -0.007038 0.035297
v 0.007036 -0.011286 0.035297
v 0.008346 -0.010000 0.034562
v 0.011481 -0.006626 0.034562
v 0.010743 -0.007365 0.035297
v 0.007754 -0.010751 0.035297
v 0.008517 -0.009869 0.034562
v 0.007778 -0.010733 0.035297
v 0.010481 -0.007779 0.035297
v 0.011206 -0.007038 0.034562
v 0.009244 -0.009262 0.034562
v 0.007781 -0.010731 0.035297
v 0.010449 -0.007824 0.035297
v 0.010000 -0.008454 0.035297
v 0.010740 -0.007665 0.034562
v 0.009247 -0.009259 0.034562
v 0.008517 -0.010091 0.035297
v 0.009950 -0.008519 0.035297
v 0.010650 -0.007779 0.034562
v 0.009259 -0.009249 0.034562
v 0.008613 -0.010000 0.035297
v 0.009334 -0.009259 0.035297
v 0.010000 -0.008524 0.034562
v 0.009259 -0.009341 0.035297
f 1 2 3
f 1 3 10
f 1 10 14
f 1 14 15
f 1 15 20
f 1 20 26
f 1 26 32
f 1 32 39
f 1 39 46
f 1 46 45
f 1 45 44
f 1 44 49
f 1 49 54
f 1 54 62
f 1 62 67
f 1 67 72
f 1 72 75
f 1 75 79
f 1 79 81
f 1 81 85
f 1 85 90
f 1 90 94
f 1 94 97
f 1 97 95
f 1 95 91
f 1 91 87
f 1 87 86
f 1 86 82
f 1 82 78
f 1 78 74
f 1 74 70
f 1 70 66
f 1 66 65
f 1 65 63
f 1 63 59
f 1 59 58
f 1 58 55
f 1 55 51
f 1 51 47
f 1 47 40
f 1 40 33
f 1 33 27
f 1 27 23
f 1 23 17
f 1 17 11
f 1 11 4
f 1 4 5
f 1 5 6
f 1 6 2
f 2 7 3
f 2 6 8
f 2 8 5
f 2 5 12
f 2 12 16
f 2 16 22
f 2 22 30
f 2 30 35
f 2 35 42
f 2 42 48
f 2 48 52
f 2 52 60
f 2 60 64
f 2 64 69
f 2 69 73
f 2 73 77
f 2 77 83
f 2 83 88
f 2 88 92
f 2 92 96
f 2 96 93
f 2 93 89
f 2 89 84
f 2 84 80
f 2 80 76
f 2 76 71
f 2 71 68
f 2 68 61
f 2 61 53
f 2 53 50
f 2 50 43
f 2 43 38
f 2 38 37
f 2 37 31
f 2 31 24
f 2 24 18
f 2 18 13
f 2 13 7
f 3 7 9
f 3 9 10
f 4 11 12
f 4 12 5
f 5 8 6
f 7 13 9
f 9 14 10
f 9 13 15
f 9 15 14
f 11 16 12
f 11 17 16
f 13 18 19
f 13 19 15
f 15 19 20
f 16 17 21
f 16 21 22
f 17 23 21
f 18 24 25
f 18 25 26
f 18 26 19
f 19 26 20
f 21 23 27
f 21 27 22
f 22 27 28
f 22 28 29
f 22 29 30
f 24 31 32
f 24 32 25
f 25 32 26
f 27 33 34
f 27 34 28
f 28 34 29
f 29 35 30
f 29 34 36
f 29 36 35
f 31 37 32
f 32 37 38
f 32 38 39
f 33 40 34
f 34 40 47
f 34 47 48
f 34 48 42
f 34 42 41
f 34 41 36
f 35 36 41
f 35 41 42
f 38 43 44
f 38 44 45
f 38 45 46
f 38 46 39
f 43 49 44
f 43 50 49
f 47 51 56
f 47 56 57
f 47 57 52
f 47 52 48
f 49 50 53
f 49 53 54
f 51 55 56
f 52 57 58
f 52 58 59
f 52 59 60
f 53 61 62
f 53 62 54
f 55 58 57
f 55 57 56
f 59 63 60
f 60 63 65
f 60 65 66
f 60 66 64
f 61 67 62
f 61 68 67
f 64 66 69
f 66 70 69
f 67 68 71
f 67 71 72
f 69 70 74
f 69 74 73
f 71 75 72
f 71 76 75
f 73 74 78
f 73 78 77
f 75 76 79
f 76 80 81
f 76 81 79
f 77 78 82
f 77 82 83
f 80 84 81
f 81 84 89
f 81 89 85
f 82 86 83
f 83 86 87
f 83 87 88
f 85 89 90
f 87 91 88
f 88 91 92
f 89 93 90
f 90 93 94
f 91 95 92
f 92 95 96
f 93 96 94
f 94 96 97
f 95 97 96
