v -0.000007 0.013390 0.044152
v -0.000007 0.013202 0.044392
v 0.001112 0.012819 0.044853
v 0.000371 0.013373 0.044152
v -0.000007 -0.014183 0.044152
v -0.000007 0.012805 0.044853
v 0.000371 0.012824 0.044853
v 0.000420 0.013370 0.044152
v 0.001852 0.012772 0.044853
v 0.000436 -0.014163 0.044152
v 0.001112 -0.014779 0.044853
v -0.000007 -0.014304 0.044289
v -0.000007 0.012794 0.044853
v 0.001112 0.013299 0.044152
v 0.002594 0.012681 0.044853
v 0.001112 -0.014095 0.044152
v 0.001112 -0.014442 0.044507
v 0.001852 -0.014693 0.044853
v 0.001112 -0.014779 0.044853
v 0.000371 -0.014781 0.044853
v -0.000007 -0.014765 0.044853
v -0.000007 -0.014715 0.044853
v 0.001175 0.013290 0.044152
v 0.003334 0.012546 0.044853
v 0.001852 0.013180 0.044152
v 0.001164 -0.014089 0.044152
v 0.002594 -0.014547 0.044853
v 0.001852 -0.014693 0.044853
v 0.001893 -0.013976 0.044152
v 0.000371 -0.014781 0.044853
v 0.004075 0.012366 0.044853
v 0.002594 0.013020 0.044152
v 0.002018 0.013147 0.044152
v 0.003008 -0.014442 0.044853
v 0.002594 -0.014547 0.044853
v 0.002613 -0.013824 0.044152
v 0.004556 0.012220 0.044853
v 0.003334 0.012816 0.044152
v 0.002804 0.012962 0.044152
v 0.003334 -0.014359 0.044853
v 0.003008 -0.014442 0.044853
v 0.002956 -0.013733 0.044152
v 0.004815 0.012140 0.044853
v 0.004075 0.012562 0.044152
v 0.003334 -0.014359 0.044853
v 0.003070 -0.013703 0.044152
v 0.003334 -0.013703 0.044220
v 0.004075 -0.014130 0.044853
v 0.005557 0.011864 0.044853
v 0.004803 0.012261 0.044152
v 0.004075 -0.014130 0.044853
v 0.003334 -0.013631 0.044152
v 0.003411 -0.013606 0.044152
v 0.004075 -0.013703 0.044446
v 0.004815 -0.013857 0.044853
v 0.006297 0.011533 0.044853
v 0.004815 0.012256 0.044152
v 0.004815 -0.013857 0.044853
v 0.004075 -0.013391 0.044152
v 0.004815 -0.013703 0.044707
v 0.005183 -0.013703 0.044853
v 0.006404 0.011481 0.044853
v 0.005591 0.011881 0.044152
v 0.005557 0.011897 0.044152
v 0.004893 0.012220 0.044152
v 0.005183 -0.013703 0.044853
v 0.004119 -0.013375 0.044152
v 0.004815 -0.013102 0.044152
v 0.005557 -0.013540 0.044853
v 0.006404 0.011481 0.044853
v 0.007037 0.011147 0.044853
v 0.007037 0.011147 0.044853
v 0.006332 0.011462 0.044152
v 0.005557 -0.013540 0.044853
v 0.005051 -0.012997 0.044152
v 0.005557 -0.012961 0.044330
v 0.006297 -0.013168 0.044853
v 0.007712 0.010739 0.044853
v 0.007712 0.010739 0.044853
v 0.007777 0.010698 0.044853
v 0.007037 0.010990 0.044152
v 0.006297 -0.013168 0.044853
v 0.005557 -0.012762 0.044152
v 0.005603 -0.012740 0.044152
v 0.006297 -0.012961 0.044669
v 0.006666 -0.012961 0.044853
v 0.007777 0.010698 0.044853
v 0.008518 0.010176 0.044853
v 0.007379 0.010739 0.044152
v 0.006666 -0.012961 0.044853
v 0.006314 -0.012360 0.044152
v 0.007037 -0.012743 0.044853
v 0.008518 0.010176 0.044853
v 0.008745 0.010000 0.044853
v 0.007812 0.010400 0.044152
v 0.007037 -0.012743 0.044853
v 0.006506 -0.012247 0.044152
v 0.006547 -0.012222 0.044152
v 0.007037 -0.012222 0.044408
v 0.007777 -0.012260 0.044853
v 0.008745 0.010000 0.044853
v 0.009258 0.009572 0.044853
v 0.008272 0.010000 0.044152
v 0.007777 -0.012260 0.044853
v 0.007037 -0.011913 0.044152
v 0.007777 -0.012222 0.044821
v 0.007831 -0.012222 0.044853
v 0.009258 0.009572 0.044853
v 0.009605 0.009258 0.044853
v 0.008518 0.009768 0.044152
v 0.007831 -0.012222 0.044853
v 0.007532 -0.011568 0.044152
v 0.007659 -0.011480 0.044152
v 0.007777 -0.011480 0.044221
v 0.008518 -0.011703 0.044853
v 0.009605 0.009258 0.044853
v 0.010000 0.008872 0.044853
v 0.009023 0.009258 0.044152
v 0.008518 -0.011703 0.044853
v 0.007823 -0.011359 0.044152
v 0.008518 -0.011480 0.044678
v 0.008787 -0.011480 0.044853
v 0.010000 0.008872 0.044853
v 0.010335 0.008516 0.044853
v 0.009258 0.008996 0.044152
v 0.008787 -0.011480 0.044853
v 0.008518 -0.010793 0.044152
v 0.008578 -0.010741 0.044152
v 0.009258 -0.011066 0.044853
v 0.010335 0.008516 0.044853
v 0.010740 0.008050 0.044853
v 0.009666 0.008516 0.044152
v 0.009258 -0.011066 0.044853
v 0.009275 -0.010082 0.044152
v 0.009258 -0.010741 0.044611
v 0.009603 -0.010741 0.044853
v 0.010740 0.008050 0.044853
v 0.010963 0.007777 0.044853
v 0.010000 0.008075 0.044152
v 0.009603 -0.010741 0.044853
v 0.009340 -0.010015 0.044152
v 0.010000 -0.010335 0.044853
v 0.010963 0.007777 0.044853
v 0.011481 0.007074 0.044853
v 0.010218 0.007777 0.044152
v 0.010000 -0.010335 0.044853
v 0.010000 -0.009999 0.044621
v 0.010000 -0.009287 0.044152
v 0.010308 -0.009999 0.044853
v 0.011481 0.007074 0.044853
v 0.011507 0.007035 0.044853
v 0.010692 0.007035 0.044152
v 0.010308 -0.009999 0.044853
v 0.010024 -0.009257 0.044152
v 0.010740 -0.009257 0.044709
v 0.010740 -0.009486 0.044853
v 0.011507 0.007035 0.044853
v 0.011976 0.006296 0.044853
v 0.011481 0.006296 0.044427
v 0.010823 0.006828 0.044152
v 0.010740 -0.009486 0.044853
v 0.010107 -0.009152 0.044152
v 0.010920 -0.009257 0.044853
v 0.010601 -0.008518 0.044152
v 0.011976 0.006296 0.044853
v 0.011481 0.005750 0.044152
v 0.012221 0.005855 0.044853
v 0.011593 0.005554 0.044152
v 0.011572 0.005590 0.044152
v 0.011155 0.006296 0.044152
v 0.010920 -0.009257 0.044853
v 0.010740 -0.008518 0.044264
v 0.011457 -0.008518 0.044853
v 0.010740 -0.008319 0.044152
v 0.012221 0.005855 0.044853
v 0.012383 0.005554 0.044853
v 0.012221 0.005554 0.044708
v 0.011944 0.004856 0.044152
v 0.011457 -0.008518 0.044853
v 0.010774 -0.008270 0.044152
v 0.011079 -0.007812 0.044152
v 0.011102 -0.007776 0.044152
v 0.011481 -0.007776 0.044473
v 0.011481 -0.008479 0.044853
v 0.012383 0.005554 0.044853
v 0.012732 0.004815 0.044853
v 0.012221 0.004815 0.044385
v 0.011965 0.004815 0.044152
v 0.011481 -0.008479 0.044853
v 0.011481 -0.007136 0.044152
v 0.011921 -0.007776 0.044853
v 0.012732 0.004815 0.044853
v 0.012963 0.004244 0.044853
v 0.012281 0.004073 0.044152
v 0.012266 0.004109 0.044152
v 0.012242 0.004167 0.044152
v 0.011921 -0.007776 0.044853
v 0.011538 -0.007037 0.044152
v 0.012221 -0.007235 0.044853
v 0.012963 0.004244 0.044853
v 0.013029 0.004073 0.044853
v 0.012963 0.004073 0.044790
v 0.012531 0.003370 0.044152
v 0.012221 -0.007235 0.044853
v 0.011912 -0.006295 0.044152
v 0.012221 -0.007037 0.044757
v 0.012329 -0.007037 0.044853
v 0.013029 0.004073 0.044853
v 0.013276 0.003331 0.044853
v 0.012963 0.003331 0.044552
v 0.012543 0.003331 0.044152
v 0.012329 -0.007037 0.044853
v 0.012221 -0.006295 0.044433
v 0.012232 -0.005553 0.044152
v 0.012680 -0.006295 0.044853
v 0.013276 0.003331 0.044853
v 0.012741 0.002650 0.044152
v 0.013479 0.002592 0.044853
v 0.012963 0.002592 0.044351
v 0.012758 0.002592 0.044152
v 0.012680 -0.006295 0.044853
v 0.012500 -0.004814 0.044152
v 0.012963 -0.005553 0.044835
v 0.012963 -0.005602 0.044853
v 0.013479 0.002592 0.044853
v 0.013638 0.001850 0.044853
v 0.012963 0.001850 0.044189
v 0.012900 0.001960 0.044152
v 0.012963 -0.005602 0.044853
v 0.012963 -0.004814 0.044592
v 0.012720 -0.004072 0.044152
v 0.012982 -0.005553 0.044853
v 0.013638 0.001850 0.044853
v 0.012963 0.001626 0.044152
v 0.013754 0.001111 0.044853
v 0.013048 0.001111 0.044152
v 0.013043 0.001144 0.044152
v 0.012925 0.001850 0.044152
v 0.012982 -0.005553 0.044853
v 0.013234 -0.004814 0.044853
v 0.012963 -0.004072 0.044386
v 0.012895 -0.003333 0.044152
v 0.013754 0.001111 0.044853
v 0.013829 0.000369 0.044853
v 0.013703 0.000369 0.044727
v 0.013127 0.000369 0.044152
v 0.013123 0.000407 0.044152
v 0.013234 -0.004814 0.044853
v 0.013443 -0.004072 0.044853
v 0.012963 -0.003333 0.044218
v 0.012963 -0.002955 0.044152
v 0.013829 0.000369 0.044853
v 0.013165 -0.000370 0.044152
v 0.013866 -0.000370 0.044853
v 0.013443 -0.004072 0.044853
v 0.013609 -0.003333 0.044853
v 0.013025 -0.002599 0.044152
v 0.013161 -0.001110 0.044152
v 0.013860 -0.001110 0.044853
v 0.013860 -0.001110 0.044853
v 0.013703 -0.001110 0.044695
v 0.013609 -0.003333 0.044853
v 0.013734 -0.002591 0.044853
v 0.013027 -0.002591 0.044152
v 0.013817 -0.001852 0.044853
v 0.013115 -0.001852 0.044152
v 0.013817 -0.001852 0.044853
v 0.013734 -0.002591 0.044853
f 1 2 3
f 1 3 4
f 1 4 8
f 1 8 14
f 1 14 23
f 1 23 25
f 1 25 33
f 1 33 32
f 1 32 39
f 1 39 38
f 1 38 44
f 1 44 50
f 1 50 57
f 1 57 65
f 1 65 64
f 1 64 63
f 1 63 73
f 1 73 81
f 1 81 89
f 1 89 95
f 1 95 103
f 1 103 110
f 1 110 118
f 1 118 125
f 1 125 132
f 1 132 139
f 1 139 145
f 1 145 152
f 1 152 160
f 1 160 170
f 1 170 166
f 1 166 169
f 1 169 168
f 1 168 178
f 1 178 188
f 1 188 196
f 1 196 195
f 1 195 194
f 1 194 203
f 1 203 211
f 1 211 217
f 1 217 220
f 1 220 228
f 1 228 238
f 1 238 234
f 1 234 237
f 1 237 236
f 1 236 247
f 1 247 246
f 1 246 253
f 1 253 258
f 1 258 266
f 1 266 264
f 1 264 257
f 1 257 251
f 1 251 242
f 1 242 231
f 1 231 222
f 1 222 214
f 1 214 205
f 1 205 198
f 1 198 190
f 1 190 182
f 1 182 181
f 1 181 180
f 1 180 174
f 1 174 164
f 1 164 162
f 1 162 154
f 1 154 148
f 1 148 141
f 1 141 134
f 1 134 128
f 1 128 127
f 1 127 120
f 1 120 113
f 1 113 112
f 1 112 105
f 1 105 98
f 1 98 97
f 1 97 91
f 1 91 84
f 1 84 83
f 1 83 75
f 1 75 68
f 1 68 67
f 1 67 59
f 1 59 53
f 1 53 52
f 1 52 46
f 1 46 42
f 1 42 36
f 1 36 29
f 1 29 26
f 1 26 16
f 1 16 10
f 1 10 5
f 1 5 12
f 1 12 21
f 1 21 22
f 1 22 13
f 1 13 6
f 1 6 2
f 2 6 7
f 2 7 3
f 3 8 4
f 3 7 13
f 3 13 22
f 3 22 30
f 3 30 19
f 3 19 28
f 3 28 35
f 3 35 41
f 3 41 45
f 3 45 51
f 3 51 58
f 3 58 66
f 3 66 74
f 3 74 82
f 3 82 90
f 3 90 96
f 3 96 104
f 3 104 111
f 3 111 119
f 3 119 126
f 3 126 133
f 3 133 140
f 3 140 146
f 3 146 153
f 3 153 161
f 3 161 171
f 3 171 179
f 3 179 189
f 3 189 197
f 3 197 204
f 3 204 212
f 3 212 221
f 3 221 229
f 3 229 239
f 3 239 248
f 3 248 255
f 3 255 262
f 3 262 268
f 3 268 267
f 3 267 259
f 3 259 254
f 3 254 252
f 3 252 243
f 3 243 233
f 3 233 225
f 3 225 216
f 3 216 208
f 3 208 200
f 3 200 192
f 3 192 185
f 3 185 175
f 3 175 165
f 3 165 157
f 3 157 150
f 3 150 143
f 3 143 137
f 3 137 130
f 3 130 123
f 3 123 116
f 3 116 108
f 3 108 101
f 3 101 93
f 3 93 87
f 3 87 78
f 3 78 71
f 3 71 62
f 3 62 56
f 3 56 49
f 3 49 43
f 3 43 37
f 3 37 31
f 3 31 24
f 3 24 15
f 3 15 9
f 3 9 8
f 5 10 11
f 5 11 12
f 6 13 7
f 8 9 14
f 9 15 14
f 10 16 17
f 10 17 11
f 11 18 28
f 11 28 19
f 11 19 30
f 11 30 20
f 11 20 12
f 11 17 18
f 12 20 21
f 14 15 23
f 15 24 25
f 15 25 23
f 16 26 17
f 17 26 18
f 18 27 35
f 18 35 28
f 18 26 29
f 18 29 27
f 20 30 21
f 21 30 22
f 24 31 32
f 24 32 33
f 24 33 25
f 27 34 41
f 27 41 35
f 27 29 36
f 27 36 34
f 31 37 38
f 31 38 39
f 31 39 32
f 34 40 45
f 34 45 41
f 34 36 40
f 36 42 40
f 37 43 38
f 38 43 44
f 40 42 46
f 40 46 47
f 40 47 48
f 40 48 51
f 40 51 45
f 43 49 44
f 44 49 50
f 46 52 47
f 47 52 53
f 47 53 54
f 47 54 48
f 48 54 55
f 48 55 58
f 48 58 51
f 49 56 50
f 50 56 57
f 53 59 54
f 54 59 55
f 55 59 60
f 55 60 61
f 55 61 66
f 55 66 58
f 56 62 63
f 56 63 64
f 56 64 65
f 56 65 57
f 59 67 60
f 60 67 68
f 60 68 61
f 61 68 69
f 61 69 74
f 61 74 66
f 62 70 63
f 62 71 72
f 62 72 70
f 63 70 72
f 63 72 73
f 68 75 69
f 69 75 76
f 69 76 77
f 69 77 82
f 69 82 74
f 71 78 79
f 71 79 72
f 72 79 73
f 73 79 80
f 73 80 81
f 75 83 76
f 76 83 84
f 76 84 77
f 77 84 85
f 77 85 86
f 77 86 90
f 77 90 82
f 78 87 80
f 78 80 79
f 80 87 93
f 80 93 88
f 80 88 81
f 81 88 89
f 84 91 85
f 85 91 86
f 86 91 92
f 86 92 96
f 86 96 90
f 88 93 101
f 88 101 94
f 88 94 89
f 89 94 95
f 91 97 92
f 92 97 98
f 92 98 99
f 92 99 100
f 92 100 104
f 92 104 96
f 94 101 108
f 94 108 102
f 94 102 95
f 95 102 103
f 98 105 99
f 99 105 100
f 100 105 106
f 100 106 107
f 100 107 111
f 100 111 104
f 102 109 103
f 102 108 116
f 102 116 109
f 103 109 110
f 105 112 106
f 106 112 113
f 106 113 107
f 107 113 114
f 107 114 115
f 107 115 119
f 107 119 111
f 109 116 123
f 109 123 117
f 109 117 110
f 110 117 118
f 113 120 114
f 114 120 115
f 115 120 121
f 115 121 122
f 115 122 126
f 115 126 119
f 117 123 130
f 117 130 124
f 117 124 118
f 118 124 125
f 120 127 121
f 121 127 122
f 122 127 128
f 122 128 129
f 122 129 133
f 122 133 126
f 124 130 137
f 124 137 131
f 124 131 125
f 125 131 132
f 128 134 135
f 128 135 129
f 129 135 136
f 129 136 140
f 129 140 133
f 131 137 143
f 131 143 138
f 131 138 132
f 132 138 139
f 134 141 136
f 134 136 135
f 136 141 142
f 136 142 146
f 136 146 140
f 138 143 150
f 138 150 144
f 138 144 139
f 139 144 145
f 141 147 142
f 141 148 147
f 142 147 149
f 142 149 153
f 142 153 146
f 144 150 157
f 144 157 151
f 144 151 145
f 145 151 152
f 147 148 149
f 148 154 155
f 148 155 156
f 148 156 149
f 149 156 161
f 149 161 153
f 151 158 159
f 151 159 152
f 151 157 165
f 151 165 158
f 152 159 160
f 154 162 155
f 155 163 156
f 155 162 164
f 155 164 163
f 156 163 171
f 156 171 161
f 158 166 159
f 158 165 175
f 158 175 167
f 158 167 168
f 158 168 169
f 158 169 166
f 159 170 160
f 159 166 170
f 163 164 172
f 163 172 173
f 163 173 179
f 163 179 171
f 164 174 172
f 167 175 185
f 167 185 176
f 167 176 177
f 167 177 168
f 168 177 178
f 172 174 173
f 173 174 180
f 173 180 181
f 173 181 182
f 173 182 183
f 173 183 184
f 173 184 189
f 173 189 179
f 176 185 192
f 176 192 186
f 176 186 187
f 176 187 188
f 176 188 178
f 176 178 177
f 182 190 183
f 183 190 191
f 183 191 184
f 184 191 197
f 184 197 189
f 186 192 200
f 186 200 193
f 186 193 194
f 186 194 195
f 186 195 196
f 186 196 187
f 187 196 188
f 190 198 191
f 191 199 204
f 191 204 197
f 191 198 199
f 193 201 202
f 193 202 194
f 193 200 208
f 193 208 201
f 194 202 203
f 198 205 206
f 198 206 199
f 199 206 207
f 199 207 212
f 199 212 204
f 201 209 210
f 201 210 203
f 201 203 202
f 201 208 216
f 201 216 209
f 203 210 211
f 205 213 207
f 205 207 206
f 205 214 213
f 207 213 215
f 207 215 221
f 207 221 212
f 209 217 210
f 209 216 225
f 209 225 218
f 209 218 219
f 209 219 220
f 209 220 217
f 210 217 211
f 213 214 215
f 214 222 223
f 214 223 224
f 214 224 215
f 215 224 229
f 215 229 221
f 218 225 233
f 218 233 226
f 218 226 227
f 218 227 219
f 219 227 228
f 219 228 220
f 222 230 223
f 222 231 230
f 223 230 232
f 223 232 224
f 224 232 239
f 224 239 229
f 226 234 227
f 226 233 243
f 226 243 235
f 226 235 236
f 226 236 237
f 226 237 234
f 227 234 238
f 227 238 228
f 230 231 240
f 230 240 232
f 231 241 240
f 231 242 241
f 232 240 248
f 232 248 239
f 235 243 252
f 235 252 244
f 235 244 245
f 235 245 246
f 235 246 247
f 235 247 236
f 240 241 249
f 240 249 255
f 240 255 248
f 241 242 250
f 241 250 249
f 242 251 250
f 244 253 245
f 244 252 254
f 244 254 253
f 245 253 246
f 249 250 256
f 249 256 262
f 249 262 255
f 250 251 256
f 251 257 256
f 253 254 258
f 254 259 260
f 254 260 261
f 254 261 258
f 256 257 263
f 256 263 268
f 256 268 262
f 257 264 263
f 258 261 265
f 258 265 266
f 259 267 265
f 259 265 260
f 260 265 261
f 263 264 266
f 263 266 265
f 263 265 267
f 263 267 268
