v -0.000372 -0.014660 0.027940
v 0.000368 -0.014626 0.027940
v -0.001108 -0.014655 0.027940
v -0.001108 -0.014443 0.027728
v -0.000372 -0.014077 0.027356
v 0.000368 -0.014443 0.027758
v 0.001110 -0.014443 0.027830
v 0.001110 -0.014554 0.027940
v -0.001851 -0.014614 0.027940
v -0.000893 -0.014073 0.027356
v -0.001108 -0.014072 0.027356
v 0.000368 -0.014041 0.027356
v 0.000547 -0.014023 0.027356
v 0.001110 -0.013967 0.027356
v 0.001850 -0.014445 0.027940
v 0.001535 -0.014492 0.027940
v -0.001851 -0.014443 0.027770
v -0.002585 -0.014536 0.027940
v -0.001851 -0.014029 0.027356
v 0.001850 -0.013853 0.027356
v 0.002167 -0.014381 0.027940
v -0.003333 -0.014418 0.027940
v -0.002712 -0.013927 0.027356
v -0.002590 -0.013946 0.027356
v -0.002394 -0.013968 0.027356
v 0.002562 -0.013703 0.027356
v 0.002592 -0.013703 0.027363
v 0.002592 -0.014295 0.027940
v -0.003333 -0.013824 0.027356
v -0.003184 -0.013850 0.027356
v -0.004072 -0.014258 0.027940
v -0.003457 -0.013798 0.027356
v 0.002592 -0.013696 0.027356
v 0.002912 -0.013612 0.027356
v 0.003332 -0.014104 0.027940
v -0.004815 -0.013989 0.027940
v -0.005554 -0.013175 0.027356
v -0.004815 -0.013438 0.027356
v -0.004241 -0.013610 0.027356
v -0.004072 -0.013659 0.027356
v 0.003332 -0.013497 0.027356
v 0.003332 -0.013703 0.027553
v 0.003337 -0.014103 0.027940
v -0.005554 -0.013674 0.027940
v -0.006294 -0.012860 0.027356
v 0.003525 -0.013435 0.027356
v 0.004071 -0.013872 0.027940
v -0.006294 -0.013307 0.027940
v -0.007036 -0.012498 0.027356
v 0.004071 -0.013254 0.027356
v 0.004071 -0.013703 0.027780
v 0.004527 -0.013703 0.027940
v -0.006909 -0.012961 0.027940
v -0.007776 -0.012077 0.027356
v 0.004165 -0.013218 0.027356
v 0.004814 -0.013595 0.027940
v -0.007036 -0.012887 0.027940
v -0.008518 -0.011597 0.027356
v 0.004491 -0.013092 0.027356
v 0.004814 -0.012961 0.027356
v 0.005553 -0.013268 0.027940
v -0.007776 -0.012407 0.027940
v -0.008573 -0.011559 0.027356
v 0.005056 -0.012853 0.027356
v 0.005553 -0.012961 0.027663
v 0.006160 -0.012961 0.027940
v -0.008035 -0.012221 0.027940
v -0.009257 -0.011046 0.027356
v 0.005553 -0.012619 0.027356
v 0.006296 -0.012891 0.027940
v 0.005677 -0.012555 0.027356
v -0.008518 -0.011858 0.027940
v -0.009517 -0.010841 0.027356
v 0.006047 -0.012359 0.027356
v 0.006296 -0.012221 0.027356
v 0.007035 -0.012455 0.027940
v -0.008976 -0.011481 0.027940
v -0.010000 -0.010414 0.027356
v 0.006502 -0.012096 0.027356
v 0.007035 -0.012221 0.027741
v 0.007394 -0.012220 0.027940
v -0.009257 -0.011232 0.027940
v -0.010336 -0.010104 0.027356
v 0.007035 -0.011760 0.027356
v 0.007110 -0.011712 0.027356
v 0.007775 -0.011956 0.027940
v -0.009776 -0.010739 0.027940
v -0.010000 -0.010514 0.027940
v -0.010739 -0.009688 0.027356
v 0.007223 -0.011633 0.027356
v 0.007438 -0.011481 0.027356
v 0.007777 -0.011481 0.027554
v 0.008401 -0.011480 0.027940
v -0.010469 -0.009999 0.027940
v -0.011065 -0.009345 0.027356
v 0.007777 -0.011230 0.027356
v 0.007904 -0.011130 0.027356
v 0.008517 -0.011388 0.027940
v -0.010739 -0.009679 0.027940
v -0.011479 -0.008844 0.027356
v 0.008222 -0.010872 0.027356
v 0.008517 -0.010739 0.027445
v 0.009251 -0.010739 0.027940
v -0.011073 -0.009258 0.027940
v -0.011719 -0.008554 0.027356
v 0.008379 -0.010739 0.027356
v 0.008517 -0.010621 0.027356
v 0.008669 -0.010483 0.027356
v 0.009257 -0.010734 0.027940
v -0.011482 -0.008695 0.027940
v -0.012188 -0.007901 0.027356
v 0.009019 -0.010151 0.027356
v 0.009980 -0.009999 0.027940
v 0.009174 -0.009999 0.027356
v 0.009257 -0.009999 0.027416
v -0.011603 -0.008517 0.027940
v -0.012276 -0.007777 0.027356
v 0.009999 -0.009258 0.027466
v 0.009999 -0.009977 0.027940
v 0.009406 -0.009757 0.027356
v 0.009720 -0.009411 0.027356
v 0.009257 -0.009913 0.027356
v -0.012064 -0.007777 0.027940
v -0.012743 -0.007036 0.027356
v 0.009853 -0.009258 0.027356
v 0.009999 -0.009084 0.027356
v 0.010609 -0.009258 0.027940
v -0.012221 -0.007493 0.027940
v -0.013151 -0.006295 0.027356
v 0.010123 -0.008929 0.027356
v 0.010352 -0.008634 0.027356
v 0.010738 -0.009089 0.027940
v -0.012467 -0.007036 0.027940
v -0.013504 -0.005557 0.027356
v 0.010440 -0.008517 0.027356
v 0.010738 -0.008517 0.027597
v 0.011158 -0.008516 0.027940
v -0.012815 -0.006295 0.027940
v -0.013808 -0.004815 0.027356
v 0.010852 -0.007929 0.027356
v 0.011478 -0.008025 0.027940
v -0.012961 -0.005934 0.027940
v -0.014067 -0.004075 0.027356
v -0.013113 -0.005557 0.027940
v 0.010948 -0.007777 0.027356
v 0.011481 -0.007777 0.027806
v 0.011635 -0.007776 0.027940
v -0.014283 -0.003335 0.027356
v -0.013364 -0.004815 0.027940
v 0.011390 -0.007036 0.027356
v 0.011481 -0.007036 0.027435
v 0.012052 -0.007036 0.027940
v -0.014445 -0.002593 0.027356
v -0.013571 -0.004075 0.027940
v -0.013703 -0.003480 0.027940
v 0.011481 -0.006865 0.027356
v 0.011597 -0.006640 0.027356
v 0.011729 -0.006378 0.027356
v 0.012220 -0.006695 0.027940
v -0.014498 -0.002115 0.027356
v -0.013734 -0.003340 0.027940
v -0.014443 -0.002593 0.027359
v -0.013940 -0.001851 0.027940
v 0.011768 -0.006295 0.027356
v 0.012220 -0.006295 0.027767
v 0.012411 -0.006294 0.027940
v -0.014526 -0.001853 0.027356
v -0.013858 -0.002595 0.027940
v -0.013985 -0.001110 0.027940
v 0.012091 -0.005557 0.027356
v 0.012220 -0.005557 0.027476
v 0.012717 -0.005557 0.027940
v -0.014567 -0.001111 0.027356
v -0.013987 -0.000369 0.027940
v -0.014572 -0.000371 0.027356
v 0.012220 -0.005209 0.027356
v 0.012963 -0.004858 0.027940
v 0.012364 -0.004815 0.027356
v -0.013952 0.000371 0.027940
v -0.014443 0.000369 0.027451
v -0.014550 0.000085 0.027356
v 0.012963 -0.004815 0.027926
v 0.012976 -0.004815 0.027940
v 0.012587 -0.004075 0.027356
v -0.013877 0.001112 0.027940
v -0.014476 0.001014 0.027356
v -0.014537 0.000369 0.027356
v 0.012963 -0.004075 0.027719
v 0.013189 -0.004072 0.027940
v 0.012764 -0.003335 0.027356
v -0.013764 0.001851 0.027940
v -0.014371 0.001754 0.027356
v -0.014443 0.001111 0.027379
v -0.014465 0.001111 0.027356
v 0.013357 -0.003332 0.027940
v 0.012963 -0.003335 0.027551
v 0.012896 -0.002593 0.027356
v -0.013703 0.002138 0.027940
v -0.014205 0.002591 0.027356
v -0.014225 0.002498 0.027356
v -0.014305 0.002107 0.027356
v -0.014354 0.001851 0.027356
v 0.013484 -0.002591 0.027940
v 0.012963 -0.002593 0.027422
v 0.012963 -0.002042 0.027356
v -0.013703 0.002591 0.027846
v -0.013607 0.002591 0.027940
v -0.014139 0.002841 0.027356
v -0.013703 0.002923 0.027761
v 0.013570 -0.001851 0.027940
v 0.012982 -0.001881 0.027356
v -0.013515 0.002923 0.027940
v -0.013648 0.002923 0.027814
v -0.014117 0.002923 0.027356
v 0.012985 -0.001853 0.027356
v 0.013032 -0.001111 0.027356
v 0.013614 -0.001110 0.027940
v 0.013134 0.002923 0.027940
v 0.012571 0.002923 0.027356
v 0.013034 -0.000454 0.027356
v 0.013619 -0.000369 0.027940
v 0.013222 0.002606 0.027940
v 0.013109 0.002923 0.027913
v 0.012645 0.002591 0.027356
v 0.013034 -0.000371 0.027356
v 0.012999 0.000369 0.027356
v 0.013581 0.000371 0.027940
v 0.013388 0.001851 0.027940
v 0.012963 0.001851 0.027522
v 0.012792 0.001851 0.027356
v 0.013504 0.001112 0.027940
v 0.012963 0.000701 0.027356
v 0.012963 0.001111 0.027401
v 0.012858 0.001464 0.027356
v 0.012916 0.001111 0.027356
f 1 2 8
f 1 8 16
f 1 16 15
f 1 15 21
f 1 21 28
f 1 28 35
f 1 35 43
f 1 43 47
f 1 47 52
f 1 52 56
f 1 56 61
f 1 61 66
f 1 66 70
f 1 70 76
f 1 76 81
f 1 81 86
f 1 86 93
f 1 93 98
f 1 98 103
f 1 103 109
f 1 109 113
f 1 113 119
f 1 119 127
f 1 127 132
f 1 132 137
f 1 137 141
f 1 141 147
f 1 147 152
f 1 152 159
f 1 159 166
f 1 166 172
f 1 172 177
f 1 177 183
f 1 183 189
f 1 189 195
f 1 195 203
f 1 203 210
f 1 210 217
f 1 217 221
f 1 221 227
f 1 227 231
f 1 231 228
f 1 228 222
f 1 222 218
f 1 218 212
f 1 212 207
f 1 207 198
f 1 198 191
f 1 191 185
f 1 185 179
f 1 179 174
f 1 174 169
f 1 169 163
f 1 163 168
f 1 168 161
f 1 161 155
f 1 155 154
f 1 154 149
f 1 149 144
f 1 144 142
f 1 142 138
f 1 138 133
f 1 133 128
f 1 128 123
f 1 123 116
f 1 116 110
f 1 110 104
f 1 104 99
f 1 99 94
f 1 94 88
f 1 88 87
f 1 87 82
f 1 82 77
f 1 77 72
f 1 72 67
f 1 67 62
f 1 62 57
f 1 57 53
f 1 53 48
f 1 48 44
f 1 44 36
f 1 36 31
f 1 31 22
f 1 22 18
f 1 18 9
f 1 9 3
f 1 3 4
f 1 4 5
f 1 5 2
f 2 6 7
f 2 7 8
f 2 5 6
f 3 9 4
f 4 10 5
f 4 9 11
f 4 11 10
f 5 10 11
f 5 11 19
f 5 19 25
f 5 25 24
f 5 24 23
f 5 23 30
f 5 30 29
f 5 29 32
f 5 32 40
f 5 40 39
f 5 39 38
f 5 38 37
f 5 37 45
f 5 45 49
f 5 49 54
f 5 54 58
f 5 58 63
f 5 63 68
f 5 68 73
f 5 73 78
f 5 78 83
f 5 83 89
f 5 89 95
f 5 95 100
f 5 100 105
f 5 105 111
f 5 111 117
f 5 117 124
f 5 124 129
f 5 129 134
f 5 134 139
f 5 139 143
f 5 143 148
f 5 148 153
f 5 153 160
f 5 160 167
f 5 167 173
f 5 173 175
f 5 175 181
f 5 181 187
f 5 187 186
f 5 186 194
f 5 194 192
f 5 192 202
f 5 202 201
f 5 201 200
f 5 200 199
f 5 199 208
f 5 208 214
f 5 214 219
f 5 219 224
f 5 224 230
f 5 230 234
f 5 234 235
f 5 235 232
f 5 232 226
f 5 226 225
f 5 225 220
f 5 220 216
f 5 216 215
f 5 215 211
f 5 211 205
f 5 205 197
f 5 197 190
f 5 190 184
f 5 184 178
f 5 178 176
f 5 176 170
f 5 170 164
f 5 164 158
f 5 158 157
f 5 157 156
f 5 156 150
f 5 150 145
f 5 145 140
f 5 140 135
f 5 135 131
f 5 131 130
f 5 130 126
f 5 126 125
f 5 125 121
f 5 121 120
f 5 120 122
f 5 122 114
f 5 114 112
f 5 112 108
f 5 108 107
f 5 107 106
f 5 106 101
f 5 101 97
f 5 97 96
f 5 96 91
f 5 91 90
f 5 90 85
f 5 85 84
f 5 84 79
f 5 79 75
f 5 75 74
f 5 74 71
f 5 71 69
f 5 69 64
f 5 64 60
f 5 60 59
f 5 59 55
f 5 55 50
f 5 50 46
f 5 46 41
f 5 41 34
f 5 34 33
f 5 33 26
f 5 26 20
f 5 20 14
f 5 14 13
f 5 13 12
f 5 12 6
f 6 12 13
f 6 13 7
f 7 13 14
f 7 14 15
f 7 15 16
f 7 16 8
f 9 17 11
f 9 18 17
f 11 17 19
f 14 20 15
f 15 20 21
f 17 18 19
f 18 22 23
f 18 23 24
f 18 24 25
f 18 25 19
f 20 26 27
f 20 27 28
f 20 28 21
f 22 29 30
f 22 30 23
f 22 31 32
f 22 32 29
f 26 33 27
f 27 33 34
f 27 34 35
f 27 35 28
f 31 36 37
f 31 37 38
f 31 38 39
f 31 39 40
f 31 40 32
f 34 41 42
f 34 42 35
f 35 42 43
f 36 44 45
f 36 45 37
f 41 46 47
f 41 47 42
f 42 47 43
f 44 48 49
f 44 49 45
f 46 50 51
f 46 51 47
f 47 51 52
f 48 53 49
f 49 53 54
f 50 55 56
f 50 56 52
f 50 52 51
f 53 57 54
f 54 57 58
f 55 59 56
f 56 60 61
f 56 59 60
f 57 62 58
f 58 62 63
f 60 64 61
f 61 64 65
f 61 65 66
f 62 67 63
f 63 67 68
f 64 69 65
f 65 69 66
f 66 69 71
f 66 71 70
f 67 72 68
f 68 72 73
f 70 71 74
f 70 74 75
f 70 75 76
f 72 77 73
f 73 77 78
f 75 79 76
f 76 79 80
f 76 80 81
f 77 82 78
f 78 82 83
f 79 84 80
f 80 84 85
f 80 85 81
f 81 85 86
f 82 87 83
f 83 87 88
f 83 88 89
f 85 90 86
f 86 90 91
f 86 91 92
f 86 92 93
f 88 94 95
f 88 95 89
f 91 96 92
f 92 96 97
f 92 97 98
f 92 98 93
f 94 99 95
f 95 99 100
f 97 101 98
f 98 101 102
f 98 102 103
f 99 104 105
f 99 105 100
f 101 106 102
f 102 107 103
f 102 106 107
f 103 107 108
f 103 108 109
f 104 110 105
f 105 110 111
f 108 112 109
f 109 112 114
f 109 114 115
f 109 115 113
f 110 116 117
f 110 117 111
f 113 118 119
f 113 115 120
f 113 120 121
f 113 121 118
f 114 122 115
f 115 122 120
f 116 123 124
f 116 124 117
f 118 121 125
f 118 125 126
f 118 126 127
f 118 127 119
f 123 128 124
f 124 128 129
f 126 130 127
f 127 131 132
f 127 130 131
f 128 133 129
f 129 133 134
f 131 135 132
f 132 135 136
f 132 136 137
f 133 138 134
f 134 138 139
f 135 140 136
f 136 140 137
f 137 140 141
f 138 142 139
f 139 142 144
f 139 144 143
f 140 145 146
f 140 146 141
f 141 146 147
f 143 144 149
f 143 149 148
f 145 150 146
f 146 151 147
f 146 150 151
f 147 151 152
f 148 149 154
f 148 154 155
f 148 155 153
f 150 156 151
f 151 156 152
f 152 156 157
f 152 157 158
f 152 158 159
f 153 155 161
f 153 161 162
f 153 162 163
f 153 163 160
f 158 164 165
f 158 165 159
f 159 165 166
f 160 163 167
f 161 168 162
f 162 168 163
f 163 169 167
f 164 170 165
f 165 170 166
f 166 170 171
f 166 171 172
f 167 169 173
f 169 174 175
f 169 175 173
f 170 176 171
f 171 176 172
f 172 176 178
f 172 178 177
f 174 179 180
f 174 180 175
f 175 180 181
f 177 182 183
f 177 178 182
f 178 184 182
f 179 185 186
f 179 186 180
f 180 186 187
f 180 187 181
f 182 188 189
f 182 189 183
f 182 184 188
f 184 190 188
f 185 191 192
f 185 192 193
f 185 193 186
f 186 193 194
f 188 190 189
f 189 190 196
f 189 196 195
f 190 197 196
f 191 198 199
f 191 199 200
f 191 200 201
f 191 201 202
f 191 202 192
f 192 194 193
f 195 196 197
f 195 197 204
f 195 204 203
f 197 205 204
f 198 206 199
f 198 207 206
f 199 206 209
f 199 209 208
f 203 204 205
f 203 205 211
f 203 211 210
f 206 207 209
f 207 212 213
f 207 213 209
f 208 209 214
f 209 213 212
f 209 212 218
f 209 218 223
f 209 223 219
f 209 219 214
f 210 211 215
f 210 215 216
f 210 216 217
f 216 220 221
f 216 221 217
f 218 222 223
f 219 223 222
f 219 222 224
f 220 225 221
f 221 225 226
f 221 226 227
f 222 228 224
f 224 228 229
f 224 229 230
f 226 231 227
f 226 232 231
f 228 231 233
f 228 233 229
f 229 233 234
f 229 234 230
f 231 232 233
f 232 235 233
f 233 235 234
