v -0.000372 -0.014459 0.036381
v -0.001110 -0.014420 0.036381
v -0.001110 -0.014412 0.036029
v -0.000372 -0.014415 0.036029
v 0.000369 -0.014456 0.036381
v -0.001850 -0.014345 0.036381
v -0.001850 -0.014370 0.036029
v -0.001110 -0.013703 0.035320
v -0.000372 -0.013703 0.035316
v 0.000369 -0.014381 0.036029
v 0.000965 -0.014431 0.036381
v -0.002591 -0.014231 0.036381
v -0.002591 -0.014290 0.036029
v -0.001850 -0.013703 0.035364
v -0.001778 -0.013639 0.035297
v -0.001110 -0.013678 0.035297
v -0.000372 -0.013684 0.035297
v 0.000369 -0.013648 0.035297
v 0.000369 -0.013703 0.035352
v 0.001110 -0.014309 0.036029
v 0.001536 -0.014387 0.036381
v -0.003332 -0.014078 0.036381
v -0.003332 -0.014170 0.036029
v -0.002591 -0.013703 0.035448
v -0.002591 -0.013551 0.035297
v -0.001850 -0.013634 0.035297
v 0.001118 -0.013570 0.035297
v 0.001110 -0.013703 0.035427
v 0.001851 -0.014198 0.036029
v 0.002204 -0.014301 0.036381
v -0.004072 -0.013884 0.036381
v -0.004072 -0.014009 0.036029
v -0.003332 -0.013703 0.035570
v -0.003321 -0.013425 0.035297
v 0.001851 -0.013453 0.035297
v 0.001851 -0.013703 0.035542
v 0.002591 -0.014045 0.036029
v 0.002591 -0.014220 0.036381
v -0.004459 -0.013778 0.036381
v -0.004813 -0.013809 0.036029
v -0.004813 -0.013703 0.035926
v -0.004072 -0.013703 0.035730
v -0.004072 -0.013256 0.035297
v 0.002594 -0.013292 0.035297
v 0.002591 -0.013703 0.035696
v 0.003332 -0.013851 0.036029
v 0.003686 -0.013987 0.036381
v -0.005200 -0.013517 0.036381
v -0.005554 -0.013567 0.036029
v -0.005145 -0.013703 0.036029
v -0.004813 -0.013045 0.035297
v 0.003332 -0.013087 0.035297
v 0.003332 -0.013703 0.035886
v 0.003800 -0.013703 0.036029
v 0.004602 -0.013703 0.036381
v -0.005941 -0.013209 0.036381
v -0.006295 -0.013278 0.036029
v -0.005554 -0.012962 0.035460
v -0.005050 -0.012964 0.035297
v 0.003705 -0.012962 0.035297
v 0.004073 -0.013614 0.036029
v 0.004660 -0.013684 0.036381
v -0.006459 -0.012959 0.036381
v -0.007035 -0.012945 0.036029
v -0.006999 -0.012962 0.036029
v -0.006295 -0.012962 0.035736
v -0.005554 -0.012786 0.035297
v 0.004078 -0.012834 0.035297
v 0.004813 -0.013328 0.036029
v 0.005167 -0.013506 0.036381
v -0.006682 -0.012850 0.036381
v -0.007035 -0.012125 0.035297
v -0.006835 -0.012222 0.035297
v -0.006297 -0.012481 0.035297
v -0.007776 -0.012556 0.036029
v 0.004813 -0.012534 0.035297
v 0.004813 -0.012962 0.035689
v 0.005554 -0.012998 0.036029
v 0.005908 -0.013195 0.036381
v -0.007422 -0.012439 0.036381
v -0.007776 -0.012220 0.035736
v -0.007757 -0.011722 0.035297
v -0.008344 -0.012220 0.036029
v 0.005460 -0.012225 0.035297
v 0.005554 -0.012962 0.035997
v 0.005627 -0.012962 0.036029
v 0.006295 -0.012962 0.036341
v 0.006295 -0.013003 0.036381
v -0.007776 -0.012211 0.036381
v -0.008517 -0.012114 0.036029
v -0.008141 -0.011483 0.035297
v 0.005560 -0.012175 0.035297
v 0.005554 -0.012220 0.035334
v 0.006295 -0.012611 0.036029
v 0.006376 -0.012962 0.036381
v -0.008277 -0.011867 0.036381
v -0.008517 -0.011700 0.036381
v -0.009257 -0.011561 0.036029
v -0.009196 -0.010739 0.035297
v -0.008517 -0.011481 0.035498
v -0.008517 -0.011236 0.035297
v 0.006295 -0.011764 0.035297
v 0.006295 -0.012220 0.035689
v 0.007036 -0.012581 0.036381
v -0.008809 -0.011481 0.036381
v -0.009257 -0.011481 0.036092
v -0.009349 -0.011481 0.036029
v -0.009998 -0.010064 0.035297
v -0.009956 -0.010100 0.035297
v -0.009257 -0.010692 0.035297
v -0.008559 -0.011206 0.035297
v 0.006740 -0.011483 0.035297
v 0.007036 -0.012167 0.036029
v 0.007604 -0.012209 0.036381
v -0.009257 -0.011089 0.036381
v -0.009998 -0.010867 0.036029
v -0.010071 -0.010000 0.035297
v 0.007036 -0.011286 0.035297
v 0.007036 -0.011481 0.035456
v 0.007776 -0.012089 0.036381
v -0.009625 -0.010739 0.036381
v -0.009998 -0.010739 0.036119
v -0.010124 -0.010739 0.036029
v -0.010739 -0.009344 0.035297
v 0.007776 -0.010733 0.035297
v 0.007776 -0.011481 0.035888
v 0.007776 -0.011656 0.036029
v 0.007999 -0.011925 0.036381
v -0.009998 -0.010358 0.036381
v -0.010330 -0.010000 0.036381
v -0.010739 -0.010064 0.036029
v -0.010820 -0.009258 0.035297
v 0.008517 -0.010089 0.035297
v 0.008517 -0.010739 0.035778
v 0.008517 -0.011481 0.036345
v 0.008250 -0.011736 0.036381
v -0.010739 -0.009511 0.036381
v -0.010739 -0.010000 0.036072
v -0.010795 -0.010000 0.036029
v -0.011482 -0.008502 0.035297
v 0.008612 -0.010000 0.035297
v 0.009258 -0.010881 0.036381
v 0.009066 -0.011056 0.036381
v 0.008826 -0.011264 0.036381
v 0.008573 -0.011481 0.036381
v 0.009021 -0.011094 0.036381
v 0.008517 -0.011525 0.036381
v -0.010939 -0.009258 0.036381
v -0.011379 -0.009258 0.036029
v -0.012034 -0.007777 0.035297
v 0.009258 -0.009339 0.035297
v 0.009258 -0.010000 0.035749
v 0.009405 -0.010739 0.036381
v 0.009258 -0.010739 0.036278
v -0.011204 -0.008902 0.036381
v -0.011480 -0.009119 0.036029
v -0.012220 -0.007505 0.035297
v -0.011895 -0.008516 0.036029
v 0.009333 -0.009258 0.035297
v 0.009999 -0.010000 0.036288
v 0.009812 -0.010330 0.036381
v 0.009589 -0.010558 0.036381
v -0.011474 -0.008516 0.036381
v -0.011480 -0.008516 0.036377
v -0.012529 -0.007035 0.035297
v -0.011702 -0.008163 0.036381
v -0.012220 -0.007988 0.036029
v 0.009948 -0.008516 0.035297
v 0.009999 -0.009258 0.035800
v 0.010302 -0.009794 0.036381
v 0.010121 -0.010000 0.036381
v 0.009999 -0.010133 0.036381
v -0.011480 -0.008508 0.036381
v -0.012346 -0.007777 0.036029
v -0.012961 -0.006296 0.035297
v -0.011939 -0.007777 0.036381
v -0.012220 -0.007777 0.036139
v 0.009999 -0.008452 0.035297
v 0.009999 -0.008516 0.035335
v 0.010739 -0.009258 0.036376
v 0.010508 -0.009552 0.036381
v -0.012251 -0.007216 0.036381
v -0.012738 -0.007035 0.036029
v -0.013334 -0.005557 0.035297
v -0.012220 -0.007271 0.036381
v 0.010480 -0.007777 0.035297
v 0.010739 -0.008516 0.035931
v 0.010973 -0.008958 0.036381
v 0.010739 -0.009266 0.036381
v -0.012346 -0.007035 0.036381
v -0.012961 -0.006557 0.036029
v -0.013337 -0.005552 0.035297
v -0.012518 -0.006682 0.036381
v 0.010742 -0.007363 0.035297
v 0.010739 -0.007777 0.035512
v 0.011288 -0.008516 0.036381
v 0.011157 -0.008705 0.036381
v -0.012697 -0.006296 0.036381
v -0.013081 -0.006296 0.036029
v -0.013660 -0.004813 0.035297
v 0.010940 -0.007035 0.035297
v 0.011480 -0.007777 0.036140
v 0.011583 -0.008063 0.036381
v 0.011480 -0.008222 0.036381
v -0.012972 -0.005621 0.036381
v -0.013370 -0.005554 0.036029
v -0.013702 -0.004704 0.035297
v 0.011332 -0.006296 0.035297
v 0.011480 -0.007035 0.035769
v 0.011990 -0.007377 0.036381
v 0.011828 -0.007660 0.036381
v 0.011761 -0.007777 0.036381
v -0.012997 -0.005554 0.036381
v -0.013142 -0.005140 0.036381
v -0.013618 -0.004813 0.036029
v -0.013939 -0.004071 0.035297
v 0.011480 -0.006296 0.035429
v 0.012173 -0.007035 0.036381
v 0.011483 -0.005971 0.035297
v -0.013251 -0.004813 0.036381
v -0.013354 -0.004460 0.036381
v -0.013702 -0.004510 0.036029
v -0.014170 -0.003329 0.035297
v 0.012221 -0.006296 0.036100
v 0.012382 -0.006607 0.036381
v 0.011667 -0.005554 0.035297
v -0.013460 -0.004074 0.036381
v -0.013822 -0.004074 0.036029
v -0.014359 -0.002590 0.035297
v 0.012569 -0.006202 0.036381
v 0.012527 -0.006296 0.036381
v 0.011948 -0.004813 0.035297
v 0.012221 -0.005554 0.035809
v -0.013624 -0.003332 0.036381
v -0.013983 -0.003332 0.036029
v -0.013702 -0.003332 0.036305
v -0.014443 -0.002173 0.035297
v 0.012691 -0.005907 0.036381
v 0.011962 -0.004771 0.035297
v 0.012221 -0.004813 0.035554
v 0.012833 -0.005554 0.036381
v 0.012457 -0.005554 0.036029
v -0.013735 -0.002676 0.036381
v -0.014103 -0.002590 0.036029
v -0.014507 -0.001851 0.035297
v -0.013749 -0.002590 0.036381
v 0.012179 -0.004074 0.035297
v 0.012961 -0.004813 0.036259
v 0.013028 -0.004993 0.036381
v -0.013810 -0.002051 0.036381
v -0.013833 -0.001851 0.036381
v -0.014184 -0.001851 0.036029
v -0.014615 -0.001109 0.035297
v 0.012223 -0.003896 0.035297
v 0.012221 -0.004074 0.035337
v 0.013090 -0.004813 0.036381
v -0.013863 -0.001354 0.036381
v -0.014228 -0.001109 0.036029
v -0.014688 -0.000370 0.035297
v 0.012363 -0.003332 0.035297
v 0.013301 -0.004074 0.036381
v 0.013206 -0.004415 0.036381
v -0.013877 -0.001109 0.036381
v -0.013880 -0.000617 0.036381
v -0.014231 -0.000370 0.036029
v -0.014721 0.000369 0.035297
v 0.012644 -0.001843 0.035297
v 0.013468 -0.003332 0.036381
v 0.013390 -0.003687 0.036381
v -0.013880 -0.000370 0.036381
v -0.014197 0.000369 0.036029
v -0.014715 0.001116 0.035297
v 0.012769 -0.001098 0.035297
v 0.013594 -0.002590 0.036381
v -0.013855 0.000155 0.036381
v -0.013844 0.000369 0.036381
v -0.013783 0.000991 0.036381
v -0.014122 0.001111 0.036029
v -0.014674 0.001864 0.035297
v 0.012850 -0.000353 0.035297
v 0.013677 -0.001851 0.036381
v -0.013769 0.001111 0.036381
v -0.014011 0.001850 0.036029
v -0.014596 0.002592 0.035297
v 0.012886 0.000369 0.035297
v 0.013722 -0.001109 0.036381
v 0.013702 -0.001434 0.036381
v -0.013654 0.001850 0.036381
v -0.013855 0.002592 0.036029
v -0.014443 0.002592 0.035449
v -0.014443 0.003242 0.035297
v 0.012886 0.000380 0.035297
v 0.013727 -0.000370 0.036381
v -0.013551 0.002336 0.036381
v -0.014420 0.003336 0.035297
v -0.013496 0.002592 0.036381
v 0.012881 0.001116 0.035297
v 0.013691 0.000369 0.036381
v -0.014192 0.004072 0.035297
v -0.013415 0.002894 0.036381
v -0.013393 0.002978 0.036381
v -0.013660 0.003331 0.036029
v 0.012833 0.001853 0.035297
v 0.013630 0.000961 0.036381
v -0.014189 0.004081 0.035297
v -0.013292 0.003331 0.036381
v -0.013702 0.004072 0.035762
v -0.013326 0.003214 0.036381
v 0.012744 0.002592 0.035297
v 0.013613 0.001111 0.036381
v -0.013922 0.004814 0.035297
v -0.013045 0.004072 0.036381
v 0.012611 0.003331 0.035297
v 0.013496 0.001850 0.036381
v 0.013541 0.001580 0.036381
v -0.013702 0.005328 0.035297
v -0.012961 0.004286 0.036381
v -0.013702 0.004814 0.035501
v 0.012430 0.004072 0.035297
v 0.013335 0.002592 0.036381
v 0.013418 0.002219 0.036381
v -0.013131 0.004814 0.036029
v -0.013604 0.005553 0.035297
v -0.012852 0.004564 0.036381
v 0.012221 0.004761 0.035297
v 0.013131 0.003331 0.036381
v 0.013240 0.002944 0.036381
v -0.012749 0.004814 0.036381
v -0.013237 0.006295 0.035297
v -0.012660 0.005009 0.036381
v -0.012571 0.005200 0.036381
v -0.012794 0.005553 0.036029
v 0.012204 0.004814 0.035297
v 0.012961 0.003836 0.036381
v -0.012961 0.006295 0.035539
v -0.012961 0.006781 0.035297
v -0.012401 0.005553 0.036381
v 0.011928 0.005553 0.035297
v 0.012881 0.004072 0.036381
v -0.012137 0.006045 0.036381
v -0.012401 0.006295 0.036029
v -0.012814 0.007037 0.035297
v 0.011602 0.006295 0.035297
v 0.012580 0.004814 0.036381
v -0.011995 0.006295 0.036381
v -0.011900 0.006451 0.036381
v -0.012220 0.007037 0.035800
v -0.012329 0.007776 0.035297
v 0.012221 0.005567 0.036381
v 0.011480 0.006534 0.035297
v -0.011725 0.006731 0.036381
v -0.011947 0.007037 0.036029
v -0.012220 0.007929 0.035297
v -0.012220 0.007776 0.035387
v 0.011215 0.007037 0.035297
v 0.011814 0.006295 0.036381
v -0.011524 0.007037 0.036381
v -0.011778 0.008518 0.035297
v -0.011480 0.007776 0.035987
v -0.011480 0.007101 0.036381
v -0.011279 0.007384 0.036381
v -0.011251 0.007423 0.036381
v 0.010770 0.007776 0.035297
v 0.011480 0.006820 0.036381
v -0.011480 0.008518 0.035530
v -0.011480 0.008876 0.035297
v -0.011427 0.007776 0.036029
v -0.011098 0.007626 0.036381
v -0.010981 0.007776 0.036381
v 0.011460 0.006851 0.036381
v 0.010739 0.007823 0.035297
v -0.010739 0.008076 0.036381
v -0.010828 0.008518 0.036029
v -0.011145 0.009257 0.035297
v 0.011338 0.007037 0.036381
v 0.010249 0.008518 0.035297
v -0.010355 0.008518 0.036381
v -0.010739 0.008518 0.036097
v -0.010739 0.008618 0.036029
v -0.010739 0.009257 0.035597
v -0.010739 0.009687 0.035297
v 0.011082 0.007390 0.036381
v 0.009999 0.008840 0.035297
v 0.010787 0.007776 0.036381
v -0.009998 0.008896 0.036381
v -0.010421 0.009999 0.035297
v -0.009998 0.009257 0.036126
v 0.009650 0.009257 0.035297
v 0.010734 0.007843 0.036381
v -0.009628 0.009257 0.036381
v -0.009998 0.009999 0.035587
v -0.009998 0.010385 0.035297
v 0.010146 0.008518 0.036381
v 0.010491 0.008132 0.036381
v 0.009258 0.009693 0.035297
v -0.009257 0.009593 0.036381
v -0.009578 0.010740 0.035297
v -0.009257 0.009999 0.036075
v 0.009999 0.008673 0.036381
v 0.008960 0.009996 0.035297
v -0.008748 0.010018 0.036381
v -0.009257 0.010740 0.035499
v -0.009257 0.010993 0.035297
v 0.009804 0.008871 0.036381
v 0.008957 0.009999 0.035297
v -0.008517 0.010196 0.036381
v -0.008598 0.011471 0.035297
v -0.008517 0.010740 0.035944
v 0.009403 0.009257 0.036381
v 0.008514 0.010415 0.035297
v -0.008336 0.010329 0.036381
v -0.008514 0.011530 0.035297
v -0.008258 0.010385 0.036381
v -0.008085 0.010507 0.036381
v 0.009258 0.009390 0.036381
v 0.008141 0.010740 0.035297
v -0.007776 0.010740 0.036363
v -0.007743 0.010740 0.036381
v -0.007776 0.011480 0.035735
v -0.007776 0.011988 0.035297
v -0.007776 0.010718 0.036381
v 0.008999 0.009612 0.036381
v 0.007776 0.011038 0.035297
v -0.007035 0.011166 0.036381
v -0.007364 0.012219 0.035297
v -0.007035 0.011568 0.036029
v 0.008514 0.010007 0.036381
v 0.007175 0.011480 0.035297
v -0.006412 0.011493 0.036381
v -0.007035 0.012221 0.035452
v -0.007033 0.012396 0.035297
v 0.007512 0.010740 0.036381
v 0.007036 0.011577 0.035297
v 0.007359 0.010849 0.036381
v -0.006295 0.011552 0.036381
v -0.006295 0.012744 0.035297
v -0.005944 0.011721 0.036381
v -0.006295 0.012221 0.035775
v 0.006317 0.012030 0.035297
v 0.006320 0.011480 0.036381
v -0.005766 0.012960 0.035297
v -0.004813 0.012216 0.036381
v 0.005977 0.012221 0.035297
v 0.005908 0.011710 0.036381
v -0.005548 0.013046 0.035297
v -0.004432 0.012369 0.036381
v 0.005554 0.012449 0.035297
v 0.005167 0.012057 0.036381
v -0.004813 0.013297 0.035297
v -0.003719 0.012602 0.036381
v 0.004811 0.012796 0.035297
v 0.004407 0.012960 0.035297
v 0.004426 0.012352 0.036381
v -0.004072 0.013502 0.035297
v -0.002978 0.012796 0.036381
v 0.004073 0.013091 0.035297
v 0.003332 0.013338 0.035297
v 0.003332 0.012680 0.036381
v -0.003332 0.013669 0.035297
v -0.001976 0.012977 0.036381
v 0.002597 0.013538 0.035297
v 0.002591 0.012855 0.036381
v -0.002580 0.013794 0.035297
v -0.001480 0.013052 0.036381
v 0.001853 0.013697 0.035297
v 0.002204 0.012941 0.036381
v -0.001850 0.013874 0.035297
v -0.000756 0.013113 0.036381
v 0.001110 0.013813 0.035297
v 0.001463 0.013046 0.036381
v -0.001110 0.013919 0.035297
v -0.000372 0.013924 0.035297
v 0.000369 0.013113 0.036381
v 0.000369 0.013888 0.035297
v 0.001110 0.013069 0.036381
f 1 2 3
f 1 3 4
f 1 4 5
f 1 5 11
f 1 11 21
f 1 21 30
f 1 30 38
f 1 38 47
f 1 47 55
f 1 55 62
f 1 62 70
f 1 70 79
f 1 79 88
f 1 88 95
f 1 95 104
f 1 104 114
f 1 114 120
f 1 120 128
f 1 128 136
f 1 136 147
f 1 147 145
f 1 145 144
f 1 144 146
f 1 146 143
f 1 143 142
f 1 142 153
f 1 153 162
f 1 162 161
f 1 161 172
f 1 172 171
f 1 171 170
f 1 170 181
f 1 181 189
f 1 189 188
f 1 188 197
f 1 197 196
f 1 196 204
f 1 204 203
f 1 203 212
f 1 212 211
f 1 211 210
f 1 210 218
f 1 218 225
f 1 225 231
f 1 231 230
f 1 230 238
f 1 238 241
f 1 241 249
f 1 249 256
f 1 256 262
f 1 262 261
f 1 261 269
f 1 269 268
f 1 268 274
f 1 274 281
f 1 281 287
f 1 287 286
f 1 286 293
f 1 293 298
f 1 298 304
f 1 304 310
f 1 310 315
f 1 315 314
f 1 314 321
f 1 321 320
f 1 320 327
f 1 327 326
f 1 326 334
f 1 334 339
f 1 339 344
f 1 344 349
f 1 349 356
f 1 356 364
f 1 364 370
f 1 370 375
f 1 375 382
f 1 382 384
f 1 384 389
f 1 389 394
f 1 394 393
f 1 393 399
f 1 399 404
f 1 404 409
f 1 409 415
f 1 415 422
f 1 422 427
f 1 427 432
f 1 432 434
f 1 434 440
f 1 440 444
f 1 444 448
f 1 448 453
f 1 453 458
f 1 458 462
f 1 462 466
f 1 466 470
f 1 470 475
f 1 475 473
f 1 473 468
f 1 468 464
f 1 464 460
f 1 460 455
f 1 455 450
f 1 450 446
f 1 446 442
f 1 442 437
f 1 437 435
f 1 435 429
f 1 429 424
f 1 424 418
f 1 418 421
f 1 421 414
f 1 414 413
f 1 413 411
f 1 411 406
f 1 406 401
f 1 401 396
f 1 396 390
f 1 390 385
f 1 385 377
f 1 377 372
f 1 372 369
f 1 369 368
f 1 368 362
f 1 362 361
f 1 361 360
f 1 360 357
f 1 357 351
f 1 351 346
f 1 346 345
f 1 345 340
f 1 340 337
f 1 337 331
f 1 331 330
f 1 330 328
f 1 328 324
f 1 324 317
f 1 317 312
f 1 312 306
f 1 306 308
f 1 308 301
f 1 301 300
f 1 300 296
f 1 296 294
f 1 294 288
f 1 288 282
f 1 282 277
f 1 277 276
f 1 276 275
f 1 275 270
f 1 270 264
f 1 264 263
f 1 263 257
f 1 257 251
f 1 251 250
f 1 250 246
f 1 246 243
f 1 243 234
f 1 234 227
f 1 227 221
f 1 221 220
f 1 220 214
f 1 214 213
f 1 213 205
f 1 205 198
f 1 198 193
f 1 193 190
f 1 190 182
f 1 182 185
f 1 185 176
f 1 176 166
f 1 166 173
f 1 173 163
f 1 163 155
f 1 155 148
f 1 148 137
f 1 137 130
f 1 130 129
f 1 129 121
f 1 121 115
f 1 115 105
f 1 105 97
f 1 97 96
f 1 96 89
f 1 89 80
f 1 80 71
f 1 71 63
f 1 63 56
f 1 56 48
f 1 48 39
f 1 39 31
f 1 31 22
f 1 22 12
f 1 12 6
f 1 6 2
f 2 6 7
f 2 7 3
f 3 7 8
f 3 8 9
f 3 9 4
f 4 9 10
f 4 10 11
f 4 11 5
f 6 12 13
f 6 13 7
f 7 13 14
f 7 14 8
f 8 14 15
f 8 15 16
f 8 16 17
f 8 17 9
f 9 17 18
f 9 18 19
f 9 19 10
f 10 19 20
f 10 20 21
f 10 21 11
f 12 22 23
f 12 23 13
f 13 23 24
f 13 24 14
f 14 24 25
f 14 25 26
f 14 26 15
f 15 26 25
f 15 25 34
f 15 34 43
f 15 43 51
f 15 51 59
f 15 59 67
f 15 67 74
f 15 74 73
f 15 73 72
f 15 72 82
f 15 82 91
f 15 91 101
f 15 101 111
f 15 111 99
f 15 99 110
f 15 110 109
f 15 109 108
f 15 108 117
f 15 117 124
f 15 124 132
f 15 132 140
f 15 140 150
f 15 150 157
f 15 157 165
f 15 165 175
f 15 175 184
f 15 184 192
f 15 192 200
f 15 200 207
f 15 207 216
f 15 216 223
f 15 223 229
f 15 229 237
f 15 237 245
f 15 245 253
f 15 253 259
f 15 259 266
f 15 266 272
f 15 272 279
f 15 279 284
f 15 284 291
f 15 291 295
f 15 295 299
f 15 299 305
f 15 305 311
f 15 311 316
f 15 316 323
f 15 323 329
f 15 329 336
f 15 336 342
f 15 342 348
f 15 348 353
f 15 353 358
f 15 358 366
f 15 366 374
f 15 374 381
f 15 381 386
f 15 386 392
f 15 392 397
f 15 397 403
f 15 403 407
f 15 407 412
f 15 412 420
f 15 420 425
f 15 425 431
f 15 431 436
f 15 436 441
f 15 441 445
f 15 445 449
f 15 449 454
f 15 454 459
f 15 459 463
f 15 463 467
f 15 467 471
f 15 471 472
f 15 472 474
f 15 474 469
f 15 469 465
f 15 465 461
f 15 461 457
f 15 457 456
f 15 456 452
f 15 452 451
f 15 451 447
f 15 447 443
f 15 443 439
f 15 439 433
f 15 433 428
f 15 428 423
f 15 423 416
f 15 416 410
f 15 410 405
f 15 405 400
f 15 400 395
f 15 395 388
f 15 388 383
f 15 383 376
f 15 376 371
f 15 371 363
f 15 363 355
f 15 355 350
f 15 350 343
f 15 343 338
f 15 338 333
f 15 333 325
f 15 325 319
f 15 319 313
f 15 313 309
f 15 309 303
f 15 303 297
f 15 297 292
f 15 292 285
f 15 285 280
f 15 280 273
f 15 273 267
f 15 267 260
f 15 260 254
f 15 254 247
f 15 247 239
f 15 239 232
f 15 232 226
f 15 226 219
f 15 219 208
f 15 208 201
f 15 201 194
f 15 194 186
f 15 186 178
f 15 178 168
f 15 168 159
f 15 159 151
f 15 151 141
f 15 141 133
f 15 133 125
f 15 125 118
f 15 118 112
f 15 112 102
f 15 102 92
f 15 92 84
f 15 84 76
f 15 76 68
f 15 68 60
f 15 60 52
f 15 52 44
f 15 44 35
f 15 35 27
f 15 27 18
f 15 18 17
f 15 17 16
f 18 27 28
f 18 28 19
f 19 28 20
f 20 28 29
f 20 29 30
f 20 30 21
f 22 31 32
f 22 32 23
f 23 32 33
f 23 33 25
f 23 25 24
f 25 33 34
f 27 35 36
f 27 36 29
f 27 29 28
f 29 36 37
f 29 37 30
f 30 37 38
f 31 39 40
f 31 40 32
f 32 40 41
f 32 41 42
f 32 42 33
f 33 42 34
f 34 42 43
f 35 44 45
f 35 45 37
f 35 37 36
f 37 45 46
f 37 46 47
f 37 47 38
f 39 48 49
f 39 49 50
f 39 50 40
f 40 50 41
f 41 50 51
f 41 51 43
f 41 43 42
f 44 52 53
f 44 53 46
f 44 46 45
f 46 53 54
f 46 54 55
f 46 55 47
f 48 56 57
f 48 57 49
f 49 57 58
f 49 58 59
f 49 59 51
f 49 51 50
f 52 60 61
f 52 61 54
f 52 54 53
f 54 61 55
f 55 61 62
f 56 63 64
f 56 64 65
f 56 65 57
f 57 66 67
f 57 67 58
f 57 65 66
f 58 67 59
f 60 68 61
f 61 68 69
f 61 69 70
f 61 70 62
f 63 71 64
f 64 72 73
f 64 73 74
f 64 74 65
f 64 71 75
f 64 75 72
f 65 74 66
f 66 74 67
f 68 76 77
f 68 77 69
f 69 77 78
f 69 78 79
f 69 79 70
f 71 80 75
f 72 75 81
f 72 81 82
f 75 83 81
f 75 80 83
f 76 84 85
f 76 85 78
f 76 78 77
f 78 85 86
f 78 86 87
f 78 87 79
f 79 87 88
f 80 89 90
f 80 90 83
f 81 83 82
f 82 83 90
f 82 90 91
f 84 92 93
f 84 93 85
f 85 93 86
f 86 93 87
f 87 94 95
f 87 95 88
f 87 93 94
f 89 96 90
f 90 96 97
f 90 97 98
f 90 98 99
f 90 99 100
f 90 100 91
f 91 100 101
f 92 102 103
f 92 103 94
f 92 94 93
f 94 103 104
f 94 104 95
f 97 105 98
f 98 105 106
f 98 106 107
f 98 107 108
f 98 108 109
f 98 109 110
f 98 110 99
f 99 111 100
f 100 111 101
f 102 112 113
f 102 113 104
f 102 104 103
f 104 113 114
f 105 115 106
f 106 115 107
f 107 115 116
f 107 116 117
f 107 117 108
f 112 118 119
f 112 119 113
f 113 119 114
f 114 119 120
f 115 121 116
f 116 121 122
f 116 122 123
f 116 123 124
f 116 124 117
f 118 125 126
f 118 126 127
f 118 127 120
f 118 120 119
f 120 127 128
f 121 129 122
f 122 129 123
f 123 130 131
f 123 131 132
f 123 132 124
f 123 129 130
f 125 133 134
f 125 134 135
f 125 135 136
f 125 136 126
f 126 136 128
f 126 128 127
f 130 137 138
f 130 138 131
f 131 138 139
f 131 139 140
f 131 140 132
f 133 141 142
f 133 142 143
f 133 143 134
f 134 144 145
f 134 145 135
f 134 143 146
f 134 146 144
f 135 147 136
f 135 145 147
f 137 148 139
f 137 139 138
f 139 148 149
f 139 149 140
f 140 149 150
f 141 151 152
f 141 152 153
f 141 153 154
f 141 154 142
f 142 154 153
f 148 155 149
f 149 155 156
f 149 156 150
f 150 156 158
f 150 158 157
f 151 159 160
f 151 160 152
f 152 160 161
f 152 161 162
f 152 162 153
f 155 163 164
f 155 164 156
f 156 164 158
f 157 158 165
f 158 166 167
f 158 167 165
f 158 164 166
f 159 168 169
f 159 169 170
f 159 170 160
f 160 170 171
f 160 171 172
f 160 172 161
f 163 173 164
f 164 173 166
f 165 174 175
f 165 167 174
f 166 176 167
f 167 176 177
f 167 177 174
f 168 178 179
f 168 179 169
f 169 179 180
f 169 180 181
f 169 181 170
f 174 182 183
f 174 183 175
f 174 177 182
f 175 183 184
f 176 185 177
f 177 185 182
f 178 186 187
f 178 187 188
f 178 188 179
f 179 188 180
f 180 189 181
f 180 188 189
f 182 190 183
f 183 191 192
f 183 192 184
f 183 190 193
f 183 193 191
f 186 194 195
f 186 195 196
f 186 196 197
f 186 197 187
f 187 197 188
f 191 193 198
f 191 198 199
f 191 199 192
f 192 199 200
f 194 201 202
f 194 202 195
f 195 202 203
f 195 203 204
f 195 204 196
f 198 205 199
f 199 205 206
f 199 206 200
f 200 206 207
f 201 208 209
f 201 209 210
f 201 210 211
f 201 211 212
f 201 212 202
f 202 212 203
f 205 213 206
f 206 213 214
f 206 214 215
f 206 215 216
f 206 216 207
f 208 217 218
f 208 218 209
f 208 219 217
f 209 218 210
f 214 220 215
f 215 220 221
f 215 221 222
f 215 222 223
f 215 223 216
f 217 219 224
f 217 224 225
f 217 225 218
f 219 226 224
f 221 227 228
f 221 228 222
f 222 228 223
f 223 228 229
f 224 230 231
f 224 231 225
f 224 226 230
f 226 232 233
f 226 233 230
f 227 234 228
f 228 235 229
f 228 234 236
f 228 236 235
f 229 235 237
f 230 233 238
f 232 239 240
f 232 240 241
f 232 241 242
f 232 242 233
f 233 242 238
f 234 243 236
f 235 244 245
f 235 245 237
f 235 236 243
f 235 243 246
f 235 246 244
f 238 242 241
f 239 247 240
f 240 248 249
f 240 249 241
f 240 247 248
f 244 246 250
f 244 250 251
f 244 251 252
f 244 252 253
f 244 253 245
f 247 254 255
f 247 255 256
f 247 256 248
f 248 256 249
f 251 257 252
f 252 257 258
f 252 258 259
f 252 259 253
f 254 260 261
f 254 261 255
f 255 261 262
f 255 262 256
f 257 263 258
f 258 263 264
f 258 264 265
f 258 265 266
f 258 266 259
f 260 267 268
f 260 268 269
f 260 269 261
f 264 270 265
f 265 270 271
f 265 271 272
f 265 272 266
f 267 273 274
f 267 274 268
f 270 275 271
f 271 275 276
f 271 276 277
f 271 277 278
f 271 278 279
f 271 279 272
f 273 280 281
f 273 281 274
f 277 282 278
f 278 282 283
f 278 283 284
f 278 284 279
f 280 285 286
f 280 286 287
f 280 287 281
f 282 288 283
f 283 289 290
f 283 290 284
f 283 288 289
f 284 290 291
f 285 292 293
f 285 293 286
f 288 294 289
f 289 295 290
f 289 294 296
f 289 296 295
f 290 295 291
f 292 297 293
f 293 297 298
f 295 296 300
f 295 300 301
f 295 301 302
f 295 302 299
f 297 303 298
f 298 303 304
f 299 302 306
f 299 306 307
f 299 307 305
f 301 308 302
f 302 308 306
f 303 309 310
f 303 310 304
f 305 307 311
f 306 312 307
f 307 312 311
f 309 313 314
f 309 314 315
f 309 315 310
f 311 312 317
f 311 317 318
f 311 318 316
f 313 319 320
f 313 320 321
f 313 321 314
f 316 318 322
f 316 322 323
f 317 324 318
f 318 324 322
f 319 325 326
f 319 326 327
f 319 327 320
f 322 324 328
f 322 328 323
f 323 328 330
f 323 330 331
f 323 331 332
f 323 332 329
f 325 333 326
f 326 333 334
f 329 335 336
f 329 332 337
f 329 337 335
f 331 337 332
f 333 338 339
f 333 339 334
f 335 337 340
f 335 340 341
f 335 341 336
f 336 341 342
f 338 343 344
f 338 344 339
f 340 345 341
f 341 345 342
f 342 345 346
f 342 346 347
f 342 347 348
f 343 349 344
f 343 350 349
f 346 351 347
f 347 351 352
f 347 352 348
f 348 352 354
f 348 354 353
f 349 350 355
f 349 355 356
f 351 357 352
f 352 357 354
f 353 354 359
f 353 359 358
f 354 357 360
f 354 360 361
f 354 361 362
f 354 362 359
f 355 363 356
f 356 363 364
f 358 365 366
f 358 359 367
f 358 367 368
f 358 368 369
f 358 369 365
f 359 362 367
f 362 368 367
f 363 370 364
f 363 371 370
f 365 369 372
f 365 372 373
f 365 373 366
f 366 373 374
f 370 371 375
f 371 376 375
f 372 377 378
f 372 378 373
f 373 378 374
f 374 378 379
f 374 379 380
f 374 380 381
f 375 376 382
f 376 383 384
f 376 384 382
f 377 385 380
f 377 380 379
f 377 379 378
f 380 385 381
f 381 385 387
f 381 387 386
f 383 388 389
f 383 389 384
f 385 390 387
f 386 387 390
f 386 390 391
f 386 391 392
f 388 393 394
f 388 394 389
f 388 395 393
f 390 396 391
f 391 396 392
f 392 396 398
f 392 398 397
f 393 395 399
f 395 400 399
f 396 401 398
f 397 398 402
f 397 402 403
f 398 401 402
f 399 400 404
f 400 405 404
f 401 406 402
f 402 406 403
f 403 406 408
f 403 408 407
f 404 405 409
f 405 410 409
f 406 411 408
f 407 408 412
f 408 411 413
f 408 413 414
f 408 414 412
f 409 410 415
f 410 416 415
f 412 414 417
f 412 417 418
f 412 418 419
f 412 419 420
f 414 421 417
f 415 416 422
f 416 423 422
f 417 421 418
f 418 424 419
f 419 424 420
f 420 424 426
f 420 426 425
f 422 423 427
f 423 428 427
f 424 429 426
f 425 426 430
f 425 430 431
f 426 429 430
f 427 428 432
f 428 433 434
f 428 434 432
f 429 431 430
f 429 435 431
f 431 435 437
f 431 437 438
f 431 438 436
f 433 439 434
f 434 439 440
f 436 438 437
f 436 437 442
f 436 442 441
f 439 443 440
f 440 443 444
f 441 442 446
f 441 446 445
f 443 447 444
f 444 447 448
f 445 446 449
f 446 450 449
f 447 451 448
f 448 451 452
f 448 452 453
f 449 450 454
f 450 455 454
f 452 456 453
f 453 456 457
f 453 457 458
f 454 455 459
f 455 460 459
f 457 461 458
f 458 461 462
f 459 460 463
f 460 464 463
f 461 465 466
f 461 466 462
f 463 464 467
f 464 468 467
f 465 469 466
f 466 469 470
f 467 468 471
f 468 472 471
f 468 473 472
f 469 474 470
f 470 474 475
f 472 473 474
f 473 475 474
