v 0.000370 -0.013558 0.029410
v 0.000370 -0.013558 0.029412
v 0.000365 -0.013558 0.029410
v 0.001109 -0.013555 0.029410
v 0.000312 -0.013001 0.030370
v -0.000401 -0.012984 0.030370
v -0.000368 -0.013522 0.029412
v -0.000374 -0.013522 0.029410
v 0.001092 -0.012973 0.030370
v 0.001850 -0.013511 0.029410
v -0.001850 -0.012873 0.030370
v -0.001109 -0.013447 0.029410
v 0.001850 -0.012901 0.030370
v 0.002591 -0.013425 0.029410
v -0.002591 -0.012781 0.030370
v -0.001850 -0.013328 0.029410
v 0.002591 -0.012790 0.030370
v 0.003332 -0.013297 0.029410
v 0.003332 -0.013297 0.029412
v -0.002918 -0.012723 0.030370
v -0.003332 -0.012648 0.030370
v -0.002591 -0.013164 0.029412
v -0.002591 -0.013164 0.029410
v 0.003332 -0.012632 0.030370
v 0.004073 -0.013128 0.029410
v 0.004073 -0.013128 0.029412
v -0.004073 -0.012471 0.030370
v -0.004115 -0.012460 0.030370
v -0.003312 -0.012964 0.029410
v 0.003849 -0.012507 0.030370
v 0.004649 -0.012964 0.029410
v -0.003332 -0.012959 0.029410
v -0.004341 -0.012393 0.030370
v 0.004814 -0.012915 0.029412
v 0.004814 -0.012176 0.030370
v 0.004814 -0.012915 0.029410
v -0.004814 -0.012246 0.030370
v -0.004847 -0.012235 0.030370
v -0.004073 -0.012704 0.029410
v 0.005532 -0.012662 0.029410
v 0.005555 -0.012654 0.029412
v 0.005555 -0.011874 0.030370
v -0.005555 -0.011971 0.030370
v -0.004814 -0.012398 0.029410
v 0.005555 -0.012654 0.029410
v 0.006293 -0.012349 0.029410
v 0.006069 -0.011644 0.030370
v -0.005773 -0.011880 0.030370
v -0.005183 -0.012224 0.029410
v -0.006296 -0.011647 0.030370
v 0.006553 -0.012224 0.029410
v 0.007037 -0.011985 0.029410
v 0.006810 -0.011247 0.030370
v -0.006464 -0.011563 0.030370
v -0.005555 -0.012038 0.029412
v -0.005555 -0.012038 0.029410
v 0.007778 -0.011566 0.029410
v 0.007778 -0.011566 0.029412
v 0.007652 -0.010712 0.030370
v -0.007037 -0.011261 0.030370
v -0.006296 -0.011622 0.029410
v 0.007915 -0.011480 0.029410
v 0.008516 -0.011083 0.029412
v 0.008292 -0.010248 0.030370
v -0.007230 -0.011150 0.030370
v -0.007568 -0.010947 0.030370
v -0.007775 -0.010817 0.030370
v -0.006514 -0.011483 0.029410
v 0.008516 -0.011083 0.029410
v 0.008986 -0.010742 0.029410
v 0.008988 -0.010739 0.029412
v 0.009257 -0.010531 0.029412
v 0.008588 -0.009998 0.030370
v -0.007862 -0.010761 0.030370
v -0.007037 -0.011133 0.029410
v 0.009257 -0.010531 0.029410
v 0.009271 -0.010520 0.029410
v 0.009886 -0.009998 0.029412
v 0.009257 -0.009399 0.030370
v -0.008516 -0.010301 0.030370
v -0.007565 -0.010739 0.029410
v 0.009886 -0.009998 0.029410
v 0.009413 -0.009258 0.030370
v 0.009998 -0.009899 0.029410
v -0.008620 -0.010223 0.030370
v -0.008765 -0.010112 0.030370
v -0.007775 -0.010573 0.029410
v 0.010652 -0.009258 0.029410
v 0.009998 -0.008642 0.030370
v -0.008905 -0.009998 0.030370
v -0.009257 -0.009704 0.030370
v -0.009391 -0.009588 0.030370
v -0.008424 -0.010007 0.029410
v 0.010115 -0.008517 0.030370
v 0.010744 -0.009158 0.029410
v 0.010739 -0.009163 0.029412
v -0.009509 -0.009482 0.030370
v -0.008516 -0.009921 0.029410
v -0.009598 -0.009399 0.030370
v 0.011309 -0.008517 0.029412
v 0.010719 -0.007776 0.030370
v 0.011309 -0.008517 0.029410
v -0.009165 -0.009258 0.029410
v -0.009749 -0.009258 0.030370
v -0.009998 -0.009013 0.030370
v -0.010144 -0.008866 0.030370
v 0.011480 -0.008306 0.029410
v 0.011245 -0.007035 0.030370
v 0.011882 -0.007776 0.029412
v -0.009257 -0.009155 0.029410
v -0.010342 -0.008658 0.030370
v -0.010471 -0.008517 0.030370
v 0.011880 -0.007782 0.029410
v 0.011480 -0.006666 0.030370
v 0.012221 -0.007285 0.029412
v 0.012221 -0.007035 0.029550
v -0.010739 -0.008206 0.030370
v -0.009780 -0.008531 0.029410
v 0.012221 -0.007285 0.029410
v 0.011715 -0.006294 0.030370
v 0.012386 -0.007035 0.029410
v -0.010862 -0.008059 0.030370
v -0.010910 -0.008001 0.030370
v -0.009791 -0.008517 0.029410
v 0.011975 -0.006294 0.030147
v 0.011846 -0.006070 0.030370
v 0.012822 -0.006294 0.029410
v 0.012822 -0.006294 0.029412
v 0.012221 -0.006294 0.029936
v -0.011010 -0.007876 0.030370
v -0.009998 -0.008242 0.029410
v -0.011089 -0.007776 0.030370
v 0.012221 -0.005856 0.030147
v 0.012131 -0.005554 0.030370
v 0.012962 -0.006028 0.029410
v 0.012221 -0.005554 0.030291
v 0.012962 -0.006028 0.029412
v -0.010331 -0.007776 0.029410
v -0.011407 -0.007346 0.030370
v -0.011480 -0.007246 0.030370
v 0.012182 -0.005456 0.030370
v 0.013202 -0.005554 0.029410
v 0.012383 -0.005554 0.030147
v 0.012962 -0.005554 0.029628
v -0.010739 -0.007132 0.029410
v -0.011626 -0.007035 0.030370
v 0.012489 -0.004813 0.030370
v 0.012962 -0.004813 0.029936
v 0.012732 -0.004813 0.030147
v 0.013529 -0.004813 0.029410
v 0.013529 -0.004813 0.029412
v -0.010798 -0.007035 0.029410
v -0.012093 -0.006294 0.030370
v 0.012584 -0.004588 0.030370
v 0.013703 -0.004358 0.029410
v 0.013703 -0.004358 0.029412
v 0.013029 -0.004072 0.030147
v 0.012791 -0.004072 0.030370
v -0.012221 -0.006064 0.030370
v -0.012361 -0.005812 0.030370
v -0.011195 -0.006294 0.029410
v 0.013809 -0.004072 0.029410
v 0.013809 -0.004072 0.029412
v 0.012853 -0.003897 0.030370
v -0.012495 -0.005554 0.030370
v -0.011480 -0.005676 0.029410
v -0.012724 -0.005071 0.030370
v 0.014041 -0.003331 0.029410
v 0.014041 -0.003331 0.029412
v 0.013703 -0.003331 0.029739
v 0.013043 -0.003331 0.030370
v 0.012962 -0.003575 0.030370
v -0.011536 -0.005551 0.029410
v -0.012842 -0.004813 0.030370
v 0.014234 -0.002590 0.029410
v 0.014234 -0.002590 0.029412
v 0.013703 -0.002590 0.029929
v 0.013479 -0.002590 0.030147
v 0.013250 -0.002590 0.030370
v -0.012112 -0.004072 0.029410
v -0.012962 -0.004513 0.030370
v -0.013136 -0.004072 0.030370
v -0.012962 -0.004072 0.030207
v 0.014382 -0.001850 0.029410
v 0.013703 -0.001850 0.030083
v 0.013409 -0.001850 0.030370
v 0.014382 -0.001850 0.029412
v -0.012221 -0.003778 0.029410
v -0.013180 -0.003944 0.030370
v -0.012381 -0.003331 0.029410
v 0.014444 -0.001447 0.029410
v 0.014444 -0.001450 0.029412
v 0.013448 -0.001625 0.030370
v 0.013529 -0.001109 0.030370
v -0.013317 -0.003534 0.030370
v -0.013150 -0.003331 0.030147
v -0.012596 -0.002590 0.029410
v 0.014494 -0.001109 0.029410
v 0.014494 -0.001109 0.029412
v 0.014444 -0.001109 0.029462
v 0.013549 -0.000923 0.030370
v -0.013382 -0.003331 0.030370
v -0.012962 -0.002590 0.029767
v -0.012766 -0.001850 0.029410
v -0.013499 -0.002901 0.030370
v 0.014564 -0.000365 0.029410
v 0.014564 -0.000368 0.029412
v 0.014444 -0.000368 0.029534
v 0.013703 -0.000368 0.030273
v 0.013605 -0.000368 0.030370
v -0.013580 -0.002590 0.030370
v -0.012889 -0.001109 0.029410
v -0.013636 -0.002335 0.030370
v -0.013703 -0.002024 0.030370
v -0.013703 -0.001850 0.030334
v 0.014598 0.000373 0.029410
v 0.014600 0.000373 0.029412
v 0.013865 0.000373 0.030147
v 0.013703 0.000373 0.030309
v 0.013641 0.000373 0.030370
v -0.012971 -0.000376 0.029410
v -0.013740 -0.001850 0.030370
v -0.013703 -0.001109 0.030219
v 0.014598 0.000376 0.029410
v 0.014595 0.001114 0.029410
v 0.014595 0.001111 0.029412
v 0.014444 0.001111 0.029564
v 0.013638 0.001111 0.030370
v 0.013641 0.000451 0.030370
v -0.013854 -0.001109 0.030370
v -0.013904 -0.000620 0.030370
v -0.013907 -0.000593 0.030370
v -0.013703 -0.000407 0.030147
v -0.013930 -0.000368 0.030370
v -0.013703 -0.000368 0.030143
v -0.013966 0.000373 0.030370
v -0.013007 0.000373 0.029410
v 0.014553 0.001852 0.029410
v 0.014553 0.001852 0.029412
v 0.014444 0.001852 0.029522
v 0.013594 0.001852 0.030370
v 0.013817 0.001852 0.030147
v -0.013960 0.001111 0.030370
v -0.013703 0.001111 0.030112
v -0.013004 0.001111 0.029410
v 0.014475 0.002593 0.029412
v 0.014472 0.002593 0.029410
v 0.014444 0.002593 0.029443
v 0.013507 0.002593 0.030370
v 0.013734 0.002593 0.030147
v -0.013916 0.001852 0.030370
v -0.013695 0.001852 0.030147
v -0.012962 0.001766 0.029410
v 0.014444 0.002781 0.029410
v 0.014360 0.003311 0.029410
v 0.014444 0.002787 0.029412
v 0.014357 0.003331 0.029412
v 0.013487 0.002717 0.030370
v -0.013893 0.002068 0.030370
v -0.013835 0.002593 0.030370
v -0.012957 0.001852 0.029410
v 0.014198 0.004077 0.029410
v 0.014198 0.004071 0.029412
v 0.013703 0.003331 0.030055
v 0.013412 0.003159 0.030370
v -0.013712 0.003331 0.030370
v -0.013703 0.003331 0.030362
v -0.013703 0.002593 0.030239
v -0.012867 0.002593 0.029410
v 0.013999 0.004812 0.029410
v 0.014002 0.004812 0.029412
v 0.013703 0.004071 0.029895
v 0.013275 0.003813 0.030370
v 0.013381 0.003331 0.030370
v -0.013709 0.003344 0.030370
v -0.012736 0.003331 0.029412
v -0.012733 0.003331 0.029410
v 0.013991 0.004843 0.029410
v 0.013742 0.005553 0.029412
v 0.012981 0.005553 0.030147
v 0.013703 0.004812 0.029699
v 0.013104 0.004460 0.030370
v 0.013213 0.004071 0.030370
v -0.013547 0.004071 0.030370
v -0.012962 0.004071 0.029803
v -0.012557 0.004071 0.029410
v -0.013317 0.004071 0.030147
v 0.013739 0.005553 0.029410
v 0.013703 0.005634 0.029410
v 0.013703 0.005636 0.029412
v 0.012679 0.006294 0.030147
v 0.012962 0.005603 0.030147
v 0.012744 0.005553 0.030370
v 0.012962 0.004929 0.030370
v 0.013001 0.004812 0.030370
v -0.013340 0.004812 0.030370
v -0.012333 0.004812 0.029410
v -0.012962 0.004812 0.030009
v 0.013390 0.006266 0.029410
v 0.013376 0.006294 0.029412
v 0.012327 0.007035 0.030147
v 0.012271 0.006643 0.030370
v 0.012436 0.006294 0.030370
v -0.013264 0.005037 0.030370
v -0.013088 0.005553 0.030370
v -0.012962 0.005553 0.030251
v -0.012221 0.005123 0.029410
v 0.013376 0.006294 0.029410
v 0.012962 0.007032 0.029412
v 0.011922 0.007775 0.030147
v 0.012221 0.007237 0.030147
v 0.012221 0.007035 0.030243
v 0.012221 0.006746 0.030370
v -0.013035 0.005695 0.030370
v -0.012062 0.005553 0.029410
v 0.012956 0.007040 0.029410
v 0.012481 0.007775 0.029410
v 0.012481 0.007775 0.029412
v 0.011480 0.008480 0.030147
v 0.011662 0.007775 0.030370
v 0.011787 0.007562 0.030370
v 0.012003 0.007176 0.030370
v 0.011480 0.008067 0.030370
v 0.012078 0.007035 0.030370
v -0.012962 0.005872 0.030370
v -0.012221 0.006294 0.029850
v -0.011737 0.006294 0.029410
v -0.012789 0.006294 0.030370
v -0.012546 0.006294 0.030147
v 0.012221 0.008139 0.029410
v 0.012221 0.008139 0.029412
v 0.011455 0.008516 0.030147
v 0.011239 0.008439 0.030370
v 0.011354 0.008267 0.030370
v -0.012439 0.007035 0.030370
v -0.012221 0.006976 0.030147
v -0.011480 0.006802 0.029410
v 0.011938 0.008514 0.029410
v 0.011936 0.008516 0.029412
v 0.010921 0.009257 0.030147
v 0.011183 0.008516 0.030370
v -0.012221 0.007437 0.030370
v -0.012221 0.007035 0.030173
v -0.011480 0.007035 0.029519
v -0.011357 0.007035 0.029410
v 0.011480 0.009068 0.029410
v 0.011480 0.009071 0.029412
v 0.010739 0.009485 0.030147
v 0.010739 0.009257 0.030291
v 0.010739 0.009127 0.030370
v 0.010851 0.008977 0.030370
v -0.012031 0.007775 0.030370
v -0.011779 0.007775 0.030147
v -0.010915 0.007775 0.029410
v -0.011480 0.007775 0.029890
v 0.011315 0.009257 0.029410
v 0.011315 0.009257 0.029412
v 0.010308 0.009998 0.030147
v 0.010638 0.009257 0.030370
v -0.011539 0.008516 0.030370
v -0.011307 0.008516 0.030147
v -0.011480 0.008253 0.030147
v -0.010739 0.008042 0.029412
v -0.010739 0.008039 0.029410
v 0.010739 0.009862 0.029410
v 0.010739 0.009865 0.029412
v 0.009998 0.010336 0.030147
v 0.009998 0.010012 0.030370
v 0.010073 0.009926 0.030370
v -0.010982 0.009257 0.030370
v -0.010767 0.009257 0.030147
v -0.010739 0.008516 0.029681
v -0.010404 0.008516 0.029410
v 0.010602 0.009998 0.029410
v 0.010602 0.009998 0.029412
v 0.009603 0.010739 0.030147
v 0.009514 0.010514 0.030370
v 0.009788 0.010234 0.030370
v -0.010325 0.010012 0.030370
v -0.010144 0.009998 0.030147
v -0.010739 0.009290 0.030147
v -0.009998 0.009257 0.029550
v -0.009998 0.009038 0.029412
v -0.009998 0.009035 0.029410
v 0.009998 0.010550 0.029410
v 0.009998 0.010550 0.029412
v 0.009257 0.011066 0.030147
v 0.009285 0.010739 0.030370
v 0.009497 0.010531 0.030370
v -0.010222 0.010120 0.030370
v -0.009998 0.010156 0.030147
v -0.009998 0.009998 0.030038
v -0.009816 0.009257 0.029412
v -0.009816 0.009254 0.029410
v 0.009774 0.010739 0.029410
v 0.009774 0.010739 0.029412
v 0.008787 0.011480 0.030147
v 0.008706 0.011258 0.030370
v 0.009036 0.010966 0.030370
v -0.009593 0.010739 0.030370
v -0.009428 0.010739 0.030147
v -0.009257 0.009998 0.029499
v -0.009257 0.009873 0.029412
v -0.009257 0.009870 0.029410
v 0.009257 0.011149 0.029410
v 0.009257 0.011149 0.029412
v 0.008516 0.011701 0.030147
v 0.008516 0.011418 0.030370
v -0.009472 0.010852 0.030370
v -0.009257 0.010900 0.030147
v -0.009257 0.010739 0.030028
v -0.009134 0.009998 0.029412
v -0.009131 0.009998 0.029410
v 0.008804 0.011477 0.029410
v 0.008801 0.011480 0.029412
v 0.007778 0.012259 0.030147
v 0.007831 0.012220 0.030147
v 0.007778 0.011985 0.030370
v 0.008440 0.011480 0.030370
v 0.008454 0.011468 0.030370
v -0.008667 0.011527 0.030370
v -0.008597 0.011480 0.030147
v -0.008516 0.010739 0.029528
v -0.008516 0.010583 0.029412
v -0.008516 0.010581 0.029410
v 0.008516 0.011674 0.029410
v 0.008516 0.011677 0.029412
v 0.007037 0.012745 0.030147
v 0.007037 0.012481 0.030370
v 0.007434 0.012220 0.030370
v 0.007778 0.012220 0.030179
v -0.008002 0.012021 0.030370
v -0.007775 0.012109 0.030147
v -0.008516 0.011546 0.030147
v -0.008516 0.011480 0.030095
v -0.008337 0.010739 0.029412
v -0.008334 0.010739 0.029410
v 0.007778 0.012132 0.029410
v 0.007778 0.012134 0.029412
v 0.006866 0.012587 0.030370
v 0.006665 0.012961 0.030147
v 0.006553 0.012770 0.030370
v -0.007261 0.012501 0.030370
v -0.007037 0.012600 0.030147
v -0.007613 0.012220 0.030147
v -0.007037 0.011726 0.029412
v -0.007389 0.011480 0.029412
v -0.007775 0.011480 0.029638
v -0.007775 0.011194 0.029410
v 0.007621 0.012220 0.029410
v 0.006296 0.013169 0.030147
v 0.006296 0.012917 0.030370
v -0.006416 0.012961 0.030370
v -0.006296 0.013031 0.030147
v -0.006416 0.012961 0.030147
v -0.006296 0.012190 0.029412
v -0.007037 0.012220 0.029825
v -0.007037 0.011724 0.029410
v -0.007386 0.011480 0.029410
v 0.007034 0.012534 0.029410
v 0.007037 0.012534 0.029412
v 0.005555 0.013294 0.030370
v 0.006242 0.012945 0.030370
v 0.005555 0.013538 0.030147
v -0.006329 0.013008 0.030370
v -0.005555 0.013405 0.030147
v -0.005555 0.012961 0.029747
v -0.005555 0.012587 0.029410
v -0.006296 0.012961 0.030086
v -0.006296 0.012187 0.029410
v -0.006237 0.012220 0.029410
v 0.006296 0.012878 0.029410
v 0.006296 0.012881 0.029412
v 0.005398 0.013363 0.030370
v 0.005180 0.013702 0.030147
v 0.005071 0.013508 0.030370
v -0.005779 0.013286 0.030370
v -0.004873 0.013702 0.030147
v -0.004814 0.012931 0.029410
v 0.006094 0.012961 0.029410
v 0.004814 0.013857 0.030147
v 0.004814 0.013702 0.030293
v 0.004814 0.013619 0.030370
v -0.004814 0.013674 0.030370
v -0.004814 0.013727 0.030147
v -0.004738 0.012961 0.029410
v 0.005555 0.013178 0.029412
v 0.005552 0.013175 0.029410
v 0.004073 0.014132 0.030147
v 0.004073 0.013896 0.030370
v 0.004716 0.013658 0.030370
v -0.004073 0.013927 0.030370
v -0.004073 0.014002 0.030147
v -0.004073 0.013702 0.029863
v -0.004073 0.013225 0.029412
v -0.004073 0.013222 0.029410
v 0.004814 0.013427 0.029412
v 0.004811 0.013425 0.029410
v 0.003332 0.014360 0.030147
v 0.003332 0.014129 0.030370
v -0.003556 0.014088 0.030370
v -0.003332 0.014232 0.030147
v -0.003332 0.013469 0.029412
v -0.003335 0.013466 0.029410
v 0.004073 0.013630 0.029410
v 0.004073 0.013633 0.029412
v 0.003007 0.014443 0.030147
v 0.002881 0.014246 0.030370
v -0.002815 0.014271 0.030370
v -0.002591 0.014421 0.030147
v -0.002591 0.013669 0.029412
v -0.002594 0.013666 0.029410
v 0.003757 0.013702 0.029410
v 0.002591 0.014548 0.030147
v 0.002591 0.014318 0.030370
v -0.001850 0.014434 0.030370
v -0.001850 0.014570 0.030147
v -0.002485 0.014443 0.030147
v -0.001850 0.013824 0.029412
v -0.002426 0.013702 0.029410
v 0.003326 0.013796 0.029410
v 0.003332 0.013796 0.029412
v 0.001850 0.014692 0.030147
v 0.001850 0.014468 0.030370
v 0.002451 0.014348 0.030370
v -0.001109 0.014523 0.030370
v -0.001109 0.014679 0.030147
v -0.001109 0.013938 0.029410
v -0.001850 0.013821 0.029410
v 0.002588 0.013918 0.029410
v 0.001109 0.014779 0.030147
v 0.001109 0.014562 0.030370
v -0.000368 0.014573 0.030370
v -0.000368 0.014748 0.030147
v -0.000368 0.014443 0.029841
v -0.000368 0.014013 0.029410
v 0.001850 0.013999 0.029410
v 0.001850 0.014002 0.029412
v 0.001109 0.014043 0.029410
v 0.000370 0.014049 0.029412
v 0.000370 0.014781 0.030147
v 0.000370 0.014587 0.030370
v 0.000365 0.014046 0.029410
v 0.000370 0.014046 0.029410
f 1 2 3
f 1 3 8
f 1 8 12
f 1 12 16
f 1 16 23
f 1 23 29
f 1 29 32
f 1 32 39
f 1 39 44
f 1 44 49
f 1 49 56
f 1 56 61
f 1 61 68
f 1 68 75
f 1 75 81
f 1 81 87
f 1 87 93
f 1 93 98
f 1 98 103
f 1 103 110
f 1 110 118
f 1 118 124
f 1 124 131
f 1 131 138
f 1 138 145
f 1 145 152
f 1 152 161
f 1 161 166
f 1 166 173
f 1 173 180
f 1 180 188
f 1 188 190
f 1 190 197
f 1 197 204
f 1 204 212
f 1 212 221
f 1 221 237
f 1 237 245
f 1 245 253
f 1 253 261
f 1 261 269
f 1 269 277
f 1 277 286
f 1 286 297
f 1 297 307
f 1 307 315
f 1 315 327
f 1 327 337
f 1 337 345
f 1 345 354
f 1 354 364
f 1 364 373
f 1 373 384
f 1 384 394
f 1 394 404
f 1 404 413
f 1 413 425
f 1 425 437
f 1 437 449
f 1 449 459
f 1 459 458
f 1 458 470
f 1 470 471
f 1 471 468
f 1 468 479
f 1 479 486
f 1 486 496
f 1 496 504
f 1 504 512
f 1 512 520
f 1 520 529
f 1 529 528
f 1 528 536
f 1 536 543
f 1 543 544
f 1 544 539
f 1 539 537
f 1 537 530
f 1 530 521
f 1 521 513
f 1 513 505
f 1 505 498
f 1 498 488
f 1 488 480
f 1 480 472
f 1 472 460
f 1 460 450
f 1 450 438
f 1 438 426
f 1 426 414
f 1 414 405
f 1 405 395
f 1 395 385
f 1 385 374
f 1 374 365
f 1 365 356
f 1 356 346
f 1 346 338
f 1 338 330
f 1 330 317
f 1 317 316
f 1 316 308
f 1 308 299
f 1 299 289
f 1 289 288
f 1 288 278
f 1 278 270
f 1 270 262
f 1 262 255
f 1 255 254
f 1 254 247
f 1 247 238
f 1 238 225
f 1 225 224
f 1 224 216
f 1 216 206
f 1 206 198
f 1 198 191
f 1 191 184
f 1 184 175
f 1 175 168
f 1 168 162
f 1 162 155
f 1 155 150
f 1 150 142
f 1 142 135
f 1 135 127
f 1 127 121
f 1 121 119
f 1 119 113
f 1 113 107
f 1 107 102
f 1 102 95
f 1 95 88
f 1 88 84
f 1 84 82
f 1 82 77
f 1 77 76
f 1 76 70
f 1 70 69
f 1 69 62
f 1 62 57
f 1 57 52
f 1 52 51
f 1 51 46
f 1 46 45
f 1 45 40
f 1 40 36
f 1 36 31
f 1 31 25
f 1 25 18
f 1 18 14
f 1 14 10
f 1 10 4
f 1 4 2
f 2 5 6
f 2 6 7
f 2 7 8
f 2 8 3
f 2 4 5
f 4 9 5
f 4 10 9
f 5 9 13
f 5 13 17
f 5 17 24
f 5 24 30
f 5 30 35
f 5 35 42
f 5 42 47
f 5 47 53
f 5 53 59
f 5 59 64
f 5 64 73
f 5 73 79
f 5 79 83
f 5 83 89
f 5 89 94
f 5 94 101
f 5 101 108
f 5 108 114
f 5 114 120
f 5 120 126
f 5 126 134
f 5 134 141
f 5 141 147
f 5 147 154
f 5 154 158
f 5 158 164
f 5 164 172
f 5 172 171
f 5 171 179
f 5 179 186
f 5 186 193
f 5 193 194
f 5 194 201
f 5 201 210
f 5 210 220
f 5 220 229
f 5 229 228
f 5 228 241
f 5 241 249
f 5 249 258
f 5 258 265
f 5 265 274
f 5 274 273
f 5 273 283
f 5 283 282
f 5 282 295
f 5 295 294
f 5 294 293
f 5 293 303
f 5 303 302
f 5 302 313
f 5 313 324
f 5 324 322
f 5 322 321
f 5 321 320
f 5 320 323
f 5 323 334
f 5 334 333
f 5 333 341
f 5 341 351
f 5 351 350
f 5 350 359
f 5 359 369
f 5 369 368
f 5 368 378
f 5 378 377
f 5 377 389
f 5 389 388
f 5 388 399
f 5 399 398
f 5 398 408
f 5 408 420
f 5 420 419
f 5 419 418
f 5 418 430
f 5 430 429
f 5 429 440
f 5 440 442
f 5 442 452
f 5 452 463
f 5 463 462
f 5 462 474
f 5 474 476
f 5 476 483
f 5 483 491
f 5 491 490
f 5 490 500
f 5 500 508
f 5 508 515
f 5 515 525
f 5 525 524
f 5 524 532
f 5 532 542
f 5 542 533
f 5 533 526
f 5 526 516
f 5 516 509
f 5 509 501
f 5 501 492
f 5 492 484
f 5 484 477
f 5 477 465
f 5 465 453
f 5 453 443
f 5 443 432
f 5 432 421
f 5 421 409
f 5 409 400
f 5 400 390
f 5 390 379
f 5 379 370
f 5 370 360
f 5 360 352
f 5 352 342
f 5 342 335
f 5 335 328
f 5 328 325
f 5 325 314
f 5 314 305
f 5 305 304
f 5 304 296
f 5 296 284
f 5 284 275
f 5 275 266
f 5 266 260
f 5 260 259
f 5 259 251
f 5 251 243
f 5 243 236
f 5 236 234
f 5 234 232
f 5 232 231
f 5 231 230
f 5 230 222
f 5 222 214
f 5 214 213
f 5 213 211
f 5 211 205
f 5 205 202
f 5 202 195
f 5 195 189
f 5 189 182
f 5 182 181
f 5 181 174
f 5 174 167
f 5 167 165
f 5 165 160
f 5 160 159
f 5 159 153
f 5 153 146
f 5 146 140
f 5 140 139
f 5 139 132
f 5 132 130
f 5 130 123
f 5 123 122
f 5 122 117
f 5 117 112
f 5 112 111
f 5 111 106
f 5 106 105
f 5 105 104
f 5 104 99
f 5 99 97
f 5 97 92
f 5 92 91
f 5 91 90
f 5 90 86
f 5 86 85
f 5 85 80
f 5 80 74
f 5 74 67
f 5 67 66
f 5 66 65
f 5 65 60
f 5 60 54
f 5 54 50
f 5 50 48
f 5 48 43
f 5 43 38
f 5 38 37
f 5 37 33
f 5 33 28
f 5 28 27
f 5 27 21
f 5 21 20
f 5 20 15
f 5 15 11
f 5 11 6
f 6 11 7
f 7 11 12
f 7 12 8
f 9 10 13
f 10 14 13
f 11 15 12
f 12 15 16
f 13 14 17
f 14 18 19
f 14 19 17
f 15 20 16
f 16 20 21
f 16 21 22
f 16 22 23
f 17 19 24
f 18 25 26
f 18 26 19
f 19 26 24
f 21 27 22
f 22 27 28
f 22 28 29
f 22 29 23
f 24 26 30
f 25 31 26
f 26 31 30
f 28 32 29
f 28 33 32
f 30 31 34
f 30 34 35
f 31 36 34
f 32 33 37
f 32 37 38
f 32 38 39
f 34 36 40
f 34 40 41
f 34 41 35
f 35 41 42
f 38 43 39
f 39 43 44
f 40 45 41
f 41 45 46
f 41 46 42
f 42 46 47
f 43 48 44
f 44 48 50
f 44 50 49
f 46 51 47
f 47 51 52
f 47 52 53
f 49 50 54
f 49 54 55
f 49 55 56
f 52 57 58
f 52 58 53
f 53 58 59
f 54 60 56
f 54 56 55
f 56 60 61
f 57 62 58
f 58 62 59
f 59 62 63
f 59 63 64
f 60 65 61
f 61 65 66
f 61 66 67
f 61 67 68
f 62 69 63
f 63 69 70
f 63 70 71
f 63 71 64
f 64 71 72
f 64 72 73
f 67 74 68
f 68 74 75
f 70 76 72
f 70 72 71
f 72 76 77
f 72 77 78
f 72 78 73
f 73 78 79
f 74 80 75
f 75 80 81
f 77 82 78
f 78 83 79
f 78 82 84
f 78 84 83
f 80 85 81
f 81 85 86
f 81 86 87
f 83 84 88
f 83 88 89
f 86 90 87
f 87 90 91
f 87 91 92
f 87 92 93
f 88 94 89
f 88 95 96
f 88 96 94
f 92 97 93
f 93 97 99
f 93 99 98
f 94 96 100
f 94 100 101
f 95 102 100
f 95 100 96
f 98 99 104
f 98 104 105
f 98 105 106
f 98 106 103
f 100 102 107
f 100 107 101
f 101 107 109
f 101 109 108
f 103 106 111
f 103 111 112
f 103 112 110
f 107 113 109
f 108 109 115
f 108 115 116
f 108 116 114
f 109 113 115
f 110 112 117
f 110 117 118
f 113 119 115
f 114 116 120
f 115 119 121
f 115 121 116
f 116 121 120
f 117 122 118
f 118 122 123
f 118 123 130
f 118 130 124
f 120 121 125
f 120 125 126
f 121 127 128
f 121 128 129
f 121 129 125
f 124 130 132
f 124 132 131
f 125 129 126
f 126 129 133
f 126 133 134
f 127 135 137
f 127 137 128
f 128 136 134
f 128 134 133
f 128 133 129
f 128 137 136
f 131 132 139
f 131 139 140
f 131 140 138
f 134 136 141
f 135 142 137
f 136 137 143
f 136 143 141
f 137 144 143
f 137 142 144
f 138 140 146
f 138 146 145
f 141 143 144
f 141 144 147
f 142 148 149
f 142 149 147
f 142 147 144
f 142 150 151
f 142 151 148
f 145 146 153
f 145 153 152
f 147 149 154
f 148 151 154
f 148 154 149
f 150 155 156
f 150 156 151
f 151 156 157
f 151 157 158
f 151 158 154
f 152 153 159
f 152 159 160
f 152 160 161
f 155 162 163
f 155 163 156
f 156 163 157
f 157 163 164
f 157 164 158
f 160 165 161
f 161 165 167
f 161 167 166
f 162 168 169
f 162 169 163
f 163 169 170
f 163 170 171
f 163 171 172
f 163 172 164
f 166 167 174
f 166 174 173
f 168 175 176
f 168 176 169
f 169 176 177
f 169 177 178
f 169 178 179
f 169 179 170
f 170 179 171
f 173 174 181
f 173 181 182
f 173 182 183
f 173 183 180
f 175 184 187
f 175 187 176
f 176 185 186
f 176 186 177
f 176 187 185
f 177 186 178
f 178 186 179
f 180 183 188
f 182 189 190
f 182 190 183
f 183 190 188
f 184 191 192
f 184 192 187
f 185 187 193
f 185 193 186
f 187 192 194
f 187 194 193
f 189 195 190
f 190 195 196
f 190 196 197
f 191 198 192
f 192 198 199
f 192 199 200
f 192 200 194
f 194 200 201
f 195 202 196
f 196 202 197
f 197 203 204
f 197 202 205
f 197 205 203
f 198 206 207
f 198 207 199
f 199 207 208
f 199 208 209
f 199 209 200
f 200 209 201
f 201 209 210
f 203 205 211
f 203 211 204
f 204 211 213
f 204 213 214
f 204 214 215
f 204 215 212
f 206 216 217
f 206 217 207
f 207 217 208
f 208 217 218
f 208 218 219
f 208 219 209
f 209 219 220
f 209 220 210
f 212 215 222
f 212 222 223
f 212 223 221
f 214 222 215
f 216 224 217
f 217 224 225
f 217 225 226
f 217 226 227
f 217 227 228
f 217 228 218
f 218 228 219
f 219 228 229
f 219 229 220
f 221 223 230
f 221 230 231
f 221 231 232
f 221 232 233
f 221 233 234
f 221 234 235
f 221 235 236
f 221 236 237
f 222 230 223
f 225 238 239
f 225 239 226
f 226 239 240
f 226 240 227
f 227 240 228
f 228 240 242
f 228 242 241
f 232 234 233
f 234 236 235
f 236 243 244
f 236 244 245
f 236 245 237
f 238 246 239
f 238 247 246
f 239 246 240
f 240 246 248
f 240 248 242
f 241 242 248
f 241 248 250
f 241 250 249
f 243 251 252
f 243 252 244
f 244 252 245
f 245 252 253
f 246 247 254
f 246 254 255
f 246 255 256
f 246 256 248
f 248 256 257
f 248 257 250
f 249 250 258
f 250 257 258
f 251 259 252
f 252 259 260
f 252 260 261
f 252 261 253
f 255 257 256
f 255 262 257
f 257 262 263
f 257 263 264
f 257 264 265
f 257 265 258
f 260 266 267
f 260 267 268
f 260 268 261
f 261 268 269
f 262 270 271
f 262 271 272
f 262 272 263
f 263 272 273
f 263 273 274
f 263 274 264
f 264 274 265
f 266 275 267
f 267 275 276
f 267 276 269
f 267 269 268
f 269 276 277
f 270 278 271
f 271 278 279
f 271 279 280
f 271 280 281
f 271 281 282
f 271 282 283
f 271 283 272
f 272 283 273
f 275 284 276
f 276 285 286
f 276 286 277
f 276 284 287
f 276 287 285
f 278 288 279
f 279 288 289
f 279 289 290
f 279 290 291
f 279 291 292
f 279 292 280
f 280 292 293
f 280 293 294
f 280 294 281
f 281 295 282
f 281 294 295
f 284 296 287
f 285 287 296
f 285 296 286
f 286 296 298
f 286 298 297
f 289 299 290
f 290 299 300
f 290 300 301
f 290 301 291
f 291 301 302
f 291 302 303
f 291 303 293
f 291 293 292
f 296 304 298
f 297 298 305
f 297 305 306
f 297 306 307
f 298 304 305
f 299 308 300
f 300 308 309
f 300 309 310
f 300 310 311
f 300 311 301
f 301 311 312
f 301 312 302
f 302 312 313
f 305 314 306
f 306 314 315
f 306 315 307
f 308 316 309
f 309 316 317
f 309 317 318
f 309 318 319
f 309 319 310
f 310 320 321
f 310 321 322
f 310 322 311
f 310 319 323
f 310 323 320
f 311 322 324
f 311 324 312
f 312 324 313
f 314 325 315
f 315 326 327
f 315 325 328
f 315 328 329
f 315 329 326
f 317 330 331
f 317 331 318
f 318 331 332
f 318 332 319
f 319 332 333
f 319 333 334
f 319 334 323
f 326 329 335
f 326 335 327
f 327 335 336
f 327 336 337
f 328 335 329
f 330 338 331
f 331 338 339
f 331 339 340
f 331 340 332
f 332 340 341
f 332 341 333
f 335 342 343
f 335 343 336
f 336 343 337
f 337 344 345
f 337 343 344
f 338 346 347
f 338 347 339
f 339 347 348
f 339 348 340
f 340 348 349
f 340 349 350
f 340 350 351
f 340 351 341
f 342 352 353
f 342 353 344
f 342 344 343
f 344 353 345
f 345 353 355
f 345 355 354
f 346 356 347
f 347 356 357
f 347 357 358
f 347 358 348
f 348 358 359
f 348 359 349
f 349 359 350
f 352 360 361
f 352 361 362
f 352 362 353
f 353 362 355
f 354 355 362
f 354 362 361
f 354 361 363
f 354 363 364
f 356 365 366
f 356 366 357
f 357 366 367
f 357 367 358
f 358 367 368
f 358 368 369
f 358 369 359
f 360 370 371
f 360 371 361
f 361 371 372
f 361 372 363
f 363 372 373
f 363 373 364
f 365 374 366
f 366 374 375
f 366 375 376
f 366 376 367
f 367 376 377
f 367 377 378
f 367 378 368
f 370 379 380
f 370 380 381
f 370 381 371
f 371 381 382
f 371 382 383
f 371 383 373
f 371 373 372
f 373 383 384
f 374 385 386
f 374 386 375
f 375 386 387
f 375 387 376
f 376 387 388
f 376 388 389
f 376 389 377
f 379 390 391
f 379 391 380
f 380 391 392
f 380 392 393
f 380 393 382
f 380 382 381
f 382 393 383
f 383 393 394
f 383 394 384
f 385 395 396
f 385 396 386
f 386 396 397
f 386 397 387
f 387 397 398
f 387 398 399
f 387 399 388
f 390 400 401
f 390 401 391
f 391 401 402
f 391 402 403
f 391 403 392
f 392 403 393
f 393 403 404
f 393 404 394
f 395 405 406
f 395 406 396
f 396 406 407
f 396 407 397
f 397 407 408
f 397 408 398
f 400 409 401
f 401 410 411
f 401 411 412
f 401 412 402
f 401 409 410
f 402 412 403
f 403 412 404
f 404 412 413
f 405 414 415
f 405 415 416
f 405 416 417
f 405 417 406
f 406 417 407
f 407 417 418
f 407 418 419
f 407 419 420
f 407 420 408
f 409 421 422
f 409 422 410
f 410 422 423
f 410 423 424
f 410 424 411
f 411 424 412
f 412 424 413
f 413 424 425
f 414 426 427
f 414 427 415
f 415 427 416
f 416 427 428
f 416 428 429
f 416 429 430
f 416 430 431
f 416 431 417
f 417 431 418
f 418 431 430
f 421 432 433
f 421 433 434
f 421 434 422
f 422 434 435
f 422 435 436
f 422 436 423
f 423 436 424
f 424 436 437
f 424 437 425
f 426 438 439
f 426 439 427
f 427 439 428
f 428 440 429
f 428 439 441
f 428 441 442
f 428 442 440
f 432 443 444
f 432 444 445
f 432 445 433
f 433 445 446
f 433 446 447
f 433 447 448
f 433 448 434
f 434 448 449
f 434 449 435
f 435 449 436
f 436 449 437
f 438 450 439
f 439 450 451
f 439 451 441
f 441 451 452
f 441 452 442
f 443 453 454
f 443 454 455
f 443 455 444
f 444 455 456
f 444 456 457
f 444 457 445
f 445 457 446
f 446 458 459
f 446 459 447
f 446 457 456
f 446 456 470
f 446 470 458
f 447 459 449
f 447 449 448
f 450 460 461
f 450 461 451
f 451 462 463
f 451 463 452
f 451 461 464
f 451 464 462
f 453 465 454
f 454 466 467
f 454 467 468
f 454 468 469
f 454 469 455
f 454 465 466
f 455 469 456
f 456 469 471
f 456 471 470
f 460 472 473
f 460 473 461
f 461 473 464
f 462 464 474
f 464 473 475
f 464 475 476
f 464 476 474
f 465 477 466
f 466 478 479
f 466 479 467
f 466 477 478
f 467 479 468
f 468 471 469
f 472 480 473
f 473 480 481
f 473 481 475
f 475 481 482
f 475 482 483
f 475 483 476
f 477 484 485
f 477 485 478
f 478 485 479
f 479 485 486
f 480 487 481
f 480 488 487
f 481 489 490
f 481 490 491
f 481 491 482
f 481 487 489
f 482 491 483
f 484 492 493
f 484 493 485
f 485 493 494
f 485 494 495
f 485 495 486
f 486 495 496
f 487 488 498
f 487 498 497
f 487 497 489
f 489 497 499
f 489 499 500
f 489 500 490
f 492 501 493
f 493 501 502
f 493 502 503
f 493 503 494
f 494 503 495
f 495 503 504
f 495 504 496
f 497 498 505
f 497 505 506
f 497 506 499
f 499 506 507
f 499 507 508
f 499 508 500
f 501 509 510
f 501 510 502
f 502 510 511
f 502 511 503
f 503 511 512
f 503 512 504
f 505 513 506
f 506 513 514
f 506 514 507
f 507 514 508
f 508 514 515
f 509 516 517
f 509 517 518
f 509 518 510
f 510 518 519
f 510 519 520
f 510 520 511
f 511 520 512
f 513 521 522
f 513 522 514
f 514 522 523
f 514 523 524
f 514 524 525
f 514 525 515
f 516 526 527
f 516 527 517
f 517 527 528
f 517 528 519
f 517 519 518
f 519 529 520
f 519 528 529
f 521 530 523
f 521 523 522
f 523 530 531
f 523 531 532
f 523 532 524
f 526 533 534
f 526 534 527
f 527 534 535
f 527 535 536
f 527 536 528
f 530 537 538
f 530 538 531
f 531 538 539
f 531 539 540
f 531 540 541
f 531 541 542
f 531 542 532
f 533 542 541
f 533 541 534
f 534 541 540
f 534 540 535
f 535 540 536
f 536 540 543
f 537 539 538
f 539 544 540
f 540 544 543
