v -0.014723 -0.000369 0.027206
v -0.014538 0.000369 0.027356
v -0.014687 0.000369 0.027206
v -0.014601 0.000369 0.027067
v -0.014622 -0.000369 0.027067
v -0.014717 -0.001109 0.027206
v -0.014568 -0.001109 0.027356
v -0.014571 -0.000369 0.027356
v -0.014476 0.001013 0.027356
v -0.014617 0.001109 0.027206
v -0.014543 0.001109 0.027067
v -0.014606 -0.001109 0.027067
v -0.014677 -0.001851 0.027206
v -0.014549 -0.001445 0.027356
v -0.014465 0.001109 0.027356
v -0.014443 0.001262 0.027356
v -0.014508 0.001852 0.027206
v -0.014446 0.001852 0.027067
v -0.014552 -0.001851 0.027067
v -0.014598 -0.002592 0.027206
v -0.014497 -0.002111 0.027356
v -0.014524 -0.001851 0.027356
v -0.014356 0.001852 0.027356
v -0.014304 0.002108 0.027356
v -0.014359 0.002592 0.027206
v -0.014310 0.002592 0.027067
v -0.014459 -0.002592 0.027067
v -0.014446 -0.002592 0.027356
v -0.014443 -0.002663 0.027067
v -0.014443 -0.003252 0.027206
v -0.014283 -0.003332 0.027356
v -0.014226 0.002496 0.027356
v -0.014204 0.002592 0.027356
v -0.014168 0.003332 0.027206
v -0.014133 0.003332 0.027067
v -0.014318 -0.003192 0.027067
v -0.014424 -0.003332 0.027206
v -0.014068 -0.004072 0.027356
v -0.014014 0.003332 0.027356
v -0.013938 0.004072 0.027206
v -0.013894 0.004156 0.027067
v -0.014280 -0.003332 0.027067
v -0.014196 -0.004072 0.027206
v -0.013807 -0.004814 0.027356
v -0.013777 0.004072 0.027356
v -0.013590 0.004577 0.027356
v -0.013660 0.004814 0.027206
v -0.013652 0.004814 0.027067
v -0.014049 -0.004072 0.027067
v -0.013924 -0.004814 0.027206
v -0.013505 -0.005554 0.027356
v -0.013519 0.004765 0.027356
v -0.013337 0.005554 0.027206
v -0.013288 0.005694 0.027067
v -0.013774 -0.004814 0.027067
v -0.013595 -0.005238 0.027067
v -0.013701 -0.005336 0.027206
v -0.013606 -0.005554 0.027206
v -0.013150 -0.006294 0.027356
v -0.013497 0.004814 0.027356
v -0.012962 0.005967 0.027356
v -0.012962 0.006295 0.027206
v -0.012921 0.006434 0.027067
v -0.013169 0.005554 0.027356
v -0.013516 -0.005415 0.027067
v -0.013454 -0.005554 0.027067
v -0.013239 -0.006294 0.027206
v -0.012745 -0.007035 0.027356
v -0.012872 0.006142 0.027356
v -0.012788 0.006295 0.027356
v -0.012527 0.007035 0.027206
v -0.012495 0.007177 0.027067
v -0.012810 0.006256 0.027356
v -0.013082 -0.006294 0.027067
v -0.012962 -0.006508 0.027067
v -0.012962 -0.006786 0.027206
v -0.012815 -0.007035 0.027206
v -0.012277 -0.007777 0.027356
v -0.012535 0.006723 0.027356
v -0.012351 0.007035 0.027356
v -0.012220 0.007504 0.027206
v -0.012008 0.007917 0.027067
v -0.012856 -0.006693 0.027067
v -0.012704 -0.006953 0.027067
v -0.012652 -0.007035 0.027067
v -0.012334 -0.007777 0.027206
v -0.011720 -0.008553 0.027356
v -0.012220 0.007234 0.027356
v -0.012103 0.007409 0.027356
v -0.011957 0.007624 0.027356
v -0.012033 0.007777 0.027206
v -0.011465 0.008640 0.027067
v -0.012220 -0.007695 0.027067
v -0.012220 -0.007777 0.027113
v -0.012220 -0.007933 0.027206
v -0.011780 -0.008517 0.027206
v -0.011481 -0.008881 0.027206
v -0.011481 -0.008842 0.027356
v -0.011848 0.007777 0.027356
v -0.011481 0.008504 0.027206
v -0.011451 0.008657 0.027067
v -0.012163 -0.007777 0.027067
v -0.011603 -0.008517 0.027067
v -0.011481 -0.008668 0.027067
v -0.011356 -0.008812 0.027067
v -0.011074 -0.009137 0.027067
v -0.011150 -0.009257 0.027206
v -0.011065 -0.009345 0.027356
v -0.011481 0.008258 0.027356
v -0.011397 0.008365 0.027356
v -0.011272 0.008517 0.027356
v -0.010818 0.009257 0.027206
v -0.010813 0.009397 0.027067
v -0.010962 -0.009257 0.027067
v -0.010739 -0.009492 0.027067
v -0.010739 -0.009689 0.027206
v -0.010739 -0.009689 0.027356
v -0.010739 0.009121 0.027356
v -0.010739 0.009257 0.027264
v -0.010739 0.009339 0.027206
v -0.010750 0.009465 0.027067
v -0.010625 -0.009610 0.027067
v -0.010424 -0.009997 0.027206
v -0.010337 -0.010104 0.027356
v -0.010609 0.009257 0.027356
v -0.009998 0.009858 0.027356
v -0.010068 0.009998 0.027206
v -0.010079 0.010140 0.027067
v -0.010345 -0.009883 0.027067
v -0.010223 -0.009997 0.027067
v -0.009998 -0.010205 0.027067
v -0.009998 -0.010388 0.027206
v -0.009998 -0.010415 0.027356
v -0.009791 0.010044 0.027356
v -0.009998 0.010063 0.027206
v -0.009998 0.010213 0.027067
v -0.009873 -0.010314 0.027067
v -0.009522 -0.010612 0.027067
v -0.009582 -0.010740 0.027206
v -0.009517 -0.010841 0.027356
v -0.009258 0.010495 0.027356
v -0.009258 0.010688 0.027206
v -0.009258 0.010850 0.027067
v -0.009362 -0.010740 0.027067
v -0.009258 -0.010997 0.027206
v -0.009258 -0.011046 0.027356
v -0.009193 0.010546 0.027356
v -0.009190 0.010740 0.027206
v -0.009055 0.010656 0.027356
v -0.008517 0.011401 0.027067
v -0.009258 -0.010822 0.027067
v -0.008517 -0.011360 0.027067
v -0.008587 -0.011480 0.027206
v -0.008574 -0.011557 0.027356
v -0.008940 0.010740 0.027356
v -0.008397 0.011480 0.027067
v -0.008517 0.011049 0.027356
v -0.008397 0.011131 0.027356
v -0.008337 -0.011480 0.027067
v -0.008517 -0.011480 0.027165
v -0.008517 -0.011529 0.027206
v -0.008517 -0.011598 0.027356
v -0.007862 0.011480 0.027356
v -0.008210 0.011601 0.027067
v -0.008066 0.011349 0.027356
v -0.007778 -0.011830 0.027067
v -0.007778 -0.011991 0.027206
v -0.007778 -0.012076 0.027356
v -0.007778 0.011532 0.027356
v -0.007883 0.011805 0.027067
v -0.007666 -0.011895 0.027067
v -0.007332 -0.012081 0.027067
v -0.007364 -0.012220 0.027206
v -0.007036 -0.012496 0.027356
v -0.007579 0.011647 0.027356
v -0.007778 0.011707 0.027206
v -0.007778 0.011868 0.027067
v -0.007302 -0.012097 0.027067
v -0.007036 -0.012242 0.027067
v -0.007036 -0.012398 0.027206
v -0.006294 -0.012859 0.027356
v -0.007036 0.011953 0.027356
v -0.007093 0.012248 0.027067
v -0.006821 -0.012346 0.027067
v -0.006294 -0.012594 0.027067
v -0.006294 -0.012747 0.027206
v -0.005555 -0.013173 0.027356
v -0.006802 0.012070 0.027356
v -0.007036 0.012122 0.027206
v -0.007036 0.012278 0.027067
v -0.006172 -0.012646 0.027067
v -0.005726 -0.012829 0.027067
v -0.005767 -0.012960 0.027206
v -0.005555 -0.013045 0.027206
v -0.004813 -0.013438 0.027356
v -0.006723 0.012108 0.027356
v -0.006873 0.012357 0.027067
v -0.005555 -0.012898 0.027067
v -0.005234 -0.013010 0.027067
v -0.004813 -0.013154 0.027067
v -0.004813 -0.013299 0.027206
v -0.004242 -0.013610 0.027356
v -0.006490 0.012220 0.027356
v -0.006427 0.012570 0.027067
v -0.004620 -0.013209 0.027067
v -0.004074 -0.013507 0.027206
v -0.004074 -0.013657 0.027356
v -0.006294 0.012313 0.027356
v -0.006294 0.012480 0.027206
v -0.006294 0.012630 0.027067
v -0.004074 -0.013362 0.027067
v -0.003924 -0.013397 0.027067
v -0.003332 -0.013703 0.027237
v -0.003457 -0.013796 0.027356
v -0.003873 -0.013703 0.027356
v -0.006082 0.012406 0.027356
v -0.005555 0.012933 0.027067
v -0.003332 -0.013528 0.027067
v -0.002590 -0.013703 0.027114
v -0.002713 -0.013927 0.027356
v -0.003332 -0.013823 0.027356
v -0.003289 -0.013537 0.027067
v -0.003041 -0.013580 0.027067
v -0.005555 0.012622 0.027356
v -0.005430 0.012668 0.027356
v -0.005000 0.012821 0.027356
v -0.005066 0.013102 0.027067
v -0.002590 -0.013654 0.027067
v -0.002172 -0.013703 0.027067
v -0.002590 -0.013946 0.027356
v -0.004813 0.012884 0.027356
v -0.004813 0.013042 0.027206
v -0.004813 0.013187 0.027067
v -0.002003 -0.013722 0.027067
v -0.002395 -0.013968 0.027356
v -0.004419 0.012999 0.027356
v -0.004074 0.013097 0.027356
v -0.004074 0.013397 0.027067
v -0.001851 -0.013739 0.027067
v -0.001851 -0.013878 0.027206
v -0.001851 -0.014028 0.027356
v -0.003827 0.013157 0.027356
v -0.003332 0.013269 0.027356
v -0.003332 0.013564 0.027067
v -0.001109 -0.013782 0.027067
v -0.001637 -0.014042 0.027356
v -0.003139 0.013302 0.027356
v -0.002590 0.013395 0.027356
v -0.002590 0.013548 0.027206
v -0.002664 0.013676 0.027067
v -0.000373 -0.013788 0.027067
v -0.001109 -0.013922 0.027206
v -0.001109 -0.014072 0.027356
v -0.002425 0.013417 0.027356
v -0.002460 0.013703 0.027067
v -0.002590 0.013687 0.027067
v -0.000373 -0.014077 0.027356
v 0.000369 -0.013752 0.027067
v -0.001851 0.013482 0.027356
v -0.001851 0.013703 0.027136
v -0.001927 0.013763 0.027067
v 0.000369 -0.014042 0.027356
v 0.000847 -0.013703 0.027067
v 0.001111 -0.013703 0.027094
v -0.001109 0.013526 0.027356
v -0.001109 0.013703 0.027180
v -0.001229 0.013810 0.027067
v -0.001851 0.013772 0.027067
v 0.001111 -0.013815 0.027206
v 0.001111 -0.013965 0.027356
v 0.001111 -0.013676 0.027067
v 0.001839 -0.013561 0.027067
v 0.001850 -0.013700 0.027206
v -0.000373 0.013531 0.027356
v -0.000373 0.013821 0.027067
v -0.001109 0.013815 0.027067
v 0.001676 -0.013878 0.027356
v 0.002592 -0.013397 0.027067
v 0.002592 -0.013542 0.027206
v 0.002562 -0.013703 0.027356
v 0.001850 -0.013851 0.027356
v -0.000207 0.013523 0.027356
v 0.000369 0.013646 0.027206
v 0.000369 0.013703 0.027148
v 0.000279 0.013788 0.027067
v 0.003333 -0.013195 0.027067
v 0.003333 -0.013340 0.027206
v 0.003333 -0.013496 0.027356
v 0.002912 -0.013610 0.027356
v 0.000369 0.013493 0.027356
v 0.001111 0.013703 0.027073
v 0.001111 0.013569 0.027206
v 0.001111 0.013709 0.027067
v 0.000369 0.013782 0.027067
v 0.003526 -0.013436 0.027356
v 0.004072 -0.012947 0.027067
v 0.004072 -0.013094 0.027206
v 0.001111 0.013417 0.027356
v 0.001146 0.013703 0.027067
v 0.001850 0.013591 0.027067
v 0.001524 0.013643 0.027067
v 0.004072 -0.013253 0.027356
v 0.004491 -0.013091 0.027356
v 0.004714 -0.012690 0.027067
v 0.004168 -0.013217 0.027356
v 0.001850 0.013296 0.027356
v 0.002592 0.013433 0.027067
v 0.004814 -0.012960 0.027356
v 0.004814 -0.012960 0.027356
v 0.004814 -0.012799 0.027206
v 0.004814 -0.012646 0.027067
v 0.002592 0.013135 0.027356
v 0.002765 0.013386 0.027067
v 0.005056 -0.012851 0.027356
v 0.005553 -0.012619 0.027356
v 0.005553 -0.012297 0.027067
v 0.003333 0.012928 0.027356
v 0.003333 0.013228 0.027067
v 0.005678 -0.012556 0.027356
v 0.006018 -0.012373 0.027356
v 0.005695 -0.012220 0.027067
v 0.003692 0.012810 0.027356
v 0.003420 0.013201 0.027067
v 0.006048 -0.012357 0.027356
v 0.005901 -0.012108 0.027067
v 0.004072 0.012685 0.027356
v 0.003716 0.013102 0.027067
v 0.006295 -0.012220 0.027356
v 0.006295 -0.012220 0.027356
v 0.006203 -0.011939 0.027067
v 0.004396 0.012564 0.027356
v 0.004072 0.012980 0.027067
v 0.006295 -0.011884 0.027067
v 0.006504 -0.012095 0.027356
v 0.004333 0.012879 0.027067
v 0.004814 0.012395 0.027356
v 0.007037 -0.011759 0.027356
v 0.006934 -0.011480 0.027067
v 0.004814 0.012682 0.027067
v 0.005553 0.012059 0.027356
v 0.007110 -0.011710 0.027356
v 0.007037 -0.011480 0.027123
v 0.007037 -0.011412 0.027067
v 0.005553 0.012332 0.027067
v 0.005814 0.012193 0.027067
v 0.006295 0.011658 0.027356
v 0.007301 -0.011579 0.027356
v 0.007436 -0.011480 0.027356
v 0.007776 -0.010863 0.027067
v 0.007776 -0.011041 0.027206
v 0.006295 0.011923 0.027067
v 0.006417 0.011849 0.027067
v 0.007037 0.011196 0.027356
v 0.007776 -0.011229 0.027356
v 0.007931 -0.010740 0.027067
v 0.007904 -0.011131 0.027356
v 0.006779 0.011620 0.027067
v 0.007776 0.010664 0.027356
v 0.007037 0.011453 0.027067
v 0.008105 -0.010598 0.027067
v 0.008222 -0.010871 0.027356
v 0.008518 0.010041 0.027356
v 0.007980 0.010740 0.027067
v 0.007776 0.010904 0.027067
v 0.008379 -0.010740 0.027356
v 0.008518 -0.010249 0.027067
v 0.008518 0.010273 0.027067
v 0.008741 0.009847 0.027356
v 0.008518 -0.010620 0.027356
v 0.008667 -0.010484 0.027356
v 0.008942 -0.009858 0.027067
v 0.008588 0.010211 0.027067
v 0.009477 0.009094 0.027356
v 0.009257 0.009539 0.027067
v 0.008809 0.009998 0.027067
v 0.008732 0.010074 0.027067
v 0.009021 -0.010150 0.027356
v 0.009257 -0.009541 0.027067
v 0.009512 0.009257 0.027067
v 0.009455 0.009323 0.027067
v 0.009330 0.009462 0.027067
v 0.009958 0.008517 0.027356
v 0.009257 -0.009913 0.027356
v 0.009406 -0.009754 0.027356
v 0.009654 -0.009118 0.027067
v 0.009999 0.008673 0.027067
v 0.010121 0.008517 0.027067
v 0.010531 0.007753 0.027356
v 0.009722 -0.009410 0.027356
v 0.009999 -0.008709 0.027067
v 0.009852 -0.009257 0.027356
v 0.010643 0.007777 0.027067
v 0.010991 0.007035 0.027356
v 0.010741 0.007624 0.027067
v 0.009999 -0.009083 0.027356
v 0.010268 -0.008378 0.027067
v 0.011097 0.007035 0.027067
v 0.011015 0.007177 0.027067
v 0.010855 0.007439 0.027067
v 0.011401 0.006295 0.027356
v 0.010124 -0.008927 0.027356
v 0.010439 -0.008517 0.027356
v 0.010352 -0.008635 0.027356
v 0.010798 -0.007635 0.027067
v 0.011480 0.006305 0.027067
v 0.011485 0.006295 0.027067
v 0.011757 0.005554 0.027356
v 0.010741 -0.008091 0.027356
v 0.011251 -0.006895 0.027067
v 0.010950 -0.007777 0.027356
v 0.010825 -0.007966 0.027356
v 0.011605 0.006030 0.027067
v 0.012050 0.004814 0.027356
v 0.011814 0.005554 0.027067
v 0.011770 0.005661 0.027067
v 0.011390 -0.007035 0.027356
v 0.011645 -0.006155 0.027067
v 0.012094 0.004814 0.027067
v 0.012298 0.004072 0.027356
v 0.011480 -0.006865 0.027356
v 0.011912 -0.005554 0.027067
v 0.011768 -0.006294 0.027356
v 0.011730 -0.006376 0.027356
v 0.011694 -0.006447 0.027356
v 0.011596 -0.006639 0.027356
v 0.012221 0.004399 0.027067
v 0.012493 0.003332 0.027356
v 0.012357 0.003930 0.027067
v 0.012319 0.004072 0.027067
v 0.012289 0.004175 0.027067
v 0.012208 -0.004803 0.027067
v 0.012091 -0.005554 0.027356
v 0.012501 0.003332 0.027067
v 0.012469 0.003471 0.027067
v 0.012645 0.002592 0.027356
v 0.012444 -0.004072 0.027067
v 0.012363 -0.004814 0.027356
v 0.012221 -0.005208 0.027356
v 0.012792 0.001852 0.027356
v 0.012770 0.001852 0.027067
v 0.012637 -0.003332 0.027067
v 0.012586 -0.004072 0.027356
v 0.012860 0.001464 0.027356
v 0.012917 0.001109 0.027356
v 0.012879 0.001109 0.027067
v 0.012762 -0.003332 0.027356
v 0.012787 -0.002592 0.027067
v 0.012936 0.000942 0.027356
v 0.012999 0.000369 0.027356
v 0.012947 0.000369 0.027067
v 0.012895 -0.002592 0.027356
v 0.012890 -0.001851 0.027067
v 0.013037 -0.000369 0.027356
v 0.012971 -0.000352 0.027067
v 0.012982 -0.001879 0.027356
v 0.012985 -0.001851 0.027356
v 0.012952 -0.001109 0.027067
v 0.013031 -0.001109 0.027356
v 0.012971 -0.000369 0.027067
f 1 2 3
f 1 3 4
f 1 4 5
f 1 5 6
f 1 6 7
f 1 7 8
f 1 8 2
f 2 9 10
f 2 10 3
f 2 8 7
f 2 7 14
f 2 14 22
f 2 22 21
f 2 21 28
f 2 28 31
f 2 31 38
f 2 38 44
f 2 44 51
f 2 51 59
f 2 59 68
f 2 68 78
f 2 78 87
f 2 87 98
f 2 98 108
f 2 108 117
f 2 117 124
f 2 124 133
f 2 133 140
f 2 140 146
f 2 146 154
f 2 154 162
f 2 162 168
f 2 168 174
f 2 174 181
f 2 181 187
f 2 187 195
f 2 195 202
f 2 202 207
f 2 207 215
f 2 215 214
f 2 214 221
f 2 221 220
f 2 220 230
f 2 230 235
f 2 235 241
f 2 241 246
f 2 246 253
f 2 253 257
f 2 257 262
f 2 262 270
f 2 270 277
f 2 277 281
f 2 281 280
f 2 280 289
f 2 289 288
f 2 288 295
f 2 295 302
f 2 302 305
f 2 305 303
f 2 303 309
f 2 309 314
f 2 314 315
f 2 315 319
f 2 319 320
f 2 320 324
f 2 324 329
f 2 329 334
f 2 334 337
f 2 337 341
f 2 341 347
f 2 347 348
f 2 348 354
f 2 354 356
f 2 356 361
f 2 361 365
f 2 365 369
f 2 369 370
f 2 370 377
f 2 377 383
f 2 383 384
f 2 384 389
f 2 389 391
f 2 391 395
f 2 395 401
f 2 401 403
f 2 403 402
f 2 402 408
f 2 408 411
f 2 411 410
f 2 410 416
f 2 416 420
f 2 420 425
f 2 425 424
f 2 424 423
f 2 423 422
f 2 422 432
f 2 432 438
f 2 438 437
f 2 437 442
f 2 442 446
f 2 446 451
f 2 451 455
f 2 455 456
f 2 456 458
f 2 458 453
f 2 453 449
f 2 449 448
f 2 448 444
f 2 444 443
f 2 443 439
f 2 439 435
f 2 435 427
f 2 427 419
f 2 419 413
f 2 413 407
f 2 407 400
f 2 400 393
f 2 393 388
f 2 388 382
f 2 382 373
f 2 373 368
f 2 368 362
f 2 362 358
f 2 358 353
f 2 353 346
f 2 346 340
f 2 340 336
f 2 336 331
f 2 331 326
f 2 326 322
f 2 322 317
f 2 317 312
f 2 312 306
f 2 306 298
f 2 298 290
f 2 290 282
f 2 282 274
f 2 274 265
f 2 265 259
f 2 259 254
f 2 254 248
f 2 248 247
f 2 247 243
f 2 243 242
f 2 242 237
f 2 237 236
f 2 236 231
f 2 231 226
f 2 226 225
f 2 225 224
f 2 224 216
f 2 216 208
f 2 208 203
f 2 203 196
f 2 196 188
f 2 188 182
f 2 182 175
f 2 175 169
f 2 169 163
f 2 163 165
f 2 165 158
f 2 158 157
f 2 157 155
f 2 155 149
f 2 149 147
f 2 147 141
f 2 141 134
f 2 134 126
f 2 126 125
f 2 125 118
f 2 118 111
f 2 111 110
f 2 110 109
f 2 109 99
f 2 99 90
f 2 90 89
f 2 89 88
f 2 88 80
f 2 80 79
f 2 79 70
f 2 70 73
f 2 73 69
f 2 69 61
f 2 61 64
f 2 64 60
f 2 60 52
f 2 52 46
f 2 46 45
f 2 45 39
f 2 39 33
f 2 33 32
f 2 32 24
f 2 24 23
f 2 23 16
f 2 16 15
f 2 15 9
f 3 10 11
f 3 11 4
f 4 11 18
f 4 18 26
f 4 26 35
f 4 35 41
f 4 41 48
f 4 48 54
f 4 54 63
f 4 63 72
f 4 72 82
f 4 82 92
f 4 92 101
f 4 101 113
f 4 113 121
f 4 121 128
f 4 128 136
f 4 136 143
f 4 143 150
f 4 150 156
f 4 156 164
f 4 164 170
f 4 170 177
f 4 177 183
f 4 183 190
f 4 190 197
f 4 197 204
f 4 204 210
f 4 210 217
f 4 217 227
f 4 227 233
f 4 233 238
f 4 238 244
f 4 244 250
f 4 250 256
f 4 256 255
f 4 255 261
f 4 261 268
f 4 268 267
f 4 267 276
f 4 276 275
f 4 275 285
f 4 285 294
f 4 294 293
f 4 293 299
f 4 299 301
f 4 301 300
f 4 300 307
f 4 307 313
f 4 313 318
f 4 318 323
f 4 323 327
f 4 327 332
f 4 332 335
f 4 335 339
f 4 339 344
f 4 344 345
f 4 345 351
f 4 351 352
f 4 352 357
f 4 357 359
f 4 359 364
f 4 364 363
f 4 363 367
f 4 367 372
f 4 372 376
f 4 376 375
f 4 375 374
f 4 374 381
f 4 381 380
f 4 380 379
f 4 379 386
f 4 386 387
f 4 387 392
f 4 392 394
f 4 394 399
f 4 399 398
f 4 398 397
f 4 397 405
f 4 405 406
f 4 406 412
f 4 412 415
f 4 415 414
f 4 414 418
f 4 418 426
f 4 426 430
f 4 430 429
f 4 429 428
f 4 428 434
f 4 434 433
f 4 433 440
f 4 440 445
f 4 445 450
f 4 450 454
f 4 454 459
f 4 459 457
f 4 457 452
f 4 452 447
f 4 447 441
f 4 441 436
f 4 436 431
f 4 431 421
f 4 421 417
f 4 417 409
f 4 409 404
f 4 404 396
f 4 396 390
f 4 390 385
f 4 385 378
f 4 378 371
f 4 371 366
f 4 366 360
f 4 360 355
f 4 355 349
f 4 349 343
f 4 343 338
f 4 338 333
f 4 333 330
f 4 330 325
f 4 325 321
f 4 321 316
f 4 316 311
f 4 311 304
f 4 304 296
f 4 296 286
f 4 286 278
f 4 278 272
f 4 272 271
f 4 271 263
f 4 263 258
f 4 258 251
f 4 251 245
f 4 245 239
f 4 239 234
f 4 234 229
f 4 229 228
f 4 228 223
f 4 223 222
f 4 222 218
f 4 218 212
f 4 212 211
f 4 211 205
f 4 205 200
f 4 200 199
f 4 199 198
f 4 198 192
f 4 192 191
f 4 191 185
f 4 185 184
f 4 184 179
f 4 179 178
f 4 178 172
f 4 172 171
f 4 171 166
f 4 166 159
f 4 159 152
f 4 152 151
f 4 151 144
f 4 144 138
f 4 138 137
f 4 137 131
f 4 131 130
f 4 130 129
f 4 129 122
f 4 122 115
f 4 115 114
f 4 114 106
f 4 106 105
f 4 105 104
f 4 104 103
f 4 103 102
f 4 102 93
f 4 93 85
f 4 85 84
f 4 84 83
f 4 83 75
f 4 75 74
f 4 74 66
f 4 66 65
f 4 65 56
f 4 56 55
f 4 55 49
f 4 49 42
f 4 42 36
f 4 36 29
f 4 29 27
f 4 27 19
f 4 19 12
f 4 12 5
f 5 12 6
f 6 12 13
f 6 13 7
f 7 13 14
f 9 15 10
f 10 15 16
f 10 16 17
f 10 17 18
f 10 18 11
f 12 19 13
f 13 19 20
f 13 20 21
f 13 21 22
f 13 22 14
f 16 23 17
f 17 23 24
f 17 24 25
f 17 25 26
f 17 26 18
f 19 27 20
f 20 28 21
f 20 27 29
f 20 29 30
f 20 30 31
f 20 31 28
f 24 32 25
f 25 32 33
f 25 33 39
f 25 39 34
f 25 34 35
f 25 35 26
f 29 36 30
f 30 36 37
f 30 37 31
f 31 37 38
f 34 39 40
f 34 40 41
f 34 41 35
f 36 42 37
f 37 42 43
f 37 43 38
f 38 43 44
f 39 45 40
f 40 45 46
f 40 46 47
f 40 47 48
f 40 48 41
f 42 49 43
f 43 49 50
f 43 50 44
f 44 50 51
f 46 52 47
f 47 52 53
f 47 53 54
f 47 54 48
f 49 55 50
f 50 55 56
f 50 56 57
f 50 57 51
f 51 57 58
f 51 58 59
f 52 60 53
f 53 61 62
f 53 62 63
f 53 63 54
f 53 60 64
f 53 64 61
f 56 65 58
f 56 58 57
f 58 66 67
f 58 67 59
f 58 65 66
f 59 67 68
f 61 69 62
f 62 70 71
f 62 71 72
f 62 72 63
f 62 69 73
f 62 73 70
f 66 74 67
f 67 74 75
f 67 75 76
f 67 76 68
f 68 76 77
f 68 77 78
f 70 79 71
f 71 79 80
f 71 80 81
f 71 81 72
f 72 81 82
f 75 83 76
f 76 83 84
f 76 84 77
f 77 84 85
f 77 85 86
f 77 86 78
f 78 86 87
f 80 88 81
f 81 88 89
f 81 89 90
f 81 90 91
f 81 91 82
f 82 91 92
f 85 93 86
f 86 93 94
f 86 94 95
f 86 95 87
f 87 96 97
f 87 97 98
f 87 95 96
f 90 99 91
f 91 99 100
f 91 100 92
f 92 100 101
f 93 102 94
f 94 102 95
f 95 102 96
f 96 103 104
f 96 104 97
f 96 102 103
f 97 104 105
f 97 105 106
f 97 106 107
f 97 107 108
f 97 108 98
f 99 109 100
f 100 109 110
f 100 110 111
f 100 111 112
f 100 112 113
f 100 113 101
f 106 114 107
f 107 114 115
f 107 115 116
f 107 116 117
f 107 117 108
f 111 118 112
f 112 118 119
f 112 119 120
f 112 120 121
f 112 121 113
f 115 122 116
f 116 122 123
f 116 123 124
f 116 124 117
f 118 125 119
f 119 125 120
f 120 125 126
f 120 126 127
f 120 127 128
f 120 128 121
f 122 129 123
f 123 129 130
f 123 130 131
f 123 131 132
f 123 132 133
f 123 133 124
f 126 134 135
f 126 135 127
f 127 135 128
f 128 135 136
f 131 137 132
f 132 137 138
f 132 138 139
f 132 139 140
f 132 140 133
f 134 141 142
f 134 142 135
f 135 142 143
f 135 143 136
f 138 144 139
f 139 144 145
f 139 145 140
f 140 145 146
f 141 147 142
f 142 148 143
f 142 147 149
f 142 149 148
f 143 148 150
f 144 151 145
f 145 151 152
f 145 152 153
f 145 153 154
f 145 154 146
f 148 149 155
f 148 155 150
f 150 155 157
f 150 157 158
f 150 158 156
f 152 159 160
f 152 160 153
f 153 160 161
f 153 161 162
f 153 162 154
f 156 163 164
f 156 158 165
f 156 165 163
f 159 161 160
f 159 166 161
f 161 166 167
f 161 167 168
f 161 168 162
f 163 169 170
f 163 170 164
f 166 171 167
f 167 171 172
f 167 172 173
f 167 173 174
f 167 174 168
f 169 175 176
f 169 176 170
f 170 176 177
f 172 178 173
f 173 178 179
f 173 179 180
f 173 180 174
f 174 180 181
f 175 182 177
f 175 177 176
f 177 182 183
f 179 184 180
f 180 184 185
f 180 185 186
f 180 186 181
f 181 186 187
f 182 188 189
f 182 189 183
f 183 189 190
f 185 191 186
f 186 191 192
f 186 192 193
f 186 193 187
f 187 193 194
f 187 194 195
f 188 196 197
f 188 197 190
f 188 190 189
f 192 198 194
f 192 194 193
f 194 199 200
f 194 200 201
f 194 201 195
f 194 198 199
f 195 201 202
f 196 203 197
f 197 203 204
f 200 205 201
f 201 205 206
f 201 206 202
f 202 206 207
f 203 208 209
f 203 209 204
f 204 209 210
f 205 211 206
f 206 211 212
f 206 212 213
f 206 213 214
f 206 214 215
f 206 215 207
f 208 216 209
f 209 216 210
f 210 216 217
f 212 218 213
f 213 219 220
f 213 220 221
f 213 221 214
f 213 218 222
f 213 222 223
f 213 223 219
f 216 224 217
f 217 224 225
f 217 225 226
f 217 226 227
f 219 223 228
f 219 228 229
f 219 229 230
f 219 230 220
f 226 231 232
f 226 232 227
f 227 232 233
f 229 234 230
f 230 234 235
f 231 236 232
f 232 236 233
f 233 236 237
f 233 237 238
f 234 239 240
f 234 240 235
f 235 240 241
f 237 242 238
f 238 243 244
f 238 242 243
f 239 245 246
f 239 246 240
f 240 246 241
f 243 247 244
f 244 247 248
f 244 248 249
f 244 249 250
f 245 251 252
f 245 252 246
f 246 252 253
f 248 254 249
f 249 254 255
f 249 255 256
f 249 256 250
f 251 257 252
f 251 258 262
f 251 262 257
f 252 257 253
f 254 259 255
f 255 260 261
f 255 259 260
f 258 263 264
f 258 264 262
f 259 265 266
f 259 266 267
f 259 267 260
f 260 267 268
f 260 268 261
f 262 269 270
f 262 264 269
f 263 271 264
f 264 271 272
f 264 272 273
f 264 273 269
f 265 274 266
f 266 275 276
f 266 276 267
f 266 274 275
f 269 277 270
f 269 273 277
f 272 278 279
f 272 279 280
f 272 280 273
f 273 280 281
f 273 281 277
f 274 282 283
f 274 283 275
f 275 283 284
f 275 284 285
f 278 286 287
f 278 287 279
f 279 287 288
f 279 288 289
f 279 289 280
f 282 290 283
f 283 291 284
f 283 290 298
f 283 298 292
f 283 292 291
f 284 291 293
f 284 293 294
f 284 294 285
f 286 295 287
f 286 296 297
f 286 297 295
f 287 295 288
f 291 299 293
f 291 292 299
f 292 298 300
f 292 300 301
f 292 301 299
f 295 297 302
f 296 303 297
f 296 304 303
f 297 303 305
f 297 305 302
f 298 306 300
f 300 306 307
f 303 308 309
f 303 304 310
f 303 310 308
f 304 311 310
f 306 312 307
f 307 312 313
f 308 314 309
f 308 310 314
f 310 311 315
f 310 315 314
f 311 316 315
f 312 317 318
f 312 318 313
f 315 316 319
f 316 320 319
f 316 321 320
f 317 322 323
f 317 323 318
f 320 321 325
f 320 325 324
f 322 326 323
f 323 326 327
f 324 328 329
f 324 325 328
f 325 330 328
f 326 331 332
f 326 332 327
f 328 330 333
f 328 333 334
f 328 334 329
f 331 335 332
f 331 336 335
f 333 337 334
f 333 338 337
f 335 336 339
f 336 340 339
f 337 338 342
f 337 342 341
f 338 343 342
f 339 340 344
f 340 345 344
f 340 346 345
f 341 342 347
f 342 343 347
f 343 348 347
f 343 349 350
f 343 350 348
f 345 346 351
f 346 352 351
f 346 353 352
f 348 350 354
f 349 355 350
f 350 355 356
f 350 356 354
f 352 353 357
f 353 358 359
f 353 359 357
f 355 360 361
f 355 361 356
f 358 362 363
f 358 363 364
f 358 364 359
f 360 365 361
f 360 366 365
f 362 367 363
f 362 368 367
f 365 366 369
f 366 370 369
f 366 371 370
f 367 368 372
f 368 373 374
f 368 374 375
f 368 375 376
f 368 376 372
f 370 371 377
f 371 378 383
f 371 383 377
f 373 379 380
f 373 380 381
f 373 381 374
f 373 382 379
f 378 384 383
f 378 385 384
f 379 382 386
f 382 387 386
f 382 388 387
f 384 385 389
f 385 390 391
f 385 391 389
f 387 388 392
f 388 393 394
f 388 394 392
f 390 395 391
f 390 396 395
f 393 397 398
f 393 398 399
f 393 399 394
f 393 400 397
f 395 396 401
f 396 402 403
f 396 403 401
f 396 404 402
f 397 400 405
f 400 406 405
f 400 407 406
f 402 404 408
f 404 409 410
f 404 410 411
f 404 411 408
f 406 407 412
f 407 413 414
f 407 414 415
f 407 415 412
f 409 416 410
f 409 417 416
f 413 418 414
f 413 419 418
f 416 417 420
f 417 421 422
f 417 422 423
f 417 423 424
f 417 424 425
f 417 425 420
f 418 419 426
f 419 427 428
f 419 428 429
f 419 429 430
f 419 430 426
f 421 431 432
f 421 432 422
f 427 433 434
f 427 434 428
f 427 435 433
f 431 436 437
f 431 437 438
f 431 438 432
f 433 435 439
f 433 439 440
f 436 441 442
f 436 442 437
f 439 443 440
f 440 443 444
f 440 444 445
f 441 446 442
f 441 447 446
f 444 448 445
f 445 448 449
f 445 449 450
f 446 447 451
f 447 452 451
f 449 453 450
f 450 453 454
f 451 452 455
f 452 456 455
f 452 457 456
f 453 458 459
f 453 459 454
f 456 457 458
f 457 459 458
