v 0.007249 0.011801 0.033032
v 0.007684 0.011555 0.033032
v 0.007249 0.011505 0.032771
v 0.007249 -0.012429 0.033032
v 0.007778 0.011500 0.033032
v 0.007778 0.011481 0.033015
v 0.007249 0.011481 0.032750
v 0.007249 -0.012606 0.032355
v 0.007639 -0.012221 0.033032
v 0.007810 0.011481 0.033032
v 0.007778 0.010740 0.032387
v 0.007717 0.010740 0.032355
v 0.007249 0.011022 0.032355
v 0.007777 -0.012260 0.032355
v 0.008518 -0.011677 0.033032
v 0.007778 -0.012145 0.033032
v 0.008519 0.011015 0.033032
v 0.008519 0.010740 0.032806
v 0.008479 0.010208 0.032355
v 0.007778 0.010700 0.032355
v 0.007831 -0.012221 0.032355
v 0.008781 -0.011497 0.033032
v 0.008896 0.010740 0.033032
v 0.008519 0.010179 0.032355
v 0.009260 -0.011144 0.033032
v 0.008517 -0.011703 0.032355
v 0.008971 0.010683 0.033032
v 0.009260 0.010459 0.033032
v 0.008749 0.010000 0.032355
v 0.009737 -0.010764 0.033032
v 0.008788 -0.011481 0.032355
v 0.009802 0.010000 0.033032
v 0.009260 0.010000 0.032675
v 0.009260 0.009575 0.032355
v 0.010000 -0.010535 0.033032
v 0.009258 -0.011067 0.032355
v 0.009865 0.009943 0.033032
v 0.009608 0.009259 0.032355
v 0.010558 -0.010026 0.033032
v 0.009605 -0.010740 0.032355
v 0.010000 0.009818 0.033032
v 0.010000 0.009259 0.032624
v 0.010000 0.008875 0.032355
v 0.010000 -0.010336 0.032355
v 0.010741 -0.009835 0.033032
v 0.010572 0.009259 0.033032
v 0.010626 0.009202 0.033032
v 0.010334 0.008523 0.032355
v 0.010309 -0.009999 0.032355
v 0.011272 -0.009276 0.033032
v 0.010741 0.009078 0.033032
v 0.010741 0.008516 0.032653
v 0.010741 0.008053 0.032355
v 0.010741 -0.009486 0.032355
v 0.011286 -0.009259 0.033032
v 0.011236 0.008516 0.033032
v 0.011282 0.008461 0.033032
v 0.010966 0.007776 0.032355
v 0.010922 -0.009259 0.032355
v 0.011903 -0.008513 0.033032
v 0.011481 -0.009025 0.033032
v 0.011481 0.008213 0.033032
v 0.011481 0.007776 0.032763
v 0.011481 0.007076 0.032355
v 0.011458 -0.008518 0.032355
v 0.012199 -0.008112 0.033032
v 0.011813 0.007776 0.033032
v 0.011854 0.007721 0.033032
v 0.011507 0.007040 0.032355
v 0.011481 -0.008482 0.032355
v 0.012438 -0.007778 0.033032
v 0.012222 0.007183 0.033032
v 0.012222 0.007035 0.032950
v 0.011977 0.006297 0.032355
v 0.011923 -0.007778 0.032355
v 0.012913 -0.007037 0.033032
v 0.012318 0.007035 0.033032
v 0.012222 0.006294 0.032564
v 0.012222 0.005860 0.032355
v 0.012222 -0.007240 0.032355
v 0.013324 -0.006296 0.033032
v 0.012757 0.006294 0.033032
v 0.012788 0.006239 0.033032
v 0.012385 0.005556 0.032355
v 0.012331 -0.007037 0.032355
v 0.013648 -0.005630 0.033032
v 0.012962 0.005905 0.033032
v 0.012962 0.005554 0.032872
v 0.012733 0.004815 0.032355
v 0.012682 -0.006296 0.032355
v 0.013684 -0.005553 0.033032
v 0.013139 0.005554 0.033032
v 0.012962 0.004813 0.032564
v 0.012962 0.004247 0.032355
v 0.012962 -0.005608 0.032355
v 0.013735 -0.005410 0.033032
v 0.012985 -0.005551 0.032355
v 0.013469 0.004813 0.033032
v 0.013031 0.004075 0.032355
v 0.013943 -0.004813 0.033032
v 0.013237 -0.004813 0.032355
v 0.013704 -0.004813 0.032801
v 0.013491 0.004756 0.033032
v 0.013704 0.004197 0.033032
v 0.013704 0.004072 0.032988
v 0.013279 0.003334 0.032355
v 0.013968 -0.004727 0.033032
v 0.013239 -0.004808 0.032355
v 0.013446 -0.004072 0.032355
v 0.013749 0.004072 0.033032
v 0.013704 0.003332 0.032761
v 0.013481 0.002591 0.032355
v 0.013704 -0.004072 0.032605
v 0.014142 -0.004072 0.033032
v 0.013611 -0.003331 0.032355
v 0.013984 0.003332 0.033032
v 0.013704 0.002591 0.032571
v 0.013639 0.001858 0.032355
v 0.014156 -0.004008 0.033032
v 0.013704 -0.002784 0.032355
v 0.013704 -0.003331 0.032445
v 0.014176 0.002591 0.033032
v 0.013704 0.001851 0.032417
v 0.013640 0.001851 0.032355
v 0.014300 -0.003331 0.033032
v 0.013736 -0.002593 0.032355
v 0.014309 -0.003276 0.033032
v 0.014327 0.001851 0.033032
v 0.014336 0.001793 0.033032
v 0.013704 0.001447 0.032355
v 0.013819 -0.001848 0.032355
v 0.014418 -0.002591 0.033032
v 0.014390 -0.002772 0.033032
v 0.014438 0.001110 0.033032
v 0.013756 0.001112 0.032355
v 0.013753 0.001131 0.032355
v 0.014444 -0.001850 0.032978
v 0.014444 -0.002352 0.033032
v 0.013863 -0.001107 0.032355
v 0.014444 0.001045 0.033032
v 0.013831 0.000372 0.032355
v 0.014444 -0.001110 0.032936
v 0.014540 -0.001110 0.033032
v 0.014513 -0.001575 0.033032
v 0.014498 -0.001850 0.033032
v 0.013867 -0.000369 0.032355
v 0.014510 0.000369 0.033032
v 0.014444 0.000369 0.032966
v 0.014544 -0.000371 0.033032
v 0.014528 -0.000030 0.033032
f 1 2 3
f 1 3 7
f 1 7 13
f 1 13 8
f 1 8 4
f 1 4 9
f 1 9 16
f 1 16 15
f 1 15 22
f 1 22 25
f 1 25 30
f 1 30 35
f 1 35 39
f 1 39 45
f 1 45 50
f 1 50 55
f 1 55 61
f 1 61 60
f 1 60 66
f 1 66 71
f 1 71 76
f 1 76 81
f 1 81 86
f 1 86 91
f 1 91 96
f 1 96 100
f 1 100 107
f 1 107 114
f 1 114 119
f 1 119 125
f 1 125 127
f 1 127 133
f 1 133 132
f 1 132 138
f 1 138 145
f 1 145 144
f 1 144 143
f 1 143 149
f 1 149 150
f 1 150 147
f 1 147 140
f 1 140 134
f 1 134 129
f 1 129 128
f 1 128 122
f 1 122 116
f 1 116 110
f 1 110 104
f 1 104 103
f 1 103 98
f 1 98 92
f 1 92 87
f 1 87 83
f 1 83 82
f 1 82 77
f 1 77 72
f 1 72 68
f 1 68 67
f 1 67 62
f 1 62 57
f 1 57 56
f 1 56 51
f 1 51 47
f 1 47 46
f 1 46 41
f 1 41 37
f 1 37 32
f 1 32 28
f 1 28 27
f 1 27 23
f 1 23 17
f 1 17 10
f 1 10 5
f 1 5 2
f 2 5 6
f 2 6 7
f 2 7 3
f 4 8 9
f 5 10 6
f 6 10 11
f 6 11 12
f 6 12 13
f 6 13 7
f 8 14 15
f 8 15 16
f 8 16 9
f 8 13 12
f 8 12 20
f 8 20 19
f 8 19 24
f 8 24 29
f 8 29 34
f 8 34 38
f 8 38 43
f 8 43 48
f 8 48 53
f 8 53 58
f 8 58 64
f 8 64 69
f 8 69 74
f 8 74 79
f 8 79 84
f 8 84 89
f 8 89 94
f 8 94 99
f 8 99 106
f 8 106 112
f 8 112 118
f 8 118 124
f 8 124 130
f 8 130 136
f 8 136 135
f 8 135 141
f 8 141 146
f 8 146 139
f 8 139 131
f 8 131 126
f 8 126 120
f 8 120 115
f 8 115 109
f 8 109 108
f 8 108 101
f 8 101 97
f 8 97 95
f 8 95 90
f 8 90 85
f 8 85 80
f 8 80 75
f 8 75 70
f 8 70 65
f 8 65 59
f 8 59 54
f 8 54 49
f 8 49 44
f 8 44 40
f 8 40 36
f 8 36 31
f 8 31 26
f 8 26 21
f 8 21 14
f 10 17 11
f 11 17 18
f 11 18 19
f 11 19 20
f 11 20 12
f 14 21 22
f 14 22 15
f 17 23 18
f 18 23 24
f 18 24 19
f 21 25 22
f 21 26 25
f 23 27 24
f 24 27 28
f 24 28 29
f 25 26 30
f 26 31 30
f 28 32 33
f 28 33 29
f 29 33 34
f 30 31 35
f 31 36 35
f 32 37 34
f 32 34 33
f 34 37 38
f 35 36 39
f 36 40 39
f 37 41 38
f 38 41 42
f 38 42 43
f 39 44 45
f 39 40 44
f 41 46 42
f 42 46 43
f 43 47 48
f 43 46 47
f 44 49 50
f 44 50 45
f 47 51 48
f 48 51 52
f 48 52 53
f 49 54 55
f 49 55 50
f 51 56 52
f 52 56 57
f 52 57 53
f 53 57 58
f 54 59 60
f 54 60 61
f 54 61 55
f 57 62 58
f 58 63 64
f 58 62 63
f 59 65 66
f 59 66 60
f 62 67 63
f 63 67 68
f 63 68 64
f 64 68 69
f 65 70 71
f 65 71 66
f 68 72 69
f 69 72 73
f 69 73 74
f 70 75 76
f 70 76 71
f 72 77 73
f 73 77 74
f 74 78 79
f 74 77 78
f 75 80 76
f 76 80 81
f 77 82 78
f 78 82 83
f 78 83 79
f 79 83 84
f 80 85 81
f 81 85 86
f 83 87 84
f 84 87 88
f 84 88 89
f 85 90 86
f 86 90 91
f 87 92 88
f 88 92 89
f 89 93 94
f 89 92 93
f 90 95 91
f 91 95 97
f 91 97 96
f 92 98 93
f 93 98 94
f 94 98 103
f 94 103 99
f 96 97 100
f 97 101 102
f 97 102 100
f 99 103 104
f 99 104 105
f 99 105 106
f 100 102 107
f 101 108 102
f 102 108 109
f 102 109 107
f 104 110 105
f 105 110 106
f 106 111 112
f 106 110 111
f 107 109 113
f 107 113 114
f 109 115 113
f 110 116 111
f 111 116 112
f 112 116 117
f 112 117 118
f 113 115 114
f 114 115 119
f 115 120 121
f 115 121 119
f 116 122 117
f 117 122 118
f 118 122 123
f 118 123 124
f 119 121 125
f 120 126 121
f 121 126 127
f 121 127 125
f 122 128 123
f 123 128 129
f 123 129 130
f 123 130 124
f 126 131 132
f 126 132 133
f 126 133 127
f 129 134 135
f 129 135 136
f 129 136 130
f 131 137 138
f 131 138 132
f 131 139 137
f 134 140 141
f 134 141 135
f 137 139 142
f 137 142 143
f 137 143 144
f 137 144 145
f 137 145 138
f 139 146 142
f 140 147 148
f 140 148 141
f 141 148 146
f 142 146 149
f 142 149 143
f 146 148 147
f 146 147 150
f 146 150 149
