v -0.014478 -0.000371 0.031618
v -0.014476 -0.000371 0.031617
v -0.014474 -0.001109 0.031617
v -0.014474 -0.001109 0.031618
v -0.013741 -0.000371 0.032355
v -0.014443 0.000369 0.031618
v -0.014443 0.000369 0.031617
v -0.014431 -0.001849 0.031617
v -0.014431 -0.001852 0.031618
v -0.013737 -0.001109 0.032355
v -0.013724 -0.000007 0.032355
v -0.013705 0.000369 0.032355
v -0.013703 0.000389 0.032355
v -0.013702 0.000405 0.032355
v -0.014370 0.001109 0.031618
v -0.014370 0.001109 0.031617
v -0.014351 -0.002592 0.031617
v -0.014351 -0.002592 0.031618
v -0.013693 -0.001849 0.032355
v -0.013629 0.001107 0.032355
v -0.013703 0.001109 0.032281
v -0.014260 0.001850 0.031618
v -0.014260 0.001850 0.031617
v -0.014232 -0.003332 0.031617
v -0.013610 -0.002592 0.032353
v -0.013609 -0.002589 0.032355
v -0.014232 -0.003332 0.031618
v -0.013511 0.001850 0.032355
v -0.013703 0.001850 0.032166
v -0.014109 0.002590 0.031617
v -0.014074 -0.004073 0.031617
v -0.013703 -0.003332 0.032138
v -0.013484 -0.003332 0.032353
v -0.013482 -0.003330 0.032355
v -0.014074 -0.004073 0.031618
v -0.013352 0.002590 0.032355
v -0.013703 0.002590 0.032013
v -0.013915 0.003333 0.031618
v -0.013915 0.003333 0.031617
v -0.013875 -0.004813 0.031617
v -0.013703 -0.004073 0.031979
v -0.013317 -0.004073 0.032353
v -0.013315 -0.004070 0.032355
v -0.013875 -0.004813 0.031618
v -0.013147 0.003333 0.032355
v -0.013150 0.003333 0.032353
v -0.013703 0.003333 0.031822
v -0.013703 0.003999 0.031618
v -0.013703 0.003999 0.031617
v -0.013703 -0.005341 0.031617
v -0.013703 -0.005343 0.031618
v -0.013703 -0.004813 0.031782
v -0.013106 -0.004810 0.032355
v -0.012962 0.003883 0.032355
v -0.013679 0.004073 0.031618
v -0.013679 0.004073 0.031617
v -0.013633 -0.005553 0.031617
v -0.013633 -0.005553 0.031618
v -0.012962 -0.005230 0.032355
v -0.012897 0.004073 0.032355
v -0.012962 0.004073 0.032293
v -0.013397 0.004814 0.031618
v -0.013397 0.004814 0.031617
v -0.013343 -0.006302 0.031617
v -0.013346 -0.006294 0.031618
v -0.012962 -0.005553 0.032249
v -0.012849 -0.005553 0.032355
v -0.012596 0.004814 0.032355
v -0.012599 0.004814 0.032353
v -0.012962 0.004814 0.032019
v -0.013067 0.005554 0.031618
v -0.013067 0.005554 0.031617
v -0.013011 -0.007037 0.031617
v -0.013013 -0.007037 0.031618
v -0.012962 -0.006294 0.031972
v -0.012545 -0.006294 0.032355
v -0.012570 0.004869 0.032355
v -0.012244 0.005554 0.032355
v -0.012962 0.005554 0.031712
v -0.012962 0.005758 0.031618
v -0.012962 0.005758 0.031617
v -0.012962 -0.007133 0.031617
v -0.012962 -0.007136 0.031618
v -0.012962 -0.007037 0.031663
v -0.012221 -0.006976 0.032353
v -0.012192 -0.007037 0.032353
v -0.012192 -0.007031 0.032355
v -0.012221 0.005601 0.032353
v -0.012682 0.006294 0.031618
v -0.011831 0.006294 0.032355
v -0.012682 0.006294 0.031617
v -0.012618 -0.007777 0.031617
v -0.012618 -0.007777 0.031618
v -0.011779 -0.007774 0.032355
v -0.012189 -0.007037 0.032355
v -0.012221 0.006294 0.032019
v -0.012241 0.007035 0.031617
v -0.011481 0.006850 0.032355
v -0.012222 0.007065 0.031617
v -0.012221 -0.008346 0.031617
v -0.011481 -0.008249 0.032355
v -0.012221 -0.008346 0.031618
v -0.011307 -0.008514 0.032355
v -0.011356 0.007035 0.032355
v -0.011481 0.007035 0.032252
v -0.011732 0.007778 0.031617
v -0.012093 -0.008517 0.031617
v -0.012093 -0.008517 0.031618
v -0.010765 -0.009258 0.032355
v -0.010807 0.007778 0.032355
v -0.011481 0.007778 0.031821
v -0.011481 0.008106 0.031618
v -0.011481 0.008106 0.031617
v -0.011481 -0.009258 0.031617
v -0.011481 -0.009260 0.031618
v -0.010727 -0.009304 0.032355
v -0.010740 -0.009291 0.032353
v -0.010740 0.007858 0.032355
v -0.011150 0.008518 0.031617
v -0.011118 -0.009641 0.031617
v -0.010781 -0.009998 0.031618
v -0.009999 -0.010158 0.032353
v -0.010143 -0.009998 0.032355
v -0.010169 0.008518 0.032355
v -0.010740 0.008518 0.031930
v -0.010741 0.008979 0.031617
v -0.010779 -0.009998 0.031617
v -0.010740 -0.010039 0.031618
v -0.009988 -0.010166 0.032355
v -0.009999 -0.010155 0.032355
v -0.009429 -0.010738 0.032353
v -0.009999 0.008695 0.032355
v -0.009999 0.008698 0.032353
v -0.010478 0.009258 0.031618
v -0.010478 0.009258 0.031617
v -0.010740 -0.010036 0.031617
v -0.009999 -0.010713 0.031617
v -0.009999 -0.010713 0.031618
v -0.009259 -0.010901 0.032353
v -0.009426 -0.010738 0.032355
v -0.009259 -0.010898 0.032355
v -0.009426 0.009258 0.032355
v -0.009999 0.009258 0.031960
v -0.009999 0.009728 0.031618
v -0.010002 0.009725 0.031617
v -0.009970 -0.010738 0.031617
v -0.009970 -0.010738 0.031618
v -0.008599 -0.011481 0.032353
v -0.008596 -0.011481 0.032355
v -0.009259 0.009410 0.032355
v -0.009701 0.009999 0.031618
v -0.009701 0.009999 0.031617
v -0.009259 -0.011304 0.031617
v -0.009259 -0.011304 0.031618
v -0.008518 -0.011547 0.032353
v -0.008518 -0.011545 0.032355
v -0.008550 0.009999 0.032355
v -0.009259 0.009999 0.031909
v -0.009259 0.010374 0.031617
v -0.009015 -0.011478 0.031617
v -0.009015 -0.011481 0.031618
v -0.007776 -0.012108 0.032353
v -0.007804 -0.012086 0.032355
v -0.008518 0.010023 0.032355
v -0.008785 0.010739 0.031617
v -0.008518 -0.011821 0.031617
v -0.008518 -0.011821 0.031618
v -0.007614 -0.012221 0.032353
v -0.007615 -0.012219 0.032355
v -0.007776 0.010551 0.032355
v -0.008518 0.010739 0.031778
v -0.008518 0.010935 0.031618
v -0.008510 0.010941 0.031617
v -0.007871 -0.012219 0.031617
v -0.007869 -0.012221 0.031618
v -0.007038 -0.012600 0.032353
v -0.007038 -0.012597 0.032355
v -0.007478 0.010739 0.032355
v -0.007776 0.010739 0.032196
v -0.007776 0.011424 0.031617
v -0.007776 -0.012274 0.031617
v -0.007776 -0.012277 0.031618
v -0.006419 -0.012962 0.032353
v -0.006416 -0.012962 0.032355
v -0.007015 -0.012611 0.032355
v -0.007040 0.011007 0.032355
v -0.007681 0.011479 0.031617
v -0.007038 -0.012669 0.031617
v -0.007038 -0.012669 0.031618
v -0.006297 -0.013031 0.032353
v -0.006297 -0.013028 0.032355
v -0.006297 0.011399 0.032355
v -0.007038 0.011479 0.031940
v -0.007045 0.011841 0.031617
v -0.006413 -0.012962 0.031617
v -0.005556 -0.013404 0.032353
v -0.005579 -0.013390 0.032355
v -0.006120 0.011479 0.032355
v -0.006297 0.012211 0.031618
v -0.006997 0.011866 0.031617
v -0.006297 -0.013014 0.031617
v -0.004874 -0.013702 0.032353
v -0.005496 -0.013429 0.032355
v -0.005556 -0.013401 0.032355
v -0.005559 0.011731 0.032355
v -0.006297 0.012211 0.031617
v -0.005556 0.012523 0.031617
v -0.005556 -0.013307 0.031617
v -0.004816 -0.013727 0.032353
v -0.004870 -0.013702 0.032355
v -0.004816 0.012012 0.032355
v -0.004816 0.012786 0.031618
v -0.004816 0.012786 0.031617
v -0.004816 -0.013553 0.031617
v -0.004816 -0.013556 0.031618
v -0.004075 -0.014003 0.032353
v -0.004134 -0.013978 0.032355
v -0.004816 -0.013724 0.032355
v -0.004140 0.012222 0.032355
v -0.004076 0.012242 0.032355
v -0.004211 0.012963 0.031618
v -0.004213 0.012963 0.031617
v -0.004281 -0.013702 0.031617
v -0.003334 -0.014232 0.032353
v -0.004075 -0.014000 0.032355
v -0.003339 -0.014230 0.032355
v -0.003336 0.012421 0.032355
v -0.004075 0.012963 0.031656
v -0.004075 0.013001 0.031618
v -0.004075 0.013001 0.031617
v -0.004075 -0.013757 0.031617
v -0.002597 -0.014420 0.032355
v -0.002594 0.012559 0.032355
v -0.003334 0.012963 0.031824
v -0.003334 0.013173 0.031618
v -0.003334 0.013173 0.031617
v -0.003334 -0.013920 0.031617
v -0.002594 -0.014420 0.032353
v -0.002486 -0.014442 0.032353
v -0.002488 -0.014442 0.032355
v -0.001853 0.012650 0.032355
v -0.002594 0.013300 0.031618
v -0.002594 0.013300 0.031617
v -0.002594 -0.014042 0.031617
v -0.001853 -0.014569 0.032353
v -0.001853 -0.014567 0.032355
v -0.000372 0.012789 0.032355
v -0.001853 0.013388 0.031617
v -0.001853 -0.014122 0.031617
v -0.001853 -0.014125 0.031618
v -0.001111 -0.014677 0.032353
v -0.001111 -0.014677 0.032355
v 0.000362 0.012824 0.032355
v -0.001111 0.013432 0.031618
v -0.001111 0.013432 0.031617
v -0.001111 -0.014166 0.031617
v -0.000372 -0.014749 0.032353
v -0.000377 -0.014746 0.032355
v 0.000370 0.012783 0.032355
v 0.000370 0.012824 0.032353
v 0.000370 0.013399 0.031618
v -0.000372 0.013438 0.031617
v -0.000372 -0.014169 0.031617
v -0.000372 -0.014172 0.031618
v 0.000370 -0.014782 0.032355
v 0.000370 0.013327 0.031617
v 0.000370 -0.014136 0.031618
v 0.000370 -0.012766 0.031617
v 0.000370 -0.014442 0.031966
f 1 2 3
f 1 3 4
f 1 4 10
f 1 10 5
f 1 5 6
f 1 6 7
f 1 7 2
f 2 7 16
f 2 16 23
f 2 23 30
f 2 30 39
f 2 39 49
f 2 49 56
f 2 56 63
f 2 63 72
f 2 72 81
f 2 81 91
f 2 91 97
f 2 97 99
f 2 99 106
f 2 106 113
f 2 113 119
f 2 119 126
f 2 126 135
f 2 135 145
f 2 145 152
f 2 152 159
f 2 159 165
f 2 165 173
f 2 173 180
f 2 180 187
f 2 187 194
f 2 194 200
f 2 200 206
f 2 206 207
f 2 207 213
f 2 213 222
f 2 222 230
f 2 230 236
f 2 236 243
f 2 243 248
f 2 248 255
f 2 255 262
f 2 262 266
f 2 266 268
f 2 268 263
f 2 263 256
f 2 256 249
f 2 249 244
f 2 244 237
f 2 237 231
f 2 231 223
f 2 223 214
f 2 214 208
f 2 208 201
f 2 201 195
f 2 195 188
f 2 188 181
f 2 181 174
f 2 174 166
f 2 166 160
f 2 160 153
f 2 153 146
f 2 146 137
f 2 137 136
f 2 136 127
f 2 127 120
f 2 120 114
f 2 114 107
f 2 107 100
f 2 100 92
f 2 92 82
f 2 82 73
f 2 73 64
f 2 64 57
f 2 57 50
f 2 50 40
f 2 40 31
f 2 31 24
f 2 24 17
f 2 17 8
f 2 8 3
f 3 8 9
f 3 9 4
f 4 9 10
f 5 11 6
f 5 10 19
f 5 19 26
f 5 26 34
f 5 34 43
f 5 43 53
f 5 53 59
f 5 59 67
f 5 67 76
f 5 76 87
f 5 87 95
f 5 95 94
f 5 94 101
f 5 101 103
f 5 103 109
f 5 109 116
f 5 116 123
f 5 123 130
f 5 130 129
f 5 129 140
f 5 140 141
f 5 141 149
f 5 149 156
f 5 156 163
f 5 163 169
f 5 169 177
f 5 177 185
f 5 185 184
f 5 184 191
f 5 191 197
f 5 197 204
f 5 204 203
f 5 203 210
f 5 210 218
f 5 218 217
f 5 217 225
f 5 225 226
f 5 226 232
f 5 232 240
f 5 240 246
f 5 246 252
f 5 252 258
f 5 258 265
f 5 265 259
f 5 259 253
f 5 253 247
f 5 247 241
f 5 241 233
f 5 233 227
f 5 227 220
f 5 220 219
f 5 219 211
f 5 211 205
f 5 205 198
f 5 198 192
f 5 192 186
f 5 186 178
f 5 178 170
f 5 170 164
f 5 164 157
f 5 157 150
f 5 150 142
f 5 142 132
f 5 132 124
f 5 124 118
f 5 118 110
f 5 110 104
f 5 104 98
f 5 98 90
f 5 90 78
f 5 78 77
f 5 77 68
f 5 68 60
f 5 60 54
f 5 54 45
f 5 45 36
f 5 36 28
f 5 28 20
f 5 20 14
f 5 14 13
f 5 13 12
f 5 12 11
f 6 12 13
f 6 13 14
f 6 14 15
f 6 15 16
f 6 16 7
f 6 11 12
f 8 17 9
f 9 17 18
f 9 18 19
f 9 19 10
f 14 20 21
f 14 21 15
f 15 21 22
f 15 22 23
f 15 23 16
f 17 24 27
f 17 27 18
f 18 25 26
f 18 26 19
f 18 27 25
f 20 28 29
f 20 29 22
f 20 22 21
f 22 29 30
f 22 30 23
f 24 31 35
f 24 35 27
f 25 27 32
f 25 32 33
f 25 33 34
f 25 34 26
f 27 35 32
f 28 36 37
f 28 37 30
f 28 30 29
f 30 37 38
f 30 38 39
f 31 40 44
f 31 44 35
f 32 35 33
f 33 35 41
f 33 41 42
f 33 42 43
f 33 43 34
f 35 44 41
f 36 45 46
f 36 46 47
f 36 47 38
f 36 38 37
f 38 48 49
f 38 49 39
f 38 47 48
f 40 50 51
f 40 51 44
f 41 44 42
f 42 44 52
f 42 52 53
f 42 53 43
f 44 51 52
f 45 54 46
f 46 54 55
f 46 55 48
f 46 48 47
f 48 55 56
f 48 56 49
f 50 57 51
f 51 57 58
f 51 58 53
f 51 53 52
f 53 58 59
f 54 60 61
f 54 61 55
f 55 61 62
f 55 62 63
f 55 63 56
f 57 64 58
f 58 64 65
f 58 65 66
f 58 66 59
f 59 66 67
f 60 68 69
f 60 69 70
f 60 70 62
f 60 62 61
f 62 70 71
f 62 71 72
f 62 72 63
f 64 73 74
f 64 74 75
f 64 75 65
f 65 75 67
f 65 67 66
f 67 75 76
f 68 77 69
f 69 77 78
f 69 78 79
f 69 79 71
f 69 71 70
f 71 79 80
f 71 80 81
f 71 81 72
f 73 82 74
f 74 76 75
f 74 82 83
f 74 83 84
f 74 84 76
f 76 84 85
f 76 85 86
f 76 86 87
f 78 88 89
f 78 89 80
f 78 80 79
f 78 90 88
f 80 89 91
f 80 91 81
f 82 92 83
f 83 86 84
f 83 92 93
f 83 93 86
f 84 86 85
f 86 93 94
f 86 94 95
f 86 95 87
f 88 90 96
f 88 96 89
f 89 96 97
f 89 97 91
f 90 98 99
f 90 99 97
f 90 97 96
f 92 100 102
f 92 102 93
f 93 101 94
f 93 102 103
f 93 103 101
f 98 104 105
f 98 105 99
f 99 105 106
f 100 107 108
f 100 108 102
f 102 108 109
f 102 109 103
f 104 110 111
f 104 111 106
f 104 106 105
f 106 111 112
f 106 112 113
f 107 114 115
f 107 115 108
f 108 115 116
f 108 116 117
f 108 117 109
f 109 117 116
f 110 118 119
f 110 119 112
f 110 112 111
f 112 119 113
f 114 120 115
f 115 120 121
f 115 121 122
f 115 122 123
f 115 123 116
f 118 124 125
f 118 125 119
f 119 125 126
f 120 127 121
f 121 127 128
f 121 128 131
f 121 131 122
f 122 129 130
f 122 130 123
f 122 131 129
f 124 132 133
f 124 133 134
f 124 134 126
f 124 126 125
f 126 134 135
f 127 136 128
f 128 136 137
f 128 137 138
f 128 138 139
f 128 139 131
f 129 131 140
f 131 139 141
f 131 141 140
f 132 142 133
f 133 142 143
f 133 143 134
f 134 143 144
f 134 144 145
f 134 145 135
f 137 146 147
f 137 147 138
f 138 147 148
f 138 148 139
f 139 148 149
f 139 149 141
f 142 150 144
f 142 144 143
f 144 150 151
f 144 151 152
f 144 152 145
f 146 153 154
f 146 154 147
f 147 154 155
f 147 155 148
f 148 155 149
f 149 155 156
f 150 157 158
f 150 158 151
f 151 158 159
f 151 159 152
f 153 160 161
f 153 161 154
f 154 161 162
f 154 162 155
f 155 162 163
f 155 163 156
f 157 164 159
f 157 159 158
f 159 164 165
f 160 166 161
f 161 166 167
f 161 167 168
f 161 168 162
f 162 169 163
f 162 168 169
f 164 170 171
f 164 171 165
f 165 171 172
f 165 172 173
f 166 174 175
f 166 175 167
f 167 175 176
f 167 176 168
f 168 176 169
f 169 176 177
f 170 178 179
f 170 179 173
f 170 173 172
f 170 172 171
f 173 179 180
f 174 181 182
f 174 182 175
f 175 182 176
f 176 182 183
f 176 183 184
f 176 184 185
f 176 185 177
f 178 186 180
f 178 180 179
f 180 186 187
f 181 188 182
f 182 188 189
f 182 189 190
f 182 190 183
f 183 190 184
f 184 190 191
f 186 192 193
f 186 193 187
f 187 193 194
f 188 195 196
f 188 196 189
f 189 196 190
f 190 197 191
f 190 196 197
f 192 198 199
f 192 199 200
f 192 200 194
f 192 194 193
f 195 201 196
f 196 202 203
f 196 203 204
f 196 204 197
f 196 201 202
f 198 205 199
f 199 206 200
f 199 205 207
f 199 207 206
f 201 208 209
f 201 209 202
f 202 209 210
f 202 210 203
f 205 211 207
f 207 212 213
f 207 211 212
f 208 214 215
f 208 215 216
f 208 216 209
f 209 216 217
f 209 217 218
f 209 218 210
f 211 219 212
f 212 219 220
f 212 220 221
f 212 221 222
f 212 222 213
f 214 223 215
f 215 223 224
f 215 224 216
f 216 225 217
f 216 224 226
f 216 226 225
f 220 227 228
f 220 228 221
f 221 228 229
f 221 229 222
f 222 229 230
f 223 231 224
f 224 232 226
f 224 231 232
f 227 233 234
f 227 234 229
f 227 229 228
f 229 235 236
f 229 236 230
f 229 234 235
f 231 237 238
f 231 238 232
f 232 238 239
f 232 239 240
f 233 241 242
f 233 242 235
f 233 235 234
f 235 242 243
f 235 243 236
f 237 244 245
f 237 245 239
f 237 239 238
f 239 245 240
f 240 245 246
f 241 247 248
f 241 248 242
f 242 248 243
f 244 249 250
f 244 250 251
f 244 251 245
f 245 251 252
f 245 252 246
f 247 253 254
f 247 254 248
f 248 254 255
f 249 256 250
f 250 256 257
f 250 257 251
f 251 257 252
f 252 257 258
f 253 259 260
f 253 260 261
f 253 261 262
f 253 262 254
f 254 262 255
f 256 263 264
f 256 264 265
f 256 265 257
f 257 265 258
f 259 265 269
f 259 269 267
f 259 267 268
f 259 268 266
f 259 266 261
f 259 261 260
f 261 266 262
f 263 267 264
f 263 268 267
f 264 267 269
f 264 269 265
