v -0.000372 -0.014214 0.048527
v -0.001111 -0.014175 0.048527
v -0.001111 -0.013677 0.047794
v -0.000372 -0.013682 0.047794
v 0.000372 -0.014213 0.048527
v -0.001850 -0.014098 0.048527
v -0.001850 -0.013633 0.047794
v -0.001111 -0.013676 0.047793
v 0.000370 -0.013646 0.047794
v -0.000372 -0.013680 0.047793
v 0.001114 -0.014174 0.048527
v -0.002592 -0.013980 0.048527
v -0.002592 -0.013548 0.047794
v -0.001850 -0.013631 0.047793
v 0.000370 -0.013644 0.047793
v 0.001109 -0.013568 0.047793
v 0.001109 -0.013703 0.047956
v 0.001851 -0.014096 0.048527
v -0.003331 -0.013822 0.048527
v -0.003331 -0.013422 0.047794
v -0.002592 -0.013547 0.047793
v 0.001851 -0.013449 0.047793
v 0.001851 -0.013451 0.047794
v 0.001851 -0.013703 0.048079
v 0.002592 -0.013979 0.048527
v -0.003777 -0.013703 0.048527
v -0.004073 -0.013254 0.047794
v -0.003331 -0.013421 0.047793
v 0.002592 -0.013289 0.047793
v 0.002592 -0.013290 0.047794
v 0.002592 -0.013703 0.048231
v 0.003332 -0.013821 0.048527
v -0.004073 -0.013623 0.048527
v -0.004073 -0.013253 0.047793
v -0.004812 -0.013042 0.047793
v 0.003332 -0.013083 0.047793
v 0.003332 -0.013085 0.047794
v 0.003332 -0.013703 0.048408
v 0.003755 -0.013703 0.048527
v -0.004812 -0.013379 0.048527
v -0.005047 -0.012963 0.047794
v -0.005044 -0.012963 0.047793
v 0.003696 -0.012961 0.047793
v 0.003696 -0.012963 0.047794
v 0.004079 -0.013610 0.048527
v -0.005554 -0.013088 0.048527
v -0.005554 -0.012963 0.048225
v -0.005554 -0.012785 0.047794
v -0.005554 -0.012784 0.047793
v 0.004073 -0.012832 0.047793
v 0.004073 -0.012963 0.047915
v 0.004813 -0.013327 0.048527
v -0.005834 -0.012963 0.048527
v -0.006296 -0.012479 0.047794
v -0.006296 -0.012478 0.047793
v 0.004813 -0.012530 0.047793
v 0.004813 -0.012531 0.047794
v 0.004813 -0.012963 0.048189
v 0.004869 -0.013303 0.048527
v -0.006296 -0.012748 0.048527
v -0.006834 -0.012221 0.047794
v -0.006834 -0.012220 0.047793
v 0.005463 -0.012221 0.047793
v 0.005465 -0.012221 0.047794
v 0.005554 -0.012963 0.048497
v 0.005554 -0.012996 0.048527
v -0.007035 -0.012355 0.048527
v -0.007035 -0.012122 0.047794
v -0.007035 -0.012121 0.047793
v 0.005552 -0.012177 0.047793
v 0.005554 -0.012177 0.047794
v 0.005554 -0.012221 0.047834
v 0.005621 -0.012963 0.048527
v -0.007262 -0.012221 0.048527
v -0.007777 -0.011709 0.047794
v -0.007777 -0.011708 0.047793
v 0.006296 -0.011762 0.047793
v 0.006296 -0.012221 0.048189
v 0.006296 -0.012609 0.048527
v -0.007774 -0.011904 0.048527
v -0.008139 -0.011481 0.047794
v -0.008139 -0.011479 0.047793
v 0.006737 -0.011481 0.047793
v 0.006740 -0.011481 0.047794
v 0.007035 -0.012165 0.048527
v 0.006946 -0.012220 0.048527
v -0.008386 -0.011481 0.048527
v -0.008516 -0.011233 0.047794
v -0.008516 -0.011231 0.047793
v 0.007033 -0.011283 0.047793
v 0.007035 -0.011283 0.047794
v 0.007035 -0.011481 0.047956
v 0.007777 -0.011653 0.048527
v -0.008516 -0.011385 0.048527
v -0.009192 -0.010741 0.047794
v -0.009192 -0.010739 0.047793
v 0.007764 -0.010739 0.047793
v 0.007764 -0.010741 0.047794
v 0.007777 -0.011481 0.048388
v 0.008001 -0.011481 0.048527
v -0.009258 -0.010791 0.048527
v -0.009258 -0.010741 0.048163
v -0.009258 -0.010689 0.047794
v -0.009258 -0.010687 0.047793
v 0.007777 -0.010729 0.047793
v 0.007777 -0.010730 0.047794
v 0.007777 -0.010741 0.047802
v 0.008504 -0.011076 0.048527
v -0.009316 -0.010741 0.048527
v -0.010000 -0.010063 0.047794
v -0.010000 -0.010062 0.047793
v 0.008516 -0.010086 0.047793
v 0.008516 -0.010741 0.048278
v 0.008888 -0.010738 0.048527
v -0.010000 -0.010108 0.048527
v -0.010068 -0.009999 0.047794
v -0.010081 -0.009986 0.047793
v 0.008611 -0.009999 0.047793
v 0.009256 -0.010390 0.048527
v -0.010107 -0.009999 0.048527
v -0.010739 -0.009342 0.047794
v -0.010739 -0.009340 0.047793
v 0.009258 -0.009337 0.047793
v 0.009258 -0.009999 0.048249
v 0.009643 -0.009997 0.048527
v -0.010739 -0.009317 0.048527
v -0.010818 -0.009258 0.047794
v -0.010818 -0.009258 0.047793
v 0.009329 -0.009258 0.047793
v 0.009997 -0.009606 0.048527
v -0.010792 -0.009258 0.048527
v -0.011480 -0.008504 0.047794
v -0.011468 -0.008517 0.047793
v 0.009946 -0.008518 0.047793
v 0.010000 -0.009258 0.048300
v 0.010290 -0.009258 0.048527
v -0.011384 -0.008518 0.048527
v -0.012034 -0.007776 0.047794
v -0.012034 -0.007776 0.047793
v -0.011480 -0.008501 0.047793
v 0.010000 -0.008448 0.047793
v 0.010000 -0.008518 0.047835
v 0.010731 -0.008689 0.048527
v -0.011483 -0.008385 0.048527
v -0.011904 -0.007776 0.048527
v -0.012220 -0.007504 0.047794
v -0.012220 -0.007502 0.047793
v 0.010476 -0.007776 0.047793
v 0.010739 -0.008518 0.048431
v 0.010856 -0.008518 0.048527
v -0.012222 -0.007261 0.048527
v -0.012528 -0.007036 0.047794
v -0.012526 -0.007036 0.047793
v 0.010739 -0.007363 0.047793
v 0.010739 -0.007776 0.048012
v 0.011318 -0.007776 0.048500
v 0.011318 -0.007824 0.048527
v -0.012355 -0.007036 0.048527
v -0.012961 -0.006297 0.047794
v -0.012959 -0.006300 0.047793
v 0.010935 -0.007036 0.047793
v 0.011318 -0.007755 0.048489
v 0.011318 0.000443 0.048527
v -0.012750 -0.006297 0.048527
v -0.013336 -0.005557 0.047794
v -0.013336 -0.005557 0.047793
v 0.011318 -0.006293 0.047793
v 0.011318 -0.006323 0.047794
v 0.011318 -0.007036 0.048126
v 0.011318 -0.007400 0.048308
v 0.011318 0.000443 0.047793
v -0.014193 0.000443 0.048527
v -0.012964 -0.005838 0.048527
v -0.013089 -0.005557 0.048527
v -0.013660 -0.004818 0.047793
v -0.014705 0.000443 0.047793
v -0.014221 0.000443 0.048491
v -0.014198 0.000374 0.048527
v -0.013379 -0.004815 0.048527
v -0.013703 -0.004708 0.047794
v -0.013703 -0.004705 0.047793
v -0.014720 0.000370 0.047793
v -0.014720 0.000443 0.047794
v -0.014723 0.000370 0.047794
v -0.014216 -0.000366 0.048527
v -0.013624 -0.004075 0.048527
v -0.013703 -0.004075 0.048342
v -0.013938 -0.004075 0.047794
v -0.013935 -0.004075 0.047793
v -0.014720 0.000367 0.047793
v -0.014687 -0.000376 0.047793
v -0.014687 -0.000370 0.047794
v -0.014216 -0.000370 0.048527
v -0.013703 -0.003788 0.048527
v -0.014170 -0.003335 0.047794
v -0.014167 -0.003337 0.047793
v -0.014616 -0.001112 0.047793
v -0.014616 -0.001112 0.047794
v -0.014177 -0.001112 0.048527
v -0.013820 -0.003345 0.048527
v -0.014358 -0.002593 0.047794
v -0.014358 -0.002593 0.047793
v -0.014506 -0.001852 0.047793
v -0.014509 -0.001852 0.047794
v -0.014101 -0.001848 0.048527
v -0.013823 -0.003335 0.048527
v -0.013981 -0.002593 0.048527
v -0.014442 -0.002175 0.047793
f 1 2 3
f 1 3 4
f 1 4 5
f 1 5 11
f 1 11 18
f 1 18 25
f 1 25 32
f 1 32 39
f 1 39 45
f 1 45 52
f 1 52 59
f 1 59 66
f 1 66 73
f 1 73 79
f 1 79 86
f 1 86 85
f 1 85 93
f 1 93 100
f 1 100 108
f 1 108 114
f 1 114 119
f 1 119 125
f 1 125 130
f 1 130 136
f 1 136 143
f 1 143 150
f 1 150 157
f 1 157 163
f 1 163 172
f 1 172 178
f 1 178 185
f 1 185 193
f 1 193 199
f 1 199 205
f 1 205 207
f 1 207 206
f 1 206 200
f 1 200 194
f 1 194 186
f 1 186 179
f 1 179 174
f 1 174 173
f 1 173 164
f 1 164 158
f 1 158 151
f 1 151 145
f 1 145 144
f 1 144 137
f 1 137 131
f 1 131 126
f 1 126 120
f 1 120 115
f 1 115 109
f 1 109 101
f 1 101 94
f 1 94 87
f 1 87 80
f 1 80 74
f 1 74 67
f 1 67 60
f 1 60 53
f 1 53 46
f 1 46 40
f 1 40 33
f 1 33 26
f 1 26 19
f 1 19 12
f 1 12 6
f 1 6 2
f 2 6 7
f 2 7 3
f 3 7 14
f 3 14 8
f 3 8 10
f 3 10 4
f 4 9 5
f 4 10 15
f 4 15 9
f 5 9 11
f 6 12 13
f 6 13 7
f 7 13 21
f 7 21 14
f 8 14 21
f 8 21 28
f 8 28 34
f 8 34 35
f 8 35 42
f 8 42 49
f 8 49 55
f 8 55 62
f 8 62 69
f 8 69 76
f 8 76 82
f 8 82 89
f 8 89 96
f 8 96 104
f 8 104 111
f 8 111 117
f 8 117 122
f 8 122 128
f 8 128 133
f 8 133 140
f 8 140 139
f 8 139 147
f 8 147 153
f 8 153 160
f 8 160 166
f 8 166 175
f 8 175 181
f 8 181 189
f 8 189 196
f 8 196 202
f 8 202 208
f 8 208 203
f 8 203 197
f 8 197 191
f 8 191 190
f 8 190 182
f 8 182 176
f 8 176 171
f 8 171 167
f 8 167 161
f 8 161 154
f 8 154 148
f 8 148 141
f 8 141 134
f 8 134 129
f 8 129 123
f 8 123 118
f 8 118 112
f 8 112 105
f 8 105 97
f 8 97 90
f 8 90 83
f 8 83 77
f 8 77 70
f 8 70 63
f 8 63 56
f 8 56 50
f 8 50 43
f 8 43 36
f 8 36 29
f 8 29 22
f 8 22 16
f 8 16 15
f 8 15 10
f 9 15 16
f 9 16 17
f 9 17 11
f 11 17 18
f 12 19 20
f 12 20 13
f 13 20 28
f 13 28 21
f 16 22 23
f 16 23 24
f 16 24 18
f 16 18 17
f 18 24 25
f 19 26 27
f 19 27 20
f 20 27 34
f 20 34 28
f 22 29 30
f 22 30 23
f 23 30 31
f 23 31 25
f 23 25 24
f 25 31 32
f 26 33 27
f 27 33 35
f 27 35 34
f 29 36 37
f 29 37 30
f 30 37 38
f 30 38 32
f 30 32 31
f 32 38 39
f 33 40 35
f 35 40 41
f 35 41 42
f 36 43 44
f 36 44 37
f 37 39 38
f 37 44 45
f 37 45 39
f 40 46 47
f 40 47 48
f 40 48 41
f 41 48 42
f 42 48 49
f 43 50 44
f 44 50 51
f 44 51 45
f 45 51 52
f 46 53 54
f 46 54 47
f 47 54 48
f 48 54 55
f 48 55 49
f 50 56 57
f 50 57 58
f 50 58 52
f 50 52 51
f 52 58 59
f 53 60 54
f 54 60 61
f 54 61 62
f 54 62 55
f 56 63 57
f 57 63 64
f 57 64 65
f 57 65 66
f 57 66 58
f 58 66 59
f 60 67 68
f 60 68 61
f 61 68 69
f 61 69 62
f 63 70 71
f 63 71 64
f 64 71 72
f 64 72 65
f 65 72 73
f 65 73 66
f 67 74 75
f 67 75 68
f 68 75 76
f 68 76 69
f 70 77 71
f 71 77 78
f 71 78 79
f 71 79 72
f 72 79 73
f 74 80 75
f 75 81 82
f 75 82 76
f 75 80 81
f 77 83 84
f 77 84 85
f 77 85 86
f 77 86 78
f 78 86 79
f 80 87 88
f 80 88 81
f 81 88 89
f 81 89 82
f 83 90 91
f 83 91 84
f 84 91 92
f 84 92 85
f 85 92 93
f 87 94 95
f 87 95 88
f 88 95 96
f 88 96 89
f 90 97 91
f 91 97 98
f 91 98 99
f 91 99 93
f 91 93 92
f 93 99 100
f 94 101 102
f 94 102 103
f 94 103 95
f 95 103 104
f 95 104 96
f 97 105 106
f 97 106 98
f 98 106 107
f 98 107 99
f 99 107 100
f 100 107 108
f 101 109 110
f 101 110 102
f 102 110 103
f 103 110 111
f 103 111 104
f 105 112 113
f 105 113 106
f 106 113 108
f 106 108 107
f 108 113 114
f 109 115 110
f 110 116 117
f 110 117 111
f 110 115 116
f 112 118 114
f 112 114 113
f 114 118 119
f 115 120 121
f 115 121 116
f 116 121 117
f 117 121 122
f 118 123 124
f 118 124 119
f 119 124 125
f 120 126 127
f 120 127 121
f 121 127 128
f 121 128 122
f 123 129 130
f 123 130 125
f 123 125 124
f 126 131 127
f 127 131 132
f 127 132 128
f 128 132 133
f 129 134 135
f 129 135 130
f 130 135 136
f 131 137 132
f 132 138 139
f 132 139 140
f 132 140 133
f 132 137 138
f 134 141 142
f 134 142 136
f 134 136 135
f 136 142 143
f 137 144 138
f 138 144 145
f 138 145 146
f 138 146 139
f 139 146 147
f 141 148 149
f 141 149 142
f 142 149 143
f 143 149 150
f 145 151 152
f 145 152 146
f 146 152 147
f 147 152 153
f 148 154 155
f 148 155 150
f 148 150 149
f 150 155 156
f 150 156 157
f 151 158 152
f 152 158 159
f 152 159 160
f 152 160 153
f 154 161 162
f 154 162 156
f 154 156 155
f 156 162 170
f 156 170 169
f 156 169 168
f 156 168 167
f 156 167 171
f 156 171 163
f 156 163 157
f 158 164 159
f 159 165 166
f 159 166 160
f 159 164 165
f 161 167 168
f 161 168 169
f 161 169 170
f 161 170 162
f 163 171 176
f 163 176 183
f 163 183 177
f 163 177 172
f 164 173 165
f 165 173 174
f 165 174 175
f 165 175 166
f 172 177 178
f 174 179 180
f 174 180 175
f 175 180 181
f 176 182 183
f 177 183 178
f 178 183 184
f 178 184 185
f 179 186 187
f 179 187 188
f 179 188 180
f 180 188 181
f 181 188 189
f 182 184 183
f 182 190 184
f 184 190 191
f 184 191 192
f 184 192 193
f 184 193 185
f 186 194 195
f 186 195 187
f 187 195 188
f 188 195 196
f 188 196 189
f 191 197 198
f 191 198 192
f 192 198 199
f 192 199 193
f 194 200 195
f 195 201 202
f 195 202 196
f 195 200 201
f 197 203 204
f 197 204 198
f 198 204 205
f 198 205 199
f 200 206 201
f 201 206 207
f 201 207 204
f 201 204 202
f 202 204 208
f 203 208 204
f 204 207 205
