v 0.000371 0.013401 0.031617
v 0.000371 0.012824 0.032355
v 0.001112 0.012822 0.032355
v 0.001852 0.012775 0.032355
v 0.001112 0.013321 0.031618
v 0.001112 0.013321 0.031617
v 0.000371 -0.014136 0.031617
v 0.000371 -0.014781 0.032355
v 0.002593 0.012684 0.032355
v 0.001852 0.013202 0.031617
v 0.001112 -0.014061 0.031617
v 0.001112 -0.014442 0.032007
v 0.001112 -0.014779 0.032353
v 0.000371 -0.014784 0.032353
v 0.001112 -0.014776 0.032355
v 0.003335 0.012549 0.032355
v 0.002593 0.013037 0.031618
v 0.002593 0.013037 0.031617
v 0.001852 -0.013948 0.031617
v 0.001852 -0.014693 0.032353
v 0.001852 -0.014693 0.032355
v 0.004074 0.012369 0.032355
v 0.002864 0.012962 0.031618
v 0.002864 0.012962 0.031617
v 0.002593 -0.013794 0.031617
v 0.002593 -0.014547 0.032353
v 0.002588 -0.014547 0.032355
v 0.004554 0.012223 0.032355
v 0.003335 0.012827 0.031618
v 0.003335 0.012827 0.031617
v 0.002937 -0.013703 0.031617
v 0.003335 -0.014359 0.032353
v 0.003008 -0.014442 0.032353
v 0.003007 -0.014442 0.032355
v 0.004816 0.012143 0.032355
v 0.004074 0.012571 0.031618
v 0.004074 0.012571 0.031617
v 0.003333 -0.013595 0.031617
v 0.003335 -0.013703 0.031720
v 0.004074 -0.014130 0.032353
v 0.004073 -0.014130 0.032355
v 0.003332 -0.014359 0.032355
v 0.005538 0.011873 0.032355
v 0.004816 0.012264 0.031618
v 0.004816 0.012264 0.031617
v 0.004078 -0.013352 0.031617
v 0.004074 -0.013703 0.031946
v 0.004816 -0.013860 0.032353
v 0.004813 -0.013857 0.032355
v 0.006293 0.011539 0.032355
v 0.005557 0.011900 0.031617
v 0.004816 -0.013703 0.032207
v 0.004816 -0.013065 0.031617
v 0.005183 -0.013703 0.032353
v 0.005180 -0.013703 0.032355
v 0.006404 0.011484 0.032355
v 0.006409 0.011481 0.032355
v 0.007038 0.011150 0.032355
v 0.006297 0.011478 0.031617
v 0.005044 -0.012960 0.031617
v 0.005557 -0.013540 0.032353
v 0.005554 -0.013540 0.032355
v 0.007716 0.010739 0.032355
v 0.007777 0.010700 0.032355
v 0.007038 0.010984 0.031617
v 0.005557 -0.012960 0.031830
v 0.005556 -0.012723 0.031617
v 0.006297 -0.013170 0.032353
v 0.006295 -0.013170 0.032355
v 0.008518 0.010179 0.032355
v 0.007363 0.010739 0.031617
v 0.005557 -0.012723 0.031618
v 0.006297 -0.012329 0.031617
v 0.006297 -0.012960 0.032169
v 0.006665 -0.012960 0.032353
v 0.006664 -0.012960 0.032355
v 0.008749 0.009999 0.032355
v 0.007777 0.010410 0.031617
v 0.007038 -0.012745 0.032353
v 0.006479 -0.012221 0.031617
v 0.006480 -0.012221 0.031618
v 0.007035 -0.012745 0.032355
v 0.009259 0.009574 0.032355
v 0.008250 0.009999 0.031618
v 0.008248 0.009999 0.031617
v 0.007038 -0.012221 0.031908
v 0.007777 -0.012260 0.032353
v 0.007775 -0.012260 0.032355
v 0.007034 -0.011876 0.031617
v 0.009602 0.009263 0.032355
v 0.008518 0.009748 0.031617
v 0.007831 -0.012221 0.032353
v 0.007831 -0.012221 0.032355
v 0.007777 -0.012221 0.032321
v 0.007038 -0.011873 0.031617
v 0.009999 0.008874 0.032355
v 0.008995 0.009260 0.031617
v 0.007599 -0.011479 0.031617
v 0.007777 -0.011479 0.031721
v 0.008518 -0.011702 0.032353
v 0.008516 -0.011705 0.032355
v 0.010333 0.008523 0.032355
v 0.009259 0.008967 0.031617
v 0.007777 -0.011349 0.031617
v 0.008518 -0.011479 0.032178
v 0.008787 -0.011479 0.032353
v 0.008787 -0.011479 0.032355
v 0.010740 0.008054 0.032355
v 0.009634 0.008518 0.031617
v 0.008518 -0.010748 0.031617
v 0.009259 -0.011068 0.032353
v 0.009258 -0.011068 0.032355
v 0.010962 0.007781 0.032355
v 0.009999 0.008035 0.031617
v 0.009196 -0.010108 0.031617
v 0.009259 -0.010050 0.031618
v 0.009259 -0.010739 0.032111
v 0.009604 -0.010739 0.032353
v 0.009604 -0.010739 0.032355
v 0.011481 0.007078 0.032355
v 0.010186 0.007770 0.031617
v 0.009259 -0.010047 0.031617
v 0.009308 -0.009997 0.031617
v 0.009999 -0.010337 0.032353
v 0.009999 -0.010337 0.032355
v 0.011509 0.007036 0.032355
v 0.010654 0.007036 0.031617
v 0.009979 -0.009258 0.031617
v 0.009999 -0.009997 0.032121
v 0.010308 -0.009997 0.032353
v 0.010308 -0.009997 0.032355
v 0.011977 0.006297 0.032355
v 0.011481 0.006294 0.031927
v 0.011115 0.006294 0.031617
v 0.009999 -0.009233 0.031617
v 0.010740 -0.009258 0.032209
v 0.010740 -0.009484 0.032353
v 0.010740 -0.009487 0.032355
v 0.012221 0.005858 0.032355
v 0.012221 0.005855 0.032353
v 0.011553 0.005555 0.031617
v 0.011481 0.005682 0.031617
v 0.010558 -0.008516 0.031617
v 0.010921 -0.009258 0.032353
v 0.010921 -0.009258 0.032355
v 0.012381 0.005560 0.032355
v 0.012382 0.005555 0.032353
v 0.012221 0.005555 0.032208
v 0.011927 0.004813 0.031617
v 0.010740 -0.008256 0.031617
v 0.010740 -0.008259 0.031618
v 0.010740 -0.008516 0.031764
v 0.011456 -0.008516 0.032353
v 0.011458 -0.008516 0.032355
v 0.012384 0.005555 0.032355
v 0.012733 0.004813 0.032353
v 0.012221 0.004813 0.031885
v 0.012221 0.004128 0.031617
v 0.011061 -0.007776 0.031617
v 0.011481 -0.008480 0.032353
v 0.011481 -0.008483 0.032355
v 0.012733 0.004815 0.032355
v 0.012962 0.004247 0.032355
v 0.012244 0.004073 0.031617
v 0.011481 -0.007776 0.031973
v 0.011480 -0.007067 0.031617
v 0.011481 -0.007067 0.031618
v 0.011921 -0.007776 0.032353
v 0.011923 -0.007776 0.032355
v 0.013030 0.004076 0.032355
v 0.012962 0.004073 0.032290
v 0.012508 0.003331 0.031617
v 0.011498 -0.007034 0.031617
v 0.011498 -0.007037 0.031618
v 0.012221 -0.007236 0.032353
v 0.012221 -0.007238 0.032355
v 0.013278 0.003334 0.032355
v 0.012962 0.003331 0.032052
v 0.012722 0.002592 0.031617
v 0.011874 -0.006295 0.031617
v 0.012221 -0.007037 0.032257
v 0.012330 -0.007037 0.032353
v 0.012331 -0.007037 0.032355
v 0.013480 0.002594 0.032355
v 0.012962 0.002592 0.031851
v 0.012890 0.001849 0.031617
v 0.012195 -0.005553 0.031617
v 0.012195 -0.005555 0.031618
v 0.012221 -0.006295 0.031933
v 0.012682 -0.006295 0.032355
v 0.013638 0.001858 0.032355
v 0.013638 0.001849 0.032353
v 0.012962 0.001419 0.031617
v 0.012221 -0.005481 0.031617
v 0.012982 -0.005555 0.032353
v 0.012962 -0.005608 0.032355
v 0.013704 0.001447 0.032355
v 0.013704 0.001436 0.032353
v 0.013013 0.001110 0.031617
v 0.012463 -0.004813 0.031617
v 0.012984 -0.005555 0.032355
v 0.012962 -0.004813 0.032092
v 0.013237 -0.004813 0.032355
v 0.013753 0.001132 0.032355
v 0.013704 0.001110 0.032302
v 0.013093 0.000368 0.031617
v 0.012685 -0.004074 0.031617
v 0.013445 -0.004074 0.032355
v 0.012962 -0.004074 0.031886
v 0.013443 -0.004074 0.032353
v 0.013755 0.001113 0.032355
v 0.013754 0.001110 0.032353
v 0.013832 0.000371 0.032355
v 0.013704 0.000368 0.032227
v 0.013130 -0.000371 0.031617
v 0.012861 -0.003332 0.031618
v 0.012859 -0.003332 0.031617
v 0.013449 -0.004057 0.032355
v 0.013610 -0.003332 0.032353
v 0.013866 -0.000369 0.032355
v 0.013865 -0.000371 0.032353
v 0.013704 -0.000371 0.032191
v 0.013126 -0.001111 0.031617
v 0.012962 -0.002755 0.031617
v 0.013611 -0.003332 0.032355
v 0.012991 -0.002590 0.031617
v 0.013704 -0.002774 0.032353
v 0.013704 -0.002786 0.032355
v 0.013862 -0.001108 0.032355
v 0.013861 -0.001111 0.032353
v 0.013704 -0.001111 0.032195
v 0.013080 -0.001850 0.031617
v 0.013704 -0.001850 0.032239
v 0.013704 -0.002592 0.032323
v 0.013734 -0.002592 0.032353
v 0.013735 -0.002592 0.032355
v 0.013819 -0.001847 0.032355
v 0.013817 -0.001850 0.032353
f 1 2 3
f 1 3 4
f 1 4 5
f 1 5 6
f 1 6 10
f 1 10 18
f 1 18 24
f 1 24 30
f 1 30 37
f 1 37 45
f 1 45 51
f 1 51 59
f 1 59 65
f 1 65 71
f 1 71 78
f 1 78 85
f 1 85 91
f 1 91 97
f 1 97 103
f 1 103 109
f 1 109 114
f 1 114 121
f 1 121 127
f 1 127 134
f 1 134 142
f 1 142 141
f 1 141 149
f 1 149 158
f 1 158 164
f 1 164 172
f 1 172 179
f 1 179 186
f 1 186 193
f 1 193 199
f 1 199 206
f 1 206 215
f 1 215 223
f 1 223 232
f 1 232 226
f 1 226 224
f 1 224 217
f 1 217 207
f 1 207 200
f 1 200 194
f 1 194 187
f 1 187 180
f 1 180 173
f 1 173 166
f 1 166 159
f 1 159 150
f 1 150 143
f 1 143 135
f 1 135 128
f 1 128 123
f 1 123 122
f 1 122 115
f 1 115 110
f 1 110 104
f 1 104 98
f 1 98 95
f 1 95 89
f 1 89 80
f 1 80 73
f 1 73 67
f 1 67 60
f 1 60 53
f 1 53 46
f 1 46 38
f 1 38 31
f 1 31 25
f 1 25 19
f 1 19 11
f 1 11 7
f 1 7 14
f 1 14 8
f 1 8 2
f 2 8 15
f 2 15 21
f 2 21 27
f 2 27 34
f 2 34 42
f 2 42 41
f 2 41 49
f 2 49 55
f 2 55 62
f 2 62 69
f 2 69 76
f 2 76 82
f 2 82 88
f 2 88 93
f 2 93 101
f 2 101 107
f 2 107 112
f 2 112 119
f 2 119 125
f 2 125 131
f 2 131 138
f 2 138 145
f 2 145 154
f 2 154 161
f 2 161 169
f 2 169 176
f 2 176 183
f 2 183 190
f 2 190 196
f 2 196 201
f 2 201 203
f 2 203 208
f 2 208 218
f 2 218 225
f 2 225 228
f 2 228 236
f 2 236 237
f 2 237 229
f 2 229 220
f 2 220 213
f 2 213 211
f 2 211 204
f 2 204 197
f 2 197 191
f 2 191 184
f 2 184 177
f 2 177 170
f 2 170 163
f 2 163 162
f 2 162 155
f 2 155 146
f 2 146 139
f 2 139 132
f 2 132 126
f 2 126 120
f 2 120 113
f 2 113 108
f 2 108 102
f 2 102 96
f 2 96 90
f 2 90 83
f 2 83 77
f 2 77 70
f 2 70 64
f 2 64 63
f 2 63 58
f 2 58 57
f 2 57 56
f 2 56 50
f 2 50 43
f 2 43 35
f 2 35 28
f 2 28 22
f 2 22 16
f 2 16 9
f 2 9 4
f 2 4 3
f 4 9 5
f 5 10 6
f 5 9 10
f 7 11 12
f 7 12 13
f 7 13 14
f 8 14 13
f 8 13 15
f 9 16 10
f 10 17 18
f 10 16 17
f 11 19 20
f 11 20 12
f 12 20 13
f 13 21 15
f 13 20 21
f 16 22 17
f 17 23 24
f 17 24 18
f 17 22 23
f 19 25 26
f 19 26 20
f 20 26 21
f 21 26 27
f 22 28 29
f 22 29 23
f 23 29 30
f 23 30 24
f 25 31 32
f 25 32 33
f 25 33 26
f 26 33 34
f 26 34 27
f 28 35 29
f 29 35 36
f 29 36 37
f 29 37 30
f 31 38 39
f 31 39 32
f 32 40 41
f 32 41 42
f 32 42 34
f 32 34 33
f 32 39 40
f 35 43 36
f 36 43 44
f 36 44 45
f 36 45 37
f 38 46 47
f 38 47 40
f 38 40 39
f 40 47 48
f 40 48 41
f 41 48 49
f 43 50 44
f 44 50 45
f 45 50 51
f 46 52 48
f 46 48 47
f 46 53 52
f 48 54 55
f 48 55 49
f 48 52 54
f 50 56 51
f 51 56 57
f 51 57 58
f 51 58 59
f 52 53 54
f 53 60 61
f 53 61 54
f 54 61 62
f 54 62 55
f 58 63 59
f 59 63 64
f 59 64 65
f 60 66 61
f 60 67 66
f 61 68 69
f 61 69 62
f 61 66 68
f 64 70 65
f 65 70 71
f 66 67 72
f 66 72 68
f 67 73 72
f 68 72 74
f 68 74 75
f 68 75 76
f 68 76 69
f 70 77 71
f 71 77 78
f 72 73 74
f 73 79 75
f 73 75 74
f 73 80 81
f 73 81 79
f 75 79 76
f 76 79 82
f 77 83 78
f 78 83 84
f 78 84 85
f 79 81 86
f 79 86 87
f 79 87 88
f 79 88 82
f 80 89 81
f 81 89 86
f 83 90 84
f 84 91 85
f 84 90 91
f 86 89 87
f 87 92 93
f 87 93 88
f 87 89 94
f 87 94 92
f 89 95 94
f 90 96 91
f 91 96 97
f 92 94 98
f 92 98 99
f 92 99 100
f 92 100 101
f 92 101 93
f 94 95 98
f 96 102 97
f 97 102 103
f 98 104 99
f 99 104 100
f 100 104 105
f 100 105 106
f 100 106 101
f 101 106 107
f 102 108 103
f 103 108 109
f 104 110 105
f 105 110 106
f 106 110 111
f 106 111 107
f 107 111 112
f 108 113 109
f 109 113 114
f 110 115 116
f 110 116 117
f 110 117 111
f 111 117 118
f 111 118 119
f 111 119 112
f 113 120 114
f 114 120 121
f 115 122 116
f 116 122 123
f 116 123 124
f 116 124 118
f 116 118 117
f 118 124 125
f 118 125 119
f 120 126 121
f 121 126 127
f 123 128 129
f 123 129 124
f 124 129 130
f 124 130 131
f 124 131 125
f 126 132 127
f 127 132 133
f 127 133 134
f 128 135 136
f 128 136 137
f 128 137 130
f 128 130 129
f 130 137 138
f 130 138 131
f 132 139 140
f 132 140 141
f 132 141 142
f 132 142 133
f 133 142 134
f 135 143 136
f 136 144 137
f 136 143 144
f 137 144 138
f 138 144 145
f 139 146 140
f 140 146 147
f 140 147 148
f 140 148 141
f 141 148 149
f 143 150 151
f 143 151 152
f 143 152 144
f 144 152 153
f 144 153 154
f 144 154 145
f 146 155 147
f 147 155 156
f 147 156 157
f 147 157 149
f 147 149 148
f 149 157 158
f 150 159 151
f 151 159 160
f 151 160 152
f 152 160 153
f 153 160 161
f 153 161 154
f 155 162 156
f 156 163 164
f 156 164 158
f 156 158 157
f 156 162 163
f 159 165 160
f 159 166 167
f 159 167 165
f 160 165 168
f 160 168 161
f 161 168 169
f 163 170 171
f 163 171 164
f 164 171 172
f 165 167 168
f 166 173 174
f 166 174 167
f 167 174 168
f 168 174 175
f 168 175 176
f 168 176 169
f 170 177 178
f 170 178 172
f 170 172 171
f 172 178 179
f 173 180 174
f 174 181 175
f 174 180 181
f 175 181 182
f 175 182 176
f 176 182 183
f 177 184 185
f 177 185 179
f 177 179 178
f 179 185 186
f 180 187 188
f 180 188 189
f 180 189 182
f 180 182 181
f 182 189 190
f 182 190 183
f 184 191 192
f 184 192 186
f 184 186 185
f 186 192 193
f 187 194 188
f 188 194 195
f 188 195 190
f 188 190 189
f 190 195 196
f 191 197 192
f 192 197 198
f 192 198 199
f 192 199 193
f 194 200 195
f 195 201 196
f 195 200 202
f 195 202 203
f 195 203 201
f 197 204 198
f 198 204 205
f 198 205 199
f 199 205 206
f 200 207 202
f 202 207 203
f 203 207 209
f 203 209 210
f 203 210 208
f 204 211 212
f 204 212 205
f 205 212 213
f 205 213 206
f 206 213 214
f 206 214 215
f 207 216 209
f 207 217 216
f 208 210 218
f 209 216 210
f 210 216 219
f 210 219 218
f 211 213 212
f 213 220 221
f 213 221 222
f 213 222 215
f 213 215 214
f 215 222 223
f 216 217 224
f 216 224 219
f 218 219 225
f 219 224 226
f 219 226 227
f 219 227 228
f 219 228 225
f 220 229 230
f 220 230 221
f 221 230 222
f 222 230 231
f 222 231 223
f 223 231 233
f 223 233 232
f 226 232 234
f 226 234 227
f 227 234 235
f 227 235 228
f 228 235 236
f 229 237 238
f 229 238 230
f 230 238 231
f 231 238 233
f 232 233 235
f 232 235 234
f 233 238 235
f 235 238 236
f 236 238 237
