v 0.011318 0.000443 0.048527
v 0.013330 0.000443 0.048527
v 0.011318 0.000443 0.047793
v 0.011318 -0.007824 0.048527
v 0.013337 0.000373 0.048527
v 0.013302 0.000443 0.048473
v 0.012829 0.000443 0.047793
v 0.011318 -0.006292 0.047793
v 0.011318 -0.007776 0.048500
v 0.011349 -0.007776 0.048527
v 0.013374 -0.000368 0.048527
v 0.012886 0.000443 0.047794
v 0.012887 0.000370 0.047793
v 0.011332 -0.006296 0.047793
v 0.011318 -0.006321 0.047794
v 0.011318 -0.007755 0.048489
v 0.011480 -0.007555 0.048527
v 0.011318 -0.007401 0.048308
v 0.013374 -0.000371 0.048527
v 0.013370 -0.001108 0.048527
v 0.012849 -0.000371 0.047793
v 0.011482 -0.005971 0.047793
v 0.012142 -0.006295 0.048527
v 0.011775 -0.007033 0.048527
v 0.011774 -0.007037 0.048527
v 0.011482 -0.007037 0.048268
v 0.011318 -0.007037 0.048126
v 0.013324 -0.001849 0.048527
v 0.012849 -0.000375 0.047793
v 0.011667 -0.005555 0.047793
v 0.012222 -0.006110 0.048527
v 0.013238 -0.002588 0.048527
v 0.012768 -0.001111 0.047793
v 0.012222 -0.005555 0.048309
v 0.011948 -0.004815 0.047793
v 0.012455 -0.005555 0.048527
v 0.013237 -0.002593 0.048527
v 0.012642 -0.001852 0.047793
v 0.012457 -0.005551 0.048527
v 0.012179 -0.004073 0.047793
v 0.012720 -0.004812 0.048527
v 0.013109 -0.003327 0.048527
v 0.013108 -0.003334 0.048527
v 0.012361 -0.003334 0.047793
v 0.012222 -0.003900 0.047793
v 0.012936 -0.004073 0.048527
v 0.012961 -0.003969 0.048527
f 1 2 6
f 1 6 12
f 1 12 7
f 1 7 3
f 1 3 8
f 1 8 15
f 1 15 27
f 1 27 18
f 1 18 16
f 1 16 9
f 1 9 4
f 1 4 10
f 1 10 17
f 1 17 25
f 1 25 24
f 1 24 23
f 1 23 31
f 1 31 36
f 1 36 39
f 1 39 41
f 1 41 46
f 1 46 47
f 1 47 43
f 1 43 42
f 1 42 37
f 1 37 32
f 1 32 28
f 1 28 20
f 1 20 19
f 1 19 11
f 1 11 5
f 1 5 2
f 2 5 6
f 3 7 13
f 3 13 21
f 3 21 29
f 3 29 33
f 3 33 38
f 3 38 44
f 3 44 45
f 3 45 40
f 3 40 35
f 3 35 30
f 3 30 22
f 3 22 14
f 3 14 8
f 4 9 10
f 5 11 6
f 6 11 12
f 7 12 13
f 8 14 15
f 9 16 10
f 10 16 18
f 10 18 17
f 11 19 13
f 11 13 12
f 13 19 20
f 13 20 21
f 14 22 23
f 14 23 24
f 14 24 25
f 14 25 26
f 14 26 27
f 14 27 15
f 17 18 26
f 17 26 25
f 18 27 26
f 20 28 21
f 21 28 29
f 22 30 23
f 23 30 31
f 28 32 33
f 28 33 29
f 30 34 31
f 30 35 34
f 31 34 36
f 32 37 33
f 33 37 38
f 34 35 39
f 34 39 36
f 35 40 41
f 35 41 39
f 37 42 38
f 38 42 43
f 38 43 44
f 40 45 46
f 40 46 41
f 43 47 44
f 44 47 46
f 44 46 45
