v -0.013254 -0.000367 0.028676
v -0.013008 0.000368 0.029410
v -0.013003 0.001111 0.029410
v -0.013216 0.000371 0.028676
v -0.013248 -0.001108 0.028676
v -0.013248 -0.001111 0.028676
v -0.012970 -0.000376 0.029410
v -0.012962 0.001766 0.029410
v -0.012957 0.001849 0.029410
v -0.013137 0.001111 0.028676
v -0.013202 -0.001849 0.028676
v -0.013202 -0.001852 0.028676
v -0.012888 -0.001111 0.029410
v -0.012867 0.002590 0.029410
v -0.013014 0.001849 0.028676
v -0.013014 0.001849 0.028676
v -0.013115 -0.002590 0.028676
v -0.013115 -0.002592 0.028676
v -0.012766 -0.001852 0.029410
v -0.012733 0.003331 0.029410
v -0.012962 0.002085 0.028676
v -0.012984 -0.003330 0.028676
v -0.012984 -0.003333 0.028676
v -0.012962 -0.003433 0.028676
v -0.012597 -0.002592 0.029410
v -0.012848 0.002593 0.028676
v -0.012556 0.004072 0.029410
v -0.012812 -0.004074 0.028676
v -0.012379 -0.003333 0.029410
v -0.012635 0.003334 0.028676
v -0.012332 0.004812 0.029410
v -0.012591 -0.004812 0.028676
v -0.012591 -0.004815 0.028676
v -0.012376 -0.003341 0.029410
v -0.012373 0.004072 0.028676
v -0.012220 0.005123 0.029410
v -0.012327 -0.005553 0.028676
v -0.012220 -0.003777 0.029410
v -0.012060 0.005553 0.029410
v -0.012220 0.004441 0.028676
v -0.012220 -0.005802 0.028676
v -0.012220 -0.005802 0.028676
v -0.012220 -0.005555 0.028774
v -0.012111 -0.004074 0.029410
v -0.011735 0.006294 0.029410
v -0.012062 0.004815 0.028676
v -0.012008 -0.006296 0.028676
v -0.012008 -0.006296 0.028676
v -0.011536 -0.005553 0.029410
v -0.011479 0.006801 0.029410
v -0.011692 0.005553 0.028676
v -0.011637 -0.007034 0.028676
v -0.011637 -0.007037 0.028676
v -0.011479 -0.006296 0.029155
v -0.011195 -0.006296 0.029410
v -0.011356 0.007035 0.029410
v -0.011482 0.005925 0.028676
v -0.011479 -0.007311 0.028676
v -0.011479 -0.007311 0.028676
v -0.011479 -0.007037 0.028815
v -0.010797 -0.007037 0.029410
v -0.010915 0.007775 0.029410
v -0.011258 0.006297 0.028676
v -0.011206 -0.007778 0.028676
v -0.011206 -0.007778 0.028676
v -0.010740 -0.007131 0.029410
v -0.010740 0.008039 0.029410
v -0.010759 0.007035 0.028676
v -0.011201 -0.007786 0.028676
v -0.010740 -0.008477 0.028676
v -0.010740 -0.007778 0.029071
v -0.010331 -0.007778 0.029410
v -0.010407 0.008510 0.029410
v -0.010740 0.007059 0.028676
v -0.010710 -0.008518 0.028676
v -0.010710 -0.008518 0.028676
v -0.009998 -0.008244 0.029410
v -0.009998 0.009035 0.029410
v -0.010173 0.007775 0.028676
v -0.010137 -0.009259 0.028676
v -0.010137 -0.009259 0.028676
v -0.009998 -0.008518 0.029248
v -0.009791 -0.008518 0.029410
v -0.009816 0.009254 0.029410
v -0.009998 0.007975 0.028676
v -0.009998 -0.009420 0.028676
v -0.009998 -0.009420 0.028676
v -0.009998 -0.009259 0.028784
v -0.009780 -0.008532 0.029410
v -0.009257 0.009257 0.028990
v -0.009257 0.009870 0.029410
v -0.008829 0.009257 0.028676
v -0.009475 -0.010000 0.028676
v -0.009475 -0.010000 0.028676
v -0.009257 -0.009259 0.029343
v -0.009257 -0.009154 0.029410
v -0.009131 0.009997 0.029410
v -0.008518 0.009576 0.028676
v -0.009257 -0.010222 0.028676
v -0.009257 -0.010000 0.028835
v -0.009164 -0.009259 0.029410
v -0.008518 0.009997 0.028979
v -0.008518 0.010580 0.029410
v -0.008065 0.009997 0.028676
v -0.008709 -0.010740 0.028676
v -0.008709 -0.010740 0.028676
v -0.008518 -0.010000 0.029354
v -0.008518 -0.009919 0.029410
v -0.007776 0.010253 0.028676
v -0.008333 0.010738 0.029410
v -0.008518 -0.010907 0.028676
v -0.008518 -0.010740 0.028805
v -0.008518 -0.010907 0.028676
v -0.008433 -0.010000 0.029410
v -0.007776 0.010738 0.029052
v -0.007160 0.010738 0.028676
v -0.007776 0.011193 0.029410
v -0.007809 -0.011481 0.028676
v -0.007776 -0.010740 0.029282
v -0.007776 -0.010571 0.029410
v -0.007035 0.010833 0.028676
v -0.007386 0.011479 0.029410
v -0.007776 -0.011481 0.028696
v -0.007561 -0.010743 0.029410
v -0.007035 -0.012019 0.028676
v -0.007035 -0.012019 0.028676
v -0.006296 0.011332 0.028676
v -0.007035 0.011479 0.029206
v -0.007035 0.011726 0.029410
v -0.007035 -0.011481 0.029127
v -0.007035 -0.011134 0.029410
v -0.006713 -0.012222 0.028676
v -0.006713 -0.012222 0.028676
v -0.006517 -0.011481 0.029410
v -0.006296 0.011479 0.028802
v -0.006045 0.011479 0.028676
v -0.006296 0.012186 0.029410
v -0.006296 -0.012472 0.028676
v -0.006296 -0.012222 0.028894
v -0.006296 -0.011620 0.029410
v -0.006239 0.012220 0.029410
v -0.005554 0.011759 0.028676
v -0.005554 -0.012863 0.028676
v -0.005554 -0.012222 0.029250
v -0.005554 -0.012039 0.029410
v -0.005554 0.012220 0.029083
v -0.005554 0.012586 0.029410
v -0.004813 0.012128 0.028676
v -0.004813 -0.012400 0.029410
v -0.005186 -0.012222 0.029410
v -0.005339 -0.012963 0.028676
v -0.005339 -0.012963 0.028676
v -0.004815 0.012930 0.029410
v -0.004597 0.012220 0.028676
v -0.004813 -0.012963 0.028894
v -0.004074 -0.012702 0.029410
v -0.004813 -0.013199 0.028676
v -0.004739 0.012960 0.029410
v -0.004074 0.012439 0.028676
v -0.003335 -0.012957 0.029410
v -0.004074 -0.012963 0.029168
v -0.003332 -0.012963 0.029407
v -0.004074 -0.013484 0.028676
v -0.004074 -0.013484 0.028676
v -0.004074 0.013221 0.029410
v -0.004074 0.012960 0.029165
v -0.003332 0.012700 0.028676
v -0.003319 -0.012963 0.029410
v -0.003400 -0.013703 0.028676
v -0.003332 -0.013703 0.028697
v -0.003335 0.013465 0.029410
v -0.002591 0.012911 0.028676
v -0.002591 -0.013165 0.029410
v -0.003332 -0.013723 0.028676
v -0.003332 -0.013723 0.028676
v -0.002591 -0.013920 0.028676
v -0.002591 -0.013703 0.028888
v -0.002593 0.013665 0.029410
v -0.001852 0.013077 0.028676
v -0.001852 -0.013326 0.029410
v -0.002591 -0.013920 0.028676
v -0.001852 -0.014072 0.028676
v -0.001852 -0.013703 0.029041
v -0.002427 0.013701 0.029410
v -0.001110 0.013196 0.028676
v -0.001852 0.013823 0.029410
v -0.001110 -0.013445 0.029410
v -0.001852 -0.014072 0.028676
v -0.001110 -0.014186 0.028676
v -0.001110 -0.013703 0.029156
v -0.001118 0.013937 0.029410
v -0.000369 0.013277 0.028676
v -0.000374 -0.013523 0.029410
v -0.001110 -0.014186 0.028676
v -0.000369 -0.014258 0.028676
v -0.000369 -0.013703 0.029232
v -0.000374 0.014012 0.029410
v 0.000370 0.013313 0.028676
v 0.000365 -0.013559 0.029410
v 0.000370 -0.013703 0.029268
v -0.000369 -0.014258 0.028676
v 0.000370 -0.014294 0.028676
v 0.000370 0.014048 0.029410
v 0.001109 0.013310 0.028676
v 0.000370 -0.013559 0.029410
v 0.001109 -0.013703 0.029263
v 0.001109 -0.013556 0.029410
v 0.001109 -0.014289 0.028676
v 0.001109 -0.014289 0.028676
v 0.001109 0.014042 0.029410
v 0.001851 0.013998 0.029410
v 0.001851 0.013263 0.028676
v 0.001851 -0.014247 0.028676
v 0.001843 -0.013512 0.029410
v 0.001851 -0.013703 0.029219
v 0.001851 -0.014247 0.028676
v 0.002592 0.013918 0.029410
v 0.002592 0.013177 0.028676
v 0.002590 0.013177 0.028676
v 0.002592 -0.014164 0.028676
v 0.002592 -0.013426 0.029410
v 0.002592 -0.013703 0.029135
v 0.002592 -0.014164 0.028676
v 0.003331 0.013796 0.029410
v 0.003331 0.013046 0.028676
v 0.003331 -0.014045 0.028676
v 0.003331 -0.013298 0.029410
v 0.003331 -0.013703 0.029013
v 0.003331 -0.014045 0.028676
v 0.004073 0.013632 0.029410
v 0.004073 0.012874 0.028676
v 0.004073 -0.013884 0.028676
v 0.004073 -0.013129 0.029410
v 0.004073 -0.013703 0.028854
v 0.004073 -0.013884 0.028676
v 0.004812 0.013427 0.029410
v 0.004815 0.012655 0.028676
v 0.004812 0.012655 0.028676
v 0.004741 -0.013703 0.028676
v 0.004654 -0.012963 0.029410
v 0.004741 -0.013703 0.028676
v 0.005551 0.013177 0.029410
v 0.005553 0.012392 0.028676
v 0.004815 -0.013681 0.028676
v 0.004815 -0.012963 0.029366
v 0.004815 -0.012916 0.029410
v 0.004815 -0.013681 0.028676
v 0.006096 0.012960 0.029410
v 0.005960 0.012220 0.028676
v 0.006295 0.012880 0.029410
v 0.005553 -0.013437 0.028676
v 0.005532 -0.012663 0.029410
v 0.005553 -0.012963 0.029123
v 0.005553 -0.013437 0.028676
v 0.006295 0.012075 0.028676
v 0.007034 0.012533 0.029410
v 0.006295 -0.013146 0.028676
v 0.005553 -0.012655 0.029410
v 0.006295 -0.012963 0.028847
v 0.006295 -0.013146 0.028676
v 0.007037 0.012220 0.029132
v 0.007037 0.011706 0.028676
v 0.007620 0.012220 0.029410
v 0.006704 -0.012963 0.028676
v 0.006295 -0.012347 0.029410
v 0.006704 -0.012963 0.028676
v 0.007435 0.011479 0.028676
v 0.007775 0.012134 0.029410
v 0.007037 -0.012807 0.028676
v 0.006557 -0.012222 0.029410
v 0.007037 -0.012807 0.028676
v 0.007775 0.011479 0.028848
v 0.007775 0.011276 0.028676
v 0.008514 0.011676 0.029410
v 0.007775 -0.012416 0.028676
v 0.007037 -0.012222 0.029201
v 0.007037 -0.011983 0.029410
v 0.007775 -0.012416 0.028676
v 0.008517 0.011479 0.029248
v 0.008517 0.010785 0.028676
v 0.008803 0.011476 0.029410
v 0.008105 -0.012222 0.028676
v 0.007775 -0.012222 0.028847
v 0.007773 -0.011570 0.029410
v 0.008105 -0.012222 0.028676
v 0.009259 0.011149 0.029410
v 0.008580 0.010738 0.028676
v 0.008517 -0.011967 0.028676
v 0.007915 -0.011481 0.029410
v 0.008517 -0.011967 0.028676
v 0.009777 0.010738 0.029410
v 0.009259 0.010738 0.029084
v 0.009259 0.010214 0.028676
v 0.009226 -0.011481 0.028676
v 0.008517 -0.011481 0.029085
v 0.008517 -0.011084 0.029410
v 0.009226 -0.011481 0.028676
v 0.009998 0.010550 0.029410
v 0.009512 0.009997 0.028676
v 0.009259 -0.011456 0.028676
v 0.009259 -0.010740 0.029249
v 0.008986 -0.010743 0.029410
v 0.009259 -0.011456 0.028676
v 0.010600 0.009997 0.029410
v 0.009998 0.009997 0.028996
v 0.009998 0.009559 0.028676
v 0.009998 -0.010874 0.028676
v 0.009998 -0.010740 0.028780
v 0.009272 -0.010521 0.029410
v 0.009259 -0.010532 0.029410
v 0.009998 -0.010874 0.028676
v 0.010739 0.009862 0.029410
v 0.010306 0.009257 0.028676
v 0.010156 -0.010740 0.028676
v 0.009888 -0.010000 0.029410
v 0.010156 -0.010740 0.028676
v 0.011314 0.009257 0.029410
v 0.010739 0.009257 0.028986
v 0.010739 0.008799 0.028676
v 0.010739 -0.010208 0.028676
v 0.009998 -0.010000 0.029337
v 0.010014 -0.009883 0.029410
v 0.010736 -0.010208 0.028676
v 0.011481 0.009068 0.029410
v 0.010987 0.008516 0.028676
v 0.010941 -0.010000 0.028676
v 0.010739 -0.010000 0.028828
v 0.010652 -0.009259 0.029410
v 0.010938 -0.010000 0.028676
v 0.011939 0.008513 0.029410
v 0.011481 0.008516 0.029053
v 0.011481 0.007906 0.028676
v 0.011478 -0.009331 0.028676
v 0.011481 -0.009328 0.028676
v 0.011309 -0.008518 0.029410
v 0.010739 -0.009165 0.029410
v 0.012220 0.008139 0.029410
v 0.011579 0.007775 0.028676
v 0.011533 -0.009256 0.028676
v 0.011533 -0.009259 0.028676
v 0.011884 -0.007778 0.029410
v 0.011481 -0.008305 0.029410
v 0.012479 0.007775 0.029410
v 0.012220 0.007775 0.029196
v 0.012094 0.007035 0.028676
v 0.012040 -0.008518 0.028676
v 0.012040 -0.008518 0.028676
v 0.012220 -0.007286 0.029410
v 0.012961 0.007032 0.029410
v 0.012220 0.006832 0.028676
v 0.012220 0.006829 0.028676
v 0.012220 -0.008224 0.028676
v 0.012220 -0.008224 0.028676
v 0.012386 -0.007037 0.029410
v 0.013376 0.006294 0.029410
v 0.012961 0.006294 0.029044
v 0.012541 0.006294 0.028676
v 0.012487 -0.007775 0.028676
v 0.012487 -0.007778 0.028676
v 0.012822 -0.006296 0.029410
v 0.013703 0.005634 0.029410
v 0.012929 0.005556 0.028676
v 0.012877 -0.007037 0.028676
v 0.012877 -0.007037 0.028676
v 0.012961 -0.006027 0.029410
v 0.013741 0.005553 0.029410
v 0.013703 0.005553 0.029376
v 0.012961 0.005486 0.028676
v 0.012961 0.005484 0.028676
v 0.012961 -0.006851 0.028676
v 0.012961 -0.006851 0.028676
v 0.013201 -0.005555 0.029410
v 0.014000 0.004812 0.029410
v 0.013550 0.004069 0.028676
v 0.013264 0.004812 0.028676
v 0.013212 -0.006296 0.028676
v 0.013212 -0.006293 0.028676
v 0.013528 -0.004815 0.029410
v 0.014199 0.004072 0.029410
v 0.013787 0.003331 0.028676
v 0.013703 0.003600 0.028676
v 0.013703 0.003597 0.028676
v 0.013501 -0.005555 0.028676
v 0.013501 -0.005553 0.028676
v 0.013703 -0.004357 0.029410
v 0.014360 0.003311 0.029410
v 0.013981 0.002593 0.028676
v 0.013703 -0.004950 0.028676
v 0.013809 -0.004074 0.029410
v 0.013703 -0.004948 0.028676
v 0.014444 0.002782 0.029410
v 0.014134 0.001852 0.028676
v 0.013746 -0.004815 0.028676
v 0.014041 -0.003333 0.029410
v 0.013746 -0.004812 0.028676
v 0.014474 0.002590 0.029410
v 0.014248 0.001109 0.028676
v 0.014245 0.001111 0.028676
v 0.013948 -0.004074 0.028676
v 0.014232 -0.002592 0.029410
v 0.013948 -0.004071 0.028676
v 0.014553 0.001849 0.029410
v 0.014319 0.000371 0.028676
v 0.014106 -0.003333 0.028676
v 0.014384 -0.001849 0.029410
v 0.014106 -0.003330 0.028676
v 0.014594 0.001114 0.029410
v 0.014354 -0.000367 0.028676
v 0.014226 -0.002592 0.028676
v 0.014444 -0.001449 0.029410
v 0.014226 -0.002590 0.028676
v 0.014600 0.000368 0.029410
v 0.014349 -0.001108 0.028676
v 0.014308 -0.001852 0.028676
v 0.014494 -0.001108 0.029410
v 0.014308 -0.001849 0.028676
v 0.014564 -0.000367 0.029410
v 0.014349 -0.001111 0.028676
f 1 2 3
f 1 3 4
f 1 4 10
f 1 10 16
f 1 16 21
f 1 21 26
f 1 26 30
f 1 30 35
f 1 35 40
f 1 40 46
f 1 46 51
f 1 51 57
f 1 57 63
f 1 63 68
f 1 68 74
f 1 74 79
f 1 79 85
f 1 85 92
f 1 92 98
f 1 98 104
f 1 104 109
f 1 109 116
f 1 116 121
f 1 121 127
f 1 127 136
f 1 136 142
f 1 142 148
f 1 148 154
f 1 154 159
f 1 159 167
f 1 167 172
f 1 172 179
f 1 179 185
f 1 185 192
f 1 192 198
f 1 198 204
f 1 204 212
f 1 212 219
f 1 219 225
f 1 225 231
f 1 231 238
f 1 238 243
f 1 243 249
f 1 249 255
f 1 255 262
f 1 262 267
f 1 267 273
f 1 273 280
f 1 280 287
f 1 287 293
f 1 293 299
f 1 299 306
f 1 306 313
f 1 313 319
f 1 319 325
f 1 325 332
f 1 332 338
f 1 338 345
f 1 345 351
f 1 351 357
f 1 357 362
f 1 362 369
f 1 369 375
f 1 375 374
f 1 374 382
f 1 382 380
f 1 380 387
f 1 387 392
f 1 392 398
f 1 398 403
f 1 403 408
f 1 408 413
f 1 413 416
f 1 416 411
f 1 411 406
f 1 406 401
f 1 401 395
f 1 395 390
f 1 390 384
f 1 384 377
f 1 377 370
f 1 370 363
f 1 363 358
f 1 358 352
f 1 352 346
f 1 346 339
f 1 339 333
f 1 333 329
f 1 329 323
f 1 323 316
f 1 316 311
f 1 311 303
f 1 303 297
f 1 297 290
f 1 290 285
f 1 285 278
f 1 278 271
f 1 271 266
f 1 266 260
f 1 260 254
f 1 254 247
f 1 247 241
f 1 241 235
f 1 235 229
f 1 229 223
f 1 223 216
f 1 216 208
f 1 208 202
f 1 202 201
f 1 201 194
f 1 194 188
f 1 188 181
f 1 181 174
f 1 174 169
f 1 169 163
f 1 163 157
f 1 157 151
f 1 151 143
f 1 143 138
f 1 138 132
f 1 132 125
f 1 125 118
f 1 118 111
f 1 111 105
f 1 105 99
f 1 99 93
f 1 93 86
f 1 86 80
f 1 80 75
f 1 75 70
f 1 70 69
f 1 69 64
f 1 64 58
f 1 58 52
f 1 52 47
f 1 47 41
f 1 41 37
f 1 37 32
f 1 32 28
f 1 28 24
f 1 24 22
f 1 22 17
f 1 17 11
f 1 11 5
f 1 5 6
f 1 6 2
f 2 6 7
f 2 7 13
f 2 13 19
f 2 19 25
f 2 25 29
f 2 29 34
f 2 34 38
f 2 38 44
f 2 44 49
f 2 49 55
f 2 55 61
f 2 61 66
f 2 66 72
f 2 72 77
f 2 77 83
f 2 83 89
f 2 89 96
f 2 96 101
f 2 101 108
f 2 108 114
f 2 114 120
f 2 120 124
f 2 124 131
f 2 131 134
f 2 134 140
f 2 140 145
f 2 145 150
f 2 150 149
f 2 149 156
f 2 156 160
f 2 160 168
f 2 168 173
f 2 173 180
f 2 180 187
f 2 187 193
f 2 193 199
f 2 199 205
f 2 205 207
f 2 207 214
f 2 214 221
f 2 221 227
f 2 227 233
f 2 233 240
f 2 240 246
f 2 246 252
f 2 252 258
f 2 258 265
f 2 265 270
f 2 270 277
f 2 277 284
f 2 284 289
f 2 289 296
f 2 296 302
f 2 302 310
f 2 310 309
f 2 309 315
f 2 315 322
f 2 322 328
f 2 328 336
f 2 336 335
f 2 335 342
f 2 342 341
f 2 341 348
f 2 348 354
f 2 354 360
f 2 360 365
f 2 365 372
f 2 372 378
f 2 378 385
f 2 385 389
f 2 389 394
f 2 394 400
f 2 400 405
f 2 405 410
f 2 410 415
f 2 415 417
f 2 417 412
f 2 412 407
f 2 407 402
f 2 402 396
f 2 396 391
f 2 391 386
f 2 386 379
f 2 379 373
f 2 373 366
f 2 366 361
f 2 361 355
f 2 355 349
f 2 349 343
f 2 343 337
f 2 337 330
f 2 330 324
f 2 324 317
f 2 317 312
f 2 312 304
f 2 304 298
f 2 298 291
f 2 291 286
f 2 286 281
f 2 281 274
f 2 274 268
f 2 268 263
f 2 263 256
f 2 256 250
f 2 250 248
f 2 248 242
f 2 242 236
f 2 236 230
f 2 230 224
f 2 224 217
f 2 217 211
f 2 211 210
f 2 210 203
f 2 203 197
f 2 197 191
f 2 191 186
f 2 186 184
f 2 184 178
f 2 178 171
f 2 171 165
f 2 165 158
f 2 158 153
f 2 153 147
f 2 147 141
f 2 141 137
f 2 137 129
f 2 129 122
f 2 122 117
f 2 117 110
f 2 110 103
f 2 103 97
f 2 97 91
f 2 91 84
f 2 84 78
f 2 78 73
f 2 73 67
f 2 67 62
f 2 62 56
f 2 56 50
f 2 50 45
f 2 45 39
f 2 39 36
f 2 36 31
f 2 31 27
f 2 27 20
f 2 20 14
f 2 14 9
f 2 9 8
f 2 8 3
f 3 8 4
f 4 8 9
f 4 9 10
f 5 11 12
f 5 12 6
f 6 12 7
f 7 12 13
f 9 14 10
f 10 15 16
f 10 14 15
f 11 17 18
f 11 18 12
f 12 18 13
f 13 18 19
f 14 20 15
f 15 20 16
f 16 20 21
f 17 22 23
f 17 23 18
f 18 23 19
f 19 23 24
f 19 24 25
f 20 26 21
f 20 27 26
f 22 24 23
f 24 28 25
f 25 28 29
f 26 27 30
f 27 31 30
f 28 32 33
f 28 33 29
f 29 33 34
f 30 31 35
f 31 36 35
f 32 37 33
f 33 38 34
f 33 37 38
f 35 36 39
f 35 39 40
f 37 41 42
f 37 42 43
f 37 43 44
f 37 44 38
f 39 45 46
f 39 46 40
f 41 47 48
f 41 48 42
f 42 48 49
f 42 49 43
f 43 49 44
f 45 50 51
f 45 51 46
f 47 52 53
f 47 53 48
f 48 53 54
f 48 54 49
f 49 54 55
f 50 56 51
f 51 56 57
f 52 58 53
f 53 58 59
f 53 59 60
f 53 60 55
f 53 55 54
f 55 60 61
f 56 62 57
f 57 62 63
f 58 64 65
f 58 65 59
f 59 65 61
f 59 61 60
f 61 65 66
f 62 67 63
f 63 67 68
f 64 69 65
f 65 69 70
f 65 70 71
f 65 71 66
f 66 71 72
f 67 73 68
f 68 73 74
f 70 75 76
f 70 76 72
f 70 72 71
f 72 76 77
f 73 78 74
f 74 78 79
f 75 80 81
f 75 81 76
f 76 81 82
f 76 82 77
f 77 82 83
f 78 84 79
f 79 84 85
f 80 86 87
f 80 87 81
f 81 87 88
f 81 88 89
f 81 89 82
f 82 89 83
f 84 90 85
f 84 91 90
f 85 90 92
f 86 93 94
f 86 94 87
f 87 94 95
f 87 95 88
f 88 95 96
f 88 96 89
f 90 91 92
f 91 97 98
f 91 98 92
f 93 99 94
f 94 100 101
f 94 101 95
f 94 99 100
f 95 101 96
f 97 102 98
f 97 103 102
f 98 102 104
f 99 105 106
f 99 106 107
f 99 107 100
f 100 107 108
f 100 108 101
f 102 103 104
f 103 109 104
f 103 110 109
f 105 111 113
f 105 113 106
f 106 112 107
f 106 113 112
f 107 114 108
f 107 112 114
f 109 110 115
f 109 115 116
f 110 117 115
f 111 118 113
f 112 113 119
f 112 119 120
f 112 120 114
f 113 118 119
f 115 117 116
f 116 117 121
f 117 122 121
f 118 123 124
f 118 124 119
f 118 125 126
f 118 126 123
f 119 124 120
f 121 122 128
f 121 128 127
f 122 129 128
f 123 130 131
f 123 131 124
f 123 126 130
f 125 132 133
f 125 133 126
f 126 133 134
f 126 134 130
f 127 128 129
f 127 129 135
f 127 135 136
f 129 137 135
f 130 134 131
f 132 138 133
f 133 138 139
f 133 139 140
f 133 140 134
f 135 137 136
f 136 137 141
f 136 141 142
f 138 143 144
f 138 144 145
f 138 145 139
f 139 145 140
f 141 146 142
f 141 147 146
f 142 146 148
f 143 149 150
f 143 150 144
f 143 151 152
f 143 152 149
f 144 150 145
f 146 147 148
f 147 153 148
f 148 153 154
f 149 152 155
f 149 155 156
f 151 157 152
f 152 157 155
f 153 158 159
f 153 159 154
f 155 157 156
f 156 157 161
f 156 161 162
f 156 162 160
f 157 163 164
f 157 164 161
f 158 165 166
f 158 166 159
f 159 166 167
f 160 162 168
f 161 164 162
f 162 164 169
f 162 169 170
f 162 170 168
f 163 169 164
f 165 167 166
f 165 171 167
f 167 171 172
f 168 170 173
f 169 174 175
f 169 175 170
f 170 175 176
f 170 176 177
f 170 177 173
f 171 178 172
f 172 178 179
f 173 177 180
f 174 181 176
f 174 176 175
f 176 181 188
f 176 188 182
f 176 182 183
f 176 183 180
f 176 180 177
f 178 184 179
f 179 184 186
f 179 186 185
f 180 183 187
f 182 188 194
f 182 194 189
f 182 189 190
f 182 190 183
f 183 190 187
f 185 186 191
f 185 191 192
f 187 190 193
f 189 194 201
f 189 201 195
f 189 195 196
f 189 196 193
f 189 193 190
f 191 197 192
f 192 197 198
f 193 196 200
f 193 200 199
f 195 201 202
f 195 202 200
f 195 200 196
f 197 203 198
f 198 203 204
f 199 200 205
f 200 202 206
f 200 206 207
f 200 207 205
f 202 208 209
f 202 209 206
f 203 210 204
f 204 210 211
f 204 211 212
f 206 209 213
f 206 213 207
f 207 213 215
f 207 215 214
f 208 216 213
f 208 213 209
f 211 217 212
f 212 218 219
f 212 217 218
f 213 220 215
f 213 216 223
f 213 223 220
f 214 215 222
f 214 222 221
f 215 220 222
f 217 224 218
f 218 225 219
f 218 224 225
f 220 223 229
f 220 229 226
f 220 226 222
f 221 222 226
f 221 226 228
f 221 228 227
f 224 230 225
f 225 230 231
f 226 232 228
f 226 229 235
f 226 235 232
f 227 228 234
f 227 234 233
f 228 232 234
f 230 236 231
f 231 237 238
f 231 236 237
f 232 239 234
f 232 235 241
f 232 241 239
f 233 234 239
f 233 239 240
f 236 242 237
f 237 242 243
f 237 243 238
f 239 241 247
f 239 247 244
f 239 244 245
f 239 245 240
f 240 245 246
f 242 248 243
f 243 248 250
f 243 250 249
f 244 251 245
f 244 247 254
f 244 254 251
f 245 251 246
f 246 251 253
f 246 253 252
f 249 250 255
f 250 256 255
f 251 254 260
f 251 260 257
f 251 257 253
f 252 253 258
f 253 257 259
f 253 259 258
f 255 256 261
f 255 261 262
f 256 263 261
f 257 260 266
f 257 266 264
f 257 264 259
f 258 259 265
f 259 264 265
f 261 263 262
f 262 263 268
f 262 268 267
f 264 266 271
f 264 271 269
f 264 269 265
f 265 269 270
f 267 268 272
f 267 272 273
f 268 274 272
f 269 271 278
f 269 278 275
f 269 275 276
f 269 276 270
f 270 276 277
f 272 274 273
f 273 279 280
f 273 274 279
f 274 281 279
f 275 278 285
f 275 285 282
f 275 282 283
f 275 283 276
f 276 283 277
f 277 283 284
f 279 281 280
f 280 281 286
f 280 286 287
f 282 288 284
f 282 284 283
f 282 285 290
f 282 290 288
f 284 288 289
f 286 291 292
f 286 292 287
f 287 292 293
f 288 294 295
f 288 295 289
f 288 290 297
f 288 297 294
f 289 295 296
f 291 298 299
f 291 299 293
f 291 293 292
f 294 297 303
f 294 303 300
f 294 300 301
f 294 301 302
f 294 302 296
f 294 296 295
f 298 304 305
f 298 305 299
f 299 305 306
f 300 307 301
f 300 303 311
f 300 311 307
f 301 307 308
f 301 308 309
f 301 309 310
f 301 310 302
f 304 312 306
f 304 306 305
f 306 312 313
f 307 314 308
f 307 311 316
f 307 316 314
f 308 314 315
f 308 315 309
f 312 317 318
f 312 318 313
f 313 318 319
f 314 316 320
f 314 320 321
f 314 321 315
f 315 321 322
f 316 323 320
f 317 324 319
f 317 319 318
f 319 324 325
f 320 326 327
f 320 327 321
f 320 323 329
f 320 329 326
f 321 327 322
f 322 327 328
f 324 330 331
f 324 331 325
f 325 331 332
f 326 329 333
f 326 333 334
f 326 334 342
f 326 342 335
f 326 335 336
f 326 336 328
f 326 328 327
f 330 337 338
f 330 338 332
f 330 332 331
f 333 339 340
f 333 340 334
f 334 340 341
f 334 341 342
f 337 343 344
f 337 344 338
f 338 344 345
f 339 346 340
f 340 346 347
f 340 347 341
f 341 347 348
f 343 349 345
f 343 345 344
f 345 349 350
f 345 350 351
f 346 352 353
f 346 353 347
f 347 353 354
f 347 354 348
f 349 355 356
f 349 356 357
f 349 357 350
f 350 357 351
f 352 358 359
f 352 359 353
f 353 359 354
f 354 359 360
f 355 361 362
f 355 362 356
f 356 362 357
f 358 363 359
f 359 363 364
f 359 364 360
f 360 364 365
f 361 366 367
f 361 367 362
f 362 367 368
f 362 368 369
f 363 370 371
f 363 371 364
f 364 371 372
f 364 372 365
f 366 373 374
f 366 374 375
f 366 375 367
f 367 375 368
f 368 375 369
f 370 376 371
f 370 377 376
f 371 376 372
f 372 376 378
f 373 379 380
f 373 380 381
f 373 381 374
f 374 381 382
f 376 383 378
f 376 377 384
f 376 384 383
f 378 383 385
f 379 386 387
f 379 387 380
f 380 382 381
f 383 384 390
f 383 390 388
f 383 388 389
f 383 389 385
f 386 391 392
f 386 392 387
f 388 393 389
f 388 390 395
f 388 395 393
f 389 393 394
f 391 396 392
f 392 396 397
f 392 397 398
f 393 395 401
f 393 401 399
f 393 399 394
f 394 399 400
f 396 402 397
f 397 403 398
f 397 402 403
f 399 404 400
f 399 401 406
f 399 406 404
f 400 404 405
f 402 407 403
f 403 407 408
f 404 406 411
f 404 411 409
f 404 409 405
f 405 409 410
f 407 412 408
f 408 412 413
f 409 411 416
f 409 416 414
f 409 414 415
f 409 415 410
f 412 417 418
f 412 418 413
f 413 418 414
f 413 414 416
f 414 418 417
f 414 417 415
