v 0.013371 0.001100 0.038972
v 0.013324 0.001853 0.038972
v 0.012963 0.001100 0.039470
v -0.014229 0.001100 0.038972
v 0.013237 0.002594 0.038972
v 0.012768 0.001104 0.039704
v 0.012768 0.001100 0.039703
v -0.014618 0.001100 0.039704
v -0.014229 0.001111 0.038972
v 0.013108 0.003334 0.038972
v 0.012642 0.001853 0.039704
v 0.012746 0.001100 0.039704
v -0.014506 0.001853 0.039704
v -0.014103 0.002595 0.038972
v -0.014186 0.001853 0.038972
v 0.012963 0.003966 0.038972
v 0.012963 0.003334 0.039116
v 0.012360 0.003335 0.039704
v -0.014443 0.002175 0.039704
v -0.013983 0.003335 0.038972
v 0.012935 0.004074 0.038972
v 0.012179 0.004074 0.039704
v 0.012223 0.003898 0.039704
v -0.014358 0.002594 0.039704
v -0.013821 0.004074 0.038972
v 0.012719 0.004815 0.038972
v 0.011949 0.004815 0.039704
v -0.014169 0.003334 0.039704
v -0.013703 0.004511 0.038972
v 0.012456 0.005557 0.038972
v 0.012220 0.005557 0.039191
v 0.011669 0.005551 0.039704
v -0.013936 0.004074 0.039704
v -0.013618 0.004816 0.038972
v 0.012220 0.006116 0.038972
v 0.011667 0.005558 0.039704
v -0.013703 0.004707 0.039704
v -0.013372 0.005557 0.038972
v 0.012141 0.006297 0.038972
v 0.011480 0.005975 0.039704
v -0.013660 0.004815 0.039704
v -0.013079 0.006297 0.038972
v 0.011774 0.007037 0.038972
v 0.011480 0.006297 0.039571
v 0.011332 0.006297 0.039704
v -0.013336 0.005558 0.039704
v -0.012961 0.006559 0.038972
v 0.011480 0.007558 0.038972
v 0.011480 0.007037 0.039232
v 0.010938 0.007039 0.039704
v -0.012961 0.006297 0.039704
v -0.012739 0.007037 0.038972
v 0.011349 0.007777 0.038972
v 0.010741 0.007367 0.039704
v -0.012528 0.007039 0.039704
v -0.012344 0.007777 0.038972
v 0.010858 0.008518 0.038972
v 0.010741 0.007777 0.039488
v 0.010458 0.007807 0.039704
v -0.012221 0.007507 0.039704
v -0.011892 0.008518 0.038972
v -0.012221 0.007988 0.038972
v 0.010741 0.008518 0.039069
v 0.010741 0.008680 0.038972
v 0.009998 0.008452 0.039704
v -0.012035 0.007777 0.039704
v -0.011481 0.009120 0.038972
v 0.009998 0.008518 0.039665
v 0.010291 0.009259 0.038972
v 0.009949 0.008518 0.039704
v -0.011481 0.008504 0.039704
v -0.011380 0.009259 0.038972
v 0.009998 0.009607 0.038972
v 0.009998 0.009259 0.039200
v 0.009330 0.009260 0.039704
v -0.011470 0.008518 0.039704
v -0.010794 0.009999 0.038972
v 0.009642 0.009999 0.038972
v 0.009258 0.009339 0.039704
v -0.010818 0.009260 0.039704
v -0.010739 0.010062 0.038972
v 0.009256 0.010391 0.038972
v 0.009258 0.009999 0.039251
v 0.008609 0.010000 0.039704
v -0.010739 0.009343 0.039704
v -0.010120 0.010740 0.038972
v 0.008889 0.010740 0.038972
v 0.008516 0.010089 0.039704
v -0.010070 0.009999 0.039704
v -0.009999 0.010865 0.038972
v 0.008510 0.011072 0.038972
v 0.008516 0.010740 0.039222
v 0.007776 0.010732 0.039704
v -0.009999 0.010064 0.039704
v -0.009347 0.011481 0.038972
v 0.008004 0.011481 0.038972
v 0.007757 0.010747 0.039704
v 0.007776 0.010740 0.039698
v -0.009972 0.010088 0.039704
v -0.009257 0.011561 0.038972
v 0.007776 0.011655 0.038972
v 0.007776 0.011481 0.039112
v 0.007037 0.011284 0.039704
v -0.009257 0.010690 0.039704
v -0.008517 0.012113 0.038972
v -0.009194 0.010740 0.039704
v 0.007037 0.012167 0.038972
v 0.007037 0.011481 0.039544
v 0.006738 0.011483 0.039704
v -0.008342 0.012222 0.038972
v -0.008517 0.011481 0.039502
v -0.008142 0.011481 0.039704
v -0.007764 0.011719 0.039704
v -0.008544 0.011215 0.039704
v 0.006946 0.012222 0.038972
v 0.006294 0.011764 0.039704
v -0.007777 0.012222 0.039264
v -0.007777 0.012555 0.038972
v -0.008517 0.011235 0.039704
v -0.007035 0.012124 0.039704
v 0.006294 0.012610 0.038972
v 0.006294 0.012222 0.039311
v 0.005557 0.012177 0.039704
v -0.007035 0.012944 0.038972
v -0.007035 0.012222 0.039618
v -0.006838 0.012222 0.039704
v 0.006269 0.012623 0.038972
v 0.005554 0.012222 0.039666
v 0.005467 0.012222 0.039704
v -0.006298 0.012480 0.039704
v -0.006996 0.012962 0.038972
v 0.005623 0.012962 0.038972
v 0.005554 0.012997 0.038972
v 0.004815 0.012533 0.039704
v -0.006295 0.012962 0.039264
v -0.005555 0.012786 0.039704
v -0.006295 0.013279 0.038972
v 0.004815 0.013330 0.038972
v 0.004815 0.012962 0.039311
v 0.004072 0.012834 0.039704
v -0.005555 0.012962 0.039540
v -0.005054 0.012962 0.039704
v -0.005555 0.013567 0.038972
v 0.004072 0.013614 0.038972
v 0.004072 0.012962 0.039585
v 0.003702 0.012962 0.039704
v -0.004810 0.013046 0.039704
v -0.005144 0.013703 0.038972
v 0.003798 0.013703 0.038972
v 0.003332 0.013087 0.039704
v -0.004813 0.013703 0.039074
v -0.004073 0.013255 0.039704
v -0.004813 0.013809 0.038972
v 0.003332 0.013703 0.039114
v 0.003332 0.013850 0.038972
v 0.002590 0.013292 0.039704
v -0.004068 0.013257 0.039704
v -0.004073 0.014010 0.038972
v 0.002598 0.014043 0.038972
v 0.001853 0.013452 0.039704
v -0.003325 0.013425 0.039704
v -0.003331 0.014169 0.038972
v 0.001850 0.014197 0.038972
v 0.001110 0.013571 0.039704
v -0.002591 0.013550 0.039704
v -0.002591 0.014288 0.038972
v 0.001110 0.014309 0.038972
v 0.000379 0.013646 0.039704
v -0.001851 0.013635 0.039704
v -0.001851 0.014369 0.038972
v 0.000368 0.014380 0.038972
v -0.000372 0.013683 0.039704
v -0.001109 0.013679 0.039704
v -0.001109 0.014410 0.038972
v -0.000372 0.014416 0.038972
f 1 2 3
f 1 3 7
f 1 7 12
f 1 12 8
f 1 8 4
f 1 4 9
f 1 9 15
f 1 15 14
f 1 14 20
f 1 20 25
f 1 25 29
f 1 29 34
f 1 34 38
f 1 38 42
f 1 42 47
f 1 47 52
f 1 52 56
f 1 56 62
f 1 62 61
f 1 61 67
f 1 67 72
f 1 72 77
f 1 77 81
f 1 81 86
f 1 86 90
f 1 90 95
f 1 95 100
f 1 100 105
f 1 105 110
f 1 110 118
f 1 118 124
f 1 124 131
f 1 131 137
f 1 137 143
f 1 143 148
f 1 148 153
f 1 153 158
f 1 158 162
f 1 162 166
f 1 166 170
f 1 170 174
f 1 174 175
f 1 175 171
f 1 171 167
f 1 167 163
f 1 163 159
f 1 159 155
f 1 155 149
f 1 149 144
f 1 144 138
f 1 138 133
f 1 133 132
f 1 132 127
f 1 127 121
f 1 121 115
f 1 115 107
f 1 107 101
f 1 101 96
f 1 96 91
f 1 91 87
f 1 87 82
f 1 82 78
f 1 78 73
f 1 73 69
f 1 69 64
f 1 64 57
f 1 57 53
f 1 53 48
f 1 48 43
f 1 43 39
f 1 39 35
f 1 35 30
f 1 30 26
f 1 26 21
f 1 21 16
f 1 16 10
f 1 10 5
f 1 5 2
f 2 5 6
f 2 6 3
f 3 6 7
f 4 8 9
f 5 10 11
f 5 11 6
f 6 11 18
f 6 18 23
f 6 23 22
f 6 22 27
f 6 27 32
f 6 32 36
f 6 36 40
f 6 40 45
f 6 45 50
f 6 50 54
f 6 54 59
f 6 59 65
f 6 65 70
f 6 70 75
f 6 75 79
f 6 79 84
f 6 84 88
f 6 88 93
f 6 93 97
f 6 97 103
f 6 103 109
f 6 109 116
f 6 116 123
f 6 123 129
f 6 129 134
f 6 134 140
f 6 140 146
f 6 146 150
f 6 150 156
f 6 156 160
f 6 160 164
f 6 164 168
f 6 168 172
f 6 172 173
f 6 173 169
f 6 169 165
f 6 165 161
f 6 161 157
f 6 157 152
f 6 152 147
f 6 147 142
f 6 142 136
f 6 136 130
f 6 130 126
f 6 126 120
f 6 120 113
f 6 113 112
f 6 112 119
f 6 119 114
f 6 114 106
f 6 106 104
f 6 104 99
f 6 99 94
f 6 94 89
f 6 89 85
f 6 85 80
f 6 80 76
f 6 76 71
f 6 71 66
f 6 66 60
f 6 60 55
f 6 55 51
f 6 51 46
f 6 46 41
f 6 41 37
f 6 37 33
f 6 33 28
f 6 28 24
f 6 24 19
f 6 19 13
f 6 13 8
f 6 8 12
f 6 12 7
f 8 13 14
f 8 14 15
f 8 15 9
f 10 16 17
f 10 17 11
f 11 17 18
f 13 19 20
f 13 20 14
f 16 21 22
f 16 22 23
f 16 23 18
f 16 18 17
f 19 24 20
f 20 24 25
f 21 26 22
f 22 26 27
f 24 28 25
f 25 28 29
f 26 30 27
f 27 31 32
f 27 30 31
f 28 33 34
f 28 34 29
f 30 35 31
f 31 35 36
f 31 36 32
f 33 37 38
f 33 38 34
f 35 39 36
f 36 39 40
f 37 41 42
f 37 42 38
f 39 43 44
f 39 44 40
f 40 44 45
f 41 46 42
f 42 46 47
f 43 48 49
f 43 49 45
f 43 45 44
f 45 49 50
f 46 51 52
f 46 52 47
f 48 53 54
f 48 54 50
f 48 50 49
f 51 55 56
f 51 56 52
f 53 57 58
f 53 58 54
f 54 58 59
f 55 60 61
f 55 61 62
f 55 62 56
f 57 63 58
f 57 64 63
f 58 63 59
f 59 63 65
f 60 66 67
f 60 67 61
f 63 64 68
f 63 68 65
f 64 69 70
f 64 70 68
f 65 68 70
f 66 71 72
f 66 72 67
f 69 73 74
f 69 74 70
f 70 74 75
f 71 76 72
f 72 76 77
f 73 78 79
f 73 79 75
f 73 75 74
f 76 80 81
f 76 81 77
f 78 82 83
f 78 83 79
f 79 83 84
f 80 85 86
f 80 86 81
f 82 87 88
f 82 88 84
f 82 84 83
f 85 89 90
f 85 90 86
f 87 91 92
f 87 92 88
f 88 92 93
f 89 94 95
f 89 95 90
f 91 96 97
f 91 97 98
f 91 98 93
f 91 93 92
f 93 98 97
f 94 99 100
f 94 100 95
f 96 101 102
f 96 102 97
f 97 102 103
f 99 104 100
f 100 104 106
f 100 106 105
f 101 107 108
f 101 108 103
f 101 103 102
f 103 108 109
f 105 106 111
f 105 111 112
f 105 112 113
f 105 113 110
f 106 114 111
f 107 115 116
f 107 116 109
f 107 109 108
f 110 113 117
f 110 117 118
f 111 119 112
f 111 114 119
f 113 120 117
f 115 121 122
f 115 122 116
f 116 122 123
f 117 120 118
f 118 120 125
f 118 125 124
f 120 126 125
f 121 127 128
f 121 128 123
f 121 123 122
f 123 128 129
f 124 125 126
f 124 126 130
f 124 130 131
f 127 132 128
f 128 132 133
f 128 133 129
f 129 133 134
f 130 135 131
f 130 136 135
f 131 135 137
f 133 138 139
f 133 139 134
f 134 139 140
f 135 136 137
f 136 141 137
f 136 142 141
f 137 141 143
f 138 144 145
f 138 145 140
f 138 140 139
f 140 145 146
f 141 142 143
f 142 147 143
f 143 147 148
f 144 149 150
f 144 150 146
f 144 146 145
f 147 151 148
f 147 152 151
f 148 151 153
f 149 154 150
f 149 155 154
f 150 154 156
f 151 152 153
f 152 157 158
f 152 158 153
f 154 155 156
f 155 159 156
f 156 159 160
f 157 161 158
f 158 161 162
f 159 163 160
f 160 163 164
f 161 165 162
f 162 165 166
f 163 167 164
f 164 167 168
f 165 169 166
f 166 169 170
f 167 171 168
f 168 171 172
f 169 173 170
f 170 173 174
f 171 175 172
f 172 175 173
f 173 175 174
