v 0.000371 -0.013100 0.038206
v 0.000337 -0.013100 0.038204
v -0.000370 -0.013704 0.037565
v -0.000370 -0.013768 0.037501
v 0.000371 -0.013704 0.037601
v 0.001111 -0.013799 0.037501
v 0.001111 -0.013100 0.038201
v -0.000370 -0.013100 0.038168
v -0.001007 -0.013703 0.037501
v 0.000360 -0.013803 0.037501
v 0.000371 -0.013803 0.037501
v 0.001844 -0.013756 0.037501
v 0.001852 -0.013704 0.037553
v 0.001852 -0.013100 0.038155
v -0.001010 -0.013100 0.038100
v -0.001112 -0.013692 0.037501
v 0.001852 -0.013755 0.037501
v 0.002308 -0.013704 0.037501
v 0.002316 -0.013703 0.037501
v 0.002593 -0.013671 0.037501
v 0.002593 -0.013100 0.038068
v -0.001111 -0.013100 0.038089
v -0.001853 -0.013575 0.037501
v 0.003332 -0.013547 0.037501
v 0.002765 -0.013100 0.038039
v -0.001851 -0.013100 0.037969
v -0.002592 -0.013416 0.037501
v 0.004072 -0.013380 0.037501
v 0.003575 -0.013100 0.037886
v 0.003333 -0.013100 0.037940
v -0.002592 -0.013100 0.037808
v -0.003333 -0.013212 0.037501
v 0.004813 -0.013171 0.037501
v 0.004559 -0.013100 0.037640
v 0.004073 -0.013100 0.037773
v -0.003333 -0.013100 0.037609
v -0.003669 -0.013100 0.037501
v 0.005021 -0.013100 0.037501
v 0.004813 -0.013100 0.037569
f 1 2 3
f 1 3 4
f 1 4 5
f 1 5 6
f 1 6 7
f 1 7 14
f 1 14 21
f 1 21 25
f 1 25 30
f 1 30 29
f 1 29 35
f 1 35 34
f 1 34 39
f 1 39 38
f 1 38 37
f 1 37 36
f 1 36 31
f 1 31 26
f 1 26 22
f 1 22 15
f 1 15 8
f 1 8 2
f 2 8 3
f 3 8 9
f 3 9 4
f 4 10 5
f 4 9 16
f 4 16 23
f 4 23 27
f 4 27 32
f 4 32 37
f 4 37 38
f 4 38 33
f 4 33 28
f 4 28 24
f 4 24 20
f 4 20 19
f 4 19 18
f 4 18 17
f 4 17 12
f 4 12 6
f 4 6 11
f 4 11 10
f 5 11 6
f 5 10 11
f 6 12 7
f 7 12 13
f 7 13 14
f 8 15 16
f 8 16 9
f 12 17 13
f 13 17 18
f 13 18 14
f 14 18 19
f 14 19 20
f 14 20 21
f 15 22 16
f 16 22 23
f 20 24 21
f 21 24 25
f 22 26 23
f 23 26 27
f 24 28 29
f 24 29 30
f 24 30 25
f 26 31 27
f 27 31 32
f 28 33 34
f 28 34 35
f 28 35 29
f 31 36 32
f 32 36 37
f 33 38 39
f 33 39 34
