v -0.000372 -0.014662 0.040441
v -0.000372 -0.014490 0.040755
v -0.001109 -0.014656 0.040441
v -0.001109 -0.013921 0.039704
v -0.000372 -0.013926 0.039706
v 0.000369 -0.014442 0.040258
v 0.000369 -0.014626 0.040441
v 0.000369 -0.014484 0.040755
v -0.001109 -0.014456 0.040755
v -0.001850 -0.014614 0.040441
v -0.001850 -0.013876 0.039704
v -0.000372 -0.013924 0.039704
v -0.000366 -0.013924 0.039704
v 0.000380 -0.013887 0.039704
v 0.000369 -0.013890 0.039706
v 0.001110 -0.014556 0.040441
v 0.001121 -0.014440 0.040755
v -0.001732 -0.014401 0.040755
v -0.002590 -0.014537 0.040441
v -0.002590 -0.013793 0.039704
v 0.001110 -0.013813 0.039704
v 0.001110 -0.013815 0.039706
v 0.001850 -0.014445 0.040441
v 0.001856 -0.014359 0.040755
v -0.002352 -0.014323 0.040755
v -0.003177 -0.014442 0.040441
v -0.003331 -0.014417 0.040441
v -0.003146 -0.013702 0.039704
v 0.001850 -0.013699 0.039704
v 0.002591 -0.014295 0.040441
v 0.002591 -0.014240 0.040755
v -0.003014 -0.014204 0.040755
v -0.004072 -0.014259 0.040441
v -0.003331 -0.013671 0.039706
v -0.003331 -0.013668 0.039704
v 0.002591 -0.013541 0.039704
v 0.003331 -0.014107 0.040441
v 0.003331 -0.014079 0.040755
v -0.003757 -0.014029 0.040755
v -0.004072 -0.013505 0.039704
v -0.003785 -0.014021 0.040755
v -0.004072 -0.013929 0.040755
v -0.004812 -0.013990 0.040441
v -0.005556 -0.013047 0.039706
v -0.004812 -0.013299 0.039706
v 0.003342 -0.013335 0.039704
v 0.003331 -0.013341 0.039706
v 0.004072 -0.013874 0.040441
v 0.004358 -0.013799 0.040755
v -0.004812 -0.013296 0.039704
v -0.004683 -0.013702 0.040755
v -0.004812 -0.013702 0.040709
v -0.004865 -0.013629 0.040755
v -0.005491 -0.013702 0.040441
v -0.006296 -0.012747 0.039706
v -0.005766 -0.012961 0.039704
v -0.005550 -0.013047 0.039704
v 0.004072 -0.013091 0.039704
v 0.004072 -0.013094 0.039706
v 0.004532 -0.013702 0.040441
v 0.004812 -0.013632 0.040755
v -0.004812 -0.013652 0.040755
v -0.005426 -0.013385 0.040755
v -0.005556 -0.013674 0.040441
v -0.007037 -0.012398 0.039706
v -0.006296 -0.012744 0.039704
v 0.004408 -0.012961 0.039704
v 0.004812 -0.013593 0.040441
v 0.005553 -0.013341 0.040755
v -0.005556 -0.013327 0.040755
v -0.006296 -0.013308 0.040441
v -0.007365 -0.012220 0.039704
v -0.007037 -0.012395 0.039704
v 0.004812 -0.012797 0.039704
v 0.004812 -0.012961 0.039856
v 0.005553 -0.013269 0.040441
v 0.005870 -0.013216 0.040755
v -0.006282 -0.012961 0.040755
v -0.006910 -0.012961 0.040441
v -0.007777 -0.011992 0.039706
v -0.007777 -0.011990 0.039704
v 0.005553 -0.012447 0.039704
v 0.005553 -0.012450 0.039706
v 0.005553 -0.012961 0.040163
v 0.006162 -0.012961 0.040441
v 0.006610 -0.012855 0.040755
v -0.006826 -0.012644 0.040755
v -0.007037 -0.012889 0.040441
v -0.008518 -0.011529 0.039706
v -0.008518 -0.011526 0.039704
v 0.005982 -0.012220 0.039704
v 0.006294 -0.012891 0.040441
v 0.007351 -0.012439 0.040755
v -0.007037 -0.012520 0.040755
v -0.007777 -0.012409 0.040441
v -0.008588 -0.011479 0.039706
v -0.008594 -0.011474 0.039704
v 0.006294 -0.012045 0.039704
v 0.006294 -0.012220 0.039856
v 0.007037 -0.012456 0.040441
v 0.007688 -0.012220 0.040755
v -0.007572 -0.012164 0.040755
v -0.007777 -0.012220 0.040595
v -0.008038 -0.012220 0.040441
v -0.009258 -0.010996 0.039706
v -0.009258 -0.010994 0.039704
v 0.007037 -0.011579 0.039704
v 0.007037 -0.012220 0.040241
v 0.007393 -0.012220 0.040441
v 0.007918 -0.012070 0.040755
v -0.007786 -0.012017 0.040755
v -0.007940 -0.011904 0.040755
v -0.008518 -0.011859 0.040441
v -0.009581 -0.010738 0.039704
v 0.007174 -0.011479 0.039704
v 0.007177 -0.011479 0.039706
v 0.007777 -0.011479 0.040054
v 0.007777 -0.011956 0.040441
v 0.008751 -0.011479 0.040755
v -0.008490 -0.011479 0.040755
v -0.008518 -0.011479 0.040739
v -0.008975 -0.011479 0.040441
v -0.009999 -0.010389 0.039706
v -0.009999 -0.010386 0.039704
v 0.007777 -0.011038 0.039704
v 0.007777 -0.011041 0.039706
v 0.008403 -0.011479 0.040441
v 0.008821 -0.011426 0.040755
v -0.008518 -0.011457 0.040755
v -0.008860 -0.011163 0.040755
v -0.009258 -0.011232 0.040441
v -0.010425 -0.009998 0.039706
v -0.010422 -0.009998 0.039704
v 0.008145 -0.010738 0.039704
v 0.008518 -0.011388 0.040441
v 0.009634 -0.010738 0.040755
v -0.009258 -0.010808 0.040755
v -0.009777 -0.010738 0.040441
v -0.010739 -0.009690 0.039706
v -0.010739 -0.009687 0.039704
v 0.008515 -0.010416 0.039704
v 0.008518 -0.010416 0.039706
v 0.008518 -0.010738 0.039945
v 0.009259 -0.010736 0.040441
v 0.010389 -0.009998 0.040755
v -0.009648 -0.010422 0.040755
v -0.009999 -0.010514 0.040441
v -0.011149 -0.009257 0.039704
v 0.008958 -0.009998 0.039704
v 0.009259 -0.009998 0.039916
v 0.009999 -0.009978 0.040441
v 0.010740 -0.009587 0.040755
v -0.009974 -0.010084 0.040755
v -0.010470 -0.009998 0.040441
v -0.011149 -0.009257 0.039706
v -0.011480 -0.008882 0.039706
v -0.011480 -0.008879 0.039704
v 0.009256 -0.009692 0.039704
v 0.009259 -0.009692 0.039706
v 0.009654 -0.009257 0.039704
v 0.009999 -0.009257 0.039966
v 0.010740 -0.009257 0.040542
v 0.011006 -0.009257 0.040755
v -0.010052 -0.009998 0.040755
v -0.010327 -0.009681 0.040755
v -0.010739 -0.009678 0.040441
v -0.011780 -0.008516 0.039706
v -0.011789 -0.008505 0.039704
v 0.009999 -0.008840 0.039704
v 0.009999 -0.008843 0.039706
v 0.010252 -0.008516 0.039704
v 0.010740 -0.009090 0.040441
v 0.011480 -0.008602 0.040755
v 0.010740 -0.008516 0.040097
v -0.010678 -0.009257 0.040755
v -0.010739 -0.009257 0.040708
v -0.011073 -0.009257 0.040441
v -0.012221 -0.007933 0.039706
v -0.012221 -0.007930 0.039704
v 0.010740 -0.007825 0.039704
v 0.011480 -0.008516 0.040706
v 0.011539 -0.008516 0.040755
v -0.010739 -0.009179 0.040755
v -0.011222 -0.008516 0.040755
v -0.011480 -0.008693 0.040441
v -0.012333 -0.007775 0.039706
v -0.012330 -0.007775 0.039704
v 0.010771 -0.007775 0.039704
v 0.011480 -0.007775 0.040306
v 0.011808 -0.008094 0.040755
v 0.011719 -0.008236 0.040755
v -0.011480 -0.008125 0.040755
v -0.011480 -0.008516 0.040543
v -0.011603 -0.008516 0.040441
v -0.012815 -0.007037 0.039706
v -0.012807 -0.007048 0.039704
v 0.011217 -0.007034 0.039704
v 0.011637 -0.007775 0.040441
v 0.011887 -0.007969 0.040755
v -0.011525 -0.008055 0.040755
v -0.012064 -0.007775 0.040441
v -0.012961 -0.006787 0.039706
v -0.012815 -0.007034 0.039704
v 0.011480 -0.006535 0.039704
v 0.011480 -0.007037 0.039935
v 0.012002 -0.007775 0.040755
v -0.011699 -0.007775 0.040755
v -0.011881 -0.007459 0.040755
v -0.012221 -0.007492 0.040441
v -0.013239 -0.006296 0.039706
v -0.012961 -0.006785 0.039704
v 0.011604 -0.006293 0.039704
v 0.012221 -0.007037 0.040590
v 0.012053 -0.007037 0.040441
v 0.012297 -0.007245 0.040755
v -0.012114 -0.007037 0.040755
v -0.012465 -0.007037 0.040441
v -0.013606 -0.005555 0.039706
v -0.013606 -0.005553 0.039704
v -0.013236 -0.006296 0.039704
v 0.011929 -0.005555 0.039704
v 0.012221 -0.006296 0.040266
v 0.012611 -0.006612 0.040755
v 0.012501 -0.006840 0.040755
v 0.012406 -0.007037 0.040755
v -0.012324 -0.006607 0.040755
v -0.012812 -0.006296 0.040441
v -0.013702 -0.005336 0.039706
v -0.013702 -0.005333 0.039704
v 0.012204 -0.004815 0.039704
v 0.012221 -0.005555 0.039976
v 0.012754 -0.006296 0.040755
v 0.012412 -0.006296 0.040441
v 0.012647 -0.006532 0.040755
v -0.012470 -0.006296 0.040755
v -0.012605 -0.005977 0.040755
v -0.012961 -0.005930 0.040441
v -0.013923 -0.004815 0.039706
v -0.013923 -0.004815 0.039704
v 0.012221 -0.004762 0.039704
v 0.012978 -0.004815 0.040441
v 0.013203 -0.005131 0.040755
v 0.013054 -0.005555 0.040755
v 0.012961 -0.005555 0.040668
v 0.012961 -0.005788 0.040755
v -0.012776 -0.005555 0.040755
v -0.012961 -0.005555 0.040582
v -0.013110 -0.005555 0.040441
v -0.014195 -0.004074 0.039706
v -0.014195 -0.004074 0.039704
v 0.012431 -0.004074 0.039704
v 0.013306 -0.004815 0.040755
v -0.012989 -0.004948 0.040755
v -0.013362 -0.004815 0.040441
v -0.014423 -0.003333 0.039706
v -0.014423 -0.003330 0.039704
v 0.012611 -0.003333 0.039704
v 0.013191 -0.004074 0.040441
v 0.013514 -0.004074 0.040755
v -0.013034 -0.004815 0.040755
v -0.013149 -0.004418 0.040755
v -0.013570 -0.004074 0.040441
v -0.014442 -0.003252 0.039706
v -0.014442 -0.003250 0.039704
v 0.012743 -0.002592 0.039704
v 0.013680 -0.003333 0.040755
v -0.013244 -0.004074 0.040755
v -0.013320 -0.003757 0.040755
v -0.013702 -0.003474 0.040441
v -0.014597 -0.002592 0.039706
v -0.014597 -0.002592 0.039704
v 0.012835 -0.001851 0.039704
v 0.013486 -0.002592 0.040441
v 0.013780 -0.002734 0.040755
v -0.013413 -0.003333 0.040755
v -0.013702 -0.003333 0.040472
v -0.013733 -0.003333 0.040441
v -0.014675 -0.001851 0.039706
v -0.014675 -0.001857 0.039704
v -0.014442 -0.002592 0.039859
v -0.013940 -0.001851 0.040441
v 0.012880 -0.001113 0.039704
v 0.013915 -0.001369 0.040755
v 0.013702 -0.001851 0.040572
v 0.013862 -0.002076 0.040755
v 0.013803 -0.002592 0.040755
v -0.013539 -0.002592 0.040755
v -0.013856 -0.002592 0.040441
v -0.014717 -0.001110 0.039706
v -0.013665 -0.001166 0.040755
v -0.014717 -0.001110 0.039704
v -0.013623 -0.001851 0.040755
v 0.012886 -0.000378 0.039704
v 0.013929 -0.001110 0.040755
v 0.013884 -0.001851 0.040755
v -0.014720 -0.000372 0.039706
v -0.014720 -0.000375 0.039704
v -0.013982 -0.001110 0.040441
v -0.013674 -0.000420 0.040755
v -0.013988 -0.000372 0.040441
v -0.013668 -0.001110 0.040755
v 0.012886 -0.000372 0.039704
v 0.013621 -0.000372 0.040441
v 0.013932 -0.000630 0.040755
v -0.014689 0.000368 0.039706
v -0.014720 -0.000372 0.039704
v -0.013674 -0.000372 0.040755
v 0.012849 0.000368 0.039704
v 0.013898 0.000368 0.040755
v 0.013910 0.000135 0.040755
v 0.013932 -0.000372 0.040755
v -0.014616 0.001109 0.039706
v -0.014616 0.001109 0.039704
v -0.014686 0.000368 0.039704
v -0.013643 0.000268 0.040755
v -0.013637 0.000368 0.040755
v 0.012768 0.001109 0.039704
v 0.013823 0.001109 0.040755
v 0.013839 0.000946 0.040755
v -0.014507 0.001850 0.039706
v -0.013581 0.000923 0.040755
v -0.013561 0.001109 0.040755
v -0.014507 0.001850 0.039704
v 0.012642 0.001850 0.039704
v 0.013708 0.001850 0.040755
v -0.014442 0.001850 0.039770
v -0.014442 0.002175 0.039706
v -0.013489 0.001570 0.040755
v -0.014442 0.002172 0.039704
v 0.012361 0.003334 0.039704
v 0.013550 0.002591 0.040755
v -0.013702 0.001850 0.040499
v -0.014358 0.002591 0.039706
v -0.014358 0.002591 0.039704
v -0.013441 0.001850 0.040755
v 0.012224 0.003895 0.039704
v 0.013455 0.002946 0.040755
v 0.012179 0.004072 0.039704
v -0.013702 0.002591 0.040346
v -0.014170 0.003332 0.039706
v -0.013407 0.002011 0.040755
v -0.013351 0.002275 0.040755
v -0.014167 0.003332 0.039704
v 0.013349 0.003332 0.040755
v 0.011949 0.004813 0.039704
v -0.013281 0.002591 0.040755
v -0.013937 0.004072 0.039706
v -0.013937 0.004072 0.039704
v -0.013404 0.003332 0.040441
v 0.013245 0.003648 0.040755
v 0.011665 0.005557 0.039704
v 0.013102 0.004072 0.040755
v -0.013076 0.003332 0.040755
v -0.013702 0.004072 0.039929
v -0.013702 0.004705 0.039706
v -0.012885 0.003900 0.040755
v -0.013702 0.004705 0.039704
v 0.011480 0.005973 0.039704
v 0.012807 0.004813 0.040755
v 0.012961 0.004430 0.040755
v -0.012961 0.004072 0.040627
v -0.013660 0.004813 0.039706
v -0.012824 0.004072 0.040755
v -0.013660 0.004813 0.039704
v 0.011332 0.006295 0.039704
v 0.012664 0.005130 0.040755
v -0.013337 0.005554 0.039706
v -0.012711 0.004361 0.040755
v -0.012866 0.004813 0.040441
v -0.013337 0.005551 0.039704
v 0.010936 0.007039 0.039704
v 0.012459 0.005554 0.040755
v -0.012961 0.006295 0.039704
v -0.012521 0.004813 0.040755
v -0.012961 0.005554 0.040045
v -0.012961 0.006295 0.039706
v -0.012591 0.004655 0.040755
v 0.010740 0.007366 0.039704
v 0.012055 0.006295 0.040755
v 0.012184 0.006065 0.040755
v 0.012221 0.005998 0.040755
v -0.012529 0.007036 0.039706
v -0.012526 0.007039 0.039704
v -0.012221 0.005446 0.040755
v -0.012221 0.005554 0.040708
v -0.012167 0.005554 0.040755
v -0.011993 0.005873 0.040755
v -0.012221 0.006295 0.040352
v 0.010479 0.007777 0.039704
v 0.011862 0.006611 0.040755
v -0.012221 0.007036 0.039967
v -0.012221 0.007505 0.039706
v -0.012221 0.007505 0.039704
v -0.011752 0.006295 0.040755
v -0.011934 0.005979 0.040755
v -0.011845 0.006137 0.040755
v 0.010459 0.007807 0.039704
v 0.011590 0.007036 0.040755
v -0.011480 0.006725 0.040755
v -0.011654 0.007036 0.040441
v -0.011480 0.007036 0.040586
v -0.012033 0.007777 0.039706
v -0.012033 0.007777 0.039704
v 0.009999 0.008451 0.039704
v 0.011480 0.007191 0.040755
v -0.011416 0.006822 0.040755
v -0.011272 0.007036 0.040755
v -0.011171 0.007177 0.040755
v -0.011480 0.007777 0.040154
v -0.011480 0.008504 0.039706
v -0.011480 0.008504 0.039704
v 0.009949 0.008517 0.039704
v 0.011048 0.007777 0.040755
v -0.010964 0.007460 0.040755
v -0.010955 0.007471 0.040755
v -0.011118 0.007777 0.040441
v -0.010739 0.007752 0.040755
v -0.010720 0.007777 0.040755
v -0.011469 0.008517 0.039706
v -0.011469 0.008517 0.039704
v 0.009357 0.009228 0.039704
v 0.010700 0.008204 0.040755
v 0.010740 0.008157 0.040755
v -0.010495 0.008043 0.040755
v -0.010818 0.009258 0.039706
v -0.010739 0.008517 0.040263
v -0.010818 0.009258 0.039704
v 0.009259 0.009339 0.039704
v 0.010428 0.008517 0.040755
v -0.010361 0.008201 0.040755
v -0.010075 0.008517 0.040755
v -0.010739 0.009258 0.039764
v -0.010739 0.009341 0.039706
v -0.010739 0.009341 0.039704
v 0.010134 0.008834 0.040755
v 0.008611 0.009999 0.039704
v -0.009999 0.008598 0.040755
v -0.009362 0.009258 0.040755
v -0.010069 0.009999 0.039706
v -0.010069 0.009999 0.039704
v 0.009999 0.008970 0.040755
v 0.008518 0.010088 0.039704
v 0.009705 0.009258 0.040755
v -0.009073 0.009530 0.040755
v -0.009999 0.010063 0.039706
v -0.008759 0.009819 0.040755
v -0.009999 0.010063 0.039704
v 0.007777 0.010732 0.039704
v 0.009259 0.009663 0.040755
v -0.008554 0.009999 0.040755
v -0.009258 0.010690 0.039704
v -0.009971 0.010088 0.039704
v 0.007758 0.010748 0.039704
v 0.008855 0.009999 0.040755
v -0.008324 0.010188 0.040755
v -0.009194 0.010740 0.039704
v 0.008518 0.010263 0.040755
v 0.007037 0.011284 0.039704
v -0.007558 0.010768 0.040755
v -0.008518 0.011234 0.039704
v -0.007460 0.010840 0.040755
v 0.007839 0.010740 0.040755
v 0.006740 0.011481 0.039704
v 0.006740 0.011481 0.039706
v 0.007777 0.010781 0.040755
v -0.008142 0.011481 0.039704
v -0.006720 0.011306 0.040755
v 0.006294 0.011764 0.039704
v 0.007326 0.011056 0.040755
v -0.007777 0.011708 0.039704
v -0.007777 0.011708 0.039706
v -0.005979 0.011708 0.040755
v -0.007037 0.012124 0.039704
v 0.007037 0.011225 0.040755
v 0.005559 0.012177 0.039704
v -0.007763 0.011716 0.039704
v -0.006296 0.012479 0.039706
v -0.006835 0.012221 0.039706
v -0.005239 0.012052 0.040755
v -0.006837 0.012221 0.039704
v 0.006554 0.011481 0.040755
v 0.005469 0.012221 0.039704
v 0.006456 0.011531 0.040755
v -0.006296 0.012479 0.039704
v -0.005556 0.012785 0.039706
v -0.004498 0.012344 0.040755
v 0.004812 0.012532 0.039704
v 0.006294 0.011611 0.040755
v -0.005556 0.012785 0.039704
v -0.005053 0.012962 0.039704
v -0.004072 0.012471 0.040755
v -0.004809 0.013046 0.039704
v 0.005553 0.011938 0.040755
v 0.005881 0.011797 0.040755
v 0.004072 0.012835 0.039704
v -0.003331 0.012685 0.040755
v -0.004069 0.013256 0.039704
v 0.004829 0.012208 0.040755
v 0.003702 0.012962 0.039704
v 0.004790 0.012221 0.040755
v -0.003331 0.013423 0.039704
v -0.002590 0.012851 0.040755
v 0.003331 0.013087 0.039704
v 0.004319 0.012366 0.040755
v -0.002590 0.013548 0.039704
v -0.002590 0.013548 0.039706
v -0.001785 0.012982 0.040755
v 0.002591 0.013290 0.039704
v 0.002591 0.013290 0.039706
v 0.004072 0.012438 0.040755
v -0.002574 0.013550 0.039704
v -0.001850 0.013634 0.039704
v -0.000829 0.013082 0.040755
v 0.001853 0.013451 0.039704
v 0.001850 0.013451 0.039706
v 0.002591 0.012810 0.040755
v 0.003331 0.012629 0.040755
v -0.001805 0.013637 0.039704
v -0.001109 0.013678 0.039704
v -0.000077 0.013101 0.040755
v 0.001115 0.013570 0.039704
v 0.001850 0.012943 0.040755
v -0.000372 0.013684 0.039704
v 0.000621 0.013079 0.040755
v 0.000369 0.013648 0.039704
v 0.001264 0.013023 0.040755
v 0.001724 0.012962 0.040755
f 1 2 3
f 1 3 4
f 1 4 5
f 1 5 6
f 1 6 7
f 1 7 8
f 1 8 2
f 2 8 17
f 2 17 24
f 2 24 31
f 2 31 38
f 2 38 49
f 2 49 61
f 2 61 69
f 2 69 77
f 2 77 86
f 2 86 93
f 2 93 101
f 2 101 110
f 2 110 119
f 2 119 128
f 2 128 136
f 2 136 145
f 2 145 152
f 2 152 163
f 2 163 173
f 2 173 182
f 2 182 191
f 2 191 190
f 2 190 199
f 2 199 206
f 2 206 215
f 2 215 225
f 2 225 224
f 2 224 223
f 2 223 234
f 2 234 232
f 2 232 245
f 2 245 243
f 2 243 242
f 2 242 252
f 2 252 259
f 2 259 266
f 2 266 274
f 2 274 286
f 2 286 285
f 2 285 295
f 2 295 283
f 2 283 294
f 2 294 304
f 2 304 311
f 2 311 310
f 2 310 309
f 2 309 319
f 2 319 318
f 2 318 325
f 2 325 331
f 2 331 337
f 2 337 344
f 2 344 350
f 2 350 352
f 2 352 360
f 2 360 359
f 2 359 366
f 2 366 372
f 2 372 381
f 2 381 380
f 2 380 379
f 2 379 390
f 2 390 398
f 2 398 405
f 2 405 413
f 2 413 423
f 2 423 422
f 2 422 429
f 2 429 435
f 2 435 441
f 2 441 443
f 2 443 449
f 2 449 454
f 2 454 457
f 2 457 462
f 2 462 465
f 2 465 469
f 2 469 474
f 2 474 481
f 2 481 483
f 2 483 488
f 2 488 494
f 2 494 493
f 2 493 498
f 2 498 500
f 2 500 504
f 2 504 510
f 2 510 517
f 2 517 516
f 2 516 522
f 2 522 527
f 2 527 526
f 2 526 524
f 2 524 520
f 2 520 513
f 2 513 507
f 2 507 502
f 2 502 496
f 2 496 491
f 2 491 486
f 2 486 479
f 2 479 472
f 2 472 467
f 2 467 461
f 2 461 459
f 2 459 455
f 2 455 450
f 2 450 446
f 2 446 444
f 2 444 438
f 2 438 437
f 2 437 431
f 2 431 430
f 2 430 424
f 2 424 418
f 2 418 417
f 2 417 415
f 2 415 414
f 2 414 408
f 2 408 407
f 2 407 406
f 2 406 399
f 2 399 394
f 2 394 396
f 2 396 395
f 2 395 387
f 2 387 386
f 2 386 384
f 2 384 374
f 2 374 377
f 2 377 368
f 2 368 363
f 2 363 356
f 2 356 353
f 2 353 346
f 2 346 342
f 2 342 341
f 2 341 335
f 2 335 328
f 2 328 322
f 2 322 321
f 2 321 316
f 2 316 315
f 2 315 307
f 2 307 299
f 2 299 301
f 2 301 290
f 2 290 292
f 2 292 287
f 2 287 275
f 2 275 268
f 2 268 267
f 2 267 261
f 2 261 260
f 2 260 253
f 2 253 246
f 2 246 236
f 2 236 235
f 2 235 226
f 2 226 216
f 2 216 208
f 2 208 207
f 2 207 200
f 2 200 192
f 2 192 184
f 2 184 183
f 2 183 175
f 2 175 165
f 2 165 164
f 2 164 153
f 2 153 146
f 2 146 137
f 2 137 130
f 2 130 129
f 2 129 120
f 2 120 112
f 2 112 111
f 2 111 102
f 2 102 94
f 2 94 87
f 2 87 78
f 2 78 70
f 2 70 63
f 2 63 53
f 2 53 62
f 2 62 51
f 2 51 42
f 2 42 41
f 2 41 39
f 2 39 32
f 2 32 25
f 2 25 18
f 2 18 9
f 2 9 3
f 3 9 10
f 3 10 4
f 4 10 11
f 4 11 20
f 4 20 28
f 4 28 35
f 4 35 40
f 4 40 50
f 4 50 57
f 4 57 56
f 4 56 66
f 4 66 73
f 4 73 72
f 4 72 81
f 4 81 90
f 4 90 97
f 4 97 106
f 4 106 114
f 4 114 124
f 4 124 133
f 4 133 140
f 4 140 148
f 4 148 157
f 4 157 168
f 4 168 179
f 4 179 187
f 4 187 196
f 4 196 203
f 4 203 211
f 4 211 220
f 4 220 219
f 4 219 229
f 4 229 239
f 4 239 250
f 4 250 256
f 4 256 264
f 4 264 271
f 4 271 279
f 4 279 291
f 4 291 297
f 4 297 306
f 4 306 314
f 4 314 313
f 4 313 323
f 4 323 329
f 4 329 334
f 4 334 343
f 4 343 348
f 4 348 357
f 4 357 364
f 4 364 370
f 4 370 373
f 4 373 383
f 4 383 393
f 4 393 403
f 4 403 411
f 4 411 420
f 4 420 427
f 4 427 434
f 4 434 440
f 4 440 447
f 4 447 452
f 4 452 451
f 4 451 456
f 4 456 460
f 4 460 466
f 4 466 470
f 4 470 476
f 4 476 473
f 4 473 480
f 4 480 484
f 4 484 489
f 4 489 490
f 4 490 492
f 4 492 497
f 4 497 501
f 4 501 505
f 4 505 511
f 4 511 512
f 4 512 518
f 4 518 519
f 4 519 523
f 4 523 525
f 4 525 521
f 4 521 514
f 4 514 508
f 4 508 503
f 4 503 499
f 4 499 495
f 4 495 487
f 4 487 482
f 4 482 475
f 4 475 468
f 4 468 463
f 4 463 458
f 4 458 453
f 4 453 448
f 4 448 442
f 4 442 436
f 4 436 428
f 4 428 421
f 4 421 412
f 4 412 404
f 4 404 397
f 4 397 389
f 4 389 378
f 4 378 371
f 4 371 365
f 4 365 358
f 4 358 351
f 4 351 345
f 4 345 338
f 4 338 336
f 4 336 330
f 4 330 324
f 4 324 317
f 4 317 308
f 4 308 302
f 4 302 293
f 4 293 282
f 4 282 272
f 4 272 265
f 4 265 257
f 4 257 251
f 4 251 240
f 4 240 230
f 4 230 221
f 4 221 212
f 4 212 204
f 4 204 197
f 4 197 188
f 4 188 180
f 4 180 171
f 4 171 169
f 4 169 160
f 4 160 158
f 4 158 149
f 4 149 141
f 4 141 134
f 4 134 125
f 4 125 115
f 4 115 107
f 4 107 98
f 4 98 91
f 4 91 82
f 4 82 74
f 4 74 67
f 4 67 58
f 4 58 46
f 4 46 36
f 4 36 29
f 4 29 21
f 4 21 14
f 4 14 13
f 4 13 12
f 4 12 5
f 5 12 13
f 5 13 14
f 5 14 15
f 5 15 6
f 6 15 16
f 6 16 7
f 7 16 17
f 7 17 8
f 9 18 10
f 10 18 19
f 10 19 11
f 11 19 20
f 14 21 22
f 14 22 15
f 15 22 16
f 16 22 23
f 16 23 24
f 16 24 17
f 18 25 19
f 19 25 26
f 19 26 20
f 20 26 27
f 20 27 28
f 21 29 22
f 22 29 23
f 23 30 31
f 23 31 24
f 23 29 30
f 25 32 27
f 25 27 26
f 27 32 33
f 27 33 34
f 27 34 28
f 28 34 35
f 29 36 30
f 30 37 38
f 30 38 31
f 30 36 37
f 32 39 33
f 33 40 34
f 33 39 41
f 33 41 42
f 33 42 43
f 33 43 44
f 33 44 45
f 33 45 40
f 34 40 35
f 36 46 47
f 36 47 37
f 37 47 48
f 37 48 49
f 37 49 38
f 40 45 50
f 42 51 43
f 43 51 52
f 43 52 53
f 43 53 54
f 43 54 55
f 43 55 56
f 43 56 44
f 44 57 45
f 44 56 57
f 45 57 50
f 46 58 59
f 46 59 47
f 47 59 48
f 48 59 60
f 48 60 61
f 48 61 49
f 51 62 52
f 52 62 53
f 53 63 64
f 53 64 54
f 54 64 55
f 55 65 73
f 55 73 66
f 55 66 56
f 55 64 65
f 58 67 59
f 59 67 68
f 59 68 60
f 60 68 61
f 61 68 69
f 63 70 64
f 64 70 71
f 64 71 65
f 65 72 73
f 65 71 72
f 67 74 75
f 67 75 68
f 68 75 76
f 68 76 77
f 68 77 69
f 70 78 71
f 71 78 79
f 71 79 80
f 71 80 72
f 72 80 81
f 74 82 83
f 74 83 84
f 74 84 76
f 74 76 75
f 76 84 85
f 76 85 86
f 76 86 77
f 78 87 88
f 78 88 79
f 79 88 80
f 80 88 89
f 80 89 90
f 80 90 81
f 82 91 83
f 83 91 92
f 83 92 85
f 83 85 84
f 85 92 86
f 86 92 93
f 87 94 88
f 88 94 95
f 88 95 89
f 89 96 97
f 89 97 90
f 89 95 96
f 91 98 99
f 91 99 92
f 92 99 100
f 92 100 93
f 93 100 101
f 94 102 95
f 95 102 103
f 95 103 104
f 95 104 105
f 95 105 96
f 96 105 97
f 97 105 106
f 98 107 108
f 98 108 100
f 98 100 99
f 100 108 109
f 100 109 110
f 100 110 101
f 102 111 103
f 103 111 104
f 104 112 113
f 104 113 105
f 104 111 112
f 105 114 106
f 105 113 114
f 107 115 116
f 107 116 117
f 107 117 118
f 107 118 109
f 107 109 108
f 109 118 110
f 110 118 119
f 112 120 121
f 112 121 113
f 113 121 122
f 113 122 114
f 114 123 124
f 114 122 123
f 115 125 126
f 115 126 116
f 116 126 117
f 117 126 127
f 117 127 118
f 118 127 128
f 118 128 119
f 120 129 121
f 121 129 122
f 122 129 130
f 122 130 131
f 122 131 123
f 123 131 132
f 123 132 133
f 123 133 124
f 125 134 126
f 126 134 135
f 126 135 127
f 127 135 128
f 128 135 136
f 130 137 131
f 131 137 138
f 131 138 132
f 132 139 133
f 132 138 139
f 133 139 140
f 134 141 142
f 134 142 143
f 134 143 135
f 135 143 144
f 135 144 136
f 136 144 145
f 137 146 138
f 138 146 147
f 138 147 139
f 139 148 140
f 139 147 148
f 141 149 142
f 142 149 144
f 142 144 143
f 144 150 151
f 144 151 145
f 144 149 150
f 145 151 152
f 146 153 147
f 147 153 164
f 147 164 154
f 147 154 155
f 147 155 148
f 148 155 156
f 148 156 157
f 149 158 159
f 149 159 150
f 150 159 151
f 151 159 160
f 151 160 161
f 151 161 152
f 152 161 162
f 152 162 163
f 154 164 165
f 154 165 166
f 154 166 156
f 154 156 155
f 156 166 167
f 156 167 168
f 156 168 157
f 158 160 159
f 160 169 170
f 160 170 161
f 161 170 162
f 162 170 171
f 162 171 172
f 162 172 163
f 163 172 171
f 163 171 174
f 163 174 173
f 165 175 166
f 166 175 176
f 166 176 177
f 166 177 167
f 167 178 168
f 167 177 178
f 168 178 179
f 169 171 170
f 171 180 174
f 173 181 182
f 173 174 181
f 174 180 181
f 175 183 176
f 176 183 177
f 177 183 184
f 177 184 185
f 177 185 178
f 178 186 179
f 178 185 186
f 179 186 187
f 180 188 189
f 180 189 190
f 180 190 191
f 180 191 182
f 180 182 181
f 184 192 193
f 184 193 185
f 185 193 194
f 185 194 186
f 186 195 196
f 186 196 187
f 186 194 195
f 188 197 189
f 189 197 198
f 189 198 199
f 189 199 190
f 192 200 194
f 192 194 193
f 194 200 201
f 194 201 195
f 195 202 211
f 195 211 203
f 195 203 196
f 195 201 202
f 197 204 205
f 197 205 206
f 197 206 198
f 198 206 199
f 200 207 201
f 201 208 209
f 201 209 210
f 201 210 202
f 201 207 208
f 202 210 211
f 204 212 213
f 204 213 214
f 204 214 205
f 205 214 215
f 205 215 206
f 208 216 209
f 209 216 217
f 209 217 210
f 210 218 219
f 210 219 220
f 210 220 211
f 210 217 218
f 212 221 222
f 212 222 223
f 212 223 224
f 212 224 225
f 212 225 213
f 213 225 215
f 213 215 214
f 216 226 217
f 217 226 227
f 217 227 218
f 218 228 229
f 218 229 219
f 218 227 228
f 221 230 231
f 221 231 232
f 221 232 233
f 221 233 222
f 222 233 223
f 223 233 234
f 226 235 227
f 227 235 236
f 227 236 237
f 227 237 238
f 227 238 228
f 228 238 239
f 228 239 229
f 230 240 241
f 230 241 242
f 230 242 243
f 230 243 244
f 230 244 231
f 231 244 245
f 231 245 232
f 232 234 233
f 236 246 237
f 237 246 247
f 237 247 248
f 237 248 238
f 238 249 250
f 238 250 239
f 238 248 249
f 240 251 241
f 241 251 252
f 241 252 242
f 243 245 244
f 246 253 247
f 247 253 248
f 248 253 254
f 248 254 249
f 249 255 250
f 249 254 255
f 250 255 256
f 251 257 258
f 251 258 252
f 252 258 259
f 253 260 254
f 254 260 261
f 254 261 262
f 254 262 255
f 255 263 264
f 255 264 256
f 255 262 263
f 257 265 266
f 257 266 259
f 257 259 258
f 261 267 262
f 262 267 268
f 262 268 269
f 262 269 270
f 262 270 263
f 263 270 271
f 263 271 264
f 265 272 273
f 265 273 274
f 265 274 266
f 268 275 276
f 268 276 269
f 269 276 277
f 269 277 270
f 270 278 279
f 270 279 271
f 270 277 280
f 270 280 281
f 270 281 278
f 272 282 283
f 272 283 284
f 272 284 285
f 272 285 286
f 272 286 273
f 273 286 274
f 275 287 276
f 276 287 277
f 277 288 280
f 277 287 288
f 278 289 279
f 278 281 290
f 278 290 289
f 279 289 291
f 280 288 281
f 281 288 287
f 281 287 292
f 281 292 290
f 282 293 294
f 282 294 283
f 283 295 284
f 284 295 285
f 289 296 297
f 289 297 291
f 289 290 298
f 289 298 299
f 289 299 300
f 289 300 296
f 290 301 298
f 293 302 303
f 293 303 294
f 294 303 304
f 296 305 306
f 296 306 297
f 296 300 305
f 298 301 299
f 299 307 300
f 300 307 305
f 302 308 309
f 302 309 303
f 303 309 310
f 303 310 311
f 303 311 304
f 305 312 313
f 305 313 314
f 305 314 306
f 305 307 315
f 305 315 316
f 305 316 312
f 308 317 318
f 308 318 319
f 308 319 309
f 312 320 323
f 312 323 313
f 312 316 321
f 312 321 322
f 312 322 320
f 317 324 325
f 317 325 318
f 320 326 327
f 320 327 323
f 320 322 328
f 320 328 326
f 323 327 329
f 324 330 325
f 325 330 331
f 326 328 332
f 326 332 327
f 327 333 334
f 327 334 329
f 327 332 333
f 328 335 332
f 330 336 331
f 331 336 338
f 331 338 337
f 332 335 333
f 333 339 340
f 333 340 334
f 333 335 341
f 333 341 342
f 333 342 339
f 334 340 343
f 337 338 344
f 338 345 344
f 339 342 346
f 339 346 340
f 340 347 348
f 340 348 343
f 340 346 349
f 340 349 347
f 344 345 350
f 345 351 352
f 345 352 350
f 346 353 349
f 347 354 355
f 347 355 357
f 347 357 348
f 347 349 353
f 347 353 356
f 347 356 354
f 351 358 359
f 351 359 360
f 351 360 352
f 354 356 361
f 354 361 355
f 355 362 364
f 355 364 357
f 355 361 363
f 355 363 368
f 355 368 362
f 356 363 361
f 358 365 366
f 358 366 359
f 362 367 364
f 362 368 369
f 362 369 367
f 364 367 370
f 365 371 372
f 365 372 366
f 367 373 370
f 367 369 374
f 367 374 375
f 367 375 376
f 367 376 373
f 368 377 369
f 369 377 374
f 371 378 379
f 371 379 380
f 371 380 381
f 371 381 372
f 373 382 383
f 373 376 382
f 374 384 375
f 375 384 385
f 375 385 376
f 376 385 386
f 376 386 387
f 376 387 388
f 376 388 382
f 378 389 390
f 378 390 379
f 382 391 392
f 382 392 393
f 382 393 383
f 382 388 394
f 382 394 391
f 384 386 385
f 387 395 388
f 388 395 396
f 388 396 394
f 389 397 398
f 389 398 390
f 391 394 399
f 391 399 400
f 391 400 392
f 392 400 401
f 392 401 402
f 392 402 403
f 392 403 393
f 397 404 405
f 397 405 398
f 399 401 400
f 399 406 401
f 401 406 407
f 401 407 402
f 402 407 408
f 402 408 409
f 402 409 410
f 402 410 411
f 402 411 403
f 404 412 413
f 404 413 405
f 408 414 409
f 409 414 415
f 409 415 416
f 409 416 410
f 410 416 417
f 410 417 418
f 410 418 419
f 410 419 420
f 410 420 411
f 412 421 422
f 412 422 423
f 412 423 413
f 415 417 416
f 418 424 419
f 419 425 427
f 419 427 420
f 419 424 426
f 419 426 425
f 421 428 429
f 421 429 422
f 424 430 426
f 425 426 431
f 425 431 432
f 425 432 433
f 425 433 434
f 425 434 427
f 426 430 431
f 428 435 429
f 428 436 435
f 431 437 432
f 432 437 438
f 432 438 433
f 433 439 440
f 433 440 434
f 433 438 439
f 435 436 441
f 436 442 443
f 436 443 441
f 438 444 439
f 439 445 447
f 439 447 440
f 439 444 446
f 439 446 445
f 442 448 449
f 442 449 443
f 445 446 450
f 445 450 451
f 445 451 452
f 445 452 447
f 448 453 449
f 449 453 454
f 450 455 451
f 451 455 456
f 453 457 454
f 453 458 457
f 455 459 456
f 456 459 461
f 456 461 460
f 457 458 462
f 458 463 464
f 458 464 465
f 458 465 462
f 460 461 466
f 461 467 466
f 463 468 464
f 464 468 465
f 465 468 469
f 466 467 471
f 466 471 470
f 467 472 473
f 467 473 471
f 468 474 469
f 468 475 474
f 470 471 476
f 471 473 476
f 472 477 478
f 472 478 473
f 472 479 477
f 473 478 480
f 474 475 481
f 475 482 488
f 475 488 483
f 475 483 481
f 477 484 480
f 477 480 478
f 477 479 485
f 477 485 489
f 477 489 484
f 479 486 485
f 482 487 488
f 485 486 490
f 485 490 489
f 486 491 492
f 486 492 490
f 487 493 494
f 487 494 488
f 487 495 493
f 491 496 492
f 492 496 497
f 493 495 498
f 495 499 500
f 495 500 498
f 496 501 497
f 496 502 501
f 499 503 500
f 500 503 504
f 501 502 506
f 501 506 505
f 502 507 506
f 503 508 509
f 503 509 510
f 503 510 504
f 505 506 511
f 506 507 512
f 506 512 511
f 507 513 512
f 508 514 509
f 509 514 515
f 509 515 516
f 509 516 517
f 509 517 510
f 512 513 518
f 513 519 518
f 513 520 519
f 514 521 515
f 515 521 522
f 515 522 516
f 519 520 523
f 520 524 523
f 521 525 526
f 521 526 527
f 521 527 522
f 523 524 525
f 524 526 525
