v -0.000369 -0.013192 0.026469
v 0.000369 -0.013070 0.025736
v 0.001110 -0.013065 0.025736
v 0.000369 -0.013154 0.026469
v -0.001110 -0.013187 0.026469
v -0.000369 -0.013032 0.025736
v 0.001850 -0.013018 0.025736
v 0.001110 -0.013075 0.026469
v -0.001851 -0.013141 0.026469
v -0.001013 -0.012961 0.025736
v 0.002591 -0.012929 0.025736
v 0.001792 -0.012961 0.026469
v -0.001110 -0.012951 0.025736
v -0.002591 -0.013051 0.026469
v 0.003332 -0.012796 0.025736
v 0.001850 -0.012951 0.026469
v -0.001851 -0.012828 0.025736
v -0.003104 -0.012961 0.026469
v 0.002591 -0.012785 0.026469
v 0.004072 -0.012619 0.025736
v -0.002588 -0.012660 0.025736
v -0.003332 -0.012921 0.026469
v 0.003332 -0.012570 0.026469
v 0.004813 -0.012399 0.025736
v -0.004073 -0.012747 0.026469
v -0.003332 -0.012443 0.025736
v 0.004072 -0.012310 0.026469
v 0.005554 -0.012128 0.025736
v -0.004813 -0.012527 0.026469
v -0.003956 -0.012220 0.025736
v 0.004286 -0.012220 0.026469
v 0.004813 -0.011995 0.026469
v 0.006295 -0.011805 0.025736
v -0.005554 -0.012258 0.026469
v -0.004073 -0.012177 0.025736
v 0.005554 -0.011623 0.026469
v 0.006935 -0.011479 0.025736
v -0.005646 -0.012220 0.026469
v -0.004813 -0.011859 0.025736
v 0.005804 -0.011479 0.026469
v 0.007035 -0.011428 0.025736
v -0.006295 -0.011938 0.026469
v -0.006295 -0.011479 0.026054
v -0.006295 -0.011126 0.025736
v 0.007776 -0.010988 0.025736
v 0.006295 -0.011186 0.026469
v -0.007036 -0.011566 0.026469
v -0.007036 -0.011479 0.026393
v -0.007036 -0.010727 0.025736
v 0.008148 -0.010738 0.025736
v 0.006958 -0.010738 0.026469
v -0.007188 -0.011479 0.026469
v -0.007776 -0.011132 0.026469
v -0.007776 -0.010738 0.026137
v -0.007718 -0.010293 0.025736
v 0.008517 -0.010480 0.025736
v 0.007035 -0.010681 0.026469
v -0.008367 -0.010738 0.026469
v -0.007776 -0.010255 0.025736
v 0.009133 -0.010000 0.025736
v 0.008517 -0.010000 0.026123
v 0.008517 -0.009557 0.026469
v -0.008517 -0.010632 0.026469
v -0.008140 -0.010000 0.025736
v 0.009258 -0.009897 0.025736
v 0.008872 -0.009262 0.026469
v -0.008517 -0.010000 0.025960
v -0.009258 -0.010057 0.026469
v -0.008517 -0.009712 0.025736
v 0.009959 -0.009259 0.025736
v 0.009258 -0.009259 0.026218
v 0.009258 -0.008914 0.026469
v -0.009258 -0.010000 0.026425
v -0.009324 -0.010000 0.026469
v -0.009061 -0.009259 0.025736
v 0.009998 -0.009221 0.025736
v 0.009663 -0.008518 0.026469
v -0.009258 -0.009259 0.025865
v -0.009998 -0.009389 0.026469
v -0.009258 -0.009080 0.025736
v 0.010664 -0.008518 0.025736
v 0.009998 -0.008518 0.026229
v 0.009998 -0.008159 0.026469
v -0.009998 -0.009259 0.026374
v -0.010145 -0.009245 0.026469
v -0.009835 -0.008518 0.025736
v 0.010334 -0.007777 0.026469
v 0.010739 -0.008431 0.025736
v -0.010739 -0.008615 0.026469
v -0.009998 -0.008518 0.025854
v -0.009998 -0.008341 0.025736
v 0.010739 -0.007777 0.026157
v 0.010739 -0.007264 0.026469
v 0.011272 -0.007777 0.025736
v -0.010739 -0.008518 0.026403
v -0.010825 -0.008518 0.026469
v -0.010492 -0.007777 0.025736
v 0.010908 -0.007036 0.026469
v 0.011480 -0.007492 0.025736
v -0.011416 -0.007790 0.026469
v -0.010739 -0.007777 0.025927
v -0.010739 -0.007462 0.025736
v 0.011480 -0.007036 0.026002
v 0.011405 -0.006295 0.026469
v 0.011799 -0.007036 0.025736
v -0.011058 -0.007036 0.025736
v -0.011480 -0.007703 0.026469
v 0.011813 -0.007014 0.025736
v 0.011480 -0.006295 0.026406
v 0.011480 -0.006170 0.026469
v -0.011480 -0.007036 0.026081
v -0.011480 -0.006403 0.025736
v -0.011946 -0.007036 0.026469
v 0.012259 -0.006295 0.025736
v 0.011832 -0.005554 0.026469
v -0.011549 -0.006295 0.025736
v -0.012221 -0.006593 0.026469
v 0.012656 -0.005554 0.025736
v 0.012220 -0.005554 0.026125
v 0.012198 -0.004813 0.026469
v -0.012221 -0.006295 0.026314
v -0.011968 -0.005554 0.025736
v -0.012398 -0.006295 0.026469
v 0.012961 -0.004894 0.025736
v 0.012997 -0.004813 0.025736
v 0.012223 -0.004753 0.026469
v -0.012221 -0.005554 0.025959
v -0.012221 -0.005043 0.025736
v -0.012789 -0.005559 0.026469
v 0.013280 -0.004093 0.025736
v 0.012961 -0.004071 0.026043
v 0.012506 -0.004071 0.026469
v -0.012792 -0.005554 0.026469
v -0.012332 -0.004813 0.025736
v 0.013288 -0.004071 0.025736
v 0.012764 -0.003333 0.026469
v -0.012961 -0.005187 0.026469
v -0.012961 -0.004813 0.026314
v -0.012637 -0.004071 0.025736
v 0.012961 -0.003333 0.026282
v 0.013530 -0.003333 0.025736
v 0.012975 -0.002595 0.026469
v -0.013131 -0.004813 0.026469
v -0.012892 -0.003333 0.025736
v -0.012961 -0.004071 0.026040
v 0.013538 -0.003306 0.025736
v 0.013139 -0.001851 0.026469
v 0.013730 -0.002592 0.025736
v -0.013416 -0.004077 0.026469
v -0.012961 -0.003333 0.025802
v -0.012961 -0.003092 0.025736
v 0.013261 -0.001110 0.026469
v 0.013879 -0.001878 0.025736
v 0.013885 -0.001851 0.025736
v -0.013658 -0.003333 0.026469
v -0.013100 -0.002592 0.025736
v 0.013338 -0.000369 0.026469
v 0.013999 -0.001113 0.025736
v -0.013702 -0.003173 0.026469
v -0.013264 -0.001851 0.025736
v -0.013702 -0.002592 0.026321
v 0.014074 -0.000369 0.025736
v 0.013374 0.000372 0.026469
v -0.013855 -0.002592 0.026469
v -0.013383 -0.001110 0.025736
v -0.014010 -0.001851 0.026469
v 0.014110 0.000372 0.025736
v 0.013372 0.001110 0.026469
v -0.013461 -0.000369 0.025736
v -0.013702 -0.001110 0.026052
v -0.014121 -0.001110 0.026469
v 0.014104 0.001110 0.025736
v 0.013327 0.001852 0.026469
v 0.014062 0.001852 0.025736
v -0.013497 0.000369 0.025736
v -0.013702 -0.000369 0.025977
v -0.014196 -0.000369 0.026469
v 0.013239 0.002593 0.026469
v 0.013979 0.002593 0.025736
v -0.013497 0.000372 0.025736
v -0.013702 0.000372 0.025941
v -0.014232 0.000372 0.026469
v 0.013111 0.003334 0.026469
v 0.013857 0.003331 0.025736
v -0.013494 0.001110 0.025736
v -0.014226 0.001110 0.026469
v 0.012964 0.003969 0.026469
v 0.013702 0.004039 0.025736
v -0.013450 0.001852 0.025736
v -0.014185 0.001852 0.026469
v 0.012939 0.004072 0.026469
v 0.013693 0.004072 0.025736
v -0.013364 0.002593 0.025736
v -0.014101 0.002593 0.026469
v 0.012734 0.004778 0.026469
v 0.013488 0.004813 0.025736
v -0.013236 0.003331 0.025736
v -0.013982 0.003331 0.026469
v 0.012723 0.004813 0.026469
v 0.013241 0.005554 0.025736
v -0.013064 0.004080 0.025736
v -0.013821 0.004072 0.026469
v 0.012459 0.005551 0.026469
v 0.012961 0.005554 0.025999
v 0.012947 0.006295 0.025736
v -0.012961 0.004433 0.025736
v -0.013702 0.004506 0.026469
v -0.013619 0.004805 0.026469
v 0.012220 0.006119 0.026469
v 0.012600 0.007036 0.025736
v 0.012145 0.006295 0.026469
v -0.012850 0.004813 0.025736
v -0.013369 0.005554 0.026469
v -0.012961 0.004813 0.025842
v 0.012220 0.007747 0.025736
v 0.012220 0.007036 0.026077
v 0.011777 0.007036 0.026469
v -0.012590 0.005554 0.025736
v -0.012961 0.005554 0.026085
v -0.013078 0.006295 0.026469
v 0.012204 0.007777 0.025736
v 0.011480 0.007557 0.026469
v -0.012279 0.006295 0.025736
v -0.012961 0.006295 0.026361
v -0.012961 0.006553 0.026469
v 0.011746 0.008518 0.025736
v 0.011480 0.007777 0.026360
v 0.011352 0.007777 0.026469
v -0.012742 0.007028 0.026469
v -0.012221 0.006417 0.025736
v 0.011480 0.008906 0.025736
v 0.011480 0.008518 0.025960
v 0.010867 0.008510 0.026469
v -0.012345 0.007777 0.026469
v -0.012221 0.007036 0.026007
v -0.011915 0.007036 0.025736
v 0.011227 0.009257 0.025736
v 0.010861 0.008518 0.026469
v -0.012221 0.007986 0.026469
v -0.012221 0.007777 0.026361
v -0.011496 0.007774 0.025736
v 0.010739 0.009870 0.025736
v 0.010739 0.009257 0.026124
v 0.010739 0.008684 0.026469
v -0.011899 0.008510 0.026469
v -0.011480 0.007802 0.025736
v 0.010631 0.009998 0.025736
v 0.009998 0.009609 0.026469
v 0.010295 0.009259 0.026469
v -0.011893 0.008518 0.026469
v -0.011480 0.008518 0.026123
v -0.011008 0.008518 0.025736
v 0.009998 0.010690 0.025736
v 0.009998 0.009998 0.026212
v 0.009643 0.010000 0.026469
v -0.011480 0.009118 0.026469
v -0.011380 0.009257 0.026469
v -0.010739 0.008887 0.025736
v 0.009951 0.010739 0.025736
v 0.009258 0.010394 0.026469
v -0.010792 0.009998 0.026469
v -0.010739 0.009257 0.025959
v -0.010453 0.009257 0.025736
v 0.009258 0.011398 0.025736
v 0.009258 0.010739 0.026222
v 0.008891 0.010741 0.026469
v -0.010731 0.010071 0.026469
v -0.010739 0.009998 0.026428
v -0.009998 0.009794 0.025736
v 0.009163 0.011480 0.025736
v 0.008517 0.011070 0.026469
v -0.010120 0.010739 0.026469
v -0.009998 0.009998 0.025871
v -0.009813 0.009998 0.025736
v 0.008517 0.012014 0.025736
v 0.008517 0.011480 0.026155
v 0.008006 0.011482 0.026469
v -0.009998 0.010864 0.026469
v -0.009998 0.010739 0.026381
v -0.009258 0.010565 0.025736
v 0.008242 0.012221 0.025736
v 0.007776 0.011656 0.026469
v -0.009985 0.010877 0.026469
v -0.009258 0.010739 0.025861
v -0.009069 0.010744 0.025736
v 0.007765 0.012563 0.025736
v 0.007776 0.012221 0.026012
v 0.007035 0.012169 0.026469
v -0.009349 0.011480 0.026469
v -0.009258 0.011480 0.026408
v -0.008517 0.011230 0.025736
v 0.007146 0.012962 0.025736
v 0.007035 0.012962 0.025795
v 0.006952 0.012221 0.026469
v -0.009258 0.011561 0.026469
v -0.008517 0.011480 0.025931
v -0.008203 0.011482 0.025736
v 0.007035 0.013030 0.025736
v 0.006295 0.012612 0.026469
v -0.008517 0.012112 0.026469
v -0.007776 0.011808 0.025736
v 0.006306 0.013404 0.025736
v 0.006295 0.012962 0.026158
v 0.005554 0.013000 0.026469
v -0.008342 0.012221 0.026469
v -0.007036 0.012313 0.025736
v -0.007174 0.012221 0.025736
v 0.006295 0.013410 0.025736
v 0.004813 0.013331 0.026469
v -0.007776 0.012555 0.026469
v -0.006295 0.012753 0.025736
v 0.005537 0.013703 0.025736
v 0.004072 0.013613 0.026469
v -0.007036 0.012943 0.026469
v -0.005893 0.012962 0.025736
v 0.004813 0.013936 0.025736
v 0.003801 0.013703 0.026469
v -0.006997 0.012962 0.026469
v -0.005554 0.013133 0.025736
v 0.004072 0.014134 0.025736
v 0.003332 0.013852 0.026469
v -0.006295 0.013279 0.026469
v -0.004813 0.013464 0.025736
v 0.003332 0.014295 0.025736
v 0.002591 0.014045 0.026469
v -0.005554 0.013567 0.026469
v -0.004184 0.013703 0.025736
v 0.002591 0.014411 0.025736
v 0.001850 0.014197 0.026469
v -0.005144 0.013703 0.026469
v -0.004073 0.013744 0.025736
v 0.002303 0.014444 0.025736
v 0.001110 0.014308 0.026469
v -0.004813 0.013809 0.026469
v -0.003332 0.013977 0.025736
v 0.001850 0.014493 0.025736
v 0.000369 0.014382 0.026469
v -0.004073 0.014010 0.026469
v -0.002591 0.014170 0.025736
v 0.001115 0.014534 0.025736
v -0.000366 0.014417 0.026469
v -0.003332 0.014170 0.026469
v -0.001851 0.014322 0.025736
v 0.000369 0.014539 0.025736
v -0.001110 0.014411 0.026469
v -0.002591 0.014289 0.026469
v -0.001110 0.014433 0.025736
v -0.000369 0.014504 0.025736
v -0.001851 0.014368 0.026469
f 1 2 3
f 1 3 4
f 1 4 8
f 1 8 12
f 1 12 16
f 1 16 19
f 1 19 23
f 1 23 27
f 1 27 31
f 1 31 32
f 1 32 36
f 1 36 40
f 1 40 46
f 1 46 51
f 1 51 57
f 1 57 62
f 1 62 66
f 1 66 72
f 1 72 77
f 1 77 83
f 1 83 87
f 1 87 93
f 1 93 98
f 1 98 104
f 1 104 110
f 1 110 115
f 1 115 120
f 1 120 126
f 1 126 132
f 1 132 136
f 1 136 142
f 1 142 147
f 1 147 152
f 1 152 157
f 1 157 163
f 1 163 168
f 1 168 173
f 1 173 178
f 1 178 183
f 1 183 187
f 1 187 191
f 1 191 195
f 1 195 199
f 1 199 203
f 1 203 209
f 1 209 211
f 1 211 217
f 1 217 222
f 1 222 228
f 1 228 233
f 1 233 238
f 1 238 244
f 1 244 249
f 1 249 248
f 1 248 255
f 1 255 260
f 1 260 266
f 1 266 271
f 1 271 277
f 1 277 282
f 1 282 288
f 1 288 294
f 1 294 299
f 1 299 304
f 1 304 309
f 1 309 313
f 1 313 317
f 1 317 321
f 1 321 325
f 1 325 329
f 1 329 333
f 1 333 337
f 1 337 341
f 1 341 345
f 1 345 349
f 1 349 346
f 1 346 342
f 1 342 338
f 1 338 334
f 1 334 330
f 1 330 326
f 1 326 322
f 1 322 318
f 1 318 314
f 1 314 310
f 1 310 305
f 1 305 300
f 1 300 295
f 1 295 289
f 1 289 283
f 1 283 278
f 1 278 272
f 1 272 267
f 1 267 261
f 1 261 257
f 1 257 256
f 1 256 250
f 1 250 245
f 1 245 239
f 1 239 234
f 1 234 229
f 1 229 225
f 1 225 220
f 1 220 213
f 1 213 208
f 1 208 207
f 1 207 202
f 1 202 198
f 1 198 194
f 1 194 190
f 1 190 186
f 1 186 182
f 1 182 177
f 1 177 171
f 1 171 166
f 1 166 164
f 1 164 159
f 1 159 155
f 1 155 149
f 1 149 143
f 1 143 137
f 1 137 133
f 1 133 129
f 1 129 123
f 1 123 117
f 1 117 113
f 1 113 107
f 1 107 100
f 1 100 96
f 1 96 89
f 1 89 85
f 1 85 79
f 1 79 74
f 1 74 68
f 1 68 63
f 1 63 58
f 1 58 53
f 1 53 52
f 1 52 47
f 1 47 42
f 1 42 38
f 1 38 34
f 1 34 29
f 1 29 25
f 1 25 22
f 1 22 18
f 1 18 14
f 1 14 9
f 1 9 5
f 1 5 2
f 2 5 6
f 2 6 10
f 2 10 13
f 2 13 17
f 2 17 21
f 2 21 26
f 2 26 30
f 2 30 35
f 2 35 39
f 2 39 44
f 2 44 49
f 2 49 55
f 2 55 59
f 2 59 64
f 2 64 69
f 2 69 75
f 2 75 80
f 2 80 86
f 2 86 91
f 2 91 97
f 2 97 102
f 2 102 106
f 2 106 112
f 2 112 116
f 2 116 122
f 2 122 128
f 2 128 134
f 2 134 139
f 2 139 144
f 2 144 151
f 2 151 156
f 2 156 160
f 2 160 165
f 2 165 169
f 2 169 175
f 2 175 180
f 2 180 185
f 2 185 189
f 2 189 193
f 2 193 197
f 2 197 201
f 2 201 206
f 2 206 212
f 2 212 218
f 2 218 223
f 2 223 230
f 2 230 236
f 2 236 241
f 2 241 246
f 2 246 252
f 2 252 258
f 2 258 263
f 2 263 269
f 2 269 274
f 2 274 280
f 2 280 285
f 2 285 291
f 2 291 297
f 2 297 301
f 2 301 307
f 2 307 306
f 2 306 311
f 2 311 315
f 2 315 319
f 2 319 323
f 2 323 327
f 2 327 331
f 2 331 335
f 2 335 339
f 2 339 343
f 2 343 347
f 2 347 348
f 2 348 344
f 2 344 340
f 2 340 336
f 2 336 332
f 2 332 328
f 2 328 324
f 2 324 320
f 2 320 316
f 2 316 312
f 2 312 308
f 2 308 302
f 2 302 298
f 2 298 292
f 2 292 286
f 2 286 281
f 2 281 275
f 2 275 270
f 2 270 264
f 2 264 259
f 2 259 253
f 2 253 247
f 2 247 242
f 2 242 237
f 2 237 231
f 2 231 226
f 2 226 221
f 2 221 215
f 2 215 210
f 2 210 205
f 2 205 200
f 2 200 196
f 2 196 192
f 2 192 188
f 2 188 184
f 2 184 179
f 2 179 174
f 2 174 172
f 2 172 167
f 2 167 162
f 2 162 158
f 2 158 154
f 2 154 153
f 2 153 148
f 2 148 146
f 2 146 141
f 2 141 135
f 2 135 130
f 2 130 125
f 2 125 124
f 2 124 118
f 2 118 114
f 2 114 108
f 2 108 105
f 2 105 99
f 2 99 94
f 2 94 88
f 2 88 81
f 2 81 76
f 2 76 70
f 2 70 65
f 2 65 60
f 2 60 56
f 2 56 50
f 2 50 45
f 2 45 41
f 2 41 37
f 2 37 33
f 2 33 28
f 2 28 24
f 2 24 20
f 2 20 15
f 2 15 11
f 2 11 7
f 2 7 3
f 3 7 4
f 4 7 8
f 5 9 6
f 6 9 10
f 7 11 8
f 8 11 12
f 9 13 10
f 9 14 13
f 11 15 12
f 12 15 16
f 13 14 17
f 14 18 17
f 15 19 16
f 15 20 19
f 17 18 22
f 17 22 21
f 19 20 23
f 20 24 23
f 21 22 25
f 21 25 26
f 23 24 27
f 24 28 27
f 25 29 26
f 26 29 30
f 27 28 31
f 28 32 31
f 28 33 32
f 29 34 30
f 30 34 35
f 32 33 36
f 33 37 36
f 34 38 35
f 35 38 39
f 36 37 41
f 36 41 40
f 38 42 39
f 39 42 43
f 39 43 44
f 40 41 45
f 40 45 46
f 42 47 43
f 43 47 44
f 44 47 48
f 44 48 49
f 45 50 46
f 46 50 51
f 47 52 48
f 48 52 49
f 49 52 53
f 49 53 54
f 49 54 55
f 50 56 51
f 51 56 57
f 53 58 54
f 54 58 59
f 54 59 55
f 56 60 61
f 56 61 57
f 57 61 62
f 58 63 64
f 58 64 59
f 60 62 61
f 60 65 62
f 62 65 66
f 63 67 64
f 63 68 67
f 64 67 69
f 65 70 71
f 65 71 66
f 66 71 72
f 67 68 73
f 67 73 69
f 68 74 73
f 69 73 75
f 70 72 71
f 70 76 77
f 70 77 72
f 73 74 78
f 73 78 75
f 74 79 78
f 75 78 80
f 76 81 82
f 76 82 77
f 77 82 83
f 78 79 84
f 78 84 80
f 79 85 84
f 80 84 86
f 81 87 83
f 81 83 82
f 81 88 87
f 84 85 86
f 85 89 90
f 85 90 86
f 86 90 91
f 87 88 92
f 87 92 93
f 88 94 92
f 89 95 90
f 89 96 95
f 90 95 91
f 91 95 97
f 92 94 93
f 93 94 98
f 94 99 98
f 95 96 97
f 96 100 101
f 96 101 97
f 97 101 102
f 98 99 103
f 98 103 104
f 99 105 103
f 100 106 102
f 100 102 101
f 100 107 106
f 103 105 104
f 104 105 108
f 104 108 109
f 104 109 110
f 106 107 111
f 106 111 112
f 107 113 111
f 108 114 109
f 109 114 110
f 110 114 115
f 111 113 112
f 112 113 116
f 113 117 116
f 114 118 119
f 114 119 115
f 115 119 120
f 116 117 121
f 116 121 122
f 117 123 121
f 118 120 119
f 118 124 120
f 120 124 125
f 120 125 126
f 121 123 122
f 122 123 127
f 122 127 128
f 123 129 127
f 125 130 131
f 125 131 132
f 125 132 126
f 127 129 133
f 127 133 128
f 128 133 134
f 130 135 131
f 131 135 136
f 131 136 132
f 133 137 134
f 134 137 138
f 134 138 139
f 135 140 136
f 135 141 140
f 136 140 142
f 137 143 138
f 138 143 139
f 139 143 145
f 139 145 144
f 140 141 146
f 140 146 142
f 142 146 148
f 142 148 147
f 143 149 145
f 144 145 149
f 144 149 150
f 144 150 151
f 147 148 153
f 147 153 154
f 147 154 152
f 149 155 150
f 150 155 151
f 151 155 156
f 152 154 158
f 152 158 157
f 155 159 156
f 156 159 161
f 156 161 160
f 157 158 162
f 157 162 167
f 157 167 163
f 159 164 161
f 160 161 164
f 160 164 166
f 160 166 165
f 163 167 168
f 165 166 170
f 165 170 169
f 166 171 170
f 167 172 168
f 168 172 174
f 168 174 173
f 169 170 171
f 169 171 176
f 169 176 175
f 171 177 176
f 173 174 179
f 173 179 178
f 175 176 181
f 175 181 180
f 176 177 182
f 176 182 181
f 178 179 184
f 178 184 183
f 180 181 185
f 181 182 185
f 182 186 185
f 183 184 188
f 183 188 187
f 185 186 190
f 185 190 189
f 187 188 191
f 188 192 191
f 189 190 194
f 189 194 193
f 191 192 196
f 191 196 195
f 193 194 198
f 193 198 197
f 195 196 199
f 196 200 199
f 197 198 202
f 197 202 201
f 199 200 204
f 199 204 203
f 200 205 204
f 201 202 207
f 201 207 208
f 201 208 206
f 203 204 205
f 203 205 209
f 205 210 211
f 205 211 209
f 206 208 212
f 208 213 214
f 208 214 212
f 210 215 216
f 210 216 211
f 211 216 217
f 212 214 213
f 212 213 219
f 212 219 218
f 213 220 219
f 215 221 217
f 215 217 216
f 217 221 222
f 218 219 220
f 218 220 224
f 218 224 223
f 220 225 224
f 221 226 227
f 221 227 222
f 222 227 228
f 223 224 225
f 223 225 229
f 223 229 230
f 226 231 232
f 226 232 228
f 226 228 227
f 228 232 233
f 229 234 235
f 229 235 230
f 230 235 236
f 231 237 238
f 231 238 232
f 232 238 233
f 234 239 240
f 234 240 236
f 234 236 235
f 236 240 241
f 237 242 243
f 237 243 244
f 237 244 238
f 239 245 246
f 239 246 241
f 239 241 240
f 242 247 248
f 242 248 249
f 242 249 243
f 243 249 244
f 245 250 251
f 245 251 246
f 246 251 252
f 247 253 254
f 247 254 248
f 248 254 255
f 250 256 251
f 251 256 252
f 252 256 257
f 252 257 258
f 253 259 255
f 253 255 254
f 255 259 260
f 257 261 262
f 257 262 258
f 258 262 263
f 259 264 265
f 259 265 260
f 260 265 266
f 261 267 268
f 261 268 262
f 262 268 263
f 263 268 269
f 264 270 271
f 264 271 266
f 264 266 265
f 267 272 273
f 267 273 269
f 267 269 268
f 269 273 274
f 270 275 276
f 270 276 271
f 271 276 277
f 272 278 279
f 272 279 273
f 273 279 274
f 274 279 280
f 275 281 282
f 275 282 277
f 275 277 276
f 278 283 280
f 278 280 279
f 280 284 285
f 280 283 284
f 281 286 287
f 281 287 282
f 282 287 288
f 283 289 284
f 284 289 285
f 285 289 290
f 285 290 291
f 286 292 288
f 286 288 287
f 288 292 293
f 288 293 294
f 289 295 290
f 290 295 291
f 291 296 297
f 291 295 296
f 292 298 293
f 293 298 299
f 293 299 294
f 295 300 301
f 295 301 296
f 296 301 297
f 298 302 303
f 298 303 299
f 299 303 304
f 300 305 306
f 300 306 307
f 300 307 301
f 302 308 304
f 302 304 303
f 304 308 309
f 305 310 311
f 305 311 306
f 308 312 309
f 309 312 313
f 310 314 311
f 311 314 315
f 312 316 317
f 312 317 313
f 314 318 319
f 314 319 315
f 316 320 321
f 316 321 317
f 318 322 319
f 319 322 323
f 320 324 325
f 320 325 321
f 322 326 323
f 323 326 327
f 324 328 329
f 324 329 325
f 326 330 331
f 326 331 327
f 328 332 333
f 328 333 329
f 330 334 331
f 331 334 335
f 332 336 333
f 333 336 337
f 334 338 335
f 335 338 339
f 336 340 337
f 337 340 341
f 338 342 339
f 339 342 343
f 340 344 341
f 341 344 345
f 342 346 343
f 343 346 347
f 344 348 345
f 345 348 349
f 346 349 347
f 347 349 348
