v -0.013989 -0.000370 0.027940
v -0.013985 -0.001109 0.027940
v -0.013254 -0.000372 0.028676
v -0.013953 0.000370 0.027941
v -0.013953 0.000370 0.027940
v -0.013942 -0.001848 0.027940
v -0.013249 -0.001109 0.028676
v -0.013216 0.000370 0.028676
v -0.013878 0.001112 0.027940
v -0.013858 -0.002593 0.027940
v -0.013940 -0.001851 0.027941
v -0.013203 -0.001851 0.028676
v -0.013136 0.001109 0.028676
v -0.013763 0.001851 0.027941
v -0.013763 0.001851 0.027940
v -0.013116 -0.002590 0.028676
v -0.013736 -0.003333 0.027940
v -0.013014 0.001851 0.028676
v -0.013704 0.002131 0.027940
v -0.013606 0.002591 0.027941
v -0.012986 -0.003333 0.028676
v -0.013571 -0.004072 0.027940
v -0.012962 0.002087 0.028676
v -0.013606 0.002593 0.027940
v -0.013406 0.003333 0.027940
v -0.012962 0.002591 0.028566
v -0.012962 -0.004072 0.028530
v -0.012811 -0.004072 0.028676
v -0.013366 -0.004809 0.027940
v -0.012848 0.002591 0.028676
v -0.012962 0.003333 0.028365
v -0.013160 0.004072 0.027940
v -0.012962 -0.004814 0.028324
v -0.012593 -0.004811 0.028676
v -0.013111 -0.005559 0.027940
v -0.013363 -0.004814 0.027941
v -0.012635 0.003333 0.028676
v -0.012962 0.004072 0.028127
v -0.012964 0.004573 0.027940
v -0.012962 -0.005553 0.028082
v -0.012326 -0.005553 0.028676
v -0.012962 -0.005931 0.027941
v -0.012962 -0.005934 0.027940
v -0.012375 0.004072 0.028676
v -0.012865 0.004814 0.027941
v -0.012865 0.004817 0.027940
v -0.012815 -0.006296 0.027941
v -0.012222 -0.005803 0.028676
v -0.012815 -0.006296 0.027940
v -0.012222 0.004442 0.028676
v -0.012222 0.004814 0.028531
v -0.012521 0.005554 0.027940
v -0.012466 -0.007035 0.027941
v -0.012222 -0.006296 0.028483
v -0.012009 -0.006296 0.028676
v -0.012466 -0.007035 0.027940
v -0.012061 0.004814 0.028676
v -0.012223 0.006110 0.027940
v -0.012222 0.005554 0.028208
v -0.012222 -0.007492 0.027941
v -0.012222 -0.007035 0.028160
v -0.011638 -0.007035 0.028676
v -0.012222 -0.007492 0.027940
v -0.011692 0.005554 0.028676
v -0.012119 0.006296 0.027941
v -0.012119 0.006296 0.027940
v -0.012065 -0.007777 0.027940
v -0.011481 -0.007312 0.028676
v -0.011481 0.005923 0.028676
v -0.011481 0.006296 0.028489
v -0.011656 0.007035 0.027940
v -0.011603 -0.008516 0.027940
v -0.011603 -0.008516 0.027941
v -0.011481 -0.007777 0.028444
v -0.011207 -0.007777 0.028676
v -0.011259 0.006296 0.028676
v -0.011481 0.007284 0.027941
v -0.011481 0.007284 0.027940
v -0.011481 0.007035 0.028086
v -0.011481 -0.008694 0.027940
v -0.011481 -0.008694 0.027941
v -0.011481 -0.008516 0.028044
v -0.010739 -0.008475 0.028676
v -0.010758 0.007035 0.028676
v -0.010741 0.007060 0.028676
v -0.011118 0.007777 0.027941
v -0.011120 0.007777 0.027940
v -0.011074 -0.009259 0.027940
v -0.010711 -0.008516 0.028676
v -0.011074 -0.009259 0.027941
v -0.010173 0.007777 0.028676
v -0.010739 0.007777 0.028240
v -0.010739 0.008240 0.027941
v -0.010741 0.008240 0.027940
v -0.010741 -0.009678 0.027940
v -0.010739 -0.009259 0.028208
v -0.010137 -0.009259 0.028676
v -0.010739 -0.009678 0.027941
v -0.009999 0.007975 0.028676
v -0.010500 0.008517 0.027941
v -0.010501 0.008517 0.027940
v -0.010470 -0.009998 0.027940
v -0.010470 -0.009998 0.027941
v -0.009999 -0.009420 0.028676
v -0.009999 0.008517 0.028312
v -0.008829 0.009259 0.028676
v -0.010005 0.009043 0.027940
v -0.010000 -0.010513 0.027940
v -0.009999 -0.010513 0.027941
v -0.009999 -0.009998 0.028295
v -0.009476 -0.009998 0.028676
v -0.008518 0.009574 0.028676
v -0.009783 0.009259 0.027941
v -0.009785 0.009259 0.027940
v -0.009777 -0.010740 0.027940
v -0.009778 -0.010740 0.027941
v -0.009258 -0.010220 0.028676
v -0.008068 0.009998 0.028676
v -0.009258 0.009735 0.027941
v -0.009265 0.009730 0.027940
v -0.009258 -0.011233 0.027940
v -0.009258 -0.011233 0.027941
v -0.009258 -0.010740 0.028306
v -0.008708 -0.010740 0.028676
v -0.007778 0.010253 0.028676
v -0.008943 0.009998 0.027940
v -0.009258 0.009735 0.027940
v -0.008976 -0.011479 0.027940
v -0.008518 -0.010907 0.028676
v -0.008976 -0.011479 0.027941
v -0.007161 0.010740 0.028676
v -0.008520 0.010330 0.027940
v -0.008518 -0.011857 0.027940
v -0.008518 -0.011479 0.028239
v -0.007778 -0.011504 0.028676
v -0.008518 -0.011857 0.027941
v -0.007037 0.010834 0.028676
v -0.007936 0.010740 0.027940
v -0.008036 -0.012222 0.027940
v -0.008038 -0.012222 0.027941
v -0.007778 -0.012222 0.028095
v -0.007036 -0.012019 0.028676
v -0.006295 0.011332 0.028676
v -0.007771 0.010850 0.027940
v -0.007778 -0.012408 0.027940
v -0.007778 -0.012408 0.027941
v -0.007036 -0.012222 0.028509
v -0.006714 -0.012222 0.028676
v -0.006046 0.011480 0.028676
v -0.007036 0.011288 0.027941
v -0.007036 0.011288 0.027940
v -0.007036 -0.012887 0.027940
v -0.007036 -0.012887 0.027941
v -0.006295 -0.012471 0.028676
v -0.005556 0.011759 0.028676
v -0.006673 0.011480 0.027940
v -0.006909 -0.012961 0.027940
v -0.006910 -0.012961 0.027941
v -0.006295 -0.012961 0.028247
v -0.005556 -0.012862 0.028676
v -0.006297 0.011672 0.027940
v -0.004816 0.012129 0.028676
v -0.006295 -0.013306 0.027940
v -0.006295 -0.013309 0.027941
v -0.005556 -0.013676 0.027941
v -0.005341 -0.012961 0.028676
v -0.005556 0.011997 0.027940
v -0.004600 0.012222 0.028676
v -0.005556 -0.013673 0.027940
v -0.005493 -0.013703 0.027941
v -0.004816 -0.013197 0.028676
v -0.004076 0.012438 0.028676
v -0.004954 0.012222 0.027940
v -0.004816 -0.013988 0.027940
v -0.004816 -0.013703 0.028209
v -0.004816 -0.013991 0.027941
v -0.004076 -0.013484 0.028676
v -0.004816 0.012271 0.027940
v -0.003334 0.012698 0.028676
v -0.004076 -0.014256 0.027940
v -0.004076 -0.014259 0.027941
v -0.004076 -0.013703 0.028470
v -0.003335 -0.013725 0.028676
v -0.004076 0.012496 0.027940
v -0.002593 0.012912 0.028676
v -0.003334 -0.014418 0.027940
v -0.003334 -0.014418 0.027941
v -0.002593 -0.013919 0.028676
v -0.003334 0.012674 0.027940
v -0.001853 0.013076 0.028676
v -0.003180 -0.014443 0.027940
v -0.003180 -0.014443 0.027941
v -0.001853 -0.014073 0.028676
v -0.002579 0.012808 0.027940
v -0.001112 0.013197 0.028676
v -0.002593 -0.014536 0.027940
v -0.002593 -0.014536 0.027941
v -0.001112 -0.014185 0.028676
v -0.001853 0.012896 0.027940
v -0.000372 0.013276 0.028676
v -0.001848 -0.014615 0.027940
v -0.001853 -0.014615 0.027941
v -0.000370 -0.014259 0.028676
v -0.001112 0.012942 0.027940
v 0.000370 0.013315 0.028676
v -0.001112 -0.014656 0.027940
v -0.001112 -0.014656 0.027941
v 0.000370 -0.014292 0.028676
v -0.000370 0.012948 0.027940
v 0.001110 0.013309 0.028676
v -0.000353 0.012948 0.027940
v -0.000370 -0.014659 0.027940
v -0.000370 -0.014662 0.027941
v 0.001110 -0.014289 0.028676
v 0.001851 0.013263 0.028676
v 0.000376 0.012909 0.027940
v -0.000366 -0.014659 0.027940
v 0.000370 -0.014626 0.027940
v 0.000370 -0.014626 0.027941
v 0.001851 -0.014245 0.028676
v 0.002207 0.013221 0.028676
v 0.001114 0.012827 0.027940
v 0.001110 -0.014555 0.027940
v 0.001110 -0.014555 0.027941
v 0.002207 -0.014207 0.028676
v 0.002207 0.013065 0.028469
v 0.001851 0.012704 0.027940
v 0.001851 -0.014445 0.027940
v 0.001851 -0.014445 0.027941
v 0.002207 -0.014374 0.027941
v 0.002207 0.012619 0.027941
v 0.002207 0.012611 0.027940
v 0.002168 -0.014380 0.027940
v 0.002207 -0.013766 0.027940
f 1 2 3
f 1 3 4
f 1 4 5
f 1 5 9
f 1 9 15
f 1 15 19
f 1 19 24
f 1 24 25
f 1 25 32
f 1 32 39
f 1 39 46
f 1 46 52
f 1 52 58
f 1 58 66
f 1 66 71
f 1 71 78
f 1 78 87
f 1 87 94
f 1 94 101
f 1 101 107
f 1 107 114
f 1 114 120
f 1 120 127
f 1 127 126
f 1 126 132
f 1 132 138
f 1 138 144
f 1 144 151
f 1 151 156
f 1 156 161
f 1 161 167
f 1 167 173
f 1 173 178
f 1 178 184
f 1 184 189
f 1 189 194
f 1 194 199
f 1 199 204
f 1 204 209
f 1 209 211
f 1 211 216
f 1 216 222
f 1 222 227
f 1 227 232
f 1 232 234
f 1 234 233
f 1 233 228
f 1 228 223
f 1 223 218
f 1 218 217
f 1 217 212
f 1 212 206
f 1 206 201
f 1 201 196
f 1 196 191
f 1 191 186
f 1 186 180
f 1 180 174
f 1 174 169
f 1 169 163
f 1 163 157
f 1 157 152
f 1 152 145
f 1 145 139
f 1 139 133
f 1 133 128
f 1 128 121
f 1 121 115
f 1 115 108
f 1 108 102
f 1 102 95
f 1 95 88
f 1 88 80
f 1 80 72
f 1 72 67
f 1 67 63
f 1 63 56
f 1 56 49
f 1 49 43
f 1 43 35
f 1 35 29
f 1 29 22
f 1 22 17
f 1 17 10
f 1 10 6
f 1 6 2
f 2 6 7
f 2 7 3
f 3 8 4
f 3 7 12
f 3 12 16
f 3 16 21
f 3 21 28
f 3 28 34
f 3 34 41
f 3 41 48
f 3 48 55
f 3 55 62
f 3 62 68
f 3 68 75
f 3 75 83
f 3 83 89
f 3 89 97
f 3 97 104
f 3 104 111
f 3 111 117
f 3 117 124
f 3 124 129
f 3 129 135
f 3 135 142
f 3 142 148
f 3 148 154
f 3 154 160
f 3 160 166
f 3 166 171
f 3 171 177
f 3 177 183
f 3 183 188
f 3 188 193
f 3 193 198
f 3 198 203
f 3 203 208
f 3 208 214
f 3 214 220
f 3 220 225
f 3 225 221
f 3 221 215
f 3 215 210
f 3 210 205
f 3 205 200
f 3 200 195
f 3 195 190
f 3 190 185
f 3 185 179
f 3 179 172
f 3 172 168
f 3 168 162
f 3 162 155
f 3 155 149
f 3 149 143
f 3 143 137
f 3 137 131
f 3 131 125
f 3 125 118
f 3 118 112
f 3 112 106
f 3 106 99
f 3 99 91
f 3 91 85
f 3 85 84
f 3 84 76
f 3 76 69
f 3 69 64
f 3 64 57
f 3 57 50
f 3 50 44
f 3 44 37
f 3 37 30
f 3 30 23
f 3 23 18
f 3 18 13
f 3 13 8
f 4 8 9
f 4 9 5
f 6 10 11
f 6 11 12
f 6 12 7
f 8 13 9
f 9 14 15
f 9 13 14
f 10 16 12
f 10 12 11
f 10 17 16
f 13 18 14
f 14 19 15
f 14 18 20
f 14 20 19
f 16 17 21
f 17 22 21
f 18 23 20
f 19 20 24
f 20 25 24
f 20 23 26
f 20 26 25
f 21 22 27
f 21 27 28
f 22 29 27
f 23 30 26
f 25 26 30
f 25 30 31
f 25 31 32
f 27 29 28
f 28 29 33
f 28 33 34
f 29 35 36
f 29 36 33
f 30 37 31
f 31 37 32
f 32 37 38
f 32 38 39
f 33 36 35
f 33 35 34
f 34 35 40
f 34 40 41
f 35 42 40
f 35 43 42
f 37 44 38
f 38 44 39
f 39 45 46
f 39 44 45
f 40 42 41
f 41 42 47
f 41 47 48
f 42 43 47
f 43 49 47
f 44 50 45
f 45 50 51
f 45 51 52
f 45 52 46
f 47 49 56
f 47 56 53
f 47 53 54
f 47 54 48
f 48 54 55
f 50 57 51
f 51 57 52
f 52 57 59
f 52 59 58
f 53 55 54
f 53 56 63
f 53 63 60
f 53 60 61
f 53 61 55
f 55 61 62
f 57 64 59
f 58 65 66
f 58 59 64
f 58 64 65
f 60 62 61
f 60 63 67
f 60 67 62
f 62 67 68
f 64 69 65
f 65 69 70
f 65 70 71
f 65 71 66
f 67 72 73
f 67 73 74
f 67 74 68
f 68 74 75
f 69 76 70
f 70 76 71
f 71 77 78
f 71 76 79
f 71 79 77
f 72 80 81
f 72 81 73
f 73 81 82
f 73 82 75
f 73 75 74
f 75 82 83
f 76 84 79
f 77 79 85
f 77 85 86
f 77 86 87
f 77 87 78
f 79 84 85
f 80 88 90
f 80 90 81
f 81 89 82
f 81 90 89
f 82 89 83
f 85 91 92
f 85 92 86
f 86 92 93
f 86 93 94
f 86 94 87
f 88 95 90
f 89 90 96
f 89 96 97
f 90 95 98
f 90 98 96
f 91 99 100
f 91 100 93
f 91 93 92
f 93 100 101
f 93 101 94
f 95 102 103
f 95 103 98
f 96 98 97
f 97 98 103
f 97 103 104
f 99 105 100
f 99 106 105
f 100 105 106
f 100 106 107
f 100 107 101
f 102 108 103
f 103 108 109
f 103 109 110
f 103 110 104
f 104 110 111
f 106 112 107
f 107 112 113
f 107 113 114
f 108 115 116
f 108 116 109
f 109 116 111
f 109 111 110
f 111 116 117
f 112 118 113
f 113 118 119
f 113 119 114
f 114 119 120
f 115 121 116
f 116 121 122
f 116 122 123
f 116 123 117
f 117 123 124
f 118 125 119
f 119 125 126
f 119 126 127
f 119 127 120
f 121 128 130
f 121 130 122
f 122 129 124
f 122 124 123
f 122 130 129
f 125 131 126
f 126 131 132
f 128 133 136
f 128 136 130
f 129 130 134
f 129 134 135
f 130 136 134
f 131 137 132
f 132 137 138
f 133 139 140
f 133 140 136
f 134 136 135
f 135 136 140
f 135 140 141
f 135 141 142
f 137 143 138
f 138 143 144
f 139 145 140
f 140 145 146
f 140 146 141
f 141 146 147
f 141 147 142
f 142 147 148
f 143 149 150
f 143 150 144
f 144 150 151
f 145 152 153
f 145 153 146
f 146 153 147
f 147 153 148
f 148 153 154
f 149 155 150
f 150 155 156
f 150 156 151
f 152 157 158
f 152 158 153
f 153 158 154
f 154 158 159
f 154 159 160
f 155 161 156
f 155 162 161
f 157 163 164
f 157 164 158
f 158 164 159
f 159 164 160
f 160 164 165
f 160 165 166
f 161 162 167
f 162 168 167
f 163 169 165
f 163 165 164
f 165 169 170
f 165 170 171
f 165 171 166
f 167 168 172
f 167 172 173
f 169 174 170
f 170 175 171
f 170 174 176
f 170 176 175
f 171 175 177
f 172 178 173
f 172 179 178
f 174 180 181
f 174 181 176
f 175 176 177
f 176 181 182
f 176 182 177
f 177 182 183
f 178 179 184
f 179 185 184
f 180 186 181
f 181 186 187
f 181 187 188
f 181 188 183
f 181 183 182
f 184 185 189
f 185 190 189
f 186 191 192
f 186 192 187
f 187 192 193
f 187 193 188
f 189 190 194
f 190 195 194
f 191 196 197
f 191 197 192
f 192 197 193
f 193 197 198
f 194 195 199
f 195 200 199
f 196 201 202
f 196 202 197
f 197 202 198
f 198 202 203
f 199 200 204
f 200 205 204
f 201 206 202
f 202 206 207
f 202 207 203
f 203 207 208
f 204 205 209
f 205 210 211
f 205 211 209
f 206 212 213
f 206 213 207
f 207 213 208
f 208 213 214
f 210 215 216
f 210 216 211
f 212 217 213
f 213 217 218
f 213 218 219
f 213 219 214
f 214 219 220
f 215 221 222
f 215 222 216
f 218 223 224
f 218 224 219
f 219 224 220
f 220 224 225
f 221 226 222
f 221 225 230
f 221 230 234
f 221 234 232
f 221 232 231
f 221 231 226
f 222 226 227
f 223 228 229
f 223 229 224
f 224 229 225
f 225 229 230
f 226 231 227
f 227 231 232
f 228 233 230
f 228 230 229
f 230 233 234
