v 0.013361 0.001281 0.026471
v 0.013326 0.001853 0.026469
v 0.013326 0.001853 0.026471
v 0.013045 0.001281 0.026855
v 0.013107 0.001281 0.026469
v 0.013238 0.002594 0.026469
v 0.013238 0.002594 0.026471
v 0.012963 0.001281 0.026945
v -0.013139 0.001281 0.026469
v 0.013110 0.003336 0.026469
v 0.012851 0.001281 0.027067
v 0.013110 0.003334 0.026471
v 0.012769 0.001853 0.027067
v -0.014217 0.001281 0.026471
v -0.014184 0.001853 0.026469
v 0.012963 0.003977 0.026469
v -0.014519 0.001281 0.027067
v 0.012963 0.003972 0.026471
v 0.012963 0.003334 0.026616
v 0.012502 0.003334 0.027067
v -0.014383 0.001281 0.026785
v -0.014105 0.002594 0.026471
v -0.014102 0.002594 0.026469
v 0.012938 0.004075 0.026469
v 0.012938 0.004075 0.026471
v 0.012469 0.003473 0.027067
v -0.014446 0.001853 0.027067
v -0.014443 0.001853 0.027060
v -0.013982 0.003334 0.026469
v 0.012734 0.004778 0.026469
v 0.012291 0.004178 0.027067
v 0.012321 0.004075 0.027067
v 0.012357 0.003931 0.027067
v -0.014309 0.002594 0.027067
v -0.013821 0.004075 0.026469
v 0.012723 0.004816 0.026469
v 0.012220 0.004816 0.026946
v 0.012092 0.004816 0.027067
v -0.014135 0.003334 0.027067
v -0.013703 0.004512 0.026471
v -0.013703 0.004507 0.026469
v 0.012458 0.005558 0.026469
v 0.012220 0.005556 0.026691
v 0.011814 0.005556 0.027067
v -0.013916 0.004075 0.027067
v -0.013619 0.004816 0.026471
v -0.013619 0.004808 0.026469
v 0.012220 0.006121 0.026469
v 0.011757 0.005696 0.027067
v -0.013892 0.004157 0.027067
v -0.013370 0.005556 0.026469
v 0.012144 0.006297 0.026469
v 0.012144 0.006297 0.026471
v 0.011606 0.006033 0.027067
v -0.013652 0.004816 0.027067
v -0.013370 0.005556 0.026471
v -0.013081 0.006297 0.026471
v -0.013078 0.006297 0.026469
v 0.011784 0.007026 0.026469
v 0.011481 0.006306 0.027067
v -0.013289 0.005696 0.027067
v -0.012961 0.006559 0.026471
v -0.012961 0.006557 0.026469
v 0.011481 0.007561 0.026469
v 0.011481 0.007038 0.026732
v 0.011096 0.007038 0.027067
v -0.012920 0.006436 0.027067
v -0.012740 0.007038 0.026471
v -0.012737 0.007038 0.026469
v 0.011353 0.007778 0.026469
v 0.011039 0.007137 0.027067
v -0.012494 0.007178 0.027067
v -0.012347 0.007778 0.026471
v -0.012344 0.007778 0.026469
v 0.011014 0.007178 0.027067
v 0.010867 0.008510 0.026469
v 0.010739 0.007778 0.026988
v 0.010856 0.007443 0.027067
v -0.012222 0.007594 0.027067
v -0.011894 0.008517 0.026471
v -0.012222 0.007989 0.026471
v -0.012222 0.007986 0.026469
v 0.010739 0.008685 0.026469
v 0.010739 0.008517 0.026569
v 0.010643 0.007778 0.027067
v 0.010739 0.007628 0.027067
v -0.012006 0.007917 0.027067
v -0.011894 0.008517 0.026469
v -0.011479 0.009121 0.026471
v 0.010294 0.009258 0.026471
v 0.009999 0.008673 0.027067
v 0.010119 0.008517 0.027067
v 0.010294 0.009259 0.026469
v -0.011452 0.008658 0.027067
v -0.011381 0.009258 0.026471
v -0.011479 0.009119 0.026469
v 0.009999 0.009609 0.026469
v 0.009999 0.009258 0.026700
v 0.009513 0.009258 0.027067
v -0.010813 0.009398 0.027067
v -0.010740 0.010063 0.026471
v -0.010794 0.009999 0.026471
v -0.011378 0.009258 0.026469
v 0.009644 0.010000 0.026469
v 0.009644 0.009999 0.026471
v 0.009456 0.009325 0.027067
v -0.010751 0.009465 0.027067
v -0.010123 0.010741 0.026471
v -0.010740 0.010062 0.026469
v -0.010791 0.009999 0.026469
v 0.009257 0.010393 0.026469
v 0.009257 0.010392 0.026471
v 0.009257 0.009999 0.026751
v 0.009330 0.009463 0.027067
v -0.010740 0.009477 0.027067
v -0.010079 0.010139 0.027067
v -0.009997 0.010865 0.026471
v -0.009997 0.010864 0.026469
v -0.010120 0.010741 0.026469
v 0.008891 0.010741 0.026469
v 0.008891 0.010741 0.026471
v 0.008733 0.010073 0.027067
v 0.008806 0.009999 0.027067
v 0.009257 0.009540 0.027067
v -0.009997 0.010213 0.027067
v -0.009350 0.011481 0.026471
v -0.009348 0.011481 0.026469
v 0.008517 0.011070 0.026469
v 0.008517 0.011069 0.026471
v 0.008517 0.010741 0.026722
v 0.008588 0.010210 0.027067
v -0.009258 0.010851 0.027067
v -0.009258 0.011562 0.026471
v -0.009258 0.011561 0.026469
v 0.008007 0.011483 0.026469
v 0.008007 0.011481 0.026471
v 0.007777 0.010905 0.027067
v 0.007979 0.010741 0.027067
v 0.008517 0.010274 0.027067
v -0.008821 0.011177 0.027067
v -0.008518 0.011481 0.027002
v -0.008518 0.012114 0.026471
v -0.008518 0.012113 0.026469
v 0.007777 0.011657 0.026469
v 0.007777 0.011656 0.026471
v 0.007777 0.011481 0.026612
v 0.007035 0.011453 0.027067
v -0.008518 0.011402 0.027067
v -0.008395 0.011481 0.027067
v -0.008210 0.011601 0.027067
v -0.008343 0.012222 0.026471
v -0.007882 0.011805 0.027067
v -0.008341 0.012222 0.026469
v 0.007035 0.012169 0.026469
v 0.007035 0.012168 0.026471
v 0.007035 0.011481 0.027044
v 0.006994 0.011481 0.027067
v -0.007776 0.011870 0.027067
v -0.007776 0.012222 0.026764
v -0.007776 0.012556 0.026471
v -0.007776 0.012556 0.026469
v 0.006951 0.012222 0.026469
v 0.006795 0.011610 0.027067
v 0.006418 0.011849 0.027067
v -0.007143 0.012222 0.027067
v -0.007036 0.012278 0.027067
v -0.007036 0.012945 0.026471
v -0.007036 0.012943 0.026469
v 0.006296 0.012613 0.026469
v 0.006296 0.012612 0.026471
v 0.006296 0.012222 0.026811
v 0.006296 0.011924 0.027067
v -0.006872 0.012358 0.027067
v -0.006428 0.012570 0.027067
v -0.006998 0.012963 0.026471
v -0.006995 0.012963 0.026469
v 0.005627 0.012963 0.026469
v 0.005553 0.012332 0.027067
v 0.005761 0.012222 0.027067
v 0.005815 0.012192 0.027067
v -0.006294 0.012963 0.026764
v -0.006294 0.012631 0.027067
v -0.006294 0.013280 0.026471
v -0.006294 0.013279 0.026469
v 0.005553 0.013000 0.026469
v 0.005553 0.012999 0.026471
v 0.005553 0.012963 0.026503
v 0.004814 0.012682 0.027067
v -0.005674 0.012884 0.027067
v -0.005554 0.012963 0.027040
v -0.005554 0.013568 0.026471
v -0.005552 0.013568 0.026469
v 0.004814 0.013332 0.026469
v 0.004814 0.012963 0.026811
v 0.004333 0.012879 0.027067
v -0.005554 0.012933 0.027067
v -0.005472 0.012963 0.027067
v -0.005142 0.013077 0.027067
v -0.004877 0.013167 0.027067
v -0.005145 0.013703 0.026471
v -0.005145 0.013703 0.026469
v 0.004074 0.013616 0.026469
v 0.004074 0.012982 0.027067
v -0.004815 0.013188 0.027067
v -0.004815 0.013703 0.026574
v -0.004815 0.013811 0.026471
v -0.004815 0.013810 0.026469
v 0.003332 0.013852 0.026469
v 0.003798 0.013703 0.026471
v 0.003332 0.013230 0.027067
v 0.003419 0.013202 0.027067
v 0.003717 0.013103 0.027067
v -0.004072 0.013397 0.027067
v -0.004072 0.014010 0.026471
v -0.004072 0.014010 0.026469
v -0.004072 0.013703 0.026770
v 0.002764 0.013387 0.027067
v 0.003332 0.013703 0.026614
v 0.002592 0.014045 0.026469
v 0.002592 0.014045 0.026471
v 0.002592 0.013703 0.026804
v 0.002592 0.013433 0.027067
v -0.003333 0.013563 0.027067
v -0.003333 0.013703 0.026930
v -0.003333 0.014170 0.026471
v -0.003333 0.014170 0.026469
v 0.001850 0.014198 0.026469
v 0.002106 0.013537 0.027067
v 0.001850 0.013703 0.026958
v 0.001850 0.013591 0.027067
v -0.002664 0.013676 0.027067
v -0.002590 0.013703 0.027052
v -0.002590 0.014290 0.026471
v -0.002590 0.014290 0.026469
v 0.001146 0.013703 0.027067
v 0.001525 0.013644 0.027067
v 0.001110 0.014310 0.026469
v -0.002590 0.013688 0.027067
v -0.002459 0.013703 0.027067
v -0.001927 0.013764 0.027067
v -0.001851 0.014371 0.026471
v -0.001851 0.014369 0.026469
v 0.001102 0.013710 0.027067
v 0.000368 0.014382 0.026469
v 0.000368 0.014382 0.026471
v 0.000368 0.013784 0.027067
v -0.001851 0.013771 0.027067
v -0.001109 0.014412 0.026471
v -0.001109 0.014412 0.026469
v -0.001109 0.013816 0.027067
v -0.000369 0.014417 0.026469
v -0.000372 0.013820 0.027067
f 1 2 3
f 1 3 4
f 1 4 8
f 1 8 11
f 1 11 17
f 1 17 21
f 1 21 14
f 1 14 9
f 1 9 5
f 1 5 2
f 2 6 7
f 2 7 3
f 2 5 9
f 2 9 15
f 2 15 23
f 2 23 29
f 2 29 35
f 2 35 41
f 2 41 47
f 2 47 51
f 2 51 58
f 2 58 63
f 2 63 69
f 2 69 74
f 2 74 82
f 2 82 88
f 2 88 96
f 2 96 103
f 2 103 110
f 2 110 109
f 2 109 119
f 2 119 118
f 2 118 127
f 2 127 134
f 2 134 143
f 2 143 153
f 2 153 161
f 2 161 168
f 2 168 176
f 2 176 184
f 2 184 192
f 2 192 201
f 2 201 207
f 2 207 215
f 2 215 226
f 2 226 234
f 2 234 242
f 2 242 249
f 2 249 251
f 2 251 244
f 2 244 237
f 2 237 227
f 2 227 219
f 2 219 208
f 2 208 202
f 2 202 193
f 2 193 185
f 2 185 177
f 2 177 169
f 2 169 162
f 2 162 154
f 2 154 144
f 2 144 135
f 2 135 128
f 2 128 120
f 2 120 111
f 2 111 104
f 2 104 97
f 2 97 93
f 2 93 83
f 2 83 76
f 2 76 70
f 2 70 64
f 2 64 59
f 2 59 52
f 2 52 48
f 2 48 42
f 2 42 36
f 2 36 30
f 2 30 24
f 2 24 16
f 2 16 10
f 2 10 6
f 3 7 4
f 4 7 8
f 6 10 7
f 7 11 8
f 7 10 12
f 7 12 13
f 7 13 11
f 9 14 15
f 10 16 12
f 11 13 20
f 11 20 26
f 11 26 33
f 11 33 32
f 11 32 31
f 11 31 38
f 11 38 44
f 11 44 49
f 11 49 54
f 11 54 60
f 11 60 66
f 11 66 71
f 11 71 75
f 11 75 78
f 11 78 86
f 11 86 85
f 11 85 92
f 11 92 91
f 11 91 99
f 11 99 106
f 11 106 114
f 11 114 124
f 11 124 123
f 11 123 122
f 11 122 131
f 11 131 139
f 11 139 138
f 11 138 137
f 11 137 147
f 11 147 157
f 11 157 163
f 11 163 164
f 11 164 172
f 11 172 180
f 11 180 179
f 11 179 178
f 11 178 188
f 11 188 195
f 11 195 203
f 11 203 212
f 11 212 211
f 11 211 210
f 11 210 217
f 11 217 222
f 11 222 228
f 11 228 230
f 11 230 236
f 11 236 235
f 11 235 243
f 11 243 246
f 11 246 252
f 11 252 250
f 11 250 247
f 11 247 240
f 11 240 239
f 11 239 238
f 11 238 231
f 11 231 223
f 11 223 213
f 11 213 204
f 11 204 199
f 11 199 198
f 11 198 197
f 11 197 196
f 11 196 189
f 11 189 182
f 11 182 174
f 11 174 173
f 11 173 166
f 11 166 165
f 11 165 158
f 11 158 152
f 11 152 150
f 11 150 149
f 11 149 148
f 11 148 140
f 11 140 132
f 11 132 125
f 11 125 116
f 11 116 115
f 11 115 107
f 11 107 100
f 11 100 94
f 11 94 87
f 11 87 79
f 11 79 72
f 11 72 67
f 11 67 61
f 11 61 55
f 11 55 50
f 11 50 45
f 11 45 39
f 11 39 34
f 11 34 27
f 11 27 17
f 12 16 18
f 12 18 19
f 12 19 13
f 13 19 20
f 14 21 15
f 15 21 17
f 15 17 22
f 15 22 23
f 16 24 25
f 16 25 26
f 16 26 20
f 16 20 18
f 17 27 28
f 17 28 22
f 18 20 19
f 22 29 23
f 22 28 27
f 22 27 29
f 24 30 25
f 25 30 31
f 25 31 32
f 25 32 33
f 25 33 26
f 27 34 29
f 29 34 35
f 30 36 31
f 31 36 37
f 31 37 38
f 34 39 35
f 35 40 41
f 35 39 40
f 36 42 37
f 37 42 38
f 38 42 43
f 38 43 44
f 39 45 46
f 39 46 40
f 40 46 41
f 41 46 47
f 42 48 43
f 43 48 49
f 43 49 44
f 45 50 46
f 46 50 51
f 46 51 47
f 48 52 53
f 48 53 49
f 49 53 54
f 50 55 51
f 51 56 57
f 51 57 58
f 51 55 56
f 52 59 53
f 53 59 60
f 53 60 54
f 55 61 57
f 55 57 56
f 57 61 62
f 57 62 63
f 57 63 58
f 59 64 65
f 59 65 60
f 60 65 66
f 61 67 68
f 61 68 62
f 62 68 63
f 63 68 69
f 64 70 71
f 64 71 66
f 64 66 65
f 67 72 73
f 67 73 68
f 68 73 74
f 68 74 69
f 70 75 71
f 70 76 77
f 70 77 78
f 70 78 75
f 72 79 80
f 72 80 81
f 72 81 73
f 73 81 82
f 73 82 74
f 76 83 84
f 76 84 85
f 76 85 77
f 77 86 78
f 77 85 86
f 79 87 80
f 80 88 81
f 80 87 89
f 80 89 88
f 81 88 82
f 83 90 91
f 83 91 92
f 83 92 84
f 83 93 90
f 84 92 85
f 87 94 95
f 87 95 89
f 88 89 96
f 89 95 96
f 90 93 97
f 90 97 98
f 90 98 91
f 91 98 99
f 94 100 101
f 94 101 102
f 94 102 95
f 95 102 110
f 95 110 103
f 95 103 96
f 97 104 105
f 97 105 106
f 97 106 98
f 98 106 99
f 100 107 108
f 100 108 101
f 101 108 109
f 101 109 102
f 102 109 110
f 104 111 112
f 104 112 105
f 105 112 113
f 105 113 114
f 105 114 106
f 107 115 108
f 108 116 117
f 108 117 118
f 108 118 119
f 108 119 109
f 108 115 116
f 111 120 121
f 111 121 112
f 112 121 122
f 112 122 113
f 113 122 123
f 113 123 124
f 113 124 114
f 116 125 126
f 116 126 117
f 117 126 118
f 118 126 127
f 120 128 121
f 121 128 129
f 121 129 130
f 121 130 131
f 121 131 122
f 125 132 133
f 125 133 126
f 126 133 134
f 126 134 127
f 128 135 136
f 128 136 129
f 129 136 137
f 129 137 138
f 129 138 130
f 130 138 139
f 130 139 131
f 132 140 141
f 132 141 133
f 133 141 142
f 133 142 143
f 133 143 134
f 135 144 145
f 135 145 136
f 136 145 146
f 136 146 137
f 137 146 147
f 140 148 141
f 141 148 149
f 141 149 150
f 141 150 142
f 142 151 143
f 142 150 152
f 142 152 151
f 143 151 153
f 144 154 155
f 144 155 145
f 145 155 156
f 145 156 147
f 145 147 146
f 147 156 157
f 151 152 158
f 151 158 159
f 151 159 160
f 151 160 161
f 151 161 153
f 154 162 155
f 155 163 157
f 155 157 156
f 155 162 164
f 155 164 163
f 158 165 159
f 159 165 160
f 160 165 166
f 160 166 167
f 160 167 161
f 161 167 168
f 162 169 170
f 162 170 171
f 162 171 172
f 162 172 164
f 166 173 167
f 167 173 174
f 167 174 175
f 167 175 176
f 167 176 168
f 169 177 170
f 170 177 178
f 170 178 179
f 170 179 180
f 170 180 171
f 171 180 172
f 174 181 175
f 174 182 181
f 175 183 176
f 175 181 183
f 176 183 184
f 177 185 186
f 177 186 187
f 177 187 178
f 178 187 188
f 181 182 189
f 181 189 190
f 181 190 183
f 183 190 191
f 183 191 192
f 183 192 184
f 185 193 194
f 185 194 188
f 185 188 186
f 186 188 187
f 188 194 195
f 189 196 190
f 190 196 197
f 190 197 191
f 191 197 198
f 191 198 199
f 191 199 200
f 191 200 201
f 191 201 192
f 193 195 194
f 193 202 203
f 193 203 195
f 199 204 205
f 199 205 200
f 200 205 206
f 200 206 201
f 201 206 207
f 202 208 209
f 202 209 210
f 202 210 211
f 202 211 212
f 202 212 203
f 204 213 205
f 205 213 206
f 206 214 215
f 206 215 207
f 206 213 216
f 206 216 214
f 208 217 218
f 208 218 209
f 208 219 220
f 208 220 221
f 208 221 222
f 208 222 217
f 209 218 210
f 210 218 217
f 213 223 216
f 214 216 223
f 214 223 224
f 214 224 225
f 214 225 226
f 214 226 215
f 219 227 220
f 220 228 221
f 220 227 229
f 220 229 230
f 220 230 228
f 221 228 222
f 223 231 224
f 224 231 225
f 225 231 232
f 225 232 233
f 225 233 234
f 225 234 226
f 227 235 236
f 227 236 229
f 227 237 235
f 229 236 230
f 231 238 232
f 232 238 239
f 232 239 233
f 233 239 240
f 233 240 241
f 233 241 234
f 234 241 242
f 235 237 243
f 237 244 245
f 237 245 246
f 237 246 243
f 240 247 241
f 241 248 249
f 241 249 242
f 241 247 250
f 241 250 248
f 244 251 245
f 245 251 252
f 245 252 246
f 248 250 251
f 248 251 249
f 250 252 251
