v 0.013109 -0.001986 0.026471
v 0.013139 -0.001852 0.026469
v 0.013139 -0.001852 0.026471
v 0.013106 -0.001986 0.026478
v 0.013089 -0.001986 0.026469
v 0.013259 -0.001111 0.026469
v 0.013259 -0.001111 0.026471
v 0.012889 -0.001852 0.027067
v 0.012862 -0.001986 0.027067
v -0.013977 -0.001986 0.026469
v 0.013339 -0.000370 0.026469
v 0.013339 -0.000370 0.026471
v 0.012952 -0.001111 0.027067
v -0.014534 -0.001986 0.027067
v -0.013983 -0.001986 0.026471
v -0.014010 -0.001852 0.026469
v 0.013377 0.000370 0.026469
v 0.012972 -0.000370 0.027067
v -0.014553 -0.001852 0.027067
v -0.014449 -0.001986 0.026971
v -0.014089 -0.001986 0.026576
v -0.014122 -0.001111 0.026469
v 0.013372 0.001111 0.026469
v 0.012972 -0.000353 0.027067
v -0.014605 -0.001111 0.027067
v -0.014196 -0.000370 0.026469
v 0.013109 0.001281 0.026469
v 0.013361 0.001281 0.026471
v 0.012947 0.000370 0.027067
v -0.014624 -0.000370 0.027067
v -0.014232 0.000370 0.026471
v -0.014229 0.000370 0.026469
v -0.013138 0.001281 0.026469
v 0.013046 0.001281 0.026855
v 0.012881 0.001111 0.027067
v -0.014602 0.000370 0.027067
v -0.014227 0.001111 0.026469
v -0.014218 0.001281 0.026471
v 0.012851 0.001281 0.027067
v -0.014544 0.001111 0.027067
v -0.014383 0.001281 0.026785
v -0.014517 0.001281 0.027067
f 1 2 3
f 1 3 4
f 1 4 9
f 1 9 14
f 1 14 20
f 1 20 21
f 1 21 15
f 1 15 10
f 1 10 5
f 1 5 2
f 2 6 7
f 2 7 3
f 2 5 10
f 2 10 16
f 2 16 22
f 2 22 26
f 2 26 32
f 2 32 37
f 2 37 33
f 2 33 27
f 2 27 23
f 2 23 17
f 2 17 11
f 2 11 6
f 3 7 8
f 3 8 9
f 3 9 4
f 6 11 12
f 6 12 7
f 7 12 8
f 8 13 18
f 8 18 24
f 8 24 29
f 8 29 35
f 8 35 39
f 8 39 42
f 8 42 40
f 8 40 36
f 8 36 30
f 8 30 25
f 8 25 19
f 8 19 14
f 8 14 9
f 8 12 13
f 10 15 16
f 11 17 12
f 12 17 13
f 13 17 18
f 14 19 20
f 15 21 16
f 16 21 22
f 17 23 24
f 17 24 18
f 19 25 26
f 19 26 22
f 19 22 20
f 20 22 21
f 23 27 28
f 23 28 29
f 23 29 24
f 25 30 31
f 25 31 26
f 26 31 32
f 27 33 38
f 27 38 41
f 27 41 42
f 27 42 39
f 27 39 34
f 27 34 28
f 28 34 29
f 29 34 35
f 30 36 37
f 30 37 31
f 31 37 32
f 33 37 38
f 34 39 35
f 36 40 38
f 36 38 37
f 38 40 41
f 40 42 41
