v -0.000370 -0.014490 0.040755
v -0.001111 -0.014444 0.040775
v -0.001111 -0.014455 0.040755
v 0.000368 -0.014485 0.040755
v 0.001109 -0.014289 0.041176
v 0.000368 -0.014294 0.041176
v -0.001259 -0.014444 0.040755
v -0.000370 -0.014259 0.041176
v 0.001120 -0.014441 0.040755
v 0.001849 -0.014245 0.041176
v -0.001734 -0.014403 0.040755
v -0.001111 -0.014185 0.041176
v 0.001858 -0.014359 0.040755
v 0.002590 -0.014166 0.041176
v -0.002351 -0.014324 0.040755
v -0.001852 -0.014074 0.041176
v 0.002590 -0.014240 0.040755
v 0.003331 -0.014044 0.041176
v -0.003015 -0.014204 0.040755
v -0.002593 -0.013919 0.041176
v 0.003331 -0.014079 0.040755
v 0.004072 -0.013883 0.041176
v -0.003756 -0.014030 0.040755
v -0.003333 -0.013723 0.041176
v 0.004072 -0.013878 0.040755
v 0.004741 -0.013704 0.041176
v -0.003399 -0.013704 0.041176
v -0.004071 -0.013704 0.040970
v -0.004071 -0.013927 0.040755
v 0.004357 -0.013799 0.040755
v 0.004813 -0.013682 0.041176
v -0.004071 -0.013483 0.041176
v -0.004683 -0.013704 0.040755
v 0.004621 -0.013704 0.040755
v 0.005553 -0.013437 0.041176
v -0.004812 -0.013197 0.041176
v -0.004741 -0.013682 0.040755
v 0.004813 -0.013633 0.040755
v 0.006294 -0.013146 0.041176
v -0.005339 -0.012961 0.041176
v -0.005523 -0.013342 0.040755
v -0.005424 -0.013385 0.040755
v -0.004864 -0.013630 0.040755
v 0.005553 -0.013342 0.040755
v 0.005872 -0.013216 0.040755
v 0.006703 -0.012961 0.041176
v -0.005553 -0.012863 0.041176
v -0.005553 -0.013328 0.040755
v 0.006612 -0.012854 0.040755
v 0.007035 -0.012808 0.041176
v -0.006294 -0.012471 0.041176
v -0.006280 -0.012961 0.040755
v 0.007353 -0.012438 0.040755
v 0.007776 -0.012416 0.041176
v -0.006714 -0.012220 0.041176
v -0.006826 -0.012645 0.040755
v 0.007918 -0.012071 0.040755
v 0.008517 -0.011967 0.041176
v 0.008105 -0.012220 0.041176
v -0.007035 -0.012022 0.041176
v -0.007035 -0.012220 0.041009
v -0.007035 -0.012520 0.040755
v 0.008750 -0.011480 0.040755
v 0.009227 -0.011480 0.041176
v -0.007775 -0.011504 0.041176
v -0.007775 -0.012024 0.040755
v -0.007572 -0.012166 0.040755
v -0.007490 -0.012220 0.040755
v 0.008821 -0.011428 0.040755
v 0.009257 -0.011458 0.041176
v -0.007808 -0.011480 0.041176
v -0.007940 -0.011904 0.040755
v 0.009636 -0.010740 0.040755
v 0.009998 -0.010873 0.041176
v -0.008516 -0.010908 0.041176
v -0.008524 -0.011453 0.040755
v 0.010390 -0.009999 0.040755
v 0.010736 -0.010209 0.041176
v 0.010155 -0.010740 0.041176
v -0.008708 -0.010740 0.041176
v -0.008862 -0.011164 0.040755
v 0.010739 -0.009586 0.040755
v 0.010739 -0.009999 0.041022
v 0.010939 -0.009999 0.041176
v -0.009257 -0.010220 0.041176
v -0.009257 -0.010740 0.040806
v -0.009257 -0.010808 0.040755
v 0.011008 -0.009259 0.040755
v 0.011480 -0.009330 0.041176
v -0.009476 -0.009999 0.041176
v -0.009649 -0.010424 0.040755
v -0.009328 -0.010740 0.040755
v 0.011480 -0.008603 0.040755
v 0.011480 -0.009259 0.041133
v 0.011535 -0.009256 0.041176
v -0.009998 -0.009420 0.041176
v -0.010053 -0.009999 0.040755
v 0.011485 -0.008595 0.040755
v 0.012039 -0.008516 0.041176
v -0.010138 -0.009259 0.041176
v -0.010327 -0.009681 0.040755
v 0.011537 -0.008516 0.040755
v 0.011718 -0.008236 0.040755
v 0.011809 -0.008094 0.040755
v 0.012221 -0.008225 0.041176
v -0.010711 -0.008516 0.041176
v -0.010678 -0.009259 0.040755
v 0.011886 -0.007969 0.040755
v 0.012221 -0.007776 0.040945
v 0.012487 -0.007776 0.041176
v -0.010739 -0.009177 0.040755
v -0.010739 -0.008475 0.041176
v -0.011221 -0.008516 0.040755
v 0.012001 -0.007776 0.040755
v 0.012221 -0.007381 0.040755
v 0.012295 -0.007245 0.040755
v 0.012876 -0.007035 0.041176
v -0.011199 -0.007787 0.041176
v -0.011526 -0.008053 0.040755
v 0.012404 -0.007035 0.040755
v 0.012500 -0.006839 0.040755
v 0.012610 -0.006611 0.040755
v 0.012756 -0.006295 0.040755
v 0.012961 -0.006850 0.041176
v -0.011479 -0.007313 0.041176
v -0.011479 -0.007776 0.040944
v -0.011699 -0.007776 0.040755
v 0.013005 -0.005683 0.040755
v 0.013214 -0.006295 0.041176
v -0.011638 -0.007035 0.041176
v -0.011880 -0.007460 0.040755
v 0.013055 -0.005555 0.040755
v 0.013502 -0.005555 0.041176
v -0.012009 -0.006295 0.041176
v -0.012113 -0.007035 0.040755
v 0.013203 -0.005130 0.040755
v 0.013307 -0.004815 0.040755
v 0.013702 -0.004948 0.041176
v -0.012220 -0.006818 0.040755
v -0.012327 -0.005555 0.041176
v -0.012220 -0.006295 0.040983
v -0.012324 -0.006605 0.040755
v 0.013513 -0.004072 0.040755
v 0.013702 -0.004815 0.041134
v 0.013746 -0.004812 0.041176
v -0.012593 -0.004812 0.041176
v -0.012777 -0.005555 0.040755
v -0.012604 -0.005979 0.040755
v -0.012470 -0.006295 0.040755
v 0.013680 -0.003331 0.040755
v 0.013702 -0.004072 0.040938
v 0.013946 -0.004072 0.041176
v -0.012810 -0.004072 0.041176
v -0.012961 -0.004815 0.040824
v -0.012988 -0.004948 0.040755
v 0.013804 -0.002591 0.040755
v 0.014108 -0.003331 0.041176
v -0.012986 -0.003331 0.041176
v -0.013246 -0.004072 0.040755
v -0.013147 -0.004417 0.040755
v -0.013032 -0.004815 0.040755
v 0.013861 -0.002074 0.040755
v 0.014226 -0.002591 0.041176
v -0.013115 -0.002591 0.041176
v -0.013414 -0.003331 0.040755
v -0.013320 -0.003756 0.040755
v 0.013886 -0.001851 0.040755
v 0.014308 -0.001851 0.041176
v -0.013202 -0.001851 0.041176
v -0.013540 -0.002591 0.040755
v 0.013930 -0.001110 0.040755
v 0.014350 -0.001110 0.041176
v -0.013249 -0.001110 0.041176
v -0.013625 -0.001851 0.040755
v 0.013933 -0.000631 0.040755
v 0.014355 -0.000370 0.041176
v -0.013252 -0.000370 0.041176
v -0.013674 -0.000373 0.040755
v -0.013669 -0.001110 0.040755
v -0.013666 -0.001165 0.040755
v 0.013933 -0.000373 0.040755
v 0.013897 0.000370 0.040755
v 0.014319 0.000370 0.041176
v -0.013216 0.000370 0.041176
v -0.013641 0.000270 0.040755
v 0.013823 0.001111 0.040755
v 0.014245 0.001111 0.041176
v -0.013136 0.001111 0.041176
v -0.013581 0.000923 0.040755
v -0.013636 0.000370 0.040755
v 0.013708 0.001851 0.040755
v 0.014133 0.001851 0.041176
v -0.013013 0.001851 0.041176
v -0.013441 0.001851 0.040755
v -0.013488 0.001571 0.040755
v -0.013559 0.001111 0.040755
v 0.013982 0.002591 0.041176
v 0.013601 0.002354 0.040755
v -0.013353 0.002275 0.040755
v -0.013408 0.002011 0.040755
v -0.012961 0.002088 0.041176
v 0.013702 0.002591 0.040904
v 0.013787 0.003331 0.041176
v 0.013548 0.002591 0.040755
v -0.012848 0.002591 0.041176
v -0.013282 0.002591 0.040755
v 0.013455 0.002948 0.040755
v 0.013348 0.003331 0.040755
v 0.013702 0.003598 0.041176
v -0.012634 0.003331 0.041176
v -0.013076 0.003331 0.040755
v 0.013247 0.003647 0.040755
v 0.013548 0.004074 0.041176
v -0.012374 0.004072 0.041176
v -0.012824 0.004072 0.040755
v -0.012884 0.003900 0.040755
v 0.013101 0.004072 0.040755
v 0.013263 0.004815 0.041176
v -0.012656 0.004496 0.040755
v -0.012711 0.004360 0.040755
v -0.012220 0.004442 0.041176
v 0.012901 0.004583 0.040755
v 0.012808 0.004815 0.040755
v 0.012961 0.005484 0.041176
v -0.012590 0.004654 0.040755
v -0.012220 0.004815 0.041031
v -0.012061 0.004815 0.041176
v 0.012662 0.005130 0.040755
v 0.012928 0.005555 0.041176
v -0.012522 0.004815 0.040755
v -0.012168 0.005555 0.040755
v -0.012220 0.005446 0.040755
v -0.011691 0.005555 0.041176
v 0.012459 0.005555 0.040755
v 0.012539 0.006295 0.041176
v -0.011995 0.005874 0.040755
v -0.011935 0.005980 0.040755
v -0.011479 0.005925 0.041176
v 0.012221 0.005999 0.040755
v 0.012185 0.006064 0.040755
v 0.012221 0.006295 0.040897
v 0.012221 0.006832 0.041176
v -0.011754 0.006295 0.040755
v -0.011260 0.006295 0.041176
v -0.011479 0.006295 0.040989
v 0.012056 0.006295 0.040755
v 0.011861 0.006611 0.040755
v 0.012092 0.007038 0.041176
v -0.011479 0.006725 0.040755
v -0.011274 0.007036 0.040755
v -0.011416 0.006823 0.040755
v -0.010758 0.007036 0.041176
v 0.011589 0.007036 0.040755
v 0.011578 0.007776 0.041176
v -0.011172 0.007177 0.040755
v -0.010955 0.007471 0.040755
v -0.010963 0.007460 0.040755
v -0.010739 0.007060 0.041176
v -0.010739 0.007751 0.040755
v 0.011480 0.007191 0.040755
v 0.011480 0.007776 0.041096
v 0.011480 0.007907 0.041176
v -0.010173 0.007776 0.041176
v -0.010719 0.007776 0.040755
v 0.011049 0.007776 0.040755
v 0.010989 0.008514 0.041176
v -0.010286 0.008285 0.040755
v -0.010360 0.008201 0.040755
v -0.010497 0.008043 0.040755
v -0.009998 0.007975 0.041176
v 0.010739 0.008157 0.040755
v 0.010701 0.008203 0.040755
v 0.010739 0.008516 0.040987
v 0.010739 0.008799 0.041176
v -0.010075 0.008516 0.040755
v -0.009998 0.008516 0.040812
v -0.008829 0.009257 0.041176
v 0.010426 0.008516 0.040755
v 0.010133 0.008835 0.040755
v 0.010305 0.009257 0.041176
v -0.009998 0.008598 0.040755
v -0.008516 0.009575 0.041176
v -0.009364 0.009257 0.040755
v -0.009784 0.008821 0.040755
v 0.009998 0.008971 0.040755
v 0.009998 0.009257 0.040957
v 0.009998 0.009559 0.041176
v -0.008066 0.010000 0.041176
v -0.009073 0.009531 0.040755
v 0.009705 0.009257 0.040755
v 0.009257 0.009665 0.040755
v 0.009513 0.010000 0.041176
v -0.007775 0.010253 0.041176
v -0.008552 0.010000 0.040755
v -0.008760 0.009817 0.040755
v 0.008854 0.010000 0.040755
v 0.009257 0.010000 0.041008
v 0.009257 0.010215 0.041176
v -0.008324 0.010187 0.040755
v -0.007161 0.010740 0.041176
v 0.008517 0.010261 0.040755
v 0.008580 0.010740 0.041176
v -0.007597 0.010740 0.040755
v -0.007037 0.010832 0.041176
v 0.007839 0.010740 0.040755
v 0.008517 0.010740 0.041139
v 0.008517 0.010786 0.041176
v -0.007460 0.010838 0.040755
v -0.006294 0.011330 0.041176
v 0.007751 0.010797 0.040755
v 0.007776 0.011276 0.041176
v -0.006719 0.011306 0.040755
v -0.006047 0.011480 0.041176
v 0.007326 0.011056 0.040755
v 0.007433 0.011480 0.041176
v -0.005978 0.011709 0.040755
v -0.005556 0.011761 0.041176
v 0.007035 0.011227 0.040755
v 0.007035 0.011480 0.040977
v 0.007035 0.011706 0.041176
v -0.005237 0.012052 0.040755
v -0.004812 0.012128 0.041176
v 0.006459 0.011529 0.040755
v 0.006294 0.012076 0.041176
v -0.004598 0.012220 0.041176
v -0.004074 0.012438 0.041176
v -0.004497 0.012343 0.040755
v 0.006294 0.011611 0.040755
v 0.005880 0.011796 0.040755
v 0.005553 0.011937 0.040755
v 0.005959 0.012220 0.041176
v -0.003333 0.012699 0.041176
v -0.004071 0.012471 0.040755
v 0.004829 0.012207 0.040755
v 0.005553 0.012392 0.041176
v -0.002593 0.012912 0.041176
v -0.003333 0.012683 0.040755
v 0.004788 0.012220 0.040755
v 0.004813 0.012220 0.040763
v 0.004813 0.012656 0.041176
v -0.001852 0.013075 0.041176
v -0.002593 0.012849 0.040755
v 0.004319 0.012365 0.040755
v 0.004072 0.012438 0.040755
v 0.004072 0.012874 0.041176
v -0.001111 0.013198 0.041176
v -0.001852 0.012972 0.040755
v 0.003331 0.012629 0.040755
v 0.002590 0.012808 0.040755
v 0.003331 0.013048 0.041176
v -0.000370 0.013276 0.041176
v -0.001783 0.012983 0.040755
v 0.001849 0.012944 0.040755
v 0.002590 0.013176 0.041176
v 0.000368 0.013315 0.041176
v -0.000828 0.013081 0.040755
v 0.001262 0.013023 0.040755
v 0.001849 0.013263 0.041176
v 0.001109 0.013309 0.041176
v -0.000074 0.013102 0.040755
v 0.000620 0.013081 0.040755
f 1 2 3
f 1 3 7
f 1 7 11
f 1 11 15
f 1 15 19
f 1 19 23
f 1 23 29
f 1 29 33
f 1 33 37
f 1 37 43
f 1 43 42
f 1 42 41
f 1 41 48
f 1 48 52
f 1 52 56
f 1 56 62
f 1 62 68
f 1 68 67
f 1 67 66
f 1 66 72
f 1 72 76
f 1 76 81
f 1 81 87
f 1 87 92
f 1 92 91
f 1 91 97
f 1 97 101
f 1 101 107
f 1 107 111
f 1 111 113
f 1 113 119
f 1 119 127
f 1 127 131
f 1 131 135
f 1 135 139
f 1 139 142
f 1 142 149
f 1 149 148
f 1 148 147
f 1 147 155
f 1 155 161
f 1 161 160
f 1 160 159
f 1 159 166
f 1 166 165
f 1 165 170
f 1 170 174
f 1 174 180
f 1 180 179
f 1 179 178
f 1 178 185
f 1 185 190
f 1 190 189
f 1 189 196
f 1 196 195
f 1 195 194
f 1 194 200
f 1 200 199
f 1 199 206
f 1 206 211
f 1 211 216
f 1 216 215
f 1 215 220
f 1 220 219
f 1 219 225
f 1 225 230
f 1 230 232
f 1 232 231
f 1 231 236
f 1 236 237
f 1 237 243
f 1 243 249
f 1 249 251
f 1 251 250
f 1 250 255
f 1 255 257
f 1 257 256
f 1 256 259
f 1 259 264
f 1 264 269
f 1 269 268
f 1 268 267
f 1 267 275
f 1 275 281
f 1 281 284
f 1 284 283
f 1 283 289
f 1 289 295
f 1 295 294
f 1 294 299
f 1 299 303
f 1 303 308
f 1 308 312
f 1 312 316
f 1 316 321
f 1 321 327
f 1 327 333
f 1 333 337
f 1 337 342
f 1 342 347
f 1 347 352
f 1 352 356
f 1 356 360
f 1 360 361
f 1 361 357
f 1 357 353
f 1 353 349
f 1 349 348
f 1 348 344
f 1 344 343
f 1 343 338
f 1 338 334
f 1 334 330
f 1 330 329
f 1 329 328
f 1 328 323
f 1 323 318
f 1 318 314
f 1 314 310
f 1 310 305
f 1 305 301
f 1 301 296
f 1 296 291
f 1 291 290
f 1 290 285
f 1 285 279
f 1 279 278
f 1 278 272
f 1 272 271
f 1 271 265
f 1 265 260
f 1 260 253
f 1 253 247
f 1 247 246
f 1 246 240
f 1 240 239
f 1 239 234
f 1 234 228
f 1 228 223
f 1 223 222
f 1 222 217
f 1 217 212
f 1 212 208
f 1 208 207
f 1 207 204
f 1 204 198
f 1 198 191
f 1 191 186
f 1 186 182
f 1 182 181
f 1 181 175
f 1 175 171
f 1 171 167
f 1 167 162
f 1 162 156
f 1 156 150
f 1 150 143
f 1 143 137
f 1 137 136
f 1 136 132
f 1 132 128
f 1 128 123
f 1 123 122
f 1 122 121
f 1 121 120
f 1 120 116
f 1 116 115
f 1 115 114
f 1 114 108
f 1 108 104
f 1 104 103
f 1 103 102
f 1 102 98
f 1 98 93
f 1 93 88
f 1 88 82
f 1 82 77
f 1 77 73
f 1 73 69
f 1 69 63
f 1 63 57
f 1 57 53
f 1 53 49
f 1 49 45
f 1 45 44
f 1 44 38
f 1 38 34
f 1 34 30
f 1 30 25
f 1 25 21
f 1 21 17
f 1 17 13
f 1 13 9
f 1 9 4
f 1 4 5
f 1 5 6
f 1 6 2
f 2 7 3
f 2 6 8
f 2 8 7
f 4 9 5
f 5 9 10
f 5 10 14
f 5 14 18
f 5 18 22
f 5 22 26
f 5 26 31
f 5 31 35
f 5 35 39
f 5 39 46
f 5 46 50
f 5 50 54
f 5 54 59
f 5 59 58
f 5 58 64
f 5 64 70
f 5 70 74
f 5 74 79
f 5 79 78
f 5 78 84
f 5 84 89
f 5 89 95
f 5 95 99
f 5 99 105
f 5 105 110
f 5 110 117
f 5 117 124
f 5 124 129
f 5 129 133
f 5 133 138
f 5 138 145
f 5 145 152
f 5 152 157
f 5 157 163
f 5 163 168
f 5 168 172
f 5 172 176
f 5 176 183
f 5 183 187
f 5 187 192
f 5 192 197
f 5 197 203
f 5 203 209
f 5 209 213
f 5 213 218
f 5 218 224
f 5 224 229
f 5 229 235
f 5 235 242
f 5 242 248
f 5 248 254
f 5 254 262
f 5 262 266
f 5 266 274
f 5 274 280
f 5 280 287
f 5 287 292
f 5 292 298
f 5 298 302
f 5 302 307
f 5 307 311
f 5 311 315
f 5 315 320
f 5 320 324
f 5 324 331
f 5 331 335
f 5 335 340
f 5 340 345
f 5 345 350
f 5 350 354
f 5 354 358
f 5 358 359
f 5 359 355
f 5 355 351
f 5 351 346
f 5 346 341
f 5 341 336
f 5 336 332
f 5 332 326
f 5 326 325
f 5 325 322
f 5 322 317
f 5 317 313
f 5 313 309
f 5 309 304
f 5 304 300
f 5 300 293
f 5 293 288
f 5 288 282
f 5 282 277
f 5 277 270
f 5 270 263
f 5 263 258
f 5 258 252
f 5 252 244
f 5 244 238
f 5 238 233
f 5 233 227
f 5 227 221
f 5 221 214
f 5 214 210
f 5 210 205
f 5 205 201
f 5 201 193
f 5 193 188
f 5 188 184
f 5 184 177
f 5 177 173
f 5 173 169
f 5 169 164
f 5 164 158
f 5 158 153
f 5 153 146
f 5 146 140
f 5 140 134
f 5 134 130
f 5 130 125
f 5 125 118
f 5 118 112
f 5 112 106
f 5 106 100
f 5 100 96
f 5 96 90
f 5 90 85
f 5 85 80
f 5 80 75
f 5 75 71
f 5 71 65
f 5 65 60
f 5 60 55
f 5 55 51
f 5 51 47
f 5 47 40
f 5 40 36
f 5 36 32
f 5 32 27
f 5 27 24
f 5 24 20
f 5 20 16
f 5 16 12
f 5 12 8
f 5 8 6
f 7 8 11
f 8 12 11
f 9 13 14
f 9 14 10
f 11 12 15
f 12 16 15
f 13 17 14
f 14 17 18
f 15 16 19
f 16 20 19
f 17 21 22
f 17 22 18
f 19 20 23
f 20 24 23
f 21 25 26
f 21 26 22
f 23 24 27
f 23 27 28
f 23 28 29
f 25 30 26
f 26 30 31
f 27 32 28
f 28 32 33
f 28 33 29
f 30 34 35
f 30 35 31
f 32 36 37
f 32 37 33
f 34 38 35
f 35 38 44
f 35 44 39
f 36 40 41
f 36 41 42
f 36 42 43
f 36 43 37
f 39 44 45
f 39 45 46
f 40 47 48
f 40 48 41
f 45 49 50
f 45 50 46
f 47 51 52
f 47 52 48
f 49 53 54
f 49 54 50
f 51 55 56
f 51 56 52
f 53 57 58
f 53 58 59
f 53 59 54
f 55 60 61
f 55 61 62
f 55 62 56
f 57 63 64
f 57 64 58
f 60 65 66
f 60 66 67
f 60 67 68
f 60 68 61
f 61 68 62
f 63 69 70
f 63 70 64
f 65 71 72
f 65 72 66
f 69 73 74
f 69 74 70
f 71 75 76
f 71 76 72
f 73 77 78
f 73 78 79
f 73 79 74
f 75 80 81
f 75 81 76
f 77 82 83
f 77 83 78
f 78 83 84
f 80 85 86
f 80 86 87
f 80 87 81
f 82 84 83
f 82 88 84
f 84 88 89
f 85 90 91
f 85 91 86
f 86 91 92
f 86 92 87
f 88 93 94
f 88 94 89
f 89 94 95
f 90 96 97
f 90 97 91
f 93 98 99
f 93 99 95
f 93 95 94
f 96 100 97
f 97 100 101
f 98 102 99
f 99 103 104
f 99 104 105
f 99 102 103
f 100 106 107
f 100 107 101
f 104 108 105
f 105 108 109
f 105 109 110
f 106 111 107
f 106 112 113
f 106 113 111
f 108 114 109
f 109 115 110
f 109 114 115
f 110 116 117
f 110 115 116
f 112 118 113
f 113 118 119
f 116 120 117
f 117 120 121
f 117 121 122
f 117 122 123
f 117 123 124
f 118 125 126
f 118 126 119
f 119 126 127
f 123 128 129
f 123 129 124
f 125 130 131
f 125 131 127
f 125 127 126
f 128 132 133
f 128 133 129
f 130 134 135
f 130 135 131
f 132 136 133
f 133 136 137
f 133 137 138
f 134 139 135
f 134 140 141
f 134 141 142
f 134 142 139
f 137 143 144
f 137 144 138
f 138 144 145
f 140 146 147
f 140 147 148
f 140 148 149
f 140 149 141
f 141 149 142
f 143 150 151
f 143 151 144
f 144 151 145
f 145 151 152
f 146 153 154
f 146 154 155
f 146 155 147
f 150 156 157
f 150 157 152
f 150 152 151
f 153 158 159
f 153 159 160
f 153 160 154
f 154 160 161
f 154 161 155
f 156 162 163
f 156 163 157
f 158 164 165
f 158 165 166
f 158 166 159
f 162 167 168
f 162 168 163
f 164 169 170
f 164 170 165
f 167 171 168
f 168 171 172
f 169 173 174
f 169 174 170
f 171 175 176
f 171 176 172
f 173 177 178
f 173 178 179
f 173 179 180
f 173 180 174
f 175 181 176
f 176 181 182
f 176 182 183
f 177 184 178
f 178 184 185
f 182 186 187
f 182 187 183
f 184 188 189
f 184 189 190
f 184 190 185
f 186 191 192
f 186 192 187
f 188 193 194
f 188 194 195
f 188 195 196
f 188 196 189
f 191 197 192
f 191 198 197
f 193 199 200
f 193 200 194
f 193 201 199
f 197 198 202
f 197 202 203
f 198 204 202
f 199 201 205
f 199 205 206
f 202 204 207
f 202 207 203
f 203 207 208
f 203 208 209
f 205 210 211
f 205 211 206
f 208 212 209
f 209 212 213
f 210 214 215
f 210 215 216
f 210 216 211
f 212 217 213
f 213 217 218
f 214 219 220
f 214 220 215
f 214 221 219
f 217 222 218
f 218 222 223
f 218 223 224
f 219 221 225
f 221 226 225
f 221 227 226
f 223 228 224
f 224 228 229
f 225 226 230
f 226 227 231
f 226 231 232
f 226 232 230
f 227 233 231
f 228 234 229
f 229 234 235
f 231 233 236
f 233 237 236
f 233 238 237
f 234 239 235
f 235 239 240
f 235 240 241
f 235 241 242
f 237 238 243
f 238 244 245
f 238 245 243
f 240 246 241
f 241 246 242
f 242 246 247
f 242 247 248
f 243 245 249
f 244 250 251
f 244 251 249
f 244 249 245
f 244 252 250
f 247 253 248
f 248 253 254
f 250 252 255
f 252 256 257
f 252 257 255
f 252 258 264
f 252 264 259
f 252 259 256
f 253 260 254
f 254 260 261
f 254 261 262
f 258 263 264
f 260 265 261
f 261 265 262
f 262 265 266
f 263 267 268
f 263 268 269
f 263 269 264
f 263 270 267
f 265 271 266
f 266 271 272
f 266 272 273
f 266 273 274
f 267 270 276
f 267 276 275
f 270 277 276
f 272 278 273
f 273 278 274
f 274 278 279
f 274 279 280
f 275 276 277
f 275 277 281
f 277 282 283
f 277 283 284
f 277 284 281
f 279 285 280
f 280 285 286
f 280 286 287
f 282 288 289
f 282 289 283
f 285 290 286
f 286 290 287
f 287 290 291
f 287 291 292
f 288 293 294
f 288 294 295
f 288 295 289
f 291 296 297
f 291 297 292
f 292 297 298
f 293 299 294
f 293 300 299
f 296 298 297
f 296 301 302
f 296 302 298
f 299 300 303
f 300 304 303
f 301 305 306
f 301 306 302
f 302 306 307
f 303 304 308
f 304 309 308
f 305 307 306
f 305 310 311
f 305 311 307
f 308 309 312
f 309 313 312
f 310 314 311
f 311 314 315
f 312 313 317
f 312 317 316
f 314 318 315
f 315 318 319
f 315 319 320
f 316 317 322
f 316 322 321
f 318 323 319
f 319 323 320
f 320 323 324
f 321 322 325
f 321 325 326
f 321 326 327
f 323 328 324
f 324 328 329
f 324 329 330
f 324 330 331
f 326 332 327
f 327 332 333
f 330 334 335
f 330 335 331
f 332 336 337
f 332 337 333
f 334 338 339
f 334 339 335
f 335 339 340
f 336 341 342
f 336 342 337
f 338 343 339
f 339 343 340
f 340 343 344
f 340 344 345
f 341 346 347
f 341 347 342
f 344 348 345
f 345 348 349
f 345 349 350
f 346 351 352
f 346 352 347
f 349 353 350
f 350 353 354
f 351 355 356
f 351 356 352
f 353 357 354
f 354 357 358
f 355 359 360
f 355 360 356
f 357 361 358
f 358 361 359
f 359 361 360
