v -0.007379 0.010867 0.033032
v -0.007379 0.010801 0.032355
v -0.007379 -0.011557 0.033032
v -0.007036 0.011122 0.033032
v -0.006487 0.011479 0.033032
v -0.006295 0.011601 0.033032
v -0.007037 0.011006 0.032355
v -0.007379 -0.012373 0.032355
v -0.007036 -0.011795 0.033032
v -0.007379 -0.012221 0.032484
v -0.006281 0.011609 0.033032
v -0.006295 0.011399 0.032355
v -0.005555 0.012014 0.033032
v -0.007036 -0.012598 0.032355
v -0.007036 -0.012221 0.032675
v -0.006351 -0.012221 0.033032
v -0.006118 0.011479 0.032355
v -0.005120 0.012221 0.033032
v -0.004813 0.012365 0.033032
v -0.007014 -0.012612 0.032355
v -0.006295 -0.012254 0.033032
v -0.005557 0.011731 0.032355
v -0.004073 0.012667 0.033032
v -0.006295 -0.013030 0.032355
v -0.005555 -0.012650 0.033032
v -0.004813 0.012011 0.032355
v -0.003331 0.012916 0.033032
v -0.005555 -0.012960 0.032753
v -0.005555 -0.013401 0.032355
v -0.004813 -0.012994 0.033032
v -0.004139 0.012221 0.032355
v -0.002593 0.013116 0.033032
v -0.004075 0.012241 0.032355
v -0.005495 -0.013428 0.032355
v -0.004866 -0.013702 0.032355
v -0.004813 -0.013702 0.032376
v -0.004073 -0.013284 0.033032
v -0.002024 0.013240 0.033032
v -0.003334 0.012423 0.032355
v -0.004813 -0.013725 0.032355
v -0.004073 -0.013999 0.032355
v -0.004073 -0.013702 0.032637
v -0.003424 -0.013498 0.033032
v -0.001851 0.013273 0.033032
v -0.002593 0.012559 0.032355
v -0.003331 -0.014231 0.032355
v -0.003331 -0.013528 0.033032
v -0.001217 0.013376 0.033032
v -0.001851 0.012651 0.032355
v -0.002594 -0.014419 0.032355
v -0.002588 -0.013727 0.033032
v -0.002779 -0.013677 0.033032
v -0.000458 0.013456 0.033032
v -0.000370 0.013465 0.033032
v -0.000375 0.012786 0.032355
v -0.002477 -0.014444 0.032355
v -0.002375 -0.013772 0.033032
v 0.000369 0.013503 0.033032
v 0.000361 0.012825 0.032355
v -0.001851 -0.014444 0.032478
v -0.001851 -0.013880 0.033032
v -0.001851 -0.014569 0.032355
v 0.001075 0.013498 0.033032
v 0.001075 0.012822 0.032355
v 0.000369 0.012825 0.032355
v -0.001111 -0.013996 0.033032
v -0.001111 -0.014677 0.032355
v -0.001111 -0.014444 0.032587
v 0.001780 0.013456 0.033032
v 0.001110 0.012961 0.032496
v 0.001851 0.012772 0.032355
v 0.001851 0.012961 0.032542
v -0.000453 -0.014062 0.033032
v -0.000376 -0.014746 0.032355
v -0.000370 -0.014444 0.032659
v -0.000370 -0.014071 0.033032
v 0.001851 0.013451 0.033032
v 0.002592 0.012681 0.032355
v 0.002592 0.013365 0.033032
v 0.002592 0.012961 0.032631
v 0.000369 -0.014782 0.032355
v 0.000369 -0.014444 0.032693
v 0.000273 -0.014101 0.033032
v 0.003242 0.013254 0.033032
v 0.003333 0.012961 0.032759
v 0.003333 0.012548 0.032355
v 0.001075 -0.014777 0.032355
v 0.001075 -0.014444 0.032689
v 0.001075 -0.014101 0.033032
v 0.000369 -0.014104 0.033032
v 0.003333 0.013237 0.033032
v 0.003947 0.013096 0.033032
v 0.004073 0.012368 0.032355
v 0.004073 0.012961 0.032928
v 0.001110 -0.014774 0.032355
v 0.001746 -0.014062 0.033032
v 0.004073 0.013066 0.033032
v 0.004553 0.012221 0.032355
v 0.004447 0.012961 0.033032
v 0.004663 0.012897 0.033032
v 0.004813 0.012853 0.033032
v 0.001851 -0.014691 0.032355
v 0.002504 -0.013979 0.033032
v 0.001851 -0.014051 0.033032
v 0.004813 0.012141 0.032355
v 0.005555 0.012592 0.033032
v 0.002592 -0.014544 0.032355
v 0.003333 -0.013838 0.033032
v 0.002592 -0.013965 0.033032
v 0.005555 0.011864 0.032355
v 0.006192 0.012327 0.033032
v 0.003000 -0.014442 0.032355
v 0.004073 -0.013666 0.033032
v 0.006295 0.012282 0.033032
v 0.006291 0.011537 0.032355
v 0.003331 -0.014356 0.032355
v 0.004418 -0.013572 0.033032
v 0.006543 0.012163 0.033032
v 0.006407 0.011479 0.032355
v 0.007035 0.011917 0.033032
v 0.004071 -0.014129 0.032355
v 0.004813 -0.013456 0.033032
v 0.007035 0.011479 0.032644
v 0.007035 0.011147 0.032355
v 0.007249 0.011798 0.033032
v 0.004812 -0.013857 0.032355
v 0.005553 -0.013201 0.033032
v 0.007249 0.011485 0.032754
v 0.007249 0.011479 0.032750
v 0.007249 0.011020 0.032355
v 0.007249 -0.012426 0.033032
v 0.005178 -0.013700 0.032355
v 0.006295 -0.012899 0.033032
v 0.006149 -0.012960 0.033032
v 0.007249 -0.012603 0.032355
v 0.007035 -0.012548 0.033032
v 0.006663 -0.012960 0.032355
v 0.007034 -0.012742 0.032355
v 0.005553 -0.013536 0.032355
v 0.006294 -0.013168 0.032355
f 1 2 8
f 1 8 10
f 1 10 3
f 1 3 9
f 1 9 16
f 1 16 21
f 1 21 25
f 1 25 30
f 1 30 37
f 1 37 43
f 1 43 47
f 1 47 52
f 1 52 51
f 1 51 57
f 1 57 61
f 1 61 66
f 1 66 73
f 1 73 76
f 1 76 83
f 1 83 90
f 1 90 89
f 1 89 96
f 1 96 104
f 1 104 103
f 1 103 109
f 1 109 108
f 1 108 113
f 1 113 117
f 1 117 122
f 1 122 127
f 1 127 134
f 1 134 133
f 1 133 136
f 1 136 131
f 1 131 125
f 1 125 120
f 1 120 118
f 1 118 114
f 1 114 111
f 1 111 106
f 1 106 101
f 1 101 100
f 1 100 99
f 1 99 97
f 1 97 92
f 1 92 91
f 1 91 84
f 1 84 79
f 1 79 77
f 1 77 69
f 1 69 63
f 1 63 58
f 1 58 54
f 1 54 53
f 1 53 48
f 1 48 44
f 1 44 38
f 1 38 32
f 1 32 27
f 1 27 23
f 1 23 19
f 1 19 18
f 1 18 13
f 1 13 11
f 1 11 6
f 1 6 5
f 1 5 4
f 1 4 2
f 2 4 5
f 2 5 6
f 2 6 7
f 2 7 12
f 2 12 17
f 2 17 22
f 2 22 26
f 2 26 31
f 2 31 33
f 2 33 39
f 2 39 45
f 2 45 49
f 2 49 55
f 2 55 59
f 2 59 65
f 2 65 64
f 2 64 71
f 2 71 78
f 2 78 86
f 2 86 93
f 2 93 98
f 2 98 105
f 2 105 110
f 2 110 115
f 2 115 119
f 2 119 124
f 2 124 130
f 2 130 135
f 2 135 138
f 2 138 137
f 2 137 140
f 2 140 139
f 2 139 132
f 2 132 126
f 2 126 121
f 2 121 116
f 2 116 112
f 2 112 107
f 2 107 102
f 2 102 95
f 2 95 87
f 2 87 81
f 2 81 74
f 2 74 67
f 2 67 62
f 2 62 56
f 2 56 50
f 2 50 46
f 2 46 41
f 2 41 40
f 2 40 35
f 2 35 34
f 2 34 29
f 2 29 24
f 2 24 20
f 2 20 14
f 2 14 8
f 3 10 9
f 6 11 7
f 7 11 13
f 7 13 12
f 8 14 15
f 8 15 10
f 9 10 15
f 9 15 16
f 12 13 18
f 12 18 19
f 12 19 17
f 14 20 15
f 15 20 16
f 16 20 21
f 17 19 22
f 19 23 22
f 20 24 21
f 21 24 25
f 22 23 26
f 23 27 26
f 24 28 25
f 24 29 28
f 25 28 30
f 26 27 31
f 27 32 33
f 27 33 31
f 28 29 34
f 28 34 30
f 30 34 35
f 30 35 36
f 30 36 37
f 32 38 39
f 32 39 33
f 35 40 36
f 36 40 41
f 36 41 42
f 36 42 37
f 37 42 43
f 38 44 39
f 39 44 45
f 41 46 47
f 41 47 42
f 42 47 43
f 44 48 45
f 45 48 49
f 46 50 51
f 46 51 52
f 46 52 47
f 48 53 49
f 49 53 54
f 49 54 55
f 50 56 51
f 51 56 57
f 54 58 59
f 54 59 55
f 56 60 61
f 56 61 57
f 56 62 60
f 58 63 64
f 58 64 65
f 58 65 59
f 60 62 66
f 60 66 61
f 62 67 68
f 62 68 66
f 63 69 70
f 63 70 64
f 64 70 69
f 64 69 72
f 64 72 71
f 66 68 73
f 67 74 75
f 67 75 68
f 68 75 76
f 68 76 73
f 69 77 72
f 71 72 79
f 71 79 80
f 71 80 78
f 72 77 79
f 74 81 75
f 75 81 82
f 75 82 83
f 75 83 76
f 78 80 84
f 78 84 85
f 78 85 86
f 79 84 80
f 81 87 88
f 81 88 82
f 82 88 89
f 82 89 90
f 82 90 83
f 84 91 85
f 85 91 92
f 85 92 86
f 86 92 94
f 86 94 93
f 87 95 96
f 87 96 88
f 88 96 89
f 92 97 94
f 93 94 99
f 93 99 100
f 93 100 101
f 93 101 98
f 94 97 99
f 95 102 103
f 95 103 104
f 95 104 96
f 98 101 105
f 101 106 105
f 102 107 108
f 102 108 109
f 102 109 103
f 105 106 110
f 106 111 110
f 107 112 113
f 107 113 108
f 110 111 114
f 110 114 115
f 112 116 113
f 113 116 117
f 114 118 115
f 115 118 120
f 115 120 119
f 116 121 122
f 116 122 117
f 119 120 123
f 119 123 124
f 120 125 123
f 121 126 127
f 121 127 122
f 123 128 129
f 123 129 124
f 123 125 128
f 124 129 130
f 125 131 135
f 125 135 130
f 125 130 129
f 125 129 128
f 126 132 133
f 126 133 134
f 126 134 127
f 131 136 137
f 131 137 138
f 131 138 135
f 132 139 133
f 133 139 136
f 136 139 140
f 136 140 137
