v 0.013134 0.002924 0.027940
v 0.012569 0.002924 0.027356
v 0.012494 0.003334 0.027356
v 0.012297 0.004075 0.027356
v 0.013020 0.003334 0.027940
v -0.013516 0.002924 0.027940
v -0.014119 0.002924 0.027356
v 0.012051 0.004815 0.027356
v 0.012772 0.004059 0.027940
v -0.013404 0.003335 0.027940
v -0.013703 0.003334 0.027655
v -0.013703 0.002924 0.027761
v -0.014012 0.003334 0.027356
v 0.011755 0.005556 0.027356
v 0.012766 0.004075 0.027940
v -0.013703 0.004075 0.027429
v -0.013159 0.004075 0.027940
v -0.013778 0.004075 0.027356
v 0.011403 0.006297 0.027356
v 0.012222 0.005323 0.027940
v 0.012462 0.004815 0.027940
v -0.013703 0.004279 0.027356
v -0.013559 0.004664 0.027356
v -0.012964 0.004576 0.027940
v 0.012107 0.005556 0.027940
v 0.010992 0.007037 0.027356
v -0.013519 0.004766 0.027356
v -0.012961 0.004815 0.027852
v -0.012865 0.004818 0.027940
v 0.011689 0.006297 0.027940
v 0.010531 0.007755 0.027356
v 0.011480 0.006627 0.027940
v -0.013498 0.004815 0.027356
v -0.013169 0.005556 0.027356
v -0.012521 0.005556 0.027940
v -0.012961 0.005556 0.027545
v 0.010739 0.007666 0.027940
v 0.011206 0.007037 0.027940
v 0.010000 0.008464 0.027356
v -0.012961 0.005968 0.027356
v -0.012222 0.006112 0.027940
v -0.012871 0.006144 0.027356
v 0.010651 0.007779 0.027940
v 0.009957 0.008518 0.027356
v -0.012788 0.006297 0.027356
v -0.012809 0.006259 0.027356
v -0.012118 0.006299 0.027940
v -0.012220 0.006297 0.027852
v 0.009477 0.009095 0.027356
v 0.010000 0.008523 0.027940
v -0.012350 0.007037 0.027356
v -0.011654 0.007037 0.027940
v -0.012220 0.007037 0.027467
v 0.008741 0.009847 0.027356
v 0.009258 0.009248 0.027940
v -0.012105 0.007410 0.027356
v -0.011481 0.007287 0.027940
v -0.011956 0.007627 0.027356
v 0.008517 0.010041 0.027356
v 0.009245 0.009260 0.027940
v -0.011481 0.007779 0.027654
v -0.011921 0.007677 0.027356
v -0.011118 0.007779 0.027940
v 0.007778 0.010664 0.027356
v 0.008517 0.009869 0.027940
v -0.011406 0.008355 0.027356
v -0.011481 0.008260 0.027356
v -0.011846 0.007779 0.027356
v -0.010742 0.008242 0.027940
v 0.007767 0.010672 0.027356
v 0.008343 0.010000 0.027940
v -0.011273 0.008518 0.027356
v -0.010502 0.008518 0.027940
v -0.010739 0.008518 0.027763
v 0.007036 0.011197 0.027356
v 0.007778 0.010405 0.027940
v -0.010739 0.009122 0.027356
v -0.010611 0.009259 0.027356
v -0.010005 0.009044 0.027940
v 0.007247 0.010740 0.027940
v 0.006294 0.011658 0.027356
v -0.009997 0.009859 0.027356
v -0.009997 0.009259 0.027793
v -0.009784 0.009259 0.027940
v 0.007036 0.010867 0.027940
v 0.005555 0.012059 0.027356
v -0.009843 0.009999 0.027356
v -0.009259 0.009737 0.027940
v 0.006294 0.011263 0.027940
v 0.004814 0.012397 0.027356
v 0.005822 0.011482 0.027940
v -0.009789 0.010046 0.027356
v -0.009259 0.009999 0.027742
v -0.008941 0.009999 0.027940
v 0.004395 0.012566 0.027356
v 0.005555 0.011601 0.027940
v -0.009259 0.010495 0.027356
v -0.008520 0.010330 0.027940
v -0.009141 0.010589 0.027356
v 0.004072 0.012685 0.027356
v 0.004814 0.011883 0.027940
v -0.008517 0.010740 0.027611
v -0.008941 0.010740 0.027356
v -0.009053 0.010656 0.027356
v -0.007935 0.010740 0.027940
v 0.003693 0.012811 0.027356
v 0.003333 0.012927 0.027356
v 0.004072 0.012115 0.027940
v -0.008517 0.011050 0.027356
v -0.007778 0.010845 0.027940
v -0.008397 0.011132 0.027356
v 0.003293 0.012940 0.027356
v 0.002592 0.012534 0.027940
v -0.007775 0.011481 0.027402
v -0.007861 0.011481 0.027356
v -0.008066 0.011351 0.027356
v -0.007036 0.011290 0.027940
v 0.002592 0.013135 0.027356
v 0.002592 0.012963 0.027524
v 0.001850 0.012704 0.027940
v -0.007775 0.011534 0.027356
v -0.006673 0.011481 0.027940
v -0.007036 0.011481 0.027773
v -0.007581 0.011648 0.027356
v 0.001850 0.012963 0.027686
v 0.001850 0.013298 0.027356
v 0.001111 0.012830 0.027940
v -0.006962 0.011991 0.027356
v -0.007036 0.011952 0.027356
v -0.006295 0.011672 0.027940
v 0.001111 0.013417 0.027356
v 0.000369 0.012911 0.027940
v -0.006724 0.012109 0.027356
v -0.005553 0.011998 0.027940
v -0.006295 0.012221 0.027442
v 0.000369 0.013494 0.027356
v -0.000372 0.012963 0.027926
v -0.000372 0.012948 0.027940
v -0.006295 0.012315 0.027356
v -0.005553 0.012221 0.027732
v -0.006084 0.012406 0.027356
v -0.004947 0.012223 0.027940
v -0.000372 0.013531 0.027356
v -0.000954 0.013528 0.027356
v -0.001109 0.012944 0.027940
v -0.005553 0.012624 0.027356
v -0.005430 0.012670 0.027356
v -0.004814 0.012271 0.027940
v -0.001109 0.013527 0.027356
v -0.001695 0.013492 0.027356
v -0.001802 0.012900 0.027940
v -0.005027 0.012811 0.027356
v -0.004814 0.012885 0.027356
v -0.005001 0.012820 0.027356
v -0.004072 0.012496 0.027940
v -0.001850 0.013482 0.027356
v -0.001850 0.012897 0.027940
v -0.004419 0.013000 0.027356
v -0.004072 0.012963 0.027489
v -0.003331 0.012674 0.027940
v -0.002424 0.013416 0.027356
v -0.002592 0.013397 0.027356
v -0.002592 0.012963 0.027786
v -0.002576 0.012809 0.027940
v -0.004072 0.013099 0.027356
v -0.003827 0.013157 0.027356
v -0.003325 0.012675 0.027940
v -0.003331 0.012963 0.027657
v -0.003139 0.013303 0.027356
v -0.002592 0.012807 0.027940
v -0.003331 0.013269 0.027356
f 1 2 3
f 1 3 4
f 1 4 5
f 1 5 9
f 1 9 15
f 1 15 21
f 1 21 20
f 1 20 25
f 1 25 30
f 1 30 32
f 1 32 38
f 1 38 37
f 1 37 43
f 1 43 50
f 1 50 55
f 1 55 60
f 1 60 65
f 1 65 71
f 1 71 76
f 1 76 80
f 1 80 85
f 1 85 89
f 1 89 91
f 1 91 96
f 1 96 101
f 1 101 108
f 1 108 113
f 1 113 120
f 1 120 127
f 1 127 132
f 1 132 138
f 1 138 145
f 1 145 151
f 1 151 157
f 1 157 164
f 1 164 170
f 1 170 167
f 1 167 160
f 1 160 155
f 1 155 148
f 1 148 142
f 1 142 134
f 1 134 130
f 1 130 122
f 1 122 117
f 1 117 110
f 1 110 105
f 1 105 98
f 1 98 94
f 1 94 88
f 1 88 84
f 1 84 79
f 1 79 73
f 1 73 69
f 1 69 63
f 1 63 57
f 1 57 52
f 1 52 47
f 1 47 41
f 1 41 35
f 1 35 29
f 1 29 24
f 1 24 17
f 1 17 10
f 1 10 6
f 1 6 12
f 1 12 7
f 1 7 2
f 2 7 13
f 2 13 18
f 2 18 22
f 2 22 23
f 2 23 27
f 2 27 33
f 2 33 34
f 2 34 40
f 2 40 42
f 2 42 46
f 2 46 45
f 2 45 51
f 2 51 56
f 2 56 58
f 2 58 62
f 2 62 68
f 2 68 67
f 2 67 66
f 2 66 72
f 2 72 77
f 2 77 78
f 2 78 82
f 2 82 87
f 2 87 92
f 2 92 97
f 2 97 99
f 2 99 104
f 2 104 103
f 2 103 109
f 2 109 111
f 2 111 116
f 2 116 115
f 2 115 121
f 2 121 124
f 2 124 129
f 2 129 128
f 2 128 133
f 2 133 139
f 2 139 141
f 2 141 146
f 2 146 147
f 2 147 152
f 2 152 154
f 2 154 153
f 2 153 158
f 2 158 165
f 2 165 166
f 2 166 171
f 2 171 169
f 2 169 162
f 2 162 161
f 2 161 156
f 2 156 150
f 2 150 149
f 2 149 144
f 2 144 143
f 2 143 136
f 2 136 131
f 2 131 126
f 2 126 118
f 2 118 112
f 2 112 107
f 2 107 106
f 2 106 100
f 2 100 95
f 2 95 90
f 2 90 86
f 2 86 81
f 2 81 75
f 2 75 70
f 2 70 64
f 2 64 59
f 2 59 54
f 2 54 49
f 2 49 44
f 2 44 39
f 2 39 31
f 2 31 26
f 2 26 19
f 2 19 14
f 2 14 8
f 2 8 4
f 2 4 3
f 4 8 5
f 5 8 9
f 6 10 11
f 6 11 12
f 7 12 13
f 8 14 15
f 8 15 9
f 10 16 11
f 10 17 16
f 11 16 13
f 11 13 12
f 13 16 18
f 14 19 20
f 14 20 21
f 14 21 15
f 16 22 18
f 16 17 23
f 16 23 22
f 17 24 23
f 19 25 20
f 19 26 25
f 23 24 27
f 24 28 27
f 24 29 28
f 25 26 30
f 26 31 32
f 26 32 30
f 27 28 33
f 28 29 34
f 28 34 33
f 29 35 36
f 29 36 34
f 31 37 38
f 31 38 32
f 31 39 37
f 34 36 40
f 35 41 42
f 35 42 40
f 35 40 36
f 37 39 43
f 39 44 43
f 41 45 46
f 41 46 42
f 41 47 48
f 41 48 45
f 43 44 49
f 43 49 50
f 45 48 51
f 47 52 53
f 47 53 51
f 47 51 48
f 49 54 50
f 50 54 55
f 51 53 56
f 52 57 62
f 52 62 58
f 52 58 56
f 52 56 53
f 54 59 55
f 55 59 60
f 57 61 62
f 57 63 61
f 59 64 60
f 60 64 65
f 61 63 66
f 61 66 67
f 61 67 68
f 61 68 62
f 63 69 66
f 64 70 65
f 65 70 71
f 66 69 72
f 69 73 74
f 69 74 72
f 70 75 71
f 71 75 76
f 72 74 77
f 73 78 77
f 73 77 74
f 73 79 78
f 75 80 76
f 75 81 80
f 78 79 83
f 78 83 82
f 79 84 83
f 80 81 85
f 81 86 85
f 82 83 84
f 82 84 88
f 82 88 87
f 85 86 89
f 86 90 91
f 86 91 89
f 87 88 92
f 88 93 92
f 88 94 93
f 90 95 96
f 90 96 91
f 92 93 97
f 93 94 97
f 94 98 99
f 94 99 97
f 95 100 101
f 95 101 96
f 98 102 103
f 98 103 104
f 98 104 99
f 98 105 102
f 100 106 101
f 101 106 107
f 101 107 108
f 102 109 103
f 102 105 109
f 105 110 111
f 105 111 109
f 107 112 108
f 108 112 113
f 110 114 115
f 110 115 116
f 110 116 111
f 110 117 114
f 112 118 119
f 112 119 113
f 113 119 120
f 114 121 115
f 114 117 121
f 117 122 123
f 117 123 124
f 117 124 121
f 118 125 120
f 118 120 119
f 118 126 125
f 120 125 127
f 122 128 129
f 122 129 123
f 122 130 128
f 123 129 124
f 125 126 127
f 126 131 127
f 127 131 132
f 128 130 133
f 130 134 135
f 130 135 133
f 131 136 132
f 132 136 137
f 132 137 138
f 133 135 139
f 134 140 141
f 134 141 139
f 134 139 135
f 134 142 140
f 136 143 137
f 137 143 144
f 137 144 145
f 137 145 138
f 140 146 141
f 140 142 147
f 140 147 146
f 142 148 147
f 144 149 145
f 145 149 150
f 145 150 151
f 147 148 152
f 148 153 154
f 148 154 152
f 148 155 153
f 150 156 157
f 150 157 151
f 153 155 158
f 155 159 158
f 155 160 159
f 156 161 157
f 157 161 162
f 157 162 163
f 157 163 164
f 158 159 165
f 159 160 166
f 159 166 165
f 160 167 168
f 160 168 166
f 162 169 163
f 163 169 170
f 163 170 164
f 166 168 171
f 167 170 168
f 168 170 171
f 169 171 170
