v 0.014589 0.001251 0.041912
v 0.014553 0.001853 0.041912
v 0.014551 0.001853 0.041915
v 0.014583 0.001251 0.041915
v 0.014285 0.001251 0.041279
v 0.014475 0.002593 0.041912
v 0.014472 0.002593 0.041915
v -0.012998 0.001251 0.041915
v 0.014225 0.001251 0.041176
v 0.014136 0.001853 0.041176
v 0.014355 0.003334 0.041912
v 0.014353 0.003334 0.041915
v -0.012962 0.001813 0.041915
v -0.013114 0.001251 0.041176
v 0.013799 0.001251 0.041176
v 0.014133 0.001853 0.041176
v 0.013981 0.002596 0.041176
v 0.014198 0.004074 0.041912
v 0.014198 0.004072 0.041915
v -0.012960 0.001853 0.041915
v -0.013014 0.001853 0.041176
v -0.013014 0.001853 0.041176
v -0.013084 0.001251 0.041176
v -0.012870 0.002593 0.041915
v 0.013786 0.003334 0.041176
v 0.014003 0.004815 0.041912
v 0.014000 0.004811 0.041915
v -0.012737 0.003334 0.041915
v -0.012962 0.002088 0.041176
v 0.013702 0.003599 0.041176
v 0.013702 0.003601 0.041176
v 0.013550 0.004072 0.041176
v 0.013742 0.005557 0.041912
v 0.013742 0.005549 0.041915
v -0.012561 0.004074 0.041915
v -0.012848 0.002595 0.041176
v 0.013263 0.004815 0.041176
v 0.013740 0.005557 0.041915
v 0.012962 0.005488 0.041176
v 0.012962 0.005557 0.041205
v 0.013376 0.006297 0.041912
v 0.013376 0.006293 0.041915
v -0.012339 0.004810 0.041915
v -0.012634 0.003334 0.041176
v 0.012962 0.005487 0.041176
v 0.012929 0.005557 0.041176
v 0.012962 0.006297 0.041544
v 0.012962 0.007035 0.041912
v 0.012959 0.007038 0.041915
v -0.012336 0.004819 0.041915
v -0.012374 0.004074 0.041176
v 0.012541 0.006297 0.041176
v 0.012221 0.006834 0.041176
v 0.012221 0.007038 0.041283
v 0.012482 0.007777 0.041912
v 0.012482 0.007775 0.041915
v -0.012222 0.005136 0.041915
v -0.012065 0.005557 0.041915
v -0.012222 0.004443 0.041176
v 0.012221 0.006832 0.041176
v 0.012094 0.007038 0.041176
v 0.012221 0.007777 0.041696
v 0.012221 0.008140 0.041912
v 0.012218 0.008139 0.041915
v -0.011748 0.006282 0.041915
v -0.012062 0.004816 0.041176
v 0.011579 0.007777 0.041176
v 0.011481 0.007907 0.041176
v 0.011936 0.008518 0.041912
v 0.011936 0.008515 0.041915
v -0.011731 0.006317 0.041915
v -0.011691 0.005557 0.041176
v 0.010990 0.008515 0.041176
v 0.011481 0.008518 0.041553
v 0.011481 0.009071 0.041912
v 0.011481 0.009069 0.041915
v -0.011479 0.006811 0.041915
v -0.011360 0.007038 0.041915
v -0.011482 0.005926 0.041176
v 0.010741 0.008800 0.041176
v 0.011316 0.009258 0.041912
v 0.011316 0.009256 0.041915
v -0.010920 0.007777 0.041915
v -0.011259 0.006297 0.041176
v 0.010741 0.009258 0.041486
v 0.010307 0.009258 0.041176
v 0.010741 0.009866 0.041912
v 0.010741 0.009863 0.041915
v -0.010739 0.008046 0.041915
v -0.010758 0.007038 0.041176
v 0.009998 0.009560 0.041176
v 0.010602 0.010000 0.041912
v 0.010602 0.010000 0.041915
v -0.010397 0.008534 0.041915
v -0.010739 0.007063 0.041176
v 0.009998 0.010000 0.041496
v 0.009512 0.010000 0.041176
v 0.009998 0.010553 0.041912
v 0.009998 0.010551 0.041915
v -0.009998 0.009043 0.041915
v -0.009998 0.009039 0.041912
v -0.010172 0.007777 0.041176
v 0.009257 0.010215 0.041176
v 0.009775 0.010740 0.041912
v 0.009775 0.010740 0.041915
v -0.009819 0.009258 0.041915
v -0.009817 0.009258 0.041912
v -0.009998 0.007976 0.041176
v 0.009257 0.010740 0.041584
v 0.008579 0.010740 0.041176
v 0.009257 0.011151 0.041912
v 0.009257 0.011150 0.041915
v -0.009798 0.009283 0.041915
v -0.009258 0.009877 0.041915
v -0.009258 0.009258 0.041490
v -0.008827 0.009258 0.041176
v 0.008517 0.010786 0.041176
v 0.008802 0.011481 0.041912
v 0.008802 0.011481 0.041915
v -0.009139 0.010000 0.041915
v -0.008518 0.009576 0.041176
v 0.008517 0.011481 0.041748
v 0.007777 0.011278 0.041176
v 0.008517 0.011676 0.041912
v 0.008517 0.011676 0.041915
v -0.008518 0.010586 0.041915
v -0.008518 0.010583 0.041912
v -0.008518 0.010000 0.041479
v -0.008068 0.010000 0.041176
v 0.007432 0.011481 0.041176
v 0.007435 0.011481 0.041176
v 0.007777 0.011481 0.041348
v 0.007777 0.012135 0.041912
v 0.007779 0.012134 0.041915
v -0.008342 0.010740 0.041915
v -0.007778 0.010253 0.041176
v 0.007036 0.011707 0.041176
v 0.007619 0.012222 0.041912
v 0.007622 0.012222 0.041915
v -0.007778 0.011199 0.041915
v -0.007778 0.010740 0.041552
v -0.007162 0.010740 0.041176
v 0.006296 0.012076 0.041176
v 0.007036 0.012222 0.041632
v 0.007036 0.012535 0.041912
v 0.007036 0.012535 0.041915
v -0.007387 0.011486 0.041915
v -0.007390 0.011481 0.041912
v -0.007037 0.010833 0.041176
v 0.005957 0.012222 0.041176
v 0.005960 0.012222 0.041176
v 0.006296 0.012222 0.041308
v 0.006296 0.012881 0.041912
v 0.006299 0.012881 0.041915
v -0.007035 0.011730 0.041915
v -0.007035 0.011481 0.041706
v -0.006294 0.011332 0.041176
v 0.005553 0.012392 0.041176
v 0.006095 0.012962 0.041912
v 0.006296 0.012882 0.041915
v -0.006300 0.012190 0.041915
v -0.006294 0.011481 0.041302
v -0.006045 0.011481 0.041176
v 0.004813 0.012656 0.041176
v 0.005553 0.012962 0.041710
v 0.006098 0.012962 0.041915
v 0.005553 0.013178 0.041912
v 0.005553 0.013179 0.041915
v -0.006232 0.012228 0.041915
v -0.006294 0.012190 0.041912
v -0.005554 0.011762 0.041176
v -0.005554 0.011760 0.041176
v 0.004073 0.012874 0.041176
v 0.004813 0.012962 0.041468
v 0.004813 0.013427 0.041912
v 0.004813 0.013428 0.041915
v -0.005554 0.012591 0.041915
v -0.005554 0.012589 0.041912
v -0.005554 0.012222 0.041583
v -0.006237 0.012222 0.041912
v -0.004814 0.012129 0.041176
v 0.003698 0.012962 0.041176
v 0.003701 0.012962 0.041176
v 0.004073 0.012962 0.041261
v 0.004073 0.013632 0.041912
v 0.004073 0.013635 0.041915
v 0.004794 0.013434 0.041915
v -0.004819 0.012933 0.041915
v -0.004814 0.012222 0.041260
v -0.004599 0.012222 0.041176
v 0.003332 0.013047 0.041176
v 0.003758 0.013703 0.041912
v 0.003332 0.013799 0.041915
v -0.004814 0.012936 0.041915
v -0.004073 0.012441 0.041176
v 0.003332 0.013797 0.041912
v 0.002592 0.013176 0.041176
v 0.002592 0.013919 0.041912
v 0.002595 0.013921 0.041915
v -0.004749 0.012962 0.041915
v -0.004073 0.012962 0.041665
v -0.003333 0.012700 0.041176
v 0.001849 0.013264 0.041176
v 0.001852 0.014005 0.041915
v 0.002587 0.013922 0.041915
v -0.004073 0.013228 0.041915
v -0.003333 0.012962 0.041427
v -0.002590 0.012912 0.041176
v 0.001109 0.013309 0.041176
v 0.001109 0.014045 0.041912
v 0.001109 0.014047 0.041915
v -0.003333 0.013472 0.041915
v -0.002601 0.013669 0.041915
v -0.002590 0.013671 0.041915
v -0.002368 0.012962 0.041176
v -0.001850 0.013077 0.041176
v 0.000371 0.013314 0.041176
v 0.000371 0.014048 0.041912
v 0.000371 0.014051 0.041915
v -0.002427 0.013706 0.041915
v -0.001850 0.013824 0.041912
v -0.001110 0.013199 0.041176
v -0.001110 0.013198 0.041176
v -0.000369 0.013277 0.041176
v -0.000369 0.014017 0.041915
v 0.000366 0.014051 0.041915
v -0.001850 0.013827 0.041915
v -0.001112 0.013942 0.041915
v -0.001110 0.013939 0.041912
f 1 2 3
f 1 3 4
f 1 4 8
f 1 8 14
f 1 14 23
f 1 23 15
f 1 15 9
f 1 9 5
f 1 5 2
f 2 6 7
f 2 7 3
f 2 5 6
f 3 7 12
f 3 12 19
f 3 19 27
f 3 27 34
f 3 34 38
f 3 38 42
f 3 42 49
f 3 49 56
f 3 56 64
f 3 64 70
f 3 70 76
f 3 76 82
f 3 82 88
f 3 88 93
f 3 93 99
f 3 99 105
f 3 105 112
f 3 112 119
f 3 119 125
f 3 125 134
f 3 134 139
f 3 139 146
f 3 146 154
f 3 154 160
f 3 160 166
f 3 166 168
f 3 168 176
f 3 176 187
f 3 187 186
f 3 186 193
f 3 193 199
f 3 199 205
f 3 205 204
f 3 204 211
f 3 211 219
f 3 219 226
f 3 226 225
f 3 225 228
f 3 228 227
f 3 227 220
f 3 220 214
f 3 214 213
f 3 213 212
f 3 212 206
f 3 206 200
f 3 200 194
f 3 194 188
f 3 188 177
f 3 177 169
f 3 169 161
f 3 161 155
f 3 155 147
f 3 147 140
f 3 140 135
f 3 135 126
f 3 126 120
f 3 120 114
f 3 114 113
f 3 113 106
f 3 106 100
f 3 100 94
f 3 94 89
f 3 89 83
f 3 83 78
f 3 78 77
f 3 77 71
f 3 71 65
f 3 65 58
f 3 58 57
f 3 57 50
f 3 50 43
f 3 43 35
f 3 35 28
f 3 28 24
f 3 24 20
f 3 20 13
f 3 13 8
f 3 8 4
f 5 9 6
f 6 9 10
f 6 10 11
f 6 11 12
f 6 12 7
f 8 13 14
f 9 15 16
f 9 16 10
f 10 16 17
f 10 17 11
f 11 18 19
f 11 19 12
f 11 17 18
f 13 20 14
f 14 21 22
f 14 22 23
f 14 20 24
f 14 24 21
f 15 23 22
f 15 22 29
f 15 29 36
f 15 36 44
f 15 44 51
f 15 51 59
f 15 59 66
f 15 66 72
f 15 72 79
f 15 79 84
f 15 84 90
f 15 90 95
f 15 95 102
f 15 102 108
f 15 108 116
f 15 116 121
f 15 121 129
f 15 129 136
f 15 136 142
f 15 142 149
f 15 149 157
f 15 157 163
f 15 163 172
f 15 172 181
f 15 181 190
f 15 190 195
f 15 195 202
f 15 202 208
f 15 208 216
f 15 216 223
f 15 223 224
f 15 224 217
f 15 217 209
f 15 209 203
f 15 203 197
f 15 197 191
f 15 191 182
f 15 182 173
f 15 173 164
f 15 164 158
f 15 158 150
f 15 150 143
f 15 143 137
f 15 137 130
f 15 130 123
f 15 123 117
f 15 117 110
f 15 110 103
f 15 103 97
f 15 97 91
f 15 91 86
f 15 86 80
f 15 80 73
f 15 73 68
f 15 68 67
f 15 67 61
f 15 61 60
f 15 60 52
f 15 52 46
f 15 46 45
f 15 45 37
f 15 37 32
f 15 32 30
f 15 30 25
f 15 25 17
f 15 17 16
f 17 25 26
f 17 26 18
f 18 26 19
f 19 26 27
f 21 24 28
f 21 28 22
f 22 28 29
f 25 30 31
f 25 31 26
f 26 31 32
f 26 32 33
f 26 33 34
f 26 34 27
f 28 35 36
f 28 36 29
f 30 32 31
f 32 37 33
f 33 38 34
f 33 37 39
f 33 39 40
f 33 40 41
f 33 41 42
f 33 42 38
f 35 43 44
f 35 44 36
f 37 45 39
f 39 45 46
f 39 46 40
f 40 46 41
f 41 46 47
f 41 47 48
f 41 48 49
f 41 49 42
f 43 50 44
f 44 50 51
f 46 52 47
f 47 52 48
f 48 52 53
f 48 53 54
f 48 54 55
f 48 55 49
f 49 55 56
f 50 57 51
f 51 57 58
f 51 58 59
f 52 60 53
f 53 60 61
f 53 61 54
f 54 61 55
f 55 61 62
f 55 62 63
f 55 63 56
f 56 63 64
f 58 65 66
f 58 66 59
f 61 67 62
f 62 67 63
f 63 67 68
f 63 68 69
f 63 69 70
f 63 70 64
f 65 71 66
f 66 71 72
f 68 73 74
f 68 74 69
f 69 74 75
f 69 75 76
f 69 76 70
f 71 77 72
f 72 77 78
f 72 78 79
f 73 80 75
f 73 75 74
f 75 80 81
f 75 81 82
f 75 82 76
f 78 83 79
f 79 83 84
f 80 85 81
f 80 86 85
f 81 85 87
f 81 87 88
f 81 88 82
f 83 89 84
f 84 89 90
f 85 86 87
f 86 91 87
f 87 91 92
f 87 92 93
f 87 93 88
f 89 94 90
f 90 94 95
f 91 96 92
f 91 97 96
f 92 96 98
f 92 98 93
f 93 98 99
f 94 100 101
f 94 101 95
f 95 101 102
f 96 97 98
f 97 103 98
f 98 103 104
f 98 104 105
f 98 105 99
f 100 106 107
f 100 107 101
f 101 107 102
f 102 107 108
f 103 109 104
f 103 110 109
f 104 109 111
f 104 111 105
f 105 111 112
f 106 113 107
f 107 113 114
f 107 114 115
f 107 115 108
f 108 115 116
f 109 110 111
f 110 117 118
f 110 118 111
f 111 118 119
f 111 119 112
f 114 120 121
f 114 121 116
f 114 116 115
f 117 122 118
f 117 123 122
f 118 122 124
f 118 124 125
f 118 125 119
f 120 126 127
f 120 127 128
f 120 128 121
f 121 128 129
f 122 123 124
f 123 130 131
f 123 131 132
f 123 132 124
f 124 132 133
f 124 133 134
f 124 134 125
f 126 135 127
f 127 135 129
f 127 129 128
f 129 135 136
f 130 137 131
f 131 137 133
f 131 133 132
f 133 137 138
f 133 138 139
f 133 139 134
f 135 140 141
f 135 141 136
f 136 141 142
f 137 143 144
f 137 144 138
f 138 144 145
f 138 145 139
f 139 145 146
f 140 147 148
f 140 148 149
f 140 149 142
f 140 142 141
f 143 150 151
f 143 151 152
f 143 152 145
f 143 145 144
f 145 152 153
f 145 153 154
f 145 154 146
f 147 155 148
f 148 155 156
f 148 156 149
f 149 156 157
f 150 158 151
f 151 153 152
f 151 158 153
f 153 159 160
f 153 160 154
f 153 158 159
f 155 161 162
f 155 162 157
f 155 157 156
f 157 162 163
f 158 164 165
f 158 165 159
f 159 166 160
f 159 165 167
f 159 167 168
f 159 168 166
f 161 169 170
f 161 170 162
f 162 170 163
f 163 171 172
f 163 170 171
f 164 167 165
f 164 173 174
f 164 174 167
f 167 174 175
f 167 175 176
f 167 176 168
f 169 177 178
f 169 178 179
f 169 179 171
f 169 171 180
f 169 180 170
f 170 180 171
f 171 179 181
f 171 181 172
f 173 175 174
f 173 182 183
f 173 183 184
f 173 184 175
f 175 184 185
f 175 185 186
f 175 186 187
f 175 187 176
f 177 188 178
f 178 188 189
f 178 189 181
f 178 181 179
f 181 189 190
f 182 191 183
f 183 185 184
f 183 191 185
f 185 191 192
f 185 192 186
f 186 192 193
f 188 194 189
f 189 194 190
f 190 194 195
f 191 196 192
f 191 197 196
f 192 196 193
f 193 196 198
f 193 198 199
f 194 200 195
f 195 200 201
f 195 201 202
f 196 197 198
f 197 203 198
f 198 203 204
f 198 204 205
f 198 205 199
f 200 206 201
f 201 206 202
f 202 207 208
f 202 206 207
f 203 209 204
f 204 209 210
f 204 210 211
f 206 212 207
f 207 212 208
f 208 213 214
f 208 214 215
f 208 215 216
f 208 212 213
f 209 217 210
f 210 217 218
f 210 218 219
f 210 219 211
f 214 220 216
f 214 216 215
f 216 220 221
f 216 221 222
f 216 222 223
f 217 224 225
f 217 225 218
f 218 225 226
f 218 226 219
f 220 227 221
f 221 227 228
f 221 228 222
f 222 228 229
f 222 229 224
f 222 224 223
f 224 229 225
f 225 229 228
