v 0.025750 0.004148 0.012910
v 0.025750 0.004148 0.016916
v 0.014556 0.004148 0.012910
v 0.025750 0.009106 0.012910
v 0.025750 0.009106 0.016916
v 0.014897 0.004148 0.016916
v 0.012822 0.004148 0.014706
v 0.010308 0.009106 0.014706
v 0.012136 0.009106 0.012910
v 0.012350 0.009106 0.016916
v 0.010339 0.009106 0.015441
v 0.013443 0.004148 0.015441
v 0.013330 0.004148 0.015313
v 0.010330 0.009106 0.015362
f 1 2 6
f 1 6 12
f 1 12 13
f 1 13 7
f 1 7 3
f 1 3 9
f 1 9 4
f 1 4 5
f 1 5 2
f 2 5 10
f 2 10 6
f 3 7 8
f 3 8 9
f 4 9 8
f 4 8 14
f 4 14 11
f 4 11 10
f 4 10 5
f 6 10 11
f 6 11 12
f 7 13 11
f 7 11 14
f 7 14 8
f 11 13 12
