v 0.025750 0.009106 0.004413
v 0.025750 0.013353 0.004413
v 0.025750 0.009106 0.005142
v 0.012352 0.009106 0.004413
v 0.025617 0.014117 0.004413
v 0.025657 0.014874 0.005142
v 0.025750 0.014109 0.005142
v 0.011883 0.009106 0.005142
v 0.012062 0.009106 0.004827
v 0.009161 0.012070 0.004413
v 0.025558 0.014252 0.004413
v 0.025558 0.014878 0.004940
v 0.025656 0.014878 0.005142
v 0.009161 0.012066 0.005142
v 0.009161 0.024445 0.004413
v 0.025199 0.014878 0.004413
v 0.025554 0.014980 0.005142
v 0.025558 0.014976 0.005142
v 0.024795 0.015306 0.004413
v 0.009161 0.024445 0.005142
v 0.024032 0.015860 0.004413
v 0.024409 0.015641 0.004413
v 0.023087 0.016405 0.005142
v 0.022507 0.016740 0.005142
f 1 2 7
f 1 7 3
f 1 3 8
f 1 8 9
f 1 9 4
f 1 4 10
f 1 10 15
f 1 15 21
f 1 21 22
f 1 22 19
f 1 19 16
f 1 16 11
f 1 11 5
f 1 5 2
f 2 5 6
f 2 6 7
f 3 7 6
f 3 6 13
f 3 13 18
f 3 18 17
f 3 17 23
f 3 23 24
f 3 24 20
f 3 20 14
f 3 14 8
f 4 9 10
f 5 11 12
f 5 12 13
f 5 13 6
f 8 14 10
f 8 10 9
f 10 14 20
f 10 20 15
f 11 16 12
f 12 17 18
f 12 18 13
f 12 16 19
f 12 19 17
f 15 20 21
f 17 19 22
f 17 22 21
f 17 21 23
f 20 24 21
f 21 24 23
