v -0.004923 -0.026890 0.011033
v -0.004923 -0.026890 0.015446
v -0.004963 -0.026868 0.011033
v -0.004923 -0.014503 0.011033
v -0.004959 -0.026869 0.015446
v -0.004923 -0.014696 0.015446
v -0.005722 -0.026430 0.015446
v -0.005909 -0.026322 0.015446
v -0.005909 -0.026322 0.011765
v -0.005722 -0.026430 0.011033
v -0.008214 -0.013106 0.011033
v -0.008214 -0.011374 0.012500
v -0.008214 -0.011023 0.012881
v -0.004923 -0.012516 0.013235
v -0.004923 -0.013187 0.013971
v -0.008212 -0.012943 0.015446
v -0.008013 -0.025107 0.015446
v -0.007227 -0.025561 0.011033
v -0.005911 -0.026320 0.011033
v -0.008214 -0.024990 0.011033
v -0.008214 -0.010884 0.013040
v -0.008214 -0.010732 0.013235
v -0.008214 -0.012948 0.015446
v -0.008214 -0.024990 0.015446
v -0.008012 -0.025107 0.011033
f 1 2 3
f 1 3 10
f 1 10 19
f 1 19 18
f 1 18 25
f 1 25 20
f 1 20 11
f 1 11 4
f 1 4 14
f 1 14 15
f 1 15 6
f 1 6 2
f 2 5 3
f 2 6 16
f 2 16 23
f 2 23 24
f 2 24 17
f 2 17 8
f 2 8 7
f 2 7 5
f 3 5 7
f 3 7 8
f 3 8 9
f 3 9 10
f 4 11 12
f 4 12 13
f 4 13 14
f 6 15 16
f 8 17 9
f 9 17 18
f 9 18 19
f 9 19 10
f 11 20 24
f 11 24 23
f 11 23 22
f 11 22 21
f 11 21 13
f 11 13 12
f 13 21 14
f 14 21 22
f 14 22 15
f 15 22 16
f 16 22 23
f 17 24 20
f 17 20 25
f 17 25 18
