v 0.011140 -0.023302 0.011770
v 0.012509 -0.022511 0.011770
v 0.011140 -0.023302 0.016176
v 0.011140 -0.010473 0.011770
v 0.012509 -0.022511 0.016176
v 0.012509 -0.008611 0.011770
v 0.011140 -0.010789 0.016176
v 0.011140 -0.007801 0.013971
v 0.012509 -0.005658 0.013971
v 0.012509 -0.009076 0.016176
v 0.012509 -0.005856 0.014706
v 0.011140 -0.008402 0.014706
v 0.011140 -0.007929 0.014138
v 0.012509 -0.005808 0.014624
v 0.011140 -0.008012 0.014245
f 1 2 5
f 1 5 3
f 1 3 7
f 1 7 12
f 1 12 15
f 1 15 13
f 1 13 8
f 1 8 4
f 1 4 6
f 1 6 2
f 2 6 9
f 2 9 14
f 2 14 11
f 2 11 10
f 2 10 5
f 3 5 10
f 3 10 7
f 4 8 9
f 4 9 6
f 7 10 11
f 7 11 12
f 8 13 11
f 8 11 14
f 8 14 9
f 11 13 15
f 11 15 12
