v -0.008602 0.024766 0.005879
v -0.008007 0.025110 0.005879
v -0.008602 0.024766 0.005147
v -0.008602 0.012590 0.005879
v -0.007230 0.025559 0.005879
v -0.007230 0.025559 0.005147
v -0.008602 0.012352 0.005147
v -0.008602 0.012589 0.005875
v -0.008597 0.012590 0.005879
v -0.004548 0.027108 0.005879
v -0.004548 0.027108 0.005147
v -0.004548 0.014568 0.005147
v -0.004548 0.014344 0.005879
f 1 2 3
f 1 3 7
f 1 7 8
f 1 8 4
f 1 4 9
f 1 9 13
f 1 13 10
f 1 10 5
f 1 5 2
f 2 5 6
f 2 6 3
f 3 6 11
f 3 11 12
f 3 12 7
f 4 8 9
f 5 10 11
f 5 11 6
f 7 12 13
f 7 13 9
f 7 9 8
f 10 13 12
f 10 12 11
