v 0.005328 -0.012645 0.017647
v 0.005328 -0.012811 0.017494
v 0.005328 -0.012676 0.018045
v 0.009335 -0.009833 0.018382
v 0.009335 -0.010367 0.017647
v 0.005328 -0.014244 0.016174
v 0.005328 -0.012738 0.018382
v 0.009333 -0.011922 0.019852
v 0.009335 -0.011826 0.019781
v 0.005328 -0.012939 0.018561
v 0.005328 -0.014395 0.019852
v 0.009335 -0.010434 0.017594
v 0.005328 -0.014339 0.016174
v 0.009334 -0.012256 0.016174
v 0.009335 -0.011933 0.019852
v 0.005328 -0.026315 0.019852
v 0.009335 -0.012258 0.016177
v 0.005330 -0.026656 0.016174
v 0.005328 -0.026657 0.016177
v 0.009335 -0.012272 0.016174
v 0.009335 -0.024343 0.019852
v 0.005328 -0.026657 0.019497
v 0.005329 -0.026656 0.019852
v 0.007248 -0.025549 0.016174
v 0.009335 -0.024343 0.016174
v 0.008774 -0.024668 0.019852
v 0.005910 -0.026321 0.019852
v 0.007248 -0.025549 0.019852
v 0.008774 -0.024668 0.016174
f 1 2 6
f 1 6 13
f 1 13 19
f 1 19 22
f 1 22 16
f 1 16 11
f 1 11 10
f 1 10 7
f 1 7 3
f 1 3 4
f 1 4 5
f 1 5 2
f 2 5 6
f 3 7 4
f 4 8 9
f 4 9 15
f 4 15 21
f 4 21 25
f 4 25 20
f 4 20 17
f 4 17 12
f 4 12 5
f 4 7 10
f 4 10 11
f 4 11 8
f 5 12 6
f 6 12 14
f 6 14 20
f 6 20 25
f 6 25 29
f 6 29 24
f 6 24 18
f 6 18 13
f 8 15 9
f 8 11 16
f 8 16 23
f 8 23 27
f 8 27 28
f 8 28 26
f 8 26 21
f 8 21 15
f 12 17 14
f 13 18 19
f 14 17 20
f 16 22 23
f 18 24 19
f 19 24 28
f 19 28 22
f 21 26 29
f 21 29 25
f 22 27 23
f 22 28 27
f 24 29 26
f 24 26 28
