v 0.000005 -0.013449 0.017647
v 0.000005 -0.014080 0.018382
v 0.005328 -0.012739 0.018382
v 0.005328 -0.012676 0.018045
v 0.005328 -0.012643 0.017647
v 0.000005 -0.015030 0.016036
v 0.000005 -0.015465 0.019856
v 0.005328 -0.012939 0.018561
v 0.005328 -0.014229 0.016036
v 0.000005 -0.029513 0.016036
v 0.005328 -0.014395 0.019856
v 0.000005 -0.029513 0.019856
v 0.005328 -0.026657 0.016036
v 0.000382 -0.029513 0.016036
v 0.005328 -0.026653 0.019856
v 0.000382 -0.029513 0.019856
v 0.005328 -0.026657 0.019853
v 0.005326 -0.026658 0.019856
v 0.004196 -0.027310 0.016036
f 1 2 3
f 1 3 4
f 1 4 5
f 1 5 6
f 1 6 10
f 1 10 12
f 1 12 7
f 1 7 2
f 2 7 3
f 3 8 11
f 3 11 15
f 3 15 17
f 3 17 13
f 3 13 9
f 3 9 5
f 3 5 4
f 3 7 8
f 5 9 6
f 6 9 13
f 6 13 19
f 6 19 14
f 6 14 10
f 7 11 8
f 7 12 16
f 7 16 18
f 7 18 15
f 7 15 11
f 10 14 16
f 10 16 12
f 13 17 18
f 13 18 19
f 14 19 18
f 14 18 16
f 15 18 17
