v -0.004923 -0.026891 0.019850
v -0.004923 -0.026891 0.023529
v -0.006485 -0.025989 0.019850
v -0.004923 -0.014429 0.019850
v -0.006485 -0.025989 0.023529
v -0.004923 -0.014068 0.023529
v -0.008214 -0.024990 0.019850
v -0.008214 -0.012643 0.019850
v -0.008214 -0.010720 0.021324
v -0.004923 -0.012792 0.021324
v -0.008214 -0.024990 0.023529
v -0.004923 -0.012922 0.022059
v -0.008214 -0.012431 0.023529
f 1 2 5
f 1 5 3
f 1 3 7
f 1 7 8
f 1 8 4
f 1 4 10
f 1 10 12
f 1 12 6
f 1 6 2
f 2 6 13
f 2 13 11
f 2 11 5
f 3 5 11
f 3 11 7
f 4 8 9
f 4 9 10
f 6 12 13
f 7 11 13
f 7 13 9
f 7 9 8
f 9 13 12
f 9 12 10
