v -0.011097 0.010712 0.013972
v -0.011097 0.007651 0.016177
v -0.011097 0.023326 0.013972
v -0.008602 0.012882 0.013972
v -0.008602 0.011235 0.015314
v -0.008602 0.011081 0.015441
v -0.008602 0.010381 0.016177
v -0.008605 0.012589 0.018381
v -0.011097 0.008011 0.016446
v -0.011097 0.023326 0.018381
v -0.008602 0.024767 0.013972
v -0.008602 0.012591 0.018378
v -0.011097 0.010662 0.018381
v -0.008602 0.012594 0.018381
v -0.009873 0.024033 0.018381
v -0.008602 0.024767 0.018216
v -0.008602 0.023246 0.018381
v -0.008774 0.024667 0.018381
v -0.008602 0.024766 0.018381
f 1 2 9
f 1 9 13
f 1 13 10
f 1 10 3
f 1 3 11
f 1 11 4
f 1 4 2
f 2 5 6
f 2 6 7
f 2 7 8
f 2 8 9
f 2 4 5
f 3 10 16
f 3 16 11
f 4 11 16
f 4 16 17
f 4 17 14
f 4 14 12
f 4 12 7
f 4 7 6
f 4 6 5
f 7 12 8
f 8 13 9
f 8 12 14
f 8 14 17
f 8 17 19
f 8 19 18
f 8 18 15
f 8 15 10
f 8 10 13
f 10 15 16
f 15 18 16
f 16 18 19
f 16 19 17
