v 0.025750 0.009106 0.008953
v 0.025750 0.014115 0.008953
v 0.025750 0.009106 0.012838
v 0.012326 0.009106 0.008953
v 0.025750 0.014115 0.012838
v 0.025658 0.014879 0.008953
v 0.012125 0.009106 0.012838
v 0.010629 0.009106 0.010290
v 0.008650 0.012628 0.008954
v 0.008652 0.012628 0.008953
v 0.025658 0.014879 0.012838
v 0.025559 0.014978 0.008953
v 0.025613 0.014924 0.012838
v 0.008650 0.012416 0.012838
v 0.008650 0.010266 0.011029
v 0.009976 0.009106 0.011030
v 0.010624 0.009106 0.010294
v 0.008650 0.012654 0.008953
v 0.025559 0.014978 0.012838
v 0.024409 0.015642 0.008953
v 0.008650 0.024738 0.012838
v 0.008650 0.024738 0.008953
v 0.024409 0.015642 0.012838
v 0.011196 0.023270 0.008953
v 0.008655 0.024736 0.012838
v 0.008776 0.024667 0.008953
v 0.011196 0.023270 0.012838
v 0.008776 0.024667 0.012838
f 1 2 5
f 1 5 3
f 1 3 7
f 1 7 16
f 1 16 17
f 1 17 8
f 1 8 4
f 1 4 10
f 1 10 18
f 1 18 22
f 1 22 26
f 1 26 24
f 1 24 20
f 1 20 12
f 1 12 6
f 1 6 2
f 2 6 11
f 2 11 5
f 3 5 11
f 3 11 13
f 3 13 19
f 3 19 23
f 3 23 27
f 3 27 28
f 3 28 25
f 3 25 21
f 3 21 14
f 3 14 7
f 4 8 9
f 4 9 10
f 6 12 13
f 6 13 11
f 7 14 15
f 7 15 16
f 8 17 15
f 8 15 9
f 9 15 14
f 9 14 21
f 9 21 22
f 9 22 18
f 9 18 10
f 12 19 13
f 12 20 23
f 12 23 19
f 15 17 16
f 20 24 27
f 20 27 23
f 21 25 22
f 22 25 26
f 24 26 28
f 24 28 27
f 25 28 26
