v 0.025750 0.009108 0.021489
v 0.025750 0.014116 0.021489
v 0.025750 0.009108 0.024264
v 0.012280 0.009108 0.021489
v 0.025658 0.014879 0.021489
v 0.025750 0.014116 0.024264
v 0.025559 0.009108 0.025000
v 0.010630 0.009108 0.022790
v 0.005820 0.014042 0.021489
v 0.025658 0.014879 0.024264
v 0.025559 0.014978 0.021489
v 0.025559 0.014879 0.025000
v 0.011494 0.009108 0.025000
v 0.010624 0.009108 0.022794
v 0.005820 0.012210 0.023529
v 0.005820 0.026373 0.021489
v 0.025559 0.014978 0.024264
v 0.011828 0.022906 0.021489
v 0.021743 0.017167 0.025000
v 0.006486 0.012590 0.025000
v 0.009976 0.009108 0.023531
v 0.005820 0.012747 0.024357
v 0.005910 0.026322 0.021489
v 0.005820 0.026373 0.024264
v 0.011828 0.022906 0.024264
v 0.005910 0.026322 0.024264
v 0.005820 0.026322 0.024620
v 0.011065 0.023269 0.025000
v 0.005820 0.013256 0.025000
v 0.005820 0.026280 0.024907
v 0.005820 0.026226 0.025000
f 1 2 6
f 1 6 3
f 1 3 7
f 1 7 13
f 1 13 21
f 1 21 14
f 1 14 8
f 1 8 4
f 1 4 9
f 1 9 16
f 1 16 23
f 1 23 18
f 1 18 11
f 1 11 5
f 1 5 2
f 2 5 10
f 2 10 6
f 3 6 12
f 3 12 7
f 4 8 9
f 5 11 17
f 5 17 10
f 6 10 12
f 7 12 19
f 7 19 28
f 7 28 31
f 7 31 29
f 7 29 20
f 7 20 13
f 8 14 9
f 9 15 22
f 9 22 29
f 9 29 31
f 9 31 30
f 9 30 27
f 9 27 24
f 9 24 16
f 9 14 15
f 10 17 12
f 11 18 25
f 11 25 17
f 12 17 19
f 13 20 21
f 14 21 15
f 15 20 22
f 15 21 20
f 16 24 26
f 16 26 23
f 17 25 19
f 18 23 26
f 18 26 25
f 19 25 26
f 19 26 27
f 19 27 28
f 20 29 22
f 24 27 26
f 27 30 28
f 28 30 31
