v 0.000005 0.029513 0.009221
v 0.000381 0.029513 0.009221
v 0.000005 0.029513 0.005151
v 0.000005 0.015185 0.009221
v 0.001903 0.028635 0.005151
v 0.000381 0.029513 0.005151
v 0.003783 0.027549 0.009221
v 0.000005 0.015466 0.005151
v 0.000005 0.013448 0.007353
v 0.005818 0.013991 0.009221
v 0.005808 0.026380 0.009221
v 0.003433 0.027751 0.005151
v 0.005818 0.014180 0.005151
v 0.005818 0.012496 0.006618
v 0.000005 0.014079 0.006618
v 0.000005 0.013749 0.006982
v 0.005818 0.012451 0.007260
v 0.005818 0.012458 0.007353
v 0.005818 0.026373 0.009221
v 0.005818 0.026373 0.005151
v 0.005718 0.026432 0.005151
f 1 2 6
f 1 6 3
f 1 3 8
f 1 8 15
f 1 15 16
f 1 16 9
f 1 9 4
f 1 4 10
f 1 10 19
f 1 19 11
f 1 11 7
f 1 7 2
f 2 5 6
f 2 7 5
f 3 6 5
f 3 5 12
f 3 12 21
f 3 21 20
f 3 20 13
f 3 13 8
f 4 9 10
f 5 7 11
f 5 11 12
f 8 13 14
f 8 14 15
f 9 16 14
f 9 14 17
f 9 17 18
f 9 18 10
f 10 18 17
f 10 17 14
f 10 14 13
f 10 13 20
f 10 20 19
f 11 19 20
f 11 20 21
f 11 21 12
f 14 16 15
