v 0.009537 -0.022507 0.000000
v 0.009335 -0.023270 0.000345
v 0.009335 -0.022507 0.000000
v 0.011063 -0.021744 0.000000
v 0.011140 -0.021744 0.000003
v 0.010300 -0.022507 0.000032
v 0.009537 -0.023270 0.000417
v 0.009537 -0.023625 0.000735
v 0.009335 -0.023701 0.000735
v 0.009335 -0.013353 0.000000
v 0.011140 -0.020981 0.000000
v 0.011140 -0.022507 0.000383
v 0.011063 -0.022507 0.000349
v 0.011063 -0.022949 0.000735
v 0.010370 -0.023270 0.000735
v 0.010300 -0.023270 0.000707
v 0.009335 -0.024196 0.001262
v 0.010300 -0.023302 0.000735
v 0.009335 -0.012590 0.000282
v 0.009537 -0.012590 0.000167
v 0.011063 -0.011827 0.000000
v 0.011140 -0.011827 0.000000
v 0.011140 -0.022910 0.000735
v 0.009335 -0.024338 0.001471
v 0.009335 -0.011266 0.001289
v 0.011140 -0.009197 0.001471
v 0.011140 -0.010987 0.000307
v 0.011140 -0.023233 0.001309
v 0.011063 -0.023270 0.001292
v 0.009537 -0.024227 0.001471
v 0.009335 -0.024344 0.001666
v 0.009335 -0.011028 0.001471
v 0.011140 -0.008401 0.002206
v 0.011140 -0.023270 0.001396
v 0.011140 -0.023302 0.001471
v 0.009335 -0.024344 0.003136
v 0.009335 -0.010550 0.002206
v 0.011139 -0.010789 0.003675
v 0.011140 -0.010792 0.003675
v 0.009335 -0.012256 0.003675
v 0.011140 -0.023302 0.003675
v 0.009537 -0.024227 0.003675
v 0.009335 -0.024342 0.003675
v 0.009335 -0.024135 0.003675
f 1 2 3
f 1 3 10
f 1 10 21
f 1 21 22
f 1 22 11
f 1 11 4
f 1 4 5
f 1 5 6
f 1 6 2
f 2 6 7
f 2 7 8
f 2 8 9
f 2 9 17
f 2 17 24
f 2 24 31
f 2 31 36
f 2 36 44
f 2 44 40
f 2 40 37
f 2 37 32
f 2 32 25
f 2 25 19
f 2 19 10
f 2 10 3
f 4 11 5
f 5 11 22
f 5 22 27
f 5 27 26
f 5 26 33
f 5 33 39
f 5 39 41
f 5 41 35
f 5 35 34
f 5 34 28
f 5 28 23
f 5 23 12
f 5 12 13
f 5 13 6
f 6 13 14
f 6 14 15
f 6 15 16
f 6 16 7
f 7 16 8
f 8 17 9
f 8 16 18
f 8 18 17
f 10 19 20
f 10 20 21
f 12 23 14
f 12 14 13
f 14 23 17
f 14 17 15
f 15 18 16
f 15 17 18
f 17 23 24
f 19 25 26
f 19 26 20
f 20 26 27
f 20 27 21
f 21 27 22
f 23 28 29
f 23 29 30
f 23 30 24
f 24 30 31
f 25 32 26
f 26 32 33
f 28 34 29
f 29 34 30
f 30 34 35
f 30 35 31
f 31 35 41
f 31 41 36
f 32 37 33
f 33 38 39
f 33 37 40
f 33 40 38
f 36 42 43
f 36 43 44
f 36 41 42
f 38 40 44
f 38 44 43
f 38 43 42
f 38 42 41
f 38 41 39
