v -0.013406 0.001934 0.008089
v -0.012488 0.006486 0.007354
v -0.011817 0.006486 0.008089
v -0.013855 0.001934 0.008823
v -0.015014 0.001934 0.006334
v -0.013616 0.006486 0.006334
v -0.013357 0.006486 0.006618
v -0.013927 0.006486 0.010285
v -0.013923 0.006485 0.010285
v -0.014614 0.001934 0.009559
v -0.025750 0.001934 0.006334
v -0.013960 0.006486 0.006334
v -0.025750 0.006486 0.010285
v -0.015366 0.001934 0.010285
v -0.014867 0.001934 0.009803
v -0.025750 0.001934 0.010285
v -0.025750 0.006486 0.006334
v -0.021202 0.006486 0.006334
v -0.025750 0.006486 0.006619
f 1 2 3
f 1 3 4
f 1 4 10
f 1 10 15
f 1 15 14
f 1 14 16
f 1 16 11
f 1 11 5
f 1 5 2
f 2 6 7
f 2 7 12
f 2 12 18
f 2 18 19
f 2 19 13
f 2 13 8
f 2 8 3
f 2 5 6
f 3 8 9
f 3 9 4
f 4 9 10
f 5 11 17
f 5 17 18
f 5 18 12
f 5 12 6
f 6 12 7
f 8 13 16
f 8 16 14
f 8 14 9
f 9 14 15
f 9 15 10
f 11 16 13
f 11 13 19
f 11 19 17
f 17 19 18
