v 0.015142 -0.001454 0.016901
v 0.015278 0.001307 0.016901
v 0.013383 0.001309 0.014706
v 0.013507 -0.001454 0.014706
v 0.025750 -0.001454 0.016901
v 0.015284 0.001309 0.016901
v 0.014021 0.001309 0.013971
v 0.013869 -0.001454 0.013971
v 0.013636 -0.001454 0.014408
v 0.025750 -0.001454 0.012501
v 0.025750 0.001309 0.016901
v 0.015418 0.001309 0.012501
v 0.014451 -0.001454 0.013410
v 0.025750 0.001309 0.012501
v 0.015398 -0.001454 0.012501
v 0.015214 -0.001454 0.012677
f 1 2 3
f 1 3 4
f 1 4 9
f 1 9 8
f 1 8 13
f 1 13 16
f 1 16 15
f 1 15 10
f 1 10 5
f 1 5 11
f 1 11 6
f 1 6 2
f 2 6 3
f 3 7 8
f 3 8 9
f 3 9 4
f 3 6 11
f 3 11 14
f 3 14 12
f 3 12 7
f 5 10 14
f 5 14 11
f 7 12 8
f 8 12 13
f 10 15 12
f 10 12 14
f 12 15 16
f 12 16 13
