v -0.004923 -0.012792 0.021324
v -0.004923 -0.014429 0.019854
v -0.004923 -0.012922 0.022059
v 0.000004 -0.013575 0.022059
v 0.000004 -0.013955 0.021324
v 0.000004 -0.014043 0.021237
v 0.000004 -0.014115 0.021167
v 0.000004 -0.014711 0.020588
v 0.000004 -0.015186 0.020128
v 0.000004 -0.015469 0.019854
v -0.004923 -0.026891 0.019854
v -0.004923 -0.014066 0.023524
v 0.000004 -0.014889 0.023515
v 0.000004 -0.029142 0.019854
v -0.001146 -0.029071 0.019854
v -0.001141 -0.029075 0.023524
v -0.004920 -0.026893 0.023524
v -0.004923 -0.026891 0.023457
v 0.000004 -0.014897 0.023524
v -0.004923 -0.026832 0.023524
v 0.000004 -0.029512 0.020217
v 0.000003 -0.029512 0.019854
v -0.000624 -0.029373 0.019854
v -0.000383 -0.029512 0.023524
v 0.000004 -0.029512 0.023524
v -0.000382 -0.029512 0.019854
f 1 2 11
f 1 11 18
f 1 18 20
f 1 20 12
f 1 12 3
f 1 3 4
f 1 4 5
f 1 5 6
f 1 6 7
f 1 7 8
f 1 8 9
f 1 9 10
f 1 10 2
f 2 10 14
f 2 14 22
f 2 22 26
f 2 26 23
f 2 23 15
f 2 15 11
f 3 12 4
f 4 12 13
f 4 13 19
f 4 19 25
f 4 25 21
f 4 21 14
f 4 14 10
f 4 10 9
f 4 9 8
f 4 8 7
f 4 7 6
f 4 6 5
f 11 15 16
f 11 16 17
f 11 17 18
f 12 19 13
f 12 20 17
f 12 17 16
f 12 16 24
f 12 24 25
f 12 25 19
f 14 21 22
f 15 23 16
f 16 23 24
f 17 20 18
f 21 25 24
f 21 24 26
f 21 26 22
f 23 26 24
