v 0.005328 -0.013296 0.002206
v 0.009335 -0.010551 0.002206
v 0.005328 -0.013427 0.001471
v 0.005328 -0.014243 0.003675
v 0.009335 -0.012257 0.003675
v 0.009335 -0.011997 0.003365
v 0.009335 -0.011027 0.001471
v 0.005328 -0.013611 0.001303
v 0.005328 -0.026503 0.003675
v 0.009335 -0.014926 0.003675
v 0.009335 -0.012589 0.000282
v 0.005328 -0.014879 0.000153
v 0.005328 -0.014510 0.000487
v 0.005328 -0.026657 0.003321
v 0.005329 -0.026656 0.003675
v 0.009335 -0.024343 0.003675
v 0.009335 -0.013353 0.000000
v 0.008774 -0.013353 0.000000
v 0.005722 -0.014879 0.000024
v 0.005328 -0.015642 0.000000
v 0.005910 -0.026321 0.003675
v 0.005328 -0.026657 0.002941
v 0.007248 -0.025549 0.003675
v 0.008774 -0.024667 0.003675
v 0.009335 -0.024343 0.001665
v 0.009335 -0.022507 0.000000
v 0.005328 -0.024032 0.000000
v 0.005328 -0.026629 0.002585
v 0.006485 -0.025989 0.002206
v 0.007248 -0.025549 0.002206
v 0.008774 -0.024667 0.002206
v 0.009335 -0.024338 0.001471
v 0.009335 -0.023270 0.000345
v 0.008774 -0.023270 0.000145
v 0.008011 -0.023270 0.000000
v 0.005722 -0.024032 0.000000
v 0.005328 -0.024795 0.000626
v 0.005328 -0.026454 0.002206
v 0.005722 -0.026370 0.002206
v 0.008774 -0.024647 0.001471
v 0.009335 -0.024196 0.001262
v 0.009335 -0.023702 0.000735
v 0.008774 -0.023918 0.000735
v 0.008011 -0.024032 0.000596
v 0.007248 -0.024032 0.000372
v 0.006485 -0.024032 0.000168
v 0.005722 -0.024795 0.000707
v 0.005328 -0.024896 0.000722
v 0.005328 -0.026430 0.002180
v 0.005722 -0.026321 0.002152
v 0.008011 -0.024980 0.001471
v 0.008774 -0.024032 0.000840
v 0.008448 -0.024032 0.000735
v 0.008011 -0.024795 0.001300
v 0.007248 -0.024423 0.000735
v 0.007248 -0.025213 0.001471
v 0.006485 -0.024637 0.000735
v 0.005845 -0.024795 0.000735
v 0.006485 -0.025419 0.001471
v 0.005722 -0.025602 0.001471
v 0.005328 -0.025265 0.001071
v 0.005328 -0.026321 0.002076
f 1 2 3
f 1 3 8
f 1 8 13
f 1 13 12
f 1 12 20
f 1 20 27
f 1 27 37
f 1 37 48
f 1 48 61
f 1 61 62
f 1 62 49
f 1 49 38
f 1 38 28
f 1 28 22
f 1 22 14
f 1 14 9
f 1 9 4
f 1 4 2
f 2 5 6
f 2 6 10
f 2 10 16
f 2 16 25
f 2 25 32
f 2 32 41
f 2 41 42
f 2 42 33
f 2 33 26
f 2 26 17
f 2 17 11
f 2 11 7
f 2 7 3
f 2 4 5
f 3 7 8
f 4 9 15
f 4 15 21
f 4 21 23
f 4 23 24
f 4 24 16
f 4 16 10
f 4 10 5
f 5 10 6
f 7 11 12
f 7 12 13
f 7 13 8
f 9 14 15
f 11 17 18
f 11 18 19
f 11 19 12
f 12 19 20
f 14 21 15
f 14 22 30
f 14 30 23
f 14 23 21
f 16 24 31
f 16 31 25
f 17 26 35
f 17 35 36
f 17 36 27
f 17 27 20
f 17 20 18
f 18 20 19
f 22 28 29
f 22 29 30
f 23 30 31
f 23 31 24
f 25 31 30
f 25 30 29
f 25 29 32
f 26 33 34
f 26 34 35
f 27 36 37
f 28 38 39
f 28 39 29
f 29 39 40
f 29 40 32
f 32 40 41
f 33 42 34
f 34 42 43
f 34 43 44
f 34 44 45
f 34 45 46
f 34 46 36
f 34 36 35
f 36 46 47
f 36 47 37
f 37 47 48
f 38 49 50
f 38 50 39
f 39 50 51
f 39 51 40
f 40 51 42
f 40 42 41
f 42 52 43
f 42 51 52
f 43 52 53
f 43 53 44
f 44 53 54
f 44 54 45
f 45 54 51
f 45 51 55
f 45 55 46
f 46 55 56
f 46 56 57
f 46 57 47
f 47 57 58
f 47 58 59
f 47 59 60
f 47 60 48
f 48 60 61
f 49 62 50
f 50 62 61
f 50 61 60
f 50 60 59
f 50 59 56
f 50 56 51
f 51 56 55
f 51 54 52
f 52 54 53
f 56 59 57
f 57 59 58
