v -0.025749 -0.001123 0.010294
v -0.025749 -0.004034 0.010294
v -0.015318 -0.001123 0.010294
v -0.025749 -0.001123 0.006615
v -0.025749 -0.004035 0.010294
v -0.014693 -0.004035 0.010294
v -0.014679 -0.004035 0.010294
v -0.014274 -0.004035 0.009922
v -0.013079 -0.004035 0.008824
v -0.013793 -0.001123 0.008824
v -0.015165 -0.001123 0.006615
v -0.025749 -0.004035 0.006615
v -0.013240 -0.004035 0.008088
v -0.013652 -0.001123 0.008088
v -0.014795 -0.004035 0.006615
f 1 2 6
f 1 6 7
f 1 7 3
f 1 3 10
f 1 10 14
f 1 14 11
f 1 11 4
f 1 4 12
f 1 12 5
f 1 5 2
f 2 5 6
f 3 7 8
f 3 8 9
f 3 9 10
f 4 11 15
f 4 15 12
f 5 12 15
f 5 15 13
f 5 13 9
f 5 9 8
f 5 8 7
f 5 7 6
f 9 13 14
f 9 14 10
f 11 14 13
f 11 13 15
