v 0.005328 -0.012374 0.022059
v 0.005328 -0.012549 0.022275
v 0.009335 -0.010200 0.022794
v 0.009335 -0.010036 0.022059
v 0.005328 -0.013983 0.020581
v 0.005328 -0.013016 0.022794
v 0.009335 -0.011244 0.023529
v 0.005328 -0.013691 0.023393
v 0.005328 -0.013848 0.023529
v 0.009335 -0.011951 0.020581
v 0.005328 -0.026657 0.020581
v 0.009335 -0.024344 0.023529
v 0.005328 -0.026294 0.023529
v 0.009335 -0.024344 0.020581
v 0.005915 -0.026319 0.020581
v 0.005328 -0.026657 0.023174
v 0.008011 -0.025108 0.023529
v 0.007256 -0.025544 0.020581
v 0.005329 -0.026656 0.023529
v 0.007230 -0.025559 0.023529
v 0.005909 -0.026322 0.023529
v 0.005722 -0.026429 0.023529
f 1 2 3
f 1 3 4
f 1 4 5
f 1 5 11
f 1 11 16
f 1 16 13
f 1 13 9
f 1 9 8
f 1 8 6
f 1 6 2
f 2 6 3
f 3 7 12
f 3 12 14
f 3 14 10
f 3 10 4
f 3 6 8
f 3 8 9
f 3 9 7
f 4 10 5
f 5 10 14
f 5 14 18
f 5 18 15
f 5 15 11
f 7 9 13
f 7 13 19
f 7 19 22
f 7 22 21
f 7 21 20
f 7 20 17
f 7 17 12
f 11 15 16
f 12 17 18
f 12 18 14
f 13 16 19
f 15 18 20
f 15 20 16
f 16 20 21
f 16 21 22
f 16 22 19
f 17 20 18
