v -0.025748 -0.006737 0.006617
v -0.025748 -0.006737 0.002412
v -0.025748 -0.009106 0.006617
v -0.013916 -0.006737 0.006617
v -0.025748 -0.007248 0.002412
v -0.013662 -0.006737 0.002412
v -0.025748 -0.009106 0.002941
v -0.012519 -0.009106 0.006617
v -0.010509 -0.009106 0.005147
v -0.012331 -0.006737 0.005147
v -0.025724 -0.008225 0.002412
v -0.011687 -0.006737 0.004412
v -0.010144 -0.009106 0.004412
v -0.012133 -0.009106 0.002412
v -0.025559 -0.009106 0.002415
v -0.010345 -0.009106 0.004854
v -0.011821 -0.006737 0.004581
v -0.025559 -0.009099 0.002412
v -0.025557 -0.009106 0.002412
f 1 2 5
f 1 5 7
f 1 7 3
f 1 3 8
f 1 8 4
f 1 4 10
f 1 10 17
f 1 17 12
f 1 12 6
f 1 6 2
f 2 6 14
f 2 14 19
f 2 19 18
f 2 18 11
f 2 11 5
f 3 7 15
f 3 15 19
f 3 19 14
f 3 14 13
f 3 13 16
f 3 16 9
f 3 9 8
f 4 8 9
f 4 9 10
f 5 11 7
f 6 12 13
f 6 13 14
f 7 11 15
f 9 16 12
f 9 12 17
f 9 17 10
f 11 18 15
f 12 16 13
f 15 18 19
