v 0.009335 -0.024344 0.016182
v 0.011063 -0.023346 0.016182
v 0.009335 -0.024344 0.020493
v 0.009335 -0.012250 0.016182
v 0.011140 -0.023302 0.016182
v 0.011063 -0.023346 0.020493
v 0.009335 -0.011956 0.020493
v 0.009335 -0.010502 0.017541
v 0.011140 -0.007469 0.018382
v 0.011140 -0.010781 0.016182
v 0.011140 -0.023302 0.020493
v 0.011140 -0.010405 0.020493
v 0.009335 -0.009832 0.018382
v 0.009335 -0.010367 0.017647
f 1 2 6
f 1 6 3
f 1 3 7
f 1 7 13
f 1 13 14
f 1 14 8
f 1 8 4
f 1 4 10
f 1 10 5
f 1 5 2
f 2 5 11
f 2 11 6
f 3 6 11
f 3 11 12
f 3 12 7
f 4 8 9
f 4 9 10
f 5 10 9
f 5 9 12
f 5 12 11
f 7 12 9
f 7 9 13
f 8 14 9
f 9 14 13
