v -0.025748 -0.006739 0.019115
v -0.025748 -0.009106 0.019115
v -0.014059 -0.006737 0.019115
v -0.025748 -0.006737 0.018875
v -0.025748 -0.009106 0.014705
v -0.012516 -0.009106 0.019115
v -0.013913 -0.006737 0.019115
v -0.025748 -0.006737 0.014706
v -0.025748 -0.006738 0.014705
v -0.012189 -0.009106 0.014705
v -0.010509 -0.009106 0.017647
v -0.012331 -0.006737 0.017647
v -0.013845 -0.006737 0.014705
v -0.013787 -0.006737 0.014705
v -0.011687 -0.006737 0.016911
v -0.010144 -0.009106 0.016911
v -0.010345 -0.009106 0.017353
v -0.011821 -0.006737 0.017081
f 1 2 6
f 1 6 7
f 1 7 3
f 1 3 4
f 1 4 8
f 1 8 9
f 1 9 5
f 1 5 2
f 2 5 10
f 2 10 16
f 2 16 17
f 2 17 11
f 2 11 6
f 3 7 12
f 3 12 18
f 3 18 15
f 3 15 14
f 3 14 13
f 3 13 8
f 3 8 4
f 5 9 13
f 5 13 14
f 5 14 10
f 6 11 7
f 7 11 12
f 8 13 9
f 10 14 15
f 10 15 16
f 11 17 15
f 11 15 18
f 11 18 12
f 15 17 16
