v 0.000005 -0.013701 0.013236
v 0.000005 -0.013915 0.013028
v 0.000005 -0.013827 0.013970
v 0.005328 -0.012459 0.013970
v 0.005328 -0.012912 0.013236
v 0.000005 -0.014297 0.012656
v 0.000005 -0.014356 0.014485
v 0.005328 -0.014125 0.015442
v 0.000005 -0.015342 0.015442
v 0.005328 -0.013070 0.013088
v 0.000005 -0.015216 0.011765
v 0.005328 -0.026657 0.015442
v 0.000005 -0.029513 0.015442
v 0.005328 -0.014508 0.011765
v 0.000005 -0.029513 0.011765
v 0.004958 -0.026870 0.015442
v 0.005328 -0.026657 0.011765
v 0.000381 -0.029513 0.015442
v 0.000381 -0.029513 0.011765
v 0.000382 -0.029513 0.015441
v 0.000382 -0.029513 0.012500
f 1 2 6
f 1 6 11
f 1 11 15
f 1 15 13
f 1 13 9
f 1 9 7
f 1 7 3
f 1 3 4
f 1 4 5
f 1 5 2
f 2 5 6
f 3 7 4
f 4 8 12
f 4 12 17
f 4 17 14
f 4 14 10
f 4 10 5
f 4 7 9
f 4 9 8
f 5 10 11
f 5 11 6
f 8 9 13
f 8 13 18
f 8 18 16
f 8 16 12
f 10 14 11
f 11 14 17
f 11 17 19
f 11 19 15
f 12 16 17
f 13 15 19
f 13 19 21
f 13 21 20
f 13 20 18
f 16 18 20
f 16 20 21
f 16 21 17
f 17 21 19
