v 0.005328 -0.026657 0.007841
v 0.007236 -0.025556 0.007841
v 0.005328 -0.026657 0.011776
v 0.005328 -0.014106 0.007841
v 0.007230 -0.025559 0.011776
v 0.009335 -0.024344 0.007841
v 0.009335 -0.024344 0.011776
v 0.008011 -0.025108 0.011776
v 0.005328 -0.014497 0.011776
v 0.005328 -0.012374 0.009559
v 0.009335 -0.010036 0.009559
v 0.009335 -0.011957 0.007841
v 0.009335 -0.012240 0.011776
v 0.009335 -0.010200 0.010294
v 0.005328 -0.013016 0.010294
v 0.005328 -0.012549 0.009775
f 1 2 3
f 1 3 9
f 1 9 15
f 1 15 16
f 1 16 10
f 1 10 4
f 1 4 12
f 1 12 6
f 1 6 2
f 2 5 3
f 2 6 7
f 2 7 8
f 2 8 5
f 3 5 8
f 3 8 7
f 3 7 13
f 3 13 9
f 4 10 11
f 4 11 12
f 6 12 11
f 6 11 14
f 6 14 13
f 6 13 7
f 9 13 14
f 9 14 15
f 10 16 14
f 10 14 11
f 14 16 15
