v 0.025748 0.004148 0.021104
v 0.025748 0.009106 0.021104
v 0.025748 0.004148 0.024265
v 0.014607 0.004148 0.021104
v 0.025748 0.009106 0.024265
v 0.012271 0.009106 0.021104
v 0.025738 0.004148 0.024312
v 0.013083 0.004148 0.022794
v 0.010623 0.009106 0.022794
v 0.025642 0.009106 0.024679
v 0.025559 0.009106 0.025000
v 0.025559 0.004148 0.025000
v 0.013163 0.004148 0.023482
v 0.009975 0.009106 0.023530
v 0.011494 0.009106 0.025000
v 0.014116 0.004148 0.025000
v 0.013170 0.004148 0.023511
v 0.011826 0.008011 0.025000
v 0.013174 0.004148 0.023529
v 0.013525 0.004148 0.024265
v 0.013353 0.004960 0.025000
v 0.012589 0.006485 0.025000
f 1 2 5
f 1 5 3
f 1 3 7
f 1 7 12
f 1 12 16
f 1 16 20
f 1 20 19
f 1 19 17
f 1 17 13
f 1 13 8
f 1 8 4
f 1 4 6
f 1 6 2
f 2 6 9
f 2 9 14
f 2 14 15
f 2 15 11
f 2 11 10
f 2 10 5
f 3 5 7
f 4 8 9
f 4 9 6
f 5 10 7
f 7 10 11
f 7 11 12
f 8 13 14
f 8 14 9
f 11 15 18
f 11 18 22
f 11 22 21
f 11 21 16
f 11 16 12
f 13 17 14
f 14 18 15
f 14 17 19
f 14 19 20
f 14 20 21
f 14 21 22
f 14 22 18
f 16 21 20
