v -0.025750 0.001933 0.010293
v -0.025750 -0.001123 0.010293
v -0.015389 0.001933 0.010293
v -0.025750 0.001933 0.009584
v -0.025750 -0.001123 0.006617
v -0.015318 -0.001123 0.010293
v -0.015372 0.001933 0.010293
v -0.025750 0.001933 0.006618
v -0.025750 0.001933 0.006617
v -0.015166 -0.001123 0.006617
v -0.014871 -0.001123 0.009862
v -0.014108 -0.001123 0.009127
v -0.013794 -0.001123 0.008823
v -0.013855 0.001933 0.008823
v -0.025733 0.001933 0.006617
v -0.014945 0.001933 0.006617
v -0.013405 0.001933 0.008088
v -0.013665 -0.001123 0.008076
v -0.013653 -0.001123 0.008088
f 1 2 6
f 1 6 7
f 1 7 3
f 1 3 4
f 1 4 8
f 1 8 9
f 1 9 5
f 1 5 2
f 2 5 10
f 2 10 18
f 2 18 19
f 2 19 13
f 2 13 12
f 2 12 11
f 2 11 6
f 3 7 14
f 3 14 17
f 3 17 16
f 3 16 15
f 3 15 8
f 3 8 4
f 5 9 15
f 5 15 16
f 5 16 10
f 6 11 7
f 7 11 12
f 7 12 13
f 7 13 14
f 8 15 9
f 10 16 17
f 10 17 18
f 13 19 17
f 13 17 14
f 17 19 18
