v -0.025750 -0.001123 0.014696
v -0.025750 -0.004035 0.014696
v -0.015561 -0.001123 0.014696
v -0.025750 -0.001123 0.013992
v -0.025750 -0.004035 0.010450
v -0.014933 -0.004035 0.014696
v -0.015412 -0.001123 0.014696
v -0.025750 -0.001123 0.010294
v -0.025750 -0.004034 0.010294
v -0.014693 -0.004035 0.010294
v -0.014277 -0.004035 0.014091
v -0.013348 -0.004035 0.013235
v -0.014028 -0.001123 0.013214
v -0.015318 -0.001123 0.010294
v -0.014679 -0.004035 0.010294
v -0.013305 -0.004035 0.013164
v -0.013400 -0.001123 0.012500
v -0.012979 -0.004035 0.012500
v -0.013257 -0.004035 0.013079
f 1 2 6
f 1 6 7
f 1 7 3
f 1 3 4
f 1 4 8
f 1 8 9
f 1 9 5
f 1 5 2
f 2 5 10
f 2 10 15
f 2 15 18
f 2 18 19
f 2 19 16
f 2 16 12
f 2 12 11
f 2 11 6
f 3 7 13
f 3 13 17
f 3 17 14
f 3 14 8
f 3 8 4
f 5 9 10
f 6 11 7
f 7 11 12
f 7 12 13
f 8 14 15
f 8 15 10
f 8 10 9
f 12 16 17
f 12 17 13
f 14 17 15
f 15 17 18
f 16 19 17
f 17 19 18
