v -0.008602 0.024766 0.013971
v -0.008601 0.024766 0.013972
v -0.008551 0.024795 0.013972
v -0.008599 0.024767 0.013268
v -0.008602 0.024766 0.013804
v -0.008602 0.012911 0.013972
v -0.008012 0.025107 0.013972
v -0.008035 0.025094 0.013268
v -0.008551 0.024795 0.013268
v -0.008602 0.024235 0.013268
v -0.008602 0.012883 0.013972
v -0.007230 0.025559 0.013972
v -0.006519 0.025970 0.013268
v -0.008602 0.012072 0.013268
v -0.004548 0.014602 0.013972
v -0.004548 0.027108 0.013972
v -0.004548 0.027108 0.013268
v -0.004548 0.014315 0.013268
f 1 2 3
f 1 3 4
f 1 4 5
f 1 5 10
f 1 10 14
f 1 14 11
f 1 11 6
f 1 6 2
f 2 6 11
f 2 11 15
f 2 15 16
f 2 16 12
f 2 12 7
f 2 7 3
f 3 7 8
f 3 8 9
f 3 9 4
f 4 9 8
f 4 8 13
f 4 13 17
f 4 17 18
f 4 18 14
f 4 14 10
f 4 10 5
f 7 12 8
f 8 12 13
f 11 14 15
f 12 16 13
f 13 16 17
f 14 18 15
f 15 18 17
f 15 17 16
