v 0.014683 -0.004971 0.008092
v 0.014513 -0.005482 0.008091
v 0.017174 -0.005482 0.008092
v 0.015274 -0.001454 0.008092
v 0.012999 -0.005482 0.006688
v 0.025750 -0.005482 0.008092
v 0.025750 -0.001454 0.008092
v 0.013959 -0.001454 0.006812
v 0.012923 -0.005482 0.006617
v 0.025750 -0.005482 0.004040
v 0.025750 -0.001454 0.004040
v 0.013760 -0.001454 0.006617
v 0.012510 -0.005482 0.006105
v 0.014140 -0.005482 0.004040
v 0.015096 -0.001454 0.004040
v 0.013682 -0.001454 0.006319
v 0.012510 -0.005080 0.005883
v 0.012510 -0.005112 0.005903
v 0.012510 -0.005482 0.005712
v 0.013613 -0.001454 0.005883
f 1 2 3
f 1 3 6
f 1 6 7
f 1 7 4
f 1 4 2
f 2 4 5
f 2 5 9
f 2 9 13
f 2 13 19
f 2 19 14
f 2 14 10
f 2 10 6
f 2 6 3
f 4 7 11
f 4 11 15
f 4 15 20
f 4 20 16
f 4 16 12
f 4 12 8
f 4 8 9
f 4 9 5
f 6 10 11
f 6 11 7
f 8 12 9
f 9 12 13
f 10 14 15
f 10 15 11
f 12 16 17
f 12 17 18
f 12 18 13
f 13 18 17
f 13 17 19
f 14 19 15
f 15 19 20
f 16 20 17
f 17 20 19
