v -0.025749 0.014116 0.013167
v -0.025666 0.014807 0.013167
v -0.025723 0.014338 0.009773
v -0.025749 0.014116 0.009773
v -0.025749 0.006487 0.013167
v -0.025657 0.014876 0.013167
v -0.025657 0.014876 0.009773
v -0.025749 0.006487 0.009773
v -0.012851 0.006487 0.013167
v -0.025649 0.014886 0.013167
v -0.025559 0.014977 0.009773
v -0.013610 0.006487 0.009773
v -0.012098 0.006487 0.012501
v -0.011202 0.009276 0.013167
v -0.025559 0.014977 0.013167
v -0.024683 0.015482 0.009773
v -0.011202 0.007927 0.011764
v -0.012195 0.006487 0.011764
v -0.011202 0.010199 0.009773
v -0.012096 0.006487 0.012498
v -0.011202 0.008085 0.012500
v -0.011202 0.023264 0.013167
v -0.017931 0.019382 0.013167
v -0.018153 0.019253 0.009773
v -0.011202 0.008035 0.012309
v -0.011202 0.023264 0.009773
v -0.011255 0.023235 0.013167
v -0.014116 0.021584 0.013167
v -0.012028 0.022790 0.009773
v -0.012516 0.022507 0.013167
f 1 2 3
f 1 3 4
f 1 4 8
f 1 8 5
f 1 5 9
f 1 9 14
f 1 14 22
f 1 22 27
f 1 27 30
f 1 30 28
f 1 28 23
f 1 23 15
f 1 15 10
f 1 10 6
f 1 6 2
f 2 6 7
f 2 7 3
f 3 7 11
f 3 11 16
f 3 16 24
f 3 24 29
f 3 29 26
f 3 26 19
f 3 19 12
f 3 12 8
f 3 8 4
f 5 8 12
f 5 12 18
f 5 18 20
f 5 20 13
f 5 13 9
f 6 10 7
f 7 10 11
f 9 13 14
f 10 15 11
f 11 15 16
f 12 17 18
f 12 19 17
f 13 20 21
f 13 21 14
f 14 21 25
f 14 25 17
f 14 17 19
f 14 19 26
f 14 26 22
f 15 23 24
f 15 24 16
f 17 25 20
f 17 20 18
f 20 25 21
f 22 26 27
f 23 28 29
f 23 29 24
f 26 29 27
f 27 29 30
f 28 30 29
