v 0.012510 -0.005856 0.002206
v 0.012654 -0.005482 0.002206
v 0.012510 -0.009618 0.000178
v 0.012510 -0.009075 0.003675
v 0.012829 -0.005482 0.002367
v 0.013135 -0.005482 0.001702
v 0.013353 -0.008775 0.000000
v 0.012510 -0.010301 0.000029
v 0.013296 -0.005482 0.001540
v 0.013366 -0.005482 0.001471
v 0.014355 -0.005482 0.000575
v 0.014878 -0.005482 0.000103
v 0.014878 -0.005722 0.000024
v 0.014259 -0.005482 0.003675
v 0.012510 -0.022511 0.003675
v 0.012589 -0.010301 0.000000
v 0.014878 -0.006486 0.000000
v 0.012510 -0.011063 0.000000
v 0.015642 -0.005482 0.000000
v 0.025750 -0.005482 0.003675
v 0.012510 -0.022511 0.001471
v 0.016483 -0.020218 0.003675
v 0.012510 -0.020981 0.000000
v 0.024033 -0.005482 0.000000
v 0.025750 -0.005482 0.002206
v 0.025750 -0.009538 0.003675
v 0.012510 -0.022191 0.000735
v 0.012589 -0.022148 0.000735
v 0.013353 -0.021743 0.000811
v 0.016404 -0.020263 0.001471
v 0.019124 -0.018693 0.002206
v 0.019124 -0.018693 0.002941
v 0.021744 -0.017179 0.003675
v 0.012589 -0.020981 0.000000
v 0.012510 -0.021743 0.000356
v 0.024796 -0.005482 0.000658
v 0.024033 -0.005722 0.000000
v 0.025632 -0.005482 0.001471
v 0.025750 -0.007249 0.002206
v 0.025749 -0.011825 0.003675
v 0.025750 -0.009538 0.002941
v 0.012510 -0.022186 0.000730
v 0.012589 -0.021743 0.000394
v 0.013353 -0.021698 0.000735
v 0.016482 -0.020218 0.001471
v 0.017598 -0.019454 0.001471
v 0.021765 -0.017166 0.002941
v 0.021744 -0.017179 0.002941
v 0.023087 -0.016402 0.003675
v 0.014115 -0.020218 0.000000
v 0.013353 -0.020981 0.000145
v 0.024817 -0.005482 0.000677
v 0.024796 -0.005722 0.000707
v 0.024033 -0.006486 0.000168
v 0.023269 -0.008775 0.000145
v 0.023269 -0.008013 0.000000
v 0.025597 -0.005722 0.001471
v 0.025585 -0.005482 0.001410
v 0.025714 -0.008013 0.002206
v 0.025706 -0.010301 0.002941
v 0.025572 -0.012587 0.003675
v 0.014115 -0.021208 0.000735
v 0.016404 -0.020218 0.001405
v 0.017167 -0.019454 0.001191
v 0.017167 -0.018824 0.000735
v 0.017167 -0.018693 0.000640
v 0.017931 -0.019149 0.001471
v 0.020175 -0.017929 0.002206
v 0.014449 -0.020981 0.000735
v 0.014878 -0.020679 0.000735
v 0.015642 -0.020218 0.000827
v 0.015642 -0.020109 0.000735
v 0.020218 -0.017881 0.002206
v 0.020829 -0.017166 0.002206
v 0.022380 -0.016402 0.002941
v 0.023830 -0.015639 0.003675
v 0.023269 -0.016237 0.003675
v 0.014878 -0.020218 0.000372
v 0.015642 -0.018693 0.000000
v 0.017167 -0.017929 0.000100
v 0.016404 -0.018693 0.000145
v 0.015642 -0.019454 0.000236
v 0.014115 -0.020981 0.000551
v 0.025558 -0.005482 0.001382
v 0.025558 -0.005722 0.001429
v 0.025558 -0.005907 0.001471
v 0.025419 -0.006486 0.001471
v 0.024796 -0.005846 0.000735
v 0.024638 -0.006486 0.000735
v 0.025212 -0.007249 0.001471
v 0.024796 -0.007249 0.001082
v 0.024424 -0.007249 0.000735
v 0.024033 -0.007249 0.000372
v 0.024033 -0.008013 0.000596
v 0.023919 -0.008775 0.000735
v 0.025250 -0.009538 0.002206
v 0.024796 -0.009538 0.001794
v 0.024033 -0.009538 0.001104
v 0.023624 -0.009538 0.000735
v 0.023269 -0.009538 0.000417
v 0.022507 -0.010301 0.000032
v 0.022507 -0.009538 0.000000
v 0.025558 -0.008013 0.002005
v 0.025558 -0.008675 0.002206
v 0.025558 -0.010801 0.002941
v 0.025558 -0.010301 0.002754
v 0.025571 -0.012590 0.003675
v 0.025558 -0.012590 0.003661
v 0.016404 -0.019493 0.000735
v 0.016449 -0.019454 0.000735
v 0.017311 -0.018693 0.000735
v 0.017931 -0.018693 0.001147
v 0.018406 -0.018693 0.001471
v 0.018693 -0.018406 0.001471
v 0.019455 -0.017929 0.001687
v 0.018825 -0.017166 0.000735
v 0.018693 -0.016402 0.000145
v 0.015500 -0.020218 0.000735
v 0.020218 -0.017166 0.001751
v 0.019455 -0.016402 0.000707
v 0.019455 -0.015640 0.000236
v 0.020218 -0.016402 0.001278
v 0.020980 -0.016977 0.002206
v 0.021744 -0.016402 0.002444
v 0.020980 -0.015640 0.001408
v 0.020218 -0.014877 0.000372
v 0.021744 -0.015640 0.002005
v 0.022507 -0.016229 0.002941
v 0.022507 -0.014899 0.002206
v 0.022521 -0.014877 0.002206
v 0.023269 -0.014877 0.002815
v 0.024031 -0.015325 0.003675
v 0.023269 -0.015640 0.003221
v 0.017931 -0.017166 0.000100
v 0.018693 -0.015640 0.000000
v 0.017931 -0.017929 0.000618
v 0.016404 -0.019454 0.000707
v 0.024796 -0.006486 0.000884
v 0.024796 -0.008013 0.001299
v 0.024184 -0.008013 0.000735
v 0.025526 -0.008775 0.002206
v 0.024796 -0.008775 0.001537
v 0.024033 -0.008450 0.000735
v 0.024949 -0.010301 0.002206
v 0.024796 -0.010301 0.002068
v 0.024033 -0.010301 0.001386
v 0.023302 -0.010301 0.000735
v 0.024796 -0.011063 0.002361
v 0.024620 -0.011063 0.002206
v 0.024033 -0.011063 0.001687
v 0.025102 -0.011827 0.002941
v 0.024796 -0.011827 0.002672
v 0.023269 -0.011063 0.001016
v 0.022949 -0.011063 0.000735
v 0.022507 -0.011063 0.000349
v 0.021744 -0.011827 0.000032
v 0.020218 -0.014114 0.000000
v 0.025448 -0.011063 0.002941
v 0.025556 -0.012627 0.003675
v 0.024796 -0.012590 0.002999
v 0.024033 -0.011827 0.002005
v 0.018693 -0.017929 0.001147
v 0.018693 -0.017309 0.000735
v 0.018693 -0.017166 0.000640
v 0.020218 -0.015640 0.000818
v 0.020980 -0.016402 0.001857
v 0.020472 -0.016402 0.001471
v 0.021434 -0.016402 0.002206
v 0.020980 -0.014449 0.000735
v 0.020980 -0.014877 0.000972
v 0.020980 -0.013354 0.000145
v 0.020980 -0.014114 0.000551
v 0.022507 -0.015640 0.002610
v 0.021208 -0.014114 0.000735
v 0.023422 -0.014877 0.002941
v 0.024314 -0.014875 0.003675
v 0.024033 -0.014877 0.003442
v 0.021744 -0.014877 0.001580
v 0.023417 -0.011827 0.001471
v 0.023269 -0.011827 0.001343
v 0.022507 -0.011827 0.000685
v 0.024796 -0.013354 0.003342
v 0.024033 -0.013354 0.002692
v 0.022507 -0.012590 0.001038
v 0.021744 -0.012590 0.000394
v 0.025184 -0.013354 0.003675
v 0.024033 -0.012590 0.002340
v 0.021744 -0.013277 0.000735
v 0.021744 -0.013354 0.000773
v 0.024033 -0.014114 0.003060
v 0.024765 -0.014114 0.003675
v 0.023269 -0.014114 0.002424
v 0.022507 -0.013354 0.001408
v 0.023876 -0.012590 0.002206
v 0.024795 -0.014060 0.003675
v 0.023457 -0.013354 0.002206
v 0.023269 -0.013354 0.002047
v 0.022582 -0.013354 0.001471
f 1 2 3
f 1 3 8
f 1 8 18
f 1 18 23
f 1 23 35
f 1 35 42
f 1 42 27
f 1 27 21
f 1 21 15
f 1 15 4
f 1 4 2
f 2 4 5
f 2 5 14
f 2 14 20
f 2 20 25
f 2 25 38
f 2 38 58
f 2 58 84
f 2 84 52
f 2 52 36
f 2 36 24
f 2 24 19
f 2 19 12
f 2 12 11
f 2 11 10
f 2 10 9
f 2 9 6
f 2 6 3
f 3 7 8
f 3 6 9
f 3 9 10
f 3 10 11
f 3 11 12
f 3 12 13
f 3 13 7
f 4 14 5
f 4 15 22
f 4 22 33
f 4 33 49
f 4 49 77
f 4 77 76
f 4 76 132
f 4 132 176
f 4 176 191
f 4 191 195
f 4 195 186
f 4 186 159
f 4 159 107
f 4 107 61
f 4 61 40
f 4 40 26
f 4 26 20
f 4 20 14
f 7 16 8
f 7 13 17
f 7 17 19
f 7 19 24
f 7 24 37
f 7 37 56
f 7 56 102
f 7 102 157
f 7 157 135
f 7 135 79
f 7 79 50
f 7 50 34
f 7 34 23
f 7 23 18
f 7 18 16
f 8 16 18
f 12 19 13
f 13 19 17
f 15 21 22
f 20 26 41
f 20 41 39
f 20 39 25
f 21 27 28
f 21 28 29
f 21 29 30
f 21 30 31
f 21 31 22
f 22 32 33
f 22 31 32
f 23 34 35
f 24 36 37
f 25 39 38
f 26 40 41
f 27 42 28
f 28 42 35
f 28 35 43
f 28 43 44
f 28 44 29
f 29 44 45
f 29 45 30
f 30 45 31
f 31 46 47
f 31 47 48
f 31 48 33
f 31 33 32
f 31 45 46
f 33 48 49
f 34 50 51
f 34 51 35
f 35 51 43
f 36 52 53
f 36 53 37
f 37 53 54
f 37 54 55
f 37 55 56
f 38 57 58
f 38 39 59
f 38 59 57
f 39 41 59
f 40 60 59
f 40 59 41
f 40 61 60
f 43 51 44
f 44 51 62
f 44 62 45
f 45 62 63
f 45 63 46
f 46 64 65
f 46 65 66
f 46 66 67
f 46 67 68
f 46 68 47
f 46 63 69
f 46 69 70
f 46 70 71
f 46 71 72
f 46 72 64
f 47 68 73
f 47 73 74
f 47 74 75
f 47 75 76
f 47 76 77
f 47 77 49
f 47 49 48
f 50 78 51
f 50 79 80
f 50 80 81
f 50 81 82
f 50 82 78
f 51 78 83
f 51 83 62
f 52 84 85
f 52 85 53
f 53 85 86
f 53 86 87
f 53 87 88
f 53 88 54
f 54 88 89
f 54 89 90
f 54 90 91
f 54 91 92
f 54 92 93
f 54 93 55
f 55 93 94
f 55 94 95
f 55 95 96
f 55 96 97
f 55 97 98
f 55 98 99
f 55 99 100
f 55 100 101
f 55 101 56
f 56 101 102
f 57 86 85
f 57 85 58
f 57 59 103
f 57 103 86
f 58 85 84
f 59 60 104
f 59 104 103
f 60 61 105
f 60 105 106
f 60 106 104
f 61 107 108
f 61 108 105
f 62 83 69
f 62 69 63
f 64 109 110
f 64 110 81
f 64 81 65
f 64 72 109
f 65 81 66
f 66 111 67
f 66 81 80
f 66 80 111
f 67 111 112
f 67 112 113
f 67 113 68
f 68 113 114
f 68 114 115
f 68 115 116
f 68 116 117
f 68 117 73
f 69 83 78
f 69 78 70
f 70 78 118
f 70 118 71
f 71 118 72
f 72 118 78
f 72 78 82
f 72 82 109
f 73 119 74
f 73 117 119
f 74 119 120
f 74 120 121
f 74 121 122
f 74 122 123
f 74 123 75
f 75 123 124
f 75 124 125
f 75 125 126
f 75 126 127
f 75 127 128
f 75 128 76
f 76 129 130
f 76 130 131
f 76 131 132
f 76 128 133
f 76 133 129
f 79 134 80
f 79 135 134
f 80 134 136
f 80 136 112
f 80 112 111
f 81 110 137
f 81 137 82
f 82 137 109
f 86 103 87
f 87 138 88
f 87 103 90
f 87 90 138
f 88 138 89
f 89 138 90
f 90 103 91
f 91 103 92
f 92 103 93
f 93 103 139
f 93 139 140
f 93 140 94
f 94 140 141
f 94 141 142
f 94 142 143
f 94 143 95
f 95 143 142
f 95 142 96
f 96 106 97
f 96 142 141
f 96 141 106
f 97 106 98
f 98 106 99
f 99 106 144
f 99 144 145
f 99 145 100
f 100 145 146
f 100 146 147
f 100 147 101
f 101 147 148
f 101 148 149
f 101 149 150
f 101 150 151
f 101 151 152
f 101 152 153
f 101 153 154
f 101 154 155
f 101 155 156
f 101 156 157
f 101 157 102
f 103 104 141
f 103 141 139
f 104 106 141
f 105 158 145
f 105 145 144
f 105 144 106
f 105 108 158
f 107 159 108
f 108 159 160
f 108 160 161
f 108 161 152
f 108 152 151
f 108 151 158
f 109 137 110
f 112 136 113
f 113 136 114
f 114 136 134
f 114 134 162
f 114 162 115
f 115 162 134
f 115 134 163
f 115 163 164
f 115 164 116
f 116 164 117
f 117 157 121
f 117 121 120
f 117 120 119
f 117 164 134
f 117 134 157
f 121 126 165
f 121 165 166
f 121 166 167
f 121 167 122
f 121 157 126
f 122 167 123
f 123 167 166
f 123 166 168
f 123 168 124
f 124 168 165
f 124 165 125
f 125 165 126
f 126 169 170
f 126 170 127
f 126 157 171
f 126 171 172
f 126 172 169
f 127 173 128
f 127 170 173
f 128 173 133
f 129 133 172
f 129 172 174
f 129 174 171
f 129 171 130
f 130 171 131
f 131 175 132
f 131 171 175
f 132 175 177
f 132 177 176
f 133 173 178
f 133 178 172
f 134 164 163
f 134 135 157
f 139 141 140
f 145 158 146
f 146 158 147
f 147 158 148
f 148 158 151
f 148 151 149
f 149 151 150
f 152 161 155
f 152 155 154
f 152 154 153
f 155 161 160
f 155 160 179
f 155 179 180
f 155 180 181
f 155 181 156
f 156 181 182
f 156 182 183
f 156 183 184
f 156 184 185
f 156 185 171
f 156 171 157
f 159 186 160
f 160 186 187
f 160 187 181
f 160 181 180
f 160 180 179
f 165 168 166
f 169 178 170
f 169 172 178
f 170 178 173
f 171 185 188
f 171 188 189
f 171 189 177
f 171 177 175
f 171 174 172
f 176 190 191
f 176 177 189
f 176 189 192
f 176 192 193
f 176 193 190
f 181 187 194
f 181 194 182
f 182 194 186
f 182 186 195
f 182 195 183
f 183 196 184
f 183 195 191
f 183 191 196
f 184 196 185
f 185 196 197
f 185 197 198
f 185 198 193
f 185 193 188
f 186 194 187
f 188 193 189
f 189 193 192
f 190 193 198
f 190 198 197
f 190 197 191
f 191 197 196
