v -0.025750 0.001933 0.014692
v -0.025750 -0.001123 0.014692
v -0.015403 0.001933 0.014692
v -0.025750 0.001933 0.013996
v -0.025750 -0.001123 0.010293
v -0.015408 -0.001123 0.014692
v -0.015195 0.001933 0.014692
v -0.025750 0.001933 0.010294
v -0.025750 0.001933 0.010293
v -0.015317 -0.001123 0.010293
v -0.014028 -0.001123 0.013214
v -0.013400 -0.001123 0.012500
v -0.013348 0.001933 0.012500
v -0.015390 0.001933 0.010293
v -0.015373 0.001933 0.010293
v -0.013919 0.001933 0.011765
v -0.013352 0.001933 0.012494
f 1 2 6
f 1 6 7
f 1 7 3
f 1 3 4
f 1 4 8
f 1 8 9
f 1 9 5
f 1 5 2
f 2 5 10
f 2 10 12
f 2 12 11
f 2 11 6
f 3 7 13
f 3 13 17
f 3 17 16
f 3 16 15
f 3 15 14
f 3 14 8
f 3 8 4
f 5 9 14
f 5 14 15
f 5 15 10
f 6 11 7
f 7 11 12
f 7 12 13
f 8 14 9
f 10 15 16
f 10 16 12
f 12 16 17
f 12 17 13
