v -0.025750 0.014115 0.022354
v -0.025713 0.014423 0.022354
v -0.025750 0.014115 0.018382
v -0.025750 0.006487 0.022354
v -0.025658 0.014879 0.018382
v -0.025658 0.014879 0.022354
v -0.025750 0.006487 0.018382
v -0.013659 0.006487 0.022354
v -0.025599 0.014938 0.022354
v -0.025559 0.014977 0.018382
v -0.014025 0.006487 0.018382
v -0.011818 0.006487 0.020588
v -0.008604 0.012506 0.022354
v -0.025559 0.014977 0.022354
v -0.024640 0.015509 0.022354
v -0.009538 0.024227 0.018382
v -0.012488 0.006487 0.019854
v -0.008605 0.012590 0.018382
v -0.008604 0.010769 0.019853
v -0.008604 0.010717 0.020588
v -0.011826 0.006487 0.020578
v -0.008604 0.024765 0.022354
v -0.009538 0.024227 0.022354
v -0.008686 0.024719 0.022354
v -0.008775 0.024667 0.018382
v -0.008604 0.012594 0.018382
v -0.008604 0.012590 0.018384
v -0.008604 0.012580 0.018393
v -0.008604 0.024765 0.018382
f 1 2 3
f 1 3 7
f 1 7 4
f 1 4 8
f 1 8 13
f 1 13 22
f 1 22 24
f 1 24 23
f 1 23 15
f 1 15 14
f 1 14 9
f 1 9 6
f 1 6 2
f 2 5 3
f 2 6 5
f 3 5 10
f 3 10 16
f 3 16 25
f 3 25 29
f 3 29 26
f 3 26 18
f 3 18 11
f 3 11 7
f 4 7 11
f 4 11 17
f 4 17 21
f 4 21 12
f 4 12 8
f 5 6 9
f 5 9 10
f 8 12 13
f 9 14 10
f 10 14 15
f 10 15 16
f 11 18 19
f 11 19 17
f 12 20 13
f 12 21 19
f 12 19 20
f 13 20 19
f 13 19 28
f 13 28 27
f 13 27 26
f 13 26 29
f 13 29 22
f 15 23 16
f 16 23 24
f 16 24 25
f 17 19 21
f 18 26 27
f 18 27 28
f 18 28 19
f 22 29 24
f 24 29 25
