v -0.008214 -0.024991 0.011028
v -0.008214 -0.024991 0.015443
v -0.008775 -0.024668 0.011028
v -0.008214 -0.013108 0.011028
v -0.008775 -0.024668 0.015441
v -0.008214 -0.012945 0.015443
v -0.008777 -0.024666 0.015443
v -0.013352 -0.022026 0.011028
v -0.008214 -0.011373 0.012500
v -0.012334 -0.009106 0.011028
v -0.010466 -0.009106 0.012500
v -0.016405 -0.020263 0.015443
v -0.023088 -0.016405 0.015443
v -0.008214 -0.010731 0.013235
v -0.012030 -0.009106 0.015443
v -0.023088 -0.016405 0.011028
v -0.008214 -0.011022 0.012881
v -0.012411 -0.009106 0.011028
v -0.010159 -0.009106 0.013235
v -0.008214 -0.010885 0.013040
v -0.024797 -0.015418 0.015443
v -0.025559 -0.014977 0.011028
v -0.025750 -0.009106 0.015443
v -0.025750 -0.009108 0.011028
v -0.025750 -0.009106 0.011030
v -0.025558 -0.014977 0.015443
v -0.025657 -0.014878 0.015441
v -0.025657 -0.014878 0.011028
v -0.025750 -0.014113 0.015443
v -0.025750 -0.014116 0.011028
v -0.025657 -0.014876 0.015443
v -0.025750 -0.014116 0.015441
f 1 2 5
f 1 5 3
f 1 3 8
f 1 8 16
f 1 16 22
f 1 22 28
f 1 28 30
f 1 30 24
f 1 24 18
f 1 18 10
f 1 10 4
f 1 4 9
f 1 9 17
f 1 17 20
f 1 20 14
f 1 14 6
f 1 6 2
f 2 6 15
f 2 15 23
f 2 23 29
f 2 29 31
f 2 31 26
f 2 26 21
f 2 21 13
f 2 13 12
f 2 12 7
f 2 7 5
f 3 5 8
f 4 10 11
f 4 11 9
f 5 7 12
f 5 12 13
f 5 13 8
f 6 14 15
f 8 13 16
f 9 11 17
f 10 18 25
f 10 25 23
f 10 23 15
f 10 15 19
f 10 19 11
f 11 19 14
f 11 14 20
f 11 20 17
f 13 21 22
f 13 22 16
f 14 19 15
f 18 24 25
f 21 26 22
f 22 26 27
f 22 27 28
f 23 25 24
f 23 24 30
f 23 30 32
f 23 32 29
f 26 31 27
f 27 31 32
f 27 32 30
f 27 30 28
f 29 32 31
