v -0.004548 0.027107 0.013249
v -0.004203 0.027306 0.013249
v -0.004198 0.027309 0.009558
v -0.004548 0.027107 0.009558
v -0.004548 0.014305 0.013249
v -0.003448 0.027743 0.013249
v -0.000382 0.029513 0.009558
v -0.004548 0.014834 0.009558
v -0.004548 0.012868 0.011941
v 0.000004 0.015215 0.013249
v -0.000382 0.029513 0.013249
v 0.000004 0.029513 0.009558
v -0.004548 0.013296 0.011029
v 0.000004 0.015342 0.009558
v -0.004548 0.012675 0.011765
v 0.000004 0.029513 0.013249
v 0.000004 0.013702 0.011765
v 0.000004 0.014356 0.010515
v 0.000004 0.013827 0.011029
v -0.004548 0.012980 0.011390
v 0.000004 0.013746 0.011393
f 1 2 3
f 1 3 4
f 1 4 8
f 1 8 13
f 1 13 20
f 1 20 15
f 1 15 9
f 1 9 5
f 1 5 10
f 1 10 16
f 1 16 11
f 1 11 6
f 1 6 2
f 2 6 3
f 3 6 7
f 3 7 12
f 3 12 14
f 3 14 8
f 3 8 4
f 5 9 10
f 6 11 7
f 7 11 16
f 7 16 12
f 8 14 13
f 9 15 10
f 10 15 17
f 10 17 21
f 10 21 19
f 10 19 18
f 10 18 14
f 10 14 12
f 10 12 16
f 13 18 19
f 13 19 20
f 13 14 18
f 15 20 19
f 15 19 21
f 15 21 17
