v -0.025750 0.001933 0.006617
v -0.025750 -0.001123 0.006617
v -0.025733 0.001933 0.006617
v -0.025750 0.001933 0.005907
v -0.025750 -0.001123 0.002205
v -0.015166 -0.001123 0.006617
v -0.014944 0.001933 0.006617
v -0.025750 0.001933 0.002206
v -0.025750 0.001933 0.002205
v -0.015420 -0.001123 0.002205
v -0.013539 -0.001123 0.004411
v -0.013602 0.001933 0.004411
v -0.025720 0.001933 0.002205
v -0.015418 -0.001121 0.002205
v -0.014667 -0.001123 0.002935
v -0.013905 -0.001123 0.003677
v -0.013662 0.001933 0.003677
v -0.015200 0.001933 0.002205
v -0.013911 -0.001123 0.003671
f 1 2 6
f 1 6 7
f 1 7 3
f 1 3 4
f 1 4 8
f 1 8 9
f 1 9 5
f 1 5 2
f 2 5 10
f 2 10 15
f 2 15 19
f 2 19 16
f 2 16 11
f 2 11 6
f 3 7 12
f 3 12 17
f 3 17 18
f 3 18 13
f 3 13 8
f 3 8 4
f 5 9 13
f 5 13 18
f 5 18 14
f 5 14 10
f 6 11 7
f 7 11 12
f 8 13 9
f 10 14 15
f 11 16 17
f 11 17 12
f 14 18 17
f 14 17 19
f 14 19 15
f 16 19 17
