v 0.025750 0.009106 0.017645
v 0.025750 0.014116 0.017645
v 0.025750 0.009106 0.021489
v 0.011882 0.009106 0.017645
v 0.025658 0.014878 0.017645
v 0.025750 0.014116 0.021489
v 0.012281 0.009106 0.021489
v 0.009976 0.009106 0.019118
v 0.008937 0.012250 0.017647
v 0.009451 0.011827 0.017645
v 0.025559 0.014978 0.017645
v 0.025636 0.014901 0.021489
v 0.025658 0.014878 0.021489
v 0.008937 0.012387 0.021489
v 0.008937 0.010677 0.019853
v 0.010287 0.009106 0.019466
v 0.010261 0.009106 0.019438
v 0.008937 0.010239 0.019118
v 0.008937 0.012598 0.017645
v 0.023273 0.016298 0.017645
v 0.024325 0.015691 0.021489
v 0.025559 0.014978 0.021489
v 0.008937 0.024574 0.021489
v 0.008937 0.022622 0.017645
v 0.016465 0.020228 0.021489
v 0.014115 0.021585 0.017645
v 0.008937 0.024574 0.017647
v 0.009538 0.024227 0.021489
v 0.009538 0.024227 0.017645
v 0.009874 0.024033 0.017645
v 0.009874 0.024033 0.021489
f 1 2 6
f 1 6 3
f 1 3 7
f 1 7 16
f 1 16 17
f 1 17 8
f 1 8 4
f 1 4 10
f 1 10 19
f 1 19 24
f 1 24 29
f 1 29 30
f 1 30 26
f 1 26 20
f 1 20 11
f 1 11 5
f 1 5 2
f 2 5 13
f 2 13 6
f 3 6 13
f 3 13 12
f 3 12 22
f 3 22 21
f 3 21 25
f 3 25 31
f 3 31 28
f 3 28 23
f 3 23 14
f 3 14 7
f 4 8 9
f 4 9 10
f 5 11 12
f 5 12 13
f 7 14 15
f 7 15 16
f 8 17 15
f 8 15 18
f 8 18 9
f 9 18 15
f 9 15 14
f 9 14 23
f 9 23 27
f 9 27 24
f 9 24 19
f 9 19 10
f 11 20 21
f 11 21 22
f 11 22 12
f 15 17 16
f 20 25 21
f 20 26 25
f 23 28 29
f 23 29 27
f 24 27 29
f 25 26 30
f 25 30 31
f 28 31 30
f 28 30 29
