v 0.014902 0.004147 0.004411
v 0.013443 0.004147 0.002941
v 0.015283 0.001310 0.004411
v 0.025749 0.004147 0.004411
v 0.013346 0.004147 0.002764
v 0.013627 0.001310 0.002206
v 0.013734 0.001310 0.002365
v 0.014147 0.001310 0.002941
v 0.025749 0.001310 0.004411
v 0.025749 0.004147 0.001471
v 0.013048 0.004147 0.002206
v 0.015148 0.001310 0.000735
v 0.025749 0.001310 0.001471
v 0.025559 0.001310 0.000957
v 0.025474 0.001310 0.000793
v 0.025442 0.001310 0.000735
v 0.025406 0.001908 0.000735
v 0.025559 0.004147 0.001181
v 0.014878 0.004147 0.000504
v 0.015642 0.001310 0.000259
v 0.015522 0.001310 0.000374
v 0.024795 0.001310 0.000110
v 0.024795 0.001908 0.000146
v 0.025336 0.002671 0.000735
v 0.025539 0.004147 0.001156
v 0.014928 0.004147 0.000460
v 0.015642 0.003433 0.000000
v 0.016240 0.001310 0.000044
v 0.024631 0.001310 0.000079
v 0.024033 0.004147 0.000000
v 0.024081 0.004147 0.000020
v 0.024795 0.002671 0.000213
v 0.025244 0.003433 0.000735
v 0.025136 0.004147 0.000735
v 0.015642 0.004147 0.000000
v 0.016405 0.001310 0.000000
v 0.024033 0.001310 0.000000
v 0.024795 0.004147 0.000409
v 0.024795 0.003433 0.000304
v 0.024825 0.004147 0.000437
f 1 2 3
f 1 3 9
f 1 9 4
f 1 4 10
f 1 10 18
f 1 18 25
f 1 25 34
f 1 34 40
f 1 40 38
f 1 38 31
f 1 31 30
f 1 30 35
f 1 35 26
f 1 26 19
f 1 19 11
f 1 11 5
f 1 5 2
f 2 5 6
f 2 6 7
f 2 7 8
f 2 8 3
f 3 8 7
f 3 7 6
f 3 6 12
f 3 12 21
f 3 21 20
f 3 20 28
f 3 28 36
f 3 36 37
f 3 37 29
f 3 29 22
f 3 22 16
f 3 16 15
f 3 15 14
f 3 14 13
f 3 13 9
f 4 9 13
f 4 13 10
f 5 11 6
f 6 11 12
f 10 14 15
f 10 15 16
f 10 16 17
f 10 17 18
f 10 13 14
f 11 19 20
f 11 20 21
f 11 21 12
f 16 22 17
f 17 22 23
f 17 23 24
f 17 24 25
f 17 25 18
f 19 26 20
f 20 26 27
f 20 27 28
f 22 29 30
f 22 30 23
f 23 30 31
f 23 31 32
f 23 32 24
f 24 33 25
f 24 32 33
f 25 33 34
f 26 35 27
f 27 35 30
f 27 30 37
f 27 37 36
f 27 36 28
f 29 37 30
f 31 38 39
f 31 39 32
f 32 39 33
f 33 39 34
f 34 39 40
f 38 40 39
