v -0.008602 0.024767 0.013235
v -0.008599 0.024768 0.013268
v -0.008602 0.024767 0.010128
v -0.008602 0.024235 0.013268
v -0.008551 0.024796 0.009560
v -0.006485 0.025989 0.013268
v -0.006485 0.025989 0.010294
v -0.008601 0.024767 0.009560
v -0.008602 0.012680 0.009560
v -0.008602 0.012073 0.013268
v -0.004548 0.027108 0.009560
v -0.004548 0.027108 0.013268
v -0.008602 0.012670 0.009560
v -0.008602 0.011235 0.012636
v -0.004548 0.014315 0.013268
v -0.004548 0.014835 0.009560
v -0.004548 0.013296 0.011030
v -0.008602 0.010456 0.011764
v -0.008602 0.011058 0.012500
v -0.004548 0.012673 0.011764
v -0.004548 0.012980 0.011389
v -0.008602 0.010901 0.012334
v -0.008602 0.010944 0.012383
f 1 2 3
f 1 3 9
f 1 9 13
f 1 13 18
f 1 18 22
f 1 22 23
f 1 23 19
f 1 19 14
f 1 14 10
f 1 10 4
f 1 4 2
f 2 5 3
f 2 4 10
f 2 10 15
f 2 15 12
f 2 12 6
f 2 6 7
f 2 7 5
f 3 5 8
f 3 8 9
f 5 7 11
f 5 11 16
f 5 16 13
f 5 13 9
f 5 9 8
f 6 12 11
f 6 11 7
f 10 14 15
f 11 12 15
f 11 15 20
f 11 20 21
f 11 21 17
f 11 17 16
f 13 17 18
f 13 16 17
f 14 19 15
f 15 19 20
f 17 21 18
f 18 20 22
f 18 21 20
f 19 23 20
f 20 23 22
