v -0.025750 -0.006739 0.022791
v -0.025750 -0.009106 0.022791
v -0.025507 -0.006737 0.022791
v -0.025750 -0.006737 0.022552
v -0.025750 -0.009106 0.019115
v -0.011865 -0.009106 0.022791
v -0.013499 -0.006737 0.022791
v -0.025750 -0.006737 0.019118
v -0.025750 -0.006739 0.019115
v -0.012516 -0.009106 0.019115
v -0.010301 -0.009106 0.021663
v -0.009836 -0.009106 0.021323
v -0.011738 -0.006737 0.021323
v -0.014058 -0.006737 0.019115
v -0.013913 -0.006737 0.019115
v -0.012249 -0.006737 0.020588
f 1 2 6
f 1 6 7
f 1 7 3
f 1 3 4
f 1 4 8
f 1 8 9
f 1 9 5
f 1 5 2
f 2 5 10
f 2 10 12
f 2 12 11
f 2 11 6
f 3 7 13
f 3 13 16
f 3 16 15
f 3 15 14
f 3 14 8
f 3 8 4
f 5 9 14
f 5 14 15
f 5 15 10
f 6 11 7
f 7 11 12
f 7 12 13
f 8 14 9
f 10 15 12
f 12 15 16
f 12 16 13
