v -0.025750 0.001933 0.022797
v -0.025750 0.001933 0.019118
v -0.025750 -0.001123 0.022797
v -0.015370 0.001933 0.022797
v -0.025710 0.001933 0.019115
v -0.025750 0.001933 0.019115
v -0.025750 -0.001123 0.019115
v -0.015317 -0.001123 0.022797
v -0.013794 -0.001123 0.021323
v -0.013855 0.001933 0.021323
v -0.014946 0.001933 0.019115
v -0.015166 -0.001123 0.019115
v -0.013653 -0.001123 0.020588
v -0.013405 0.001933 0.020588
v -0.013665 -0.001123 0.020575
f 1 2 6
f 1 6 7
f 1 7 3
f 1 3 8
f 1 8 4
f 1 4 10
f 1 10 14
f 1 14 11
f 1 11 5
f 1 5 2
f 2 5 6
f 3 7 12
f 3 12 15
f 3 15 13
f 3 13 9
f 3 9 8
f 4 8 9
f 4 9 10
f 5 11 12
f 5 12 7
f 5 7 6
f 9 13 14
f 9 14 10
f 11 14 12
f 12 14 15
f 13 15 14
