v -0.013556 -0.004035 0.024265
v -0.014116 -0.004035 0.025000
v -0.014568 -0.004035 0.023029
v -0.014102 -0.001123 0.024265
v -0.014116 -0.001123 0.024937
v -0.014116 -0.001145 0.025000
v -0.025559 -0.004035 0.025000
v -0.015172 -0.001123 0.023029
v -0.025750 -0.004035 0.023029
v -0.014137 -0.001123 0.025000
v -0.025559 -0.001123 0.025000
v -0.025750 -0.004035 0.024265
v -0.025750 -0.001123 0.023029
v -0.025750 -0.001123 0.024265
f 1 2 7
f 1 7 12
f 1 12 9
f 1 9 3
f 1 3 4
f 1 4 5
f 1 5 6
f 1 6 2
f 2 6 10
f 2 10 11
f 2 11 7
f 3 8 4
f 3 9 13
f 3 13 8
f 4 8 13
f 4 13 14
f 4 14 11
f 4 11 10
f 4 10 5
f 5 10 6
f 7 11 14
f 7 14 12
f 9 12 14
f 9 14 13
