v 0.011140 -0.023302 0.003677
v 0.011825 -0.022906 0.003677
v 0.011140 -0.023302 0.007996
v 0.011140 -0.010788 0.003677
v 0.012509 -0.022510 0.003677
v 0.012430 -0.022556 0.007996
v 0.011140 -0.010406 0.007996
v 0.011140 -0.007468 0.005882
v 0.012509 -0.005080 0.005882
v 0.012509 -0.009076 0.003677
v 0.012509 -0.022510 0.007996
v 0.012509 -0.008838 0.007996
v 0.012509 -0.005114 0.005903
f 1 2 3
f 1 3 7
f 1 7 8
f 1 8 4
f 1 4 10
f 1 10 5
f 1 5 2
f 2 5 6
f 2 6 3
f 3 6 11
f 3 11 12
f 3 12 7
f 4 8 9
f 4 9 10
f 5 11 6
f 5 10 9
f 5 9 13
f 5 13 12
f 5 12 11
f 7 12 13
f 7 13 9
f 7 9 8
