v -0.008214 -0.011884 0.001471
v -0.008214 -0.013149 0.000441
v -0.008214 -0.012948 0.002941
v -0.008212 -0.012945 0.002944
v -0.004923 -0.013978 0.002206
v -0.004923 -0.013586 0.001471
v -0.004923 -0.014878 0.000285
v -0.008214 -0.013352 0.000281
v -0.008214 -0.015545 0.002944
v -0.004923 -0.014116 0.002349
v -0.004923 -0.014698 0.002944
v -0.004923 -0.014915 0.000261
v -0.005722 -0.014878 0.000024
v -0.007248 -0.014116 0.000095
v -0.008214 -0.013913 0.000000
v -0.008214 -0.024991 0.002944
v -0.004923 -0.026890 0.002944
v -0.004923 -0.015642 0.000000
v -0.008214 -0.023066 0.000000
v -0.008214 -0.024991 0.002206
v -0.008011 -0.025108 0.002941
v -0.007230 -0.025559 0.002944
v -0.004962 -0.026868 0.002944
v -0.004923 -0.026891 0.002941
v -0.004923 -0.024033 0.000000
v -0.008011 -0.023269 0.000000
v -0.008214 -0.023269 0.000039
v -0.008011 -0.025108 0.002206
v -0.008214 -0.024951 0.001836
v -0.006485 -0.025988 0.002206
v -0.005722 -0.026370 0.002206
v -0.004959 -0.026532 0.002206
v -0.004923 -0.026537 0.002206
v -0.007248 -0.025549 0.002206
v -0.004923 -0.024070 0.000020
v -0.005722 -0.024033 0.000000
v -0.006485 -0.024033 0.000168
v -0.007248 -0.024033 0.000371
v -0.008214 -0.023830 0.000476
v -0.008214 -0.024888 0.001471
v -0.008011 -0.024980 0.001471
v -0.005722 -0.026321 0.002152
v -0.004959 -0.026321 0.002005
v -0.004923 -0.026321 0.001999
v -0.004923 -0.026521 0.002190
v -0.004923 -0.024795 0.000545
v -0.004959 -0.024795 0.000551
v -0.005722 -0.024826 0.000735
v -0.006485 -0.024795 0.000884
v -0.007248 -0.025212 0.001471
v -0.007248 -0.024795 0.001082
v -0.008011 -0.024033 0.000596
v -0.008011 -0.024795 0.001299
v -0.008214 -0.024033 0.000661
v -0.008214 -0.024114 0.000735
v -0.005722 -0.025559 0.001429
v -0.004959 -0.024989 0.000735
v -0.004959 -0.025559 0.001278
v -0.006485 -0.025420 0.001471
v -0.005906 -0.025559 0.001471
v -0.004923 -0.025788 0.001490
v -0.004923 -0.024996 0.000735
v -0.004923 -0.025559 0.001271
f 1 2 8
f 1 8 15
f 1 15 19
f 1 19 27
f 1 27 39
f 1 39 54
f 1 54 55
f 1 55 40
f 1 40 29
f 1 29 20
f 1 20 16
f 1 16 9
f 1 9 3
f 1 3 4
f 1 4 5
f 1 5 6
f 1 6 7
f 1 7 2
f 2 7 8
f 3 9 4
f 4 10 5
f 4 9 16
f 4 16 22
f 4 22 23
f 4 23 17
f 4 17 11
f 4 11 10
f 5 10 11
f 5 11 17
f 5 17 24
f 5 24 33
f 5 33 45
f 5 45 44
f 5 44 61
f 5 61 63
f 5 63 62
f 5 62 46
f 5 46 35
f 5 35 25
f 5 25 18
f 5 18 12
f 5 12 7
f 5 7 6
f 7 12 13
f 7 13 8
f 8 14 15
f 8 13 14
f 12 18 13
f 13 18 15
f 13 15 14
f 15 18 25
f 15 25 36
f 15 36 26
f 15 26 19
f 16 20 28
f 16 28 21
f 16 21 22
f 17 23 24
f 19 26 27
f 20 29 28
f 21 28 24
f 21 24 22
f 22 24 23
f 24 30 31
f 24 31 32
f 24 32 33
f 24 28 34
f 24 34 30
f 25 35 36
f 26 36 27
f 27 36 37
f 27 37 38
f 27 38 39
f 28 29 34
f 29 40 30
f 29 30 34
f 30 40 31
f 31 40 41
f 31 41 42
f 31 42 32
f 32 42 43
f 32 43 44
f 32 44 45
f 32 45 33
f 35 46 36
f 36 46 47
f 36 47 48
f 36 48 37
f 37 48 49
f 37 49 50
f 37 50 51
f 37 51 38
f 38 52 39
f 38 51 41
f 38 41 53
f 38 53 52
f 39 52 54
f 40 55 41
f 41 55 54
f 41 54 53
f 41 51 50
f 41 50 42
f 42 56 47
f 42 47 57
f 42 57 58
f 42 58 43
f 42 50 59
f 42 59 60
f 42 60 56
f 43 58 61
f 43 61 44
f 46 62 47
f 47 62 57
f 47 56 48
f 48 56 60
f 48 60 59
f 48 59 49
f 49 59 50
f 52 53 54
f 57 62 58
f 58 63 61
f 58 62 63
