v 0.000005 -0.014445 0.001471
v 0.005328 -0.013296 0.002206
v 0.005328 -0.013428 0.001471
v 0.000005 -0.014878 0.001051
v 0.000005 -0.014585 0.002206
v 0.005328 -0.014220 0.003455
v 0.000005 -0.015067 0.003455
v 0.005328 -0.013611 0.001303
v 0.000005 -0.015642 0.000311
v 0.000005 -0.015042 0.000892
v 0.005328 -0.026656 0.003455
v 0.000005 -0.028277 0.003455
v 0.005328 -0.014510 0.000487
v 0.003433 -0.015642 0.000000
v 0.000005 -0.016405 0.000000
v 0.005328 -0.014878 0.000153
v 0.004959 -0.026870 0.003455
v 0.005328 -0.026656 0.002941
v 0.000005 -0.028172 0.003354
v 0.000382 -0.028277 0.003455
v 0.005328 -0.015642 0.000000
v 0.000005 -0.024033 0.000000
v 0.004959 -0.026870 0.002941
v 0.003662 -0.027618 0.003455
v 0.005328 -0.026628 0.002586
v 0.000005 -0.026652 0.001878
v 0.000382 -0.026989 0.002206
v 0.001144 -0.027725 0.002941
v 0.001144 -0.028255 0.003455
v 0.005328 -0.024033 0.000000
v 0.000005 -0.024418 0.000039
v 0.004196 -0.027310 0.002941
v 0.002670 -0.028032 0.003455
v 0.005328 -0.026454 0.002206
v 0.000005 -0.025474 0.000735
v 0.000382 -0.025474 0.000735
v 0.001144 -0.026967 0.002206
v 0.001437 -0.028240 0.003455
v 0.005328 -0.024795 0.000626
v 0.004959 -0.024795 0.000551
v 0.004196 -0.024795 0.000416
v 0.003433 -0.024795 0.000304
v 0.002670 -0.024795 0.000213
v 0.001907 -0.024795 0.000145
v 0.001144 -0.024795 0.000100
v 0.000382 -0.024795 0.000077
v 0.000005 -0.024795 0.000077
v 0.002260 -0.028167 0.003455
v 0.003433 -0.027536 0.002941
v 0.005328 -0.026430 0.002180
v 0.001144 -0.025451 0.000735
v 0.001144 -0.026322 0.001580
v 0.001907 -0.028214 0.003455
v 0.001907 -0.026925 0.002206
v 0.005328 -0.025265 0.001071
v 0.005328 -0.026032 0.001800
v 0.005328 -0.026322 0.002076
v 0.004959 -0.024989 0.000735
v 0.004959 -0.026322 0.002005
v 0.004959 -0.026532 0.002206
v 0.004196 -0.025897 0.001471
v 0.003433 -0.025244 0.000735
v 0.004196 -0.026664 0.002206
v 0.002670 -0.025336 0.000735
v 0.003433 -0.026322 0.001772
v 0.002670 -0.026322 0.001687
v 0.002670 -0.027084 0.002423
v 0.002670 -0.027620 0.002941
v 0.001907 -0.025405 0.000735
f 1 2 3
f 1 3 4
f 1 4 10
f 1 10 9
f 1 9 15
f 1 15 22
f 1 22 31
f 1 31 47
f 1 47 35
f 1 35 26
f 1 26 19
f 1 19 12
f 1 12 7
f 1 7 5
f 1 5 2
f 2 6 11
f 2 11 18
f 2 18 25
f 2 25 34
f 2 34 50
f 2 50 57
f 2 57 56
f 2 56 55
f 2 55 39
f 2 39 30
f 2 30 21
f 2 21 16
f 2 16 13
f 2 13 8
f 2 8 3
f 2 5 7
f 2 7 6
f 3 8 9
f 3 9 10
f 3 10 4
f 6 7 12
f 6 12 20
f 6 20 29
f 6 29 38
f 6 38 53
f 6 53 48
f 6 48 33
f 6 33 24
f 6 24 17
f 6 17 11
f 8 13 9
f 9 14 15
f 9 13 16
f 9 16 14
f 11 17 23
f 11 23 18
f 12 19 20
f 14 21 30
f 14 30 22
f 14 22 15
f 14 16 21
f 17 24 23
f 18 23 25
f 19 26 27
f 19 27 20
f 20 28 29
f 20 27 28
f 22 30 31
f 23 24 32
f 23 32 25
f 24 33 32
f 25 32 34
f 26 35 36
f 26 36 27
f 27 36 28
f 28 37 38
f 28 38 29
f 28 36 37
f 30 39 40
f 30 40 41
f 30 41 42
f 30 42 43
f 30 43 44
f 30 44 45
f 30 45 46
f 30 46 31
f 31 46 47
f 32 33 48
f 32 48 49
f 32 49 34
f 34 49 50
f 35 47 46
f 35 46 36
f 36 46 45
f 36 45 51
f 36 51 52
f 36 52 37
f 37 52 38
f 38 52 51
f 38 51 45
f 38 45 54
f 38 54 53
f 39 55 40
f 40 55 56
f 40 56 57
f 40 57 58
f 40 58 41
f 41 58 59
f 41 59 60
f 41 60 61
f 41 61 42
f 42 62 43
f 42 61 63
f 42 63 62
f 43 64 44
f 43 62 65
f 43 65 49
f 43 49 64
f 44 64 66
f 44 66 67
f 44 67 68
f 44 68 69
f 44 69 45
f 45 69 54
f 48 53 49
f 49 65 63
f 49 63 60
f 49 60 50
f 49 53 68
f 49 68 67
f 49 67 66
f 49 66 64
f 50 60 57
f 53 54 68
f 54 69 68
f 57 60 59
f 57 59 58
f 60 63 61
f 62 63 65
