v 0.025750 0.004148 0.016916
v 0.025750 0.004148 0.021103
v 0.014898 0.004148 0.016916
v 0.025750 0.009106 0.016916
v 0.025750 0.009106 0.021103
v 0.014606 0.004148 0.021103
v 0.014890 0.004148 0.016923
v 0.012350 0.009106 0.016916
v 0.012272 0.009106 0.021103
v 0.010680 0.009106 0.019853
v 0.010287 0.009106 0.019466
v 0.010260 0.009106 0.019438
v 0.009976 0.009106 0.019118
v 0.012905 0.004148 0.019118
v 0.014878 0.004148 0.016934
v 0.013352 0.004148 0.018375
v 0.013345 0.004148 0.018382
f 1 2 6
f 1 6 14
f 1 14 17
f 1 17 16
f 1 16 15
f 1 15 7
f 1 7 3
f 1 3 8
f 1 8 4
f 1 4 5
f 1 5 2
f 2 5 9
f 2 9 6
f 3 7 8
f 4 8 13
f 4 13 12
f 4 12 11
f 4 11 10
f 4 10 9
f 4 9 5
f 6 9 10
f 6 10 11
f 6 11 12
f 6 12 13
f 6 13 14
f 7 15 13
f 7 13 8
f 13 16 17
f 13 17 14
f 13 15 16
