v 0.009159 0.013353 0.000000
v 0.009159 0.012968 0.000115
v 0.008774 0.013353 0.000000
v 0.009159 0.022507 0.000000
v 0.009159 0.010373 0.002206
v 0.005818 0.014879 0.000032
v 0.006485 0.014879 0.000000
v 0.008011 0.023269 0.000000
v 0.009159 0.022884 0.000072
v 0.009159 0.010332 0.002328
v 0.005818 0.012185 0.002941
v 0.005818 0.012251 0.002848
v 0.005818 0.012568 0.002458
v 0.005818 0.012589 0.002433
v 0.005818 0.012781 0.002206
v 0.005818 0.014783 0.000121
v 0.005818 0.015545 0.000000
v 0.005818 0.023936 0.000000
v 0.005818 0.024033 0.000022
v 0.008774 0.023269 0.000145
v 0.009159 0.023269 0.000282
v 0.009159 0.010181 0.002941
v 0.009159 0.012066 0.005141
v 0.005818 0.014182 0.005141
v 0.006485 0.024033 0.000168
v 0.005818 0.024699 0.000639
v 0.007248 0.024033 0.000371
v 0.008011 0.024033 0.000596
v 0.008774 0.024033 0.000840
v 0.009159 0.023770 0.000736
v 0.009159 0.023448 0.000444
v 0.009159 0.024444 0.005141
v 0.005818 0.026374 0.005141
v 0.005818 0.024796 0.000729
v 0.006485 0.024796 0.000884
v 0.007248 0.025212 0.001471
v 0.007248 0.024796 0.001082
v 0.008011 0.024981 0.001471
v 0.008011 0.024796 0.001299
v 0.009159 0.023825 0.000787
v 0.009159 0.024444 0.001834
v 0.008772 0.024669 0.005141
v 0.005818 0.026374 0.002941
v 0.005818 0.025558 0.001451
v 0.006485 0.025420 0.001471
v 0.005818 0.025923 0.001796
v 0.005818 0.026316 0.002201
v 0.005818 0.026319 0.002206
v 0.008774 0.024647 0.001471
v 0.009159 0.024033 0.001016
v 0.008774 0.024667 0.002206
v 0.009159 0.024434 0.001471
v 0.006485 0.025989 0.002206
v 0.007248 0.025548 0.002206
v 0.005818 0.026322 0.002248
f 1 2 3
f 1 3 7
f 1 7 17
f 1 17 18
f 1 18 8
f 1 8 4
f 1 4 9
f 1 9 21
f 1 21 31
f 1 31 30
f 1 30 40
f 1 40 50
f 1 50 52
f 1 52 41
f 1 41 32
f 1 32 23
f 1 23 22
f 1 22 10
f 1 10 5
f 1 5 2
f 2 5 6
f 2 6 3
f 3 6 7
f 4 8 9
f 5 10 11
f 5 11 12
f 5 12 13
f 5 13 14
f 5 14 15
f 5 15 16
f 5 16 6
f 6 16 15
f 6 15 14
f 6 14 13
f 6 13 12
f 6 12 11
f 6 11 24
f 6 24 33
f 6 33 43
f 6 43 55
f 6 55 48
f 6 48 47
f 6 47 46
f 6 46 44
f 6 44 34
f 6 34 26
f 6 26 19
f 6 19 18
f 6 18 17
f 6 17 7
f 8 18 19
f 8 19 20
f 8 20 9
f 9 20 21
f 10 22 11
f 11 22 23
f 11 23 24
f 19 25 20
f 19 26 25
f 20 25 27
f 20 27 28
f 20 28 29
f 20 29 30
f 20 30 31
f 20 31 21
f 23 32 42
f 23 42 33
f 23 33 24
f 25 26 34
f 25 34 35
f 25 35 36
f 25 36 37
f 25 37 27
f 27 37 38
f 27 38 39
f 27 39 28
f 28 39 29
f 29 40 30
f 29 39 38
f 29 38 40
f 32 41 42
f 33 42 43
f 34 44 45
f 34 45 35
f 35 45 36
f 36 45 46
f 36 46 47
f 36 47 38
f 36 38 37
f 38 47 48
f 38 48 49
f 38 49 40
f 40 49 50
f 41 51 42
f 41 52 53
f 41 53 54
f 41 54 51
f 42 51 54
f 42 54 53
f 42 53 43
f 43 53 55
f 44 46 45
f 48 55 53
f 48 53 49
f 49 53 52
f 49 52 50
