v -0.004923 -0.012655 0.005147
v 0.000004 -0.013449 0.005147
v -0.004923 -0.013043 0.004447
v -0.004923 -0.014428 0.007356
v -0.004923 -0.013066 0.004412
v 0.000004 -0.014079 0.005882
v 0.000004 -0.015342 0.002940
v 0.000004 -0.015466 0.007356
v -0.004923 -0.026891 0.007356
v -0.004923 -0.014700 0.002940
v 0.000004 -0.027744 0.002940
v 0.000004 -0.015607 0.007356
v -0.004923 -0.026891 0.002941
v -0.001948 -0.028609 0.007356
v -0.004923 -0.026890 0.002940
v 0.000004 -0.027746 0.002941
v -0.000382 -0.027744 0.002940
v 0.000002 -0.029512 0.007356
v 0.000004 -0.029512 0.007353
v -0.004585 -0.027084 0.002940
v -0.004196 -0.027310 0.002941
v -0.001145 -0.029073 0.004412
v -0.000622 -0.029375 0.007356
v -0.000382 -0.027746 0.002941
v 0.000004 -0.028558 0.003729
v -0.001145 -0.027725 0.002940
v -0.000382 -0.029512 0.007356
v 0.000004 -0.029512 0.005147
v -0.004196 -0.027309 0.002940
v -0.003433 -0.027535 0.002940
v -0.001908 -0.028442 0.003677
v -0.000382 -0.029261 0.004412
v -0.000382 -0.029373 0.004704
v -0.000382 -0.029512 0.005147
v -0.000623 -0.029373 0.005147
v -0.000382 -0.028611 0.003780
v 0.000004 -0.029261 0.004412
v -0.001908 -0.027683 0.002941
v -0.001908 -0.027682 0.002940
v -0.001145 -0.028484 0.003677
v 0.000004 -0.029442 0.004923
v -0.002670 -0.027619 0.002940
v 0.000004 -0.029373 0.004704
f 1 2 3
f 1 3 5
f 1 5 10
f 1 10 15
f 1 15 13
f 1 13 9
f 1 9 4
f 1 4 2
f 2 5 3
f 2 4 6
f 2 6 8
f 2 8 12
f 2 12 19
f 2 19 28
f 2 28 41
f 2 41 43
f 2 43 37
f 2 37 25
f 2 25 16
f 2 16 11
f 2 11 7
f 2 7 5
f 4 8 6
f 4 9 14
f 4 14 23
f 4 23 27
f 4 27 18
f 4 18 12
f 4 12 8
f 5 7 10
f 7 11 17
f 7 17 26
f 7 26 39
f 7 39 42
f 7 42 30
f 7 30 29
f 7 29 20
f 7 20 15
f 7 15 10
f 9 13 14
f 11 16 24
f 11 24 17
f 12 18 19
f 13 15 20
f 13 20 21
f 13 21 22
f 13 22 14
f 14 22 23
f 16 25 24
f 17 24 26
f 18 27 34
f 18 34 28
f 18 28 19
f 20 29 21
f 21 29 30
f 21 30 31
f 21 31 22
f 22 31 32
f 22 32 33
f 22 33 34
f 22 34 35
f 22 35 23
f 23 35 34
f 23 34 27
f 24 25 36
f 24 36 26
f 25 37 32
f 25 32 36
f 26 38 39
f 26 36 40
f 26 40 31
f 26 31 38
f 28 34 41
f 30 42 31
f 31 40 32
f 31 42 38
f 32 37 43
f 32 43 33
f 32 40 36
f 33 43 41
f 33 41 34
f 38 42 39
