v -0.004923 -0.026890 0.015446
v -0.004923 -0.026890 0.019850
v -0.004959 -0.026870 0.015446
v -0.004923 -0.014697 0.015446
v -0.004959 -0.026870 0.019850
v -0.004923 -0.014430 0.019850
v -0.005723 -0.026429 0.019850
v -0.005909 -0.026322 0.015446
v -0.008212 -0.012944 0.015446
v -0.008214 -0.011054 0.016912
v -0.004923 -0.013066 0.016912
v -0.004923 -0.012657 0.017647
v -0.008214 -0.012644 0.019850
v -0.005909 -0.026322 0.019850
v -0.007253 -0.025546 0.015446
v -0.008214 -0.012948 0.015446
v -0.008214 -0.011040 0.017647
v -0.004923 -0.013043 0.016947
v -0.008214 -0.024991 0.019850
v -0.008008 -0.025110 0.019850
v -0.008013 -0.025107 0.015446
v -0.008214 -0.024991 0.015446
f 1 2 5
f 1 5 3
f 1 3 8
f 1 8 15
f 1 15 21
f 1 21 22
f 1 22 16
f 1 16 9
f 1 9 4
f 1 4 11
f 1 11 18
f 1 18 12
f 1 12 6
f 1 6 2
f 2 6 13
f 2 13 19
f 2 19 20
f 2 20 14
f 2 14 7
f 2 7 5
f 3 5 7
f 3 7 8
f 4 9 10
f 4 10 11
f 6 12 13
f 7 14 8
f 8 14 15
f 9 16 10
f 10 16 22
f 10 22 19
f 10 19 13
f 10 13 17
f 10 17 12
f 10 12 18
f 10 18 11
f 12 17 13
f 14 20 15
f 15 20 21
f 19 22 21
f 19 21 20
