v 0.014892 0.004147 0.016921
v 0.013443 0.004147 0.015441
v 0.015273 0.001310 0.016921
v 0.025750 0.004147 0.016921
v 0.013329 0.004147 0.015313
v 0.025750 0.001310 0.016921
v 0.013382 0.001310 0.014706
v 0.025750 0.004147 0.012499
v 0.012823 0.004147 0.014706
v 0.025750 0.001310 0.012499
v 0.014021 0.001310 0.013971
v 0.014776 0.004147 0.012499
v 0.015419 0.001310 0.012499
f 1 2 3
f 1 3 6
f 1 6 4
f 1 4 8
f 1 8 12
f 1 12 9
f 1 9 5
f 1 5 2
f 2 5 3
f 3 5 7
f 3 7 11
f 3 11 13
f 3 13 10
f 3 10 6
f 4 6 10
f 4 10 8
f 5 9 7
f 7 9 11
f 8 10 13
f 8 13 12
f 9 12 11
f 11 12 13
