v -0.004923 -0.026891 0.007342
v -0.004923 -0.026891 0.011029
v -0.008012 -0.025107 0.011033
v -0.006485 -0.025989 0.007342
v -0.004923 -0.014427 0.007342
v -0.004923 -0.026890 0.011033
v -0.004963 -0.026868 0.011033
v -0.006485 -0.025989 0.011033
v -0.008214 -0.024990 0.011033
v -0.008214 -0.024990 0.007342
v -0.008214 -0.012646 0.007342
v -0.008214 -0.010720 0.008824
v -0.004923 -0.012792 0.008824
v -0.004923 -0.014503 0.011033
v -0.008214 -0.013107 0.011033
v -0.008214 -0.011340 0.009559
v -0.004923 -0.012922 0.009559
v -0.004923 -0.012931 0.009568
v -0.008214 -0.011366 0.009580
f 1 2 3
f 1 3 4
f 1 4 10
f 1 10 11
f 1 11 5
f 1 5 13
f 1 13 17
f 1 17 18
f 1 18 14
f 1 14 6
f 1 6 2
f 2 6 7
f 2 7 8
f 2 8 3
f 3 9 10
f 3 10 4
f 3 8 7
f 3 7 6
f 3 6 14
f 3 14 15
f 3 15 9
f 5 11 12
f 5 12 13
f 9 15 19
f 9 19 16
f 9 16 12
f 9 12 11
f 9 11 10
f 12 16 17
f 12 17 13
f 14 18 16
f 14 16 19
f 14 19 15
f 16 18 17
