v 0.008777 0.012381 0.017645
v 0.008937 0.012248 0.017647
v 0.005818 0.014183 0.017645
v 0.008937 0.012598 0.017645
v 0.008937 0.010239 0.019118
v 0.005818 0.012495 0.019118
v 0.005818 0.026374 0.017645
v 0.008937 0.022621 0.017645
v 0.008937 0.010677 0.019853
v 0.005818 0.012457 0.019853
v 0.005818 0.012452 0.019760
v 0.005818 0.026374 0.021489
v 0.005909 0.026322 0.017645
v 0.008777 0.024665 0.017645
v 0.008937 0.024572 0.017647
v 0.008937 0.012387 0.021489
v 0.005818 0.014043 0.021489
v 0.005909 0.026322 0.021489
v 0.007230 0.025559 0.017645
v 0.008774 0.024667 0.021489
v 0.008937 0.024572 0.021489
v 0.007840 0.025207 0.021489
v 0.008430 0.024866 0.021489
v 0.007230 0.025559 0.021489
f 1 2 3
f 1 3 7
f 1 7 13
f 1 13 19
f 1 19 14
f 1 14 8
f 1 8 4
f 1 4 2
f 2 4 8
f 2 8 15
f 2 15 21
f 2 21 16
f 2 16 9
f 2 9 5
f 2 5 3
f 3 5 6
f 3 6 11
f 3 11 10
f 3 10 17
f 3 17 12
f 3 12 7
f 5 9 10
f 5 10 11
f 5 11 6
f 7 12 18
f 7 18 13
f 8 14 15
f 9 16 17
f 9 17 10
f 12 17 16
f 12 16 21
f 12 21 20
f 12 20 23
f 12 23 22
f 12 22 24
f 12 24 18
f 13 18 24
f 13 24 19
f 14 20 21
f 14 21 15
f 14 19 22
f 14 22 23
f 14 23 20
f 19 24 22
