v 0.009335 -0.024342 0.011767
v 0.009535 -0.024227 0.011767
v 0.009540 -0.024226 0.016182
v 0.009335 -0.024342 0.016182
v 0.009335 -0.012260 0.011767
v 0.009873 -0.024033 0.011767
v 0.011057 -0.023350 0.016182
v 0.009335 -0.012250 0.016182
v 0.009336 -0.012247 0.011767
v 0.009335 -0.009703 0.013971
v 0.011140 -0.023301 0.011767
v 0.011140 -0.023301 0.016182
v 0.011140 -0.010781 0.016182
v 0.011140 -0.008402 0.014706
v 0.009335 -0.010300 0.014503
v 0.011140 -0.007800 0.013971
v 0.011140 -0.010475 0.011767
v 0.011140 -0.008012 0.014245
v 0.011140 -0.007928 0.014138
f 1 2 3
f 1 3 4
f 1 4 8
f 1 8 15
f 1 15 10
f 1 10 5
f 1 5 9
f 1 9 17
f 1 17 11
f 1 11 6
f 1 6 2
f 2 6 3
f 3 6 7
f 3 7 12
f 3 12 13
f 3 13 8
f 3 8 4
f 5 10 9
f 6 11 7
f 7 11 12
f 8 13 14
f 8 14 15
f 9 10 16
f 9 16 17
f 10 15 14
f 10 14 18
f 10 18 19
f 10 19 16
f 11 17 16
f 11 16 19
f 11 19 18
f 11 18 14
f 11 14 13
f 11 13 12
