v 0.012510 -0.005145 0.010294
v 0.012622 -0.004816 0.010294
v 0.012510 -0.006186 0.009559
v 0.012510 -0.008514 0.012387
v 0.014488 -0.004816 0.012387
v 0.012631 -0.004816 0.010281
v 0.013063 -0.004816 0.009697
v 0.013164 -0.004816 0.009575
v 0.012510 -0.008909 0.008093
v 0.012510 -0.022511 0.012387
v 0.025750 -0.004816 0.012387
v 0.013179 -0.004816 0.009559
v 0.014725 -0.004816 0.008093
v 0.012510 -0.022511 0.008093
v 0.015639 -0.020705 0.008093
v 0.016470 -0.020225 0.012387
v 0.025750 -0.004816 0.008093
v 0.025750 -0.014114 0.012387
v 0.024029 -0.015860 0.008093
v 0.025558 -0.014977 0.012387
v 0.025750 -0.014114 0.008093
v 0.025658 -0.014876 0.012387
v 0.025659 -0.014873 0.008093
v 0.025558 -0.014977 0.008093
v 0.025658 -0.014876 0.008093
f 1 2 3
f 1 3 9
f 1 9 14
f 1 14 10
f 1 10 4
f 1 4 2
f 2 5 11
f 2 11 17
f 2 17 13
f 2 13 12
f 2 12 8
f 2 8 7
f 2 7 6
f 2 6 3
f 2 4 5
f 3 6 7
f 3 7 8
f 3 8 9
f 4 10 16
f 4 16 20
f 4 20 22
f 4 22 18
f 4 18 11
f 4 11 5
f 8 12 9
f 9 12 13
f 9 13 17
f 9 17 21
f 9 21 23
f 9 23 25
f 9 25 24
f 9 24 19
f 9 19 15
f 9 15 14
f 10 14 15
f 10 15 16
f 11 18 21
f 11 21 17
f 15 19 16
f 16 19 20
f 18 22 23
f 18 23 21
f 19 24 20
f 20 24 25
f 20 25 22
f 22 25 23
