v 0.011140 -0.023302 0.007996
v 0.012509 -0.022511 0.007996
v 0.011140 -0.023302 0.011769
v 0.011140 -0.010405 0.007996
v 0.012509 -0.022511 0.011769
v 0.012509 -0.008838 0.007996
v 0.011140 -0.010473 0.011769
v 0.011140 -0.008208 0.009559
v 0.012509 -0.005144 0.010294
v 0.012509 -0.006186 0.009559
v 0.012509 -0.008612 0.011769
v 0.011140 -0.007949 0.010294
f 1 2 5
f 1 5 3
f 1 3 7
f 1 7 12
f 1 12 8
f 1 8 4
f 1 4 6
f 1 6 2
f 2 6 10
f 2 10 9
f 2 9 11
f 2 11 5
f 3 5 11
f 3 11 7
f 4 8 9
f 4 9 10
f 4 10 6
f 7 11 9
f 7 9 12
f 8 12 9
