v -0.012434 -0.006737 0.024265
v -0.012590 -0.006485 0.025000
v -0.012590 -0.006737 0.025000
v -0.013293 -0.006737 0.023522
v -0.014348 -0.004035 0.023522
v -0.013639 -0.004035 0.024187
v -0.013557 -0.004035 0.024265
v -0.013352 -0.004960 0.025000
v -0.025558 -0.006737 0.025000
v -0.025750 -0.006737 0.023522
v -0.025270 -0.004035 0.023522
v -0.014116 -0.004035 0.025000
v -0.025558 -0.004035 0.025000
v -0.025750 -0.006737 0.024265
v -0.025750 -0.004036 0.023522
v -0.025750 -0.004035 0.023530
v -0.025750 -0.004035 0.024265
f 1 2 3
f 1 3 9
f 1 9 14
f 1 14 10
f 1 10 4
f 1 4 5
f 1 5 6
f 1 6 7
f 1 7 2
f 2 7 8
f 2 8 12
f 2 12 13
f 2 13 9
f 2 9 3
f 4 10 15
f 4 15 11
f 4 11 5
f 5 11 16
f 5 16 17
f 5 17 13
f 5 13 12
f 5 12 7
f 5 7 6
f 7 12 8
f 9 13 17
f 9 17 14
f 10 14 17
f 10 17 16
f 10 16 15
f 11 15 16
