v -0.004923 -0.026890 0.002944
v -0.004923 -0.026890 0.007342
v -0.004954 -0.026873 0.007342
v -0.004962 -0.026868 0.002944
v -0.004923 -0.014699 0.002944
v -0.004923 -0.014427 0.007342
v -0.004959 -0.026870 0.007342
v -0.005909 -0.026322 0.007342
v -0.005909 -0.026322 0.003677
v -0.005911 -0.026320 0.002944
v -0.008212 -0.012945 0.002944
v -0.008214 -0.011063 0.004405
v -0.008214 -0.011054 0.004412
v -0.004923 -0.013066 0.004412
v -0.004923 -0.012657 0.005147
v -0.008214 -0.012646 0.007342
v -0.008214 -0.024991 0.007342
v -0.008214 -0.024991 0.002944
v -0.008214 -0.012590 0.003229
v -0.008214 -0.015544 0.002944
v -0.008214 -0.011040 0.005147
v -0.004923 -0.013043 0.004447
f 1 2 3
f 1 3 4
f 1 4 10
f 1 10 18
f 1 18 20
f 1 20 11
f 1 11 5
f 1 5 14
f 1 14 22
f 1 22 15
f 1 15 6
f 1 6 2
f 2 6 16
f 2 16 17
f 2 17 8
f 2 8 7
f 2 7 3
f 3 7 4
f 4 7 8
f 4 8 9
f 4 9 10
f 5 11 12
f 5 12 13
f 5 13 14
f 6 15 16
f 8 17 18
f 8 18 9
f 9 18 10
f 11 19 12
f 11 20 19
f 12 19 20
f 12 20 18
f 12 18 17
f 12 17 16
f 12 16 21
f 12 21 13
f 13 21 15
f 13 15 22
f 13 22 14
f 15 21 16
