v -0.004548 0.027107 0.024265
v -0.004548 0.027107 0.022062
v -0.004548 0.027085 0.024337
v -0.001908 0.028610 0.025000
v -0.003433 0.027751 0.024265
v -0.004198 0.027309 0.022062
v -0.004548 0.014832 0.022062
v -0.004548 0.026732 0.025000
v -0.004196 0.027085 0.025000
v -0.000382 0.029373 0.025000
v -0.000382 0.029513 0.024265
v -0.003433 0.027751 0.022062
v 0.000004 0.015339 0.022062
v -0.004548 0.013296 0.023529
v -0.004548 0.013001 0.025000
v 0.000004 0.029373 0.025000
v 0.000004 0.029513 0.024265
v -0.000382 0.029513 0.022794
v -0.000623 0.029373 0.022062
v 0.000004 0.014356 0.023016
v 0.000004 0.029513 0.022062
v 0.000004 0.013827 0.023529
v -0.004548 0.012980 0.023889
v -0.004548 0.012675 0.024265
v -0.002670 0.013352 0.025000
v 0.000004 0.014115 0.025000
v -0.000383 0.029512 0.022062
v 0.000004 0.013746 0.023893
v 0.000004 0.013702 0.024265
f 1 2 7
f 1 7 14
f 1 14 23
f 1 23 24
f 1 24 15
f 1 15 8
f 1 8 3
f 1 3 4
f 1 4 5
f 1 5 6
f 1 6 2
f 2 6 12
f 2 12 19
f 2 19 27
f 2 27 21
f 2 21 13
f 2 13 7
f 3 8 9
f 3 9 4
f 4 10 11
f 4 11 5
f 4 9 8
f 4 8 15
f 4 15 25
f 4 25 26
f 4 26 16
f 4 16 10
f 5 12 6
f 5 11 18
f 5 18 12
f 7 13 14
f 10 16 17
f 10 17 11
f 11 17 21
f 11 21 18
f 12 18 19
f 13 20 14
f 13 21 17
f 13 17 16
f 13 16 26
f 13 26 29
f 13 29 28
f 13 28 22
f 13 22 20
f 14 20 22
f 14 22 23
f 15 24 25
f 18 21 27
f 18 27 19
f 22 28 24
f 22 24 23
f 24 29 25
f 24 28 29
f 25 29 26
