v -0.008214 -0.024991 0.023172
v -0.008214 -0.024991 0.024265
v -0.008379 -0.024896 0.023172
v -0.008214 -0.012329 0.023172
v -0.008214 -0.024761 0.024804
v -0.009537 -0.024033 0.025000
v -0.011063 -0.023270 0.025000
v -0.016405 -0.020218 0.025000
v -0.021744 -0.017165 0.025000
v -0.008775 -0.024668 0.024265
v -0.008775 -0.024668 0.023172
v -0.008214 -0.011510 0.024265
v -0.011831 -0.009106 0.023172
v -0.010816 -0.009106 0.024265
v -0.008214 -0.024593 0.025000
v -0.025558 -0.014878 0.025000
v -0.025558 -0.014977 0.024265
v -0.024409 -0.015641 0.024265
v -0.023088 -0.016405 0.024265
v -0.013982 -0.021662 0.023172
v -0.008214 -0.011633 0.024804
v -0.025750 -0.009106 0.023172
v -0.011063 -0.009106 0.024560
v -0.008214 -0.011827 0.025000
v -0.025558 -0.009106 0.025000
v -0.025642 -0.009106 0.024680
v -0.025750 -0.014116 0.024265
v -0.025657 -0.014878 0.024265
v -0.025608 -0.014929 0.023172
v -0.025558 -0.014977 0.023172
v -0.025187 -0.015192 0.023172
v -0.024409 -0.015641 0.023172
v -0.023088 -0.016405 0.023172
v -0.011494 -0.009106 0.025000
v -0.025750 -0.014116 0.023172
v -0.025750 -0.009106 0.024265
v -0.025705 -0.014486 0.023172
v -0.025657 -0.014878 0.023172
f 1 2 3
f 1 3 11
f 1 11 20
f 1 20 33
f 1 33 32
f 1 32 31
f 1 31 30
f 1 30 29
f 1 29 38
f 1 38 37
f 1 37 35
f 1 35 22
f 1 22 13
f 1 13 4
f 1 4 12
f 1 12 21
f 1 21 24
f 1 24 15
f 1 15 5
f 1 5 2
f 2 5 6
f 2 6 7
f 2 7 8
f 2 8 9
f 2 9 10
f 2 10 3
f 3 10 11
f 4 13 14
f 4 14 12
f 5 15 6
f 6 15 24
f 6 24 34
f 6 34 25
f 6 25 16
f 6 16 9
f 6 9 8
f 6 8 7
f 9 16 17
f 9 17 18
f 9 18 19
f 9 19 10
f 10 20 11
f 10 19 20
f 12 14 21
f 13 22 36
f 13 36 26
f 13 26 25
f 13 25 34
f 13 34 23
f 13 23 14
f 14 23 21
f 16 25 26
f 16 26 27
f 16 27 28
f 16 28 17
f 17 28 29
f 17 29 30
f 17 30 31
f 17 31 18
f 18 31 32
f 18 32 33
f 18 33 19
f 19 33 20
f 21 23 34
f 21 34 24
f 22 35 27
f 22 27 36
f 26 36 27
f 27 35 37
f 27 37 28
f 28 37 38
f 28 38 29
