v -0.025750 0.001933 0.019115
v -0.025750 -0.001123 0.019115
v -0.025709 0.001933 0.019115
v -0.025750 0.001933 0.018407
v -0.025750 -0.001123 0.014693
v -0.015166 -0.001123 0.019115
v -0.014946 0.001933 0.019115
v -0.025750 0.001933 0.014706
v -0.025750 0.001933 0.014693
v -0.015408 -0.001123 0.014693
v -0.013539 -0.001123 0.016911
v -0.013602 0.001933 0.016911
v -0.015403 0.001933 0.014693
v -0.015194 0.001933 0.014693
v -0.013662 0.001933 0.016177
v -0.013905 -0.001123 0.016177
f 1 2 6
f 1 6 7
f 1 7 3
f 1 3 4
f 1 4 8
f 1 8 9
f 1 9 5
f 1 5 2
f 2 5 10
f 2 10 16
f 2 16 11
f 2 11 6
f 3 7 12
f 3 12 15
f 3 15 14
f 3 14 13
f 3 13 8
f 3 8 4
f 5 9 13
f 5 13 14
f 5 14 10
f 6 11 7
f 7 11 12
f 8 13 9
f 10 14 15
f 10 15 16
f 11 16 15
f 11 15 12
