v -0.004923 -0.012792 0.008824
v -0.004923 -0.014428 0.007357
v -0.004923 -0.012922 0.009559
v 0.000004 -0.013575 0.009559
v 0.000004 -0.013955 0.008824
v 0.000004 -0.014043 0.008737
v 0.000004 -0.014115 0.008667
v 0.000004 -0.014711 0.008089
v 0.000004 -0.014802 0.008000
v 0.000004 -0.015465 0.007357
v -0.004923 -0.026891 0.007357
v -0.004923 -0.014331 0.011394
v 0.000002 -0.015135 0.011394
v 0.000004 -0.015135 0.011393
v 0.000004 -0.015606 0.007357
v -0.000625 -0.029373 0.007357
v -0.004393 -0.027197 0.011394
v -0.004923 -0.026891 0.011394
v 0.000004 -0.015153 0.011394
v 0.000004 -0.029512 0.007717
v 0.000002 -0.029512 0.007357
v -0.000382 -0.029512 0.007357
v -0.000503 -0.029443 0.011394
v -0.001926 -0.028621 0.011394
v 0.000004 -0.029458 0.011394
v 0.000004 -0.029512 0.011393
v -0.000382 -0.029512 0.011394
v 0.000002 -0.029512 0.011394
f 1 2 11
f 1 11 18
f 1 18 12
f 1 12 3
f 1 3 4
f 1 4 5
f 1 5 6
f 1 6 7
f 1 7 8
f 1 8 9
f 1 9 10
f 1 10 2
f 2 10 15
f 2 15 21
f 2 21 22
f 2 22 16
f 2 16 11
f 3 12 4
f 4 12 13
f 4 13 14
f 4 14 19
f 4 19 25
f 4 25 26
f 4 26 20
f 4 20 15
f 4 15 10
f 4 10 9
f 4 9 8
f 4 8 7
f 4 7 6
f 4 6 5
f 11 16 17
f 11 17 18
f 12 18 17
f 12 17 24
f 12 24 23
f 12 23 27
f 12 27 28
f 12 28 25
f 12 25 19
f 12 19 13
f 13 19 14
f 15 20 21
f 16 22 23
f 16 23 24
f 16 24 17
f 20 26 28
f 20 28 27
f 20 27 22
f 20 22 21
f 22 27 23
f 25 28 26
