v 0.012510 -0.005145 0.022794
v 0.012510 -0.006186 0.022059
v 0.012510 -0.006625 0.024867
v 0.012657 -0.004706 0.022794
v 0.012663 -0.004706 0.022784
v 0.013017 -0.004706 0.022305
v 0.013199 -0.004706 0.022088
v 0.013223 -0.004706 0.022059
v 0.012510 -0.008645 0.020751
v 0.012589 -0.006485 0.025000
v 0.012510 -0.007329 0.025000
v 0.013353 -0.004960 0.025000
v 0.013406 -0.004706 0.024754
v 0.014613 -0.004706 0.020751
v 0.012510 -0.022511 0.020751
v 0.012510 -0.021823 0.025000
v 0.013608 -0.004706 0.025000
v 0.025750 -0.004706 0.020751
v 0.019124 -0.018692 0.020751
v 0.012510 -0.022511 0.024265
v 0.012510 -0.022506 0.024272
v 0.013353 -0.021743 0.025000
v 0.025558 -0.004706 0.025000
v 0.025750 -0.004706 0.024265
v 0.025750 -0.014113 0.020751
v 0.019124 -0.018692 0.024265
v 0.023088 -0.016404 0.020751
v 0.021744 -0.017165 0.025000
v 0.016404 -0.020217 0.025000
v 0.014878 -0.020981 0.025000
v 0.025623 -0.004706 0.024754
v 0.025558 -0.014877 0.025000
v 0.025750 -0.014113 0.024265
v 0.025679 -0.014708 0.020751
v 0.023088 -0.016404 0.024265
v 0.024796 -0.015417 0.020751
v 0.024796 -0.015417 0.024265
v 0.025558 -0.014976 0.024265
v 0.025658 -0.014877 0.024265
v 0.025658 -0.014877 0.020751
v 0.025390 -0.015074 0.020751
v 0.025558 -0.014976 0.020751
f 1 2 9
f 1 9 15
f 1 15 20
f 1 20 21
f 1 21 16
f 1 16 11
f 1 11 3
f 1 3 4
f 1 4 2
f 2 4 5
f 2 5 6
f 2 6 7
f 2 7 8
f 2 8 9
f 3 10 4
f 3 11 10
f 4 12 13
f 4 13 17
f 4 17 23
f 4 23 31
f 4 31 24
f 4 24 18
f 4 18 14
f 4 14 8
f 4 8 7
f 4 7 6
f 4 6 5
f 4 10 12
f 8 14 9
f 9 14 18
f 9 18 25
f 9 25 34
f 9 34 40
f 9 40 42
f 9 42 41
f 9 41 36
f 9 36 27
f 9 27 19
f 9 19 15
f 10 11 16
f 10 16 22
f 10 22 30
f 10 30 29
f 10 29 28
f 10 28 32
f 10 32 23
f 10 23 17
f 10 17 12
f 12 17 13
f 15 19 26
f 15 26 20
f 16 21 22
f 18 24 33
f 18 33 25
f 19 27 35
f 19 35 26
f 20 26 28
f 20 28 29
f 20 29 30
f 20 30 22
f 20 22 21
f 23 32 31
f 24 31 33
f 25 33 34
f 26 35 28
f 27 36 37
f 27 37 35
f 28 35 37
f 28 37 38
f 28 38 32
f 31 32 33
f 32 38 39
f 32 39 33
f 33 39 34
f 34 39 40
f 36 41 37
f 37 41 38
f 38 41 42
f 38 42 40
f 38 40 39
