v 0.014115 0.001309 0.025000
v 0.013516 0.001309 0.022794
v 0.013358 -0.001454 0.022794
v 0.014115 -0.001454 0.025000
v 0.025558 0.001309 0.025000
v 0.015165 0.001309 0.020589
v 0.015275 -0.001454 0.020589
v 0.015064 -0.001454 0.021025
v 0.025558 -0.001454 0.025000
v 0.025672 -0.001454 0.024563
v 0.025750 0.001309 0.024264
v 0.025750 0.001309 0.020589
v 0.025003 -0.001454 0.020589
v 0.025750 -0.001454 0.024264
v 0.025750 -0.001454 0.020589
f 1 2 3
f 1 3 4
f 1 4 9
f 1 9 5
f 1 5 11
f 1 11 12
f 1 12 6
f 1 6 2
f 2 6 3
f 3 6 7
f 3 7 8
f 3 8 13
f 3 13 15
f 3 15 14
f 3 14 10
f 3 10 9
f 3 9 4
f 5 9 10
f 5 10 11
f 6 12 15
f 6 15 13
f 6 13 7
f 7 13 8
f 10 14 11
f 11 14 15
f 11 15 12
