v -0.008604 0.011695 0.002447
v -0.008604 0.012538 0.000735
v -0.008604 0.011695 0.004644
v -0.009713 0.011695 0.000735
v -0.008604 0.012762 0.000553
v -0.010431 0.011695 0.000280
v -0.008604 0.012589 0.005883
v -0.008605 0.012588 0.005884
v -0.009888 0.011695 0.005884
v -0.008604 0.013353 0.000086
v -0.011064 0.011695 0.000054
v -0.008775 0.013353 0.000001
v -0.008604 0.012639 0.005884
v -0.025389 0.011695 0.005884
v -0.008604 0.014116 0.000001
v -0.011064 0.011826 0.000001
v -0.011826 0.011695 0.000001
v -0.008604 0.024766 0.005884
v -0.025750 0.011828 0.005884
v -0.025750 0.011695 0.005882
v -0.008604 0.022506 0.000001
v -0.020981 0.011695 0.000001
v -0.008604 0.024766 0.002206
v -0.008775 0.024667 0.005882
v -0.009538 0.024227 0.005882
v -0.010302 0.023786 0.005884
v -0.025750 0.013354 0.005884
v -0.025750 0.011695 0.003676
v -0.008604 0.023270 0.000113
v -0.009538 0.022506 0.000001
v -0.021743 0.011695 0.000026
v -0.020981 0.012589 0.000001
v -0.008604 0.024762 0.002040
v -0.009538 0.024227 0.001471
v -0.008775 0.024667 0.002206
v -0.023088 0.016405 0.005884
v -0.014880 0.021143 0.005884
v -0.025750 0.014116 0.005882
v -0.025748 0.014117 0.005884
v -0.025716 0.011695 0.003584
v -0.025750 0.011826 0.003676
v -0.008604 0.023442 0.000247
v -0.010301 0.022506 0.000032
v -0.008775 0.023270 0.000146
v -0.014116 0.020218 0.000001
v -0.021743 0.011826 0.000032
v -0.020217 0.014116 0.000001
v -0.022507 0.011695 0.000627
v -0.008604 0.024719 0.001471
v -0.008775 0.024647 0.001471
v -0.012590 0.022148 0.000735
v -0.013352 0.021743 0.000811
v -0.011064 0.023270 0.001292
v -0.015642 0.020703 0.001471
v -0.023088 0.016405 0.003676
v -0.025559 0.014978 0.005882
v -0.025559 0.014977 0.005884
v -0.025750 0.014116 0.005147
v -0.025658 0.014878 0.005884
v -0.025559 0.011695 0.003344
v -0.025750 0.013353 0.004411
v -0.025616 0.014116 0.004411
v -0.025572 0.012589 0.003676
v -0.025559 0.011826 0.003385
v -0.008604 0.023944 0.000704
v -0.010301 0.023302 0.000735
v -0.009538 0.023270 0.000416
v -0.011826 0.021743 0.000032
v -0.011064 0.022506 0.000349
v -0.011064 0.022949 0.000735
v -0.010371 0.023270 0.000735
v -0.009538 0.023625 0.000735
v -0.008775 0.024033 0.000840
v -0.014878 0.020218 0.000371
v -0.013352 0.020981 0.000146
v -0.017168 0.017168 0.000001
v -0.017168 0.017930 0.000100
v -0.016404 0.018692 0.000146
v -0.015642 0.019456 0.000236
v -0.022507 0.011826 0.000685
v -0.024795 0.013353 0.003342
v -0.025559 0.014116 0.004347
v -0.024033 0.013353 0.002693
v -0.022507 0.012589 0.001038
v -0.021743 0.012589 0.000394
v -0.020981 0.013353 0.000146
v -0.020217 0.014878 0.000371
v -0.019455 0.015641 0.000236
v -0.018692 0.016405 0.000146
v -0.017930 0.017168 0.000100
v -0.019455 0.014878 0.000001
v -0.022556 0.011695 0.000669
v -0.022566 0.011826 0.000735
v -0.008604 0.024397 0.001142
v -0.011826 0.022565 0.000735
v -0.011937 0.022506 0.000735
v -0.012590 0.021743 0.000394
v -0.013277 0.021743 0.000735
v -0.013352 0.021697 0.000735
v -0.016481 0.020218 0.001471
v -0.021743 0.017180 0.002941
v -0.021765 0.017168 0.002941
v -0.024795 0.015304 0.004411
v -0.024409 0.015641 0.004411
v -0.025559 0.014978 0.005147
v -0.025658 0.014878 0.005147
v -0.025161 0.011695 0.002941
v -0.025559 0.014878 0.004940
v -0.025559 0.014250 0.004411
v -0.025559 0.012624 0.003676
v -0.025559 0.012589 0.003661
v -0.008604 0.023979 0.000735
v -0.011826 0.022506 0.000685
v -0.008604 0.024033 0.000785
v -0.014878 0.020680 0.000735
v -0.014450 0.020981 0.000735
v -0.014116 0.020981 0.000551
v -0.015501 0.020218 0.000735
v -0.014116 0.021209 0.000735
v -0.017930 0.017930 0.000618
v -0.017930 0.018692 0.001147
v -0.017930 0.019150 0.001471
v -0.017168 0.018692 0.000640
v -0.017168 0.019456 0.001191
v -0.016449 0.019456 0.000735
v -0.016404 0.019456 0.000707
v -0.016404 0.019493 0.000735
v -0.015642 0.020109 0.000735
v -0.024033 0.012589 0.002341
v -0.025184 0.013353 0.003676
v -0.024766 0.014116 0.003676
v -0.022507 0.013353 0.001408
v -0.021698 0.013353 0.000735
v -0.024033 0.014116 0.003059
v -0.022507 0.014116 0.001794
v -0.024033 0.015329 0.003676
v -0.023269 0.014878 0.002816
v -0.023831 0.015641 0.003676
v -0.021743 0.014116 0.001169
v -0.020981 0.014116 0.000551
v -0.020217 0.015641 0.000818
v -0.020110 0.015641 0.000735
v -0.020681 0.014878 0.000735
v -0.022381 0.016405 0.002941
v -0.020981 0.015641 0.001408
v -0.020981 0.016405 0.001857
v -0.020473 0.016405 0.001471
v -0.020217 0.016405 0.001278
v -0.019455 0.016405 0.000707
v -0.018824 0.017168 0.000735
v -0.018692 0.017168 0.000640
v -0.019455 0.016450 0.000735
v -0.020217 0.017168 0.001751
v -0.019455 0.017168 0.001191
v -0.019455 0.017930 0.001687
v -0.019150 0.017930 0.001471
v -0.018692 0.017930 0.001147
v -0.023269 0.011826 0.001343
v -0.023392 0.011695 0.001393
v -0.024795 0.012589 0.002998
v -0.016404 0.020218 0.001406
v -0.017597 0.019456 0.001471
v -0.025198 0.014878 0.004411
v -0.020176 0.017930 0.002206
v -0.020217 0.017883 0.002206
v -0.020828 0.017168 0.002206
v -0.020981 0.016979 0.002206
v -0.025102 0.011826 0.002941
v -0.025050 0.011695 0.002842
v -0.024033 0.011826 0.002005
v -0.024263 0.011826 0.002206
v -0.024795 0.011826 0.002672
v -0.015642 0.020218 0.000828
v -0.018692 0.018405 0.001471
v -0.018405 0.018692 0.001471
v -0.024795 0.014878 0.004075
v -0.024033 0.014878 0.003442
v -0.022507 0.016230 0.002941
v -0.023269 0.015641 0.003221
v -0.022507 0.014900 0.002206
v -0.021743 0.014878 0.001580
v -0.021607 0.014878 0.001471
v -0.020981 0.014450 0.000735
v -0.021743 0.016405 0.002445
v -0.021434 0.016405 0.002206
v -0.020981 0.014878 0.000972
v -0.023417 0.011826 0.001471
v -0.024033 0.011695 0.001951
v -0.024223 0.011695 0.002117
v -0.022507 0.015641 0.002610
f 1 2 5
f 1 5 10
f 1 10 15
f 1 15 21
f 1 21 29
f 1 29 42
f 1 42 65
f 1 65 112
f 1 112 114
f 1 114 94
f 1 94 49
f 1 49 33
f 1 33 23
f 1 23 18
f 1 18 13
f 1 13 7
f 1 7 3
f 1 3 9
f 1 9 14
f 1 14 20
f 1 20 28
f 1 28 40
f 1 40 60
f 1 60 107
f 1 107 169
f 1 169 189
f 1 189 188
f 1 188 159
f 1 159 92
f 1 92 48
f 1 48 31
f 1 31 22
f 1 22 17
f 1 17 11
f 1 11 6
f 1 6 4
f 1 4 2
f 2 4 6
f 2 6 5
f 3 7 8
f 3 8 9
f 5 6 10
f 6 11 12
f 6 12 10
f 7 13 8
f 8 13 18
f 8 18 26
f 8 26 37
f 8 37 36
f 8 36 57
f 8 57 59
f 8 59 39
f 8 39 27
f 8 27 19
f 8 19 14
f 8 14 9
f 10 12 15
f 11 16 12
f 11 17 16
f 12 16 17
f 12 17 22
f 12 22 32
f 12 32 47
f 12 47 91
f 12 91 76
f 12 76 45
f 12 45 30
f 12 30 21
f 12 21 15
f 14 19 20
f 18 23 35
f 18 35 24
f 18 24 25
f 18 25 26
f 19 27 38
f 19 38 58
f 19 58 61
f 19 61 41
f 19 41 28
f 19 28 20
f 21 30 29
f 22 31 32
f 23 33 34
f 23 34 35
f 24 35 34
f 24 34 25
f 25 34 55
f 25 55 36
f 25 36 37
f 25 37 26
f 27 39 38
f 28 41 40
f 29 30 43
f 29 43 44
f 29 44 42
f 30 45 68
f 30 68 43
f 31 46 47
f 31 47 32
f 31 48 46
f 33 49 50
f 33 50 34
f 34 50 51
f 34 51 52
f 34 52 53
f 34 53 54
f 34 54 55
f 36 55 105
f 36 105 56
f 36 56 57
f 38 39 59
f 38 59 106
f 38 106 58
f 40 41 60
f 41 61 62
f 41 62 63
f 41 63 64
f 41 64 60
f 42 44 65
f 43 66 67
f 43 67 44
f 43 68 69
f 43 69 70
f 43 70 71
f 43 71 66
f 44 67 72
f 44 72 73
f 44 73 65
f 45 74 75
f 45 75 68
f 45 76 77
f 45 77 78
f 45 78 79
f 45 79 74
f 46 48 80
f 46 80 81
f 46 81 82
f 46 82 83
f 46 83 84
f 46 84 85
f 46 85 86
f 46 86 47
f 47 87 88
f 47 88 89
f 47 89 90
f 47 90 77
f 47 77 91
f 47 86 87
f 48 92 93
f 48 93 80
f 49 94 72
f 49 72 50
f 50 72 66
f 50 66 71
f 50 71 70
f 50 70 95
f 50 95 96
f 50 96 51
f 51 96 68
f 51 68 97
f 51 97 98
f 51 98 52
f 52 98 99
f 52 99 100
f 52 100 54
f 52 54 53
f 54 100 101
f 54 101 55
f 55 101 102
f 55 102 103
f 55 103 104
f 55 104 105
f 56 105 106
f 56 106 59
f 56 59 57
f 58 106 61
f 60 64 107
f 61 106 62
f 62 106 108
f 62 108 109
f 62 109 82
f 62 82 110
f 62 110 63
f 63 110 111
f 63 111 64
f 64 111 107
f 65 73 112
f 66 72 67
f 68 75 97
f 68 96 113
f 68 113 69
f 69 113 95
f 69 95 70
f 72 94 73
f 73 94 114
f 73 114 112
f 74 115 116
f 74 116 117
f 74 117 75
f 74 79 118
f 74 118 115
f 75 117 119
f 75 119 99
f 75 99 98
f 75 98 97
f 76 91 77
f 77 90 120
f 77 120 121
f 77 121 122
f 77 122 123
f 77 123 78
f 78 123 124
f 78 124 125
f 78 125 126
f 78 126 79
f 79 126 127
f 79 127 128
f 79 128 118
f 80 93 129
f 80 129 81
f 81 129 130
f 81 130 82
f 82 130 110
f 82 109 131
f 82 131 83
f 83 131 84
f 84 131 85
f 85 132 133
f 85 133 86
f 85 131 134
f 85 134 132
f 86 133 135
f 86 135 136
f 86 136 137
f 86 137 138
f 86 138 139
f 86 139 140
f 86 140 87
f 87 141 142
f 87 142 88
f 87 140 143
f 87 143 144
f 87 144 145
f 87 145 141
f 88 142 146
f 88 146 147
f 88 147 148
f 88 148 149
f 88 149 89
f 89 150 151
f 89 151 90
f 89 149 152
f 89 152 153
f 89 153 154
f 89 154 150
f 90 151 155
f 90 155 156
f 90 156 157
f 90 157 120
f 92 158 93
f 92 159 158
f 93 158 160
f 93 160 129
f 95 113 96
f 99 119 100
f 100 119 161
f 100 161 162
f 100 162 102
f 100 102 101
f 102 144 138
f 102 138 163
f 102 163 103
f 102 162 164
f 102 164 165
f 102 165 166
f 102 166 167
f 102 167 144
f 103 163 108
f 103 108 105
f 103 105 104
f 105 108 106
f 107 168 169
f 107 111 168
f 108 163 109
f 109 163 131
f 110 130 160
f 110 160 170
f 110 170 111
f 111 170 171
f 111 171 172
f 111 172 168
f 115 118 173
f 115 173 162
f 115 162 116
f 116 119 117
f 116 162 161
f 116 161 119
f 118 128 173
f 120 157 174
f 120 174 175
f 120 175 121
f 121 175 122
f 122 175 164
f 122 164 162
f 122 162 123
f 123 162 124
f 124 162 128
f 124 128 127
f 124 127 125
f 125 127 126
f 128 162 173
f 129 160 130
f 131 163 134
f 132 134 176
f 132 176 133
f 133 176 177
f 133 177 135
f 134 163 176
f 135 177 136
f 136 177 176
f 136 176 163
f 136 163 138
f 136 138 137
f 138 144 178
f 138 178 179
f 138 179 180
f 138 180 139
f 139 180 140
f 140 181 182
f 140 182 183
f 140 183 143
f 140 180 179
f 140 179 181
f 141 145 184
f 141 184 185
f 141 185 146
f 141 146 142
f 143 183 186
f 143 186 144
f 144 167 184
f 144 184 145
f 144 186 178
f 146 185 167
f 146 167 147
f 147 167 148
f 148 167 166
f 148 166 149
f 149 166 153
f 149 153 152
f 150 154 164
f 150 164 155
f 150 155 151
f 153 165 154
f 153 166 165
f 154 165 164
f 155 164 174
f 155 174 156
f 156 174 157
f 158 159 187
f 158 187 160
f 159 188 170
f 159 170 187
f 160 187 170
f 164 175 174
f 167 185 184
f 168 172 169
f 169 172 189
f 170 188 171
f 171 188 189
f 171 189 172
f 178 186 190
f 178 190 179
f 179 190 181
f 181 190 182
f 182 186 183
f 182 190 186
