v 0.000005 0.029513 0.005151
v 0.000381 0.029513 0.005151
v 0.000005 0.029513 0.005147
v 0.000005 0.015466 0.005151
v 0.000381 0.029513 0.005147
v 0.001903 0.028635 0.005151
v 0.000005 0.029373 0.004704
v 0.000005 0.014043 0.003763
v 0.005818 0.014180 0.005151
v 0.000381 0.029373 0.004704
v 0.001944 0.028611 0.004412
v 0.001145 0.029072 0.004412
v 0.004192 0.027313 0.005151
v 0.000005 0.029317 0.004556
v 0.000005 0.013954 0.003676
v 0.005818 0.026373 0.005151
v 0.005818 0.012185 0.002941
v 0.000381 0.029261 0.004412
v 0.005722 0.026429 0.002941
v 0.001908 0.028441 0.003676
v 0.004196 0.027310 0.002941
v 0.005722 0.026429 0.005151
v 0.000005 0.029261 0.004412
v 0.000005 0.013744 0.003305
v 0.005818 0.026373 0.002941
v 0.000005 0.013574 0.002941
v 0.005818 0.012251 0.002848
v 0.001145 0.028484 0.003676
v 0.000381 0.028611 0.003780
v 0.005818 0.026319 0.002206
v 0.001908 0.027847 0.003100
v 0.003433 0.027535 0.002941
v 0.002671 0.027620 0.002941
v 0.005722 0.026370 0.002206
v 0.000005 0.028611 0.003780
v 0.000005 0.015218 0.000736
v 0.005818 0.012568 0.002458
v 0.001145 0.027725 0.002941
v 0.000381 0.024796 0.000077
v 0.000381 0.025559 0.000818
v 0.005818 0.026316 0.002201
v 0.001908 0.025559 0.000884
v 0.001145 0.024796 0.000100
v 0.001145 0.025559 0.000840
v 0.005722 0.026321 0.002153
v 0.004959 0.026531 0.002206
v 0.004196 0.026663 0.002206
v 0.003433 0.025559 0.001038
v 0.002671 0.024796 0.000214
v 0.002671 0.025559 0.000950
v 0.001908 0.024796 0.000145
v 0.000005 0.025559 0.000818
v 0.000005 0.015425 0.000527
v 0.005722 0.014879 0.000037
v 0.005818 0.012780 0.002206
v 0.000005 0.024796 0.000077
v 0.005722 0.024032 0.000000
v 0.005818 0.025922 0.001796
v 0.005818 0.025559 0.001451
v 0.005722 0.025559 0.001430
v 0.004959 0.024796 0.000551
v 0.004959 0.025559 0.001278
v 0.004196 0.024796 0.000416
v 0.004196 0.025559 0.001147
v 0.003433 0.024796 0.000304
v 0.000005 0.015642 0.000317
v 0.000005 0.016404 0.000000
v 0.005818 0.014879 0.000032
v 0.005818 0.014782 0.000121
v 0.000005 0.024032 0.000000
v 0.005818 0.024032 0.000021
v 0.005818 0.023936 0.000000
v 0.005722 0.024796 0.000707
v 0.005818 0.024796 0.000729
v 0.005722 0.024826 0.000736
v 0.003433 0.015642 0.000000
v 0.005818 0.015546 0.000000
v 0.005818 0.024699 0.000639
f 1 2 5
f 1 5 3
f 1 3 7
f 1 7 14
f 1 14 23
f 1 23 35
f 1 35 52
f 1 52 56
f 1 56 70
f 1 70 67
f 1 67 66
f 1 66 53
f 1 53 36
f 1 36 26
f 1 26 24
f 1 24 15
f 1 15 8
f 1 8 4
f 1 4 9
f 1 9 16
f 1 16 22
f 1 22 13
f 1 13 6
f 1 6 2
f 2 6 5
f 3 5 10
f 3 10 7
f 4 8 9
f 5 6 11
f 5 11 12
f 5 12 10
f 6 13 11
f 7 10 14
f 8 15 9
f 9 15 17
f 9 17 27
f 9 27 37
f 9 37 55
f 9 55 69
f 9 69 68
f 9 68 77
f 9 77 72
f 9 72 71
f 9 71 78
f 9 78 74
f 9 74 59
f 9 59 58
f 9 58 41
f 9 41 30
f 9 30 25
f 9 25 16
f 10 12 18
f 10 18 14
f 11 13 19
f 11 19 12
f 12 20 18
f 12 19 21
f 12 21 20
f 13 22 19
f 14 18 23
f 15 24 17
f 16 25 19
f 16 19 22
f 17 24 26
f 17 26 27
f 18 20 28
f 18 28 29
f 18 29 35
f 18 35 23
f 19 25 30
f 19 30 21
f 20 31 28
f 20 21 32
f 20 32 33
f 20 33 31
f 21 30 34
f 21 34 32
f 26 36 27
f 27 36 37
f 28 31 38
f 28 38 39
f 28 39 40
f 28 40 29
f 29 40 52
f 29 52 35
f 30 41 34
f 31 33 42
f 31 42 43
f 31 43 44
f 31 44 38
f 32 34 45
f 32 45 46
f 32 46 47
f 32 47 48
f 32 48 49
f 32 49 50
f 32 50 33
f 33 50 51
f 33 51 42
f 34 41 45
f 36 53 54
f 36 54 55
f 36 55 37
f 38 44 39
f 39 56 52
f 39 52 40
f 39 44 43
f 39 43 57
f 39 57 70
f 39 70 56
f 41 58 45
f 42 51 43
f 43 51 57
f 45 58 59
f 45 59 60
f 45 60 61
f 45 61 62
f 45 62 46
f 46 62 63
f 46 63 64
f 46 64 47
f 47 64 65
f 47 65 48
f 48 65 49
f 49 65 57
f 49 57 51
f 49 51 50
f 53 66 54
f 54 66 67
f 54 67 68
f 54 68 69
f 54 69 55
f 57 71 72
f 57 72 77
f 57 77 76
f 57 76 67
f 57 67 70
f 57 65 63
f 57 63 61
f 57 61 73
f 57 73 71
f 59 74 75
f 59 75 60
f 60 75 61
f 61 63 62
f 61 75 73
f 63 65 64
f 67 76 68
f 68 76 77
f 71 73 78
f 73 74 78
f 73 75 74
