v -0.025750 -0.004035 0.006625
v -0.025750 -0.004035 0.002211
v -0.025750 -0.006734 0.006625
v -0.014789 -0.004035 0.006625
v -0.014940 -0.004035 0.002211
v -0.025750 -0.006735 0.002211
v -0.025750 -0.006737 0.006617
v -0.014096 -0.006737 0.006625
v -0.013907 -0.006737 0.006625
v -0.012331 -0.006737 0.005147
v -0.011822 -0.006737 0.004581
v -0.012810 -0.004035 0.004412
v -0.014892 -0.004035 0.002259
v -0.013786 -0.006737 0.002211
v -0.025698 -0.006737 0.002211
v -0.025750 -0.006737 0.002699
v -0.011687 -0.006737 0.004412
v -0.012880 -0.004035 0.004329
v -0.013500 -0.004035 0.003677
v -0.011691 -0.006737 0.004407
f 1 2 6
f 1 6 16
f 1 16 7
f 1 7 3
f 1 3 8
f 1 8 9
f 1 9 4
f 1 4 12
f 1 12 18
f 1 18 19
f 1 19 13
f 1 13 5
f 1 5 2
f 2 5 14
f 2 14 15
f 2 15 6
f 3 7 8
f 4 9 10
f 4 10 11
f 4 11 12
f 5 13 14
f 6 15 16
f 7 16 15
f 7 15 14
f 7 14 20
f 7 20 17
f 7 17 11
f 7 11 10
f 7 10 9
f 7 9 8
f 11 17 12
f 12 17 18
f 13 19 14
f 14 19 20
f 17 20 18
f 18 20 19
