v 0.025750 0.009106 0.002941
v 0.025750 0.009537 0.002941
v 0.025750 0.009106 0.004412
v 0.025558 0.009106 0.002414
v 0.025705 0.010300 0.002941
v 0.025750 0.011827 0.003676
v 0.025750 0.013353 0.004412
v 0.012352 0.009106 0.004412
v 0.025541 0.009106 0.002371
v 0.025558 0.010300 0.002754
v 0.025558 0.010802 0.002941
v 0.025573 0.012590 0.003676
v 0.025617 0.014115 0.004411
v 0.025750 0.013353 0.004411
v 0.025617 0.014117 0.004412
v 0.009161 0.012070 0.004412
v 0.009161 0.010182 0.002941
v 0.010339 0.009106 0.002941
v 0.025406 0.009106 0.002206
v 0.025250 0.009537 0.002206
v 0.024795 0.009537 0.001793
v 0.024032 0.009537 0.001104
v 0.023624 0.009537 0.000736
v 0.023270 0.009537 0.000416
v 0.024795 0.010300 0.002069
v 0.025448 0.011064 0.002941
v 0.025558 0.012590 0.003661
v 0.025558 0.012624 0.003676
v 0.025558 0.014115 0.004347
v 0.025558 0.014250 0.004411
v 0.025558 0.014252 0.004412
v 0.009161 0.024445 0.004412
v 0.009161 0.010332 0.002328
v 0.010309 0.009106 0.002206
v 0.010329 0.009106 0.002862
v 0.024755 0.009106 0.001612
v 0.023969 0.009106 0.000896
v 0.023270 0.009106 0.000263
v 0.022507 0.010300 0.000032
v 0.023270 0.010300 0.000707
v 0.024128 0.010300 0.001471
v 0.025102 0.011827 0.002941
v 0.024795 0.011064 0.002361
v 0.024795 0.012590 0.002999
v 0.024795 0.011827 0.002672
v 0.023270 0.011064 0.001016
v 0.022507 0.011064 0.000349
v 0.023270 0.011827 0.001343
v 0.025185 0.013353 0.003676
v 0.024795 0.014115 0.003701
v 0.024795 0.013353 0.003342
v 0.023270 0.012590 0.001687
v 0.022507 0.012590 0.001038
v 0.025199 0.014878 0.004412
v 0.009161 0.024445 0.001834
v 0.024032 0.015860 0.004412
v 0.009161 0.010374 0.002206
v 0.009161 0.012967 0.000115
v 0.013020 0.009106 0.000074
v 0.022937 0.009106 0.000082
v 0.022507 0.009537 0.000000
v 0.021744 0.011827 0.000032
v 0.024032 0.011064 0.001687
v 0.024620 0.011064 0.002206
v 0.024729 0.012590 0.002941
v 0.022507 0.011827 0.000685
v 0.024032 0.012590 0.002340
v 0.023876 0.012590 0.002206
v 0.024766 0.014115 0.003676
v 0.023270 0.013353 0.002047
v 0.021744 0.012590 0.000394
v 0.024795 0.015306 0.004412
v 0.024032 0.014115 0.003059
v 0.023891 0.014115 0.002941
v 0.024795 0.014878 0.004075
v 0.024032 0.015328 0.003676
v 0.023830 0.015641 0.003676
v 0.021765 0.017166 0.002941
v 0.011065 0.023346 0.001471
v 0.009874 0.024032 0.001471
v 0.009538 0.024226 0.001471
v 0.009161 0.024435 0.001471
v 0.024409 0.015641 0.004412
v 0.024409 0.015641 0.004411
v 0.023087 0.016405 0.003676
v 0.015160 0.020981 0.001471
v 0.009161 0.013353 0.000000
v 0.013353 0.009106 0.000000
v 0.022507 0.009106 0.000000
v 0.021744 0.011064 0.000000
v 0.020980 0.013353 0.000146
v 0.020217 0.014115 0.000000
v 0.021698 0.013353 0.000736
v 0.022507 0.013353 0.001408
v 0.024032 0.014878 0.003442
v 0.023270 0.014115 0.002424
v 0.023270 0.014878 0.002815
v 0.023270 0.015115 0.002941
v 0.022507 0.014878 0.002195
v 0.023270 0.015641 0.003221
v 0.022507 0.016229 0.002941
v 0.022380 0.016405 0.002941
v 0.020980 0.016979 0.002206
v 0.020828 0.017166 0.002206
v 0.020217 0.017881 0.002206
v 0.020175 0.017929 0.002206
v 0.017596 0.019454 0.001471
v 0.016482 0.020217 0.001471
v 0.013353 0.021744 0.000811
v 0.011065 0.023270 0.001292
v 0.012589 0.022148 0.000736
v 0.009538 0.024032 0.001187
v 0.009161 0.024032 0.001016
v 0.011937 0.022507 0.000736
v 0.011826 0.022565 0.000736
v 0.011065 0.022948 0.000736
v 0.009161 0.022507 0.000000
v 0.020980 0.014115 0.000551
v 0.021744 0.014115 0.001169
v 0.022507 0.014115 0.001793
v 0.020217 0.014878 0.000371
v 0.019456 0.014878 0.000000
v 0.017929 0.017166 0.000100
v 0.018692 0.016405 0.000146
v 0.019456 0.015641 0.000236
v 0.022507 0.014899 0.002206
v 0.021744 0.014878 0.001580
v 0.022507 0.015641 0.002610
v 0.021997 0.015641 0.002206
v 0.021744 0.015641 0.002006
v 0.021062 0.015641 0.001471
v 0.021744 0.016405 0.002444
v 0.020980 0.016405 0.001857
v 0.020472 0.016405 0.001471
v 0.020217 0.016405 0.001278
v 0.019456 0.016405 0.000707
v 0.020217 0.017166 0.001751
v 0.019456 0.017166 0.001191
v 0.019456 0.017597 0.001471
v 0.019456 0.017929 0.001687
v 0.018692 0.018405 0.001471
v 0.018405 0.018692 0.001471
v 0.017929 0.019150 0.001471
v 0.017167 0.018692 0.000640
v 0.017167 0.019454 0.001191
v 0.015641 0.020111 0.000736
v 0.015641 0.020217 0.000827
v 0.014879 0.020680 0.000736
v 0.014451 0.020981 0.000736
v 0.016404 0.020217 0.001406
v 0.014116 0.021208 0.000736
v 0.013353 0.021698 0.000736
v 0.013276 0.021744 0.000736
v 0.012589 0.021744 0.000394
v 0.011826 0.021744 0.000032
v 0.010371 0.023270 0.000736
v 0.010301 0.023301 0.000736
v 0.009538 0.023624 0.000736
v 0.009161 0.023827 0.000787
v 0.011826 0.022507 0.000685
v 0.011065 0.022507 0.000349
v 0.010301 0.022507 0.000032
v 0.009161 0.022884 0.000072
v 0.009538 0.022507 0.000000
v 0.020980 0.014450 0.000736
v 0.021607 0.014878 0.001471
v 0.020217 0.015501 0.000736
v 0.020980 0.014878 0.000972
v 0.017929 0.016405 0.000000
v 0.017167 0.017929 0.000100
v 0.018692 0.017929 0.001147
v 0.018692 0.017166 0.000640
v 0.017929 0.017929 0.000618
v 0.019456 0.016450 0.000736
v 0.020110 0.015641 0.000736
v 0.020217 0.015641 0.000818
v 0.017929 0.018099 0.000736
v 0.017929 0.018692 0.001147
v 0.016404 0.018692 0.000146
v 0.016450 0.019454 0.000736
v 0.016404 0.019493 0.000736
v 0.015641 0.019454 0.000236
v 0.014879 0.020217 0.000371
v 0.015501 0.020217 0.000736
v 0.014116 0.020981 0.000551
v 0.013353 0.020981 0.000146
v 0.014116 0.020217 0.000000
v 0.012589 0.020981 0.000000
v 0.010301 0.023270 0.000707
v 0.009538 0.023270 0.000416
v 0.009161 0.023270 0.000282
v 0.009161 0.023448 0.000444
v 0.011065 0.021744 0.000000
v 0.014879 0.019454 0.000000
f 1 2 6
f 1 6 14
f 1 14 7
f 1 7 3
f 1 3 8
f 1 8 18
f 1 18 35
f 1 35 34
f 1 34 59
f 1 59 88
f 1 88 89
f 1 89 60
f 1 60 38
f 1 38 37
f 1 37 36
f 1 36 19
f 1 19 9
f 1 9 4
f 1 4 2
f 2 5 6
f 2 4 5
f 3 7 15
f 3 15 31
f 3 31 54
f 3 54 72
f 3 72 83
f 3 83 56
f 3 56 32
f 3 32 16
f 3 16 8
f 4 9 5
f 5 9 10
f 5 10 11
f 5 11 12
f 5 12 6
f 6 12 13
f 6 13 14
f 7 14 15
f 8 16 17
f 8 17 18
f 9 19 10
f 10 19 20
f 10 20 21
f 10 21 22
f 10 22 23
f 10 23 24
f 10 24 25
f 10 25 11
f 11 25 26
f 11 26 27
f 11 27 12
f 12 27 28
f 12 28 29
f 12 29 13
f 13 29 30
f 13 30 31
f 13 31 15
f 13 15 14
f 16 32 55
f 16 55 82
f 16 82 113
f 16 113 159
f 16 159 192
f 16 192 191
f 16 191 163
f 16 163 117
f 16 117 87
f 16 87 58
f 16 58 57
f 16 57 33
f 16 33 17
f 17 33 34
f 17 34 35
f 17 35 18
f 19 36 20
f 20 36 37
f 20 37 21
f 21 37 38
f 21 38 22
f 22 38 23
f 23 38 24
f 24 38 39
f 24 39 40
f 24 40 41
f 24 41 25
f 25 41 26
f 26 42 27
f 26 41 40
f 26 40 43
f 26 43 42
f 27 44 28
f 27 42 45
f 27 45 46
f 27 46 47
f 27 47 48
f 27 48 44
f 28 44 49
f 28 49 29
f 29 50 30
f 29 49 51
f 29 51 52
f 29 52 53
f 29 53 50
f 30 50 54
f 30 54 31
f 32 56 55
f 33 57 34
f 34 57 58
f 34 58 59
f 38 60 39
f 39 60 61
f 39 61 90
f 39 90 62
f 39 62 47
f 39 47 46
f 39 46 63
f 39 63 64
f 39 64 43
f 39 43 40
f 42 43 64
f 42 64 63
f 42 63 46
f 42 46 45
f 44 65 49
f 44 48 65
f 47 62 66
f 47 66 48
f 48 66 65
f 49 65 67
f 49 67 68
f 49 68 51
f 50 69 54
f 50 53 70
f 50 70 69
f 51 68 52
f 52 68 66
f 52 66 62
f 52 62 53
f 53 62 71
f 53 71 70
f 54 69 70
f 54 70 73
f 54 73 74
f 54 74 75
f 54 75 76
f 54 76 77
f 54 77 78
f 54 78 72
f 55 56 79
f 55 79 80
f 55 80 81
f 55 81 82
f 56 83 84
f 56 84 85
f 56 85 86
f 56 86 79
f 58 87 59
f 59 87 88
f 60 89 61
f 61 89 88
f 61 88 87
f 61 87 117
f 61 117 164
f 61 164 193
f 61 193 188
f 61 188 187
f 61 187 194
f 61 194 169
f 61 169 122
f 61 122 92
f 61 92 90
f 62 91 71
f 62 90 92
f 62 92 91
f 65 66 67
f 66 68 67
f 70 71 73
f 71 91 93
f 71 93 94
f 71 94 74
f 71 74 73
f 72 84 83
f 72 78 85
f 72 85 84
f 74 94 75
f 75 95 76
f 75 94 96
f 75 96 95
f 76 95 97
f 76 97 77
f 77 97 98
f 77 98 99
f 77 99 100
f 77 100 101
f 77 101 102
f 77 102 78
f 78 102 103
f 78 103 104
f 78 104 105
f 78 105 106
f 78 106 107
f 78 107 108
f 78 108 85
f 79 109 110
f 79 110 80
f 79 86 109
f 80 110 81
f 81 110 109
f 81 109 111
f 81 111 82
f 82 112 113
f 82 111 114
f 82 114 115
f 82 115 116
f 82 116 112
f 85 108 86
f 86 108 109
f 91 118 119
f 91 119 97
f 91 97 120
f 91 120 93
f 91 92 121
f 91 121 118
f 92 122 170
f 92 170 123
f 92 123 124
f 92 124 125
f 92 125 121
f 93 120 95
f 93 95 96
f 93 96 94
f 95 120 97
f 97 119 98
f 98 119 99
f 99 119 126
f 99 126 100
f 100 126 118
f 100 118 127
f 100 127 128
f 100 128 101
f 101 128 129
f 101 129 130
f 101 130 102
f 102 130 121
f 102 121 131
f 102 131 132
f 102 132 103
f 103 133 134
f 103 134 135
f 103 135 104
f 103 132 133
f 104 135 136
f 104 136 137
f 104 137 105
f 105 137 138
f 105 138 106
f 106 138 139
f 106 139 140
f 106 140 141
f 106 141 142
f 106 142 143
f 106 143 107
f 107 143 144
f 107 144 145
f 107 145 146
f 107 146 147
f 107 147 148
f 107 148 149
f 107 149 150
f 107 150 108
f 108 150 151
f 108 151 152
f 108 152 109
f 109 152 153
f 109 153 111
f 111 153 154
f 111 154 155
f 111 155 114
f 112 156 157
f 112 157 158
f 112 158 159
f 112 159 113
f 112 116 156
f 114 155 160
f 114 160 115
f 115 160 161
f 115 161 116
f 116 161 162
f 116 162 156
f 117 163 164
f 118 121 165
f 118 165 166
f 118 166 127
f 118 126 119
f 121 125 167
f 121 167 132
f 121 132 131
f 121 130 168
f 121 168 165
f 122 169 170
f 123 171 140
f 123 140 172
f 123 172 124
f 123 170 173
f 123 173 171
f 124 172 139
f 124 139 138
f 124 138 174
f 124 174 136
f 124 136 125
f 125 136 135
f 125 135 134
f 125 134 133
f 125 133 175
f 125 175 167
f 127 166 128
f 128 166 168
f 128 168 129
f 129 168 130
f 132 167 176
f 132 176 133
f 133 176 175
f 136 174 137
f 137 174 138
f 139 172 140
f 140 171 141
f 141 171 173
f 141 173 142
f 142 173 177
f 142 177 170
f 142 170 178
f 142 178 143
f 143 178 170
f 143 170 144
f 144 170 179
f 144 179 145
f 145 179 180
f 145 180 181
f 145 181 146
f 146 182 183
f 146 183 184
f 146 184 147
f 146 181 182
f 147 184 148
f 148 183 149
f 148 184 183
f 149 183 185
f 149 185 151
f 149 151 150
f 151 185 186
f 151 186 152
f 152 186 153
f 153 186 154
f 154 186 155
f 155 161 160
f 155 186 187
f 155 187 188
f 155 188 193
f 155 193 162
f 155 162 161
f 156 162 189
f 156 189 157
f 157 189 158
f 158 189 190
f 158 190 191
f 158 191 192
f 158 192 159
f 162 164 163
f 162 163 191
f 162 191 190
f 162 190 189
f 162 193 164
f 165 168 166
f 167 175 176
f 169 194 170
f 170 177 173
f 170 194 187
f 170 187 179
f 179 182 181
f 179 181 180
f 179 187 182
f 182 187 183
f 183 187 186
f 183 186 185
