v 0.000005 -0.015030 0.016036
v 0.005328 -0.014228 0.016036
v 0.005328 -0.014126 0.015442
v 0.000005 -0.015138 0.015805
v 0.000005 -0.029513 0.016036
v 0.005328 -0.026656 0.016036
v 0.000005 -0.015342 0.015442
v 0.005328 -0.026657 0.015442
v 0.000005 -0.029513 0.015442
v 0.000382 -0.029513 0.016036
v 0.005030 -0.026829 0.016036
v 0.004587 -0.027085 0.016036
v 0.001944 -0.028611 0.016036
v 0.001944 -0.028611 0.015442
v 0.000381 -0.029513 0.015442
f 1 2 3
f 1 3 4
f 1 4 7
f 1 7 9
f 1 9 5
f 1 5 10
f 1 10 13
f 1 13 12
f 1 12 11
f 1 11 6
f 1 6 2
f 2 6 8
f 2 8 3
f 3 7 4
f 3 8 14
f 3 14 15
f 3 15 9
f 3 9 7
f 5 9 15
f 5 15 10
f 6 11 8
f 8 11 12
f 8 12 13
f 8 13 10
f 8 10 14
f 10 15 14
