v 0.000005 -0.014143 0.024265
v 0.000005 -0.014514 0.024636
v 0.001144 -0.014116 0.025000
v 0.004959 -0.013352 0.025000
v 0.005328 -0.013100 0.024265
v 0.005328 -0.013152 0.024213
v 0.005328 -0.013352 0.024012
v 0.005328 -0.013842 0.023524
v 0.000005 -0.014896 0.023524
v 0.000005 -0.014879 0.025000
v 0.005328 -0.013352 0.025000
v 0.005328 -0.026656 0.023524
v 0.000005 -0.029181 0.023524
v 0.000005 -0.029374 0.025000
v 0.005328 -0.026321 0.025000
v 0.005328 -0.026656 0.024265
v 0.004959 -0.026870 0.023524
v 0.000007 -0.029513 0.023524
v 0.000005 -0.029513 0.023529
v 0.000005 -0.029444 0.024628
v 0.000382 -0.029374 0.025000
v 0.004196 -0.027084 0.025000
v 0.001907 -0.028610 0.025000
v 0.004959 -0.026870 0.024265
v 0.000382 -0.029513 0.023524
v 0.000005 -0.029513 0.024265
v 0.000382 -0.029513 0.024265
f 1 2 3
f 1 3 4
f 1 4 5
f 1 5 6
f 1 6 7
f 1 7 8
f 1 8 9
f 1 9 13
f 1 13 19
f 1 19 26
f 1 26 20
f 1 20 14
f 1 14 10
f 1 10 2
f 2 10 3
f 3 10 14
f 3 14 21
f 3 21 23
f 3 23 22
f 3 22 15
f 3 15 11
f 3 11 4
f 4 11 5
f 5 11 15
f 5 15 16
f 5 16 12
f 5 12 8
f 5 8 7
f 5 7 6
f 8 12 17
f 8 17 25
f 8 25 18
f 8 18 13
f 8 13 9
f 12 16 24
f 12 24 17
f 13 18 19
f 14 20 21
f 15 22 16
f 16 22 23
f 16 23 24
f 17 24 27
f 17 27 25
f 18 25 27
f 18 27 26
f 18 26 19
f 20 26 27
f 20 27 21
f 21 27 23
f 23 27 24
