v -0.008214 -0.024991 0.006622
v -0.008214 -0.024991 0.007341
v -0.008775 -0.024668 0.006622
v -0.008214 -0.012819 0.006622
v -0.008214 -0.012647 0.007341
v -0.008775 -0.024668 0.007341
v -0.009877 -0.024032 0.006622
v -0.012514 -0.009106 0.006622
v -0.012406 -0.009106 0.006711
v -0.012049 -0.009106 0.007033
v -0.011901 -0.009106 0.007174
v -0.011738 -0.009106 0.007341
v -0.010294 -0.023791 0.007341
v -0.023088 -0.016405 0.007341
v -0.024801 -0.015416 0.006622
v -0.025750 -0.009106 0.006622
v -0.025750 -0.009106 0.007341
v -0.025546 -0.014985 0.007341
v -0.025558 -0.014977 0.006622
v -0.025750 -0.014116 0.006622
v -0.025750 -0.014116 0.007341
v -0.025559 -0.014976 0.007341
v -0.025657 -0.014878 0.006622
v -0.025659 -0.014873 0.006622
v -0.025657 -0.014878 0.007341
f 1 2 6
f 1 6 3
f 1 3 7
f 1 7 15
f 1 15 19
f 1 19 23
f 1 23 24
f 1 24 20
f 1 20 16
f 1 16 8
f 1 8 4
f 1 4 5
f 1 5 2
f 2 5 12
f 2 12 17
f 2 17 21
f 2 21 25
f 2 25 22
f 2 22 18
f 2 18 14
f 2 14 13
f 2 13 6
f 3 6 7
f 4 8 9
f 4 9 10
f 4 10 11
f 4 11 12
f 4 12 5
f 6 13 7
f 7 13 14
f 7 14 15
f 8 16 17
f 8 17 12
f 8 12 11
f 8 11 10
f 8 10 9
f 14 18 15
f 15 18 19
f 16 20 21
f 16 21 17
f 18 22 19
f 19 22 23
f 20 24 21
f 21 24 25
f 22 25 23
f 23 25 24
