v -0.025749 -0.004035 0.014712
v -0.025749 -0.006734 0.014712
v -0.014938 -0.004035 0.014712
v -0.025749 -0.004035 0.011030
v -0.025749 -0.006737 0.014706
v -0.013925 -0.006737 0.014712
v -0.013785 -0.006737 0.014712
v -0.012037 -0.006737 0.013235
v -0.013352 -0.004035 0.013239
v -0.025631 -0.004035 0.011022
v -0.025749 -0.004036 0.011022
v -0.025749 -0.006737 0.011022
v -0.011980 -0.006737 0.012818
v -0.012980 -0.004035 0.012500
v -0.013256 -0.004035 0.013079
v -0.013305 -0.004035 0.013164
v -0.013348 -0.004035 0.013235
v -0.014539 -0.004035 0.011022
v -0.013736 -0.006737 0.011022
v -0.011969 -0.006737 0.012500
v -0.013028 -0.004035 0.012454
v -0.013641 -0.006734 0.011022
v -0.013641 -0.006737 0.011030
f 1 2 6
f 1 6 7
f 1 7 3
f 1 3 9
f 1 9 17
f 1 17 16
f 1 16 15
f 1 15 14
f 1 14 21
f 1 21 18
f 1 18 10
f 1 10 4
f 1 4 11
f 1 11 12
f 1 12 5
f 1 5 2
f 2 5 6
f 3 7 8
f 3 8 9
f 4 10 11
f 5 12 19
f 5 19 23
f 5 23 20
f 5 20 13
f 5 13 8
f 5 8 7
f 5 7 6
f 8 13 14
f 8 14 15
f 8 15 16
f 8 16 17
f 8 17 9
f 10 18 22
f 10 22 19
f 10 19 12
f 10 12 11
f 13 20 14
f 14 20 21
f 18 21 20
f 18 20 22
f 19 22 23
f 20 23 22
