v -0.008602 0.024766 0.005147
v -0.008551 0.024795 0.005147
v -0.008602 0.024766 0.002206
v -0.008602 0.024221 0.005147
v -0.008011 0.025108 0.005147
v -0.008551 0.024795 0.002206
v -0.008602 0.024761 0.002040
v -0.004548 0.026448 0.005147
v -0.004548 0.027108 0.005147
v -0.006485 0.025989 0.005147
v -0.008602 0.013029 0.005147
v -0.008011 0.025108 0.002206
v -0.008601 0.024719 0.001472
v -0.008602 0.024532 0.001472
v -0.006485 0.025989 0.002206
v -0.004548 0.025735 0.005147
v -0.004548 0.027108 0.002941
v -0.008602 0.012353 0.005147
v -0.004548 0.014568 0.005147
v -0.008012 0.024981 0.001472
v -0.005722 0.026371 0.002206
v -0.008602 0.012883 0.001472
v -0.004548 0.026603 0.002206
v -0.004959 0.026531 0.002206
v -0.008602 0.010473 0.003745
v -0.008602 0.010403 0.003693
v -0.008602 0.010381 0.003676
v -0.004548 0.014427 0.005021
v -0.007249 0.025213 0.001472
v -0.005722 0.026322 0.002153
v -0.004548 0.014603 0.001472
v -0.008602 0.011236 0.002814
v -0.004548 0.026092 0.001717
v -0.004959 0.026322 0.002005
v -0.004548 0.012945 0.003676
v -0.008602 0.011080 0.002941
v -0.004548 0.013032 0.002941
v -0.004548 0.012970 0.003281
v -0.006485 0.025421 0.001472
v -0.004959 0.025762 0.001472
v -0.005722 0.025603 0.001472
v -0.005906 0.025560 0.001472
v -0.004548 0.013148 0.002832
v -0.004548 0.025835 0.001472
f 1 2 6
f 1 6 3
f 1 3 7
f 1 7 14
f 1 14 22
f 1 22 32
f 1 32 36
f 1 36 27
f 1 27 26
f 1 26 25
f 1 25 18
f 1 18 11
f 1 11 4
f 1 4 2
f 2 5 12
f 2 12 6
f 2 4 5
f 3 6 7
f 4 8 9
f 4 9 10
f 4 10 5
f 4 11 16
f 4 16 8
f 5 10 15
f 5 15 12
f 6 12 7
f 7 13 14
f 7 12 15
f 7 15 13
f 8 16 19
f 8 19 28
f 8 28 35
f 8 35 38
f 8 38 37
f 8 37 43
f 8 43 31
f 8 31 44
f 8 44 33
f 8 33 23
f 8 23 17
f 8 17 9
f 9 17 15
f 9 15 10
f 11 18 19
f 11 19 16
f 13 20 29
f 13 29 39
f 13 39 42
f 13 42 41
f 13 41 40
f 13 40 44
f 13 44 31
f 13 31 22
f 13 22 14
f 13 15 21
f 13 21 20
f 15 17 21
f 17 23 24
f 17 24 21
f 18 25 19
f 19 25 26
f 19 26 27
f 19 27 28
f 20 21 30
f 20 30 29
f 21 24 30
f 22 31 32
f 23 33 34
f 23 34 24
f 24 34 30
f 27 35 28
f 27 36 37
f 27 37 38
f 27 38 35
f 29 30 39
f 30 34 40
f 30 40 41
f 30 41 42
f 30 42 39
f 31 43 36
f 31 36 32
f 33 44 34
f 34 44 40
f 36 43 37
