v -0.008602 0.012355 0.017651
v -0.004551 0.014566 0.017651
v -0.004548 0.012769 0.019853
v -0.008602 0.010768 0.019853
v -0.008602 0.024693 0.017651
v -0.004548 0.014571 0.017651
v -0.004548 0.012956 0.020192
v -0.008602 0.010717 0.020588
v -0.008602 0.024767 0.018217
v -0.008601 0.024767 0.017651
v -0.004548 0.027108 0.017651
v -0.004548 0.013213 0.020582
v -0.004548 0.013218 0.020588
v -0.004548 0.014691 0.022197
v -0.008602 0.012589 0.022197
v -0.008602 0.024767 0.022197
v -0.006485 0.025989 0.017651
v -0.006377 0.026052 0.022197
v -0.004548 0.027108 0.022197
f 1 2 3
f 1 3 4
f 1 4 8
f 1 8 15
f 1 15 16
f 1 16 9
f 1 9 5
f 1 5 10
f 1 10 17
f 1 17 11
f 1 11 6
f 1 6 2
f 2 6 3
f 3 7 8
f 3 8 4
f 3 6 11
f 3 11 19
f 3 19 14
f 3 14 13
f 3 13 12
f 3 12 7
f 5 9 10
f 7 12 8
f 8 12 13
f 8 13 14
f 8 14 15
f 9 16 18
f 9 18 17
f 9 17 10
f 11 17 18
f 11 18 19
f 14 19 15
f 15 19 18
f 15 18 16
