v -0.025750 -0.004035 0.019118
v -0.025750 -0.006737 0.019118
v -0.014795 -0.004035 0.019118
v -0.025750 -0.004035 0.018538
v -0.025750 -0.006737 0.015199
v -0.013921 -0.006737 0.019118
v -0.013916 -0.006736 0.019118
v -0.012331 -0.006737 0.017647
v -0.011822 -0.006737 0.017081
v -0.012810 -0.004035 0.016912
v -0.025750 -0.004035 0.014712
v -0.025750 -0.006734 0.014712
v -0.013925 -0.006737 0.014712
v -0.011687 -0.006737 0.016912
v -0.012880 -0.004035 0.016830
v -0.014939 -0.004035 0.014712
v -0.013785 -0.006737 0.014712
v -0.011691 -0.006737 0.016907
v -0.013500 -0.004035 0.016177
v -0.014892 -0.004035 0.014759
f 1 2 6
f 1 6 7
f 1 7 3
f 1 3 4
f 1 4 11
f 1 11 12
f 1 12 5
f 1 5 2
f 2 5 13
f 2 13 17
f 2 17 18
f 2 18 14
f 2 14 9
f 2 9 8
f 2 8 6
f 3 7 8
f 3 8 9
f 3 9 10
f 3 10 15
f 3 15 19
f 3 19 20
f 3 20 16
f 3 16 11
f 3 11 4
f 5 12 13
f 6 8 7
f 9 14 10
f 10 14 15
f 11 16 17
f 11 17 13
f 11 13 12
f 14 18 15
f 15 18 19
f 16 20 17
f 17 20 19
f 17 19 18
