v 0.000005 -0.013449 0.005147
v 0.000005 -0.014080 0.005882
v 0.005328 -0.012739 0.005882
v 0.005328 -0.012676 0.005545
v 0.005328 -0.012643 0.005147
v 0.005328 -0.014219 0.003456
v 0.000005 -0.015067 0.003456
v 0.000005 -0.015467 0.007355
v 0.005328 -0.012939 0.006061
v 0.005328 -0.026657 0.003456
v 0.000005 -0.028276 0.003456
v 0.005328 -0.014395 0.007355
v 0.000005 -0.029513 0.007355
v 0.005328 -0.026657 0.007353
v 0.005188 -0.026737 0.003456
v 0.000382 -0.028276 0.003456
v 0.000005 -0.029261 0.004412
v 0.005328 -0.014480 0.007355
v 0.000005 -0.029513 0.005147
v 0.000379 -0.029513 0.007355
v 0.005327 -0.026657 0.007355
v 0.004193 -0.027312 0.007355
v 0.000382 -0.029513 0.005147
v 0.004196 -0.027310 0.003456
v 0.001144 -0.028255 0.003456
v 0.001144 -0.028483 0.003676
v 0.000382 -0.029261 0.004412
v 0.000005 -0.029373 0.004704
v 0.000382 -0.029513 0.007353
v 0.000382 -0.029512 0.007355
v 0.002672 -0.028191 0.007355
v 0.000382 -0.029373 0.004704
v 0.001144 -0.029072 0.004412
v 0.003662 -0.027618 0.003456
v 0.002670 -0.028191 0.003676
v 0.001907 -0.028214 0.003456
v 0.001907 -0.028442 0.003676
v 0.002670 -0.028032 0.003456
v 0.002260 -0.028167 0.003456
f 1 2 3
f 1 3 4
f 1 4 5
f 1 5 6
f 1 6 7
f 1 7 11
f 1 11 17
f 1 17 28
f 1 28 19
f 1 19 13
f 1 13 8
f 1 8 2
f 2 8 3
f 3 9 12
f 3 12 18
f 3 18 14
f 3 14 10
f 3 10 6
f 3 6 5
f 3 5 4
f 3 8 9
f 6 10 15
f 6 15 24
f 6 24 34
f 6 34 38
f 6 38 39
f 6 39 36
f 6 36 25
f 6 25 16
f 6 16 11
f 6 11 7
f 8 12 9
f 8 13 20
f 8 20 30
f 8 30 31
f 8 31 22
f 8 22 21
f 8 21 18
f 8 18 12
f 10 14 15
f 11 16 27
f 11 27 17
f 13 19 23
f 13 23 29
f 13 29 20
f 14 18 21
f 14 21 22
f 14 22 15
f 15 22 23
f 15 23 24
f 16 25 26
f 16 26 27
f 17 27 32
f 17 32 28
f 19 28 32
f 19 32 23
f 20 29 30
f 22 31 29
f 22 29 23
f 23 32 33
f 23 33 24
f 24 33 35
f 24 35 34
f 25 36 37
f 25 37 26
f 26 37 27
f 27 33 32
f 27 37 33
f 29 31 30
f 33 37 35
f 34 35 38
f 35 37 39
f 35 39 38
f 36 39 37
