v -0.004923 -0.012655 0.017647
v 0.000004 -0.013449 0.017647
v -0.004923 -0.013043 0.016947
v -0.004923 -0.014429 0.019854
v -0.004923 -0.013066 0.016912
v 0.000004 -0.014079 0.018382
v 0.000004 -0.015337 0.015436
v -0.004923 -0.026891 0.019854
v 0.000004 -0.015467 0.019854
v -0.004923 -0.014697 0.015436
v 0.000004 -0.029512 0.015436
v -0.004923 -0.026891 0.015441
v -0.001908 -0.028632 0.015436
v -0.001145 -0.029073 0.019853
v -0.001908 -0.028632 0.019854
v 0.000004 -0.029142 0.019854
v -0.004923 -0.015611 0.015436
v 0.000004 -0.029512 0.019853
v -0.000384 -0.029512 0.015436
v -0.004920 -0.026891 0.015436
v -0.004587 -0.027084 0.015436
v -0.004191 -0.027314 0.015436
v -0.001145 -0.029073 0.015436
v -0.000624 -0.029373 0.019854
v 0.000003 -0.029512 0.019854
v -0.000382 -0.029512 0.019854
f 1 2 3
f 1 3 5
f 1 5 10
f 1 10 17
f 1 17 12
f 1 12 8
f 1 8 4
f 1 4 2
f 2 5 3
f 2 4 6
f 2 6 9
f 2 9 16
f 2 16 18
f 2 18 11
f 2 11 7
f 2 7 5
f 4 8 15
f 4 15 24
f 4 24 26
f 4 26 25
f 4 25 16
f 4 16 9
f 4 9 6
f 5 7 10
f 7 11 19
f 7 19 23
f 7 23 13
f 7 13 22
f 7 22 21
f 7 21 20
f 7 20 17
f 7 17 10
f 8 12 13
f 8 13 14
f 8 14 15
f 11 18 25
f 11 25 26
f 11 26 19
f 12 17 20
f 12 20 21
f 12 21 22
f 12 22 13
f 13 23 14
f 14 23 19
f 14 19 24
f 14 24 15
f 16 25 18
f 19 26 24
