v -0.014868 0.001934 0.001470
v -0.014885 0.001934 0.001512
v -0.014871 0.001934 0.001458
v -0.013754 0.006486 0.000737
v -0.013641 0.006486 0.002207
v -0.015199 0.001934 0.002207
v -0.015084 0.001934 0.000735
v -0.013755 0.006485 0.000735
v -0.014117 0.006486 0.000418
v -0.025750 0.006486 0.002207
v -0.025723 0.001934 0.002207
v -0.015107 0.001934 0.000714
v -0.014116 0.006485 0.000419
v -0.015641 0.001934 0.000199
v -0.014879 0.005722 0.000024
v -0.014879 0.006485 0.000000
v -0.014880 0.006486 0.000000
v -0.025559 0.006486 0.001716
v -0.025750 0.006485 0.002206
v -0.025750 0.001935 0.002207
v -0.025750 0.001934 0.002206
v -0.015641 0.002671 0.000095
v -0.016405 0.001934 0.000000
v -0.015641 0.003434 0.000000
v -0.022508 0.006486 0.000000
v -0.025419 0.006486 0.001470
v -0.025559 0.006485 0.001715
v -0.025750 0.004197 0.001470
v -0.025597 0.005722 0.001470
v -0.025710 0.004959 0.001470
v -0.025750 0.001934 0.001470
v -0.024032 0.001934 0.000000
v -0.023270 0.006485 0.000000
v -0.023271 0.006486 0.000001
v -0.024797 0.006486 0.000885
v -0.024796 0.005722 0.000707
v -0.025559 0.005906 0.001470
v -0.025403 0.001934 0.000735
v -0.025559 0.001934 0.001004
v -0.025565 0.001934 0.001017
v -0.025559 0.005722 0.001429
v -0.025559 0.004959 0.001278
v -0.025559 0.004197 0.001185
v -0.024796 0.001934 0.000148
v -0.024032 0.005722 0.000000
v -0.024032 0.006485 0.000168
v -0.024034 0.006486 0.000169
v -0.024796 0.004959 0.000551
v -0.025336 0.002671 0.000735
v -0.024796 0.004197 0.000417
v -0.025129 0.004197 0.000735
v -0.025244 0.003434 0.000735
v -0.024796 0.002671 0.000213
v -0.024796 0.003434 0.000304
f 1 2 6
f 1 6 11
f 1 11 21
f 1 21 31
f 1 31 40
f 1 40 39
f 1 39 38
f 1 38 44
f 1 44 32
f 1 32 23
f 1 23 14
f 1 14 12
f 1 12 7
f 1 7 3
f 1 3 4
f 1 4 5
f 1 5 2
f 2 5 6
f 3 7 4
f 4 8 9
f 4 9 17
f 4 17 25
f 4 25 34
f 4 34 47
f 4 47 35
f 4 35 26
f 4 26 18
f 4 18 10
f 4 10 5
f 4 7 8
f 5 10 20
f 5 20 11
f 5 11 6
f 7 12 8
f 8 13 9
f 8 12 14
f 8 14 13
f 9 13 15
f 9 15 16
f 9 16 17
f 10 18 19
f 10 19 28
f 10 28 31
f 10 31 21
f 10 21 20
f 11 20 21
f 13 14 15
f 14 22 15
f 14 23 22
f 15 22 24
f 15 24 16
f 16 24 23
f 16 23 32
f 16 32 45
f 16 45 33
f 16 33 25
f 16 25 17
f 18 26 27
f 18 27 19
f 19 27 29
f 19 29 30
f 19 30 28
f 22 23 24
f 25 33 34
f 26 35 36
f 26 36 37
f 26 37 27
f 27 37 29
f 28 30 38
f 28 38 39
f 28 39 40
f 28 40 31
f 29 37 41
f 29 41 42
f 29 42 30
f 30 42 43
f 30 43 38
f 32 44 45
f 33 45 46
f 33 46 34
f 34 46 47
f 35 47 36
f 36 48 41
f 36 41 37
f 36 47 45
f 36 45 48
f 38 49 44
f 38 43 49
f 41 48 42
f 42 48 50
f 42 50 51
f 42 51 52
f 42 52 49
f 42 49 43
f 44 49 53
f 44 53 45
f 45 47 46
f 45 53 54
f 45 54 50
f 45 50 48
f 49 52 53
f 50 54 51
f 51 54 52
f 52 54 53
