v 0.000005 -0.013575 0.022058
v 0.005328 -0.012549 0.022275
v 0.005328 -0.012373 0.022058
v 0.000005 -0.013954 0.021324
v 0.000005 -0.014897 0.023524
v 0.005328 -0.013018 0.022794
v 0.005328 -0.014395 0.019857
v 0.000005 -0.014043 0.021237
v 0.005328 -0.013841 0.023524
v 0.005328 -0.013692 0.023393
v 0.000005 -0.029181 0.023524
v 0.000005 -0.015465 0.019857
v 0.000005 -0.015185 0.020128
v 0.000005 -0.014425 0.020865
v 0.005328 -0.026653 0.019857
v 0.005328 -0.026656 0.023524
v 0.000005 -0.029513 0.023157
v 0.000007 -0.029513 0.023524
v 0.000005 -0.029513 0.019857
v 0.005328 -0.026656 0.020233
v 0.005326 -0.026658 0.019857
v 0.004196 -0.027310 0.023524
v 0.000382 -0.029513 0.023524
v 0.000382 -0.029513 0.019857
v 0.003267 -0.027847 0.023524
v 0.003432 -0.027752 0.019857
f 1 2 3
f 1 3 4
f 1 4 8
f 1 8 14
f 1 14 13
f 1 13 12
f 1 12 19
f 1 19 17
f 1 17 11
f 1 11 5
f 1 5 2
f 2 6 10
f 2 10 9
f 2 9 16
f 2 16 20
f 2 20 15
f 2 15 7
f 2 7 3
f 2 5 6
f 3 7 4
f 4 7 8
f 5 9 10
f 5 10 6
f 5 11 18
f 5 18 23
f 5 23 25
f 5 25 22
f 5 22 16
f 5 16 9
f 7 12 13
f 7 13 14
f 7 14 8
f 7 15 21
f 7 21 26
f 7 26 24
f 7 24 19
f 7 19 12
f 11 17 18
f 15 20 21
f 16 22 21
f 16 21 20
f 17 19 24
f 17 24 23
f 17 23 18
f 21 22 25
f 21 25 26
f 23 26 25
f 23 24 26
