v 0.014619 -0.004678 0.020751
v 0.013759 -0.001454 0.019117
v 0.013192 -0.004678 0.019117
v 0.025749 -0.004678 0.020751
v 0.015197 -0.001454 0.020751
v 0.013681 -0.001454 0.018819
v 0.012687 -0.004678 0.018383
v 0.025749 -0.004678 0.016590
v 0.025749 -0.001454 0.020751
v 0.013614 -0.001454 0.018383
v 0.015107 -0.001454 0.016590
v 0.014412 -0.004678 0.016590
v 0.025749 -0.001454 0.016590
f 1 2 3
f 1 3 7
f 1 7 12
f 1 12 8
f 1 8 4
f 1 4 9
f 1 9 5
f 1 5 2
f 2 6 7
f 2 7 3
f 2 5 9
f 2 9 13
f 2 13 11
f 2 11 10
f 2 10 6
f 4 8 13
f 4 13 9
f 6 10 7
f 7 10 11
f 7 11 12
f 8 12 11
f 8 11 13
