v -0.008216 -0.024991 0.002206
v -0.009874 -0.024033 0.001471
v -0.009537 -0.024226 0.001471
v -0.008775 -0.024648 0.001471
v -0.008216 -0.024951 0.001836
v -0.008216 -0.024991 0.002940
v -0.016405 -0.020263 0.001471
v -0.013353 -0.021743 0.000811
v -0.012589 -0.022149 0.000735
v -0.008216 -0.024887 0.001471
v -0.011937 -0.022506 0.000735
v -0.011827 -0.022565 0.000735
v -0.011063 -0.022948 0.000735
v -0.010372 -0.023270 0.000735
v -0.010301 -0.023301 0.000735
v -0.008216 -0.012947 0.002940
v -0.016405 -0.020263 0.002940
v -0.020444 -0.017929 0.002940
v -0.021743 -0.017178 0.002940
v -0.019122 -0.018692 0.002206
v -0.016481 -0.020218 0.001471
v -0.013353 -0.021698 0.000735
v -0.012589 -0.021743 0.000394
v -0.011827 -0.021743 0.000031
v -0.009537 -0.023624 0.000735
v -0.008775 -0.024033 0.000840
v -0.008216 -0.024114 0.000735
v -0.011827 -0.022506 0.000685
v -0.011063 -0.022506 0.000349
v -0.010301 -0.022506 0.000031
v -0.010301 -0.023270 0.000707
v -0.008216 -0.011885 0.001471
v -0.012032 -0.009106 0.002940
v -0.021764 -0.017165 0.002940
v -0.017596 -0.019454 0.001471
v -0.016405 -0.020218 0.001405
v -0.014115 -0.021208 0.000735
v -0.013353 -0.020981 0.000145
v -0.014115 -0.020218 0.000000
v -0.009537 -0.023270 0.000416
v -0.008775 -0.023270 0.000145
v -0.008216 -0.024033 0.000661
v -0.009537 -0.022506 0.000000
v -0.008216 -0.023066 0.000000
v -0.008216 -0.023270 0.000039
v -0.012589 -0.020981 0.000000
v -0.008216 -0.013149 0.000441
v -0.013020 -0.009106 0.000073
v -0.011218 -0.009106 0.001471
v -0.025688 -0.009106 0.002940
v -0.022349 -0.016442 0.002940
v -0.020981 -0.016980 0.002206
v -0.020828 -0.017165 0.002206
v -0.020217 -0.017881 0.002206
v -0.020176 -0.017929 0.002206
v -0.017929 -0.019149 0.001471
v -0.017165 -0.018692 0.000640
v -0.017165 -0.018824 0.000735
v -0.016405 -0.018692 0.000145
v -0.017165 -0.019454 0.001191
v -0.015641 -0.020110 0.000735
v -0.015641 -0.020218 0.000827
v -0.014879 -0.020679 0.000735
v -0.014450 -0.020981 0.000735
v -0.014115 -0.020981 0.000551
v -0.014879 -0.020218 0.000372
v -0.015641 -0.019454 0.000236
v -0.017165 -0.017929 0.000100
v -0.014879 -0.019454 0.000000
v -0.008216 -0.023830 0.000476
v -0.008216 -0.013912 0.000000
v -0.008216 -0.013353 0.000281
v -0.013353 -0.009106 0.000000
v -0.008775 -0.013353 0.000000
v -0.025665 -0.009106 0.002786
v -0.025750 -0.009108 0.002940
v -0.022380 -0.016403 0.002940
v -0.021743 -0.016405 0.002445
v -0.021434 -0.016405 0.002206
v -0.020981 -0.016405 0.001857
v -0.019455 -0.015641 0.000236
v -0.020217 -0.016405 0.001278
v -0.019455 -0.016405 0.000707
v -0.020217 -0.017165 0.001751
v -0.019455 -0.016450 0.000735
v -0.018691 -0.016405 0.000145
v -0.019455 -0.017929 0.001687
v -0.018691 -0.018405 0.001471
v -0.018405 -0.018692 0.001471
v -0.017929 -0.018692 0.001147
v -0.017310 -0.018692 0.000735
v -0.016405 -0.019493 0.000735
v -0.015501 -0.020218 0.000735
v -0.017929 -0.018098 0.000735
v -0.017929 -0.017929 0.000618
v -0.017929 -0.017165 0.000100
v -0.016405 -0.017929 0.000000
v -0.022507 -0.009106 0.000000
v -0.025559 -0.009106 0.002414
v -0.025750 -0.009538 0.002940
v -0.022507 -0.016228 0.002940
v -0.021743 -0.015641 0.002005
v -0.021062 -0.015641 0.001471
v -0.020981 -0.015641 0.001408
v -0.020981 -0.015749 0.001471
v -0.020217 -0.015501 0.000735
v -0.020217 -0.015641 0.000818
v -0.020217 -0.014878 0.000372
v -0.020217 -0.014116 0.000000
v -0.018691 -0.017165 0.000640
v -0.018691 -0.017310 0.000735
v -0.019150 -0.017929 0.001471
v -0.018691 -0.017929 0.001147
v -0.017929 -0.016405 0.000000
v -0.022507 -0.009538 0.000000
v -0.022938 -0.009106 0.000082
v -0.025540 -0.009106 0.002371
v -0.025705 -0.010300 0.002940
v -0.022507 -0.015641 0.002610
v -0.021997 -0.015641 0.002206
v -0.022919 -0.015641 0.002940
v -0.020981 -0.014878 0.000972
v -0.020681 -0.014878 0.000735
v -0.020981 -0.014116 0.000551
v -0.020981 -0.013353 0.000145
v -0.021743 -0.011827 0.000031
v -0.020981 -0.012589 0.000000
v -0.022507 -0.010300 0.000031
v -0.023269 -0.009106 0.000263
v -0.025405 -0.009106 0.002206
v -0.025559 -0.010300 0.002754
v -0.025559 -0.010799 0.002940
v -0.020981 -0.014450 0.000735
v -0.022507 -0.014900 0.002206
v -0.023269 -0.015113 0.002940
v -0.021743 -0.014116 0.001169
v -0.023269 -0.014878 0.002815
v -0.022507 -0.014116 0.001793
v -0.021743 -0.013353 0.000773
v -0.021743 -0.013276 0.000735
v -0.021743 -0.012589 0.000394
v -0.022148 -0.012589 0.000735
v -0.022507 -0.012589 0.001038
v -0.024033 -0.013353 0.002692
v -0.023269 -0.012589 0.001687
v -0.022507 -0.011827 0.000685
v -0.022507 -0.011064 0.000349
v -0.023269 -0.011064 0.001016
v -0.024033 -0.011064 0.001687
v -0.024620 -0.011064 0.002206
v -0.023302 -0.010300 0.000735
v -0.023269 -0.009538 0.000416
v -0.024033 -0.009538 0.001104
v -0.024795 -0.009538 0.001793
v -0.024033 -0.009106 0.000955
v -0.024795 -0.009106 0.001648
v -0.025250 -0.009538 0.002206
v -0.024795 -0.010300 0.002068
v -0.024128 -0.010300 0.001471
v -0.025447 -0.011062 0.002940
v -0.023422 -0.014878 0.002940
v -0.023007 -0.014116 0.002206
v -0.022507 -0.013353 0.001408
v -0.023269 -0.013353 0.002047
v -0.024033 -0.013867 0.002940
v -0.024323 -0.013353 0.002940
v -0.024033 -0.012589 0.002340
v -0.024728 -0.012589 0.002940
v -0.023269 -0.011827 0.001343
v -0.023417 -0.011827 0.001471
v -0.024033 -0.011827 0.002005
v -0.024795 -0.011827 0.002672
v -0.025101 -0.011827 0.002940
v -0.024033 -0.010300 0.001386
v -0.023269 -0.014116 0.002424
v -0.023885 -0.014121 0.002940
v -0.024795 -0.012454 0.002940
f 1 2 3
f 1 3 4
f 1 4 5
f 1 5 10
f 1 10 27
f 1 27 42
f 1 42 70
f 1 70 45
f 1 45 44
f 1 44 71
f 1 71 72
f 1 72 47
f 1 47 32
f 1 32 16
f 1 16 6
f 1 6 17
f 1 17 7
f 1 7 2
f 2 8 9
f 2 9 3
f 2 7 8
f 3 9 4
f 4 10 5
f 4 9 11
f 4 11 12
f 4 12 13
f 4 13 14
f 4 14 15
f 4 15 10
f 6 16 33
f 6 33 50
f 6 50 76
f 6 76 100
f 6 100 118
f 6 118 132
f 6 132 160
f 6 160 173
f 6 173 177
f 6 177 168
f 6 168 166
f 6 166 165
f 6 165 176
f 6 176 161
f 6 161 135
f 6 135 121
f 6 121 101
f 6 101 77
f 6 77 51
f 6 51 34
f 6 34 19
f 6 19 18
f 6 18 17
f 7 17 18
f 7 18 19
f 7 19 20
f 7 20 21
f 7 21 8
f 8 22 9
f 8 21 22
f 9 22 23
f 9 23 24
f 9 24 11
f 10 15 25
f 10 25 26
f 10 26 27
f 11 24 28
f 11 28 12
f 12 28 29
f 12 29 13
f 13 29 30
f 13 30 14
f 14 30 31
f 14 31 15
f 15 31 25
f 16 32 33
f 19 34 20
f 20 35 21
f 20 34 35
f 21 36 37
f 21 37 22
f 21 35 36
f 22 37 38
f 22 38 23
f 23 38 24
f 24 29 28
f 24 38 39
f 24 39 46
f 24 46 30
f 24 30 29
f 25 31 40
f 25 40 41
f 25 41 26
f 26 41 42
f 26 42 27
f 30 43 44
f 30 44 45
f 30 45 41
f 30 41 40
f 30 40 31
f 30 46 43
f 32 47 48
f 32 48 49
f 32 49 33
f 33 49 48
f 33 48 73
f 33 73 98
f 33 98 116
f 33 116 129
f 33 129 155
f 33 155 156
f 33 156 130
f 33 130 117
f 33 117 99
f 33 99 75
f 33 75 50
f 34 51 52
f 34 52 53
f 34 53 54
f 34 54 55
f 34 55 35
f 35 55 56
f 35 56 57
f 35 57 58
f 35 58 59
f 35 59 60
f 35 60 61
f 35 61 62
f 35 62 63
f 35 63 64
f 35 64 36
f 36 64 37
f 37 64 65
f 37 65 38
f 38 65 66
f 38 66 39
f 39 66 67
f 39 67 59
f 39 59 68
f 39 68 96
f 39 96 69
f 39 69 97
f 39 97 114
f 39 114 109
f 39 109 127
f 39 127 115
f 39 115 98
f 39 98 73
f 39 73 74
f 39 74 71
f 39 71 44
f 39 44 43
f 39 43 46
f 41 45 70
f 41 70 42
f 47 72 48
f 48 72 74
f 48 74 73
f 50 75 76
f 51 77 52
f 52 77 78
f 52 78 79
f 52 79 80
f 52 80 81
f 52 81 82
f 52 82 53
f 53 82 83
f 53 83 84
f 53 84 54
f 54 84 55
f 55 84 85
f 55 85 86
f 55 86 87
f 55 87 88
f 55 88 89
f 55 89 56
f 56 89 90
f 56 90 91
f 56 91 57
f 57 91 68
f 57 68 59
f 57 59 58
f 59 67 92
f 59 92 60
f 60 92 61
f 61 67 66
f 61 66 93
f 61 93 62
f 61 92 67
f 62 93 63
f 63 66 64
f 63 93 66
f 64 66 65
f 68 91 90
f 68 90 94
f 68 94 95
f 68 95 96
f 69 96 97
f 71 74 72
f 75 99 76
f 76 99 100
f 77 101 102
f 77 102 103
f 77 103 78
f 78 103 104
f 78 104 105
f 78 105 79
f 79 105 106
f 79 106 107
f 79 107 80
f 80 107 81
f 81 86 83
f 81 83 82
f 81 107 106
f 81 106 108
f 81 108 109
f 81 109 86
f 83 86 85
f 83 85 84
f 86 96 110
f 86 110 87
f 86 109 96
f 87 110 111
f 87 111 96
f 87 96 112
f 87 112 88
f 88 113 95
f 88 95 89
f 88 112 113
f 89 95 94
f 89 94 90
f 95 113 96
f 96 114 97
f 96 113 112
f 96 111 110
f 96 109 114
f 98 115 116
f 99 117 118
f 99 118 100
f 101 119 120
f 101 120 102
f 101 121 119
f 102 122 123
f 102 123 108
f 102 108 103
f 102 120 122
f 103 108 104
f 104 108 106
f 104 106 105
f 108 123 124
f 108 124 125
f 108 125 109
f 109 125 126
f 109 126 128
f 109 128 127
f 115 128 116
f 115 127 128
f 116 128 129
f 117 130 131
f 117 131 118
f 118 131 132
f 119 121 124
f 119 124 133
f 119 133 122
f 119 122 120
f 121 134 124
f 121 135 134
f 122 133 123
f 123 133 124
f 124 134 136
f 124 136 125
f 125 136 137
f 125 137 138
f 125 138 139
f 125 139 140
f 125 140 141
f 125 141 126
f 126 141 142
f 126 142 143
f 126 143 144
f 126 144 145
f 126 145 146
f 126 146 147
f 126 147 128
f 128 147 148
f 128 148 149
f 128 149 150
f 128 150 151
f 128 151 152
f 128 152 129
f 129 152 153
f 129 153 154
f 129 154 155
f 130 156 157
f 130 157 131
f 131 158 132
f 131 157 154
f 131 154 153
f 131 153 152
f 131 152 158
f 132 158 159
f 132 159 160
f 134 135 137
f 134 137 136
f 135 161 137
f 137 161 138
f 138 162 139
f 138 161 162
f 139 162 163
f 139 163 140
f 140 163 141
f 141 163 164
f 141 164 142
f 142 164 143
f 143 164 144
f 144 164 165
f 144 165 166
f 144 166 145
f 145 166 167
f 145 167 146
f 146 167 168
f 146 168 169
f 146 169 147
f 147 169 170
f 147 170 171
f 147 171 172
f 147 172 148
f 148 172 149
f 149 172 173
f 149 173 150
f 150 173 160
f 150 160 151
f 151 160 174
f 151 174 152
f 152 174 159
f 152 159 158
f 154 157 155
f 155 157 156
f 159 174 160
f 161 175 162
f 161 176 175
f 162 175 163
f 163 175 176
f 163 176 164
f 164 176 165
f 166 168 167
f 168 177 171
f 168 171 170
f 168 170 169
f 171 177 172
f 172 177 173
