v 0.008640 0.012635 0.008953
v 0.008650 0.012628 0.008954
v 0.005818 0.014050 0.008953
v 0.008650 0.012653 0.008953
v 0.008650 0.010266 0.011029
v 0.005818 0.012210 0.011029
v 0.005818 0.026374 0.008953
v 0.008650 0.024739 0.008953
v 0.008650 0.012416 0.012838
v 0.005818 0.013911 0.012838
v 0.005818 0.013181 0.012175
v 0.005818 0.012730 0.011765
v 0.005818 0.026374 0.012838
v 0.005909 0.026322 0.008953
v 0.008456 0.024851 0.008953
v 0.008650 0.024739 0.012838
v 0.005909 0.026322 0.012838
f 1 2 3
f 1 3 7
f 1 7 14
f 1 14 15
f 1 15 8
f 1 8 4
f 1 4 2
f 2 5 3
f 2 4 8
f 2 8 16
f 2 16 9
f 2 9 5
f 3 5 6
f 3 6 12
f 3 12 11
f 3 11 10
f 3 10 13
f 3 13 7
f 5 9 10
f 5 10 11
f 5 11 12
f 5 12 6
f 7 13 17
f 7 17 14
f 8 15 16
f 9 16 17
f 9 17 13
f 9 13 10
f 14 17 15
f 15 17 16
