v 0.012509 -0.020981 0.000000
v 0.012509 -0.021743 0.000356
v 0.011826 -0.021743 0.000031
v 0.011140 -0.021743 0.000003
v 0.011140 -0.020981 0.000000
v 0.012509 -0.011064 0.000000
v 0.012509 -0.022192 0.000735
v 0.011936 -0.022506 0.000735
v 0.011826 -0.022566 0.000735
v 0.011140 -0.022506 0.000383
v 0.011140 -0.011827 0.000000
v 0.011826 -0.011064 0.000000
v 0.012509 -0.010300 0.000029
v 0.012509 -0.022511 0.001471
v 0.011140 -0.023270 0.001396
v 0.011140 -0.023232 0.001310
v 0.011140 -0.022909 0.000735
v 0.011140 -0.022904 0.000730
v 0.011140 -0.010987 0.000307
v 0.012509 -0.009617 0.000178
v 0.012509 -0.022511 0.003677
v 0.011140 -0.023302 0.001471
v 0.011140 -0.009197 0.001471
v 0.012509 -0.005855 0.002206
v 0.011140 -0.023302 0.003677
v 0.012509 -0.009076 0.003677
v 0.011140 -0.008403 0.002206
v 0.011140 -0.010789 0.003677
f 1 2 3
f 1 3 4
f 1 4 5
f 1 5 11
f 1 11 12
f 1 12 6
f 1 6 13
f 1 13 20
f 1 20 24
f 1 24 26
f 1 26 21
f 1 21 14
f 1 14 7
f 1 7 2
f 2 7 3
f 3 7 8
f 3 8 9
f 3 9 10
f 3 10 4
f 4 10 18
f 4 18 17
f 4 17 16
f 4 16 15
f 4 15 22
f 4 22 25
f 4 25 28
f 4 28 27
f 4 27 23
f 4 23 19
f 4 19 11
f 4 11 5
f 6 12 13
f 7 14 15
f 7 15 16
f 7 16 8
f 8 16 9
f 9 16 17
f 9 17 18
f 9 18 10
f 11 19 20
f 11 20 12
f 12 20 13
f 14 21 25
f 14 25 22
f 14 22 15
f 19 23 24
f 19 24 20
f 21 26 28
f 21 28 25
f 23 27 24
f 24 27 28
f 24 28 26
