v -0.013640 0.006487 0.002208
v -0.013754 0.006487 0.000737
v -0.011535 0.009486 0.002208
v -0.011827 0.009154 0.002208
v -0.025636 0.006487 0.002208
v -0.014117 0.006487 0.000418
v -0.011884 0.009486 0.000736
v -0.011955 0.009486 0.002208
v -0.025750 0.006487 0.002208
v -0.025750 0.006487 0.002207
v -0.014116 0.007248 0.000095
v -0.012589 0.009486 0.000196
v -0.014880 0.006487 0.000000
v -0.025239 0.009486 0.002208
v -0.025750 0.007251 0.002208
v -0.025750 0.007248 0.002206
v -0.025559 0.006487 0.001716
v -0.013352 0.008774 0.000000
v -0.013352 0.009486 0.000000
v -0.022508 0.006487 0.000000
v -0.025269 0.009486 0.002206
v -0.025526 0.008774 0.002208
v -0.025714 0.008013 0.002208
v -0.025714 0.008011 0.002206
v -0.025419 0.006487 0.001471
v -0.022506 0.009486 0.000000
v -0.023272 0.006487 0.000001
v -0.023270 0.007248 0.000000
v -0.025220 0.009486 0.002161
v -0.025526 0.008774 0.002206
v -0.025558 0.008676 0.002208
v -0.025710 0.008032 0.002208
v -0.025558 0.008674 0.002206
v -0.025558 0.008011 0.002005
v -0.025213 0.007248 0.001471
v -0.024797 0.006487 0.000885
v -0.023270 0.008011 0.000000
v -0.023270 0.008774 0.000145
v -0.023270 0.009486 0.000398
v -0.024033 0.006487 0.000169
v -0.024795 0.009486 0.001776
v -0.024033 0.008774 0.000840
v -0.024723 0.008774 0.001471
v -0.024795 0.008774 0.001537
v -0.024033 0.008011 0.000596
v -0.024185 0.008011 0.000736
v -0.024795 0.008011 0.001299
v -0.024033 0.007248 0.000372
v -0.024424 0.007248 0.000736
v -0.024795 0.007248 0.001082
v -0.024463 0.009486 0.001475
v -0.024033 0.009486 0.001086
f 1 2 3
f 1 3 4
f 1 4 8
f 1 8 14
f 1 14 22
f 1 22 31
f 1 31 32
f 1 32 23
f 1 23 15
f 1 15 9
f 1 9 5
f 1 5 10
f 1 10 17
f 1 17 25
f 1 25 36
f 1 36 40
f 1 40 27
f 1 27 20
f 1 20 13
f 1 13 6
f 1 6 2
f 2 6 7
f 2 7 3
f 3 7 12
f 3 12 19
f 3 19 26
f 3 26 39
f 3 39 52
f 3 52 51
f 3 51 41
f 3 41 29
f 3 29 21
f 3 21 14
f 3 14 8
f 3 8 4
f 5 9 10
f 6 11 12
f 6 12 7
f 6 13 11
f 9 15 16
f 9 16 10
f 10 16 17
f 11 13 18
f 11 18 12
f 12 18 19
f 13 20 28
f 13 28 37
f 13 37 26
f 13 26 19
f 13 19 18
f 14 21 22
f 15 23 24
f 15 24 16
f 16 24 17
f 17 24 25
f 20 27 28
f 21 29 30
f 21 30 22
f 22 30 31
f 23 32 24
f 24 32 33
f 24 33 34
f 24 34 25
f 25 35 36
f 25 34 35
f 26 37 38
f 26 38 39
f 27 40 28
f 28 40 37
f 29 41 38
f 29 38 42
f 29 42 43
f 29 43 44
f 29 44 30
f 30 34 33
f 30 33 31
f 30 44 45
f 30 45 46
f 30 46 47
f 30 47 34
f 31 33 32
f 34 47 48
f 34 48 49
f 34 49 50
f 34 50 35
f 35 50 40
f 35 40 36
f 37 40 38
f 38 40 48
f 38 48 45
f 38 45 42
f 38 41 51
f 38 51 52
f 38 52 39
f 40 50 49
f 40 49 48
f 42 45 43
f 43 45 44
f 45 48 46
f 46 48 47
