v -0.008214 -0.024991 0.015443
v -0.008214 -0.012945 0.015443
v -0.008214 -0.024991 0.019117
v -0.008775 -0.024668 0.016177
v -0.008777 -0.024666 0.015443
v -0.010143 -0.009106 0.016912
v -0.008214 -0.011054 0.016912
v -0.012030 -0.009106 0.015443
v -0.008214 -0.012821 0.019117
v -0.008775 -0.024668 0.019117
v -0.024033 -0.015859 0.019117
v -0.023088 -0.016405 0.015443
v -0.016405 -0.020263 0.015443
v -0.008214 -0.011040 0.017647
v -0.010344 -0.009106 0.017353
v -0.025750 -0.009106 0.015443
v -0.012519 -0.009106 0.019117
v -0.025558 -0.014977 0.019117
v -0.024797 -0.015418 0.015443
v -0.010509 -0.009106 0.017647
v -0.025750 -0.014113 0.015443
v -0.025750 -0.009106 0.018797
v -0.025426 -0.009106 0.019117
v -0.025657 -0.014878 0.019117
v -0.025558 -0.014977 0.015443
v -0.025750 -0.014116 0.016177
v -0.025657 -0.014876 0.015443
v -0.025750 -0.009108 0.019117
v -0.025657 -0.014878 0.016177
v -0.025750 -0.014116 0.019117
f 1 2 7
f 1 7 14
f 1 14 9
f 1 9 3
f 1 3 10
f 1 10 4
f 1 4 5
f 1 5 13
f 1 13 12
f 1 12 19
f 1 19 25
f 1 25 27
f 1 27 21
f 1 21 16
f 1 16 8
f 1 8 2
f 2 6 7
f 2 8 6
f 3 9 17
f 3 17 23
f 3 23 28
f 3 28 30
f 3 30 24
f 3 24 18
f 3 18 11
f 3 11 10
f 4 10 11
f 4 11 12
f 4 12 13
f 4 13 5
f 6 14 7
f 6 8 16
f 6 16 22
f 6 22 23
f 6 23 17
f 6 17 20
f 6 20 15
f 6 15 14
f 9 14 17
f 11 18 19
f 11 19 12
f 14 15 20
f 14 20 17
f 16 21 26
f 16 26 30
f 16 30 28
f 16 28 22
f 18 24 29
f 18 29 25
f 18 25 19
f 21 27 26
f 22 28 23
f 24 30 26
f 24 26 29
f 25 29 27
f 26 27 29
