v -0.025749 0.014117 0.013972
v -0.025749 0.014115 0.018381
v -0.025658 0.014878 0.018381
v -0.025658 0.014878 0.013972
v -0.025749 0.006488 0.013972
v -0.025749 0.006487 0.018381
v -0.025559 0.014976 0.018381
v -0.025559 0.014976 0.013972
v -0.013784 0.006487 0.013972
v -0.025749 0.006487 0.014708
v -0.014026 0.006487 0.018381
v -0.024798 0.015416 0.013972
v -0.024033 0.015858 0.018381
v -0.013752 0.006487 0.013972
v -0.012375 0.006487 0.016911
v -0.011097 0.010662 0.018381
v -0.024033 0.015858 0.014706
v -0.015644 0.020702 0.013972
v -0.017930 0.019382 0.018381
v -0.011097 0.007650 0.016177
v -0.011905 0.006487 0.016173
v -0.011097 0.010713 0.013972
v -0.011902 0.006487 0.016177
v -0.011097 0.008011 0.016446
v -0.011097 0.023326 0.018381
v -0.012517 0.022507 0.018381
v -0.012517 0.022507 0.013972
v -0.011097 0.023326 0.013972
v -0.011829 0.022904 0.013972
f 1 2 3
f 1 3 4
f 1 4 8
f 1 8 12
f 1 12 18
f 1 18 27
f 1 27 29
f 1 29 28
f 1 28 22
f 1 22 14
f 1 14 9
f 1 9 5
f 1 5 10
f 1 10 6
f 1 6 2
f 2 6 11
f 2 11 16
f 2 16 25
f 2 25 26
f 2 26 19
f 2 19 13
f 2 13 7
f 2 7 3
f 3 7 8
f 3 8 4
f 5 9 10
f 6 10 9
f 6 9 14
f 6 14 21
f 6 21 23
f 6 23 15
f 6 15 11
f 7 12 8
f 7 13 12
f 11 15 16
f 12 13 17
f 12 17 18
f 13 19 18
f 13 18 17
f 14 20 21
f 14 22 20
f 15 23 20
f 15 20 24
f 15 24 16
f 16 24 20
f 16 20 22
f 16 22 28
f 16 28 25
f 18 19 26
f 18 26 27
f 20 23 21
f 25 28 29
f 25 29 26
f 26 29 27
