v -0.008214 -0.024991 0.002941
v -0.008214 -0.024991 0.006622
v -0.008775 -0.024668 0.002941
v -0.008214 -0.012947 0.002941
v -0.008214 -0.012819 0.006622
v -0.008775 -0.024668 0.006622
v -0.009877 -0.024032 0.006622
v -0.023088 -0.016405 0.003677
v -0.016405 -0.020263 0.002941
v -0.010143 -0.009106 0.004412
v -0.008214 -0.011054 0.004412
v -0.012032 -0.009106 0.002941
v -0.008214 -0.011040 0.005147
v -0.012514 -0.009106 0.006622
v -0.024801 -0.015416 0.006622
v -0.021764 -0.017165 0.002942
v -0.021744 -0.017179 0.002942
v -0.024409 -0.015641 0.004412
v -0.024796 -0.015306 0.004412
v -0.020444 -0.017929 0.002941
v -0.010344 -0.009106 0.004853
v -0.025688 -0.009106 0.002941
v -0.010509 -0.009106 0.005147
v -0.025750 -0.009106 0.006622
v -0.025558 -0.014977 0.006622
v -0.025558 -0.014977 0.005147
v -0.025199 -0.014878 0.004412
v -0.023831 -0.015641 0.003677
v -0.022350 -0.016442 0.002941
v -0.021763 -0.017165 0.002941
v -0.021744 -0.017178 0.002941
v -0.025558 -0.014878 0.004940
v -0.025748 -0.009108 0.002941
v -0.025750 -0.009106 0.002942
v -0.025750 -0.014116 0.006622
v -0.025657 -0.014878 0.006622
v -0.025657 -0.014878 0.005147
v -0.025558 -0.014250 0.004412
v -0.024796 -0.014116 0.003701
v -0.024766 -0.014116 0.003677
v -0.024032 -0.014116 0.003060
v -0.024796 -0.014878 0.004075
v -0.024032 -0.015329 0.003677
v -0.023422 -0.014878 0.002941
v -0.023270 -0.015114 0.002942
v -0.023270 -0.015641 0.003222
v -0.022506 -0.016229 0.002942
v -0.022380 -0.016405 0.002942
v -0.022380 -0.016403 0.002941
v -0.025616 -0.014116 0.004412
v -0.025748 -0.009541 0.002941
v -0.025750 -0.009538 0.002942
v -0.025750 -0.014116 0.005147
v -0.025659 -0.014873 0.006622
v -0.025750 -0.013353 0.004412
v -0.025558 -0.014116 0.004347
v -0.024325 -0.013353 0.002942
v -0.024032 -0.013869 0.002942
v -0.023886 -0.014121 0.002941
v -0.024315 -0.014878 0.003677
v -0.024032 -0.014878 0.003442
v -0.023270 -0.015113 0.002941
v -0.022919 -0.015641 0.002941
v -0.022506 -0.016228 0.002941
v -0.025573 -0.012589 0.003677
v -0.025750 -0.011827 0.003677
v -0.025705 -0.010300 0.002941
v -0.025558 -0.012623 0.003677
v -0.025185 -0.013353 0.003677
v -0.024796 -0.013353 0.003342
v -0.024324 -0.013353 0.002941
v -0.024032 -0.013867 0.002941
v -0.024729 -0.012589 0.002941
v -0.025558 -0.010799 0.002941
v -0.025558 -0.012589 0.003662
v -0.024796 -0.012454 0.002941
v -0.025448 -0.011062 0.002941
v -0.025101 -0.011827 0.002941
f 1 2 6
f 1 6 3
f 1 3 9
f 1 9 20
f 1 20 31
f 1 31 30
f 1 30 29
f 1 29 49
f 1 49 64
f 1 64 63
f 1 63 62
f 1 62 44
f 1 44 59
f 1 59 72
f 1 72 71
f 1 71 73
f 1 73 76
f 1 76 78
f 1 78 77
f 1 77 74
f 1 74 67
f 1 67 51
f 1 51 33
f 1 33 22
f 1 22 12
f 1 12 4
f 1 4 11
f 1 11 13
f 1 13 5
f 1 5 2
f 2 5 14
f 2 14 24
f 2 24 35
f 2 35 54
f 2 54 36
f 2 36 25
f 2 25 15
f 2 15 7
f 2 7 6
f 3 6 7
f 3 7 8
f 3 8 9
f 4 10 11
f 4 12 10
f 5 13 14
f 7 15 8
f 8 16 17
f 8 17 9
f 8 15 18
f 8 18 19
f 8 19 16
f 9 17 20
f 10 13 11
f 10 12 22
f 10 22 34
f 10 34 24
f 10 24 14
f 10 14 23
f 10 23 21
f 10 21 13
f 13 21 23
f 13 23 14
f 15 25 26
f 15 26 18
f 16 19 27
f 16 27 28
f 16 28 29
f 16 29 30
f 16 30 17
f 17 30 31
f 17 31 20
f 18 26 19
f 19 26 32
f 19 32 27
f 22 33 34
f 24 34 52
f 24 52 66
f 24 66 55
f 24 55 53
f 24 53 35
f 25 36 37
f 25 37 26
f 26 37 32
f 27 32 38
f 27 38 39
f 27 39 40
f 27 40 41
f 27 41 42
f 27 42 43
f 27 43 28
f 28 43 44
f 28 44 45
f 28 45 46
f 28 46 47
f 28 47 48
f 28 48 29
f 29 48 49
f 32 37 50
f 32 50 38
f 33 51 52
f 33 52 34
f 35 53 54
f 36 54 37
f 37 54 53
f 37 53 55
f 37 55 50
f 38 50 56
f 38 56 39
f 39 57 58
f 39 58 40
f 39 56 57
f 40 58 41
f 41 58 59
f 41 59 42
f 42 59 60
f 42 60 43
f 43 60 61
f 43 61 44
f 44 62 45
f 44 61 59
f 45 62 63
f 45 63 46
f 46 63 47
f 47 63 64
f 47 64 49
f 47 49 48
f 50 65 56
f 50 55 66
f 50 66 65
f 51 67 52
f 52 67 66
f 56 65 68
f 56 68 69
f 56 69 70
f 56 70 57
f 57 71 72
f 57 72 58
f 57 70 73
f 57 73 71
f 58 72 59
f 59 61 60
f 65 74 75
f 65 75 68
f 65 66 67
f 65 67 74
f 68 75 73
f 68 73 69
f 69 73 70
f 73 75 76
f 74 77 75
f 75 77 78
f 75 78 76
