v -0.013603 0.001934 0.004412
v -0.013662 0.001934 0.003677
v -0.011901 0.006486 0.003678
v -0.013616 0.006486 0.006333
v -0.015014 0.001934 0.006333
v -0.011905 0.006486 0.003673
v -0.011903 0.006485 0.003677
v -0.015194 0.001934 0.002212
v -0.012376 0.006486 0.004412
v -0.013959 0.006486 0.006333
v -0.025749 0.001934 0.006333
v -0.013640 0.006486 0.002208
v -0.015199 0.001934 0.002208
v -0.021202 0.006486 0.006333
v -0.025749 0.006486 0.006333
v -0.025749 0.001934 0.002231
v -0.025749 0.006486 0.002208
v -0.025723 0.001934 0.002208
v -0.025749 0.006486 0.005883
v -0.025749 0.001935 0.002208
f 1 2 3
f 1 3 4
f 1 4 5
f 1 5 11
f 1 11 16
f 1 16 18
f 1 18 13
f 1 13 8
f 1 8 2
f 2 6 7
f 2 7 3
f 2 8 6
f 3 7 6
f 3 6 12
f 3 12 17
f 3 17 19
f 3 19 14
f 3 14 10
f 3 10 9
f 3 9 4
f 4 9 10
f 4 10 14
f 4 14 15
f 4 15 11
f 4 11 5
f 6 8 12
f 8 13 12
f 11 15 19
f 11 19 17
f 11 17 20
f 11 20 16
f 12 13 18
f 12 18 20
f 12 20 17
f 14 19 15
f 16 20 18
