v 0.025750 0.009106 0.005142
v 0.025750 0.014110 0.005142
v 0.025750 0.009106 0.008953
v 0.011884 0.009106 0.005142
v 0.025658 0.014874 0.005142
v 0.025750 0.014115 0.005147
v 0.025750 0.014115 0.008953
v 0.012326 0.009106 0.008953
v 0.009976 0.009106 0.006618
v 0.008914 0.012269 0.005143
v 0.009450 0.011827 0.005142
v 0.025656 0.014879 0.005142
v 0.025658 0.014879 0.005147
v 0.025658 0.014879 0.008953
v 0.008914 0.012434 0.008953
v 0.008914 0.010696 0.007353
v 0.010680 0.009106 0.007353
v 0.010261 0.009106 0.006938
v 0.008914 0.010264 0.006618
v 0.008914 0.012559 0.005142
v 0.025559 0.014976 0.005142
v 0.025559 0.014977 0.005147
v 0.025641 0.014895 0.008953
v 0.008914 0.024588 0.008953
v 0.010287 0.009106 0.006966
v 0.008914 0.024588 0.005142
v 0.025552 0.014980 0.005142
v 0.025559 0.014977 0.008953
v 0.024033 0.015859 0.005142
v 0.024342 0.015680 0.008953
v 0.023120 0.016386 0.008953
f 1 2 6
f 1 6 7
f 1 7 3
f 1 3 8
f 1 8 17
f 1 17 25
f 1 25 18
f 1 18 9
f 1 9 4
f 1 4 11
f 1 11 20
f 1 20 26
f 1 26 29
f 1 29 27
f 1 27 21
f 1 21 12
f 1 12 5
f 1 5 2
f 2 5 13
f 2 13 6
f 3 7 14
f 3 14 23
f 3 23 28
f 3 28 30
f 3 30 31
f 3 31 24
f 3 24 15
f 3 15 8
f 4 9 10
f 4 10 11
f 5 12 13
f 6 13 14
f 6 14 7
f 8 15 16
f 8 16 17
f 9 18 16
f 9 16 19
f 9 19 10
f 10 19 16
f 10 16 15
f 10 15 24
f 10 24 26
f 10 26 20
f 10 20 11
f 12 21 13
f 13 21 22
f 13 22 23
f 13 23 14
f 16 18 25
f 16 25 17
f 21 27 22
f 22 28 23
f 22 27 29
f 22 29 30
f 22 30 28
f 24 31 26
f 26 31 29
f 29 31 30
