v 0.000005 0.029512 0.024264
v 0.000381 0.029512 0.024264
v 0.000005 0.029512 0.021706
v 0.000005 0.029442 0.024636
v 0.000381 0.029512 0.021706
v 0.000381 0.029373 0.025000
v 0.001908 0.028610 0.025000
v 0.000623 0.029373 0.024264
v 0.000498 0.029446 0.021706
v 0.000005 0.015178 0.021706
v 0.000005 0.029373 0.025000
v 0.005722 0.026429 0.024264
v 0.004587 0.027084 0.024264
v 0.001944 0.028610 0.024264
v 0.005722 0.026322 0.025000
v 0.005818 0.026280 0.024907
v 0.005818 0.026322 0.024620
v 0.005818 0.026373 0.024264
v 0.000894 0.029217 0.021706
v 0.001511 0.028861 0.021706
v 0.005818 0.013994 0.021706
v 0.005818 0.012210 0.023529
v 0.000005 0.013828 0.023529
v 0.000005 0.014116 0.025000
v 0.005812 0.026378 0.021706
v 0.005818 0.026225 0.025000
v 0.005818 0.026373 0.021706
v 0.005818 0.012747 0.024357
v 0.004196 0.013353 0.025000
v 0.000005 0.013701 0.024264
v 0.000005 0.013746 0.023893
v 0.005818 0.013257 0.025000
f 1 2 5
f 1 5 3
f 1 3 10
f 1 10 23
f 1 23 31
f 1 31 30
f 1 30 24
f 1 24 11
f 1 11 4
f 1 4 2
f 2 4 6
f 2 6 7
f 2 7 8
f 2 8 9
f 2 9 5
f 3 5 9
f 3 9 19
f 3 19 20
f 3 20 25
f 3 25 27
f 3 27 21
f 3 21 10
f 4 11 6
f 6 11 24
f 6 24 29
f 6 29 32
f 6 32 26
f 6 26 15
f 6 15 7
f 7 12 13
f 7 13 14
f 7 14 8
f 7 15 16
f 7 16 17
f 7 17 18
f 7 18 12
f 8 19 9
f 8 14 20
f 8 20 19
f 10 21 22
f 10 22 23
f 12 25 13
f 12 18 25
f 13 25 14
f 14 25 20
f 15 26 16
f 16 26 32
f 16 32 28
f 16 28 22
f 16 22 21
f 16 21 27
f 16 27 18
f 16 18 17
f 18 27 25
f 22 28 29
f 22 29 24
f 22 24 30
f 22 30 31
f 22 31 23
f 28 32 29
