v 0.014376 -0.004777 0.016590
v 0.015107 -0.001454 0.016590
v 0.013507 -0.001454 0.014706
v 0.012898 -0.004777 0.014706
v 0.025749 -0.004777 0.016590
v 0.025749 -0.001454 0.016590
v 0.013636 -0.001454 0.014407
v 0.012920 -0.004777 0.013971
v 0.012899 -0.004777 0.014147
v 0.025749 -0.004777 0.012387
v 0.025749 -0.001454 0.012387
v 0.013869 -0.001454 0.013971
v 0.014502 -0.004777 0.012387
v 0.015298 -0.001454 0.012387
f 1 2 3
f 1 3 4
f 1 4 9
f 1 9 8
f 1 8 13
f 1 13 10
f 1 10 5
f 1 5 6
f 1 6 2
f 2 6 11
f 2 11 14
f 2 14 12
f 2 12 7
f 2 7 3
f 3 7 8
f 3 8 9
f 3 9 4
f 5 10 11
f 5 11 6
f 7 12 8
f 8 12 14
f 8 14 13
f 10 13 14
f 10 14 11
