v -0.004923 -0.012515 0.013236
v -0.004923 -0.013187 0.013971
v 0.000004 -0.013828 0.013971
v 0.000004 -0.013701 0.013236
v 0.000002 -0.015136 0.011395
v -0.004923 -0.014332 0.011395
v 0.000004 -0.014116 0.014250
v -0.004923 -0.014696 0.015436
v 0.000004 -0.015116 0.015222
v 0.000004 -0.015152 0.011395
v -0.004923 -0.026891 0.011395
v -0.004923 -0.015612 0.015436
v 0.000004 -0.015337 0.015436
v 0.000004 -0.029458 0.011395
v -0.004393 -0.027197 0.011395
v -0.004923 -0.026891 0.015369
v -0.004920 -0.026893 0.015436
v 0.000004 -0.029513 0.015436
v 0.000004 -0.029513 0.011765
v 0.000002 -0.029513 0.011395
v -0.001926 -0.028621 0.011395
v -0.000382 -0.029513 0.014706
v -0.003433 -0.027751 0.015436
v -0.000376 -0.029513 0.015436
v -0.000382 -0.029513 0.011395
v -0.000384 -0.029512 0.015436
v -0.001145 -0.029072 0.015436
f 1 2 3
f 1 3 4
f 1 4 5
f 1 5 6
f 1 6 11
f 1 11 16
f 1 16 12
f 1 12 8
f 1 8 2
f 2 7 3
f 2 8 9
f 2 9 7
f 3 7 9
f 3 9 13
f 3 13 18
f 3 18 19
f 3 19 14
f 3 14 10
f 3 10 4
f 4 10 5
f 5 10 14
f 5 14 20
f 5 20 25
f 5 25 21
f 5 21 15
f 5 15 11
f 5 11 6
f 8 12 17
f 8 17 23
f 8 23 27
f 8 27 26
f 8 26 24
f 8 24 18
f 8 18 13
f 8 13 9
f 11 15 16
f 12 16 17
f 14 19 20
f 15 21 16
f 16 21 22
f 16 22 17
f 17 22 23
f 18 24 22
f 18 22 25
f 18 25 20
f 18 20 19
f 21 25 22
f 22 24 26
f 22 26 27
f 22 27 23
