v 0.005328 -0.013983 0.020581
v 0.009329 -0.011953 0.020581
v 0.009333 -0.011920 0.019852
v 0.005328 -0.013986 0.020575
v 0.005328 -0.026657 0.020581
v 0.009335 -0.011950 0.020581
v 0.009335 -0.011921 0.019853
v 0.009335 -0.011933 0.019852
v 0.005328 -0.014395 0.019852
v 0.005328 -0.014172 0.020219
v 0.005328 -0.014116 0.020324
v 0.005328 -0.026657 0.019853
v 0.006485 -0.025989 0.020581
v 0.009335 -0.024343 0.020581
v 0.009335 -0.024343 0.019852
v 0.005328 -0.026315 0.019852
v 0.005329 -0.026656 0.019852
v 0.005722 -0.026429 0.019852
v 0.006485 -0.025989 0.019852
v 0.008554 -0.024795 0.020581
f 1 2 3
f 1 3 4
f 1 4 11
f 1 11 10
f 1 10 9
f 1 9 16
f 1 16 12
f 1 12 5
f 1 5 13
f 1 13 20
f 1 20 14
f 1 14 6
f 1 6 2
f 2 6 3
f 3 6 7
f 3 7 8
f 3 8 15
f 3 15 19
f 3 19 18
f 3 18 17
f 3 17 16
f 3 16 9
f 3 9 10
f 3 10 11
f 3 11 4
f 5 12 19
f 5 19 13
f 6 14 15
f 6 15 8
f 6 8 7
f 12 17 18
f 12 18 19
f 12 16 17
f 13 19 20
f 14 20 15
f 15 20 19
