v -0.013350 0.001934 0.012500
v -0.013352 0.001934 0.012503
v -0.013352 0.001934 0.012494
v -0.012195 0.006486 0.011765
v -0.012096 0.006486 0.012498
v -0.012097 0.006485 0.012500
v -0.013718 0.006486 0.014202
v -0.014971 0.001934 0.014202
v -0.013919 0.001934 0.011765
v -0.013923 0.006485 0.010286
v -0.013928 0.006486 0.010286
v -0.015365 0.001934 0.010286
v -0.012099 0.006486 0.012501
v -0.013753 0.006486 0.013970
v -0.015636 0.006486 0.014202
v -0.025750 0.001934 0.014202
v -0.025750 0.006486 0.010286
v -0.025750 0.001934 0.010286
v -0.017518 0.006486 0.014202
v -0.025750 0.006485 0.014202
v -0.025750 0.006486 0.013972
f 1 2 8
f 1 8 16
f 1 16 18
f 1 18 12
f 1 12 9
f 1 9 3
f 1 3 4
f 1 4 5
f 1 5 6
f 1 6 2
f 2 6 7
f 2 7 8
f 3 9 4
f 4 10 11
f 4 11 17
f 4 17 21
f 4 21 19
f 4 19 15
f 4 15 14
f 4 14 13
f 4 13 5
f 4 9 12
f 4 12 10
f 5 13 6
f 6 13 7
f 7 13 14
f 7 14 15
f 7 15 19
f 7 19 20
f 7 20 16
f 7 16 8
f 10 12 18
f 10 18 17
f 10 17 11
f 16 20 21
f 16 21 17
f 16 17 18
f 19 21 20
