v -0.004923 -0.013584 0.001471
v -0.004923 -0.013978 0.002206
v 0.000004 -0.014585 0.002206
v 0.000004 -0.014447 0.001471
v 0.000004 -0.014660 0.001263
v 0.000004 -0.015420 0.000525
v 0.000004 -0.015641 0.000311
v -0.004923 -0.014879 0.000285
v -0.004923 -0.014115 0.002349
v -0.004923 -0.014649 0.002891
v 0.000004 -0.014742 0.002358
v 0.000004 -0.016404 0.000000
v -0.003433 -0.015641 0.000000
v -0.004923 -0.014915 0.000261
v -0.004923 -0.014700 0.002940
v 0.000004 -0.015341 0.002940
v 0.000004 -0.015116 0.002722
v 0.000004 -0.024032 0.000000
v -0.004923 -0.015641 0.000000
v -0.004923 -0.026890 0.002940
v 0.000004 -0.027744 0.002940
v 0.000004 -0.024796 0.000077
v -0.004923 -0.024032 0.000000
v -0.004923 -0.026538 0.002206
v -0.004598 -0.027077 0.002940
v -0.000382 -0.027744 0.002940
v 0.000004 -0.027037 0.002253
v 0.000004 -0.025131 0.000403
v -0.000382 -0.024796 0.000077
v -0.001145 -0.024796 0.000100
v -0.001908 -0.024796 0.000145
v -0.004923 -0.024069 0.000020
v -0.004196 -0.026322 0.001878
v -0.004196 -0.026663 0.002206
v -0.003433 -0.027535 0.002940
v -0.004196 -0.027309 0.002940
v -0.004923 -0.026322 0.001999
v -0.004196 -0.024796 0.000416
v 0.000004 -0.026652 0.001878
v -0.001145 -0.027723 0.002940
v -0.000382 -0.026322 0.001558
v 0.000004 -0.026232 0.001471
v -0.000382 -0.026232 0.001471
v -0.001145 -0.026210 0.001471
v -0.001908 -0.027682 0.002940
v -0.001908 -0.026322 0.001623
v -0.001908 -0.025406 0.000736
v -0.002670 -0.024796 0.000214
v -0.002670 -0.027618 0.002940
v -0.002670 -0.026322 0.001686
v -0.003433 -0.024796 0.000304
v -0.004923 -0.024796 0.000544
v -0.003433 -0.026322 0.001772
v -0.004923 -0.025788 0.001490
v -0.004923 -0.024980 0.000720
f 1 2 3
f 1 3 4
f 1 4 5
f 1 5 6
f 1 6 7
f 1 7 8
f 1 8 14
f 1 14 19
f 1 19 23
f 1 23 32
f 1 32 52
f 1 52 55
f 1 55 54
f 1 54 37
f 1 37 24
f 1 24 20
f 1 20 15
f 1 15 10
f 1 10 9
f 1 9 2
f 2 9 3
f 3 10 11
f 3 11 17
f 3 17 16
f 3 16 21
f 3 21 27
f 3 27 39
f 3 39 42
f 3 42 28
f 3 28 22
f 3 22 18
f 3 18 12
f 3 12 7
f 3 7 6
f 3 6 5
f 3 5 4
f 3 9 10
f 7 12 13
f 7 13 14
f 7 14 8
f 10 15 16
f 10 16 17
f 10 17 11
f 12 18 23
f 12 23 19
f 12 19 13
f 13 19 14
f 15 20 25
f 15 25 36
f 15 36 35
f 15 35 49
f 15 49 45
f 15 45 40
f 15 40 26
f 15 26 21
f 15 21 16
f 18 22 29
f 18 29 23
f 20 24 25
f 21 26 27
f 22 28 29
f 23 29 30
f 23 30 31
f 23 31 32
f 24 33 34
f 24 34 35
f 24 35 36
f 24 36 25
f 24 37 38
f 24 38 33
f 26 39 27
f 26 40 41
f 26 41 39
f 28 42 43
f 28 43 29
f 29 43 44
f 29 44 30
f 30 44 45
f 30 45 46
f 30 46 47
f 30 47 31
f 31 48 32
f 31 47 49
f 31 49 50
f 31 50 48
f 32 48 51
f 32 51 38
f 32 38 52
f 33 38 51
f 33 51 34
f 34 53 35
f 34 51 53
f 35 50 49
f 35 53 48
f 35 48 50
f 37 54 38
f 38 55 52
f 38 54 55
f 39 41 43
f 39 43 42
f 40 45 44
f 40 44 43
f 40 43 41
f 45 49 46
f 46 49 47
f 48 53 51
