v 0.005328 -0.013099 0.024265
v 0.006485 -0.012590 0.025000
v 0.009335 -0.010620 0.024265
v 0.009335 -0.011072 0.023726
v 0.009335 -0.011244 0.023529
v 0.005328 -0.013353 0.024012
v 0.005328 -0.013353 0.025000
v 0.008011 -0.011827 0.025000
v 0.009335 -0.011063 0.024794
v 0.005328 -0.013848 0.023529
v 0.005328 -0.013509 0.023857
v 0.009335 -0.024343 0.023529
v 0.005328 -0.026321 0.025000
v 0.009335 -0.011266 0.025000
v 0.005328 -0.026656 0.023529
v 0.009335 -0.024343 0.024265
v 0.005722 -0.026430 0.023529
v 0.005328 -0.026656 0.024265
v 0.005722 -0.026321 0.025000
v 0.009335 -0.024033 0.025000
v 0.005329 -0.026656 0.023529
v 0.005722 -0.026430 0.024265
f 1 2 3
f 1 3 4
f 1 4 5
f 1 5 6
f 1 6 11
f 1 11 10
f 1 10 15
f 1 15 18
f 1 18 13
f 1 13 7
f 1 7 2
f 2 8 3
f 2 7 13
f 2 13 19
f 2 19 20
f 2 20 14
f 2 14 8
f 3 8 9
f 3 9 14
f 3 14 20
f 3 20 16
f 3 16 12
f 3 12 5
f 3 5 4
f 5 10 11
f 5 11 6
f 5 12 17
f 5 17 21
f 5 21 15
f 5 15 10
f 8 14 9
f 12 16 22
f 12 22 17
f 13 18 19
f 15 21 18
f 16 20 19
f 16 19 22
f 17 22 21
f 18 21 22
f 18 22 19
