v 0.012510 -0.005482 0.006105
v 0.012923 -0.005482 0.006617
v 0.012510 -0.005482 0.005712
v 0.012510 -0.008910 0.008092
v 0.012999 -0.005482 0.006688
v 0.014259 -0.005482 0.003675
v 0.012510 -0.009075 0.003675
v 0.014431 -0.005722 0.008092
v 0.014513 -0.005482 0.008091
v 0.012510 -0.022511 0.008092
v 0.025750 -0.005482 0.003675
v 0.012510 -0.022511 0.003675
v 0.017174 -0.005482 0.008092
v 0.016483 -0.020218 0.003675
v 0.019124 -0.018693 0.008092
v 0.025750 -0.005482 0.008092
v 0.025750 -0.009538 0.003675
v 0.021744 -0.017179 0.003675
v 0.019124 -0.018693 0.003677
v 0.023269 -0.016299 0.008092
v 0.025750 -0.014114 0.008092
v 0.025750 -0.011827 0.003677
v 0.025749 -0.011825 0.003675
v 0.023087 -0.016402 0.003675
v 0.023088 -0.016402 0.003677
v 0.024409 -0.015640 0.004412
v 0.024796 -0.015417 0.005147
v 0.024796 -0.015417 0.008088
v 0.025554 -0.014979 0.008092
v 0.025659 -0.014872 0.008092
v 0.025750 -0.014114 0.005147
v 0.025750 -0.013354 0.004412
v 0.025617 -0.014114 0.004412
v 0.025572 -0.012587 0.003675
v 0.023269 -0.016237 0.003675
v 0.023269 -0.016239 0.003677
v 0.024796 -0.015304 0.004412
v 0.025558 -0.014975 0.005147
v 0.025558 -0.014975 0.008092
v 0.025658 -0.014877 0.008092
v 0.025658 -0.014877 0.005147
v 0.025558 -0.014877 0.004940
v 0.025558 -0.014249 0.004412
v 0.025558 -0.014114 0.004347
v 0.025571 -0.012590 0.003675
v 0.023832 -0.015640 0.003677
v 0.023830 -0.015639 0.003675
v 0.025199 -0.014877 0.004412
v 0.024765 -0.014114 0.003675
v 0.024796 -0.014062 0.003677
v 0.025184 -0.013354 0.003675
v 0.025556 -0.012627 0.003675
v 0.024033 -0.015327 0.003677
v 0.024031 -0.015325 0.003675
v 0.024796 -0.014877 0.004075
v 0.024795 -0.014060 0.003675
v 0.024315 -0.014877 0.003677
v 0.024314 -0.014875 0.003675
f 1 2 5
f 1 5 9
f 1 9 13
f 1 13 16
f 1 16 11
f 1 11 6
f 1 6 3
f 1 3 7
f 1 7 12
f 1 12 10
f 1 10 4
f 1 4 2
f 2 4 5
f 3 6 7
f 4 8 9
f 4 9 5
f 4 10 15
f 4 15 20
f 4 20 29
f 4 29 39
f 4 39 40
f 4 40 30
f 4 30 21
f 4 21 16
f 4 16 13
f 4 13 8
f 6 11 17
f 6 17 23
f 6 23 34
f 6 34 45
f 6 45 52
f 6 52 51
f 6 51 56
f 6 56 49
f 6 49 58
f 6 58 54
f 6 54 47
f 6 47 35
f 6 35 24
f 6 24 18
f 6 18 14
f 6 14 12
f 6 12 7
f 8 13 9
f 10 12 14
f 10 14 15
f 11 16 21
f 11 21 31
f 11 31 32
f 11 32 22
f 11 22 17
f 14 18 19
f 14 19 15
f 15 19 20
f 17 22 23
f 18 24 25
f 18 25 26
f 18 26 19
f 19 26 27
f 19 27 20
f 20 27 28
f 20 28 29
f 21 30 31
f 22 32 33
f 22 33 34
f 22 34 23
f 24 35 36
f 24 36 25
f 25 36 37
f 25 37 26
f 26 37 38
f 26 38 27
f 27 38 29
f 27 29 28
f 29 38 39
f 30 40 41
f 30 41 31
f 31 41 32
f 32 41 33
f 33 41 42
f 33 42 43
f 33 43 44
f 33 44 45
f 33 45 34
f 35 46 36
f 35 47 46
f 36 46 48
f 36 48 37
f 37 48 42
f 37 42 38
f 38 42 41
f 38 41 40
f 38 40 39
f 42 48 43
f 43 48 49
f 43 49 44
f 44 49 50
f 44 50 51
f 44 51 52
f 44 52 45
f 46 47 54
f 46 54 53
f 46 53 48
f 48 53 55
f 48 55 49
f 49 56 50
f 49 55 57
f 49 57 58
f 50 56 51
f 53 54 58
f 53 58 57
f 53 57 55
