v 0.000005 0.029512 0.013243
v 0.000381 0.029512 0.013243
v 0.000005 0.029512 0.009221
v 0.000005 0.015215 0.013243
v 0.000623 0.029373 0.013243
v 0.000492 0.029449 0.009221
v 0.000381 0.029512 0.009221
v 0.000005 0.015184 0.009221
v 0.000005 0.013701 0.011764
v 0.005818 0.012730 0.011764
v 0.005816 0.014339 0.013243
v 0.001944 0.028610 0.013243
v 0.003259 0.027852 0.013243
v 0.003356 0.027796 0.009221
v 0.005818 0.013990 0.009221
v 0.005818 0.012210 0.011030
v 0.000005 0.013828 0.011030
v 0.000005 0.013746 0.011393
v 0.005818 0.014346 0.013243
v 0.004582 0.027088 0.013243
v 0.005808 0.026380 0.009221
v 0.005818 0.026373 0.009221
v 0.005818 0.026373 0.013243
v 0.005714 0.026434 0.013243
f 1 2 7
f 1 7 3
f 1 3 8
f 1 8 17
f 1 17 18
f 1 18 9
f 1 9 4
f 1 4 11
f 1 11 19
f 1 19 23
f 1 23 24
f 1 24 20
f 1 20 13
f 1 13 12
f 1 12 5
f 1 5 2
f 2 5 6
f 2 6 7
f 3 7 6
f 3 6 14
f 3 14 21
f 3 21 22
f 3 22 15
f 3 15 8
f 4 9 10
f 4 10 11
f 5 12 6
f 6 12 13
f 6 13 14
f 8 15 16
f 8 16 17
f 9 18 16
f 9 16 10
f 10 16 15
f 10 15 22
f 10 22 23
f 10 23 19
f 10 19 11
f 13 20 14
f 14 20 21
f 16 18 17
f 20 24 21
f 21 24 23
f 21 23 22
