v 0.015165 0.001309 0.020589
v 0.013637 0.001309 0.019118
v 0.015275 -0.001454 0.020589
v 0.025750 0.001309 0.020589
v 0.013727 0.001309 0.018541
v 0.013613 -0.001454 0.018382
v 0.013682 -0.001454 0.018819
v 0.013759 -0.001454 0.019118
v 0.014878 -0.001454 0.020203
v 0.015275 -0.001454 0.020588
v 0.025003 -0.001454 0.020589
v 0.025750 -0.001454 0.020589
v 0.025750 0.001309 0.016901
v 0.013769 0.001309 0.018382
v 0.015278 0.001307 0.016901
v 0.015143 -0.001454 0.016901
v 0.025750 -0.001454 0.016901
v 0.015284 0.001309 0.016901
f 1 2 3
f 1 3 11
f 1 11 12
f 1 12 4
f 1 4 13
f 1 13 18
f 1 18 14
f 1 14 5
f 1 5 2
f 2 5 6
f 2 6 7
f 2 7 8
f 2 8 3
f 3 8 9
f 3 9 10
f 3 10 11
f 4 12 17
f 4 17 13
f 5 14 6
f 6 14 15
f 6 15 16
f 6 16 17
f 6 17 12
f 6 12 11
f 6 11 10
f 6 10 9
f 6 9 8
f 6 8 7
f 13 17 16
f 13 16 15
f 13 15 18
f 14 18 15
