v -0.025750 -0.006737 0.011029
v -0.025750 -0.009106 0.011029
v -0.013640 -0.006737 0.011029
v -0.025750 -0.006737 0.006618
v -0.025750 -0.009106 0.006618
v -0.012335 -0.009106 0.011029
v -0.009836 -0.009106 0.008824
v -0.011738 -0.006737 0.008824
v -0.013916 -0.006737 0.006618
v -0.012520 -0.009106 0.006618
v -0.012405 -0.009106 0.006711
v -0.012249 -0.006737 0.008089
f 1 2 6
f 1 6 3
f 1 3 8
f 1 8 12
f 1 12 9
f 1 9 4
f 1 4 5
f 1 5 2
f 2 5 10
f 2 10 11
f 2 11 7
f 2 7 6
f 3 6 7
f 3 7 8
f 4 9 10
f 4 10 5
f 7 11 9
f 7 9 12
f 7 12 8
f 9 11 10
