v 0.014629 0.004147 0.008722
v 0.012905 0.004147 0.006618
v 0.015051 0.001310 0.008722
v 0.025750 0.004147 0.008722
v 0.013344 0.004147 0.005882
v 0.013768 0.001310 0.005882
v 0.013727 0.001310 0.006042
v 0.013637 0.001310 0.006618
v 0.025750 0.001310 0.008722
v 0.025750 0.004147 0.004411
v 0.013352 0.004147 0.005875
v 0.014032 0.001310 0.005626
v 0.025750 0.001310 0.004411
v 0.014901 0.004147 0.004411
v 0.014794 0.001310 0.004886
v 0.015283 0.001310 0.004411
f 1 2 3
f 1 3 9
f 1 9 4
f 1 4 10
f 1 10 14
f 1 14 11
f 1 11 5
f 1 5 2
f 2 5 6
f 2 6 7
f 2 7 8
f 2 8 3
f 3 8 7
f 3 7 6
f 3 6 12
f 3 12 15
f 3 15 16
f 3 16 13
f 3 13 9
f 4 9 13
f 4 13 10
f 5 11 6
f 6 11 12
f 10 13 16
f 10 16 14
f 11 15 12
f 11 14 16
f 11 16 15
