v 0.025750 0.009106 0.016036
v 0.025750 0.014115 0.016036
v 0.025750 0.009106 0.016913
v 0.011175 0.009106 0.016036
v 0.025676 0.014732 0.016036
v 0.025750 0.014115 0.016913
v 0.012353 0.009106 0.016913
v 0.011449 0.009106 0.016240
v 0.008894 0.011160 0.016036
v 0.025658 0.014878 0.016036
v 0.025658 0.014878 0.016913
v 0.008894 0.012252 0.016913
v 0.008894 0.024598 0.016036
v 0.025559 0.014978 0.016036
v 0.025559 0.014978 0.016912
v 0.025557 0.014978 0.016913
v 0.008894 0.024598 0.016913
v 0.008921 0.024583 0.016036
v 0.024942 0.015334 0.016036
v 0.023087 0.016405 0.016913
v 0.024032 0.015859 0.016913
v 0.009874 0.024033 0.016913
v 0.012518 0.022507 0.016036
v 0.012518 0.022507 0.016913
v 0.015788 0.020619 0.016036
f 1 2 6
f 1 6 3
f 1 3 7
f 1 7 8
f 1 8 4
f 1 4 9
f 1 9 13
f 1 13 18
f 1 18 23
f 1 23 25
f 1 25 19
f 1 19 14
f 1 14 10
f 1 10 5
f 1 5 2
f 2 5 6
f 3 6 11
f 3 11 16
f 3 16 21
f 3 21 20
f 3 20 24
f 3 24 22
f 3 22 17
f 3 17 12
f 3 12 7
f 4 8 9
f 5 10 11
f 5 11 6
f 7 12 9
f 7 9 8
f 9 12 17
f 9 17 13
f 10 14 15
f 10 15 11
f 11 15 16
f 13 17 18
f 14 19 15
f 15 19 20
f 15 20 21
f 15 21 16
f 17 22 18
f 18 22 24
f 18 24 23
f 19 25 24
f 19 24 20
f 23 24 25
