v -0.014810 -0.001123 0.001470
v -0.015167 -0.001123 0.000735
v -0.015084 0.001933 0.000735
v -0.014879 0.001933 0.001433
v -0.014871 0.001933 0.001458
v -0.014868 0.001933 0.001470
v -0.014884 0.001933 0.001512
v -0.015200 0.001933 0.002205
v -0.015417 -0.001121 0.002205
v -0.015402 -0.001123 0.002183
v -0.015178 -0.001123 0.000723
v -0.015107 0.001933 0.000714
v -0.025720 0.001933 0.002205
v -0.015420 -0.001123 0.002205
v -0.015641 -0.001123 0.000275
v -0.015641 0.001933 0.000199
v -0.025749 0.001933 0.001496
v -0.025749 0.001933 0.002205
v -0.025749 -0.001123 0.002205
v -0.015663 -0.001123 0.000267
v -0.016405 -0.001123 0.000000
v -0.016405 0.001933 0.000000
v -0.025749 0.001933 0.001470
v -0.025749 -0.001123 0.001470
v -0.024032 -0.001123 0.000000
v -0.024032 0.001933 0.000000
v -0.025565 0.001933 0.001017
v -0.025558 0.001144 0.000945
v -0.025558 0.000381 0.000911
v -0.025558 -0.000381 0.000911
v -0.025558 -0.001123 0.000944
v -0.024055 -0.001123 0.000002
v -0.024796 -0.000381 0.000077
v -0.024796 0.000381 0.000077
v -0.024796 0.001144 0.000100
v -0.024796 0.001907 0.000145
v -0.024796 0.001933 0.000148
v -0.025558 0.001933 0.001004
v -0.025558 0.001907 0.001002
v -0.025451 0.001144 0.000735
v -0.025474 0.000381 0.000735
v -0.025556 -0.001123 0.000939
v -0.025474 -0.000381 0.000735
v -0.024796 -0.001123 0.000099
v -0.025451 -0.001123 0.000735
v -0.025405 0.001907 0.000735
v -0.025403 0.001933 0.000735
f 1 2 3
f 1 3 4
f 1 4 5
f 1 5 6
f 1 6 7
f 1 7 8
f 1 8 9
f 1 9 10
f 1 10 14
f 1 14 19
f 1 19 24
f 1 24 31
f 1 31 42
f 1 42 45
f 1 45 44
f 1 44 32
f 1 32 25
f 1 25 21
f 1 21 20
f 1 20 15
f 1 15 11
f 1 11 2
f 2 11 3
f 3 11 12
f 3 12 16
f 3 16 22
f 3 22 26
f 3 26 37
f 3 37 47
f 3 47 38
f 3 38 27
f 3 27 23
f 3 23 17
f 3 17 13
f 3 13 8
f 3 8 7
f 3 7 6
f 3 6 5
f 3 5 4
f 8 13 18
f 8 18 19
f 8 19 14
f 8 14 9
f 9 14 10
f 11 15 12
f 12 15 16
f 13 17 18
f 15 20 16
f 16 20 21
f 16 21 22
f 17 23 24
f 17 24 19
f 17 19 18
f 21 25 26
f 21 26 22
f 23 27 28
f 23 28 29
f 23 29 30
f 23 30 24
f 24 30 31
f 25 32 33
f 25 33 34
f 25 34 26
f 26 34 35
f 26 35 36
f 26 36 37
f 27 38 39
f 27 39 28
f 28 39 40
f 28 40 41
f 28 41 29
f 29 41 43
f 29 43 30
f 30 42 31
f 30 43 42
f 32 44 33
f 33 44 45
f 33 45 43
f 33 43 41
f 33 41 34
f 34 41 40
f 34 40 35
f 35 40 46
f 35 46 36
f 36 46 47
f 36 47 37
f 38 47 46
f 38 46 40
f 38 40 39
f 42 43 45
