v 0.009335 -0.024342 0.003675
v 0.009335 -0.024344 0.003677
v 0.009335 -0.024134 0.003675
v 0.009537 -0.024227 0.003675
v 0.009335 -0.024344 0.007547
v 0.011063 -0.023346 0.003675
v 0.009335 -0.012257 0.003675
v 0.011063 -0.023346 0.008080
v 0.009337 -0.024342 0.008080
v 0.009335 -0.023753 0.008080
v 0.011140 -0.023302 0.003675
v 0.009335 -0.010502 0.005041
v 0.011140 -0.007469 0.005882
v 0.011139 -0.010788 0.003675
v 0.011140 -0.023302 0.008080
v 0.009335 -0.011949 0.008080
v 0.011140 -0.010791 0.003675
v 0.009335 -0.010367 0.005147
v 0.011138 -0.010444 0.008080
v 0.011140 -0.010448 0.008080
v 0.009335 -0.009832 0.005882
f 1 2 3
f 1 3 7
f 1 7 14
f 1 14 17
f 1 17 11
f 1 11 6
f 1 6 4
f 1 4 2
f 2 5 10
f 2 10 16
f 2 16 21
f 2 21 18
f 2 18 12
f 2 12 7
f 2 7 3
f 2 4 6
f 2 6 8
f 2 8 5
f 5 8 9
f 5 9 10
f 6 11 15
f 6 15 8
f 7 12 13
f 7 13 14
f 8 15 20
f 8 20 19
f 8 19 16
f 8 16 10
f 8 10 9
f 11 17 13
f 11 13 20
f 11 20 15
f 12 18 13
f 13 19 20
f 13 17 14
f 13 18 21
f 13 21 16
f 13 16 19
