v -0.011902 0.006487 0.003678
v -0.012375 0.006487 0.004412
v -0.011905 0.006487 0.003673
v -0.008604 0.010379 0.003677
v -0.008604 0.010472 0.003746
v -0.009888 0.011695 0.005884
v -0.014025 0.006487 0.005884
v -0.008604 0.011695 0.002447
v -0.008604 0.011235 0.002814
v -0.008604 0.011156 0.002879
v -0.008604 0.011080 0.002941
v -0.013641 0.006487 0.002208
v -0.008604 0.011695 0.004644
v -0.025389 0.011695 0.005884
v -0.025750 0.006487 0.005884
v -0.009035 0.011695 0.002208
v -0.025636 0.006487 0.002208
v -0.025750 0.011695 0.005882
v -0.025750 0.011064 0.005884
v -0.025750 0.006487 0.002943
v -0.024327 0.011695 0.002208
v -0.025750 0.006488 0.002208
v -0.025750 0.011695 0.003677
v -0.024622 0.011063 0.002208
v -0.025050 0.011695 0.002842
v -0.025750 0.007251 0.002208
v -0.025750 0.009537 0.002941
v -0.025716 0.011695 0.003585
v -0.025705 0.010300 0.002941
v -0.025713 0.008013 0.002208
v -0.024795 0.010663 0.002208
v -0.025448 0.011063 0.002941
v -0.025161 0.011695 0.002941
v -0.025559 0.011695 0.003344
v -0.025559 0.010800 0.002941
v -0.025710 0.008032 0.002208
v -0.025559 0.010300 0.002754
v -0.025559 0.008677 0.002208
v -0.024953 0.010296 0.002208
v -0.025527 0.008775 0.002208
v -0.025251 0.009537 0.002208
f 1 2 7
f 1 7 15
f 1 15 20
f 1 20 17
f 1 17 12
f 1 12 3
f 1 3 4
f 1 4 2
f 2 4 5
f 2 5 6
f 2 6 7
f 3 8 9
f 3 9 10
f 3 10 11
f 3 11 4
f 3 12 8
f 4 11 10
f 4 10 9
f 4 9 8
f 4 8 13
f 4 13 5
f 5 13 6
f 6 13 8
f 6 8 16
f 6 16 21
f 6 21 25
f 6 25 33
f 6 33 34
f 6 34 28
f 6 28 23
f 6 23 18
f 6 18 14
f 6 14 19
f 6 19 15
f 6 15 7
f 8 12 16
f 12 17 22
f 12 22 26
f 12 26 30
f 12 30 36
f 12 36 38
f 12 38 40
f 12 40 41
f 12 41 39
f 12 39 31
f 12 31 24
f 12 24 21
f 12 21 16
f 14 18 19
f 15 19 18
f 15 18 23
f 15 23 27
f 15 27 26
f 15 26 22
f 15 22 20
f 17 20 22
f 21 24 25
f 23 28 29
f 23 29 30
f 23 30 27
f 24 31 32
f 24 32 25
f 25 32 33
f 26 27 30
f 28 34 35
f 28 35 29
f 29 36 30
f 29 35 37
f 29 37 38
f 29 38 36
f 31 39 32
f 32 35 34
f 32 34 33
f 32 39 35
f 35 39 37
f 37 40 38
f 37 39 41
f 37 41 40
