v 0.014116 0.004147 0.025000
v 0.013525 0.004147 0.024264
v 0.014116 0.001310 0.025000
v 0.025559 0.004147 0.025000
v 0.013174 0.004147 0.023529
v 0.013515 0.001310 0.022794
v 0.025559 0.001310 0.025000
v 0.025738 0.004147 0.024312
v 0.013169 0.004147 0.023511
v 0.013163 0.004147 0.023482
v 0.013083 0.004147 0.022794
v 0.014537 0.004147 0.020730
v 0.015150 0.001310 0.020730
v 0.025749 0.001310 0.024264
v 0.025749 0.004147 0.024264
v 0.025749 0.004147 0.020730
v 0.025749 0.001310 0.020730
f 1 2 3
f 1 3 7
f 1 7 4
f 1 4 8
f 1 8 15
f 1 15 16
f 1 16 12
f 1 12 11
f 1 11 10
f 1 10 9
f 1 9 5
f 1 5 2
f 2 5 3
f 3 5 6
f 3 6 13
f 3 13 17
f 3 17 14
f 3 14 7
f 4 7 8
f 5 9 6
f 6 9 10
f 6 10 11
f 6 11 12
f 6 12 13
f 7 14 8
f 8 14 15
f 12 16 17
f 12 17 13
f 14 17 16
f 14 16 15
