v -0.025750 0.014116 0.024265
v -0.025558 0.014879 0.025000
v -0.025658 0.014879 0.024265
v -0.025750 0.014116 0.022354
v -0.025750 0.006487 0.024265
v -0.021743 0.017166 0.025000
v -0.025558 0.014976 0.024265
v -0.025558 0.006487 0.025000
v -0.025658 0.014879 0.022354
v -0.025750 0.006487 0.022354
v -0.024796 0.015417 0.024265
v -0.016404 0.020218 0.025000
v -0.011133 0.023307 0.024265
v -0.013839 0.021744 0.024265
v -0.025558 0.014976 0.022354
v -0.012591 0.006487 0.025000
v -0.013660 0.006487 0.022354
v -0.022741 0.016604 0.022354
v -0.024796 0.015417 0.022354
v -0.011133 0.023201 0.025000
v -0.011133 0.023269 0.024618
v -0.011133 0.023307 0.022354
v -0.017423 0.019675 0.022354
v -0.012195 0.006487 0.024266
v -0.011827 0.007249 0.025000
v -0.011133 0.008021 0.024265
v -0.011133 0.010287 0.022354
v -0.011133 0.008706 0.025000
v -0.011133 0.008090 0.024340
f 1 2 3
f 1 3 9
f 1 9 4
f 1 4 10
f 1 10 5
f 1 5 8
f 1 8 2
f 2 6 7
f 2 7 3
f 2 8 16
f 2 16 25
f 2 25 28
f 2 28 20
f 2 20 12
f 2 12 6
f 3 7 15
f 3 15 9
f 4 9 15
f 4 15 19
f 4 19 18
f 4 18 23
f 4 23 22
f 4 22 27
f 4 27 17
f 4 17 10
f 5 10 17
f 5 17 24
f 5 24 16
f 5 16 8
f 6 11 7
f 6 12 13
f 6 13 14
f 6 14 11
f 7 11 19
f 7 19 15
f 11 18 19
f 11 14 18
f 12 20 21
f 12 21 13
f 13 21 20
f 13 20 28
f 13 28 29
f 13 29 26
f 13 26 27
f 13 27 22
f 13 22 23
f 13 23 14
f 14 23 18
f 16 24 25
f 17 26 24
f 17 27 26
f 24 26 25
f 25 26 29
f 25 29 28
