v -0.025750 -0.001123 0.006615
v -0.025750 -0.001123 0.002206
v -0.025750 -0.004035 0.006615
v -0.015166 -0.001123 0.006615
v -0.015419 -0.001123 0.002206
v -0.025750 -0.004034 0.002206
v -0.025750 -0.004035 0.002362
v -0.014795 -0.004035 0.006615
v -0.012809 -0.004035 0.004411
v -0.013540 -0.001123 0.004411
v -0.014661 -0.001123 0.002942
v -0.014944 -0.004035 0.002206
v -0.025597 -0.004035 0.002206
v -0.012880 -0.004035 0.004329
v -0.013905 -0.001123 0.003677
v -0.014115 -0.001123 0.003472
v -0.013499 -0.004035 0.003677
f 1 2 6
f 1 6 7
f 1 7 3
f 1 3 8
f 1 8 4
f 1 4 10
f 1 10 15
f 1 15 16
f 1 16 11
f 1 11 5
f 1 5 2
f 2 5 12
f 2 12 13
f 2 13 6
f 3 7 13
f 3 13 12
f 3 12 17
f 3 17 14
f 3 14 9
f 3 9 8
f 4 8 9
f 4 9 10
f 5 11 12
f 6 13 7
f 9 14 15
f 9 15 10
f 11 16 12
f 12 16 15
f 12 15 17
f 14 17 15
