v 0.009335 -0.010621 0.024265
v 0.009335 -0.011063 0.024794
v 0.011140 -0.008731 0.024307
v 0.011140 -0.008717 0.024265
v 0.011139 -0.009267 0.023529
v 0.009335 -0.011072 0.023726
v 0.009335 -0.011265 0.025000
v 0.011063 -0.009538 0.025000
v 0.011140 -0.009462 0.025000
v 0.009537 -0.011063 0.025000
v 0.011140 -0.009267 0.023529
v 0.011140 -0.011273 0.023529
v 0.009335 -0.011244 0.023529
v 0.009335 -0.024032 0.025000
v 0.011140 -0.023192 0.025000
v 0.011140 -0.023301 0.023529
v 0.009335 -0.024342 0.023529
v 0.009335 -0.024342 0.024265
v 0.009537 -0.024032 0.025000
v 0.011063 -0.023270 0.025000
v 0.011140 -0.023270 0.024571
v 0.011140 -0.023301 0.024265
v 0.009537 -0.024226 0.023529
v 0.009537 -0.024226 0.024265
f 1 2 3
f 1 3 4
f 1 4 5
f 1 5 6
f 1 6 13
f 1 13 17
f 1 17 18
f 1 18 14
f 1 14 7
f 1 7 2
f 2 7 3
f 3 8 9
f 3 9 15
f 3 15 21
f 3 21 22
f 3 22 16
f 3 16 12
f 3 12 11
f 3 11 4
f 3 7 10
f 3 10 8
f 4 11 5
f 5 11 12
f 5 12 16
f 5 16 23
f 5 23 17
f 5 17 13
f 5 13 6
f 7 14 19
f 7 19 20
f 7 20 15
f 7 15 9
f 7 9 8
f 7 8 10
f 14 18 19
f 15 20 21
f 16 22 24
f 16 24 23
f 17 23 24
f 17 24 18
f 18 24 20
f 18 20 19
f 20 24 21
f 21 24 22
