v 0.015165 0.001309 0.008090
v 0.013637 0.001309 0.006617
v 0.015274 -0.001453 0.008090
v 0.025750 0.001309 0.008090
v 0.013727 0.001309 0.006041
v 0.013613 -0.001454 0.005882
v 0.013682 -0.001454 0.006319
v 0.013759 -0.001454 0.006617
v 0.015275 -0.001454 0.008088
v 0.015282 -0.001454 0.008090
v 0.014517 -0.001454 0.007353
v 0.014878 -0.001454 0.007703
v 0.025750 -0.001454 0.008090
v 0.025750 0.001309 0.004412
v 0.013769 0.001309 0.005882
v 0.015064 -0.001454 0.004489
v 0.014033 0.001309 0.005626
v 0.014526 0.001309 0.005147
v 0.014878 0.001309 0.004805
v 0.015284 0.001309 0.004412
v 0.025750 -0.001454 0.004412
v 0.025584 0.001309 0.004412
v 0.015145 -0.001454 0.004412
v 0.024959 0.001309 0.004412
v 0.025320 -0.001454 0.004412
v 0.025004 -0.001454 0.004412
f 1 2 3
f 1 3 10
f 1 10 13
f 1 13 4
f 1 4 14
f 1 14 22
f 1 22 24
f 1 24 20
f 1 20 19
f 1 19 18
f 1 18 17
f 1 17 15
f 1 15 5
f 1 5 2
f 2 5 6
f 2 6 7
f 2 7 8
f 2 8 3
f 3 9 10
f 3 8 11
f 3 11 12
f 3 12 9
f 4 13 21
f 4 21 14
f 5 15 6
f 6 16 23
f 6 23 26
f 6 26 25
f 6 25 21
f 6 21 13
f 6 13 10
f 6 10 9
f 6 9 12
f 6 12 11
f 6 11 8
f 6 8 7
f 6 15 17
f 6 17 18
f 6 18 19
f 6 19 20
f 6 20 16
f 14 21 22
f 16 20 23
f 20 24 23
f 21 25 22
f 22 25 26
f 22 26 24
f 23 24 26
