v -0.003433 0.015642 0.000001
v -0.004548 0.015642 0.000001
v 0.000004 0.016404 0.000001
v 0.000004 0.015642 0.000317
v -0.004548 0.014878 0.000392
v -0.004548 0.024033 0.000001
v 0.000004 0.024033 0.000001
v 0.000004 0.015424 0.000527
v -0.004548 0.014506 0.000735
v -0.004548 0.014648 0.000605
v -0.004548 0.024795 0.000479
v -0.004196 0.024795 0.000417
v -0.003433 0.024795 0.000304
v -0.002670 0.024795 0.000213
v -0.001908 0.024795 0.000145
v -0.001145 0.024795 0.000100
v -0.000382 0.024795 0.000077
v 0.000004 0.024409 0.000038
v 0.000004 0.015218 0.000735
v 0.000004 0.013574 0.002941
v -0.004548 0.013032 0.002941
v -0.004548 0.025065 0.000735
v -0.004548 0.025327 0.000986
v -0.004548 0.026093 0.001718
v -0.004196 0.025897 0.001471
v -0.003433 0.025245 0.000735
v -0.004196 0.026664 0.002206
v -0.002670 0.026098 0.001471
v -0.003433 0.026772 0.002206
v -0.003433 0.027535 0.002941
v -0.001908 0.025405 0.000735
v -0.002670 0.027619 0.002941
v -0.001145 0.026210 0.001471
v -0.001908 0.027848 0.003100
v 0.000004 0.024795 0.000077
v -0.001145 0.028483 0.003676
v -0.000382 0.027848 0.003039
v 0.000004 0.027420 0.002623
v 0.000004 0.013743 0.003304
v -0.004548 0.012945 0.003676
v -0.004548 0.012971 0.003280
v -0.004548 0.026602 0.002206
v -0.004196 0.027084 0.002648
v -0.004196 0.027309 0.002941
v -0.001908 0.028441 0.003676
v -0.000382 0.029260 0.004411
v 0.000004 0.028939 0.004099
v 0.000004 0.013953 0.003676
v -0.004548 0.014566 0.005152
v 0.000004 0.015465 0.005152
v -0.004548 0.027107 0.002941
v -0.002670 0.028192 0.003676
v -0.001145 0.029072 0.004411
v -0.000382 0.029374 0.004704
v 0.000004 0.029317 0.004556
v 0.000004 0.029260 0.004411
v -0.004548 0.027107 0.005152
v 0.000004 0.029512 0.005152
v -0.002665 0.028195 0.005152
v -0.003265 0.027848 0.003676
v -0.000623 0.029374 0.005147
v -0.000384 0.029512 0.005152
v -0.000382 0.029512 0.005147
v 0.000004 0.029444 0.004928
v 0.000004 0.029374 0.004704
v 0.000004 0.029512 0.005147
v -0.000623 0.029374 0.005152
f 1 2 6
f 1 6 7
f 1 7 3
f 1 3 4
f 1 4 5
f 1 5 2
f 2 5 10
f 2 10 9
f 2 9 21
f 2 21 41
f 2 41 40
f 2 40 49
f 2 49 57
f 2 57 51
f 2 51 42
f 2 42 24
f 2 24 23
f 2 23 22
f 2 22 11
f 2 11 6
f 3 7 18
f 3 18 35
f 3 35 38
f 3 38 47
f 3 47 56
f 3 56 55
f 3 55 65
f 3 65 64
f 3 64 66
f 3 66 58
f 3 58 50
f 3 50 48
f 3 48 39
f 3 39 20
f 3 20 19
f 3 19 8
f 3 8 4
f 4 8 9
f 4 9 10
f 4 10 5
f 6 11 12
f 6 12 13
f 6 13 14
f 6 14 15
f 6 15 16
f 6 16 17
f 6 17 18
f 6 18 7
f 8 19 9
f 9 20 21
f 9 19 20
f 11 22 12
f 12 22 23
f 12 23 24
f 12 24 25
f 12 25 13
f 13 26 14
f 13 25 27
f 13 27 26
f 14 28 15
f 14 26 29
f 14 29 30
f 14 30 28
f 15 31 16
f 15 28 32
f 15 32 31
f 16 33 17
f 16 31 34
f 16 34 33
f 17 35 18
f 17 33 36
f 17 36 37
f 17 37 38
f 17 38 35
f 20 39 40
f 20 40 41
f 20 41 21
f 24 42 27
f 24 27 25
f 26 27 29
f 27 42 30
f 27 30 29
f 28 30 32
f 30 42 43
f 30 43 44
f 30 44 45
f 30 45 32
f 31 32 34
f 32 45 34
f 33 34 36
f 34 45 36
f 36 45 46
f 36 46 37
f 37 46 47
f 37 47 38
f 39 48 40
f 40 48 50
f 40 50 49
f 42 51 44
f 42 44 43
f 44 51 52
f 44 52 45
f 45 52 53
f 45 53 46
f 46 53 54
f 46 54 55
f 46 55 56
f 46 56 47
f 49 50 58
f 49 58 62
f 49 62 67
f 49 67 59
f 49 59 57
f 51 57 59
f 51 59 60
f 51 60 52
f 52 59 61
f 52 61 53
f 52 60 59
f 53 61 62
f 53 62 63
f 53 63 54
f 54 63 64
f 54 64 65
f 54 65 55
f 58 66 63
f 58 63 62
f 59 67 61
f 61 67 62
f 63 66 64
