v -0.008214 -0.024991 0.019117
v -0.008214 -0.012821 0.019117
v -0.008214 -0.024991 0.023172
v -0.008379 -0.024896 0.023172
v -0.008775 -0.024668 0.019117
v -0.009838 -0.009106 0.021323
v -0.008214 -0.010719 0.021323
v -0.012519 -0.009106 0.019117
v -0.008214 -0.012329 0.023172
v -0.008775 -0.024668 0.023172
v -0.024033 -0.015859 0.019117
v -0.008214 -0.011339 0.022058
v -0.011831 -0.009106 0.023172
v -0.025426 -0.009106 0.019117
v -0.013982 -0.021662 0.023172
v -0.023088 -0.016405 0.023172
v -0.024409 -0.015641 0.023172
v -0.025187 -0.015192 0.023172
v -0.025558 -0.014977 0.019117
v -0.025750 -0.009106 0.023172
v -0.025750 -0.009108 0.019117
v -0.025750 -0.009106 0.019118
v -0.025558 -0.014977 0.023172
v -0.025608 -0.014929 0.023172
v -0.025657 -0.014878 0.019117
v -0.025750 -0.014116 0.023172
v -0.025750 -0.014116 0.019117
v -0.025657 -0.014878 0.023172
v -0.025705 -0.014486 0.023172
f 1 2 7
f 1 7 12
f 1 12 9
f 1 9 3
f 1 3 4
f 1 4 5
f 1 5 11
f 1 11 19
f 1 19 25
f 1 25 27
f 1 27 21
f 1 21 14
f 1 14 8
f 1 8 2
f 2 6 7
f 2 8 6
f 3 9 13
f 3 13 20
f 3 20 26
f 3 26 29
f 3 29 28
f 3 28 24
f 3 24 23
f 3 23 18
f 3 18 17
f 3 17 16
f 3 16 15
f 3 15 10
f 3 10 4
f 4 10 5
f 5 10 11
f 6 9 12
f 6 12 7
f 6 8 14
f 6 14 22
f 6 22 20
f 6 20 13
f 6 13 9
f 10 15 11
f 11 16 17
f 11 17 18
f 11 18 19
f 11 15 16
f 14 21 22
f 18 23 19
f 19 23 24
f 19 24 25
f 20 22 21
f 20 21 27
f 20 27 26
f 24 28 25
f 25 28 29
f 25 29 27
f 26 27 29
