v -0.008602 0.024719 0.001471
v -0.008602 0.024399 0.001142
v -0.008602 0.024531 0.001472
v -0.008601 0.024719 0.001472
v -0.008012 0.024980 0.001472
v -0.008011 0.024980 0.001471
v -0.008602 0.024033 0.000785
v -0.008602 0.012882 0.001472
v -0.007249 0.025212 0.001472
v -0.007248 0.025212 0.001471
v -0.007248 0.024796 0.001081
v -0.007248 0.024033 0.000372
v -0.008011 0.024796 0.001299
v -0.008011 0.024033 0.000596
v -0.008602 0.023944 0.000704
v -0.008602 0.012538 0.000735
v -0.004548 0.014602 0.001472
v -0.006485 0.025420 0.001472
v -0.006485 0.025420 0.001471
v -0.006485 0.024796 0.000884
v -0.006485 0.024033 0.000168
v -0.008602 0.023442 0.000247
v -0.004548 0.014506 0.000735
v -0.008602 0.012761 0.000553
v -0.004548 0.014878 0.000392
v -0.004548 0.014646 0.000604
v -0.004548 0.025834 0.001472
v -0.005722 0.025604 0.001472
v -0.005722 0.024796 0.000707
v -0.005722 0.024033 0.000000
v -0.008602 0.023270 0.000113
v -0.008602 0.013352 0.000086
v -0.005722 0.014878 0.000024
v -0.004548 0.015642 0.000000
v -0.004548 0.025834 0.001471
v -0.004959 0.025763 0.001472
v -0.004959 0.024990 0.000735
v -0.004959 0.024796 0.000551
v -0.004548 0.024796 0.000479
v -0.004548 0.024033 0.000000
v -0.008011 0.023270 0.000000
v -0.008602 0.022507 0.000000
v -0.008602 0.014115 0.000000
v -0.008011 0.014115 0.000000
v -0.004548 0.025065 0.000735
f 1 2 7
f 1 7 15
f 1 15 22
f 1 22 31
f 1 31 42
f 1 42 43
f 1 43 32
f 1 32 24
f 1 24 16
f 1 16 8
f 1 8 3
f 1 3 4
f 1 4 5
f 1 5 6
f 1 6 2
f 2 6 7
f 3 8 17
f 3 17 27
f 3 27 36
f 3 36 28
f 3 28 18
f 3 18 9
f 3 9 5
f 3 5 4
f 5 9 6
f 6 9 10
f 6 10 11
f 6 11 12
f 6 12 13
f 6 13 7
f 7 14 15
f 7 13 14
f 8 16 17
f 9 18 19
f 9 19 10
f 10 20 21
f 10 21 11
f 10 19 20
f 11 21 12
f 12 21 22
f 12 22 14
f 12 14 13
f 14 22 15
f 16 23 17
f 16 24 25
f 16 25 26
f 16 26 23
f 17 23 26
f 17 26 25
f 17 25 34
f 17 34 40
f 17 40 39
f 17 39 45
f 17 45 35
f 17 35 27
f 18 28 19
f 19 28 29
f 19 29 20
f 20 29 21
f 21 30 31
f 21 31 22
f 21 29 30
f 24 32 25
f 25 33 34
f 25 32 33
f 27 35 36
f 28 36 37
f 28 37 38
f 28 38 29
f 29 38 30
f 30 38 39
f 30 39 40
f 30 40 34
f 30 34 44
f 30 44 43
f 30 43 42
f 30 42 41
f 30 41 31
f 31 41 42
f 32 43 44
f 32 44 33
f 33 44 34
f 35 45 36
f 36 45 39
f 36 39 37
f 37 39 38
