v -0.025258 0.009516 0.002208
v -0.025252 0.009537 0.002208
v -0.025268 0.009486 0.002206
v -0.025241 0.009486 0.002208
v -0.025250 0.009537 0.002206
v -0.024947 0.010310 0.002208
v -0.025220 0.009486 0.002161
v -0.011955 0.009486 0.002208
v -0.024796 0.009537 0.001793
v -0.024796 0.010663 0.002208
v -0.024796 0.010658 0.002206
v -0.024796 0.010300 0.002068
v -0.023270 0.009537 0.000416
v -0.023624 0.009537 0.000736
v -0.024033 0.009537 0.001103
v -0.024796 0.009486 0.001776
v -0.011536 0.009486 0.002208
v -0.011491 0.009537 0.002208
v -0.024033 0.009486 0.001086
v -0.024622 0.011063 0.002208
v -0.024033 0.010300 0.001386
v -0.023270 0.010300 0.000707
v -0.022507 0.010300 0.000031
v -0.023270 0.009486 0.000398
v -0.023601 0.009486 0.000696
v -0.011884 0.009486 0.000736
v -0.009034 0.011694 0.002208
v -0.024327 0.011694 0.002208
v -0.024223 0.011694 0.002116
v -0.024033 0.011063 0.001686
v -0.023270 0.011063 0.001016
v -0.022507 0.011063 0.000349
v -0.021744 0.011694 0.000026
v -0.022507 0.009537 0.000000
v -0.022507 0.009486 0.000000
v -0.012589 0.009486 0.000196
v -0.009713 0.011694 0.000736
v -0.024033 0.011694 0.001950
v -0.022507 0.011694 0.000627
v -0.023392 0.011694 0.001392
v -0.023270 0.011694 0.001286
v -0.021744 0.011063 0.000000
v -0.020980 0.011694 0.000000
v -0.013352 0.009486 0.000000
v -0.012589 0.009537 0.000167
v -0.010433 0.011694 0.000281
v -0.011826 0.011694 0.000000
v -0.011826 0.011063 0.000000
v -0.011064 0.011694 0.000054
f 1 2 3
f 1 3 4
f 1 4 8
f 1 8 18
f 1 18 27
f 1 27 28
f 1 28 20
f 1 20 10
f 1 10 6
f 1 6 2
f 2 5 3
f 2 6 5
f 3 5 7
f 3 7 16
f 3 16 19
f 3 19 25
f 3 25 24
f 3 24 35
f 3 35 44
f 3 44 36
f 3 36 26
f 3 26 17
f 3 17 8
f 3 8 4
f 5 6 9
f 5 9 7
f 6 10 11
f 6 11 12
f 6 12 13
f 6 13 14
f 6 14 15
f 6 15 9
f 7 9 16
f 8 17 18
f 9 15 19
f 9 19 16
f 10 20 21
f 10 21 11
f 11 21 12
f 12 21 13
f 13 22 23
f 13 23 24
f 13 24 14
f 13 21 22
f 14 24 15
f 15 24 25
f 15 25 19
f 17 26 27
f 17 27 18
f 20 28 29
f 20 29 30
f 20 30 23
f 20 23 22
f 20 22 21
f 23 31 32
f 23 32 33
f 23 33 34
f 23 34 24
f 23 30 31
f 24 34 35
f 26 36 37
f 26 37 27
f 27 37 46
f 27 46 49
f 27 49 47
f 27 47 43
f 27 43 33
f 27 33 39
f 27 39 41
f 27 41 40
f 27 40 38
f 27 38 29
f 27 29 28
f 29 38 32
f 29 32 31
f 29 31 30
f 32 39 33
f 32 38 40
f 32 40 41
f 32 41 39
f 33 42 34
f 33 43 42
f 34 42 43
f 34 43 47
f 34 47 48
f 34 48 44
f 34 44 35
f 36 45 46
f 36 46 37
f 36 44 45
f 44 48 45
f 45 48 49
f 45 49 46
f 47 49 48
