v -0.008602 0.024767 0.009559
v -0.008601 0.024767 0.009559
v -0.006485 0.025989 0.009559
v -0.008602 0.024767 0.005879
v -0.008602 0.012679 0.009559
v -0.008551 0.024796 0.009559
v -0.004548 0.027108 0.009559
v -0.006485 0.025989 0.005879
v -0.008602 0.012591 0.005879
v -0.008602 0.012669 0.009559
v -0.004548 0.027108 0.005879
v -0.004548 0.014834 0.009559
v -0.008597 0.012591 0.005879
v -0.008602 0.010768 0.007353
v -0.008602 0.010717 0.008088
v -0.004548 0.014344 0.005879
v -0.004548 0.013218 0.008088
v -0.004548 0.013025 0.007112
v -0.004548 0.012769 0.007353
v -0.004548 0.012956 0.007692
v -0.004548 0.013213 0.008082
f 1 2 6
f 1 6 3
f 1 3 8
f 1 8 4
f 1 4 9
f 1 9 14
f 1 14 15
f 1 15 10
f 1 10 5
f 1 5 2
f 2 5 10
f 2 10 12
f 2 12 7
f 2 7 6
f 3 7 11
f 3 11 8
f 3 6 7
f 4 8 11
f 4 11 16
f 4 16 13
f 4 13 9
f 7 12 17
f 7 17 21
f 7 21 20
f 7 20 19
f 7 19 18
f 7 18 16
f 7 16 11
f 9 13 14
f 10 15 12
f 12 15 17
f 13 16 14
f 14 18 19
f 14 19 15
f 14 16 18
f 15 19 20
f 15 20 21
f 15 21 17
