v 0.012510 -0.005659 0.013971
v 0.012510 -0.005808 0.014624
v 0.012898 -0.004777 0.014706
v 0.012899 -0.004777 0.014147
v 0.012920 -0.004777 0.013971
v 0.012510 -0.008514 0.012387
v 0.012510 -0.005855 0.014706
v 0.014375 -0.004777 0.016590
v 0.012510 -0.008502 0.016590
v 0.014502 -0.004777 0.012387
v 0.012510 -0.022511 0.012387
v 0.025750 -0.004777 0.016590
v 0.012510 -0.022511 0.016590
v 0.025750 -0.004777 0.012387
v 0.016470 -0.020225 0.012387
v 0.025750 -0.014115 0.016590
v 0.019124 -0.018692 0.016590
v 0.025750 -0.014115 0.012387
v 0.023604 -0.016106 0.016590
v 0.019058 -0.018730 0.012387
v 0.025710 -0.014448 0.016590
v 0.025658 -0.014877 0.012387
v 0.024352 -0.015673 0.012387
v 0.024796 -0.015417 0.012387
v 0.024796 -0.015417 0.016590
v 0.025658 -0.014877 0.016590
v 0.025615 -0.014920 0.016590
v 0.025642 -0.014892 0.012387
v 0.025558 -0.014976 0.012387
v 0.025129 -0.015224 0.016590
v 0.025558 -0.014976 0.016590
f 1 2 3
f 1 3 4
f 1 4 5
f 1 5 6
f 1 6 11
f 1 11 13
f 1 13 9
f 1 9 7
f 1 7 2
f 2 7 3
f 3 8 12
f 3 12 14
f 3 14 10
f 3 10 5
f 3 5 4
f 3 7 9
f 3 9 8
f 5 10 6
f 6 10 14
f 6 14 18
f 6 18 22
f 6 22 28
f 6 28 29
f 6 29 24
f 6 24 23
f 6 23 20
f 6 20 15
f 6 15 11
f 8 9 13
f 8 13 17
f 8 17 19
f 8 19 25
f 8 25 30
f 8 30 31
f 8 31 27
f 8 27 26
f 8 26 21
f 8 21 16
f 8 16 12
f 11 15 13
f 12 16 18
f 12 18 14
f 13 15 17
f 15 19 17
f 15 20 19
f 16 21 18
f 18 21 22
f 19 23 24
f 19 24 25
f 19 20 23
f 21 26 22
f 22 27 28
f 22 26 27
f 24 29 30
f 24 30 25
f 27 31 29
f 27 29 28
f 29 31 30
