v 0.009337 -0.024342 0.008080
v 0.009335 -0.024344 0.008088
v 0.009335 -0.023752 0.008080
v 0.011063 -0.023346 0.008080
v 0.009535 -0.024228 0.011767
v 0.009335 -0.024344 0.011767
v 0.011061 -0.023347 0.011767
v 0.009335 -0.011951 0.008080
v 0.011140 -0.023301 0.008080
v 0.009335 -0.012259 0.011767
v 0.011140 -0.023301 0.011767
v 0.009335 -0.010036 0.009559
v 0.011140 -0.008208 0.009559
v 0.011138 -0.010444 0.008080
v 0.011140 -0.010447 0.008080
v 0.009336 -0.012246 0.011767
v 0.009335 -0.012249 0.011764
v 0.011140 -0.010474 0.011767
v 0.009335 -0.010200 0.010294
v 0.011140 -0.007948 0.010294
f 1 2 3
f 1 3 8
f 1 8 14
f 1 14 15
f 1 15 9
f 1 9 4
f 1 4 2
f 2 5 6
f 2 6 10
f 2 10 17
f 2 17 19
f 2 19 12
f 2 12 8
f 2 8 3
f 2 4 7
f 2 7 5
f 4 9 7
f 5 7 11
f 5 11 18
f 5 18 16
f 5 16 10
f 5 10 6
f 7 9 11
f 8 12 13
f 8 13 14
f 9 15 13
f 9 13 20
f 9 20 18
f 9 18 11
f 10 16 17
f 12 19 20
f 12 20 13
f 13 15 14
f 16 18 20
f 16 20 19
f 16 19 17
