v -0.025750 -0.004036 0.011022
v -0.025750 -0.006737 0.011022
v -0.025632 -0.004035 0.011022
v -0.025750 -0.004035 0.010450
v -0.025750 -0.006737 0.007111
v -0.013737 -0.006737 0.011022
v -0.014538 -0.004035 0.011022
v -0.025750 -0.004035 0.006625
v -0.025750 -0.006734 0.006625
v -0.014097 -0.006737 0.006625
v -0.011738 -0.006737 0.008823
v -0.013640 -0.006734 0.011022
v -0.013079 -0.004035 0.008823
v -0.014788 -0.004035 0.006625
v -0.013908 -0.006737 0.006625
v -0.012249 -0.006737 0.008088
v -0.013241 -0.004035 0.008088
v -0.013352 -0.004035 0.007983
f 1 2 6
f 1 6 12
f 1 12 7
f 1 7 3
f 1 3 4
f 1 4 8
f 1 8 9
f 1 9 5
f 1 5 2
f 2 5 10
f 2 10 15
f 2 15 16
f 2 16 11
f 2 11 6
f 3 7 13
f 3 13 17
f 3 17 18
f 3 18 14
f 3 14 8
f 3 8 4
f 5 9 10
f 6 11 12
f 7 12 11
f 7 11 13
f 8 14 15
f 8 15 10
f 8 10 9
f 11 16 17
f 11 17 13
f 14 18 16
f 14 16 15
f 16 18 17
