v -0.025750 -0.006738 0.014705
v -0.025750 -0.009106 0.014705
v -0.013845 -0.006737 0.014705
v -0.025750 -0.006737 0.014463
v -0.025750 -0.009106 0.011445
v -0.012189 -0.009106 0.014705
v -0.013787 -0.006737 0.014705
v -0.025750 -0.006737 0.011030
v -0.025750 -0.009106 0.011030
v -0.012340 -0.009106 0.011030
v -0.010157 -0.009106 0.013235
v -0.012036 -0.006737 0.013235
v -0.013640 -0.006737 0.011030
v -0.012335 -0.009106 0.011030
v -0.010467 -0.009106 0.012500
v -0.011971 -0.006737 0.012500
v -0.011980 -0.006737 0.012818
v -0.010540 -0.009106 0.012442
f 1 2 6
f 1 6 7
f 1 7 3
f 1 3 4
f 1 4 8
f 1 8 9
f 1 9 5
f 1 5 2
f 2 5 10
f 2 10 14
f 2 14 18
f 2 18 15
f 2 15 11
f 2 11 6
f 3 7 12
f 3 12 17
f 3 17 16
f 3 16 13
f 3 13 8
f 3 8 4
f 5 9 10
f 6 11 7
f 7 11 12
f 8 13 14
f 8 14 10
f 8 10 9
f 11 15 16
f 11 16 17
f 11 17 12
f 13 16 15
f 13 15 18
f 13 18 14
