v -0.012919 -0.006737 0.001470
v -0.013785 -0.006737 0.002210
v -0.013110 -0.006737 0.001271
v -0.014659 -0.004035 0.000735
v -0.014148 -0.004035 0.001470
v -0.014226 -0.004035 0.001544
v -0.014940 -0.004035 0.002210
v -0.025699 -0.006737 0.002210
v -0.013628 -0.006737 0.000735
v -0.014878 -0.004035 0.000531
v -0.025750 -0.004035 0.002210
v -0.025750 -0.006735 0.002210
v -0.025750 -0.006737 0.002206
v -0.013869 -0.006737 0.000523
v -0.015040 -0.004035 0.000388
v -0.025750 -0.004035 0.001470
v -0.025750 -0.004196 0.001470
v -0.025709 -0.004960 0.001470
v -0.025597 -0.005722 0.001470
v -0.025559 -0.006737 0.001768
v -0.014116 -0.006737 0.000312
v -0.014878 -0.005722 0.000024
v -0.015642 -0.004035 0.000000
v -0.025559 -0.004035 0.001173
v -0.025559 -0.004196 0.001185
v -0.025559 -0.004960 0.001277
v -0.025559 -0.005722 0.001429
v -0.025559 -0.005906 0.001470
v -0.025466 -0.006737 0.001604
v -0.014627 -0.006737 0.000031
v -0.014878 -0.006485 0.000000
v -0.024033 -0.004035 0.000000
v -0.025493 -0.004035 0.001089
v -0.025153 -0.004035 0.000735
v -0.025128 -0.004196 0.000735
v -0.024795 -0.004196 0.000416
v -0.024795 -0.004960 0.000551
v -0.024826 -0.005722 0.000735
v -0.025420 -0.006485 0.001470
v -0.025352 -0.006737 0.001470
v -0.014878 -0.006737 0.000000
v -0.024033 -0.005722 0.000000
v -0.024194 -0.004035 0.000064
v -0.024795 -0.004035 0.000393
v -0.024795 -0.005722 0.000707
v -0.024795 -0.005845 0.000735
v -0.024795 -0.006485 0.000884
v -0.024637 -0.006485 0.000735
v -0.024033 -0.006485 0.000168
v -0.024690 -0.006737 0.000850
v -0.023269 -0.006737 0.000000
v -0.023782 -0.006737 0.000113
v -0.024033 -0.006737 0.000235
f 1 2 8
f 1 8 13
f 1 13 20
f 1 20 29
f 1 29 40
f 1 40 50
f 1 50 53
f 1 53 52
f 1 52 51
f 1 51 41
f 1 41 30
f 1 30 21
f 1 21 14
f 1 14 9
f 1 9 3
f 1 3 4
f 1 4 5
f 1 5 6
f 1 6 7
f 1 7 2
f 2 7 11
f 2 11 12
f 2 12 8
f 3 9 4
f 4 10 15
f 4 15 23
f 4 23 32
f 4 32 43
f 4 43 44
f 4 44 34
f 4 34 33
f 4 33 24
f 4 24 16
f 4 16 11
f 4 11 7
f 4 7 6
f 4 6 5
f 4 9 10
f 8 12 13
f 9 14 15
f 9 15 10
f 11 16 17
f 11 17 13
f 11 13 12
f 13 17 18
f 13 18 19
f 13 19 20
f 14 21 15
f 15 21 22
f 15 22 23
f 16 24 17
f 17 24 25
f 17 25 18
f 18 25 26
f 18 26 19
f 19 26 27
f 19 27 28
f 19 28 29
f 19 29 20
f 21 30 22
f 22 30 31
f 22 31 23
f 23 31 41
f 23 41 51
f 23 51 42
f 23 42 32
f 24 33 25
f 25 33 26
f 26 33 34
f 26 34 35
f 26 35 36
f 26 36 37
f 26 37 27
f 27 37 38
f 27 38 28
f 28 38 39
f 28 39 29
f 29 39 40
f 30 41 31
f 32 42 43
f 34 44 36
f 34 36 35
f 36 44 42
f 36 42 37
f 37 45 38
f 37 42 45
f 38 45 46
f 38 46 39
f 39 46 47
f 39 47 40
f 40 47 48
f 40 48 49
f 40 49 50
f 42 51 52
f 42 52 49
f 42 49 45
f 42 44 43
f 45 49 46
f 46 49 48
f 46 48 47
f 49 52 53
f 49 53 50
