v 0.014538 0.004147 0.020729
v 0.012905 0.004147 0.019117
v 0.015150 0.001310 0.020729
v 0.025750 0.004147 0.020729
v 0.013344 0.004147 0.018383
v 0.013768 0.001310 0.018383
v 0.013727 0.001310 0.018541
v 0.013637 0.001310 0.019117
v 0.025750 0.001310 0.020729
v 0.025750 0.004147 0.016921
v 0.013352 0.004147 0.018375
v 0.014032 0.001310 0.018126
v 0.025750 0.001310 0.016921
v 0.014892 0.004147 0.016921
v 0.014794 0.001310 0.017386
v 0.014891 0.004147 0.016922
v 0.015273 0.001310 0.016921
f 1 2 3
f 1 3 9
f 1 9 4
f 1 4 10
f 1 10 14
f 1 14 16
f 1 16 11
f 1 11 5
f 1 5 2
f 2 5 6
f 2 6 7
f 2 7 8
f 2 8 3
f 3 8 7
f 3 7 6
f 3 6 12
f 3 12 15
f 3 15 17
f 3 17 13
f 3 13 9
f 4 9 13
f 4 13 10
f 5 11 6
f 6 11 12
f 10 13 17
f 10 17 14
f 11 15 12
f 11 16 17
f 11 17 15
f 14 17 16
