v 0.014140 -0.005482 0.004040
v 0.015096 -0.001454 0.004040
v 0.012654 -0.005482 0.002206
v 0.025749 -0.005482 0.004040
v 0.013611 -0.001454 0.002206
v 0.025749 -0.001454 0.004040
v 0.012669 -0.005482 0.002190
v 0.025749 -0.005482 0.002206
v 0.013367 -0.005482 0.001471
v 0.013295 -0.005482 0.001540
v 0.013136 -0.005482 0.001702
v 0.015049 -0.001454 0.000817
v 0.025749 -0.001454 0.001471
v 0.025749 -0.004196 0.001471
v 0.025632 -0.005482 0.001471
v 0.025709 -0.004959 0.001471
v 0.013422 -0.005482 0.001420
v 0.015642 -0.001454 0.000245
v 0.025636 -0.001454 0.001159
v 0.025432 -0.001454 0.000736
v 0.025559 -0.001454 0.000968
v 0.025585 -0.005482 0.001410
v 0.025559 -0.004959 0.001278
v 0.025559 -0.004196 0.001185
v 0.025405 -0.001908 0.000736
v 0.014355 -0.005482 0.000575
v 0.016405 -0.001454 0.000000
v 0.015642 -0.003434 0.000000
v 0.014878 -0.005482 0.000103
v 0.025044 -0.001454 0.000358
v 0.025559 -0.005482 0.001382
v 0.024796 -0.004959 0.000551
v 0.024796 -0.004196 0.000416
v 0.025128 -0.004196 0.000736
v 0.025244 -0.003434 0.000736
v 0.025336 -0.002671 0.000736
v 0.024796 -0.001908 0.000146
v 0.024032 -0.001454 0.000000
v 0.015642 -0.005482 0.000000
v 0.024796 -0.001454 0.000118
v 0.024817 -0.005482 0.000677
v 0.024796 -0.005482 0.000658
v 0.024032 -0.005482 0.000000
v 0.024796 -0.003434 0.000304
v 0.024796 -0.002671 0.000214
f 1 2 3
f 1 3 7
f 1 7 11
f 1 11 10
f 1 10 9
f 1 9 17
f 1 17 26
f 1 26 29
f 1 29 39
f 1 39 43
f 1 43 42
f 1 42 41
f 1 41 31
f 1 31 22
f 1 22 15
f 1 15 8
f 1 8 4
f 1 4 6
f 1 6 2
f 2 5 3
f 2 6 13
f 2 13 19
f 2 19 21
f 2 21 20
f 2 20 30
f 2 30 40
f 2 40 38
f 2 38 27
f 2 27 18
f 2 18 12
f 2 12 5
f 3 5 7
f 4 8 14
f 4 14 13
f 4 13 6
f 5 9 10
f 5 10 11
f 5 11 7
f 5 12 9
f 8 15 16
f 8 16 14
f 9 12 18
f 9 18 17
f 13 14 19
f 14 16 20
f 14 20 21
f 14 21 19
f 15 22 23
f 15 23 16
f 16 23 24
f 16 24 25
f 16 25 20
f 17 18 26
f 18 27 28
f 18 28 29
f 18 29 26
f 20 25 30
f 22 31 23
f 23 31 32
f 23 32 33
f 23 33 34
f 23 34 35
f 23 35 36
f 23 36 24
f 24 36 25
f 25 36 37
f 25 37 30
f 27 38 43
f 27 43 39
f 27 39 28
f 28 39 29
f 30 37 40
f 31 41 32
f 32 41 42
f 32 42 43
f 32 43 33
f 33 43 44
f 33 44 34
f 34 44 35
f 35 44 45
f 35 45 36
f 36 45 37
f 37 45 43
f 37 43 40
f 38 40 43
f 43 45 44
