v -0.025750 0.006485 0.022807
v -0.025750 0.001934 0.022807
v -0.025740 0.006486 0.022807
v -0.025750 0.006486 0.022795
v -0.025750 0.001934 0.018408
v -0.015360 0.001934 0.022807
v -0.013912 0.006486 0.022807
v -0.025750 0.006486 0.018384
v -0.025750 0.001935 0.018384
v -0.015692 0.001934 0.018384
v -0.013855 0.001934 0.021324
v -0.011817 0.006486 0.020589
v -0.014025 0.006486 0.018384
v -0.015120 0.001934 0.018384
v -0.013406 0.001934 0.020589
v -0.012488 0.006486 0.019853
f 1 2 6
f 1 6 7
f 1 7 3
f 1 3 4
f 1 4 8
f 1 8 9
f 1 9 5
f 1 5 2
f 2 5 10
f 2 10 14
f 2 14 15
f 2 15 11
f 2 11 6
f 3 7 12
f 3 12 16
f 3 16 13
f 3 13 8
f 3 8 4
f 5 9 10
f 6 11 7
f 7 11 12
f 8 13 14
f 8 14 10
f 8 10 9
f 11 15 12
f 12 15 14
f 12 14 16
f 13 16 14
