v -0.008214 -0.011510 0.024265
v -0.004923 -0.013262 0.024265
v -0.004923 -0.014068 0.023529
v -0.008214 -0.012371 0.023576
v -0.008214 -0.011633 0.024804
v -0.004923 -0.013360 0.024965
v -0.008214 -0.012431 0.023529
v -0.004923 -0.026891 0.023529
v -0.008214 -0.011826 0.025000
v -0.008011 -0.011826 0.025000
v -0.004959 -0.013353 0.025000
v -0.004923 -0.013389 0.025000
v -0.008214 -0.024990 0.023529
v -0.004923 -0.026891 0.024265
v -0.007230 -0.025559 0.023529
v -0.008214 -0.024592 0.025000
v -0.004923 -0.026358 0.025000
v -0.008011 -0.025107 0.023529
v -0.008214 -0.024990 0.024265
v -0.004923 -0.026879 0.024300
v -0.005722 -0.026321 0.025000
v -0.007230 -0.025559 0.024265
v -0.008214 -0.024761 0.024804
v -0.008011 -0.024796 0.025000
v -0.008011 -0.025107 0.024265
v -0.008214 -0.024796 0.024724
f 1 2 3
f 1 3 4
f 1 4 7
f 1 7 13
f 1 13 19
f 1 19 26
f 1 26 23
f 1 23 16
f 1 16 9
f 1 9 5
f 1 5 6
f 1 6 2
f 2 6 12
f 2 12 17
f 2 17 20
f 2 20 14
f 2 14 8
f 2 8 3
f 3 7 4
f 3 8 15
f 3 15 18
f 3 18 13
f 3 13 7
f 5 9 10
f 5 10 11
f 5 11 6
f 6 11 12
f 8 14 22
f 8 22 15
f 9 16 24
f 9 24 21
f 9 21 17
f 9 17 12
f 9 12 11
f 9 11 10
f 13 18 25
f 13 25 19
f 14 20 21
f 14 21 22
f 15 22 25
f 15 25 18
f 16 23 24
f 17 21 20
f 19 25 21
f 19 21 26
f 21 24 23
f 21 23 26
f 21 25 22
