v -0.013919 0.001934 0.024265
v -0.012196 0.006485 0.024265
v -0.012194 0.006486 0.024266
v -0.014104 0.001934 0.024975
v -0.015360 0.001934 0.022808
v -0.013913 0.006486 0.022808
v -0.012591 0.006486 0.025000
v -0.012590 0.006485 0.025000
v -0.013353 0.004197 0.025000
v -0.014116 0.001934 0.025000
v -0.025750 0.001934 0.022808
v -0.025739 0.006486 0.022808
v -0.025559 0.006486 0.025000
v -0.025559 0.001934 0.025000
v -0.025750 0.001934 0.024265
v -0.025750 0.006485 0.022808
v -0.025750 0.006486 0.023531
v -0.025750 0.006486 0.024265
f 1 2 3
f 1 3 4
f 1 4 10
f 1 10 14
f 1 14 15
f 1 15 11
f 1 11 5
f 1 5 2
f 2 6 3
f 2 5 6
f 3 7 8
f 3 8 9
f 3 9 10
f 3 10 4
f 3 6 12
f 3 12 17
f 3 17 18
f 3 18 13
f 3 13 7
f 5 11 16
f 5 16 12
f 5 12 6
f 7 13 14
f 7 14 10
f 7 10 9
f 7 9 8
f 11 15 18
f 11 18 17
f 11 17 16
f 12 16 17
f 13 18 15
f 13 15 14
