v -0.014103 -0.001123 0.024265
v -0.013919 0.001933 0.024265
v -0.014115 -0.001123 0.024937
v -0.015316 -0.001123 0.022797
v -0.014103 0.001933 0.024975
v -0.015359 0.001933 0.022808
v -0.014115 0.001144 0.025000
v -0.014137 -0.001123 0.025000
v -0.015371 0.001933 0.022797
v -0.025750 -0.001123 0.022797
v -0.014115 0.001933 0.025000
v -0.025559 -0.001123 0.025000
v -0.025750 0.001933 0.022797
v -0.025750 -0.001123 0.024265
v -0.025559 0.001933 0.025000
v -0.025750 0.001933 0.024265
f 1 2 3
f 1 3 8
f 1 8 12
f 1 12 14
f 1 14 10
f 1 10 4
f 1 4 2
f 2 5 3
f 2 4 6
f 2 6 9
f 2 9 13
f 2 13 16
f 2 16 15
f 2 15 11
f 2 11 5
f 3 5 7
f 3 7 8
f 4 9 6
f 4 10 13
f 4 13 9
f 5 11 7
f 7 11 15
f 7 15 12
f 7 12 8
f 10 14 16
f 10 16 13
f 12 15 16
f 12 16 14
