v 0.025750 0.009106 0.016913
v 0.025750 0.014115 0.016913
v 0.025750 0.009106 0.017644
v 0.012353 0.009106 0.016913
v 0.025658 0.014878 0.016913
v 0.025750 0.014115 0.017644
v 0.011882 0.009106 0.017644
v 0.012062 0.009106 0.017327
v 0.008894 0.012252 0.016913
v 0.025557 0.014978 0.016913
v 0.025559 0.014978 0.017644
v 0.025658 0.014878 0.017644
v 0.008894 0.012285 0.017644
v 0.008894 0.024598 0.016913
v 0.024032 0.015859 0.016913
v 0.024795 0.015419 0.017644
v 0.008894 0.024598 0.017644
v 0.009874 0.024033 0.016913
v 0.023087 0.016405 0.016913
v 0.022505 0.016742 0.017644
v 0.009874 0.024033 0.017644
v 0.012518 0.022507 0.016913
v 0.012518 0.022507 0.017644
f 1 2 6
f 1 6 3
f 1 3 7
f 1 7 8
f 1 8 4
f 1 4 9
f 1 9 14
f 1 14 18
f 1 18 22
f 1 22 19
f 1 19 15
f 1 15 10
f 1 10 5
f 1 5 2
f 2 5 12
f 2 12 6
f 3 6 12
f 3 12 11
f 3 11 16
f 3 16 20
f 3 20 23
f 3 23 21
f 3 21 17
f 3 17 13
f 3 13 7
f 4 8 9
f 5 10 11
f 5 11 12
f 7 13 9
f 7 9 8
f 9 13 17
f 9 17 14
f 10 15 11
f 11 15 16
f 14 17 21
f 14 21 18
f 15 19 16
f 16 19 20
f 18 21 23
f 18 23 22
f 19 22 20
f 20 22 23
