v 0.000005 0.029513 0.017650
v 0.000381 0.029513 0.017650
v 0.000005 0.029513 0.013243
v 0.000005 0.015466 0.017650
v 0.000381 0.029513 0.013243
v 0.001948 0.028609 0.017650
v 0.000005 0.015215 0.013243
v 0.000005 0.014043 0.016263
v 0.005815 0.014182 0.017650
v 0.005714 0.026434 0.013243
v 0.005722 0.026429 0.017650
v 0.005816 0.014339 0.013243
v 0.005818 0.012780 0.014706
v 0.005818 0.012568 0.014958
v 0.005818 0.012251 0.015349
v 0.000005 0.013574 0.015441
v 0.000005 0.013954 0.016176
v 0.005818 0.012185 0.015441
v 0.005818 0.014182 0.017650
v 0.005818 0.026373 0.017650
v 0.005818 0.026373 0.013243
v 0.005818 0.014346 0.013243
v 0.000005 0.013744 0.015805
f 1 2 5
f 1 5 3
f 1 3 7
f 1 7 16
f 1 16 23
f 1 23 17
f 1 17 8
f 1 8 4
f 1 4 9
f 1 9 19
f 1 19 20
f 1 20 11
f 1 11 6
f 1 6 2
f 2 6 5
f 3 5 10
f 3 10 21
f 3 21 22
f 3 22 12
f 3 12 7
f 4 8 9
f 5 6 10
f 6 11 10
f 7 12 13
f 7 13 14
f 7 14 15
f 7 15 16
f 8 17 9
f 9 17 18
f 9 18 19
f 10 11 20
f 10 20 21
f 12 22 13
f 13 22 21
f 13 21 20
f 13 20 19
f 13 19 18
f 13 18 15
f 13 15 14
f 15 18 16
f 16 18 23
f 17 23 18
