v 0.025748 0.004148 0.008830
v 0.025748 0.004148 0.012910
v 0.014637 0.004148 0.008830
v 0.025748 0.009106 0.008830
v 0.025748 0.009106 0.012910
v 0.014556 0.004148 0.012910
v 0.013089 0.004148 0.010288
v 0.010623 0.009106 0.010294
v 0.012257 0.009106 0.009007
v 0.012394 0.009106 0.008899
v 0.012482 0.009106 0.008830
v 0.012135 0.009106 0.012910
v 0.009975 0.009106 0.011030
v 0.013174 0.004148 0.011029
v 0.013083 0.004148 0.010294
v 0.013163 0.004148 0.010982
v 0.013170 0.004148 0.011010
f 1 2 6
f 1 6 14
f 1 14 17
f 1 17 16
f 1 16 15
f 1 15 7
f 1 7 3
f 1 3 11
f 1 11 4
f 1 4 5
f 1 5 2
f 2 5 12
f 2 12 6
f 3 7 8
f 3 8 9
f 3 9 10
f 3 10 11
f 4 11 10
f 4 10 9
f 4 9 8
f 4 8 13
f 4 13 12
f 4 12 5
f 6 12 13
f 6 13 14
f 7 15 8
f 8 15 13
f 13 15 16
f 13 16 17
f 13 17 14
