v -0.004548 0.027107 0.022061
v -0.003265 0.027848 0.022061
v -0.000382 0.029513 0.022059
v -0.004548 0.027107 0.017646
v -0.004548 0.014832 0.022061
v -0.000623 0.029374 0.022061
v -0.000382 0.029513 0.017646
v -0.000383 0.029512 0.022061
v 0.000004 0.029513 0.022061
v -0.004548 0.014567 0.017646
v -0.004548 0.013218 0.020588
v 0.000004 0.015339 0.022061
v 0.000004 0.029513 0.017646
v 0.000004 0.015468 0.017646
v 0.000004 0.014080 0.019118
v 0.000004 0.013749 0.019481
v -0.004548 0.012770 0.019853
v -0.004548 0.012957 0.020192
v 0.000004 0.013449 0.019853
f 1 2 3
f 1 3 7
f 1 7 4
f 1 4 10
f 1 10 17
f 1 17 18
f 1 18 11
f 1 11 5
f 1 5 12
f 1 12 9
f 1 9 8
f 1 8 6
f 1 6 2
f 2 6 3
f 3 6 8
f 3 8 9
f 3 9 13
f 3 13 7
f 4 7 13
f 4 13 14
f 4 14 10
f 5 11 12
f 9 12 19
f 9 19 16
f 9 16 15
f 9 15 14
f 9 14 13
f 10 14 15
f 10 15 16
f 10 16 17
f 11 18 19
f 11 19 12
f 16 19 17
f 17 19 18
