v 0.014488 -0.004816 0.012387
v 0.014012 -0.001454 0.011029
v 0.012623 -0.004816 0.010294
v 0.025750 -0.004816 0.012387
v 0.015297 -0.001454 0.012387
v 0.013359 -0.001454 0.010294
v 0.012631 -0.004816 0.010281
v 0.025750 -0.004816 0.008093
v 0.025750 -0.001454 0.012387
v 0.013164 -0.004816 0.009575
v 0.013062 -0.004816 0.009697
v 0.015273 -0.001454 0.008093
v 0.025750 -0.001454 0.008093
v 0.014725 -0.004816 0.008093
v 0.013178 -0.004816 0.009559
f 1 2 3
f 1 3 7
f 1 7 11
f 1 11 10
f 1 10 15
f 1 15 14
f 1 14 8
f 1 8 4
f 1 4 9
f 1 9 5
f 1 5 2
f 2 6 3
f 2 5 9
f 2 9 13
f 2 13 12
f 2 12 6
f 3 6 7
f 4 8 13
f 4 13 9
f 6 10 11
f 6 11 7
f 6 12 10
f 8 14 12
f 8 12 13
f 10 12 15
f 12 14 15
