v 0.025750 0.004148 0.004414
v 0.025750 0.004148 0.008829
v 0.014900 0.004148 0.004414
v 0.025750 0.009106 0.004414
v 0.025750 0.009106 0.008829
v 0.014637 0.004148 0.008829
v 0.014890 0.004148 0.004422
v 0.012352 0.009106 0.004414
v 0.012482 0.009106 0.008829
v 0.010680 0.009106 0.007353
v 0.010287 0.009106 0.006966
v 0.010260 0.009106 0.006938
v 0.009976 0.009106 0.006618
v 0.012905 0.004148 0.006618
v 0.013352 0.004148 0.005875
v 0.013345 0.004148 0.005882
f 1 2 6
f 1 6 14
f 1 14 16
f 1 16 15
f 1 15 7
f 1 7 3
f 1 3 8
f 1 8 4
f 1 4 5
f 1 5 2
f 2 5 9
f 2 9 6
f 3 7 8
f 4 8 13
f 4 13 12
f 4 12 11
f 4 11 10
f 4 10 9
f 4 9 5
f 6 9 10
f 6 10 11
f 6 11 12
f 6 12 13
f 6 13 14
f 7 15 13
f 7 13 8
f 13 15 16
f 13 16 14
