v -0.013603 0.001934 0.016912
v -0.013662 0.001934 0.016176
v -0.011901 0.006486 0.016178
v -0.012376 0.006485 0.016912
v -0.014115 0.001934 0.017409
v -0.014970 0.001934 0.014202
v -0.011903 0.006485 0.016176
v -0.011905 0.006486 0.016173
v -0.012376 0.006486 0.016912
v -0.014025 0.006486 0.018383
v -0.015121 0.001934 0.018383
v -0.025749 0.001934 0.014202
v -0.013718 0.006486 0.014202
v -0.013642 0.006486 0.014706
v -0.025749 0.006486 0.018384
v -0.015691 0.001934 0.018383
v -0.025749 0.001934 0.018382
v -0.025749 0.006485 0.014202
v -0.015637 0.006486 0.014202
v -0.025749 0.006486 0.014707
v -0.025749 0.001935 0.018383
v -0.017517 0.006486 0.014202
f 1 2 3
f 1 3 4
f 1 4 5
f 1 5 11
f 1 11 16
f 1 16 17
f 1 17 12
f 1 12 6
f 1 6 2
f 2 6 3
f 3 7 8
f 3 8 14
f 3 14 19
f 3 19 22
f 3 22 20
f 3 20 15
f 3 15 10
f 3 10 9
f 3 9 4
f 3 6 7
f 4 9 10
f 4 10 11
f 4 11 5
f 6 12 18
f 6 18 22
f 6 22 19
f 6 19 13
f 6 13 7
f 7 13 8
f 8 13 14
f 10 15 11
f 11 15 16
f 12 17 21
f 12 21 15
f 12 15 20
f 12 20 18
f 13 19 14
f 15 21 16
f 16 21 17
f 18 20 22
