v 0.025750 0.004148 0.001471
v 0.025750 0.004197 0.001471
v 0.025750 0.004148 0.004414
v 0.025558 0.004148 0.001181
v 0.025558 0.004197 0.001185
v 0.025709 0.004960 0.001471
v 0.025714 0.008011 0.002206
v 0.025750 0.007248 0.002206
v 0.025750 0.009106 0.004414
v 0.014899 0.004148 0.004414
v 0.025538 0.004148 0.001156
v 0.025558 0.004960 0.001278
v 0.025597 0.005722 0.001471
v 0.025750 0.009106 0.002941
v 0.025558 0.008011 0.002005
v 0.025558 0.008673 0.002206
v 0.025540 0.009106 0.002371
v 0.025558 0.009106 0.002415
v 0.012352 0.009106 0.004414
v 0.010339 0.009106 0.002941
v 0.013443 0.004148 0.002941
v 0.025136 0.004148 0.000735
v 0.025129 0.004197 0.000735
v 0.024796 0.004197 0.000417
v 0.024990 0.004960 0.000735
v 0.025558 0.005722 0.001429
v 0.025558 0.005906 0.001471
v 0.024796 0.008011 0.001299
v 0.025419 0.006485 0.001471
v 0.025212 0.007248 0.001471
v 0.024796 0.007248 0.001082
v 0.024033 0.007248 0.000372
v 0.025525 0.008774 0.002206
v 0.025405 0.009106 0.002206
v 0.010330 0.009106 0.002862
v 0.013049 0.004148 0.002206
v 0.013347 0.004148 0.002765
v 0.024796 0.004148 0.000409
v 0.024796 0.004960 0.000551
v 0.024033 0.005722 0.000000
v 0.024796 0.005722 0.000707
v 0.024033 0.008011 0.000596
v 0.024796 0.006485 0.000884
v 0.024033 0.006485 0.000168
v 0.023270 0.008774 0.000146
v 0.024796 0.008774 0.001537
v 0.024796 0.009106 0.001649
v 0.010308 0.009106 0.002206
v 0.013055 0.004148 0.002200
v 0.024081 0.004148 0.000020
v 0.024033 0.004148 0.000000
v 0.023270 0.008011 0.000000
v 0.024033 0.008448 0.000735
v 0.022937 0.009106 0.000082
v 0.023270 0.009106 0.000264
v 0.023968 0.009106 0.000896
v 0.023918 0.008774 0.000735
v 0.024033 0.008774 0.000840
v 0.013020 0.009106 0.000074
v 0.014928 0.004148 0.000461
v 0.014879 0.004148 0.000504
v 0.014630 0.004148 0.000735
v 0.015641 0.004148 0.000000
v 0.022506 0.009106 0.000000
v 0.013353 0.009106 0.000000
v 0.013353 0.008774 0.000000
f 1 2 8
f 1 8 14
f 1 14 9
f 1 9 3
f 1 3 10
f 1 10 21
f 1 21 37
f 1 37 36
f 1 36 49
f 1 49 62
f 1 62 61
f 1 61 60
f 1 60 63
f 1 63 51
f 1 51 50
f 1 50 38
f 1 38 22
f 1 22 11
f 1 11 4
f 1 4 2
f 2 4 5
f 2 5 6
f 2 6 7
f 2 7 8
f 3 9 19
f 3 19 10
f 4 11 5
f 5 11 12
f 5 12 6
f 6 13 7
f 6 12 13
f 7 14 8
f 7 13 15
f 7 15 16
f 7 16 17
f 7 17 18
f 7 18 14
f 9 14 18
f 9 18 17
f 9 17 34
f 9 34 47
f 9 47 56
f 9 56 55
f 9 55 54
f 9 54 64
f 9 64 65
f 9 65 59
f 9 59 48
f 9 48 35
f 9 35 20
f 9 20 19
f 10 19 20
f 10 20 21
f 11 22 12
f 12 22 23
f 12 23 24
f 12 24 25
f 12 25 26
f 12 26 13
f 13 26 27
f 13 27 15
f 15 28 16
f 15 27 29
f 15 29 30
f 15 30 31
f 15 31 32
f 15 32 28
f 16 28 33
f 16 33 17
f 17 33 34
f 20 35 36
f 20 36 37
f 20 37 21
f 22 38 23
f 23 38 24
f 24 39 25
f 24 38 40
f 24 40 39
f 25 39 26
f 26 39 41
f 26 41 27
f 27 41 29
f 28 32 42
f 28 42 33
f 29 41 43
f 29 43 30
f 30 43 44
f 30 44 31
f 31 44 32
f 32 44 45
f 32 45 42
f 33 46 34
f 33 42 46
f 34 46 47
f 35 48 36
f 36 48 49
f 38 50 40
f 39 40 41
f 40 44 41
f 40 50 51
f 40 51 63
f 40 63 66
f 40 66 65
f 40 65 64
f 40 64 52
f 40 52 45
f 40 45 44
f 41 44 43
f 42 53 46
f 42 45 53
f 45 52 54
f 45 54 55
f 45 55 56
f 45 56 47
f 45 47 57
f 45 57 53
f 46 53 58
f 46 58 47
f 47 58 57
f 48 59 60
f 48 60 61
f 48 61 62
f 48 62 49
f 52 64 54
f 53 57 58
f 59 65 66
f 59 66 63
f 59 63 60
