v -0.011202 0.010200 0.009773
v -0.011202 0.007928 0.011764
v -0.011202 0.023265 0.009773
v -0.008602 0.012545 0.009773
v -0.008602 0.010455 0.011764
v -0.011202 0.008037 0.012309
v -0.011202 0.023265 0.013167
v -0.011182 0.023277 0.013167
v -0.011063 0.023346 0.009773
v -0.008602 0.024767 0.009773
v -0.008602 0.010902 0.012334
v -0.011202 0.008085 0.012500
v -0.011202 0.009275 0.013167
v -0.011063 0.023346 0.013167
v -0.010992 0.023387 0.013167
v -0.008602 0.024767 0.013167
v -0.008602 0.010943 0.012383
v -0.008602 0.011058 0.012500
v -0.008602 0.011063 0.012504
v -0.008602 0.011237 0.012636
v -0.008602 0.011944 0.013167
f 1 2 6
f 1 6 12
f 1 12 13
f 1 13 7
f 1 7 3
f 1 3 9
f 1 9 10
f 1 10 4
f 1 4 2
f 2 5 6
f 2 4 5
f 3 7 8
f 3 8 9
f 4 10 16
f 4 16 21
f 4 21 20
f 4 20 19
f 4 19 18
f 4 18 17
f 4 17 11
f 4 11 5
f 5 11 12
f 5 12 6
f 7 13 21
f 7 21 16
f 7 16 15
f 7 15 14
f 7 14 8
f 8 14 9
f 9 14 15
f 9 15 10
f 10 15 16
f 11 17 12
f 12 17 18
f 12 18 19
f 12 19 20
f 12 20 21
f 12 21 13
