v -0.008214 -0.024991 0.007341
v -0.008214 -0.024991 0.011028
v -0.008775 -0.024668 0.007341
v -0.008214 -0.012647 0.007341
v -0.008214 -0.013108 0.011028
v -0.008775 -0.024668 0.011028
v -0.013352 -0.022026 0.011028
v -0.010294 -0.023791 0.007341
v -0.008214 -0.010719 0.008824
v -0.011738 -0.009106 0.007341
v -0.008214 -0.011339 0.009559
v -0.012334 -0.009106 0.011028
v -0.023088 -0.016405 0.011028
v -0.023088 -0.016405 0.007341
v -0.009838 -0.009106 0.008824
v -0.025750 -0.009106 0.007341
v -0.012411 -0.009106 0.011028
v -0.025559 -0.014977 0.011028
v -0.025546 -0.014985 0.007341
v -0.025750 -0.014116 0.007341
v -0.025750 -0.009106 0.010709
v -0.025750 -0.009108 0.011028
v -0.025657 -0.014878 0.011028
v -0.025657 -0.014878 0.007341
v -0.025559 -0.014976 0.007341
v -0.025558 -0.014977 0.007353
v -0.025750 -0.014116 0.011028
f 1 2 6
f 1 6 3
f 1 3 8
f 1 8 14
f 1 14 19
f 1 19 25
f 1 25 24
f 1 24 20
f 1 20 16
f 1 16 10
f 1 10 4
f 1 4 9
f 1 9 11
f 1 11 5
f 1 5 2
f 2 5 12
f 2 12 17
f 2 17 22
f 2 22 27
f 2 27 23
f 2 23 18
f 2 18 13
f 2 13 7
f 2 7 6
f 3 6 7
f 3 7 8
f 4 10 9
f 5 11 12
f 7 13 14
f 7 14 8
f 9 10 15
f 9 15 11
f 10 16 21
f 10 21 17
f 10 17 12
f 10 12 15
f 11 15 12
f 13 18 14
f 14 18 19
f 16 20 27
f 16 27 22
f 16 22 21
f 17 21 22
f 18 23 24
f 18 24 25
f 18 25 26
f 18 26 19
f 19 26 25
f 20 24 23
f 20 23 27
