v -0.025750 0.014115 0.009773
v -0.025723 0.014339 0.009773
v -0.025750 0.014115 0.006618
v -0.025750 0.006487 0.009773
v -0.025658 0.014879 0.009773
v -0.025658 0.014879 0.005884
v -0.025750 0.013354 0.005884
v -0.025748 0.014117 0.005884
v -0.025750 0.006487 0.006619
v -0.013609 0.006487 0.009773
v -0.025559 0.014977 0.009773
v -0.025559 0.014977 0.005884
v -0.025750 0.006488 0.005884
v -0.014050 0.006487 0.005884
v -0.011818 0.006487 0.008088
v -0.008604 0.012546 0.009773
v -0.025018 0.015291 0.009773
v -0.024797 0.015418 0.005884
v -0.014025 0.006487 0.005884
v -0.008604 0.010717 0.008088
v -0.011826 0.006487 0.008078
v -0.008604 0.010769 0.007353
v -0.008604 0.024765 0.009773
v -0.011643 0.023012 0.009773
v -0.012592 0.022464 0.005884
v -0.012488 0.006487 0.007354
v -0.008605 0.012589 0.005884
v -0.008604 0.012580 0.005893
v -0.008604 0.024765 0.005884
v -0.008775 0.024667 0.009773
v -0.009538 0.024227 0.009773
v -0.009538 0.024227 0.005884
v -0.008604 0.012640 0.005884
v -0.008775 0.024667 0.006618
f 1 2 3
f 1 3 7
f 1 7 13
f 1 13 9
f 1 9 4
f 1 4 10
f 1 10 16
f 1 16 23
f 1 23 30
f 1 30 31
f 1 31 24
f 1 24 17
f 1 17 11
f 1 11 5
f 1 5 2
f 2 5 6
f 2 6 3
f 3 6 8
f 3 8 7
f 4 9 14
f 4 14 19
f 4 19 26
f 4 26 21
f 4 21 15
f 4 15 10
f 5 11 12
f 5 12 6
f 6 12 18
f 6 18 25
f 6 25 32
f 6 32 29
f 6 29 33
f 6 33 27
f 6 27 19
f 6 19 14
f 6 14 13
f 6 13 7
f 6 7 8
f 9 13 14
f 10 15 16
f 11 17 12
f 12 17 18
f 15 20 16
f 15 21 22
f 15 22 20
f 16 20 22
f 16 22 28
f 16 28 33
f 16 33 29
f 16 29 23
f 17 24 25
f 17 25 18
f 19 27 22
f 19 22 26
f 21 26 22
f 22 27 28
f 23 29 34
f 23 34 30
f 24 31 32
f 24 32 25
f 27 33 28
f 29 32 34
f 30 34 32
f 30 32 31
