v -0.025750 -0.006737 0.002412
v -0.025750 -0.006737 0.002206
v -0.025750 -0.007248 0.002412
v -0.013663 -0.006737 0.002412
v -0.025750 -0.007248 0.002206
v -0.025558 -0.006737 0.001768
v -0.025724 -0.008225 0.002412
v -0.012133 -0.009106 0.002412
v -0.011217 -0.009106 0.001471
v -0.012920 -0.006737 0.001471
v -0.025714 -0.008011 0.002206
v -0.025465 -0.006737 0.001604
v -0.025558 -0.009106 0.002412
v -0.013021 -0.009106 0.000072
v -0.014115 -0.006737 0.000312
v -0.013870 -0.006737 0.000523
v -0.013628 -0.006737 0.000735
v -0.013109 -0.006737 0.001271
v -0.025558 -0.008011 0.002005
v -0.025558 -0.008674 0.002206
v -0.025539 -0.009106 0.002371
v -0.025352 -0.006737 0.001471
v -0.013352 -0.009106 0.000000
v -0.013352 -0.008774 0.000000
v -0.014115 -0.007248 0.000095
v -0.014627 -0.006737 0.000031
v -0.025525 -0.008774 0.002206
v -0.025212 -0.007248 0.001471
v -0.024795 -0.007248 0.001082
v -0.024424 -0.007248 0.000735
v -0.024033 -0.007248 0.000372
v -0.024795 -0.008011 0.001299
v -0.025406 -0.009106 0.002206
v -0.024795 -0.006737 0.000949
v -0.022507 -0.009106 0.000000
v -0.014879 -0.006737 0.000000
v -0.024795 -0.008774 0.001537
v -0.024033 -0.008011 0.000596
v -0.024033 -0.006737 0.000235
v -0.023269 -0.008774 0.000145
v -0.024033 -0.008774 0.000840
v -0.024795 -0.009106 0.001648
v -0.022938 -0.009106 0.000082
v -0.023269 -0.008011 0.000000
v -0.023269 -0.006737 0.000000
v -0.023781 -0.006737 0.000113
v -0.023269 -0.009106 0.000263
v -0.024033 -0.009106 0.000954
f 1 2 5
f 1 5 3
f 1 3 7
f 1 7 13
f 1 13 8
f 1 8 4
f 1 4 10
f 1 10 18
f 1 18 17
f 1 17 16
f 1 16 15
f 1 15 26
f 1 26 36
f 1 36 45
f 1 45 46
f 1 46 39
f 1 39 34
f 1 34 22
f 1 22 12
f 1 12 6
f 1 6 2
f 2 6 5
f 3 5 7
f 4 8 9
f 4 9 10
f 5 11 7
f 5 6 11
f 6 12 11
f 7 11 13
f 8 13 21
f 8 21 33
f 8 33 42
f 8 42 48
f 8 48 47
f 8 47 43
f 8 43 35
f 8 35 23
f 8 23 14
f 8 14 9
f 9 14 15
f 9 15 16
f 9 16 17
f 9 17 18
f 9 18 10
f 11 12 19
f 11 19 20
f 11 20 21
f 11 21 13
f 12 22 19
f 14 23 24
f 14 24 25
f 14 25 15
f 15 25 26
f 19 27 20
f 19 22 28
f 19 28 29
f 19 29 30
f 19 30 31
f 19 31 32
f 19 32 27
f 20 27 21
f 21 27 33
f 22 34 28
f 23 35 44
f 23 44 45
f 23 45 36
f 23 36 24
f 24 36 26
f 24 26 25
f 27 37 33
f 27 32 38
f 27 38 37
f 28 34 39
f 28 39 29
f 29 39 30
f 30 39 31
f 31 38 32
f 31 39 40
f 31 40 38
f 33 37 41
f 33 41 42
f 35 43 44
f 37 38 41
f 38 40 41
f 39 46 44
f 39 44 40
f 40 44 43
f 40 43 47
f 40 47 48
f 40 48 41
f 41 48 42
f 44 46 45
