v -0.025750 -0.004035 0.022797
v -0.025750 -0.004035 0.019118
v -0.025750 -0.006735 0.022797
v -0.014677 -0.004035 0.022797
v -0.025750 -0.006737 0.019118
v -0.014796 -0.004035 0.019118
v -0.025750 -0.006737 0.022794
v -0.025746 -0.006737 0.022797
v -0.013502 -0.006737 0.022797
v -0.011738 -0.006737 0.021323
v -0.013079 -0.004035 0.021323
v -0.013916 -0.006737 0.019118
v -0.014787 -0.004035 0.019127
v -0.012249 -0.006737 0.020589
v -0.013916 -0.006736 0.019118
v -0.013241 -0.004035 0.020589
v -0.013352 -0.004035 0.020483
f 1 2 5
f 1 5 7
f 1 7 3
f 1 3 8
f 1 8 9
f 1 9 4
f 1 4 11
f 1 11 16
f 1 16 17
f 1 17 13
f 1 13 6
f 1 6 2
f 2 6 15
f 2 15 12
f 2 12 5
f 3 7 8
f 4 9 10
f 4 10 11
f 5 12 14
f 5 14 10
f 5 10 9
f 5 9 8
f 5 8 7
f 6 13 14
f 6 14 15
f 10 14 16
f 10 16 11
f 12 15 14
f 13 17 14
f 14 17 16
