v -0.008602 0.024766 0.017647
v -0.008551 0.024795 0.017651
v -0.008602 0.024766 0.014540
v -0.008602 0.024692 0.017651
v -0.008601 0.024766 0.017651
v -0.008011 0.025108 0.017651
v -0.008551 0.024795 0.013972
v -0.008601 0.024766 0.013972
v -0.008602 0.012911 0.013972
v -0.008602 0.012354 0.017651
v -0.008011 0.025108 0.014706
v -0.006485 0.025989 0.017651
v -0.004548 0.027108 0.013972
v -0.008602 0.012882 0.013972
v -0.008602 0.010403 0.016193
v -0.004551 0.014565 0.017651
v -0.006485 0.025989 0.014706
v -0.004548 0.027108 0.017651
v -0.004548 0.014603 0.013972
v -0.008602 0.011236 0.015314
v -0.008602 0.010381 0.016176
v -0.004548 0.014571 0.017651
v -0.004548 0.012945 0.016176
v -0.004548 0.013148 0.015332
v -0.008602 0.011080 0.015441
v -0.004548 0.013032 0.015441
v -0.004548 0.012970 0.015781
f 1 2 7
f 1 7 3
f 1 3 9
f 1 9 14
f 1 14 20
f 1 20 25
f 1 25 21
f 1 21 15
f 1 15 10
f 1 10 4
f 1 4 5
f 1 5 2
f 2 6 11
f 2 11 7
f 2 5 4
f 2 4 10
f 2 10 16
f 2 16 22
f 2 22 18
f 2 18 12
f 2 12 6
f 3 7 8
f 3 8 9
f 6 12 17
f 6 17 11
f 7 11 13
f 7 13 19
f 7 19 14
f 7 14 9
f 7 9 8
f 10 15 16
f 11 17 13
f 12 18 13
f 12 13 17
f 13 18 22
f 13 22 23
f 13 23 27
f 13 27 26
f 13 26 24
f 13 24 19
f 14 19 20
f 15 21 16
f 16 21 23
f 16 23 22
f 19 24 25
f 19 25 20
f 21 25 26
f 21 26 27
f 21 27 23
f 24 26 25
