v 0.009335 -0.024344 0.020493
v 0.009830 -0.024058 0.020493
v 0.009335 -0.024344 0.022989
v 0.009335 -0.011956 0.020493
v 0.011063 -0.023346 0.020493
v 0.011063 -0.023346 0.023529
v 0.009335 -0.024342 0.023529
v 0.009873 -0.024033 0.023529
v 0.009537 -0.024227 0.023529
v 0.009335 -0.010036 0.022059
v 0.011140 -0.008208 0.022059
v 0.011140 -0.010404 0.020493
v 0.011140 -0.023301 0.020493
v 0.011140 -0.023301 0.023529
v 0.009335 -0.011243 0.023529
v 0.009335 -0.010200 0.022794
v 0.011140 -0.007948 0.022794
v 0.011140 -0.011274 0.023529
v 0.011139 -0.009267 0.023529
v 0.011140 -0.008775 0.023242
f 1 2 3
f 1 3 7
f 1 7 15
f 1 15 16
f 1 16 10
f 1 10 4
f 1 4 12
f 1 12 13
f 1 13 5
f 1 5 2
f 2 5 6
f 2 6 3
f 3 6 8
f 3 8 9
f 3 9 7
f 4 10 11
f 4 11 12
f 5 13 14
f 5 14 6
f 6 14 18
f 6 18 19
f 6 19 15
f 6 15 7
f 6 7 9
f 6 9 8
f 10 16 17
f 10 17 11
f 11 17 20
f 11 20 18
f 11 18 14
f 11 14 13
f 11 13 12
f 15 19 17
f 15 17 16
f 17 19 20
f 18 20 19
