v 0.015144 -0.001454 0.004412
v 0.015283 0.001309 0.004412
v 0.014147 0.001309 0.002941
v 0.014115 0.001309 0.002897
v 0.013734 0.001309 0.002364
v 0.013610 -0.001454 0.002206
v 0.025749 -0.001454 0.004412
v 0.025749 0.001309 0.004412
v 0.013627 0.001309 0.002206
v 0.013995 0.001309 0.001850
v 0.014758 0.001309 0.001112
v 0.015641 0.001309 0.000259
v 0.015641 -0.001454 0.000245
v 0.025749 -0.001454 0.001471
v 0.025749 0.001309 0.001471
v 0.016240 0.001309 0.000044
v 0.016404 -0.001454 0.000000
v 0.025636 -0.001454 0.001159
v 0.025559 -0.000381 0.000911
v 0.025559 0.000381 0.000911
v 0.025559 0.001144 0.000945
v 0.025559 0.001309 0.000957
v 0.016404 0.001309 0.000000
v 0.024033 -0.001454 0.000000
v 0.025559 -0.001454 0.000968
v 0.025559 -0.001144 0.000945
v 0.025474 -0.000381 0.000735
v 0.025474 0.000381 0.000735
v 0.025451 0.001144 0.000735
v 0.025474 0.001309 0.000793
v 0.024033 0.001309 0.000000
v 0.024796 -0.000381 0.000077
v 0.024796 -0.001144 0.000100
v 0.024796 -0.001454 0.000118
v 0.025433 -0.001454 0.000735
v 0.025451 -0.001144 0.000735
v 0.024796 0.000381 0.000077
v 0.024796 0.001144 0.000100
v 0.025441 0.001309 0.000735
v 0.024631 0.001309 0.000078
v 0.024796 0.001309 0.000110
f 1 2 3
f 1 3 4
f 1 4 5
f 1 5 6
f 1 6 13
f 1 13 17
f 1 17 24
f 1 24 34
f 1 34 35
f 1 35 25
f 1 25 18
f 1 18 14
f 1 14 7
f 1 7 8
f 1 8 2
f 2 8 15
f 2 15 22
f 2 22 30
f 2 30 39
f 2 39 41
f 2 41 40
f 2 40 31
f 2 31 23
f 2 23 16
f 2 16 12
f 2 12 11
f 2 11 10
f 2 10 9
f 2 9 5
f 2 5 4
f 2 4 3
f 5 9 6
f 6 9 10
f 6 10 11
f 6 11 12
f 6 12 13
f 7 14 15
f 7 15 8
f 12 16 13
f 13 16 17
f 14 18 19
f 14 19 20
f 14 20 15
f 15 20 21
f 15 21 22
f 16 23 17
f 17 23 31
f 17 31 24
f 18 25 26
f 18 26 19
f 19 26 27
f 19 27 28
f 19 28 20
f 20 28 21
f 21 28 29
f 21 29 30
f 21 30 22
f 24 31 37
f 24 37 32
f 24 32 33
f 24 33 34
f 25 35 36
f 25 36 26
f 26 36 27
f 27 36 33
f 27 33 32
f 27 32 37
f 27 37 28
f 28 37 38
f 28 38 29
f 29 39 30
f 29 38 39
f 31 40 37
f 33 36 35
f 33 35 34
f 37 40 38
f 38 40 41
f 38 41 39
