v 0.005329 -0.026656 0.003676
v 0.005328 -0.026657 0.003677
v 0.005328 -0.026502 0.003676
v 0.005910 -0.026321 0.003676
v 0.005328 -0.026657 0.007840
v 0.007248 -0.025549 0.003676
v 0.005328 -0.014244 0.003676
v 0.007248 -0.025549 0.007840
v 0.005328 -0.014107 0.007840
v 0.008774 -0.024668 0.003676
v 0.009031 -0.024519 0.007840
v 0.005328 -0.012811 0.004993
v 0.009335 -0.010367 0.005147
v 0.009335 -0.010434 0.005094
v 0.009335 -0.012256 0.003676
v 0.009335 -0.011956 0.007840
v 0.009335 -0.009833 0.005882
v 0.005328 -0.012738 0.005882
v 0.009335 -0.024343 0.003676
v 0.009335 -0.024343 0.007840
v 0.005328 -0.012645 0.005147
v 0.009335 -0.012258 0.003677
v 0.009335 -0.014927 0.003676
v 0.005328 -0.012676 0.005545
f 1 2 3
f 1 3 7
f 1 7 15
f 1 15 23
f 1 23 19
f 1 19 10
f 1 10 6
f 1 6 4
f 1 4 2
f 2 5 9
f 2 9 18
f 2 18 24
f 2 24 21
f 2 21 12
f 2 12 7
f 2 7 3
f 2 4 6
f 2 6 8
f 2 8 5
f 5 8 11
f 5 11 20
f 5 20 16
f 5 16 9
f 6 10 11
f 6 11 8
f 7 12 13
f 7 13 14
f 7 14 15
f 9 16 17
f 9 17 18
f 10 19 11
f 11 19 20
f 12 21 13
f 13 21 17
f 13 17 16
f 13 16 20
f 13 20 19
f 13 19 23
f 13 23 22
f 13 22 14
f 14 22 15
f 15 22 23
f 17 21 24
f 17 24 18
