v -0.004923 -0.013264 0.024265
v -0.004923 -0.014065 0.023524
v -0.004923 -0.013353 0.024909
v 0.000004 -0.014143 0.024265
v 0.000004 -0.014897 0.023524
v -0.004923 -0.026833 0.023524
v -0.004923 -0.013361 0.024965
v -0.001145 -0.014116 0.025000
v 0.000004 -0.014878 0.025000
v 0.000004 -0.029513 0.023524
v -0.004920 -0.026892 0.023524
v -0.004923 -0.026890 0.023529
v -0.004923 -0.013389 0.025000
v 0.000004 -0.029373 0.025000
v 0.000004 -0.029513 0.024265
v -0.000376 -0.029513 0.023524
v -0.004587 -0.027084 0.024265
v -0.004923 -0.026890 0.024265
v -0.001908 -0.028632 0.023524
v -0.004923 -0.026357 0.025000
v -0.000382 -0.029373 0.025000
v -0.000382 -0.029513 0.024265
v -0.000382 -0.029513 0.023529
v -0.000383 -0.029512 0.023524
v -0.001908 -0.028632 0.024265
v -0.001908 -0.028610 0.025000
v -0.004923 -0.026881 0.024300
v -0.001145 -0.029073 0.023524
v -0.004196 -0.027084 0.025000
f 1 2 6
f 1 6 12
f 1 12 18
f 1 18 27
f 1 27 20
f 1 20 13
f 1 13 7
f 1 7 3
f 1 3 4
f 1 4 5
f 1 5 2
f 2 5 10
f 2 10 16
f 2 16 24
f 2 24 28
f 2 28 19
f 2 19 11
f 2 11 6
f 3 7 4
f 4 7 8
f 4 8 9
f 4 9 14
f 4 14 15
f 4 15 10
f 4 10 5
f 6 11 12
f 7 13 8
f 8 13 20
f 8 20 29
f 8 29 26
f 8 26 21
f 8 21 14
f 8 14 9
f 10 15 22
f 10 22 23
f 10 23 16
f 11 17 18
f 11 18 12
f 11 19 17
f 14 21 22
f 14 22 15
f 16 23 24
f 17 19 25
f 17 25 26
f 17 26 18
f 18 26 27
f 19 28 23
f 19 23 22
f 19 22 25
f 20 27 29
f 21 26 22
f 22 26 25
f 23 28 24
f 26 29 27
