v 0.014776 0.004147 0.012498
v 0.014770 0.004147 0.012493
v 0.015419 0.001310 0.012498
v 0.025749 0.004147 0.012498
v 0.013174 0.004147 0.011029
v 0.015322 0.001310 0.012406
v 0.025749 0.001310 0.012498
v 0.025749 0.004147 0.008722
v 0.013169 0.004147 0.011011
v 0.013515 0.001310 0.010294
v 0.013585 0.001310 0.010453
v 0.013892 0.001310 0.011029
v 0.025749 0.001310 0.008722
v 0.014629 0.004147 0.008722
v 0.013163 0.004147 0.010982
v 0.013083 0.004147 0.010294
v 0.015052 0.001310 0.008722
f 1 2 3
f 1 3 7
f 1 7 4
f 1 4 8
f 1 8 14
f 1 14 16
f 1 16 15
f 1 15 9
f 1 9 5
f 1 5 2
f 2 5 3
f 3 6 12
f 3 12 11
f 3 11 10
f 3 10 17
f 3 17 13
f 3 13 7
f 3 5 6
f 4 7 13
f 4 13 8
f 5 9 10
f 5 10 11
f 5 11 12
f 5 12 6
f 8 13 17
f 8 17 14
f 9 15 10
f 10 15 16
f 10 16 17
f 14 17 16
