v -0.011131 0.010286 0.022354
v -0.008602 0.012506 0.022354
v -0.011131 0.008022 0.024265
v -0.011131 0.023307 0.022354
v -0.008602 0.010455 0.024265
v -0.008602 0.024767 0.022354
v -0.008602 0.011063 0.025000
v -0.011131 0.008090 0.024340
v -0.011131 0.023307 0.024265
v -0.009672 0.024149 0.022354
v -0.008602 0.024767 0.024265
v -0.011131 0.008706 0.025000
v -0.008602 0.024205 0.025000
v -0.011131 0.023269 0.024618
v -0.011063 0.023269 0.025000
v -0.009537 0.024033 0.025000
v -0.011131 0.023202 0.025000
f 1 2 3
f 1 3 8
f 1 8 12
f 1 12 17
f 1 17 14
f 1 14 9
f 1 9 4
f 1 4 10
f 1 10 6
f 1 6 2
f 2 5 3
f 2 6 11
f 2 11 13
f 2 13 7
f 2 7 5
f 3 5 7
f 3 7 8
f 4 9 10
f 6 10 11
f 7 12 8
f 7 13 16
f 7 16 15
f 7 15 17
f 7 17 12
f 9 14 15
f 9 15 11
f 9 11 10
f 11 16 13
f 11 15 16
f 14 17 15
