v 0.000005 0.029513 0.021705
v 0.000381 0.029513 0.021705
v 0.000005 0.029513 0.017650
v 0.000005 0.015177 0.021705
v 0.000381 0.029513 0.017650
v 0.003433 0.027751 0.021705
v 0.000005 0.015466 0.017650
v 0.000005 0.013448 0.019853
v 0.005818 0.013994 0.021705
v 0.003433 0.027751 0.017650
v 0.004587 0.027085 0.021705
v 0.005818 0.014181 0.017650
v 0.005818 0.012496 0.019118
v 0.000005 0.014079 0.019118
v 0.000005 0.013749 0.019482
v 0.005818 0.012451 0.019760
v 0.005818 0.012458 0.019853
v 0.005818 0.026373 0.021705
v 0.004587 0.027085 0.017650
v 0.005818 0.026373 0.017650
f 1 2 5
f 1 5 3
f 1 3 7
f 1 7 14
f 1 14 15
f 1 15 8
f 1 8 4
f 1 4 9
f 1 9 18
f 1 18 11
f 1 11 6
f 1 6 2
f 2 6 10
f 2 10 5
f 3 5 10
f 3 10 19
f 3 19 20
f 3 20 12
f 3 12 7
f 4 8 9
f 6 11 19
f 6 19 10
f 7 12 13
f 7 13 14
f 8 15 13
f 8 13 16
f 8 16 17
f 8 17 9
f 9 17 16
f 9 16 13
f 9 13 12
f 9 12 20
f 9 20 18
f 11 18 20
f 11 20 19
f 13 15 14
