v 0.012510 -0.005081 0.018383
v 0.012687 -0.004680 0.018383
v 0.012510 -0.008503 0.016590
v 0.012510 -0.008646 0.020751
v 0.013192 -0.004680 0.019117
v 0.014412 -0.004680 0.016590
v 0.012510 -0.022511 0.016590
v 0.014619 -0.004680 0.020751
v 0.012510 -0.022511 0.020751
v 0.025750 -0.004680 0.016590
v 0.024796 -0.015417 0.016590
v 0.025750 -0.004680 0.020751
v 0.024796 -0.015417 0.020751
v 0.025750 -0.014115 0.016590
v 0.025558 -0.014975 0.016590
v 0.025390 -0.015073 0.020751
v 0.025750 -0.014115 0.020751
v 0.025679 -0.014708 0.020751
v 0.025710 -0.014448 0.016590
v 0.025558 -0.014975 0.020751
v 0.025658 -0.014878 0.016590
v 0.025580 -0.014954 0.020751
v 0.025658 -0.014878 0.020751
f 1 2 3
f 1 3 7
f 1 7 9
f 1 9 4
f 1 4 2
f 2 4 5
f 2 5 8
f 2 8 12
f 2 12 10
f 2 10 6
f 2 6 3
f 3 6 10
f 3 10 14
f 3 14 19
f 3 19 21
f 3 21 15
f 3 15 11
f 3 11 7
f 4 8 5
f 4 9 13
f 4 13 16
f 4 16 20
f 4 20 22
f 4 22 23
f 4 23 18
f 4 18 17
f 4 17 12
f 4 12 8
f 7 11 13
f 7 13 9
f 10 12 17
f 10 17 14
f 11 15 16
f 11 16 13
f 14 17 18
f 14 18 19
f 15 20 16
f 15 21 22
f 15 22 20
f 18 23 21
f 18 21 19
f 21 23 22
