v -0.004548 0.027107 0.017646
v -0.004201 0.027308 0.017646
v -0.004548 0.027107 0.013970
v -0.004548 0.014566 0.017646
v -0.004201 0.027308 0.013970
v -0.000623 0.029374 0.017646
v -0.004548 0.014612 0.013970
v -0.004548 0.012945 0.016176
v 0.000004 0.015468 0.017646
v -0.000623 0.029374 0.013970
v -0.000382 0.029512 0.017646
v -0.004548 0.014604 0.013970
v -0.004548 0.014604 0.013971
v -0.004548 0.012971 0.015781
v 0.000004 0.013574 0.015441
v 0.000004 0.013743 0.015805
v 0.000004 0.013953 0.016176
v 0.000004 0.014043 0.016263
v 0.000004 0.014878 0.017074
v 0.000004 0.029512 0.017646
v -0.000382 0.029512 0.013970
v 0.000004 0.015090 0.013970
v -0.004548 0.013032 0.015441
v 0.000004 0.014878 0.014176
v 0.000004 0.029512 0.013970
f 1 2 5
f 1 5 3
f 1 3 7
f 1 7 13
f 1 13 23
f 1 23 14
f 1 14 8
f 1 8 4
f 1 4 9
f 1 9 20
f 1 20 11
f 1 11 6
f 1 6 2
f 2 6 10
f 2 10 5
f 3 5 10
f 3 10 21
f 3 21 25
f 3 25 22
f 3 22 12
f 3 12 7
f 4 8 9
f 6 11 21
f 6 21 10
f 7 12 13
f 8 14 15
f 8 15 16
f 8 16 17
f 8 17 18
f 8 18 19
f 8 19 9
f 9 19 18
f 9 18 17
f 9 17 16
f 9 16 15
f 9 15 24
f 9 24 22
f 9 22 25
f 9 25 20
f 11 20 25
f 11 25 21
f 12 22 23
f 12 23 13
f 14 23 15
f 15 23 24
f 22 24 23
