v -0.004548 0.027106 0.013970
v -0.004196 0.027310 0.013970
v -0.004548 0.027106 0.013249
v -0.004548 0.014613 0.013970
v -0.004196 0.027310 0.013249
v -0.001908 0.028632 0.013970
v -0.004548 0.014305 0.013249
v -0.004548 0.014604 0.013970
v -0.001145 0.029073 0.013249
v -0.000382 0.029513 0.013970
v 0.000004 0.015214 0.013249
v 0.000004 0.015091 0.013970
v -0.000382 0.029513 0.013249
v 0.000004 0.029513 0.013970
v 0.000004 0.029513 0.013249
f 1 2 5
f 1 5 3
f 1 3 7
f 1 7 4
f 1 4 8
f 1 8 12
f 1 12 14
f 1 14 10
f 1 10 6
f 1 6 2
f 2 6 5
f 3 5 9
f 3 9 13
f 3 13 15
f 3 15 11
f 3 11 7
f 4 7 8
f 5 6 9
f 6 10 13
f 6 13 9
f 7 11 12
f 7 12 8
f 10 14 15
f 10 15 13
f 11 15 14
f 11 14 12
