v 0.015397 -0.001454 0.012501
v 0.025750 -0.001454 0.012501
v 0.015419 0.001309 0.012501
v 0.013892 0.001309 0.011029
v 0.014012 -0.001454 0.011029
v 0.025750 0.001309 0.012501
v 0.025750 -0.001454 0.008825
v 0.013585 0.001309 0.010453
v 0.013358 -0.001454 0.010294
v 0.025750 0.001309 0.008825
v 0.014888 -0.001454 0.008825
v 0.013516 0.001309 0.010294
v 0.014273 0.001309 0.009559
v 0.014740 0.001309 0.009106
v 0.014903 0.001309 0.008947
v 0.015030 0.001309 0.008825
f 1 2 6
f 1 6 3
f 1 3 4
f 1 4 5
f 1 5 9
f 1 9 11
f 1 11 7
f 1 7 2
f 2 7 10
f 2 10 6
f 3 6 10
f 3 10 16
f 3 16 15
f 3 15 14
f 3 14 13
f 3 13 12
f 3 12 8
f 3 8 4
f 4 8 9
f 4 9 5
f 7 11 16
f 7 16 10
f 8 12 9
f 9 12 13
f 9 13 14
f 9 14 15
f 9 15 16
f 9 16 11
