v 0.011140 -0.023302 0.016177
v 0.012509 -0.022510 0.016177
v 0.011140 -0.023302 0.020586
v 0.011140 -0.010790 0.016177
v 0.012509 -0.022510 0.020586
v 0.012509 -0.009076 0.016177
v 0.011140 -0.010445 0.020586
v 0.011140 -0.007468 0.018382
v 0.012509 -0.005080 0.018382
v 0.012509 -0.011976 0.020586
v 0.012508 -0.008917 0.020586
v 0.012509 -0.005114 0.018403
v 0.012509 -0.008812 0.020466
f 1 2 5
f 1 5 3
f 1 3 7
f 1 7 8
f 1 8 4
f 1 4 6
f 1 6 2
f 2 6 9
f 2 9 12
f 2 12 13
f 2 13 10
f 2 10 5
f 3 5 10
f 3 10 11
f 3 11 7
f 4 8 9
f 4 9 6
f 7 11 12
f 7 12 9
f 7 9 8
f 10 13 11
f 11 13 12
