v -0.008602 0.024767 0.024265
v -0.008011 0.024796 0.025000
v -0.005722 0.026322 0.025000
v -0.008551 0.024796 0.024265
v -0.008602 0.024767 0.022197
v -0.008602 0.024204 0.025000
v -0.004548 0.026733 0.025000
v -0.004548 0.027085 0.024337
v -0.004548 0.027108 0.024265
v -0.006485 0.025989 0.024265
v -0.008551 0.024796 0.022197
v -0.008602 0.012738 0.022197
v -0.008602 0.011064 0.025000
v -0.004548 0.013001 0.025000
v -0.004548 0.027108 0.022197
v -0.006485 0.025989 0.022197
v -0.008511 0.012655 0.022197
v -0.008602 0.012590 0.022197
v -0.008602 0.010456 0.024265
v -0.008011 0.011064 0.025000
v -0.004959 0.012590 0.025000
v -0.004548 0.012673 0.024265
v -0.004548 0.014691 0.022197
v -0.004548 0.013296 0.023530
v -0.004548 0.012980 0.023889
f 1 2 3
f 1 3 4
f 1 4 11
f 1 11 5
f 1 5 12
f 1 12 18
f 1 18 19
f 1 19 13
f 1 13 6
f 1 6 2
f 2 6 13
f 2 13 20
f 2 20 21
f 2 21 14
f 2 14 7
f 2 7 3
f 3 7 8
f 3 8 9
f 3 9 10
f 3 10 4
f 4 10 16
f 4 16 11
f 5 11 16
f 5 16 15
f 5 15 23
f 5 23 17
f 5 17 12
f 7 14 22
f 7 22 25
f 7 25 24
f 7 24 23
f 7 23 15
f 7 15 9
f 7 9 8
f 9 15 16
f 9 16 10
f 12 17 18
f 13 19 20
f 14 21 22
f 17 23 18
f 18 24 19
f 18 23 24
f 19 22 21
f 19 21 20
f 19 24 25
f 19 25 22
