v 0.000005 -0.013575 0.009559
v 0.005328 -0.012373 0.009559
v 0.000005 -0.013954 0.008824
v 0.000005 -0.015217 0.011765
v 0.005328 -0.012549 0.009775
v 0.005328 -0.014395 0.007355
v 0.000005 -0.014043 0.008737
v 0.000005 -0.029513 0.011765
v 0.005328 -0.014507 0.011765
v 0.005328 -0.013018 0.010294
v 0.005328 -0.012590 0.009820
v 0.000005 -0.014425 0.008365
v 0.005328 -0.014479 0.007355
v 0.000005 -0.015467 0.007355
v 0.000005 -0.015185 0.007628
v 0.000005 -0.029513 0.007355
v 0.000381 -0.029513 0.011765
v 0.005328 -0.026656 0.011765
v 0.005328 -0.026656 0.007733
v 0.005327 -0.026658 0.007355
v 0.000379 -0.029513 0.007355
v 0.000382 -0.029513 0.011764
v 0.001944 -0.028611 0.011765
v 0.004196 -0.027310 0.011765
v 0.000382 -0.029513 0.008088
v 0.004958 -0.026871 0.007355
v 0.000382 -0.029512 0.007355
v 0.001143 -0.029074 0.007355
f 1 2 3
f 1 3 7
f 1 7 12
f 1 12 15
f 1 15 14
f 1 14 16
f 1 16 8
f 1 8 4
f 1 4 2
f 2 4 5
f 2 5 11
f 2 11 10
f 2 10 9
f 2 9 18
f 2 18 19
f 2 19 13
f 2 13 6
f 2 6 3
f 3 6 7
f 4 8 17
f 4 17 23
f 4 23 24
f 4 24 18
f 4 18 9
f 4 9 10
f 4 10 11
f 4 11 5
f 6 12 7
f 6 13 20
f 6 20 26
f 6 26 28
f 6 28 27
f 6 27 21
f 6 21 16
f 6 16 14
f 6 14 15
f 6 15 12
f 8 16 21
f 8 21 25
f 8 25 22
f 8 22 17
f 13 19 20
f 17 22 23
f 18 24 20
f 18 20 19
f 20 24 22
f 20 22 25
f 20 25 26
f 21 27 25
f 22 24 23
f 25 27 28
f 25 28 26
