v -0.014147 -0.004035 0.001471
v -0.014277 -0.004035 0.001591
v -0.014660 -0.004035 0.000736
v -0.015166 -0.001123 0.000736
v -0.014811 -0.001123 0.001471
v -0.015418 -0.001123 0.002206
v -0.014944 -0.004035 0.002206
v -0.014673 -0.004035 0.000723
v -0.015641 -0.001123 0.000275
v -0.015179 -0.001123 0.000723
v -0.025750 -0.001123 0.002206
v -0.025750 -0.004035 0.002206
v -0.014879 -0.004035 0.000531
v -0.015040 -0.004035 0.000388
v -0.015641 -0.003433 0.000000
v -0.015664 -0.001123 0.000266
v -0.025750 -0.001123 0.001471
v -0.025750 -0.004035 0.001471
v -0.015641 -0.004035 0.000000
v -0.016404 -0.001123 0.000000
v -0.025559 -0.001123 0.000944
v -0.025559 -0.001145 0.000945
v -0.025451 -0.001145 0.000736
v -0.025559 -0.004035 0.001173
v -0.024033 -0.004035 0.000000
v -0.024033 -0.001123 0.000000
v -0.025451 -0.001123 0.000736
v -0.024796 -0.001123 0.000099
v -0.024796 -0.001145 0.000100
v -0.025405 -0.001908 0.000736
v -0.025337 -0.002670 0.000736
v -0.025492 -0.004035 0.001090
v -0.024194 -0.004035 0.000065
v -0.024796 -0.001908 0.000145
v -0.024054 -0.001123 0.000002
v -0.024796 -0.002670 0.000213
v -0.025245 -0.003433 0.000736
v -0.025154 -0.004035 0.000736
v -0.024796 -0.004035 0.000393
v -0.024796 -0.003433 0.000304
f 1 2 7
f 1 7 12
f 1 12 18
f 1 18 24
f 1 24 32
f 1 32 38
f 1 38 39
f 1 39 33
f 1 33 25
f 1 25 19
f 1 19 14
f 1 14 13
f 1 13 8
f 1 8 3
f 1 3 4
f 1 4 5
f 1 5 6
f 1 6 2
f 2 6 7
f 3 8 9
f 3 9 10
f 3 10 4
f 4 10 9
f 4 9 16
f 4 16 20
f 4 20 26
f 4 26 35
f 4 35 28
f 4 28 27
f 4 27 21
f 4 21 17
f 4 17 11
f 4 11 6
f 4 6 5
f 6 11 12
f 6 12 7
f 8 13 9
f 9 13 14
f 9 14 15
f 9 15 16
f 11 17 18
f 11 18 12
f 14 19 15
f 15 19 25
f 15 25 26
f 15 26 20
f 15 20 16
f 17 21 18
f 18 21 22
f 18 22 23
f 18 23 24
f 21 27 23
f 21 23 22
f 23 27 28
f 23 28 29
f 23 29 30
f 23 30 24
f 24 30 31
f 24 31 32
f 25 33 34
f 25 34 29
f 25 29 28
f 25 28 35
f 25 35 26
f 29 34 30
f 30 34 31
f 31 34 36
f 31 36 37
f 31 37 32
f 32 37 38
f 33 39 40
f 33 40 36
f 33 36 34
f 36 40 37
f 37 40 38
f 38 40 39
