v -0.025750 0.014115 0.013971
v -0.025750 0.014115 0.013167
v -0.025750 0.013354 0.013972
v -0.025748 0.014118 0.013972
v -0.025658 0.014879 0.013972
v -0.025658 0.014879 0.013167
v -0.025750 0.006487 0.013167
v -0.025750 0.006488 0.013972
v -0.025559 0.014977 0.013972
v -0.025649 0.014888 0.013167
v -0.012852 0.006487 0.013167
v -0.025750 0.006487 0.013972
v -0.013784 0.006487 0.013972
v -0.025559 0.014977 0.013167
v -0.024795 0.015419 0.013972
v -0.008604 0.011943 0.013167
v -0.008604 0.012882 0.013972
v -0.013753 0.006487 0.013972
v -0.024444 0.015622 0.013167
v -0.009538 0.024227 0.013972
v -0.009538 0.024227 0.013167
v -0.008604 0.024765 0.013167
v -0.008604 0.024765 0.013972
v -0.008775 0.024667 0.013971
v -0.008775 0.024667 0.013167
f 1 2 7
f 1 7 12
f 1 12 8
f 1 8 3
f 1 3 4
f 1 4 5
f 1 5 6
f 1 6 2
f 2 6 10
f 2 10 14
f 2 14 19
f 2 19 21
f 2 21 25
f 2 25 22
f 2 22 16
f 2 16 11
f 2 11 7
f 3 8 13
f 3 13 18
f 3 18 17
f 3 17 23
f 3 23 20
f 3 20 15
f 3 15 9
f 3 9 5
f 3 5 4
f 5 9 10
f 5 10 6
f 7 11 18
f 7 18 13
f 7 13 12
f 8 12 13
f 9 14 10
f 9 15 14
f 11 16 17
f 11 17 18
f 14 15 19
f 15 20 21
f 15 21 19
f 16 22 23
f 16 23 17
f 20 23 24
f 20 24 25
f 20 25 21
f 22 25 24
f 22 24 23
