v 0.005328 -0.026657 0.011776
v 0.005717 -0.026433 0.011776
v 0.005328 -0.026657 0.015821
v 0.005328 -0.014497 0.011776
v 0.007248 -0.025549 0.012500
v 0.007248 -0.025549 0.016174
v 0.009335 -0.024344 0.011776
v 0.005911 -0.026320 0.016174
v 0.005330 -0.026656 0.016174
v 0.005328 -0.014340 0.016174
v 0.005328 -0.012911 0.013236
v 0.009335 -0.009703 0.013971
v 0.009335 -0.012240 0.011776
v 0.009335 -0.024344 0.016174
v 0.005328 -0.014243 0.016174
v 0.005328 -0.012458 0.013971
v 0.009335 -0.010300 0.014503
v 0.009335 -0.012272 0.016174
v 0.009334 -0.012255 0.016174
f 1 2 3
f 1 3 10
f 1 10 15
f 1 15 16
f 1 16 11
f 1 11 4
f 1 4 13
f 1 13 7
f 1 7 2
f 2 5 6
f 2 6 3
f 2 7 5
f 3 8 9
f 3 9 10
f 3 6 8
f 4 11 12
f 4 12 13
f 5 7 14
f 5 14 6
f 6 14 18
f 6 18 19
f 6 19 15
f 6 15 10
f 6 10 9
f 6 9 8
f 7 13 12
f 7 12 17
f 7 17 18
f 7 18 14
f 11 16 12
f 12 16 15
f 12 15 17
f 15 19 17
f 17 19 18
