v 0.011140 -0.023302 0.020586
v 0.012509 -0.022511 0.020586
v 0.011140 -0.023302 0.024265
v 0.011140 -0.010446 0.020586
v 0.012509 -0.022511 0.024265
v 0.012509 -0.011975 0.020586
v 0.011140 -0.023270 0.024571
v 0.011140 -0.008208 0.022059
v 0.012509 -0.006186 0.022059
v 0.012508 -0.008916 0.020586
v 0.012509 -0.022506 0.024272
v 0.011140 -0.023194 0.025000
v 0.012509 -0.008916 0.020589
v 0.011140 -0.007949 0.022794
v 0.012509 -0.005144 0.022794
v 0.012509 -0.021823 0.025000
v 0.011140 -0.009461 0.025000
v 0.011140 -0.008731 0.024307
v 0.012509 -0.006625 0.024867
v 0.012509 -0.007329 0.025000
v 0.011826 -0.008011 0.025000
f 1 2 5
f 1 5 3
f 1 3 7
f 1 7 12
f 1 12 17
f 1 17 18
f 1 18 14
f 1 14 8
f 1 8 4
f 1 4 10
f 1 10 6
f 1 6 2
f 2 6 13
f 2 13 9
f 2 9 15
f 2 15 19
f 2 19 20
f 2 20 16
f 2 16 11
f 2 11 5
f 3 5 7
f 4 8 9
f 4 9 10
f 5 11 12
f 5 12 7
f 6 10 13
f 8 14 15
f 8 15 9
f 9 13 10
f 11 16 12
f 12 16 20
f 12 20 21
f 12 21 17
f 14 18 15
f 15 18 19
f 17 21 18
f 18 21 19
f 19 21 20
