v -0.025749 -0.001123 0.023029
v -0.025749 -0.001123 0.019118
v -0.025749 -0.004035 0.023029
v -0.015173 -0.001123 0.023029
v -0.016400 -0.001123 0.019035
v -0.025749 -0.001125 0.019035
v -0.025749 -0.004035 0.019035
v -0.014568 -0.004035 0.023029
v -0.013079 -0.004035 0.021323
v -0.013793 -0.001123 0.021323
v -0.015154 -0.001123 0.019035
v -0.014760 -0.004035 0.019035
v -0.013240 -0.004035 0.020589
v -0.013652 -0.001123 0.020589
f 1 2 6
f 1 6 7
f 1 7 3
f 1 3 8
f 1 8 4
f 1 4 10
f 1 10 14
f 1 14 11
f 1 11 5
f 1 5 2
f 2 5 6
f 3 7 12
f 3 12 13
f 3 13 9
f 3 9 8
f 4 8 9
f 4 9 10
f 5 11 12
f 5 12 7
f 5 7 6
f 9 13 14
f 9 14 10
f 11 14 13
f 11 13 12
