v -0.010817 -0.009106 0.024265
v -0.011064 -0.009106 0.024560
v -0.011864 -0.009106 0.022791
v -0.012434 -0.006737 0.024265
v -0.012589 -0.006737 0.025000
v -0.011826 -0.008011 0.025000
v -0.011494 -0.009106 0.025000
v -0.013498 -0.006737 0.022791
v -0.025750 -0.009106 0.022791
v -0.025558 -0.006737 0.025000
v -0.025558 -0.009106 0.025000
v -0.025507 -0.006737 0.022791
v -0.025750 -0.009106 0.024265
v -0.025750 -0.006739 0.022791
v -0.025750 -0.006737 0.024265
v -0.025750 -0.006737 0.022794
f 1 2 7
f 1 7 11
f 1 11 13
f 1 13 9
f 1 9 3
f 1 3 4
f 1 4 5
f 1 5 6
f 1 6 2
f 2 6 7
f 3 8 4
f 3 9 14
f 3 14 12
f 3 12 8
f 4 8 12
f 4 12 16
f 4 16 15
f 4 15 10
f 4 10 5
f 5 10 11
f 5 11 7
f 5 7 6
f 9 13 15
f 9 15 16
f 9 16 14
f 10 15 13
f 10 13 11
f 12 14 16
