v -0.025750 -0.001125 0.019034
v -0.025750 -0.004035 0.019034
v -0.016400 -0.001123 0.019034
v -0.025750 -0.001123 0.018403
v -0.025750 -0.004035 0.014696
v -0.014760 -0.004035 0.019034
v -0.015155 -0.001123 0.019034
v -0.025750 -0.001123 0.014706
v -0.025750 -0.001123 0.014696
v -0.014933 -0.004035 0.014696
v -0.012809 -0.004035 0.016912
v -0.013540 -0.001123 0.016912
v -0.015562 -0.001123 0.014696
v -0.015411 -0.001123 0.014696
v -0.013905 -0.001123 0.016177
v -0.013499 -0.004035 0.016177
v -0.012880 -0.004035 0.016830
f 1 2 6
f 1 6 7
f 1 7 3
f 1 3 4
f 1 4 8
f 1 8 9
f 1 9 5
f 1 5 2
f 2 5 10
f 2 10 16
f 2 16 17
f 2 17 11
f 2 11 6
f 3 7 12
f 3 12 15
f 3 15 14
f 3 14 13
f 3 13 8
f 3 8 4
f 5 9 13
f 5 13 14
f 5 14 10
f 6 11 7
f 7 11 12
f 8 13 9
f 10 14 15
f 10 15 16
f 11 17 15
f 11 15 12
f 15 17 16
