v -0.013292 -0.006737 0.023522
v -0.013325 -0.006737 0.023392
v -0.014348 -0.004035 0.023522
v -0.025749 -0.006737 0.023522
v -0.013501 -0.006737 0.022797
v -0.014603 -0.004035 0.022950
v -0.025271 -0.004035 0.023522
v -0.025749 -0.004036 0.023522
v -0.025749 -0.006737 0.023287
v -0.014677 -0.004035 0.022797
v -0.025745 -0.006737 0.022797
v -0.025749 -0.004035 0.022950
v -0.025749 -0.006735 0.022797
v -0.025749 -0.004035 0.022797
f 1 2 3
f 1 3 7
f 1 7 8
f 1 8 4
f 1 4 9
f 1 9 11
f 1 11 5
f 1 5 2
f 2 5 3
f 3 5 6
f 3 6 10
f 3 10 14
f 3 14 12
f 3 12 7
f 4 8 12
f 4 12 14
f 4 14 13
f 4 13 9
f 5 10 6
f 5 11 13
f 5 13 14
f 5 14 10
f 7 12 8
f 9 13 11
