v 0.008894 0.012257 0.012838
v 0.008894 0.010624 0.014706
v 0.005818 0.013911 0.012838
v 0.008894 0.024597 0.012838
v 0.008894 0.010441 0.015250
v 0.005818 0.012185 0.015441
v 0.005818 0.026374 0.012838
v 0.008774 0.024668 0.012838
v 0.008894 0.024597 0.017644
v 0.008894 0.010397 0.015441
v 0.008894 0.012285 0.017644
v 0.005818 0.014184 0.017644
v 0.005818 0.026374 0.017644
v 0.005867 0.026346 0.012838
v 0.008774 0.024668 0.016912
v 0.008773 0.024668 0.017644
v 0.008551 0.024796 0.017644
f 1 2 3
f 1 3 7
f 1 7 14
f 1 14 8
f 1 8 4
f 1 4 9
f 1 9 11
f 1 11 10
f 1 10 5
f 1 5 2
f 2 5 6
f 2 6 3
f 3 6 12
f 3 12 13
f 3 13 7
f 4 8 15
f 4 15 9
f 5 10 6
f 6 10 11
f 6 11 12
f 7 13 14
f 8 14 15
f 9 15 16
f 9 16 17
f 9 17 13
f 9 13 12
f 9 12 11
f 13 17 15
f 13 15 14
f 15 17 16
