v -0.004548 0.027107 0.009558
v -0.000382 0.029513 0.009558
v -0.004548 0.027107 0.005153
v -0.004548 0.014834 0.009558
v 0.000004 0.029513 0.009558
v -0.000382 0.029513 0.005882
v -0.003265 0.027848 0.005153
v -0.004548 0.014567 0.005153
v -0.004548 0.014703 0.009439
v 0.000004 0.015342 0.009558
v 0.000004 0.029513 0.005153
v -0.000384 0.029512 0.005153
v -0.000623 0.029374 0.005153
v 0.000004 0.014080 0.006618
v 0.000004 0.013749 0.006981
v -0.004548 0.012770 0.007353
v 0.000004 0.015465 0.005153
v -0.004548 0.013218 0.008088
v 0.000004 0.013449 0.007353
v -0.004548 0.012957 0.007692
f 1 2 6
f 1 6 3
f 1 3 8
f 1 8 16
f 1 16 20
f 1 20 18
f 1 18 9
f 1 9 4
f 1 4 10
f 1 10 5
f 1 5 2
f 2 5 11
f 2 11 6
f 3 6 7
f 3 7 13
f 3 13 12
f 3 12 11
f 3 11 17
f 3 17 8
f 4 9 10
f 5 10 19
f 5 19 15
f 5 15 14
f 5 14 17
f 5 17 11
f 6 11 12
f 6 12 13
f 6 13 7
f 8 14 15
f 8 15 16
f 8 17 14
f 9 18 10
f 10 18 19
f 15 19 16
f 16 19 20
f 18 20 19
