v 0.025750 0.009106 0.012838
v 0.025750 0.014115 0.012838
v 0.025750 0.009106 0.016036
v 0.012125 0.009106 0.012838
v 0.025750 0.014115 0.016036
v 0.025658 0.014878 0.012838
v 0.025676 0.014732 0.016036
v 0.011175 0.009106 0.016036
v 0.010308 0.009106 0.014706
v 0.008894 0.012256 0.012838
v 0.025613 0.014924 0.012838
v 0.025658 0.014878 0.016036
v 0.008894 0.011160 0.016036
v 0.008894 0.010395 0.015441
v 0.010500 0.009106 0.015557
v 0.010330 0.009106 0.015362
v 0.008894 0.010441 0.015249
v 0.008894 0.010624 0.014706
v 0.008894 0.024598 0.012838
v 0.025559 0.014978 0.012838
v 0.025559 0.014978 0.016036
v 0.008894 0.024598 0.016036
v 0.010338 0.009106 0.015441
v 0.008921 0.024583 0.016036
v 0.009874 0.024033 0.012838
v 0.024942 0.015334 0.016036
v 0.023171 0.016357 0.012838
v 0.012518 0.022507 0.012838
v 0.012518 0.022507 0.016036
v 0.015788 0.020619 0.016036
f 1 2 5
f 1 5 3
f 1 3 8
f 1 8 15
f 1 15 23
f 1 23 16
f 1 16 9
f 1 9 4
f 1 4 10
f 1 10 19
f 1 19 25
f 1 25 28
f 1 28 27
f 1 27 20
f 1 20 11
f 1 11 6
f 1 6 2
f 2 6 7
f 2 7 5
f 3 5 7
f 3 7 12
f 3 12 21
f 3 21 26
f 3 26 30
f 3 30 29
f 3 29 24
f 3 24 22
f 3 22 13
f 3 13 8
f 4 9 10
f 6 11 12
f 6 12 7
f 8 13 14
f 8 14 15
f 9 16 14
f 9 14 17
f 9 17 18
f 9 18 10
f 10 18 17
f 10 17 14
f 10 14 13
f 10 13 22
f 10 22 19
f 11 20 21
f 11 21 12
f 14 16 23
f 14 23 15
f 19 22 24
f 19 24 25
f 20 26 21
f 20 27 26
f 24 28 25
f 24 29 28
f 26 27 28
f 26 28 30
f 28 29 30
