v 0.013608 -0.004704 0.025000
v 0.014116 -0.001454 0.025000
v 0.013406 -0.004704 0.024754
v 0.025559 -0.004704 0.025000
v 0.013359 -0.001454 0.022794
v 0.012656 -0.004704 0.022794
v 0.025559 -0.001454 0.025000
v 0.025749 -0.004704 0.024265
v 0.025672 -0.001454 0.024563
v 0.013224 -0.004704 0.022059
v 0.013198 -0.004704 0.022088
v 0.013017 -0.004704 0.022305
v 0.015196 -0.001454 0.020751
v 0.025749 -0.001454 0.024265
v 0.025749 -0.004704 0.020751
v 0.014613 -0.004704 0.020751
v 0.025749 -0.001454 0.020751
f 1 2 3
f 1 3 6
f 1 6 12
f 1 12 11
f 1 11 10
f 1 10 16
f 1 16 15
f 1 15 8
f 1 8 4
f 1 4 7
f 1 7 2
f 2 5 6
f 2 6 3
f 2 7 9
f 2 9 14
f 2 14 17
f 2 17 13
f 2 13 5
f 4 8 9
f 4 9 7
f 5 10 11
f 5 11 12
f 5 12 6
f 5 13 10
f 8 14 9
f 8 15 17
f 8 17 14
f 10 13 16
f 13 17 15
f 13 15 16
