v 0.008779 0.012379 0.005142
v 0.008913 0.012559 0.005142
v 0.008913 0.012269 0.005143
v 0.005818 0.014182 0.005142
v 0.008913 0.024587 0.005142
v 0.008913 0.010263 0.006618
v 0.005818 0.012496 0.006618
v 0.005818 0.026374 0.005142
v 0.005909 0.026322 0.005142
v 0.007234 0.025557 0.008953
v 0.008913 0.024587 0.008953
v 0.008913 0.010695 0.007353
v 0.005818 0.012457 0.007353
v 0.005818 0.012452 0.007260
v 0.005818 0.026374 0.008953
v 0.005876 0.026341 0.008953
v 0.008913 0.012435 0.008953
v 0.005818 0.014050 0.008953
f 1 2 3
f 1 3 4
f 1 4 8
f 1 8 9
f 1 9 5
f 1 5 2
f 2 5 11
f 2 11 17
f 2 17 12
f 2 12 6
f 2 6 3
f 3 6 4
f 4 6 7
f 4 7 14
f 4 14 13
f 4 13 18
f 4 18 15
f 4 15 8
f 5 9 10
f 5 10 11
f 6 12 13
f 6 13 14
f 6 14 7
f 8 15 16
f 8 16 9
f 9 16 10
f 10 16 15
f 10 15 18
f 10 18 17
f 10 17 11
f 12 17 18
f 12 18 13
